<svg width="174" height="108" viewBox="0 0 174 108" fill="none" xmlns="http://www.w3.org/2000/svg">
<path d="M147.442 75.2719L146.016 79.2858C145.787 79.9294 146.125 80.6361 146.77 80.8643L159.815 85.4775C160.46 85.7057 161.168 85.3689 161.397 84.7253L162.823 80.7113C163.052 80.0677 162.714 79.361 162.069 79.1329L149.024 74.5196C148.379 74.2915 147.671 74.6283 147.442 75.2719Z" fill="#2C3A48"/>
<path d="M23.2848 64.3693C23.3945 64.0638 23.4316 63.737 23.393 63.4148C23.3545 63.0925 23.2415 62.7836 23.0628 62.5123C18.9291 56.0128 19.0589 43.3746 23.0417 31.0508C27.0244 18.727 34.9078 8.77884 42.166 6.07133C42.4441 5.98147 42.7015 5.83731 42.9232 5.64723C43.1449 5.45715 43.3265 5.22495 43.4573 4.96417C43.5882 4.70339 43.6657 4.41924 43.6854 4.12827C43.7051 3.83729 43.6665 3.54533 43.5719 3.26936C43.4761 2.98993 43.324 2.73301 43.1249 2.51444C42.9258 2.29586 42.684 2.12026 42.4143 1.99843C42.1446 1.87661 41.8528 1.81115 41.5568 1.80609C41.2608 1.80102 40.9669 1.85646 40.6932 1.96898C32.1226 5.07517 23.5755 15.9439 18.9242 29.669C14.2729 43.3942 14.442 57.1001 19.3893 64.8445C19.6085 65.1919 19.9223 65.4699 20.2939 65.6461C20.6656 65.8223 21.0798 65.8894 21.4882 65.8396C21.8966 65.7897 22.2824 65.625 22.6005 65.3647C22.9187 65.1044 23.156 64.7592 23.2848 64.3693V64.3693Z" fill="#F19B2C"/>
<path d="M36.3565 35.5154L36.3582 35.3436L42.8401 4.29238C42.9061 3.93891 42.834 3.57366 42.6386 3.27151C42.4433 2.96935 42.1395 2.75319 41.7895 2.66731C41.6112 2.63068 41.4274 2.62968 41.2487 2.66436C41.07 2.69905 40.9 2.76874 40.7485 2.86939C40.5969 2.97004 40.4669 3.09966 40.366 3.25075C40.265 3.40185 40.195 3.57142 40.1602 3.74966L33.7148 34.5952L19.9943 63.0992C19.8967 63.4154 19.9168 63.756 20.0508 64.0586C20.1848 64.3613 20.4238 64.6055 20.7239 64.7464C21.0239 64.8873 21.3649 64.9155 21.684 64.8258C22.0032 64.7361 22.2792 64.5344 22.4614 64.258L36.3551 35.6527C36.3551 35.6527 36.3561 35.5497 36.3565 35.5154Z" fill="#F19B2C"/>
<path d="M32.5471 25.9776L27.5028 40.8806C27.3082 41.4557 27.6177 42.0793 28.1942 42.2735L32.9892 43.8888C33.5657 44.083 34.1908 43.7743 34.3855 43.1992L39.4298 28.2962C39.6244 27.7211 39.3149 27.0975 38.7384 26.9033L33.9434 25.288C33.3669 25.0938 32.7418 25.4026 32.5471 25.9776Z" fill="#F19B2C"/>
<path d="M34.4727 30.9979C35.0562 31.1757 36.2113 29.3328 36.3894 28.7508L36.8507 27.416C36.9413 27.1436 36.9215 26.8466 36.7954 26.5886C36.6694 26.3305 36.4472 26.1319 36.1763 26.0352L24.8881 22.2099C24.6104 22.13 24.3127 22.1586 24.0555 22.29C23.7983 22.4213 23.601 22.6455 23.5036 22.9169L23.0419 24.286C22.9983 24.4209 22.9821 24.563 22.9943 24.7042C23.0065 24.8453 23.0468 24.9827 23.1128 25.1081C23.1789 25.2335 23.2693 25.3445 23.379 25.4346C23.4886 25.5248 23.6151 25.5921 23.7511 25.6328L34.4727 30.9979Z" fill="#F19B2C"/>
<path d="M30.4226 43.0783C30.7002 43.1672 31.0018 43.1426 31.2613 43.0101C31.5208 42.8776 31.717 42.6478 31.8071 42.3712L32.2687 41.0021C32.2744 40.4526 32.6753 38.2929 32.0921 38.0809L20.3064 35.7617C20.0288 35.6818 19.731 35.7104 19.4738 35.8418C19.2166 35.9731 19.0193 36.1973 18.9219 36.4687L18.4606 37.8035C18.37 38.0759 18.3899 38.3729 18.5159 38.6309C18.6419 38.8889 18.8642 39.0875 19.135 39.1843L30.4226 43.0783Z" fill="#F19B2C"/>
<path d="M32.8943 37.2652C32.8334 37.445 32.8086 37.635 32.8215 37.8244C32.8343 38.0137 32.8845 38.1987 32.9691 38.3686C33.0537 38.5386 33.1711 38.6903 33.3146 38.8149C33.458 38.9395 33.6247 39.0347 33.8051 39.095L165.355 83.4133C165.536 83.4741 165.726 83.4988 165.916 83.486C166.106 83.4732 166.291 83.4232 166.461 83.3388C166.632 83.2544 166.784 83.1373 166.909 82.9942C167.034 82.8511 167.129 82.6848 167.189 82.5048L168.964 77.3367C169.079 76.9688 169.049 76.5709 168.88 76.2244C168.711 75.8779 168.415 75.609 168.054 75.4727L36.4001 31.1533C36.2199 31.0925 36.0294 31.0678 35.8396 31.0806C35.6498 31.0934 35.4644 31.1434 35.294 31.2278C35.1236 31.3122 34.9716 31.4293 34.8467 31.5724C34.7217 31.7155 34.6263 31.8818 34.5659 32.0618L32.8943 37.2652Z" fill="#4D5A68"/>
<path d="M34.731 30.1327L31.9067 38.2796C31.6519 39.0145 32.0426 39.8164 32.7794 40.0706L36.2609 41.2719C36.9976 41.5261 37.8015 41.1364 38.0563 40.4014L40.8807 32.2545C41.1355 31.5196 40.7447 30.7177 40.008 30.4635L36.5264 29.2622C35.7897 29.008 34.9858 29.3977 34.731 30.1327Z" fill="#5C6A78"/>
</svg>
