<svg width="180" height="120" viewBox="0 0 180 120" fill="none" xmlns="http://www.w3.org/2000/svg">
<path d="M16.7246 107.905C16.7246 108.17 16.8518 108.424 17.0783 108.612C17.3048 108.799 17.6119 108.904 17.9322 108.904C18.2572 108.905 18.5698 108.801 18.8043 108.614C19.0388 108.428 19.1771 108.174 19.1901 107.905V1.46587C19.1901 1.18977 19.0575 0.924965 18.8216 0.729726C18.5857 0.534488 18.2658 0.424805 17.9322 0.424805C17.6074 0.435566 17.3002 0.549986 17.0751 0.744071C16.8499 0.938155 16.7243 1.19683 16.7246 1.46587V107.905Z" fill="#F3B36A"/>
<path d="M80.1914 14.1209C80.1914 15.6017 80.6316 17.0493 81.4563 18.2805C82.281 19.5118 83.4532 20.4714 84.8246 21.0381C86.196 21.6048 87.7051 21.753 89.161 21.4641C90.6169 21.1752 91.9543 20.4622 93.0039 19.4151C94.0536 18.368 94.7684 17.0339 95.058 15.5816C95.3476 14.1292 95.1989 12.6238 94.6309 11.2557C94.0628 9.88761 93.1008 8.71829 91.8666 7.8956C90.6323 7.0729 89.1812 6.63379 87.6968 6.63379C85.7062 6.63379 83.7972 7.42261 82.3897 8.82671C80.9822 10.2308 80.1914 12.1352 80.1914 14.1209Z" fill="#2C3A48"/>
<path d="M108.56 113.652H108.939C109.623 113.55 110.239 113.182 110.652 112.629C111.064 112.075 111.241 111.381 111.142 110.699L98.3694 20.5784C98.2242 19.9403 97.8441 19.3798 97.3043 19.0081C96.7646 18.6364 96.1045 18.4804 95.4549 18.5711C94.8054 18.6618 94.2136 18.9926 93.797 19.4979C93.3803 20.0033 93.1691 20.6463 93.2051 21.2996L106.012 111.42C106.102 112.033 106.408 112.594 106.875 113.003C107.342 113.412 107.939 113.642 108.56 113.652V113.652Z" fill="#3C4A58"/>
<path d="M71.068 97.3729H105.187C105.534 97.3729 105.866 97.2354 106.112 96.9906C106.357 96.7459 106.495 96.4139 106.495 96.0678C106.495 95.7217 106.357 95.3897 106.112 95.145C105.866 94.9002 105.534 94.7627 105.187 94.7627H71.068C70.7211 94.7627 70.3883 94.9002 70.143 95.145C69.8976 95.3897 69.7598 95.7217 69.7598 96.0678C69.7598 96.4139 69.8976 96.7459 70.143 96.9906C70.3883 97.2354 70.7211 97.3729 71.068 97.3729V97.3729Z" fill="#3C4A58"/>
<path d="M77.678 44.7913H98.576C98.7632 44.8219 98.9549 44.8115 99.1377 44.7608C99.3204 44.7102 99.49 44.6205 99.6346 44.498C99.7791 44.3755 99.8953 44.2231 99.9749 44.0513C100.055 43.8796 100.096 43.6926 100.096 43.5033C100.096 43.3141 100.055 43.1271 99.9749 42.9554C99.8953 42.7836 99.7791 42.6312 99.6346 42.5087C99.49 42.3862 99.3204 42.2965 99.1377 42.2458C98.9549 42.1952 98.7632 42.1848 98.576 42.2154H77.678C77.4908 42.1848 77.2992 42.1952 77.1164 42.2458C76.9336 42.2965 76.764 42.3862 76.6195 42.5087C76.4749 42.6312 76.3588 42.7836 76.2791 42.9554C76.1995 43.1271 76.1582 43.3141 76.1582 43.5033C76.1582 43.6926 76.1995 43.8796 76.2791 44.0513C76.3588 44.2231 76.4749 44.3755 76.6195 44.498C76.764 44.6205 76.9336 44.7102 77.1164 44.7608C77.2992 44.8115 77.4908 44.8219 77.678 44.7913V44.7913Z" fill="#3C4A58"/>
<path d="M104.532 95.4837C104.788 95.48 105.037 95.4037 105.25 95.2638C105.464 95.1239 105.633 94.9261 105.737 94.6938C105.868 94.3783 105.873 94.0248 105.752 93.7057C105.63 93.3865 105.391 93.1257 105.083 92.9765L72.2386 78.3458C72.0801 78.2555 71.9045 78.1992 71.723 78.1806C71.5415 78.1621 71.3581 78.1816 71.1845 78.2379C71.011 78.2943 70.8513 78.3862 70.7155 78.5078C70.5797 78.6294 70.4709 78.778 70.3962 78.9441C70.3214 79.1101 70.2822 79.2899 70.2813 79.472C70.2803 79.654 70.3175 79.8342 70.3905 80.001C70.4635 80.1679 70.5707 80.3176 70.7051 80.4407C70.8396 80.5637 70.9984 80.6573 71.1713 80.7155L104.016 95.3463C104.178 95.4237 104.353 95.4703 104.532 95.4837V95.4837Z" fill="#3C4A58"/>
<path d="M71.5859 64.1622C71.7197 64.4783 71.9646 64.7347 72.2745 64.8834L76.4748 66.738L101.194 77.6596L102.812 78.3809C102.983 78.4133 103.158 78.4133 103.329 78.3809C103.621 78.3736 103.902 78.2691 104.128 78.0839C104.353 77.8988 104.51 77.6437 104.573 77.3593C104.637 77.0749 104.603 76.7775 104.477 76.5145C104.352 76.2515 104.141 76.038 103.88 75.9081L100.781 74.4999L76.9568 63.9218L73.5139 62.3763C73.2435 62.2485 72.9365 62.2197 72.6469 62.2951C72.3574 62.3704 72.1036 62.5451 71.9302 62.7884L71.5859 64.1622Z" fill="#3C4A58"/>
<path d="M101.158 64.3687C101.406 64.3699 101.649 64.2991 101.857 64.1649C102.064 64.0307 102.229 63.839 102.329 63.6131C102.404 63.4557 102.446 63.2849 102.453 63.1108C102.461 62.9368 102.433 62.763 102.372 62.5997C102.311 62.4365 102.218 62.2871 102.098 62.1603C101.979 62.0335 101.835 61.932 101.675 61.8616L75.6126 50.1844C75.2974 50.0449 74.9397 50.0352 74.6173 50.1574C74.2949 50.2796 74.034 50.5238 73.8912 50.8369C73.7602 51.1524 73.755 51.5059 73.8766 51.8251C73.9982 52.1442 74.2374 52.405 74.5453 52.5542L100.608 64.197C100.777 64.2915 100.965 64.3499 101.158 64.3687V64.3687Z" fill="#3C4A58"/>
<path d="M74.5117 44.3436C74.6216 44.5016 74.778 44.6216 74.9593 44.687L79.435 46.679L97.9919 54.9561L100.23 55.952C100.4 55.9845 100.576 55.9845 100.746 55.952C101 55.96 101.25 55.8924 101.464 55.7578C101.679 55.6232 101.848 55.4277 101.951 55.1965C102.091 54.882 102.101 54.5252 101.978 54.2036C101.856 53.882 101.611 53.6217 101.297 53.4792L97.5443 51.7964L79.8137 43.8971L76.0266 42.2142C75.8329 42.1027 75.6132 42.0439 75.3896 42.0439C75.166 42.0439 74.9464 42.1027 74.7527 42.2142L74.5117 44.3436Z" fill="#3C4A58"/>
<path d="M71.5848 95.4848C71.7667 95.52 71.9537 95.52 72.1356 95.4848L104.98 80.854C105.288 80.7048 105.527 80.444 105.649 80.1249C105.771 79.8057 105.765 79.4522 105.634 79.1368C105.492 78.8236 105.231 78.5794 104.908 78.4572C104.586 78.335 104.228 78.3447 103.913 78.4842L71.0684 93.115C70.7898 93.2325 70.5606 93.4427 70.4198 93.7097C70.2791 93.9768 70.2354 94.2842 70.2963 94.5798C70.3572 94.8753 70.5188 95.1407 70.7537 95.3307C70.9887 95.5208 71.2823 95.6238 71.5848 95.6222V95.4848Z" fill="#3C4A58"/>
<path d="M73.4776 78.551C73.6482 78.5835 73.8234 78.5835 73.994 78.551L103.293 65.5001C103.612 65.3589 103.862 65.0969 103.988 64.7716C104.114 64.4464 104.105 64.0845 103.964 63.7657C103.822 63.4469 103.56 63.1973 103.234 63.0717C102.908 62.9461 102.545 62.9548 102.225 63.096L72.9267 76.1813C72.6128 76.3237 72.368 76.5841 72.2455 76.9056C72.123 77.2272 72.1327 77.584 72.2726 77.8985C72.3901 78.1106 72.5661 78.2847 72.7796 78.4003C72.9931 78.5159 73.2352 78.5682 73.4776 78.551V78.551Z" fill="#3C4A58"/>
<path d="M75.4737 63.9217C75.6558 63.9546 75.8424 63.9546 76.0245 63.9217L101.295 52.6567C101.603 52.5076 101.842 52.2467 101.964 51.9276C102.085 51.6084 102.08 51.2549 101.949 50.9395C101.806 50.6262 101.547 50.38 101.226 50.252C100.906 50.1241 100.548 50.1243 100.228 50.2526L75.0261 61.2772C74.8676 61.344 74.7242 61.4422 74.6048 61.5658C74.4854 61.6894 74.3923 61.8359 74.3311 61.9963C74.27 62.1568 74.2421 62.328 74.2491 62.4996C74.2561 62.6711 74.2979 62.8394 74.3719 62.9944C74.4402 63.2419 74.582 63.463 74.7787 63.6285C74.9753 63.794 75.2176 63.8963 75.4737 63.9217V63.9217Z" fill="#3C4A58"/>
<path d="M76.3354 55.54C76.5161 55.5865 76.7056 55.5865 76.8863 55.54L100.435 45.0649C100.743 44.9158 100.982 44.655 101.104 44.3358C101.226 44.0166 101.22 43.6632 101.089 43.3477C100.947 43.0346 100.686 42.7903 100.363 42.6681C100.041 42.5459 99.6833 42.5556 99.368 42.6951L75.819 53.2046C75.5596 53.3329 75.3501 53.5434 75.2235 53.8032C75.0969 54.0629 75.0602 54.3573 75.1193 54.6401C75.1784 54.9228 75.3298 55.1781 75.5499 55.3658C75.7699 55.5535 76.0462 55.6631 76.3354 55.6774V55.54Z" fill="#3C4A58"/>
<path d="M67.3161 113.617H67.6948C68.3251 113.608 68.9312 113.374 69.4044 112.959C69.8776 112.543 70.187 111.973 70.2769 111.351L76.5773 66.7028L76.956 64.0239L79.4349 46.7486L79.8136 44.0697L83.0154 21.368C83.0515 20.7146 82.8403 20.0716 82.4236 19.5663C82.0069 19.061 81.4152 18.7302 80.7656 18.6395C80.116 18.5488 79.456 18.7047 78.9162 19.0765C78.3765 19.4482 77.9963 20.0086 77.8512 20.6467L74.7526 42.4899L74.5116 44.4132L71.8606 62.9936V64.23L65.1127 110.664C65.0141 111.347 65.1905 112.041 65.6034 112.594C66.0163 113.148 66.6321 113.516 67.3161 113.617V113.617Z" fill="#3C4A58"/>
<path d="M88.1448 113.651C89.3498 113.651 90.3482 113.067 90.3482 112.346V22.2602C90.3482 21.5389 89.3498 20.9551 88.1448 20.9551C86.9398 20.9551 85.9414 21.5389 85.9414 22.2602V112.346C85.9414 113.067 86.9054 113.651 88.1448 113.651Z" fill="#3C4A58"/>
<path d="M100.677 17.5898H75.544C74.3461 17.5898 73.375 18.5586 73.375 19.7536V23.4971C73.375 24.6921 74.3461 25.6608 75.544 25.6608H100.677C101.875 25.6608 102.846 24.6921 102.846 23.4971V19.7536C102.846 18.5586 101.875 17.5898 100.677 17.5898Z" fill="#FFAC42"/>
<path d="M169.684 76.8545H140.857C139.627 76.8545 138.629 78.13 138.629 79.7033V102.358C138.629 103.932 139.627 105.207 140.857 105.207H169.684C170.915 105.207 171.912 103.932 171.912 102.358V79.7033C171.912 78.13 170.915 76.8545 169.684 76.8545Z" fill="#2C3A48"/>
<path d="M19.81 95.5176H16.0573C15.2587 95.5176 14.6113 96.1634 14.6113 96.96V112.175C14.6113 112.971 15.2587 113.617 16.0573 113.617H19.81C20.6086 113.617 21.256 112.971 21.256 112.175V96.96C21.256 96.1634 20.6086 95.5176 19.81 95.5176Z" fill="#2C3A48"/>
<path d="M175.097 103.975H4.57742C2.30611 103.975 0.464844 105.655 0.464844 107.729V116.246C0.464844 118.319 2.30611 120 4.57742 120H175.097C177.368 120 179.21 118.319 179.21 116.246V107.729C179.21 105.655 177.368 103.975 175.097 103.975Z" fill="#F3B36A"/>
</svg>
