<svg width="18" height="18" viewBox="0 0 18 18" fill="none" xmlns="http://www.w3.org/2000/svg">
<path d="M6.77997 0V2.46544L5.54725 3.0818L3.69817 1.23272L1.23272 3.69817L3.0818 5.54725L2.46544 6.77997H0L0 10.4781H2.46544L3.0818 11.7109L1.23272 13.5599L3.69817 16.0254L5.54725 14.1763L6.77997 14.7927V17.2581H10.4781L10.4781 14.7927L11.7109 14.1763L13.5599 16.0254L16.0254 13.5599L14.1763 11.7109L14.7927 10.4781L17.2581 10.4781V6.77997H14.7927L14.1763 5.54725L16.0254 3.69817L13.5599 1.23272L11.7109 3.0818L10.4781 2.46544V0L6.77997 0Z" fill="#F3B36A"/>
<rect x="8.00586" y="0.739258" width="1.24625" height="1.24625" fill="#FBE0D0"/>
<rect x="13.8164" y="2.5625" width="1.24625" height="1.24625" transform="rotate(45 13.8164 2.5625)" fill="#FBE0D0"/>
<rect x="3.50977" y="12.8682" width="1.24625" height="1.24625" transform="rotate(45 3.50977 12.8682)" fill="#FBE0D0"/>
<rect x="3.57031" y="2.69531" width="1.24625" height="1.24625" transform="rotate(45 3.57031 2.69531)" fill="#FBE0D0"/>
<rect x="13.6836" y="12.8096" width="1.24625" height="1.24625" transform="rotate(45 13.6836 12.8096)" fill="#FBE0D0"/>
<rect x="8.00586" y="15.084" width="1.24625" height="1.24625" fill="#FBE0D0"/>
<rect x="0.912109" y="8.00781" width="1.24625" height="1.24625" fill="#FBE0D0"/>
<rect x="14.9629" y="8.00781" width="1.24625" height="1.24625" fill="#FBE0D0"/>
<circle cx="8.6271" cy="8.631" r="2.46304" fill="white"/>
</svg>
