<svg width="57" height="63" viewBox="0 0 57 63" fill="none" xmlns="http://www.w3.org/2000/svg">
<path d="M25.6537 38.6129H25.9714C27.2481 38.6129 28.4543 38.1048 29.3786 37.172C30.2801 36.2362 30.7765 35.0016 30.7765 33.6948C30.7765 32.7163 30.4995 31.7723 29.9733 30.9655L25.8125 24.5903L21.6507 30.9676C21.1256 31.7733 20.8486 32.7163 20.8486 33.6948C20.8486 36.4069 23.0039 38.6129 25.6537 38.6129ZM23.3027 32.0944L25.8125 28.2484L28.3223 32.0934C28.6281 32.5649 28.7909 33.1187 28.7909 33.6948C28.7909 34.4641 28.498 35.1916 27.9748 35.7352C27.4337 36.2809 26.7229 36.5807 25.9714 36.5807H25.6537C24.099 36.5807 22.8341 35.2861 22.8341 33.6948C22.8341 33.1187 22.997 32.5649 23.3027 32.0944Z" fill="#E2581D"/>
<path d="M35.7404 20.3228H15.8846C14.7896 20.3228 13.899 21.2342 13.899 22.355V40.6453C13.899 41.7661 14.7896 42.6776 15.8846 42.6776H35.7404C36.8355 42.6776 37.726 41.7661 37.726 40.6453V22.355C37.726 21.2342 36.8355 20.3228 35.7404 20.3228ZM35.7374 40.6453H15.8846V22.355H35.7404L35.7374 40.6453Z" fill="#E2581D"/>
<path d="M15.2989 14.2257H31.7692C33.4113 14.2257 34.7476 12.858 34.7476 11.1773V9.14507C34.7476 7.46439 33.4113 6.09668 31.7692 6.09668H17.4592L13.6042 10.0423C13.1604 10.4965 12.9062 11.1286 12.9062 11.7768C12.9062 13.1273 13.9795 14.2257 15.2989 14.2257ZM15.008 11.4791L18.2812 8.12894H31.7692C32.3163 8.12894 32.762 8.58518 32.762 9.14507V11.1773C32.762 11.7372 32.3163 12.1935 31.7692 12.1935H15.2989C15.0745 12.1935 14.8918 12.0065 14.8918 11.7768C14.8918 11.663 14.9345 11.5553 15.008 11.4791Z" fill="#E2581D"/>
<path d="M52.6178 17.6949L57 13.2097L46.6611 2.62771L42.2789 7.1129L44.2645 9.14516L41.6971 11.7729L41.575 11.6479C41.022 11.0809 40.7044 10.2954 40.7044 9.49065V3.04839C40.7044 1.36771 39.3681 0 37.726 0H16.5399C15.2314 0 13.9517 0.541597 13.0284 1.4866L12.4099 2.11965L11.3347 1.01918C10.051 -0.295694 7.81921 -0.295694 6.53553 1.01918L0.995767 6.68918C0.353433 7.3456 0 8.21845 0 9.14516C0 10.0719 0.353433 10.9447 0.995767 11.6011L2.07096 12.7016L1.45245 13.3347C0.698923 14.1059 0.220399 15.0773 0.0774376 16.0985C0.0258126 16.3739 0 16.6533 0 16.9287V57.9194C0 60.7208 2.22683 63 4.96395 63H39.0563C40.3648 63 41.6445 62.4584 42.5678 61.5134L50.1726 53.7299C50.2411 53.6608 50.3215 53.5754 50.3711 53.5144C51.1793 52.5847 51.625 51.3846 51.625 50.1358V24.0416C51.625 23.7581 51.6002 23.4716 51.5536 23.2125C51.3927 22.176 50.9033 21.1944 50.1726 20.4476L48.0649 18.2903L50.6322 15.6626L52.6178 17.6949ZM46.6611 5.50132L54.1924 13.2097L52.6178 14.8213L45.0865 7.1129L46.6611 5.50132ZM16.5399 2.03226H37.726C38.273 2.03226 38.7188 2.4885 38.7188 3.04839V9.49065C38.7188 10.8299 39.2479 12.1397 40.1712 13.0847L45.3814 18.4173L44.0272 19.28C42.6621 20.161 41.7954 21.67 41.717 23.2297C41.7001 23.3456 41.6971 23.4777 41.6971 23.5945V51.8226H40.3251L37.3467 45.7258H14.2783L11.2999 51.8226H9.92789V23.5945C9.92789 23.4777 9.92491 23.3456 9.91697 23.3161C9.8306 21.67 8.96389 20.162 7.59583 19.278L2.19704 15.8272C2.341 15.437 2.55842 15.0773 2.85725 14.7715L14.4332 2.9234C14.9862 2.35742 15.7536 2.03226 16.5399 2.03226ZM49.6395 24.3871V28.4516H43.6827V24.3871H49.6395ZM43.6827 42.6774H49.6395V46.7419H43.6827V42.6774ZM43.6827 40.6452V36.5806H49.6395V40.6452H43.6827ZM43.6827 34.5484V30.4839H49.6395V34.5484H43.6827ZM6.53851 20.9993C7.04682 21.3275 7.4211 21.8082 7.65937 22.3548H1.98558V18.084L6.53851 20.9993ZM1.98558 24.3871H7.93437L7.93536 28.4516H1.98558V24.3871ZM1.98558 30.4839H7.93636L7.93735 34.5484H1.98558V30.4839ZM1.98558 36.5806H7.93735L7.93834 40.6452H1.98558V36.5806ZM1.98558 42.6774H7.93933L7.94033 46.7419H1.98558V42.6774ZM1.98558 48.7742H7.94132L7.94231 51.8226H1.98558V48.7742ZM2.39957 10.1643C2.13251 9.891 1.98558 9.52926 1.98558 9.14516C1.98558 8.76106 2.13251 8.39932 2.39957 8.12598L7.93933 2.45598C8.47346 1.90931 9.39675 1.90931 9.93087 2.45598L11.0061 3.55645L3.47476 11.2648L2.39957 10.1643ZM41.164 60.0766C40.61 60.6426 39.8426 60.9677 39.0563 60.9677H4.96395C3.32187 60.9677 1.98558 59.6 1.98558 57.9194V53.8548H24.8197V51.8226H13.5198L15.5054 47.7581H36.1197L38.1052 51.8226H26.8053V53.8548H47.2429L41.164 60.0766ZM49.1321 51.8226H43.6827V48.7742H49.6395V50.1358C49.6395 50.7374 49.4608 51.3165 49.1321 51.8226ZM49.1341 22.3548H43.9647C44.2029 21.8082 44.5762 21.3285 45.0806 21.0024L46.8219 19.8928L48.7678 21.8844C48.9078 22.0266 49.0259 22.1872 49.1341 22.3548ZM46.6611 16.8535L43.101 13.2097L45.6683 10.582L49.2284 14.2258L46.6611 16.8535Z" fill="#E2581D"/>
<path d="M24.8197 16.2583H13.899V18.2906H24.8197V16.2583Z" fill="#E2581D"/>
<path d="M37.726 16.2583H26.8053V18.2906H37.726V16.2583Z" fill="#E2581D"/>
</svg>
