<svg width="73" height="63" viewBox="0 0 73 63" fill="none" xmlns="http://www.w3.org/2000/svg">
<path d="M6.44048 46.0756L5.06714 44.7065L18.8005 31.0159L24.6254 36.8226H21.855L18.8005 33.7776L6.44048 46.0756ZM24.8858 33.7776L28.0114 36.8226H30.8054L24.9569 31.0159L22.589 33.3763L23.9861 34.769L24.8858 33.7776ZM39.5427 35.2411H32.747V36.8226H39.5427V35.2411ZM37.9799 15.012H34.3098L33.5047 34.4621H38.785L37.9799 15.012ZM35.47 59.5774H4.33312V46.8073H35.47V59.5774ZM10.3237 48.3416H5.58806V50.7021H10.3237V48.3416ZM16.2433 48.3416H11.4366V50.7021H16.1722L16.2433 48.3416ZM22.1392 48.3416H17.4035V50.7021H22.1392V48.3416ZM28.0587 48.3416H23.2757V50.7021H28.0114L28.0587 48.3416ZM34.0019 48.3416H29.2663V50.7021H34.0019V48.3416ZM40.0162 44.2816H58.3432V59.5774H40.0162V44.2816ZM55.5491 48.8845H57.2777V45.4146H55.5491V48.8845ZM55.5491 53.1333H57.2777V49.569H55.5491V53.1333ZM55.5491 57.3821H57.2777V53.9123H55.5491V57.3821ZM52.6604 48.8845H54.3889V45.4146H52.6604V48.8845ZM52.6604 53.1333H54.3889V49.569H52.6604V53.1333ZM52.6604 57.3821H54.3889V53.9123H52.6604V57.3821ZM49.748 48.8845H51.5002V45.4146H49.748V48.8845ZM49.748 53.1333H51.5002V49.569H49.748V53.1333ZM49.748 57.3821H51.5002V53.9123H49.748V57.3821ZM46.9539 48.8845H48.7061V45.4146H46.9539V48.8845ZM46.9539 53.1333H48.7061V49.569H46.9539V53.1333ZM46.9539 57.3821H48.7061V53.9123H46.9539V57.3821ZM44.0652 48.8845H45.8174V45.4146H44.0652V48.8845ZM44.0652 53.1333H45.8174V49.569H44.0652V53.1333ZM44.0652 57.3821H45.8174V53.9123H44.0652V57.3821ZM41.1765 48.8845H42.9286V45.4146H41.1765V48.8845ZM41.1765 53.1333H42.9286V49.569H41.1765V53.1333ZM41.1765 57.3821H42.9286V53.9123H41.1765V57.3821ZM54.0574 30.6854H51.879L51.4291 42.1572H54.531L54.0574 30.6854ZM54.9809 42.6293H51.0503V43.5499H55.0519L54.9809 42.6293ZM18.7768 37.7668H49.7717V43.5971H39.2822V59.6246H36.1803V46.0756H18.7768V37.7668ZM45.3912 39.9148H48.6825V38.8526H45.3912V39.9148ZM45.3912 41.6615H48.6825V40.5757H45.3912V41.6615ZM41.1528 39.9148H44.4441V38.8526H41.1528V39.9148ZM41.1528 41.6615H44.4441V40.5757H41.1528V41.6615ZM36.9144 39.9148H40.2056V38.8526H36.9144V39.9148ZM36.9144 41.6615H40.2056V40.5757H36.9144V41.6615ZM32.747 39.8676H36.0383V38.8054H32.747V39.8676ZM32.747 41.6143H36.0383V40.5285H32.747V41.6143ZM28.5086 39.8676H31.7999V38.8054H28.4612L28.5086 39.8676ZM28.5086 41.6143H31.7999V40.5285H28.4612L28.5086 41.6143ZM24.2702 39.8676H27.5615V38.8054H24.2228L24.2702 39.8676ZM24.2702 41.6143H27.5615V40.5285H24.2228L24.2702 41.6143ZM20.0555 39.8676H23.2757V38.8054H20.0081L20.0555 39.8676ZM20.0555 41.6143H23.2757V40.5285H20.0081L20.0555 41.6143ZM54.531 29.812H51.6896V30.2369H54.5783L54.531 29.812ZM38.5955 13.5957H33.6941V14.3274H38.5955V13.5957ZM45.3912 20.9839H44.2073L43.9705 35.1467H45.6516L45.3912 20.9839ZM45.8884 35.666H43.71V36.8226H45.8884V35.666ZM45.5806 19.9453H44.0178V20.4646H45.5806V19.9453ZM0 60.6396V63H63.1262V60.6396H0Z" fill="#E2581D"/>
<path d="M73 21.2439C73 20.2289 71.2478 19.3791 68.809 19.0486C68.8027 18.5143 68.5854 18.0041 68.2042 17.6284C67.823 17.2528 67.3086 17.0422 66.7726 17.0422C66.5389 17.045 66.3071 17.0849 66.086 17.1603C65.7143 16.7706 65.2043 16.5418 64.6653 16.5229C64.3069 16.5249 63.9556 16.6222 63.6475 16.8047C63.3395 16.9873 63.0859 17.2486 62.9131 17.5615C62.5667 17.5255 62.2176 17.5255 61.8712 17.5615C60.0954 17.5615 58.651 18.4113 58.651 19.4735C58.6549 19.672 58.7012 19.8673 58.787 20.0464C58.8727 20.2255 58.9959 20.3843 59.1482 20.5121C56.4252 20.7482 54.4126 21.6687 54.4126 22.7545C54.4126 22.7545 54.4126 22.7545 54.4126 22.8962C52.8735 22.8962 51.6422 23.7695 51.6422 24.7373C51.6648 25.0073 51.7546 25.2675 51.9034 25.4942C52.0522 25.7208 52.2555 25.9069 52.4947 26.0356C52.2847 26.1302 52.1062 26.2826 51.9804 26.475C51.8545 26.6674 51.7865 26.8917 51.7843 27.1214C51.732 27.3041 51.7229 27.4964 51.7577 27.6831C51.7926 27.8699 51.8705 28.046 51.9853 28.1977C52.1 28.3494 52.2485 28.4724 52.4191 28.5571C52.5897 28.6419 52.7777 28.686 52.9682 28.686C53.1588 28.686 53.3468 28.6419 53.5173 28.5571C53.6879 28.4724 53.8364 28.3494 53.9512 28.1977C54.066 28.046 54.1438 27.8699 54.1787 27.6831C54.2136 27.4964 54.2045 27.3041 54.1521 27.1214C54.1531 26.9237 54.1043 26.7289 54.0101 26.5549H54.5073C56.1174 26.5549 57.4197 25.7523 57.4434 24.7609C58.4642 24.9684 59.5035 25.0712 60.5453 25.0678C61.8504 25.0854 63.151 24.9104 64.4048 24.5485C64.9535 24.8026 65.5521 24.9316 66.157 24.9262C66.9976 24.9708 67.8297 24.7386 68.5248 24.2652C68.7134 24.2911 68.9046 24.2911 69.0931 24.2652C69.4851 24.2657 69.8687 24.152 70.1968 23.9381C70.5249 23.7243 70.7832 23.4196 70.94 23.0614C72.2423 22.4949 73 21.8576 73 21.2439Z" fill="#E2581D"/>
<path d="M57.0409 3.94199C56.5673 2.59653 54.1285 1.58153 51.074 1.36909C50.889 1.11556 50.647 0.908763 50.3674 0.765292C50.0878 0.62182 49.7783 0.545664 49.4638 0.542931C49.2199 0.5423 48.9784 0.590459 48.7535 0.684559C48.5701 0.468738 48.3415 0.295602 48.0838 0.177335C47.8261 0.0590692 47.5455 -0.00145352 47.2618 2.65036e-05C46.9029 -0.000549334 46.5505 0.0956867 46.2421 0.278534C45.9336 0.461381 45.6805 0.724025 45.5096 1.03863C45.1554 1.0013 44.7982 1.0013 44.4441 1.03863C42.6682 1.03863 41.2238 1.912 41.2238 2.9506C41.2336 3.15028 41.2849 3.34575 41.3746 3.52457C41.4643 3.70338 41.5903 3.86161 41.7447 3.9892C38.9981 4.22524 37.0091 5.14582 37.0091 6.34965V6.51488C35.4937 6.51488 34.2624 7.36465 34.2624 8.33243C34.3098 8.5701 34.4112 8.79373 34.559 8.98609C34.7068 9.17845 34.897 9.33438 35.1148 9.44185C34.9074 9.54382 34.733 9.70196 34.6116 9.89817C34.4901 10.0944 34.4266 10.3207 34.4282 10.5513C34.4477 10.7251 34.5044 10.8928 34.5943 11.0431C34.6841 11.1934 34.8052 11.3228 34.9494 11.4226C35.0935 11.5224 35.2574 11.5903 35.4301 11.6218C35.6027 11.6533 35.7801 11.6477 35.9504 11.6052C36.1207 11.5628 36.2799 11.4846 36.4173 11.3758C36.5548 11.267 36.6673 11.1302 36.7474 10.9745C36.8275 10.8188 36.8732 10.6478 36.8816 10.473C36.89 10.2983 36.8608 10.1237 36.796 9.96115H37.2932C38.9034 9.96115 40.2057 9.15859 40.253 8.1672C41.266 8.37341 42.2973 8.47623 43.3312 8.47406C44.6441 8.49154 45.9525 8.31657 47.2144 7.95476C47.7546 8.2092 48.3455 8.33833 48.9429 8.33243C49.8607 8.37129 50.7586 8.05883 51.4528 7.45907C52.2524 7.42413 53.046 7.30546 53.8206 7.105C54.5027 7.47546 55.2698 7.66256 56.0464 7.6479C57.8223 7.6479 59.2666 6.79814 59.2666 5.73593C59.2666 4.67373 58.2248 4.22524 57.0409 3.94199Z" fill="#E2581D"/>
<path d="M50.8135 8.85184C49.9138 8.76126 49.0059 8.90252 48.1767 9.26211C47.3474 9.62169 46.6248 10.1875 46.0779 10.9054C45.1544 11.2359 44.5151 11.8496 44.5151 12.5341C44.5021 12.6597 44.5021 12.7863 44.5151 12.9118C43.5916 13.2187 42.9523 13.8088 42.9523 14.5169C42.9717 14.7788 43.0552 15.032 43.1956 15.2542C43.3359 15.4765 43.5288 15.661 43.7574 15.7916C43.5965 15.9024 43.4651 16.0506 43.3743 16.2233C43.2836 16.3959 43.2363 16.588 43.2365 16.783C43.31 17.0395 43.4653 17.2651 43.6789 17.4257C43.8925 17.5864 44.1528 17.6733 44.4204 17.6733C44.688 17.6733 44.9483 17.5864 45.1619 17.4257C45.3755 17.2651 45.5308 17.0395 45.6043 16.783C45.6312 16.6426 45.6312 16.4984 45.6043 16.3581H45.8884C47.3802 16.3581 48.6114 15.6736 48.8009 14.7766C49.4055 14.9225 50.0257 14.9938 50.6478 14.989C53.3471 14.989 55.5492 13.62 55.5492 11.9204C55.5492 10.2209 53.5128 8.85184 50.8135 8.85184Z" fill="#E2581D"/>
</svg>
