<svg width="320" height="370" viewBox="0 0 320 370" fill="none" xmlns="http://www.w3.org/2000/svg">
<g clip-path="url(#clip0)">
<g opacity="0.1">
<path d="M292.988 195.033C294.219 195.008 295.403 194.557 296.338 193.757C296.971 194.316 297.78 194.636 298.625 194.661C299.473 194.655 300.288 194.333 300.911 193.757C301.034 194.367 301.374 194.911 301.87 195.288C302.365 195.664 302.981 195.846 303.601 195.8C304.222 195.755 304.804 195.484 305.239 195.039C305.674 194.594 305.931 194.006 305.963 193.385C305.97 193.048 305.909 192.713 305.783 192.4C305.657 192.087 305.47 191.802 305.231 191.564C304.993 191.325 304.709 191.138 304.396 191.012C304.083 190.886 303.748 190.825 303.41 190.833H303.144C303.895 190.246 304.474 189.469 304.821 188.583C305.169 187.696 305.272 186.733 305.12 185.793C304.968 184.853 304.566 183.971 303.957 183.239C303.347 182.508 302.553 181.953 301.656 181.633C301.408 180.477 300.782 179.436 299.877 178.676C298.972 177.915 297.839 177.478 296.657 177.433C295.586 177.413 294.539 177.75 293.68 178.39C293.195 177.76 292.576 177.247 291.868 176.889C291.159 176.53 290.379 176.334 289.585 176.316C289.585 175.704 289.418 175.104 289.102 174.581C288.785 174.057 288.331 173.63 287.789 173.346C287.247 173.063 286.637 172.933 286.027 172.971C285.416 173.009 284.828 173.213 284.325 173.562C283.822 173.911 283.425 174.391 283.176 174.95C282.927 175.509 282.835 176.125 282.911 176.732C282.988 177.339 283.229 177.914 283.608 178.393C283.988 178.873 284.492 179.24 285.065 179.453C284.787 180.072 284.642 180.742 284.64 181.421C284.631 182.727 285.102 183.991 285.965 184.972C286.828 185.953 288.022 186.581 289.319 186.738C288.49 187.656 288.035 188.851 288.043 190.088C288.13 191.371 288.679 192.579 289.588 193.488C290.498 194.397 291.705 194.946 292.988 195.033Z" fill="#404040"/>
<rect width="358.116" height="40.0749" transform="matrix(-1 0 0 1 305.793 338.352)" fill="#404040"/>
<path d="M279.801 171C282.094 170.969 284.3 170.12 286.023 168.607C287.181 169.681 288.697 170.288 290.276 170.309C291.83 170.284 293.322 169.699 294.477 168.66C294.643 169.769 295.201 170.781 296.05 171.513C296.899 172.245 297.982 172.648 299.103 172.648C300.358 172.648 301.562 172.15 302.45 171.262C303.337 170.375 303.836 169.171 303.836 167.916C303.836 166.661 303.337 165.457 302.45 164.57C301.562 163.682 300.358 163.183 299.103 163.183H298.572C300.091 162.189 301.289 160.776 302.023 159.115C302.758 157.455 302.996 155.617 302.709 153.824C302.422 152.031 301.623 150.359 300.408 149.01C299.193 147.661 297.613 146.693 295.86 146.221C295.579 144.653 294.907 143.18 293.906 141.941C292.905 140.701 291.608 139.734 290.134 139.13C288.659 138.525 287.057 138.303 285.473 138.483C283.89 138.663 282.378 139.239 281.077 140.159C280.2 138.986 279.06 138.033 277.749 137.378C276.438 136.722 274.992 136.382 273.527 136.384H273.208C273.2 135.252 272.884 134.144 272.293 133.179C271.703 132.214 270.86 131.428 269.856 130.906C268.852 130.384 267.725 130.146 266.595 130.217C265.466 130.289 264.377 130.666 263.447 131.31C262.516 131.954 261.779 132.839 261.314 133.871C260.849 134.903 260.675 136.042 260.809 137.165C260.943 138.289 261.382 139.354 262.077 140.247C262.772 141.14 263.697 141.827 264.753 142.233C264.262 143.412 264.009 144.677 264.009 145.955C264.013 148.31 264.901 150.577 266.496 152.31C268.09 154.042 270.276 155.114 272.623 155.314C271.429 156.683 270.654 158.366 270.391 160.163C270.128 161.961 270.387 163.796 271.138 165.45C271.889 167.103 273.101 168.506 274.627 169.49C276.154 170.474 277.932 170.999 279.748 171H279.801Z" fill="#404040"/>
<path d="M291.879 357.799L292.782 341.368L293.58 326.745L294.378 311.857L295.228 297.234L296.132 280.697L296.983 265.542L297.834 250.335L298.685 235.127L299.536 220.185H296.824V210.667H300.067L300.546 202.584H306.448H312.35L312.829 210.667H316.073V220.185H313.361L314.212 235.127L315.062 250.335L315.913 265.542L316.764 280.697L317.668 297.234L318.465 311.857L319.263 326.745L320.061 341.368L320.965 357.799L321.762 371.943H291.134L291.879 357.799Z" fill="#404040"/>
<path d="M-14.1859 224.426V217.651C-14.2734 216.606 -14.144 215.555 -13.8059 214.563C-13.4678 213.571 -12.9283 212.66 -12.2216 211.888C-11.5149 211.117 -10.6564 210.501 -9.70029 210.079C-8.7442 209.658 -7.71143 209.44 -6.66727 209.44C-5.62308 209.44 -4.59027 209.658 -3.63419 210.079C-2.6781 210.501 -1.81955 211.117 -1.11282 211.888C-0.406128 212.66 0.133331 213.571 0.471405 214.563C0.809509 215.555 0.938904 216.606 0.851349 217.651V224.426H2.97675V217.651C2.88922 216.606 3.01859 215.555 3.35669 214.563C3.69479 213.571 4.23422 212.66 4.94095 211.888C5.64764 211.117 6.5062 210.501 7.46228 210.079C8.41837 209.658 9.4512 209.44 10.4954 209.44C11.5395 209.44 12.5723 209.658 13.5284 210.079C14.4845 210.501 15.343 211.117 16.0497 211.888C16.7564 212.66 17.2959 213.571 17.634 214.563C17.9721 215.555 18.1015 216.606 18.014 217.651V224.426H24.6558V275.214H36.133V180.254H42.5092V172.038H40.6494V165.263H49.6824V172.038H47.6632V180.254H54.1457V275.214H58.9279L59.4061 275.747L75.3466 291.751L81.9884 298.42V289.831H87.3019V258.302H81.0852V261.983H79.066V217.544H81.0852V221.385H87.3551V223.892H81.1383V227.093H87.3551V229.654H81.1383V233.068H87.3551V235.576H81.1383V238.403H87.3551V240.964H81.1383V244.165H87.3551V246.672H81.1383V249.926H87.3551V252.434H81.1383V255.635H87.3551V257.288V212.423H96.9194V199.299H103.136V179.72H190.49C193.868 179.734 197.103 181.088 199.492 183.486C201.88 185.884 203.229 189.132 203.242 192.524V206.394H225.187C228.565 206.408 231.801 207.762 234.189 210.16C236.578 212.558 237.926 215.806 237.94 219.198V237.496H239.587V243.365H244.9V258.035C250.813 260.064 255.955 263.882 259.618 268.964C263.282 274.046 265.287 280.143 265.357 286.417V333.843H305.793V344.513H265.357L194.9 363.932L81.8822 344.513V338.645H47.2913V344.406H1.91403L-20.7746 358.97V224.426H-14.1859ZM51.8609 184.575L46.5474 188.309L51.8609 192.097V184.575ZM38.4709 249.766L43.7844 245.979L38.4709 242.191V249.766ZM38.4709 215.143L43.7844 211.356L38.4709 207.568V215.143ZM45.1659 210.235L51.5421 205.647L45.1659 201.059L38.7897 205.647L45.1659 210.235ZM51.8609 207.568L46.5474 211.356L51.8609 215.143V207.568ZM45.1659 212.423L38.6835 217.171L45.1659 221.865L51.6484 217.064L45.1659 212.423ZM38.4709 219.198V226.72L43.7844 222.986L38.4709 219.198ZM38.4709 203.727L43.7844 199.939L38.4709 196.151V203.727ZM45.1659 198.872L51.6484 194.124L45.1659 189.429L38.6835 194.124L45.1659 198.872ZM46.6537 199.939L51.9672 203.727V196.205L46.6537 199.939ZM46.6537 222.986L51.9672 226.72V219.198L46.6537 222.986ZM45.1659 224.053L38.7897 228.64L45.1659 233.282L51.5421 228.64L45.1659 224.053ZM38.4709 230.614V238.403L43.7844 234.615L38.4709 230.614ZM38.4709 240.164L44.9534 244.912L51.4358 240.164L44.9534 235.469L38.4709 240.164ZM46.4412 245.979L51.7547 249.766V242.191L46.4412 245.979ZM44.9534 247.046L38.5772 251.687L44.9534 256.275L51.3296 251.687L44.9534 247.046ZM38.2584 253.607V261.183L43.5719 257.395L38.2584 253.607ZM38.2584 192.097L43.5719 188.309L38.2584 184.575V192.097ZM44.9534 187.242L51.3296 182.654H38.5772L44.9534 187.242ZM51.6484 230.614L46.3349 234.349L51.6484 238.136V230.614ZM51.6484 253.607L46.3349 257.395L51.6484 261.183V253.607ZM44.9534 258.462L38.3115 263.317L44.9534 269.985L51.5953 263.317L44.9534 258.462ZM38.2584 265.718V275.214H39.7462L43.7313 271.212L38.2584 265.718ZM42.4561 275.214H47.7695L45.0596 272.493L42.4561 275.214ZM51.8609 265.718L46.5474 271.052L50.5325 275.053H52.0203L51.8609 265.718ZM122.424 261.29L106.484 282.202L90.5432 261.29V289.831H122.424V261.29ZM202.392 333.95V286.417C202.403 280.254 204.279 274.24 207.771 269.171C211.263 264.103 216.206 260.219 221.946 258.035V243.258H228.96V237.39H230.501V219.091C230.501 217.676 229.941 216.319 228.944 215.319C227.948 214.318 226.596 213.756 225.187 213.756H175.134C173.725 213.756 172.373 214.318 171.377 215.319C170.38 216.319 169.821 217.676 169.821 219.091V237.39H171.521V243.258H177.95V258.035C183.744 260.17 188.748 264.033 192.291 269.107C195.834 274.18 197.746 280.22 197.77 286.417V333.843L202.392 333.95ZM130.182 333.95H134.911V286.417C134.922 280.239 136.811 274.213 140.324 269.142C143.837 264.07 148.807 260.196 154.571 258.035V243.258H160.947V237.39H162.382V219.091C162.396 215.7 163.744 212.451 166.132 210.053C168.521 207.655 171.756 206.302 175.134 206.288H195.75V192.31C195.75 190.895 195.191 189.538 194.194 188.538C193.198 187.538 191.846 186.975 190.437 186.975H166.845H109.619V199.299H115.995V212.423H125.347V289.831H130.235L130.182 333.95ZM64.2414 324.347H81.8822V322.32L63.2318 303.648L47.7695 288.177H47.2913V324.347H64.2414Z" fill="#404040"/>
<path d="M213.654 118.42C213.842 117.116 213.68 115.785 213.184 114.561C212.689 113.337 211.876 112.264 210.828 111.447C209.467 110.459 207.769 110.034 206.096 110.261C205.788 108.418 204.828 106.743 203.385 105.534C201.943 104.325 200.112 103.661 198.22 103.661C196.327 103.661 194.497 104.325 193.054 105.534C191.612 106.743 190.651 108.418 190.344 110.261C188.67 110.042 186.976 110.466 185.611 111.447C184.57 112.267 183.767 113.343 183.284 114.568C182.8 115.792 182.652 117.121 182.856 118.42C181.645 118.743 180.562 119.423 179.754 120.37C178.946 121.318 178.451 122.487 178.335 123.72V124.348C178.335 127.695 182.22 130.415 187.094 130.415H209.345C214.219 130.415 218.104 127.695 218.104 124.348V123.72C218.003 122.493 217.522 121.325 216.726 120.377C215.93 119.429 214.857 118.746 213.654 118.42Z" fill="#404040"/>
<path d="M155.701 72.2542C155.86 71.2635 155.751 70.2484 155.387 69.3136C155.022 68.3789 154.415 67.5583 153.627 66.9368C152.585 66.2216 151.322 65.9011 150.064 66.0329C149.833 64.6273 149.11 63.3497 148.024 62.4279C146.938 61.5061 145.56 61 144.135 61C142.711 61 141.333 61.5061 140.247 62.4279C139.161 63.3497 138.438 64.6273 138.207 66.0329C136.949 65.9011 135.686 66.2216 134.644 66.9368C133.859 67.563 133.251 68.3823 132.878 69.3144C132.505 70.2466 132.381 71.2596 132.517 72.2542C131.611 72.519 130.806 73.0518 130.208 73.7825C129.61 74.5133 129.247 75.4078 129.167 76.3486V76.774C129.167 79.3795 132.092 81.4533 135.761 81.4533H152.351C156.02 81.4533 158.944 79.3795 158.944 76.774V76.3486C158.872 75.421 158.525 74.536 157.947 73.8067C157.369 73.0774 156.587 72.5369 155.701 72.2542Z" fill="#404040"/>
<path d="M108.154 139.862C108.359 138.217 108.143 136.547 107.529 135.008C106.915 133.47 105.921 132.114 104.642 131.068C102.89 129.803 100.732 129.24 98.5891 129.49C98.1332 127.105 96.8655 124.954 95.0039 123.407C93.1424 121.861 90.8032 121.015 88.3887 121.015C85.9742 121.015 83.6351 121.861 81.7735 123.407C79.912 124.954 78.6443 127.105 78.1884 129.49C76.0221 129.236 73.839 129.798 72.0608 131.068C70.7789 132.115 69.7788 133.469 69.1521 135.005C68.5254 136.542 68.2922 138.212 68.4739 139.862C66.9017 140.301 65.5006 141.213 64.4587 142.476C63.4168 143.739 62.7839 145.293 62.6451 146.928V147.679C62.6451 152.114 67.7266 155.722 73.929 155.722H102.624C108.901 155.722 113.983 152.114 113.983 147.679V146.928C113.834 145.296 113.197 143.748 112.157 142.487C111.117 141.226 109.721 140.311 108.154 139.862Z" fill="#404040"/>
</g>
<circle opacity="0.2" cx="160" cy="250" r="100" fill="#4B0731"/>
<circle cx="160" cy="250" r="90" fill="#936A83"/>
<mask id="mask0" mask-type="alpha" maskUnits="userSpaceOnUse" x="70" y="160" width="180" height="180">
<circle cx="160" cy="250" r="90" fill="#936A83"/>
</mask>
<g mask="url(#mask0)">
<path d="M76 297.457L140.391 356.088L158.164 346.259L195.467 376.281L247.095 341.526L257.974 346.944L329.367 297.457H76Z" fill="#3C444D"/>
<path d="M244.177 297.461H70L103.919 276.326L228.739 276.326L244.177 297.461Z" fill="#4D5A68"/>
<path d="M132.396 334.078L217.231 297.455H71.2314L119.165 341.455L132.396 334.078Z" fill="#627182"/>
<path d="M120.459 215.939C120.955 215.929 121.432 215.748 121.808 215.425C122.063 215.65 122.389 215.779 122.729 215.789C123.071 215.787 123.399 215.657 123.65 215.425C123.699 215.671 123.836 215.89 124.036 216.042C124.235 216.193 124.483 216.267 124.733 216.248C124.983 216.23 125.218 216.121 125.393 215.942C125.568 215.762 125.671 215.526 125.684 215.275C125.687 215.14 125.663 215.005 125.612 214.879C125.561 214.753 125.486 214.638 125.39 214.542C125.294 214.446 125.179 214.37 125.053 214.32C124.927 214.269 124.792 214.245 124.656 214.247H124.549C124.851 214.011 125.085 213.699 125.225 213.342C125.365 212.984 125.406 212.596 125.345 212.218C125.283 211.839 125.122 211.484 124.876 211.19C124.631 210.895 124.311 210.672 123.95 210.543C123.85 210.077 123.598 209.658 123.233 209.352C122.869 209.045 122.413 208.869 121.937 208.851C121.505 208.843 121.084 208.979 120.738 209.237C120.543 208.983 120.293 208.777 120.008 208.632C119.723 208.488 119.409 208.409 119.089 208.402C119.089 208.155 119.022 207.913 118.894 207.703C118.766 207.492 118.584 207.32 118.365 207.206C118.147 207.091 117.902 207.039 117.656 207.054C117.41 207.07 117.173 207.152 116.97 207.293C116.768 207.433 116.608 207.626 116.508 207.851C116.407 208.076 116.37 208.325 116.401 208.569C116.432 208.814 116.529 209.045 116.682 209.238C116.835 209.431 117.038 209.579 117.269 209.665C117.157 209.914 117.098 210.184 117.097 210.457C117.093 210.983 117.283 211.492 117.631 211.887C117.979 212.282 118.459 212.536 118.982 212.599C118.648 212.968 118.464 213.45 118.468 213.948C118.503 214.464 118.724 214.951 119.09 215.317C119.456 215.683 119.943 215.904 120.459 215.939Z" fill="#514260"/>
<path d="M115.149 206.261C116.072 206.248 116.961 205.906 117.654 205.297C118.121 205.73 118.731 205.974 119.367 205.982C119.993 205.972 120.594 205.737 121.059 205.318C121.126 205.765 121.351 206.173 121.692 206.467C122.034 206.762 122.471 206.924 122.922 206.924C123.428 206.924 123.912 206.724 124.27 206.366C124.627 206.009 124.828 205.524 124.828 205.019C124.828 204.513 124.627 204.028 124.27 203.671C123.912 203.314 123.428 203.113 122.922 203.113H122.708C123.32 202.712 123.802 202.143 124.098 201.474C124.394 200.806 124.49 200.066 124.374 199.344C124.259 198.622 123.937 197.948 123.448 197.405C122.958 196.862 122.322 196.472 121.616 196.282C121.503 195.65 121.232 195.057 120.829 194.558C120.426 194.059 119.904 193.67 119.31 193.426C118.716 193.183 118.071 193.093 117.433 193.165C116.796 193.238 116.187 193.47 115.663 193.841C115.309 193.368 114.85 192.984 114.323 192.72C113.795 192.457 113.212 192.319 112.622 192.32H112.494C112.491 191.865 112.363 191.418 112.125 191.03C111.888 190.641 111.548 190.325 111.144 190.114C110.74 189.904 110.286 189.808 109.831 189.837C109.376 189.866 108.938 190.018 108.563 190.277C108.188 190.536 107.891 190.893 107.704 191.308C107.517 191.724 107.447 192.182 107.501 192.635C107.555 193.087 107.731 193.517 108.011 193.876C108.291 194.236 108.664 194.512 109.089 194.676C108.891 195.151 108.789 195.66 108.789 196.175C108.791 197.123 109.148 198.036 109.791 198.734C110.433 199.432 111.313 199.863 112.258 199.944C111.777 200.495 111.465 201.173 111.359 201.897C111.253 202.62 111.358 203.359 111.66 204.025C111.963 204.691 112.451 205.256 113.065 205.653C113.68 206.049 114.396 206.26 115.128 206.261H115.149Z" fill="#514260"/>
<path d="M217.145 210.585C217.832 210.589 218.496 210.337 219.007 209.878C219.353 210.21 219.814 210.395 220.292 210.392C220.753 210.385 221.194 210.21 221.534 209.9C221.585 210.229 221.75 210.53 222.001 210.75C222.251 210.969 222.572 211.093 222.905 211.099C223.28 211.099 223.639 210.95 223.904 210.685C224.169 210.42 224.318 210.06 224.318 209.686C224.318 209.311 224.169 208.951 223.904 208.686C223.639 208.421 223.28 208.272 222.905 208.272H222.755C223.143 208.014 223.462 207.664 223.683 207.253C223.903 206.842 224.018 206.383 224.018 205.917C224.012 205.293 223.798 204.689 223.411 204.2C223.023 203.712 222.483 203.366 221.877 203.219C221.766 202.566 221.428 201.974 220.922 201.547C220.417 201.12 219.776 200.885 219.115 200.885C218.525 200.884 217.95 201.063 217.466 201.399C217.216 201.061 216.894 200.784 216.524 200.588C216.153 200.392 215.743 200.281 215.324 200.264H215.217C215.168 199.807 214.952 199.384 214.61 199.077C214.268 198.77 213.825 198.6 213.365 198.6C212.905 198.6 212.462 198.77 212.12 199.077C211.778 199.384 211.562 199.807 211.513 200.264C211.519 200.642 211.638 201.01 211.856 201.319C212.073 201.628 212.379 201.865 212.733 201.998C212.579 202.342 212.499 202.714 212.498 203.09C212.5 203.794 212.765 204.471 213.24 204.99C213.715 205.509 214.367 205.831 215.067 205.895C214.706 206.302 214.47 206.806 214.39 207.345C214.309 207.883 214.388 208.433 214.615 208.928C214.842 209.423 215.208 209.841 215.668 210.132C216.129 210.422 216.664 210.572 217.209 210.564L217.145 210.585Z" fill="#9CAAB8"/>
<path d="M130.01 281.487L129.646 274.87L129.324 268.981L129.003 262.985L128.661 257.096L128.296 250.437L127.954 244.334L127.611 238.209L127.269 232.085L126.926 226.068H128.018V222.235H126.712L126.519 218.98H124.142H121.765L121.573 222.235H120.266V226.068H121.358L121.016 232.085L120.673 238.209L120.331 244.334L119.988 250.437L119.624 257.096L119.303 262.985L118.982 268.981L118.66 274.87L118.296 281.487L117.975 287.183H130.309L130.01 281.487Z" fill="#514260"/>
<path d="M152.494 226.517C152.699 226.515 152.897 226.439 153.051 226.303C153.068 226.426 153.119 226.542 153.2 226.636C153.281 226.73 153.387 226.799 153.506 226.834C153.625 226.869 153.752 226.868 153.871 226.833C153.99 226.798 154.096 226.729 154.176 226.634C154.257 226.54 154.308 226.424 154.324 226.301C154.341 226.178 154.321 226.053 154.268 225.941C154.214 225.829 154.13 225.735 154.024 225.67C153.918 225.605 153.796 225.572 153.672 225.575C153.845 225.461 153.987 225.305 154.084 225.121C154.181 224.938 154.231 224.733 154.229 224.526C154.23 224.25 154.14 223.981 153.974 223.76C153.808 223.54 153.574 223.38 153.308 223.305C153.255 222.983 153.082 222.694 152.823 222.495C152.565 222.296 152.241 222.203 151.916 222.234C151.645 222.238 151.382 222.328 151.167 222.491C151.051 222.332 150.9 222.203 150.725 222.113C150.55 222.024 150.357 221.977 150.16 221.978C150.163 221.867 150.143 221.757 150.103 221.654C150.062 221.552 150 221.459 149.922 221.38C149.844 221.302 149.751 221.241 149.648 221.2C149.545 221.159 149.435 221.139 149.325 221.142C149.135 221.152 148.955 221.225 148.812 221.351C148.67 221.476 148.575 221.647 148.543 221.834C148.51 222.021 148.542 222.213 148.634 222.38C148.726 222.546 148.871 222.676 149.047 222.748C148.963 222.931 148.925 223.132 148.936 223.333C148.947 223.534 149.007 223.729 149.11 223.902C149.213 224.075 149.357 224.22 149.529 224.325C149.7 224.43 149.895 224.491 150.096 224.504C149.894 224.736 149.78 225.032 149.775 225.339C149.775 225.68 149.91 226.007 150.151 226.248C150.392 226.489 150.719 226.624 151.059 226.624C151.367 226.619 151.663 226.505 151.895 226.303C152.061 226.447 152.275 226.523 152.494 226.517Z" fill="#9CAAB8"/>
<path d="M157.891 251.914L157.612 247.246L157.355 242.578L157.098 237.888L156.841 233.284H157.655V230.372H156.67L156.52 227.867H154.7H152.88L152.751 230.372H151.745V233.284H152.58L152.323 237.888L152.066 242.578L151.788 247.246L151.531 251.914L151.252 287.033H154.315H158.961L157.891 251.914Z" fill="#9CAAB8"/>
<path d="M170.006 228.599V225.88C169.97 225.46 170.022 225.038 170.159 224.64C170.295 224.242 170.512 223.877 170.797 223.567C171.082 223.257 171.428 223.01 171.813 222.841C172.199 222.671 172.615 222.584 173.036 222.584C173.456 222.584 173.873 222.671 174.258 222.841C174.643 223.01 174.989 223.257 175.274 223.567C175.559 223.877 175.776 224.242 175.913 224.64C176.049 225.038 176.101 225.46 176.066 225.88V228.599H176.922V225.88C176.887 225.46 176.939 225.038 177.075 224.64C177.212 224.242 177.429 223.877 177.714 223.567C177.999 223.257 178.345 223.01 178.73 222.841C179.115 222.671 179.531 222.584 179.952 222.584C180.373 222.584 180.789 222.671 181.175 222.841C181.56 223.01 181.906 223.257 182.191 223.567C182.476 223.877 182.693 224.242 182.829 224.64C182.965 225.038 183.018 225.46 182.982 225.88V228.599H185.659V248.985H190.284V210.869H192.854V207.571H192.105V204.852H195.745V207.571H194.931V210.869H197.544V248.985H199.471L199.664 249.199L206.088 255.623L208.764 258.3V254.853H210.906V242.197H208.4V243.675H207.587V225.837H208.4V227.379H210.927V228.385H208.422V229.67H210.927V230.698H208.422V232.068H210.927V233.075H208.422V234.21H210.927V235.238H208.422V236.522H210.927V237.529H208.422V238.835H210.927V239.842H208.422V241.126H210.927V241.79V223.781H214.782V218.513H217.287V210.655H220.577V218.513H223.147V223.781H226.916L226.916 254.853H228.864V276.802H208.722V274.446H194.781V276.759H176.494L167.35 282.605V228.599H170.006ZM196.623 212.603L194.481 214.102L196.623 215.623V212.603ZM191.227 238.771L193.368 237.25L191.227 235.73V238.771ZM191.227 224.873L193.368 223.353L191.227 221.833V224.873ZM193.925 222.903L196.494 221.062L193.925 219.22L191.355 221.062L193.925 222.903ZM196.623 221.833L194.481 223.353L196.623 224.873V221.833ZM193.925 223.781L191.312 225.687L193.925 227.571L196.537 225.644L193.925 223.781ZM191.227 226.501V229.52L193.368 228.021L191.227 226.501ZM191.227 220.291L193.368 218.77L191.227 217.25V220.291ZM193.925 218.342L196.537 216.436L193.925 214.552L191.312 216.436L193.925 218.342ZM194.524 218.77L196.666 220.291V217.272L194.524 218.77ZM194.524 228.021L196.666 229.52V226.501L194.524 228.021ZM193.925 228.449L191.355 230.291L193.925 232.154L196.494 230.291L193.925 228.449ZM191.227 231.083V234.21L193.368 232.689L191.227 231.083ZM191.227 234.916L193.839 236.822L196.452 234.916L193.839 233.032L191.227 234.916ZM194.439 237.25L196.58 238.771V235.73L194.439 237.25ZM193.839 237.679L191.269 239.542L193.839 241.383L196.409 239.542L193.839 237.679ZM191.141 240.313V243.353L193.282 241.833L191.141 240.313ZM191.141 215.623L193.282 214.102L191.141 212.603V215.623ZM193.839 213.674L196.409 211.832H191.269L193.839 213.674ZM196.537 231.083L194.396 232.582L196.537 234.103V231.083ZM196.537 240.313L194.396 241.833L196.537 243.353V240.313ZM193.839 242.261L191.162 244.21L193.839 246.887L196.516 244.21L193.839 242.261ZM191.141 245.174V248.985H191.741L193.347 247.379L191.141 245.174ZM192.833 248.985H194.974L193.882 247.893L192.833 248.985ZM196.623 245.174L194.481 247.315L196.088 248.921H196.687L196.623 245.174ZM225.06 243.396L218.636 251.79L212.212 243.396V254.853H225.06V243.396ZM201.612 268.707H208.722V267.893L201.205 260.399L194.974 254.189H194.781V268.707H201.612Z" fill="#514260"/>
<path d="M179.818 227.909H177.655H175.514L173.565 267.653H177.655H181.767L179.818 227.909Z" fill="#F7B23F"/>
<path d="M191.767 227.909H189.604H187.463L185.514 267.653H189.604H193.716L191.767 227.909Z" fill="#F7B23F"/>
<path d="M203.459 227.909H201.296H199.155L197.206 267.653H201.296H205.408L203.459 227.909Z" fill="#F7B23F"/>
<path d="M184.251 234.805L172.345 252.942V287.033H184.251V234.805Z" fill="#8C9AA8"/>
<path d="M196.157 234.805L184.251 252.942V287.033H196.157V234.805Z" fill="#8C9AA8"/>
<path d="M208.063 234.805L196.157 252.942V287.033H208.063V234.805Z" fill="#8C9AA8"/>
<path d="M175.621 224.376C175.621 224.719 175.519 225.055 175.329 225.34C175.138 225.625 174.867 225.847 174.55 225.979C174.233 226.11 173.884 226.144 173.548 226.077C173.212 226.01 172.902 225.845 172.66 225.603C172.417 225.36 172.252 225.051 172.185 224.715C172.118 224.378 172.153 224.029 172.284 223.712C172.415 223.395 172.637 223.125 172.923 222.934C173.208 222.743 173.543 222.642 173.886 222.642C174.114 222.642 174.34 222.686 174.55 222.774C174.761 222.861 174.952 222.989 175.113 223.15C175.274 223.311 175.402 223.502 175.489 223.712C175.576 223.923 175.621 224.148 175.621 224.376Z" fill="#9CAAB8"/>
<path d="M178.105 223.305C178.105 223.765 177.923 224.207 177.597 224.532C177.272 224.857 176.831 225.04 176.371 225.04C175.911 225.04 175.47 224.857 175.144 224.532C174.819 224.207 174.636 223.765 174.636 223.305C174.636 222.845 174.819 222.404 175.144 222.079C175.47 221.754 175.911 221.571 176.371 221.571C176.831 221.571 177.272 221.754 177.597 222.079C177.923 222.404 178.105 222.845 178.105 223.305Z" fill="#9CAAB8"/>
<path d="M176.992 224.847C176.992 225.162 176.868 225.464 176.648 225.688C176.428 225.912 176.128 226.041 175.814 226.047C175.576 226.051 175.342 225.984 175.142 225.855C174.942 225.726 174.785 225.54 174.691 225.321C174.597 225.103 174.57 224.861 174.614 224.627C174.658 224.393 174.77 224.177 174.937 224.007C175.104 223.837 175.317 223.721 175.55 223.673C175.784 223.625 176.026 223.648 176.246 223.738C176.467 223.828 176.655 223.981 176.788 224.179C176.921 224.377 176.992 224.609 176.992 224.847Z" fill="#9CAAB8"/>
<path d="M174.465 221.55C174.465 221.778 174.42 222.003 174.333 222.214C174.245 222.424 174.118 222.615 173.957 222.776C173.796 222.937 173.604 223.065 173.394 223.152C173.183 223.24 172.958 223.284 172.73 223.284C172.502 223.284 172.277 223.24 172.066 223.152C171.856 223.065 171.665 222.937 171.504 222.776C171.343 222.615 171.215 222.424 171.128 222.214C171.04 222.003 170.996 221.778 170.996 221.55C170.996 221.09 171.178 220.649 171.504 220.323C171.829 219.998 172.27 219.815 172.73 219.815C173.19 219.815 173.631 219.998 173.957 220.323C174.282 220.649 174.465 221.09 174.465 221.55Z" fill="#9CAAB8"/>
<path d="M176.863 221.935C176.863 222.395 176.68 222.836 176.355 223.161C176.03 223.486 175.589 223.669 175.129 223.669C174.669 223.669 174.227 223.486 173.902 223.161C173.577 222.836 173.394 222.395 173.394 221.935C173.394 221.707 173.439 221.481 173.526 221.271C173.613 221.06 173.741 220.869 173.902 220.708C174.063 220.547 174.254 220.419 174.465 220.332C174.675 220.245 174.901 220.2 175.129 220.2C175.356 220.2 175.582 220.245 175.792 220.332C176.003 220.419 176.194 220.547 176.355 220.708C176.516 220.869 176.644 221.06 176.731 221.271C176.818 221.481 176.863 221.707 176.863 221.935Z" fill="#9CAAB8"/>
<path d="M172.666 219.815C172.666 220.116 172.546 220.404 172.333 220.617C172.121 220.83 171.832 220.95 171.531 220.95C171.23 220.95 170.941 220.83 170.728 220.617C170.516 220.404 170.396 220.116 170.396 219.815C170.396 219.514 170.516 219.225 170.728 219.012C170.941 218.799 171.23 218.68 171.531 218.68C171.832 218.68 172.121 218.799 172.333 219.012C172.546 219.225 172.666 219.514 172.666 219.815Z" fill="#9CAAB8"/>
<path d="M178.298 225.596C178.318 225.722 178.31 225.85 178.276 225.972C178.241 226.094 178.181 226.207 178.098 226.303C178.016 226.4 177.913 226.477 177.798 226.53C177.683 226.583 177.558 226.611 177.431 226.611C177.304 226.611 177.178 226.583 177.063 226.53C176.948 226.477 176.846 226.4 176.763 226.303C176.681 226.207 176.62 226.094 176.586 225.972C176.551 225.85 176.544 225.722 176.563 225.596C176.596 225.39 176.701 225.201 176.86 225.066C177.019 224.93 177.222 224.855 177.431 224.855C177.64 224.855 177.842 224.93 178.001 225.066C178.16 225.201 178.265 225.39 178.298 225.596Z" fill="#9CAAB8"/>
<path d="M187.527 224.526C187.527 224.753 187.482 224.979 187.395 225.189C187.308 225.4 187.18 225.591 187.019 225.752C186.858 225.913 186.667 226.041 186.456 226.128C186.246 226.215 186.02 226.26 185.793 226.26C185.333 226.26 184.891 226.077 184.566 225.752C184.241 225.427 184.058 224.986 184.058 224.526C184.058 224.066 184.241 223.624 184.566 223.299C184.891 222.974 185.333 222.791 185.793 222.791C186.253 222.791 186.694 222.974 187.019 223.299C187.344 223.624 187.527 224.066 187.527 224.526Z" fill="#9CAAB8"/>
<path d="M190.011 223.413C190.007 223.755 189.901 224.088 189.708 224.37C189.515 224.653 189.243 224.872 188.925 225C188.608 225.128 188.26 225.159 187.925 225.09C187.59 225.02 187.283 224.854 187.043 224.61C186.802 224.367 186.639 224.058 186.574 223.722C186.509 223.386 186.544 223.038 186.676 222.723C186.808 222.407 187.03 222.137 187.315 221.948C187.6 221.758 187.934 221.657 188.276 221.657C188.506 221.657 188.733 221.702 188.945 221.791C189.157 221.879 189.349 222.009 189.51 222.172C189.672 222.336 189.799 222.529 189.885 222.742C189.971 222.955 190.014 223.183 190.011 223.413Z" fill="#9CAAB8"/>
<path d="M188.898 224.955C188.898 225.267 188.773 225.567 188.553 225.787C188.332 226.008 188.032 226.132 187.72 226.132C187.407 226.132 187.108 226.008 186.887 225.787C186.666 225.567 186.542 225.267 186.542 224.955C186.542 224.642 186.666 224.343 186.887 224.122C187.108 223.901 187.407 223.777 187.72 223.777C188.032 223.777 188.332 223.901 188.553 224.122C188.773 224.343 188.898 224.642 188.898 224.955Z" fill="#9CAAB8"/>
<path d="M186.371 221.656C186.371 222.116 186.188 222.558 185.863 222.883C185.538 223.208 185.096 223.391 184.636 223.391C184.176 223.391 183.735 223.208 183.41 222.883C183.085 222.558 182.902 222.116 182.902 221.656C182.902 221.196 183.085 220.755 183.41 220.43C183.735 220.105 184.176 219.922 184.636 219.922C185.096 219.922 185.538 220.105 185.863 220.43C186.188 220.755 186.371 221.196 186.371 221.656Z" fill="#9CAAB8"/>
<path d="M187.034 223.777C187.992 223.777 188.769 223 188.769 222.042C188.769 221.084 187.992 220.308 187.034 220.308C186.076 220.308 185.3 221.084 185.3 222.042C185.3 223 186.076 223.777 187.034 223.777Z" fill="#9CAAB8"/>
<path d="M184.572 219.923C184.572 220.224 184.453 220.512 184.24 220.725C184.027 220.938 183.738 221.057 183.437 221.057C183.136 221.057 182.848 220.938 182.635 220.725C182.422 220.512 182.302 220.224 182.302 219.923C182.302 219.622 182.422 219.333 182.635 219.12C182.848 218.907 183.136 218.788 183.437 218.788C183.586 218.788 183.734 218.817 183.871 218.874C184.009 218.931 184.134 219.015 184.24 219.12C184.345 219.225 184.429 219.351 184.486 219.488C184.543 219.626 184.572 219.773 184.572 219.923Z" fill="#9CAAB8"/>
<path d="M190.204 225.704C190.223 225.829 190.216 225.957 190.181 226.079C190.147 226.201 190.086 226.314 190.004 226.411C189.921 226.507 189.819 226.585 189.704 226.638C189.589 226.691 189.463 226.718 189.336 226.718C189.21 226.718 189.084 226.691 188.969 226.638C188.854 226.585 188.751 226.507 188.669 226.411C188.587 226.314 188.526 226.201 188.492 226.079C188.457 225.957 188.449 225.829 188.469 225.704C188.449 225.578 188.457 225.45 188.492 225.328C188.526 225.206 188.587 225.093 188.669 224.996C188.751 224.9 188.854 224.823 188.969 224.77C189.084 224.716 189.21 224.689 189.336 224.689C189.463 224.689 189.589 224.716 189.704 224.77C189.819 224.823 189.921 224.9 190.004 224.996C190.086 225.093 190.147 225.206 190.181 225.328C190.216 225.45 190.223 225.578 190.204 225.704Z" fill="#9CAAB8"/>
<path d="M199.026 224.633C199.026 225.093 198.843 225.535 198.518 225.86C198.193 226.185 197.752 226.368 197.292 226.368C196.832 226.368 196.39 226.185 196.065 225.86C195.74 225.535 195.557 225.093 195.557 224.633C195.557 224.173 195.74 223.732 196.065 223.407C196.39 223.082 196.832 222.899 197.292 222.899C197.752 222.899 198.193 223.082 198.518 223.407C198.843 223.732 199.026 224.173 199.026 224.633Z" fill="#9CAAB8"/>
<path d="M201.446 223.499C201.446 223.964 201.261 224.411 200.932 224.74C200.602 225.07 200.156 225.255 199.69 225.255C199.343 225.255 199.003 225.152 198.714 224.959C198.426 224.766 198.201 224.491 198.068 224.171C197.935 223.85 197.9 223.497 197.968 223.156C198.036 222.815 198.203 222.503 198.448 222.257C198.694 222.011 199.007 221.844 199.347 221.776C199.688 221.709 200.041 221.743 200.362 221.876C200.683 222.009 200.957 222.234 201.15 222.523C201.343 222.812 201.446 223.151 201.446 223.499Z" fill="#9CAAB8"/>
<path d="M200.311 225.062C200.314 225.217 200.285 225.372 200.227 225.516C200.169 225.66 200.083 225.791 199.973 225.901C199.863 226.011 199.732 226.098 199.587 226.156C199.443 226.214 199.289 226.243 199.133 226.24C198.821 226.24 198.521 226.116 198.301 225.895C198.08 225.674 197.956 225.374 197.956 225.062C197.956 224.75 198.08 224.45 198.301 224.229C198.521 224.008 198.821 223.884 199.133 223.884C199.446 223.884 199.745 224.008 199.966 224.229C200.187 224.45 200.311 224.75 200.311 225.062Z" fill="#9CAAB8"/>
<path d="M197.805 221.764C197.8 222.226 197.612 222.667 197.284 222.992C196.955 223.317 196.511 223.499 196.049 223.499C195.589 223.499 195.148 223.316 194.823 222.991C194.498 222.665 194.315 222.224 194.315 221.764C194.315 221.304 194.498 220.863 194.823 220.538C195.148 220.213 195.589 220.03 196.049 220.03C196.511 220.03 196.955 220.212 197.284 220.536C197.612 220.861 197.8 221.302 197.805 221.764Z" fill="#9CAAB8"/>
<path d="M200.182 222.235C200.182 222.578 200.081 222.913 199.89 223.199C199.699 223.484 199.429 223.706 199.112 223.837C198.795 223.969 198.446 224.003 198.11 223.936C197.773 223.869 197.464 223.704 197.221 223.461C196.979 223.219 196.814 222.91 196.747 222.573C196.68 222.237 196.714 221.888 196.845 221.571C196.977 221.254 197.199 220.983 197.484 220.793C197.769 220.602 198.105 220.5 198.448 220.5C198.906 220.506 199.344 220.691 199.668 221.015C199.992 221.339 200.177 221.777 200.182 222.235Z" fill="#9CAAB8"/>
<path d="M195.986 220.094C195.986 220.395 195.866 220.684 195.653 220.897C195.44 221.11 195.152 221.229 194.851 221.229C194.55 221.229 194.261 221.11 194.048 220.897C193.835 220.684 193.716 220.395 193.716 220.094C193.716 219.793 193.835 219.505 194.048 219.292C194.261 219.079 194.55 218.959 194.851 218.959C195.152 218.959 195.44 219.079 195.653 219.292C195.866 219.505 195.986 219.793 195.986 220.094Z" fill="#9CAAB8"/>
<path d="M201.617 225.811C201.585 226.018 201.479 226.206 201.32 226.342C201.161 226.478 200.959 226.552 200.75 226.552C200.541 226.552 200.339 226.478 200.18 226.342C200.021 226.206 199.915 226.018 199.883 225.811C199.863 225.686 199.871 225.558 199.905 225.436C199.94 225.313 200 225.2 200.083 225.104C200.165 225.007 200.267 224.93 200.383 224.877C200.498 224.824 200.623 224.796 200.75 224.796C200.877 224.796 201.002 224.824 201.117 224.877C201.233 224.93 201.335 225.007 201.417 225.104C201.5 225.2 201.56 225.313 201.595 225.436C201.629 225.558 201.637 225.686 201.617 225.811Z" fill="#9CAAB8"/>
<path d="M123.179 250.737H122.387V283.307H123.179V250.737Z" fill="#F19B2C"/>
<path d="M125.684 279.945H122.772V280.737H125.684V279.945Z" fill="#F19B2C"/>
<path d="M125.684 276.947H122.772V277.739H125.684V276.947Z" fill="#F19B2C"/>
<path d="M125.684 273.949H122.772V274.742H125.684V273.949Z" fill="#F19B2C"/>
<path d="M125.684 270.951H122.772V271.743H125.684V270.951Z" fill="#F19B2C"/>
<path d="M125.684 267.974H122.772V268.766H125.684V267.974Z" fill="#F19B2C"/>
<path d="M125.684 264.977H122.772V265.769H125.684V264.977Z" fill="#F19B2C"/>
<path d="M125.684 261.979H122.772V262.771H125.684V261.979Z" fill="#F19B2C"/>
<path d="M125.684 258.981H122.772V259.773H125.684V258.981Z" fill="#F19B2C"/>
<path d="M125.684 255.982H122.772V256.775H125.684V255.982Z" fill="#F19B2C"/>
<path d="M125.684 252.985H122.772V253.777H125.684V252.985Z" fill="#F19B2C"/>
<path d="M101.829 241.464H101.037V274.035H101.829V241.464Z" fill="#F19B2C"/>
<path d="M104.356 270.673H101.444V271.465H104.356V270.673Z" fill="#F19B2C"/>
<path d="M104.356 267.675H101.444V268.468H104.356V267.675Z" fill="#F19B2C"/>
<path d="M104.356 264.676H101.444V265.469H104.356V264.676Z" fill="#F19B2C"/>
<path d="M104.356 261.679H101.444V262.471H104.356V261.679Z" fill="#F19B2C"/>
<path d="M104.356 258.681H101.444V259.473H104.356V258.681Z" fill="#F19B2C"/>
<path d="M104.356 255.684H101.444V256.476H104.356V255.684Z" fill="#F19B2C"/>
<path d="M104.356 252.685H101.444V253.477H104.356V252.685Z" fill="#F19B2C"/>
<path d="M104.356 249.687H101.444V250.501H104.356V249.687Z" fill="#F19B2C"/>
<path d="M104.356 246.711H101.444V247.503H104.356V246.711Z" fill="#F19B2C"/>
<path d="M104.356 243.712H101.444V244.505H104.356V243.712Z" fill="#F19B2C"/>
<path d="M117.14 272.214H114.228V273.071H117.14V272.214Z" fill="#F19B2C"/>
<path d="M117.14 269.045H114.228V269.901H117.14V269.045Z" fill="#F19B2C"/>
<path d="M117.14 265.855H114.228V266.712H117.14V265.855Z" fill="#F19B2C"/>
<path d="M117.14 262.685H114.228V263.542H117.14V262.685Z" fill="#F19B2C"/>
<path d="M117.14 259.495H114.228V260.351H117.14V259.495Z" fill="#F19B2C"/>
<path d="M117.14 256.326H114.228V257.182H117.14V256.326Z" fill="#F19B2C"/>
<path d="M117.14 253.135H114.228V253.992H117.14V253.135Z" fill="#F19B2C"/>
<path d="M117.14 249.966H114.228V250.822H117.14V249.966Z" fill="#F19B2C"/>
<path d="M117.14 246.775H114.228V247.631H117.14V246.775Z" fill="#F19B2C"/>
<path d="M117.14 243.606H114.228V244.463H117.14V243.606Z" fill="#F19B2C"/>
<path d="M159.944 210.862L159.342 211.695L168.661 218.432L169.263 217.599L159.944 210.862Z" fill="#D6741D"/>
<path d="M168.654 217.589L159.333 224.323L159.935 225.156L169.256 218.422L168.654 217.589Z" fill="#D6741D"/>
<path d="M159.939 224.32L159.337 225.153L168.656 231.89L169.259 231.057L159.939 224.32Z" fill="#D6741D"/>
<path d="M159.925 238.638L159.325 237.803L168.64 231.058L169.24 231.893L159.925 238.638Z" fill="#D6741D"/>
<path d="M159.93 237.774L159.328 238.607L168.648 245.342L169.25 244.509L159.93 237.774Z" fill="#D6741D"/>
<path d="M168.649 244.519L159.329 251.254L159.931 252.087L169.251 245.352L168.649 244.519Z" fill="#D6741D"/>
<path d="M159.929 251.258L159.327 252.091L168.647 258.827L169.249 257.994L159.929 251.258Z" fill="#D6741D"/>
<path d="M168.576 258.066L159.095 267.543L159.822 268.27L169.302 258.793L168.576 258.066Z" fill="#D6741D"/>
<path d="M168.572 210.859L159.247 217.587L159.848 218.421L169.173 211.693L168.572 210.859Z" fill="#D6741D"/>
<path d="M159.833 217.568L159.231 218.401L168.552 225.136L169.154 224.303L159.833 217.568Z" fill="#D6741D"/>
<path d="M168.561 224.313L159.242 231.051L159.844 231.884L169.163 225.146L168.561 224.313Z" fill="#D6741D"/>
<path d="M159.846 231.052L159.243 231.885L168.56 238.624L169.163 237.791L159.846 231.052Z" fill="#D6741D"/>
<path d="M168.573 237.801L159.248 244.529L159.849 245.362L169.174 238.634L168.573 237.801Z" fill="#D6741D"/>
<path d="M159.848 244.524L159.246 245.357L168.566 252.092L169.168 251.258L159.848 244.524Z" fill="#D6741D"/>
<path d="M168.563 251.237L159.249 257.981L159.852 258.814L169.165 252.07L168.563 251.237Z" fill="#D6741D"/>
<path d="M168.662 268.253L159.175 258.767L159.903 258.06L169.39 267.525L168.662 268.253Z" fill="#D6741D"/>
<path d="M188.833 293.988H185.536V299.62H188.833V293.988Z" fill="#D6741D"/>
<path d="M199.026 295.68H173.523C170.396 295.68 167.934 293.775 167.934 291.398C167.934 289.021 170.289 287.308 173.523 287.308V290.477C171.959 290.477 171.103 291.098 171.103 291.398C171.103 291.697 172.024 292.554 173.523 292.554H199.026V295.68Z" fill="#D6741D"/>
<path d="M158.083 295.68H111.23V292.511H158.083C159.582 292.511 160.524 291.761 160.524 291.354C160.524 290.948 159.582 290.22 158.083 290.22V287.05C161.231 287.05 163.672 288.935 163.672 291.333C163.672 293.731 161.231 295.68 158.083 295.68Z" fill="#D6741D"/>
<path d="M199.026 301.119H152.323V297.949H199.026C200.525 297.949 201.446 297.221 201.446 296.814C201.446 296.408 200.525 295.679 199.026 295.679V292.51C202.174 292.51 204.615 294.395 204.615 296.793C204.615 299.191 202.238 301.119 199.026 301.119Z" fill="#D6741D"/>
<path d="M158.34 301.119H111.594C108.446 301.119 105.984 299.234 105.984 296.836C105.984 294.438 108.446 292.553 111.594 292.553V295.68C110.074 295.68 109.175 296.408 109.175 296.815C109.175 297.221 110.074 297.949 111.594 297.949H158.34V301.119Z" fill="#D6741D"/>
<path d="M210.226 268.639C213.352 268.639 215.815 266.755 215.815 264.356C215.648 263.081 214.992 261.921 213.985 261.121C212.977 260.322 211.698 259.946 210.418 260.074C208.919 260.074 207.999 259.345 207.999 258.939C207.999 258.532 208.919 257.782 210.418 257.782C213.545 257.782 216.007 255.898 216.007 253.5C216.007 251.101 213.545 249.217 210.418 249.217H197.035C195.984 249.217 194.976 249.634 194.233 250.377C193.491 251.12 193.073 252.128 193.073 253.178V255.705H189.411C188.361 255.705 187.353 256.123 186.61 256.865C185.867 257.608 185.45 258.616 185.45 259.667V262.75H180.461C179.414 262.75 178.409 263.165 177.667 263.903C176.924 264.641 176.505 265.643 176.499 266.69V270.609H179.754V266.605C179.754 266.395 179.837 266.193 179.986 266.044C180.134 265.896 180.336 265.812 180.546 265.812H193.459C193.669 265.812 193.87 265.896 194.019 266.044C194.167 266.193 194.251 266.395 194.251 266.605V270.523H197.42V266.605C197.414 265.558 196.995 264.556 196.252 263.817C195.51 263.079 194.506 262.665 193.459 262.665H188.619V259.581C188.625 259.373 188.71 259.174 188.857 259.027C189.005 258.879 189.203 258.794 189.411 258.789H196.221V257.011V253.093C196.221 252.883 196.304 252.681 196.453 252.532C196.602 252.384 196.803 252.3 197.013 252.3H210.397C211.896 252.3 212.817 253.05 212.817 253.435C212.817 253.821 211.896 254.57 210.397 254.57C207.249 254.57 204.786 256.476 204.786 258.853C204.786 261.23 207.163 263.136 210.204 263.136C211.703 263.136 212.624 263.864 212.624 264.271C212.624 264.677 211.703 265.406 210.204 265.406C207.056 265.406 204.594 267.311 204.594 269.688C204.594 272.065 207.056 273.971 210.204 273.971C211.703 273.971 212.624 274.699 212.624 275.106C212.624 275.513 211.703 276.241 210.204 276.241C207.056 276.241 204.594 278.147 204.594 280.524C204.594 282.901 207.056 284.806 210.204 284.806C211.703 284.806 212.624 285.534 212.624 285.941C212.624 286.348 211.703 287.076 210.204 287.076H173.522V290.245H210.226C213.352 290.245 215.815 288.361 215.815 285.963C215.815 283.564 213.352 281.68 210.226 281.68C208.705 281.68 207.784 280.93 207.784 280.545C207.784 280.16 208.705 279.389 210.226 279.389C213.352 279.389 215.815 277.504 215.815 275.106C215.815 272.708 213.352 270.823 210.226 270.823C208.705 270.823 207.784 270.074 207.784 269.688C207.784 269.303 208.705 268.639 210.226 268.639Z" fill="#D6741D"/>
<path d="M125.127 288.55H121.83V294.182H125.127V288.55Z" fill="#D6741D"/>
<path d="M158.083 287.05L212.838 287.028L211.061 290.219H158.083V287.05Z" fill="#D6741D"/>
<path d="M155 293.003H151.702V298.635H155V293.003Z" fill="#D6741D"/>
<path d="M98.6602 287.054C97.1398 287.054 96.219 286.326 96.219 285.919C96.219 285.513 97.1398 284.784 98.6602 284.784H103.414V281.615H98.6602C95.5124 281.615 93.0498 283.5 93.0498 285.898C93.0498 288.296 95.5124 290.181 98.6602 290.181H145.492V287.054H98.6602Z" fill="#D6741D"/>
<path d="M158.083 287.05H145.406V290.22H158.083V287.05Z" fill="#D6741D"/>
<path d="M114.442 230.8C114.442 229.335 113.86 227.93 112.824 226.894C111.788 225.857 110.383 225.275 108.917 225.275C107.452 225.275 106.047 225.857 105.011 226.894C103.975 227.93 103.393 229.335 103.393 230.8V287.032H114.442V230.8Z" fill="#F8BE49"/>
<path d="M142.965 250.222C142.965 247.934 142.056 245.739 140.437 244.12C138.819 242.502 136.624 241.593 134.335 241.593C132.047 241.593 129.852 242.502 128.233 244.12C126.615 245.739 125.706 247.934 125.706 250.222V287.054H142.965V250.222Z" fill="#F8BE49"/>
<path d="M118.596 287.054L116.305 287.268V222.641C116.403 221.665 116.118 220.689 115.511 219.918C114.904 219.148 114.022 218.642 113.05 218.509C112.071 218.632 111.178 219.133 110.562 219.905C109.946 220.677 109.656 221.659 109.753 222.641V226.068H107.483V222.641C107.377 221.053 107.902 219.487 108.945 218.284C109.987 217.081 111.463 216.338 113.05 216.217C114.634 216.343 116.104 217.088 117.142 218.291C118.18 219.493 118.703 221.056 118.596 222.641V287.054Z" fill="#F8BE49"/>
<path d="M153.308 255.769H142.965V257.118H153.308V255.769Z" fill="#F19B2C"/>
<path d="M153.308 260.159H142.965V261.508H153.308V260.159Z" fill="#F19B2C"/>
<path d="M153.308 264.527H142.965V265.876H153.308V264.527Z" fill="#F19B2C"/>
<path d="M153.308 268.917H142.965V270.287H153.308V268.917Z" fill="#F19B2C"/>
<path d="M153.308 273.307H142.965V274.677H153.308V273.307Z" fill="#F19B2C"/>
<path d="M169.539 210.265H168.19V267.975H169.539V210.265Z" fill="#D6741D"/>
<path d="M153.308 277.696H142.965V279.045H153.308V277.696Z" fill="#F19B2C"/>
<path d="M169.54 209.879H158.961V211.271H169.54V209.879Z" fill="#D6741D"/>
<path d="M160.31 210.265H158.961V267.975H160.31V210.265Z" fill="#D6741D"/>
<path d="M165.835 203.755H162.773V210.8H165.835V203.755Z" fill="#D6741D"/>
<path d="M166.906 201.1H161.595V205.061H166.906V201.1Z" fill="#D6741D"/>
<path d="M181.167 270.522H175.086V287.054H181.167V270.522Z" fill="white"/>
<path d="M182.281 272.128H173.801V274.227H182.281V272.128Z" fill="#D6741D"/>
<path d="M182.281 277.953H173.801V280.052H182.281V277.953Z" fill="#D6741D"/>
<path d="M182.281 283.756H173.801V285.876H182.281V283.756Z" fill="#D6741D"/>
<path d="M150.224 287.076H146.605V238.252C146.605 234.612 144.25 231.657 141.38 231.657C138.511 231.657 136.134 234.612 136.134 238.252V243.649H132.515V238.252C132.515 232.621 136.477 228.038 141.38 228.038C146.284 228.038 150.224 232.621 150.224 238.252V287.076Z" fill="#F8BE49"/>
<path d="M114.442 238.681H103.393V241.465H114.442V238.681Z" fill="#F19B2C"/>
<path d="M114.442 247.739H103.393V250.523H114.442V247.739Z" fill="#F19B2C"/>
<path d="M114.442 257.161H103.393V259.944H114.442V257.161Z" fill="#F19B2C"/>
<path d="M114.442 268.36H103.393V271.144H114.442V268.36Z" fill="#F19B2C"/>
<path d="M199.626 284.334C200.87 283.772 201.931 282.872 202.689 281.736C203.446 280.6 203.869 279.275 203.908 277.91C203.852 276.256 203.247 274.669 202.188 273.397C201.13 272.125 199.678 271.242 198.062 270.886V268.959H193.673V270.929C192.088 271.305 190.671 272.192 189.642 273.454C188.612 274.716 188.027 276.282 187.977 277.91C187.991 279.258 188.384 280.576 189.111 281.712C189.838 282.847 190.87 283.756 192.088 284.334L189.947 285.126L189.69 287.268H190.675L191.082 285.662L193.501 284.976C194.086 285.158 194.689 285.273 195.3 285.319V285.426L195.471 287.268H196.028L196.199 285.426C196.922 285.426 197.642 285.332 198.341 285.148L200.482 285.747L200.868 287.353H201.874L201.617 285.212L199.626 284.334Z" fill="white"/>
<path d="M194.786 273.393H193.994V281.594H194.786V273.393Z" fill="#F19B2C"/>
<path d="M197.955 273.393H197.163V281.594H197.955V273.393Z" fill="#F19B2C"/>
<path d="M197.57 275.084H194.251V275.684H197.57V275.084Z" fill="#F19B2C"/>
<path d="M197.57 277.226H194.251V277.825H197.57V277.226Z" fill="#F19B2C"/>
<path d="M197.57 279.345H194.251V279.945H197.57V279.345Z" fill="#F19B2C"/>
<path d="M171.531 267.033H157.462V287.055H171.531V267.033Z" fill="#4D5A68"/>
<path d="M132.815 245.769H131.809V256.218H132.815V245.769Z" fill="#F19B2C"/>
<path d="M136.841 245.769H135.834V256.218H136.841V245.769Z" fill="#F19B2C"/>
<path d="M136.348 247.931H132.13V248.681H136.348V247.931Z" fill="#F19B2C"/>
<path d="M136.348 250.651H132.13V251.4H136.348V250.651Z" fill="#F19B2C"/>
<path d="M136.348 253.349H132.13V254.098H136.348V253.349Z" fill="#F19B2C"/>
<path d="M132.815 256.197H131.809V266.647H132.815V256.197Z" fill="#F19B2C"/>
<path d="M136.841 256.197H135.834V266.647H136.841V256.197Z" fill="#F19B2C"/>
<path d="M136.348 258.36H132.13V259.109H136.348V258.36Z" fill="#F19B2C"/>
<path d="M136.348 261.08H132.13V261.829H136.348V261.08Z" fill="#F19B2C"/>
<path d="M136.348 263.799H132.13V264.549H136.348V263.799Z" fill="#F19B2C"/>
<path d="M136.862 255.769H131.809V256.668H136.862V255.769Z" fill="#F19B2C"/>
<path d="M132.815 266.154H131.809V276.604H132.815V266.154Z" fill="#F19B2C"/>
<path d="M136.841 266.154H135.834V276.604H136.841V266.154Z" fill="#F19B2C"/>
<path d="M136.348 268.317H132.13V269.067H136.348V268.317Z" fill="#F19B2C"/>
<path d="M136.348 271.037H132.13V271.786H136.348V271.037Z" fill="#F19B2C"/>
<path d="M136.348 273.756H132.13V274.506H136.348V273.756Z" fill="#F19B2C"/>
<path d="M132.815 276.604H131.809V287.054H132.815V276.604Z" fill="#F19B2C"/>
<path d="M136.841 276.604H135.834V287.054H136.841V276.604Z" fill="#F19B2C"/>
<path d="M136.348 278.767H132.13V279.516H136.348V278.767Z" fill="#F19B2C"/>
<path d="M136.348 281.486H132.13V282.236H136.348V281.486Z" fill="#F19B2C"/>
<path d="M136.348 284.203H132.13V284.952H136.348V284.203Z" fill="#F19B2C"/>
<path d="M136.862 276.155H131.809V277.076H136.862V276.155Z" fill="#F19B2C"/>
<path d="M136.477 265.898H132.215V266.755H136.477V265.898Z" fill="#F19B2C"/>
<path d="M98.3821 355.103C93.5431 355.097 88.9036 353.174 85.48 349.754C82.0563 346.334 80.1275 341.697 80.1162 336.858V335.252C80.1275 330.413 82.0563 325.776 85.48 322.356C88.9036 318.937 93.5431 317.013 98.3821 317.008H119.068L118.233 322.233H98.3821C94.9626 322.233 91.6813 323.582 89.2513 325.988C86.8214 328.394 85.4392 331.662 85.4054 335.081V336.687C85.4392 340.106 86.8214 343.374 89.2513 345.78C91.6813 348.186 94.9626 349.535 98.3821 349.535H113.372V354.846L98.3821 355.103Z" fill="#D6741D"/>
<path d="M131.488 299.792C131.711 300.718 131.826 301.667 131.83 302.619V304.204C131.83 307.611 130.477 310.879 128.067 313.289C125.658 315.698 122.39 317.052 118.982 317.052H104.25V322.213H118.982C123.744 322.201 128.307 320.305 131.674 316.938C135.04 313.571 136.937 309.008 136.948 304.247V302.662C136.946 301.715 136.867 300.77 136.713 299.835L131.488 299.792Z" fill="#D6741D"/>
<path d="M143.115 184.568C143.059 184.094 143.131 183.614 143.323 183.178C143.515 182.741 143.82 182.363 144.207 182.084C144.753 181.732 145.402 181.573 146.049 181.635C146.222 180.945 146.621 180.334 147.181 179.897C147.742 179.46 148.432 179.222 149.143 179.222C149.854 179.222 150.544 179.46 151.105 179.897C151.666 180.334 152.064 180.945 152.237 181.635C152.891 181.573 153.547 181.732 154.1 182.084C154.485 182.364 154.787 182.743 154.976 183.18C155.164 183.617 155.232 184.096 155.171 184.568C156.242 184.954 156.948 185.682 156.948 186.538V186.774C156.948 188.016 155.407 188.915 153.522 188.915H144.785C142.88 188.915 141.338 187.909 141.338 186.774V186.538C141.338 185.682 142.045 184.954 143.115 184.568Z" fill="#8C9AA8"/>
<path d="M135.235 185.339C135.178 184.938 135.227 184.53 135.377 184.154C135.527 183.778 135.774 183.448 136.091 183.197C136.504 182.894 137.019 182.764 137.526 182.833C137.619 182.267 137.91 181.753 138.348 181.382C138.785 181.01 139.34 180.807 139.914 180.807C140.487 180.807 141.042 181.01 141.48 181.382C141.917 181.753 142.208 182.267 142.301 182.833C142.809 182.766 143.322 182.896 143.736 183.197C144.052 183.449 144.295 183.78 144.442 184.156C144.588 184.532 144.633 184.94 144.571 185.339C144.938 185.438 145.267 185.647 145.512 185.938C145.757 186.229 145.907 186.588 145.942 186.966V187.159C145.942 188.187 144.764 189.022 143.286 189.022H136.541C135.063 189.022 133.886 188.187 133.886 187.159V186.966C133.916 186.589 134.062 186.231 134.304 185.94C134.545 185.649 134.87 185.439 135.235 185.339Z" fill="#514260"/>
<path d="M167.975 172.269C167.945 171.982 167.988 171.691 168.098 171.427C168.209 171.163 168.384 170.935 168.605 170.766C168.921 170.544 169.302 170.447 169.679 170.492C169.763 170.062 169.987 169.677 170.312 169.405C170.637 169.132 171.042 168.99 171.457 169.002C171.878 168.982 172.293 169.121 172.627 169.394C172.962 169.666 173.194 170.055 173.284 170.492C173.661 170.447 174.042 170.544 174.358 170.766C174.579 170.935 174.754 171.163 174.864 171.427C174.975 171.691 175.018 171.982 174.988 172.269C175.253 172.338 175.492 172.492 175.673 172.709C175.854 172.926 175.968 173.197 176 173.484V173.615C176 174.386 175.123 175 174.025 175H168.988C167.889 175 167 174.386 167 173.615V173.484C167.031 173.202 167.14 172.936 167.314 172.72C167.487 172.504 167.718 172.347 167.975 172.269Z" fill="#8C9AA8"/>
<path d="M163.763 172.751C163.725 172.509 163.751 172.261 163.836 172.032C163.922 171.804 164.065 171.603 164.25 171.451C164.495 171.276 164.792 171.198 165.087 171.23C165.142 170.887 165.312 170.574 165.567 170.349C165.822 170.124 166.146 170 166.481 170C166.816 170 167.14 170.124 167.395 170.349C167.651 170.574 167.821 170.887 167.875 171.23C168.171 171.198 168.467 171.276 168.712 171.451C168.897 171.604 169.04 171.805 169.128 172.033C169.215 172.26 169.245 172.508 169.212 172.751C169.426 172.816 169.615 172.946 169.755 173.125C169.896 173.303 169.981 173.522 170 173.752V173.856C170 174.493 169.312 175 168.45 175H164.55C163.687 175 163 174.493 163 173.856V173.752C163.017 173.525 163.099 173.309 163.234 173.131C163.37 172.952 163.554 172.82 163.763 172.751Z" fill="#514260"/>
<path d="M188.59 190.081C188.524 189.555 188.581 189.022 188.756 188.521C188.93 188.021 189.218 187.567 189.597 187.195C189.975 186.822 190.435 186.541 190.94 186.374C191.445 186.206 191.982 186.156 192.51 186.228C192.715 185.297 193.24 184.466 193.993 183.878C194.747 183.289 195.682 182.979 196.64 183.001C197.596 182.976 198.531 183.285 199.281 183.874C200.032 184.464 200.55 185.297 200.747 186.228C201.615 186.117 202.493 186.324 203.22 186.808C203.738 187.171 204.146 187.667 204.401 188.244C204.656 188.821 204.748 189.456 204.667 190.081C205.275 190.235 205.824 190.567 206.24 191.035C206.656 191.503 206.921 192.084 207 192.704V193.006C207 194.654 204.947 196 202.333 196H190.667C188.123 196 186 194.654 186 193.006V192.704C186.095 192.05 186.398 191.443 186.864 190.971C187.329 190.499 187.934 190.188 188.59 190.081Z" fill="#8C9AA8"/>
<path d="M178.817 190.974C178.753 190.452 178.82 189.923 179.011 189.435C179.203 188.948 179.513 188.518 179.911 188.186C180.457 187.785 181.13 187.607 181.798 187.686C181.94 186.93 182.335 186.249 182.915 185.758C183.495 185.268 184.224 185 184.977 185C185.729 185 186.458 185.268 187.038 185.758C187.619 186.249 188.014 186.93 188.156 187.686C188.831 187.606 189.511 187.784 190.065 188.186C190.465 188.518 190.777 188.947 190.972 189.434C191.167 189.921 191.24 190.45 191.183 190.974C191.673 191.113 192.11 191.402 192.435 191.802C192.759 192.202 192.957 192.695 193 193.213V193.451C193 194.857 191.416 196 189.483 196H180.54C178.584 196 177 194.857 177 193.451V193.213C177.046 192.696 177.245 192.205 177.569 191.805C177.893 191.406 178.328 191.116 178.817 190.974Z" fill="#514260"/>
</g>
</g>
<defs>
<clipPath id="clip0">
<rect width="320" height="370" fill="white"/>
</clipPath>
</defs>
</svg>
