<svg width="1111" height="603" viewBox="0 0 1111 603" fill="none" xmlns="http://www.w3.org/2000/svg">
<g opacity="0.1">
<path d="M489.565 367.367C491.267 367.333 492.904 366.709 494.198 365.602C495.073 366.376 496.192 366.818 497.36 366.853C498.533 366.845 499.661 366.399 500.522 365.602C500.691 366.446 501.163 367.199 501.848 367.719C502.533 368.239 503.384 368.492 504.242 368.428C505.1 368.365 505.906 367.991 506.507 367.376C507.108 366.761 507.464 365.947 507.508 365.088C507.518 364.621 507.434 364.158 507.26 363.725C507.086 363.292 506.827 362.899 506.497 362.569C506.167 362.24 505.774 361.98 505.341 361.806C504.908 361.632 504.445 361.548 503.978 361.558H503.611C504.648 360.747 505.449 359.673 505.93 358.447C506.41 357.22 506.553 355.888 506.343 354.588C506.132 353.288 505.577 352.068 504.734 351.056C503.891 350.045 502.792 349.278 501.552 348.836C501.209 347.236 500.344 345.797 499.092 344.745C497.84 343.693 496.273 343.088 494.639 343.026C493.157 342.999 491.709 343.465 490.521 344.35C489.851 343.479 488.995 342.77 488.015 342.273C487.035 341.777 485.956 341.506 484.858 341.482V341.482C484.859 340.636 484.627 339.805 484.189 339.081C483.752 338.357 483.124 337.767 482.374 337.375C481.624 336.982 480.782 336.803 479.937 336.855C479.093 336.908 478.279 337.191 477.583 337.673C476.888 338.156 476.339 338.819 475.994 339.592C475.649 340.365 475.523 341.217 475.628 342.057C475.734 342.896 476.067 343.691 476.592 344.355C477.118 345.018 477.814 345.525 478.607 345.82C478.223 346.676 478.022 347.603 478.019 348.541C478.006 350.348 478.658 352.096 479.852 353.453C481.046 354.809 482.697 355.679 484.49 355.895C483.343 357.165 482.714 358.818 482.726 360.528C482.846 362.302 483.605 363.973 484.863 365.23C486.12 366.488 487.79 367.247 489.565 367.367V367.367Z" fill="#404040"/>
<rect width="495.273" height="55.4234" transform="matrix(-1 0 0 1 507.273 565.577)" fill="#404040"/>
<path d="M471.327 334.13C474.497 334.087 477.549 332.913 479.931 330.82C481.533 332.306 483.629 333.145 485.814 333.174C487.962 333.14 490.026 332.33 491.624 330.894C491.853 332.427 492.624 333.827 493.799 334.84C494.973 335.852 496.471 336.409 498.022 336.409C499.757 336.409 501.422 335.72 502.65 334.492C503.877 333.265 504.567 331.6 504.567 329.864C504.567 328.129 503.877 326.464 502.65 325.236C501.422 324.009 499.757 323.319 498.022 323.319H497.286C499.387 321.944 501.045 319.99 502.06 317.693C503.075 315.396 503.405 312.855 503.008 310.375C502.612 307.896 501.507 305.584 499.826 303.718C498.145 301.852 495.961 300.513 493.536 299.86C493.148 297.691 492.219 295.655 490.834 293.941C489.45 292.226 487.655 290.889 485.616 290.053C483.578 289.217 481.361 288.909 479.171 289.158C476.982 289.407 474.891 290.205 473.092 291.477C471.878 289.854 470.302 288.536 468.489 287.63C466.676 286.723 464.676 286.253 462.649 286.256H462.208C462.197 284.691 461.76 283.159 460.943 281.824C460.126 280.489 458.961 279.402 457.572 278.68C456.184 277.958 454.625 277.629 453.063 277.727C451.501 277.826 449.996 278.348 448.709 279.239C447.422 280.129 446.402 281.354 445.759 282.78C445.117 284.207 444.875 285.782 445.061 287.336C445.247 288.89 445.853 290.364 446.814 291.599C447.775 292.834 449.055 293.783 450.515 294.345C449.836 295.976 449.486 297.726 449.486 299.493C449.492 302.749 450.72 305.885 452.925 308.281C455.131 310.677 458.154 312.16 461.399 312.436C459.748 314.329 458.676 316.657 458.312 319.143C457.948 321.628 458.307 324.166 459.346 326.453C460.385 328.741 462.06 330.68 464.171 332.042C466.283 333.403 468.741 334.128 471.253 334.13H471.327Z" fill="#404040"/>
<path d="M488.029 592.471L489.28 569.748L490.383 549.524L491.486 528.933L492.662 508.71L493.913 485.84L495.089 464.881L496.266 443.849L497.442 422.816L498.619 402.152H494.869V388.988H499.354L500.016 377.811H508.179H516.342L517.004 388.988H521.49V402.152H517.739L518.916 422.816L520.093 443.849L521.269 464.881L522.446 485.84L523.696 508.71L524.799 528.933L525.902 549.524L527.005 569.748L528.255 592.471L529.358 612.033H487L488.029 592.471Z" fill="#404040"/>
<path d="M50.725 372.113L52.7928 374.974L20.7877 398.107L18.7199 395.247L50.725 372.113Z" fill="#404040"/>
<path d="M20.6684 395.231L52.6573 418.387L50.5875 421.246L18.5986 398.09L20.6684 395.231Z" fill="#404040"/>
<path d="M50.6544 418.46L52.7227 421.321L20.7217 444.46L18.6533 441.6L50.6544 418.46Z" fill="#404040"/>
<path d="M20.667 441.552L52.6963 464.652L50.6314 467.515L18.6021 444.415L20.667 441.552Z" fill="#404040"/>
<path d="M50.694 464.632L52.7613 467.493L20.7522 490.621L18.6848 487.76L50.694 464.632Z" fill="#404040"/>
<path d="M20.7473 487.761L52.7201 510.939L50.6482 513.797L18.6755 490.619L20.7473 487.761Z" fill="#404040"/>
<path d="M20.7612 536.877L52.7507 513.786L50.6181 510.917L18.6286 534.009L20.7612 536.877Z" fill="#404040"/>
<path d="M50.9859 569.307L53.4862 566.807L20.9084 534.229L18.4081 536.729L50.9859 569.307Z" fill="#404040"/>
<path d="M50.9123 398.18L52.9714 395.238L20.9819 372.147L18.9228 375.015L50.9123 398.18Z" fill="#404040"/>
<path d="M20.9819 421.273L52.9714 398.182L50.9123 395.24L18.9228 418.405L20.9819 421.273Z" fill="#404040"/>
<path d="M20.9733 418.406L52.9865 441.528L50.9197 444.39L18.9065 421.267L20.9733 418.406Z" fill="#404040"/>
<path d="M50.8927 441.551L52.9605 444.412L20.9554 467.546L18.8876 464.685L50.8927 441.551Z" fill="#404040"/>
<path d="M20.9207 464.693L52.946 487.799L50.8807 490.661L18.8554 467.556L20.9207 464.693Z" fill="#404040"/>
<path d="M50.909 487.916L52.9768 490.777L20.9717 513.911L18.9039 511.05L50.909 487.916Z" fill="#404040"/>
<path d="M20.9188 510.958L52.9441 534.063L50.8787 536.926L18.8534 513.82L20.9188 510.958Z" fill="#404040"/>
<path d="M50.7751 534.195L53.2711 536.691L20.7191 569.243L18.2231 566.747L50.7751 534.195Z" fill="#404040"/>
<path d="M17.6726 370.091H22.3055V568.279H17.6726V370.091Z" fill="#404040"/>
<path d="M17.5992 368.766H54.0011V373.546H17.5992V368.766Z" fill="#404040"/>
<path d="M49.3681 370.091H54.0011V568.279H49.3681V370.091Z" fill="#404040"/>
<path d="M30.4686 347.733H40.9111V371.928H30.4686V347.733Z" fill="#404040"/>
<path d="M26.7179 338.614H44.9557V352.219H26.7179V338.614Z" fill="#404040"/>
<path d="M64.7437 408.017V398.647C64.6226 397.202 64.8016 395.748 65.2691 394.376C65.7367 393.005 66.4828 391.745 67.4602 390.678C68.4376 389.611 69.625 388.759 70.9472 388.176C72.2695 387.593 73.6978 387.292 75.1419 387.292C76.586 387.292 78.0144 387.593 79.3366 388.176C80.6589 388.759 81.8463 389.611 82.8236 390.678C83.801 391.745 84.5471 393.005 85.0147 394.376C85.4822 395.748 85.6612 397.202 85.5401 398.647V408.017H88.4795V398.647C88.3584 397.202 88.5374 395.748 89.005 394.376C89.4726 393.005 90.2186 391.745 91.196 390.678C92.1734 389.611 93.3607 388.759 94.683 388.176C96.0053 387.593 97.4336 387.292 98.8777 387.292C100.322 387.292 101.75 387.593 103.072 388.176C104.395 388.759 105.582 389.611 106.559 390.678C107.537 391.745 108.283 393.005 108.75 394.376C109.218 395.748 109.397 397.202 109.276 398.647V408.017H118.462V478.256H134.334V346.927H143.153V335.565H140.581V326.195H153.073V335.565H150.281V346.927H159.246V478.256H165.86L166.521 478.994L188.567 501.128L197.752 510.351V498.472H205.101V454.868H196.503V459.959H193.711V398.5H196.503V403.812H205.174V407.28H196.577V411.706H205.174V415.248H196.577V419.97H205.174V423.437H196.577V427.348H205.174V430.889H196.577V435.316H205.174V438.784H196.577V443.284H205.174V446.752H196.577V451.179H205.174V453.466V391.417H218.402V373.267H227V346.189H347.81C352.481 346.209 356.956 348.081 360.259 351.397C363.562 354.714 365.427 359.206 365.446 363.897V383.08H395.796C400.467 383.099 404.942 384.971 408.245 388.287C411.548 391.604 413.413 396.097 413.432 400.787V426.094H415.71V434.209H423.059V454.499C431.236 457.304 438.347 462.584 443.414 469.613C448.48 476.642 451.253 485.074 451.351 493.75V559.341H507.273V574.097H451.351L353.909 600.953L197.605 574.097V565.981H149.766V573.95H87.0098L55.6315 594.092V408.017H64.7437ZM156.086 352.903L148.738 358.068L156.086 363.306V352.903ZM137.568 443.063L144.916 437.825L137.568 432.586V443.063ZM137.568 395.18L144.916 389.941L137.568 384.703V395.18ZM146.827 388.392L155.645 382.047L146.827 375.702L138.009 382.047L146.827 388.392ZM156.086 384.703L148.738 389.941L156.086 395.18V384.703ZM146.827 391.417L137.862 397.983L146.827 404.476L155.792 397.836L146.827 391.417ZM137.568 400.787V411.19L144.916 406.025L137.568 400.787ZM137.568 379.391L144.916 374.152L137.568 368.914V379.391ZM146.827 372.677L155.792 366.11L146.827 359.617L137.862 366.11L146.827 372.677ZM148.885 374.152L156.233 379.391V368.987L148.885 374.152ZM148.885 406.025L156.233 411.19V400.787L148.885 406.025ZM146.827 407.501L138.009 413.846L146.827 420.265L155.645 413.846L146.827 407.501ZM137.568 416.576V427.348L144.916 422.109L137.568 416.576ZM137.568 429.783L146.533 436.349L155.498 429.783L146.533 423.29L137.568 429.783ZM148.591 437.825L155.939 443.063V432.586L148.591 437.825ZM146.533 439.3L137.715 445.719L146.533 452.064L155.351 445.719L146.533 439.3ZM137.274 448.375V458.852L144.622 453.614L137.274 448.375ZM137.274 363.306L144.622 358.068L137.274 352.903V363.306ZM146.533 356.592L155.351 350.247H137.715L146.533 356.592ZM155.792 416.576L148.444 421.741L155.792 426.979V416.576ZM155.792 448.375L148.444 453.614L155.792 458.852V448.375ZM146.533 455.089L137.347 461.803L146.533 471.026L155.719 461.803L146.533 455.089ZM137.274 465.123V478.256H139.331L144.843 472.723L137.274 465.123ZM143.079 478.256H150.428L146.68 474.494L143.079 478.256ZM156.086 465.123L148.738 472.501L154.249 478.035H156.307L156.086 465.123ZM253.675 459L231.629 487.922L209.584 459V498.472H253.675V459ZM364.27 559.489V493.75C364.285 485.227 366.879 476.91 371.709 469.9C376.538 462.89 383.375 457.52 391.313 454.499V434.062H401.013V425.946H403.144V400.639C403.144 398.683 402.37 396.806 400.992 395.422C399.614 394.039 397.745 393.261 395.796 393.261H326.572C324.623 393.261 322.754 394.039 321.376 395.422C319.998 396.806 319.224 398.683 319.224 400.639V425.946H321.575V434.062H330.467V454.499C338.48 457.451 345.401 462.794 350.301 469.81C355.201 476.827 357.844 485.181 357.877 493.75V493.75V559.341L364.27 559.489ZM264.404 559.489H270.944V493.75C270.96 485.207 273.571 476.872 278.43 469.859C283.288 462.845 290.162 457.487 298.134 454.499V434.062H306.952V425.946H308.936V400.639C308.955 395.949 310.82 391.456 314.123 388.14C317.426 384.823 321.901 382.951 326.572 382.932H355.085V363.602C355.085 361.645 354.311 359.768 352.932 358.384C351.554 357.001 349.685 356.223 347.736 356.223H315.109H235.965V373.267H244.783V391.417H257.717V498.472H264.477L264.404 559.489ZM173.208 546.208H197.605V543.405L171.812 517.581L150.428 496.185H149.766V546.208H173.208Z" fill="#404040"/>
<path d="M379.845 261.412C380.106 259.607 379.882 257.767 379.196 256.075C378.511 254.382 377.387 252.897 375.938 251.768C374.055 250.402 371.707 249.814 369.393 250.128C368.968 247.579 367.639 245.262 365.644 243.59C363.649 241.918 361.117 241 358.5 241C355.883 241 353.351 241.918 351.356 243.59C349.361 245.262 348.032 247.579 347.607 250.128C345.293 249.824 342.95 250.411 341.062 251.768C339.623 252.902 338.513 254.391 337.844 256.084C337.175 257.778 336.971 259.616 337.252 261.412C335.577 261.858 334.08 262.799 332.962 264.109C331.844 265.419 331.16 267.036 331 268.742V269.61C331 274.239 336.373 278 343.114 278H373.886C380.627 278 386 274.239 386 269.61V268.742C385.861 267.044 385.195 265.43 384.094 264.118C382.993 262.807 381.51 261.862 379.845 261.412Z" fill="#404040"/>
<path d="M299.696 197.565C299.916 196.194 299.766 194.79 299.262 193.498C298.757 192.205 297.917 191.07 296.828 190.211C295.386 189.221 293.64 188.778 291.901 188.96C291.581 187.017 290.581 185.25 289.079 183.975C287.577 182.7 285.671 182 283.701 182C281.731 182 279.825 182.7 278.324 183.975C276.822 185.25 275.822 187.017 275.502 188.96C273.763 188.778 272.016 189.221 270.575 190.211C269.489 191.077 268.648 192.21 268.132 193.499C267.616 194.788 267.444 196.189 267.633 197.565C266.38 197.931 265.266 198.668 264.439 199.678C263.613 200.689 263.111 201.926 263 203.227V203.815C263 207.419 267.045 210.287 272.119 210.287H295.063C300.137 210.287 304.182 207.419 304.182 203.815V203.227C304.082 201.944 303.602 200.72 302.803 199.712C302.004 198.703 300.922 197.955 299.696 197.565V197.565Z" fill="#404040"/>
<path d="M233.939 291.066C234.222 288.791 233.924 286.481 233.074 284.353C232.225 282.226 230.85 280.35 229.082 278.904C226.658 277.154 223.674 276.376 220.71 276.721C220.08 273.423 218.327 270.448 215.752 268.309C213.178 266.17 209.943 265 206.603 265C203.264 265 200.029 266.17 197.455 268.309C194.88 270.448 193.127 273.423 192.496 276.721C189.5 276.37 186.481 277.147 184.022 278.904C182.249 280.352 180.866 282.224 179.999 284.349C179.132 286.474 178.81 288.783 179.061 291.066C176.887 291.673 174.949 292.935 173.508 294.681C172.067 296.428 171.192 298.576 171 300.838V301.877C171 308.01 178.028 313 186.606 313H226.291C234.972 313 242 308.01 242 301.877V300.838C241.794 298.581 240.914 296.44 239.475 294.696C238.036 292.952 236.106 291.686 233.939 291.066V291.066Z" fill="#404040"/>
</g>
<circle opacity="0.2" cx="841" cy="270" r="270" fill="#4B0731"/>
<circle cx="841" cy="270" r="243" fill="#936A83"/>
<mask id="mask0" mask-type="alpha" maskUnits="userSpaceOnUse" x="598" y="27" width="487" height="486">
<circle cx="841" cy="270" r="243" fill="#936A83"/>
</mask>
<g mask="url(#mask0)">
<path d="M614.2 398.134L788.055 556.437L836.044 529.899L936.761 610.959L1076.16 517.122L1105.53 531.749L1298.29 398.134H614.2Z" fill="#3C444D"/>
<path d="M1068.28 398.145H598L689.582 341.08L1026.59 341.081L1068.28 398.145Z" fill="#4D5A68"/>
<path d="M766.468 497.012L995.525 398.128H601.324L730.745 516.928L766.468 497.012Z" fill="#627182"/>
<path d="M734.24 178.036C735.579 178.009 736.866 177.519 737.883 176.648C738.571 177.256 739.451 177.604 740.369 177.631C741.291 177.625 742.178 177.274 742.855 176.648C742.988 177.312 743.359 177.903 743.897 178.312C744.436 178.722 745.106 178.92 745.78 178.87C746.455 178.821 747.088 178.526 747.561 178.043C748.033 177.559 748.313 176.919 748.348 176.244C748.356 175.877 748.289 175.513 748.153 175.172C748.016 174.832 747.812 174.523 747.552 174.264C747.293 174.004 746.984 173.8 746.644 173.664C746.304 173.527 745.939 173.461 745.573 173.469H745.283C746.099 172.831 746.729 171.986 747.107 171.022C747.485 170.058 747.597 169.011 747.431 167.989C747.266 166.967 746.829 166.008 746.167 165.212C745.504 164.417 744.64 163.814 743.665 163.466C743.396 162.209 742.715 161.077 741.731 160.25C740.746 159.423 739.515 158.947 738.23 158.899C737.065 158.878 735.926 159.244 734.992 159.939C734.465 159.255 733.792 158.697 733.022 158.307C732.251 157.917 731.403 157.704 730.54 157.684V157.684C730.54 157.019 730.359 156.367 730.014 155.797C729.67 155.228 729.176 154.764 728.587 154.456C727.998 154.147 727.335 154.006 726.671 154.047C726.007 154.088 725.367 154.311 724.821 154.69C724.274 155.07 723.842 155.591 723.571 156.199C723.3 156.806 723.201 157.477 723.284 158.137C723.367 158.797 723.629 159.422 724.042 159.943C724.454 160.465 725.002 160.863 725.626 161.096C725.323 161.768 725.166 162.497 725.163 163.235C725.153 164.655 725.666 166.03 726.604 167.096C727.543 168.163 728.841 168.846 730.251 169.017C729.349 170.014 728.854 171.314 728.863 172.659C728.958 174.054 729.555 175.367 730.544 176.356C731.532 177.344 732.846 177.941 734.24 178.036V178.036Z" fill="#514260"/>
<path d="M719.901 151.904C722.394 151.87 724.793 150.948 726.666 149.302C727.926 150.47 729.574 151.13 731.291 151.152C732.98 151.126 734.603 150.489 735.859 149.36C736.039 150.566 736.646 151.666 737.569 152.462C738.492 153.258 739.67 153.696 740.889 153.696C742.254 153.696 743.562 153.154 744.527 152.189C745.492 151.224 746.035 149.915 746.035 148.551C746.035 147.186 745.492 145.877 744.527 144.912C743.562 143.947 742.254 143.405 740.889 143.405H740.311C741.962 142.323 743.266 140.787 744.064 138.981C744.862 137.176 745.121 135.178 744.81 133.228C744.498 131.279 743.629 129.461 742.307 127.994C740.986 126.527 739.269 125.474 737.362 124.961C737.057 123.256 736.327 121.655 735.238 120.307C734.15 118.959 732.739 117.908 731.136 117.251C729.533 116.594 727.79 116.351 726.069 116.547C724.348 116.743 722.703 117.37 721.289 118.37C720.335 117.094 719.095 116.058 717.67 115.346C716.245 114.633 714.673 114.263 713.079 114.265H712.732C712.724 113.035 712.38 111.83 711.738 110.781C711.096 109.731 710.179 108.877 709.088 108.309C707.996 107.742 706.77 107.483 705.542 107.56C704.314 107.638 703.131 108.048 702.119 108.748C701.107 109.448 700.305 110.411 699.8 111.533C699.295 112.655 699.105 113.893 699.251 115.115C699.397 116.336 699.873 117.495 700.629 118.466C701.385 119.437 702.391 120.183 703.539 120.625C703.005 121.908 702.73 123.283 702.73 124.672C702.735 127.233 703.7 129.698 705.434 131.582C707.168 133.466 709.545 134.631 712.096 134.848C710.798 136.337 709.955 138.167 709.669 140.121C709.383 142.075 709.665 144.071 710.482 145.869C711.299 147.667 712.616 149.192 714.276 150.262C715.936 151.333 717.869 151.902 719.844 151.904H719.901Z" fill="#514260"/>
<path d="M995.289 163.58C997.145 163.592 998.938 162.912 1000.32 161.672C1001.25 162.568 1002.5 163.066 1003.79 163.06C1005.03 163.041 1006.22 162.568 1007.14 161.73C1007.28 162.619 1007.72 163.432 1008.4 164.024C1009.08 164.617 1009.94 164.951 1010.84 164.968C1011.85 164.968 1012.82 164.566 1013.54 163.85C1014.26 163.134 1014.66 162.164 1014.66 161.152C1014.66 160.14 1014.26 159.169 1013.54 158.453C1012.82 157.738 1011.85 157.336 1010.84 157.336H1010.44C1011.49 156.639 1012.35 155.694 1012.94 154.585C1013.54 153.475 1013.85 152.235 1013.85 150.976C1013.83 149.292 1013.25 147.661 1012.21 146.342C1011.16 145.022 1009.7 144.09 1008.07 143.691C1007.77 141.93 1006.85 140.331 1005.49 139.178C1004.12 138.024 1002.4 137.391 1000.61 137.389C999.017 137.387 997.464 137.871 996.156 138.777C995.483 137.866 994.614 137.118 993.613 136.588C992.613 136.058 991.506 135.758 990.375 135.712H990.085C989.953 134.479 989.368 133.338 988.445 132.508C987.522 131.679 986.325 131.221 985.084 131.221C983.843 131.221 982.646 131.679 981.723 132.508C980.8 133.338 980.216 134.479 980.083 135.712C980.099 136.733 980.422 137.726 981.01 138.562C981.597 139.397 982.423 140.036 983.379 140.395C982.963 141.323 982.747 142.328 982.743 143.344C982.749 145.244 983.464 147.072 984.747 148.473C986.03 149.874 987.789 150.745 989.681 150.918C988.704 152.017 988.069 153.377 987.851 154.831C987.634 156.285 987.845 157.771 988.458 159.107C989.071 160.443 990.06 161.572 991.304 162.356C992.547 163.14 993.992 163.546 995.462 163.522L995.289 163.58Z" fill="#9CAAB8"/>
<path d="M760.026 355.014L759.044 337.148L758.176 321.249L757.309 305.06L756.384 289.16L755.401 271.179L754.476 254.701L753.551 238.166L752.626 221.63L751.701 205.384H754.649V195.034H751.123L750.602 186.246H744.185H737.767L737.247 195.034H733.72V205.384H736.668L735.743 221.63L734.818 238.166L733.893 254.701L732.968 271.179L731.985 289.16L731.118 305.06L730.251 321.249L729.383 337.148L728.401 355.014L727.533 370.393H760.836L760.026 355.014Z" fill="#514260"/>
<path d="M820.734 206.597C821.289 206.59 821.822 206.385 822.238 206.019C822.282 206.351 822.422 206.662 822.64 206.917C822.859 207.171 823.146 207.356 823.467 207.451C823.788 207.545 824.13 207.545 824.451 207.449C824.772 207.354 825.059 207.167 825.276 206.912C825.494 206.658 825.633 206.345 825.676 206.013C825.72 205.681 825.667 205.343 825.523 205.041C825.378 204.739 825.15 204.484 824.865 204.309C824.579 204.134 824.249 204.045 823.914 204.053V204.053C824.382 203.744 824.764 203.323 825.027 202.828C825.289 202.333 825.424 201.78 825.418 201.22C825.42 200.474 825.179 199.748 824.73 199.153C824.281 198.558 823.649 198.126 822.931 197.924C822.789 197.055 822.321 196.273 821.623 195.737C820.925 195.2 820.05 194.948 819.173 195.033C818.442 195.042 817.732 195.285 817.15 195.727C816.839 195.298 816.43 194.948 815.958 194.706C815.486 194.465 814.963 194.34 814.432 194.34C814.44 194.041 814.387 193.745 814.277 193.467C814.166 193.19 814.001 192.938 813.79 192.727C813.579 192.516 813.327 192.351 813.05 192.24C812.772 192.13 812.476 192.077 812.177 192.085C811.666 192.11 811.177 192.308 810.793 192.647C810.409 192.987 810.152 193.447 810.065 193.952C809.977 194.457 810.065 194.977 810.312 195.425C810.559 195.874 810.952 196.225 811.426 196.421C811.2 196.915 811.097 197.457 811.127 198C811.157 198.542 811.318 199.069 811.597 199.536C811.876 200.002 812.264 200.394 812.727 200.677C813.191 200.961 813.717 201.127 814.259 201.162C813.713 201.788 813.406 202.587 813.392 203.417C813.392 204.337 813.757 205.219 814.408 205.87C815.058 206.52 815.941 206.886 816.861 206.886C817.691 206.871 818.489 206.564 819.115 206.019C819.564 206.407 820.141 206.613 820.734 206.597Z" fill="#9CAAB8"/>
<path d="M835.304 275.169L834.553 262.565L833.859 249.96L833.165 237.299L832.471 224.868H834.668V217.005H832.009L831.604 210.24H826.689H821.775L821.428 217.005H818.711V224.868H820.966L820.272 237.299L819.578 249.96L818.826 262.565L818.132 275.169L817.381 369.989H825.649H838.195L835.304 275.169Z" fill="#9CAAB8"/>
<path d="M868.015 212.219V204.876C867.92 203.744 868.06 202.604 868.428 201.529C868.796 200.454 869.383 199.467 870.152 198.631C870.921 197.794 871.855 197.127 872.896 196.67C873.936 196.213 875.06 195.978 876.196 195.978C877.332 195.978 878.456 196.213 879.496 196.67C880.537 197.127 881.471 197.794 882.24 198.631C883.009 199.467 883.596 200.454 883.964 201.529C884.332 202.604 884.472 203.744 884.377 204.876V212.219H886.69V204.876C886.594 203.744 886.735 202.604 887.103 201.529C887.471 200.454 888.058 199.467 888.827 198.631C889.596 197.794 890.53 197.127 891.571 196.67C892.611 196.213 893.735 195.978 894.871 195.978C896.007 195.978 897.131 196.213 898.171 196.67C899.211 197.127 900.146 197.794 900.915 198.631C901.684 199.467 902.271 200.454 902.639 201.529C903.006 202.604 903.147 203.744 903.052 204.876V212.219H910.279V267.26H922.768V164.346H929.706V155.442H927.682V148.1H937.511V155.442H935.314V164.346H942.367V267.26H947.571L948.091 267.839L965.436 285.184L972.664 292.411V283.102H978.445V248.932H971.681V252.922H969.484V204.76H971.681V208.923H978.503V211.64H971.739V215.109H978.503V217.885H971.739V221.585H978.503V224.302H971.739V227.367H978.503V230.142H971.739V233.611H978.503V236.328H971.739V239.855H978.503V242.573H971.739V246.042H978.503V247.834V199.21H988.91V184.987H995.675V163.768H1004.56V184.987H1011.5V199.21H1021.67L1021.67 283.102H1026.93V342.365H972.548V336.005H934.909V342.249H885.533L860.846 358.033V212.219H868.015ZM939.881 169.029L934.1 173.077L939.881 177.182V169.029ZM925.311 239.682L931.093 235.577L925.311 231.472V239.682ZM925.311 202.158L931.093 198.053L925.311 193.948V202.158ZM932.596 196.839L939.534 191.867L932.596 186.895L925.658 191.867L932.596 196.839ZM939.881 193.948L934.1 198.053L939.881 202.158V193.948ZM932.596 199.21L925.543 204.356L932.596 209.443L939.65 204.24L932.596 199.21ZM925.311 206.553V214.705L931.093 210.658L925.311 206.553ZM925.311 189.786L931.093 185.681L925.311 181.576V189.786ZM932.596 184.524L939.65 179.379L932.596 174.291L925.543 179.379L932.596 184.524ZM934.215 185.681L939.997 189.786V181.633L934.215 185.681ZM934.215 210.658L939.997 214.705V206.553L934.215 210.658ZM932.596 211.814L925.658 216.786L932.596 221.816L939.534 216.786L932.596 211.814ZM925.311 218.925V227.367L931.093 223.262L925.311 218.925ZM925.311 229.275L932.365 234.42L939.419 229.275L932.365 224.187L925.311 229.275ZM933.984 235.577L939.766 239.682V231.472L933.984 235.577ZM932.365 236.733L925.427 241.763L932.365 246.735L939.303 241.763L932.365 236.733ZM925.08 243.845V252.055L930.862 247.95L925.08 243.845ZM925.08 177.182L930.862 173.077L925.08 169.029V177.182ZM932.365 171.92L939.303 166.948H925.427L932.365 171.92ZM939.65 218.925L933.868 222.973L939.65 227.078V218.925ZM939.65 243.845L933.868 247.95L939.65 252.055V243.845ZM932.365 249.106L925.138 254.367L932.365 261.594L939.592 254.367L932.365 249.106ZM925.08 256.969V267.26H926.699L931.035 262.924L925.08 256.969ZM929.648 267.26H935.429L932.481 264.312L929.648 267.26ZM939.881 256.969L934.1 262.751L938.436 267.087H940.055L939.881 256.969ZM1016.66 252.17L999.317 274.834L981.972 252.17V283.102H1016.66V252.17ZM953.353 320.51H972.548V318.313L952.254 298.077L935.429 281.31H934.909V320.51H953.353Z" fill="#514260"/>
<path d="M894.509 210.355H888.669H882.887L877.626 317.663H888.669H899.77L894.509 210.355Z" fill="#F7B23F"/>
<path d="M926.771 210.355H920.931H915.149L909.888 317.663H920.931H932.032L926.771 210.355Z" fill="#F7B23F"/>
<path d="M958.339 210.355H952.499H946.718L941.456 317.663H952.499H963.6L958.339 210.355Z" fill="#F7B23F"/>
<path d="M906.477 228.973L874.331 277.944V369.989H906.477V228.973Z" fill="#8C9AA8"/>
<path d="M938.623 228.973L906.477 277.944V369.989H938.623V228.973Z" fill="#8C9AA8"/>
<path d="M970.769 228.973L938.623 277.944V369.989H970.769V228.973Z" fill="#8C9AA8"/>
<path d="M883.176 200.816C883.176 201.742 882.902 202.648 882.387 203.418C881.873 204.188 881.141 204.788 880.285 205.143C879.43 205.497 878.488 205.59 877.58 205.409C876.671 205.228 875.837 204.782 875.182 204.128C874.527 203.473 874.081 202.638 873.9 201.73C873.719 200.821 873.812 199.88 874.167 199.024C874.521 198.168 875.121 197.437 875.891 196.922C876.662 196.407 877.567 196.133 878.493 196.133C879.108 196.133 879.717 196.254 880.285 196.489C880.854 196.725 881.37 197.07 881.805 197.504C882.24 197.939 882.585 198.456 882.82 199.024C883.055 199.592 883.176 200.201 883.176 200.816V200.816Z" fill="#9CAAB8"/>
<path d="M889.884 197.924C889.884 199.166 889.39 200.358 888.512 201.236C887.634 202.114 886.442 202.608 885.2 202.608C883.958 202.608 882.767 202.114 881.889 201.236C881.011 200.358 880.517 199.166 880.517 197.924C880.517 196.682 881.011 195.491 881.889 194.613C882.767 193.735 883.958 193.241 885.2 193.241C886.442 193.241 887.634 193.735 888.512 194.613C889.39 195.491 889.884 196.682 889.884 197.924V197.924Z" fill="#9CAAB8"/>
<path d="M886.877 202.088C886.877 202.937 886.544 203.752 885.949 204.358C885.355 204.963 884.546 205.311 883.697 205.326C883.054 205.338 882.423 205.157 881.883 204.809C881.343 204.46 880.919 203.958 880.665 203.368C880.411 202.777 880.339 202.125 880.457 201.493C880.575 200.861 880.879 200.279 881.329 199.82C881.78 199.362 882.357 199.047 882.986 198.918C883.616 198.788 884.27 198.849 884.865 199.092C885.46 199.335 885.969 199.75 886.327 200.284C886.686 200.817 886.877 201.446 886.877 202.088V202.088Z" fill="#9CAAB8"/>
<path d="M880.054 193.185C880.054 193.8 879.933 194.409 879.698 194.977C879.463 195.546 879.118 196.062 878.683 196.497C878.248 196.932 877.732 197.276 877.163 197.512C876.595 197.747 875.986 197.868 875.371 197.868C874.756 197.868 874.147 197.747 873.579 197.512C873.011 197.276 872.495 196.932 872.06 196.497C871.625 196.062 871.28 195.546 871.045 194.977C870.809 194.409 870.688 193.8 870.688 193.185C870.688 191.943 871.182 190.752 872.06 189.874C872.938 188.995 874.129 188.502 875.371 188.502C876.613 188.502 877.805 188.995 878.683 189.874C879.561 190.752 880.054 191.943 880.054 193.185V193.185Z" fill="#9CAAB8"/>
<path d="M886.53 194.224C886.53 195.466 886.037 196.657 885.158 197.536C884.28 198.414 883.089 198.907 881.847 198.907C880.605 198.907 879.414 198.414 878.535 197.536C877.657 196.657 877.164 195.466 877.164 194.224C877.164 193.609 877.285 193 877.52 192.432C877.755 191.864 878.1 191.348 878.535 190.913C878.97 190.478 879.486 190.133 880.055 189.897C880.623 189.662 881.232 189.541 881.847 189.541C882.462 189.541 883.071 189.662 883.639 189.897C884.207 190.133 884.723 190.478 885.158 190.913C885.593 191.348 885.938 191.864 886.174 192.432C886.409 193 886.53 193.609 886.53 194.224V194.224Z" fill="#9CAAB8"/>
<path d="M875.198 188.5C875.198 189.313 874.875 190.092 874.3 190.667C873.726 191.241 872.946 191.564 872.134 191.564C871.321 191.564 870.541 191.241 869.967 190.667C869.392 190.092 869.069 189.313 869.069 188.5C869.069 187.687 869.392 186.908 869.967 186.333C870.541 185.758 871.321 185.436 872.134 185.436C872.946 185.436 873.726 185.758 874.3 186.333C874.875 186.908 875.198 187.687 875.198 188.5V188.5Z" fill="#9CAAB8"/>
<path d="M890.404 204.11C890.457 204.449 890.437 204.795 890.344 205.124C890.25 205.454 890.087 205.759 889.864 206.02C889.642 206.28 889.366 206.489 889.054 206.632C888.743 206.776 888.405 206.85 888.062 206.85C887.72 206.85 887.381 206.776 887.07 206.632C886.759 206.489 886.483 206.28 886.26 206.02C886.038 205.759 885.874 205.454 885.781 205.124C885.688 204.795 885.667 204.449 885.721 204.11C885.809 203.552 886.093 203.044 886.522 202.677C886.951 202.311 887.498 202.109 888.062 202.109C888.627 202.109 889.173 202.311 889.603 202.677C890.032 203.044 890.316 203.552 890.404 204.11V204.11Z" fill="#9CAAB8"/>
<path d="M915.323 201.219C915.323 201.834 915.202 202.443 914.967 203.011C914.731 203.58 914.386 204.096 913.951 204.531C913.517 204.966 913 205.311 912.432 205.546C911.864 205.781 911.255 205.902 910.64 205.902C909.398 205.902 908.207 205.409 907.328 204.531C906.45 203.653 905.957 202.461 905.957 201.219C905.957 199.977 906.45 198.786 907.328 197.908C908.207 197.03 909.398 196.536 910.64 196.536C911.882 196.536 913.073 197.03 913.951 197.908C914.83 198.786 915.323 199.977 915.323 201.219V201.219Z" fill="#9CAAB8"/>
<path d="M922.03 198.215C922.018 199.138 921.734 200.038 921.213 200.801C920.691 201.563 919.956 202.154 919.099 202.5C918.242 202.845 917.303 202.93 916.398 202.743C915.493 202.556 914.664 202.105 914.015 201.448C913.366 200.791 912.926 199.956 912.75 199.049C912.574 198.143 912.67 197.204 913.026 196.352C913.382 195.499 913.982 194.771 914.751 194.259C915.52 193.747 916.423 193.474 917.347 193.474C917.967 193.474 918.58 193.597 919.152 193.836C919.724 194.075 920.243 194.425 920.679 194.866C921.114 195.307 921.458 195.83 921.69 196.405C921.922 196.98 922.037 197.595 922.03 198.215V198.215Z" fill="#9CAAB8"/>
<path d="M919.023 202.378C919.023 203.221 918.688 204.03 918.092 204.626C917.496 205.223 916.687 205.558 915.843 205.558C915 205.558 914.191 205.223 913.595 204.626C912.999 204.03 912.663 203.221 912.663 202.378C912.663 201.534 912.999 200.725 913.595 200.129C914.191 199.533 915 199.198 915.843 199.198C916.687 199.198 917.496 199.533 918.092 200.129C918.688 200.725 919.023 201.534 919.023 202.378Z" fill="#9CAAB8"/>
<path d="M912.201 193.473C912.201 194.715 911.707 195.906 910.829 196.784C909.951 197.663 908.76 198.156 907.518 198.156C906.275 198.156 905.084 197.663 904.206 196.784C903.328 195.906 902.834 194.715 902.834 193.473C902.834 192.231 903.328 191.039 904.206 190.161C905.084 189.283 906.275 188.79 907.518 188.79C908.76 188.79 909.951 189.283 910.829 190.161C911.707 191.039 912.201 192.231 912.201 193.473V193.473Z" fill="#9CAAB8"/>
<path d="M913.993 199.197C916.58 199.197 918.676 197.101 918.676 194.514C918.676 191.928 916.58 189.831 913.993 189.831C911.407 189.831 909.31 191.928 909.31 194.514C909.31 197.101 911.407 199.197 913.993 199.197Z" fill="#9CAAB8"/>
<path d="M907.344 188.791C907.344 189.604 907.022 190.383 906.447 190.958C905.872 191.532 905.093 191.855 904.28 191.855C903.467 191.855 902.688 191.532 902.113 190.958C901.539 190.383 901.216 189.604 901.216 188.791C901.216 187.978 901.539 187.199 902.113 186.624C902.688 186.049 903.467 185.727 904.28 185.727C904.683 185.727 905.081 185.806 905.453 185.96C905.825 186.114 906.162 186.34 906.447 186.624C906.731 186.909 906.957 187.246 907.111 187.618C907.265 187.99 907.344 188.388 907.344 188.791V188.791Z" fill="#9CAAB8"/>
<path d="M922.55 204.4C922.603 204.739 922.583 205.084 922.489 205.414C922.396 205.744 922.233 206.049 922.01 206.309C921.788 206.57 921.511 206.779 921.2 206.922C920.889 207.066 920.551 207.14 920.208 207.14C919.866 207.14 919.527 207.066 919.216 206.922C918.905 206.779 918.629 206.57 918.406 206.309C918.184 206.049 918.02 205.744 917.927 205.414C917.834 205.084 917.813 204.739 917.867 204.4C917.813 204.062 917.834 203.716 917.927 203.386C918.02 203.057 918.184 202.751 918.406 202.491C918.629 202.231 918.905 202.022 919.216 201.878C919.527 201.735 919.866 201.661 920.208 201.661C920.551 201.661 920.889 201.735 921.2 201.878C921.511 202.022 921.788 202.231 922.01 202.491C922.233 202.751 922.396 203.057 922.489 203.386C922.583 203.716 922.603 204.062 922.55 204.4V204.4Z" fill="#9CAAB8"/>
<path d="M946.37 201.51C946.37 202.752 945.877 203.944 944.999 204.822C944.12 205.7 942.929 206.193 941.687 206.193C940.445 206.193 939.254 205.7 938.376 204.822C937.497 203.944 937.004 202.752 937.004 201.51C937.004 200.268 937.497 199.077 938.376 198.199C939.254 197.321 940.445 196.827 941.687 196.827C942.929 196.827 944.12 197.321 944.999 198.199C945.877 199.077 946.37 200.268 946.37 201.51V201.51Z" fill="#9CAAB8"/>
<path d="M952.904 198.447C952.904 199.704 952.404 200.91 951.515 201.799C950.626 202.688 949.42 203.188 948.163 203.188C947.225 203.188 946.309 202.909 945.529 202.389C944.749 201.868 944.142 201.127 943.783 200.261C943.424 199.395 943.33 198.441 943.513 197.522C943.696 196.602 944.147 195.757 944.811 195.094C945.474 194.431 946.318 193.98 947.238 193.797C948.158 193.614 949.111 193.708 949.977 194.066C950.844 194.425 951.584 195.033 952.105 195.813C952.626 196.592 952.904 197.509 952.904 198.447V198.447Z" fill="#9CAAB8"/>
<path d="M949.839 202.668C949.847 203.087 949.77 203.504 949.613 203.894C949.456 204.283 949.222 204.637 948.926 204.934C948.629 205.231 948.275 205.465 947.886 205.622C947.496 205.779 947.079 205.856 946.66 205.848C945.816 205.848 945.007 205.513 944.411 204.916C943.815 204.32 943.48 203.511 943.48 202.668C943.48 201.824 943.815 201.016 944.411 200.419C945.007 199.823 945.816 199.488 946.66 199.488C947.503 199.488 948.312 199.823 948.908 200.419C949.504 201.016 949.839 201.824 949.839 202.668V202.668Z" fill="#9CAAB8"/>
<path d="M943.075 193.764C943.06 195.011 942.554 196.202 941.666 197.079C940.779 197.955 939.581 198.447 938.334 198.447C937.092 198.447 935.901 197.954 935.023 197.075C934.144 196.197 933.651 195.006 933.651 193.764C933.651 192.522 934.144 191.331 935.023 190.452C935.901 189.574 937.092 189.081 938.334 189.081C939.581 189.08 940.779 189.572 941.666 190.449C942.554 191.325 943.06 192.516 943.075 193.764V193.764Z" fill="#9CAAB8"/>
<path d="M949.493 195.035C949.493 195.961 949.218 196.866 948.703 197.637C948.189 198.407 947.457 199.007 946.602 199.361C945.746 199.716 944.804 199.809 943.896 199.628C942.987 199.447 942.153 199.001 941.498 198.346C940.843 197.691 940.397 196.857 940.216 195.948C940.036 195.04 940.128 194.098 940.483 193.243C940.837 192.387 941.438 191.655 942.208 191.141C942.978 190.626 943.883 190.352 944.81 190.352C946.047 190.367 947.229 190.865 948.104 191.74C948.98 192.615 949.478 193.797 949.493 195.035Z" fill="#9CAAB8"/>
<path d="M938.16 189.255C938.16 190.068 937.838 190.847 937.263 191.422C936.688 191.997 935.909 192.32 935.096 192.32C934.283 192.32 933.504 191.997 932.929 191.422C932.355 190.847 932.032 190.068 932.032 189.255C932.032 188.443 932.355 187.663 932.929 187.088C933.504 186.514 934.283 186.191 935.096 186.191C935.909 186.191 936.688 186.514 937.263 187.088C937.838 187.663 938.16 188.443 938.16 189.255V189.255Z" fill="#9CAAB8"/>
<path d="M953.366 204.69C953.278 205.248 952.994 205.756 952.565 206.123C952.136 206.49 951.589 206.692 951.025 206.692C950.46 206.692 949.914 206.49 949.485 206.123C949.055 205.756 948.771 205.248 948.683 204.69C948.63 204.352 948.65 204.006 948.744 203.676C948.837 203.347 949 203.041 949.223 202.781C949.445 202.521 949.722 202.312 950.033 202.168C950.344 202.025 950.682 201.951 951.025 201.951C951.367 201.951 951.706 202.025 952.017 202.168C952.328 202.312 952.604 202.521 952.827 202.781C953.049 203.041 953.213 203.347 953.306 203.676C953.399 204.006 953.42 204.352 953.366 204.69V204.69Z" fill="#9CAAB8"/>
<path d="M741.583 271.99H739.444V359.929H741.583V271.99Z" fill="#F19B2C"/>
<path d="M748.348 350.852H740.485V352.991H748.348V350.852Z" fill="#F19B2C"/>
<path d="M748.348 342.757H740.485V344.896H748.348V342.757Z" fill="#F19B2C"/>
<path d="M748.348 334.663H740.485V336.802H748.348V334.663Z" fill="#F19B2C"/>
<path d="M748.348 326.567H740.485V328.707H748.348V326.567Z" fill="#F19B2C"/>
<path d="M748.348 318.53H740.485V320.669H748.348V318.53Z" fill="#F19B2C"/>
<path d="M748.348 310.437H740.485V312.576H748.348V310.437Z" fill="#F19B2C"/>
<path d="M748.348 302.344H740.485V304.483H748.348V302.344Z" fill="#F19B2C"/>
<path d="M748.348 294.249H740.485V296.388H748.348V294.249Z" fill="#F19B2C"/>
<path d="M748.348 286.153H740.485V288.292H748.348V286.153Z" fill="#F19B2C"/>
<path d="M748.348 278.06H740.485V280.199H748.348V278.06Z" fill="#F19B2C"/>
<path d="M683.94 246.954H681.8V334.894H683.94V246.954Z" fill="#F19B2C"/>
<path d="M690.762 325.817H682.898V327.956H690.762V325.817Z" fill="#F19B2C"/>
<path d="M690.762 317.724H682.898V319.863H690.762V317.724Z" fill="#F19B2C"/>
<path d="M690.762 309.626H682.898V311.765H690.762V309.626Z" fill="#F19B2C"/>
<path d="M690.762 301.533H682.898V303.672H690.762V301.533Z" fill="#F19B2C"/>
<path d="M690.762 293.439H682.898V295.579H690.762V293.439Z" fill="#F19B2C"/>
<path d="M690.762 285.346H682.898V287.485H690.762V285.346Z" fill="#F19B2C"/>
<path d="M690.762 277.25H682.898V279.389H690.762V277.25Z" fill="#F19B2C"/>
<path d="M690.762 269.155H682.898V271.352H690.762V269.155Z" fill="#F19B2C"/>
<path d="M690.762 261.12H682.898V263.259H690.762V261.12Z" fill="#F19B2C"/>
<path d="M690.762 253.024H682.898V255.163H690.762V253.024Z" fill="#F19B2C"/>
<path d="M725.278 329.979H717.415V332.292H725.278V329.979Z" fill="#F19B2C"/>
<path d="M725.278 321.421H717.415V323.734H725.278V321.421Z" fill="#F19B2C"/>
<path d="M725.278 312.809H717.415V315.121H725.278V312.809Z" fill="#F19B2C"/>
<path d="M725.278 304.25H717.415V306.563H725.278V304.25Z" fill="#F19B2C"/>
<path d="M725.278 295.636H717.415V297.948H725.278V295.636Z" fill="#F19B2C"/>
<path d="M725.278 287.08H717.415V289.392H725.278V287.08Z" fill="#F19B2C"/>
<path d="M725.278 278.465H717.415V280.778H725.278V278.465Z" fill="#F19B2C"/>
<path d="M725.278 269.908H717.415V272.221H725.278V269.908Z" fill="#F19B2C"/>
<path d="M725.278 261.292H717.415V263.605H725.278V261.292Z" fill="#F19B2C"/>
<path d="M725.278 252.736H717.415V255.049H725.278V252.736Z" fill="#F19B2C"/>
<path d="M840.848 164.328L839.222 166.578L864.385 184.766L866.011 182.516L840.848 164.328Z" fill="#D6741D"/>
<path d="M864.367 182.489L839.201 200.673L840.826 202.922L865.992 184.739L864.367 182.489Z" fill="#D6741D"/>
<path d="M840.835 200.665L839.21 202.914L864.372 221.102L865.998 218.853L840.835 200.665Z" fill="#D6741D"/>
<path d="M840.797 239.323L839.178 237.068L864.328 218.856L865.947 221.111L840.797 239.323Z" fill="#D6741D"/>
<path d="M840.81 236.991L839.185 239.24L864.35 257.424L865.976 255.174L840.81 236.991Z" fill="#D6741D"/>
<path d="M864.353 255.202L839.187 273.386L840.813 275.635L865.978 257.452L864.353 255.202Z" fill="#D6741D"/>
<path d="M840.809 273.396L839.183 275.646L864.346 293.833L865.972 291.584L840.809 273.396Z" fill="#D6741D"/>
<path d="M864.154 291.78L838.557 317.368L840.519 319.33L866.116 293.742L864.154 291.78Z" fill="#D6741D"/>
<path d="M864.144 164.32L838.966 182.486L840.59 184.737L865.768 166.571L864.144 164.32Z" fill="#D6741D"/>
<path d="M840.549 182.435L838.924 184.684L864.09 202.868L865.715 200.618L840.549 182.435Z" fill="#D6741D"/>
<path d="M864.113 200.645L838.953 218.837L840.579 221.086L865.739 202.894L864.113 200.645Z" fill="#D6741D"/>
<path d="M840.583 218.841L838.956 221.089L864.113 239.286L865.739 237.037L840.583 218.841Z" fill="#D6741D"/>
<path d="M864.147 237.062L838.969 255.228L840.593 257.479L865.771 239.313L864.147 237.062Z" fill="#D6741D"/>
<path d="M840.588 255.214L838.963 257.464L864.129 275.647L865.754 273.398L840.588 255.214Z" fill="#D6741D"/>
<path d="M864.12 273.34L838.973 291.55L840.6 293.798L865.747 275.588L864.12 273.34Z" fill="#D6741D"/>
<path d="M864.386 319.284L838.773 293.671L840.739 291.763L866.352 317.318L864.386 319.284Z" fill="#D6741D"/>
<path d="M918.85 388.769H909.946V403.974H918.85V388.769Z" fill="#D6741D"/>
<path d="M946.371 393.337H877.511C869.069 393.337 862.42 388.192 862.42 381.774C862.42 375.356 868.78 370.731 877.511 370.731V379.288C873.29 379.288 870.977 380.965 870.977 381.774C870.977 382.583 873.464 384.896 877.511 384.896H946.371V393.337Z" fill="#D6741D"/>
<path d="M835.825 393.336H709.321V384.779H835.825C839.872 384.779 842.416 382.756 842.416 381.657C842.416 380.559 839.872 378.593 835.825 378.593V370.036C844.324 370.036 850.915 375.124 850.915 381.6C850.915 388.075 844.324 393.336 835.825 393.336Z" fill="#D6741D"/>
<path d="M946.371 408.02H820.272V399.463H946.371C950.418 399.463 952.904 397.498 952.904 396.399C952.904 395.301 950.418 393.335 946.371 393.335V384.778C954.87 384.778 961.461 389.866 961.461 396.341C961.461 402.817 955.043 408.02 946.371 408.02Z" fill="#D6741D"/>
<path d="M836.518 408.021H710.304C701.805 408.021 695.156 402.933 695.156 396.457C695.156 389.982 701.805 384.894 710.304 384.894V393.335C706.199 393.335 703.77 395.301 703.77 396.4C703.77 397.498 706.199 399.464 710.304 399.464H836.518V408.021Z" fill="#D6741D"/>
<path d="M976.609 320.326C985.05 320.326 991.699 315.238 991.699 308.762C991.25 305.319 989.478 302.186 986.758 300.027C984.038 297.869 980.584 296.854 977.129 297.199V297.199C973.082 297.199 970.596 295.233 970.596 294.135C970.596 293.036 973.082 291.013 977.129 291.013C985.57 291.013 992.219 285.925 992.219 279.449C992.219 272.974 985.57 267.886 977.129 267.886H940.994C938.157 267.886 935.436 269.013 933.43 271.019C931.424 273.024 930.297 275.745 930.297 278.582V285.404H920.411C917.574 285.404 914.853 286.531 912.847 288.537C910.841 290.543 909.715 293.264 909.715 296.1V304.426H896.243C893.416 304.426 890.705 305.545 888.7 307.538C886.696 309.532 885.562 312.238 885.547 315.064V325.645H894.335V314.833C894.335 314.266 894.561 313.722 894.962 313.32C895.363 312.919 895.907 312.694 896.474 312.694H931.338C931.905 312.694 932.45 312.919 932.851 313.32C933.252 313.722 933.477 314.266 933.477 314.833V325.414H942.034V314.833C942.019 312.006 940.885 309.301 938.881 307.307C936.877 305.314 934.165 304.195 931.338 304.195H918.271V295.869C918.286 295.306 918.516 294.771 918.914 294.373C919.312 293.975 919.848 293.745 920.411 293.73H938.796V288.931V278.351C938.796 277.783 939.022 277.239 939.423 276.838C939.824 276.437 940.368 276.211 940.936 276.211H977.071C981.119 276.211 983.605 278.235 983.605 279.276C983.605 280.316 981.119 282.34 977.071 282.34C968.572 282.34 961.923 287.486 961.923 293.903C961.923 300.321 968.341 305.467 976.551 305.467C980.598 305.467 983.084 307.433 983.084 308.531C983.084 309.63 980.598 311.595 976.551 311.595C968.052 311.595 961.403 316.741 961.403 323.159C961.403 329.576 968.052 334.722 976.551 334.722C980.598 334.722 983.084 336.688 983.084 337.786C983.084 338.885 980.598 340.851 976.551 340.851C968.052 340.851 961.403 345.996 961.403 352.414C961.403 358.832 968.052 363.978 976.551 363.978C980.598 363.978 983.084 365.943 983.084 367.042C983.084 368.14 980.598 370.106 976.551 370.106H877.51V378.663H976.609C985.05 378.663 991.699 373.575 991.699 367.1C991.699 360.624 985.05 355.536 976.609 355.536C972.504 355.536 970.018 353.513 970.018 352.472C970.018 351.431 972.504 349.35 976.609 349.35C985.05 349.35 991.699 344.262 991.699 337.786C991.699 331.311 985.05 326.223 976.609 326.223C972.504 326.223 970.018 324.199 970.018 323.159C970.018 322.118 972.504 320.326 976.609 320.326Z" fill="#D6741D"/>
<path d="M746.844 374.085H737.94V389.291H746.844V374.085Z" fill="#D6741D"/>
<path d="M835.824 370.034L983.662 369.977L978.864 378.591H835.824V370.034Z" fill="#D6741D"/>
<path d="M827.499 386.108H818.595V401.314H827.499V386.108Z" fill="#D6741D"/>
<path d="M675.382 370.047C671.277 370.047 668.791 368.081 668.791 366.983C668.791 365.884 671.277 363.918 675.382 363.918H688.218V355.361H675.382C666.883 355.361 660.234 360.449 660.234 366.925C660.234 373.4 666.883 378.488 675.382 378.488H801.828V370.047H675.382Z" fill="#D6741D"/>
<path d="M835.825 370.036H801.597V378.593H835.825V370.036Z" fill="#D6741D"/>
<path d="M717.994 218.16C717.994 214.204 716.422 210.41 713.625 207.613C710.827 204.815 707.033 203.244 703.077 203.244C699.121 203.244 695.327 204.815 692.529 207.613C689.732 210.41 688.16 214.204 688.16 218.16V369.988H717.994V218.16Z" fill="#F8BE49"/>
<path d="M795.006 270.601C795.006 264.421 792.551 258.495 788.181 254.125C783.812 249.756 777.885 247.301 771.706 247.301C765.526 247.301 759.6 249.756 755.23 254.125C750.86 258.495 748.405 264.421 748.405 270.601V370.046H795.006V270.601Z" fill="#F8BE49"/>
<path d="M729.21 370.046L723.024 370.624V196.132C723.288 193.496 722.52 190.861 720.881 188.78C719.242 186.699 716.86 185.334 714.235 184.974C711.59 185.307 709.179 186.66 707.516 188.744C705.854 190.828 705.07 193.479 705.332 196.132V205.383H699.203V196.132C698.916 191.843 700.335 187.615 703.15 184.366C705.965 181.118 709.949 179.113 714.235 178.787C718.511 179.127 722.481 181.139 725.284 184.385C728.087 187.632 729.497 191.853 729.21 196.132V370.046Z" fill="#F8BE49"/>
<path d="M822.931 285.577H795.006V289.219H822.931V285.577Z" fill="#F19B2C"/>
<path d="M822.931 297.429H795.006V301.071H822.931V297.429Z" fill="#F19B2C"/>
<path d="M822.931 309.223H795.006V312.865H822.931V309.223Z" fill="#F19B2C"/>
<path d="M822.931 321.075H795.006V324.775H822.931V321.075Z" fill="#F19B2C"/>
<path d="M822.931 332.928H795.006V336.629H822.931V332.928Z" fill="#F19B2C"/>
<path d="M866.757 162.715H863.114V318.532H866.757V162.715Z" fill="#D6741D"/>
<path d="M822.931 344.779H795.006V348.421H822.931V344.779Z" fill="#F19B2C"/>
<path d="M866.757 161.675H838.195V165.433H866.757V161.675Z" fill="#D6741D"/>
<path d="M841.837 162.715H838.195V318.532H841.837V162.715Z" fill="#D6741D"/>
<path d="M856.754 145.139H848.487V164.16H856.754V145.139Z" fill="#D6741D"/>
<path d="M859.645 137.969H845.307V148.665H859.645V137.969Z" fill="#D6741D"/>
<path d="M898.151 325.411H881.731V370.046H898.151V325.411Z" fill="white"/>
<path d="M901.158 329.747H878.262V335.413H901.158V329.747Z" fill="#D6741D"/>
<path d="M901.158 345.474H878.262V351.14H901.158V345.474Z" fill="#D6741D"/>
<path d="M901.158 361.143H878.262V366.866H901.158V361.143Z" fill="#D6741D"/>
<path d="M814.606 370.105H804.835V238.282C804.835 228.453 798.475 220.474 790.727 220.474C782.98 220.474 776.562 228.453 776.562 238.282V252.852H766.791V238.282C766.791 223.076 777.487 210.703 790.727 210.703C803.967 210.703 814.606 223.076 814.606 238.282V370.105Z" fill="#F8BE49"/>
<path d="M717.994 239.439H688.16V246.956H717.994V239.439Z" fill="#F19B2C"/>
<path d="M717.994 263.895H688.16V271.411H717.994V263.895Z" fill="#F19B2C"/>
<path d="M717.994 289.334H688.16V296.85H717.994V289.334Z" fill="#F19B2C"/>
<path d="M717.994 319.572H688.16V327.088H717.994V319.572Z" fill="#F19B2C"/>
<path d="M947.989 362.702C951.349 361.186 954.215 358.755 956.26 355.689C958.304 352.622 959.445 349.041 959.553 345.357C959.401 340.892 957.767 336.605 954.909 333.172C952.051 329.738 948.132 327.353 943.769 326.393V321.189H931.916V326.509C927.638 327.523 923.813 329.919 921.033 333.326C918.253 336.734 916.673 340.962 916.537 345.357C916.576 348.998 917.637 352.555 919.6 355.621C921.563 358.688 924.348 361.142 927.638 362.702L921.856 364.841L921.162 370.623H923.822L924.921 366.287L931.454 364.437C933.033 364.927 934.662 365.237 936.31 365.362V365.651L936.773 370.623H938.276L938.739 365.651C940.69 365.65 942.634 365.397 944.52 364.899L950.302 366.518L951.343 370.854H954.06L953.366 365.073L947.989 362.702Z" fill="white"/>
<path d="M934.923 333.16H932.784V355.304H934.923V333.16Z" fill="#F19B2C"/>
<path d="M943.48 333.16H941.341V355.304H943.48V333.16Z" fill="#F19B2C"/>
<path d="M942.439 337.729H933.478V339.347H942.439V337.729Z" fill="#F19B2C"/>
<path d="M942.439 343.509H933.478V345.128H942.439V343.509Z" fill="#F19B2C"/>
<path d="M942.439 349.232H933.478V350.851H942.439V349.232Z" fill="#F19B2C"/>
<path d="M872.134 315.989H834.148V370.048H872.134V315.989Z" fill="#4D5A68"/>
<path d="M767.601 258.575H764.883V286.79H767.601V258.575Z" fill="#F19B2C"/>
<path d="M778.47 258.575H775.753V286.79H778.47V258.575Z" fill="#F19B2C"/>
<path d="M777.14 264.415H765.751V266.438H777.14V264.415Z" fill="#F19B2C"/>
<path d="M777.14 271.758H765.751V273.781H777.14V271.758Z" fill="#F19B2C"/>
<path d="M777.14 279.042H765.751V281.065H777.14V279.042Z" fill="#F19B2C"/>
<path d="M767.601 286.731H764.883V314.946H767.601V286.731Z" fill="#F19B2C"/>
<path d="M778.47 286.731H775.753V314.946H778.47V286.731Z" fill="#F19B2C"/>
<path d="M777.14 292.572H765.751V294.595H777.14V292.572Z" fill="#F19B2C"/>
<path d="M777.14 299.915H765.751V301.939H777.14V299.915Z" fill="#F19B2C"/>
<path d="M777.14 307.258H765.751V309.282H777.14V307.258Z" fill="#F19B2C"/>
<path d="M778.528 285.577H764.883V288.005H778.528V285.577Z" fill="#F19B2C"/>
<path d="M767.601 313.616H764.883V341.83H767.601V313.616Z" fill="#F19B2C"/>
<path d="M778.47 313.616H775.753V341.83H778.47V313.616Z" fill="#F19B2C"/>
<path d="M777.14 319.457H765.751V321.481H777.14V319.457Z" fill="#F19B2C"/>
<path d="M777.14 326.799H765.751V328.823H777.14V326.799Z" fill="#F19B2C"/>
<path d="M777.14 334.143H765.751V336.166H777.14V334.143Z" fill="#F19B2C"/>
<path d="M767.601 341.833H764.883V370.047H767.601V341.833Z" fill="#F19B2C"/>
<path d="M778.47 341.833H775.753V370.047H778.47V341.833Z" fill="#F19B2C"/>
<path d="M777.14 347.67H765.751V349.694H777.14V347.67Z" fill="#F19B2C"/>
<path d="M777.14 355.013H765.751V357.037H777.14V355.013Z" fill="#F19B2C"/>
<path d="M777.14 362.348H765.751V364.371H777.14V362.348Z" fill="#F19B2C"/>
<path d="M778.528 340.618H764.883V343.104H778.528V340.618Z" fill="#F19B2C"/>
<path d="M777.487 312.925H765.982V315.237H777.487V312.925Z" fill="#F19B2C"/>
<path d="M674.631 553.778C661.566 553.763 649.039 548.57 639.795 539.336C630.551 530.103 625.344 517.583 625.313 504.518V500.181C625.344 487.116 630.551 474.596 639.795 465.363C649.039 456.13 661.566 450.937 674.631 450.921H730.482L728.227 465.029H674.631C665.398 465.028 656.539 468.672 649.978 475.168C643.417 481.664 639.685 490.487 639.594 499.719V504.055C639.685 513.287 643.417 522.11 649.978 528.606C656.539 535.102 665.398 538.746 674.631 538.745H715.103V553.084L674.631 553.778Z" fill="#D6741D"/>
<path d="M764.016 404.44C764.618 406.94 764.929 409.501 764.941 412.072V416.35C764.941 425.551 761.286 434.374 754.781 440.88C748.275 447.386 739.451 451.04 730.251 451.04H690.473V464.974H730.251C743.107 464.944 755.427 459.823 764.518 450.733C773.608 441.642 778.729 429.322 778.759 416.466V412.187C778.754 409.63 778.541 407.078 778.123 404.556L764.016 404.44Z" fill="#D6741D"/>
<path d="M795.41 93.3349C795.26 92.0556 795.453 90.7593 795.972 89.5801C796.49 88.401 797.314 87.3818 798.359 86.6281C799.833 85.676 801.584 85.2483 803.331 85.4139C803.799 83.5528 804.876 81.9012 806.389 80.7212C807.903 79.5412 809.767 78.9004 811.686 78.9004C813.605 78.9004 815.469 79.5412 816.983 80.7212C818.496 81.9012 819.572 83.5528 820.04 85.4139C821.805 85.2486 823.575 85.6758 825.07 86.6281C826.109 87.3844 826.925 88.4059 827.434 89.5858C827.942 90.7656 828.125 92.0605 827.961 93.3349C830.852 94.3756 832.76 96.3413 832.76 98.654V99.29C832.76 102.643 828.597 105.072 823.509 105.072H799.92C794.774 105.072 790.612 102.354 790.612 99.29V98.654C790.612 96.3413 792.52 94.3756 795.41 93.3349Z" fill="#8C9AA8"/>
<path d="M774.134 95.4151C773.98 94.3333 774.112 93.23 774.518 92.2154C774.924 91.2009 775.589 90.3105 776.447 89.6334C777.561 88.8148 778.95 88.4622 780.32 88.6506C780.572 87.1223 781.358 85.7331 782.539 84.7308C783.72 83.7285 785.218 83.1782 786.767 83.1782C788.316 83.1782 789.814 83.7285 790.995 84.7308C792.176 85.7331 792.962 87.1223 793.213 88.6506C794.583 88.4683 795.97 88.8203 797.087 89.6334C797.939 90.3132 798.596 91.2058 798.992 92.2211C799.388 93.2364 799.509 94.3382 799.342 95.4151C800.334 95.6823 801.22 96.2465 801.881 97.032C802.543 97.8175 802.948 98.7867 803.042 99.8092V100.33C803.042 103.105 799.862 105.36 795.873 105.36H777.661C773.671 105.36 770.491 103.105 770.491 100.33V99.8092C770.574 98.7914 770.968 97.8237 771.619 97.0375C772.271 96.2514 773.149 95.6849 774.134 95.4151Z" fill="#514260"/>
<path d="M862.533 60.126C862.452 59.351 862.567 58.5672 862.866 57.8544C863.164 57.1416 863.636 56.5253 864.233 56.0684C865.088 55.4687 866.114 55.2064 867.133 55.3275C867.36 54.1672 867.965 53.1283 868.842 52.3928C869.72 51.6574 870.814 51.2724 871.933 51.3052C873.071 51.2526 874.191 51.6273 875.093 52.3633C875.996 53.0992 876.624 54.1491 876.867 55.3275C877.885 55.2064 878.912 55.4687 879.767 56.0684C880.363 56.5253 880.835 57.1416 881.134 57.8544C881.433 58.5672 881.547 59.351 881.467 60.126C882.183 60.3142 882.829 60.7291 883.317 61.3153C883.805 61.9015 884.113 62.6313 884.2 63.4074V63.7602C884.2 65.842 881.833 67.5003 878.867 67.5003H865.267C862.3 67.5003 859.9 65.842 859.9 63.7602V63.4074C859.984 62.6464 860.279 61.9287 860.747 61.3448C861.216 60.7609 861.837 60.3368 862.533 60.126Z" fill="#8C9AA8"/>
<path d="M851.159 61.4287C851.058 60.7748 851.127 60.1048 851.358 59.4878C851.589 58.8708 851.975 58.3293 852.475 57.919C853.136 57.447 853.938 57.2354 854.736 57.3224C854.883 56.3947 855.342 55.5514 856.031 54.9429C856.72 54.3345 857.595 54.0005 858.499 54.0005C859.403 54.0005 860.278 54.3345 860.967 54.9429C861.657 55.5514 862.116 56.3947 862.262 57.3224C863.06 57.2354 863.862 57.447 864.524 57.919C865.022 58.3324 865.408 58.8731 865.645 59.4884C865.881 60.1036 865.96 60.7722 865.874 61.4287C866.449 61.6035 866.96 61.9552 867.339 62.4375C867.719 62.9198 867.949 63.5102 868 64.1312V64.412C868 66.1317 866.144 67.5005 863.815 67.5005H853.285C850.956 67.5005 849.1 66.1317 849.1 64.412V64.1312C849.146 63.5189 849.366 62.9348 849.733 62.4534C850.1 61.972 850.596 61.6153 851.159 61.4287V61.4287Z" fill="#514260"/>
<path d="M918.193 108.219C918.016 106.8 918.169 105.359 918.64 104.007C919.111 102.656 919.888 101.431 920.911 100.425C921.933 99.4201 923.174 98.662 924.538 98.2095C925.902 97.757 927.352 97.6222 928.777 97.8154C929.331 95.3022 930.747 93.0589 932.781 91.4697C934.816 89.8805 937.342 89.0443 939.928 89.1041C942.509 89.0347 945.033 89.8687 947.059 91.4607C949.085 93.0526 950.486 95.3016 951.016 97.8154C953.359 97.5169 955.732 98.0736 957.694 99.3822C959.092 100.361 960.195 101.702 960.884 103.26C961.572 104.817 961.82 106.532 961.6 108.219C963.243 108.633 964.723 109.531 965.847 110.794C966.971 112.057 967.686 113.627 967.9 115.301V116.115C967.9 120.565 962.356 124.2 955.3 124.2H923.8C916.933 124.2 911.2 120.565 911.2 116.115V115.301C911.458 113.534 912.274 111.895 913.532 110.622C914.789 109.348 916.422 108.507 918.193 108.219V108.219Z" fill="#8C9AA8"/>
<path d="M891.805 110.629C891.633 109.221 891.814 107.792 892.331 106.475C892.848 105.159 893.684 103.998 894.76 103.104C896.234 102.021 898.051 101.539 899.854 101.753C900.237 99.712 901.304 97.8716 902.87 96.5481C904.437 95.2245 906.405 94.5005 908.437 94.5005C910.469 94.5005 912.437 95.2245 914.004 96.5481C915.57 97.8716 916.637 99.712 917.02 101.753C918.843 101.535 920.68 102.017 922.177 103.104C923.255 103.999 924.097 105.158 924.624 106.473C925.152 107.787 925.348 109.217 925.195 110.629C926.518 111.005 927.697 111.785 928.574 112.866C929.45 113.947 929.983 115.276 930.1 116.675V117.318C930.1 121.113 925.824 124.2 920.605 124.2H896.458C891.176 124.2 886.9 121.113 886.9 117.318V116.675C887.025 115.279 887.561 113.954 888.436 112.875C889.312 111.796 890.486 111.013 891.805 110.629V110.629Z" fill="#514260"/>
</g>
</svg>
