<svg width="768" height="695" viewBox="0 0 768 695" fill="none" xmlns="http://www.w3.org/2000/svg">
<g clip-path="url(#clip0)">
<g opacity="0.1">
<path d="M725.072 326.52C727.694 326.467 730.216 325.506 732.208 323.801C733.557 324.992 735.28 325.674 737.079 325.727C738.885 325.715 740.623 325.028 741.949 323.801C742.21 325.101 742.936 326.26 743.991 327.061C745.047 327.863 746.358 328.252 747.68 328.154C749.001 328.057 750.242 327.48 751.168 326.533C752.094 325.585 752.643 324.332 752.71 323.008C752.726 322.29 752.596 321.576 752.328 320.91C752.06 320.243 751.66 319.637 751.152 319.129C750.644 318.621 750.039 318.222 749.372 317.954C748.705 317.686 747.991 317.556 747.273 317.571H746.707C748.305 316.323 749.539 314.668 750.279 312.779C751.019 310.891 751.239 308.838 750.915 306.836C750.591 304.833 749.735 302.955 748.437 301.396C747.139 299.838 745.446 298.656 743.535 297.975C743.008 295.512 741.675 293.295 739.747 291.675C737.818 290.054 735.405 289.122 732.888 289.027C730.606 288.986 728.375 289.703 726.544 291.066C725.513 289.725 724.194 288.632 722.685 287.868C721.175 287.103 719.514 286.686 717.823 286.648V286.648C717.823 285.345 717.467 284.066 716.792 282.951C716.118 281.836 715.151 280.927 713.996 280.322C712.842 279.718 711.543 279.441 710.243 279.522C708.942 279.603 707.688 280.039 706.617 280.782C705.547 281.525 704.7 282.548 704.169 283.738C703.638 284.928 703.443 286.241 703.606 287.534C703.769 288.827 704.282 290.051 705.091 291.073C705.9 292.095 706.973 292.876 708.194 293.331C707.602 294.649 707.293 296.077 707.288 297.522C707.268 300.305 708.273 302.998 710.112 305.087C711.95 307.176 714.493 308.516 717.256 308.849C715.489 310.804 714.519 313.351 714.538 315.986C714.723 318.718 715.892 321.291 717.829 323.228C719.766 325.165 722.339 326.334 725.072 326.52V326.52Z" fill="#404040"/>
<rect width="762.864" height="85.3681" transform="matrix(-1 0 0 1 752.348 631.82)" fill="#404040"/>
<path d="M696.98 275.324C701.864 275.258 706.564 273.45 710.233 270.227C712.701 272.515 715.93 273.807 719.295 273.851C722.604 273.8 725.782 272.552 728.243 270.34C728.596 272.702 729.785 274.858 731.593 276.417C733.402 277.976 735.71 278.834 738.098 278.835C740.772 278.835 743.336 277.773 745.226 275.883C747.117 273.992 748.179 271.428 748.179 268.754C748.179 266.08 747.117 263.516 745.226 261.626C743.336 259.735 740.772 258.673 738.098 258.673H736.965C740.201 256.554 742.755 253.544 744.319 250.007C745.882 246.469 746.39 242.555 745.779 238.735C745.168 234.916 743.466 231.355 740.877 228.481C738.288 225.607 734.924 223.544 731.188 222.539C730.591 219.198 729.16 216.062 727.028 213.421C724.895 210.781 722.131 208.721 718.991 207.433C715.85 206.146 712.436 205.671 709.063 206.055C705.691 206.438 702.47 207.667 699.699 209.626C697.829 207.126 695.401 205.097 692.609 203.701C689.816 202.304 686.736 201.58 683.614 201.584H682.935C682.918 199.174 682.245 196.813 680.987 194.757C679.728 192.701 677.933 191.027 675.795 189.916C673.656 188.804 671.255 188.297 668.849 188.448C666.443 188.6 664.124 189.404 662.142 190.776C660.16 192.147 658.589 194.033 657.599 196.231C656.609 198.429 656.237 200.855 656.523 203.248C656.809 205.642 657.743 207.912 659.223 209.814C660.704 211.716 662.675 213.179 664.925 214.044C663.878 216.556 663.339 219.251 663.339 221.973C663.349 226.989 665.239 231.819 668.636 235.51C672.033 239.201 676.691 241.484 681.689 241.909C679.145 244.825 677.495 248.411 676.934 252.24C676.373 256.068 676.926 259.977 678.526 263.5C680.127 267.023 682.707 270.011 685.959 272.108C689.211 274.204 692.998 275.321 696.867 275.324H696.98Z" fill="#404040"/>
<path d="M722.707 673.245L724.633 638.244L726.332 607.095L728.031 575.379L729.843 544.229L731.769 509.001L733.581 476.719L735.394 444.323L737.206 411.928L739.018 380.098H733.241V359.823H740.151L741.17 342.605H753.743H766.317L767.336 359.823H774.246V380.098H768.469L770.281 411.928L772.093 444.323L773.906 476.719L775.718 509.001L777.644 544.229L779.343 575.379L781.042 607.095L782.741 638.244L784.667 673.245L786.366 703.376H721.121L722.707 673.245Z" fill="#404040"/>
<path d="M49.1308 333.829L52.3159 338.235L3.01875 373.868L-0.166321 369.462L49.1308 333.829Z" fill="#404040"/>
<path d="M2.83518 369.437L52.1074 405.104L48.9193 409.509L-0.352944 373.842L2.83518 369.437Z" fill="#404040"/>
<path d="M49.0222 405.218L52.208 409.624L2.91706 445.265L-0.268782 440.859L49.0222 405.218Z" fill="#404040"/>
<path d="M2.83331 440.786L52.1677 476.367L48.9873 480.777L-0.347149 445.196L2.83331 440.786Z" fill="#404040"/>
<path d="M49.0833 476.335L52.2676 480.742L2.96417 516.366L-0.22014 511.959L49.0833 476.335Z" fill="#404040"/>
<path d="M2.95653 511.961L52.2039 547.662L49.0127 552.064L-0.234667 516.363L2.95653 511.961Z" fill="#404040"/>
<path d="M2.97833 587.613L52.2515 552.046L48.9666 547.628L-0.306555 583.196L2.97833 587.613Z" fill="#404040"/>
<path d="M49.5328 637.566L53.384 633.714L3.20479 583.535L-0.646486 587.386L49.5328 637.566Z" fill="#404040"/>
<path d="M49.42 373.98L52.5916 369.449L3.31842 333.881L0.146834 338.299L49.42 373.98Z" fill="#404040"/>
<path d="M3.31842 409.55L52.5916 373.983L49.42 369.452L0.146834 405.132L3.31842 409.55Z" fill="#404040"/>
<path d="M3.30512 405.133L52.6147 440.749L49.4312 445.157L0.121604 409.541L3.30512 405.133Z" fill="#404040"/>
<path d="M49.3894 440.785L52.5745 445.191L3.2773 480.824L0.0922752 476.417L49.3894 440.785Z" fill="#404040"/>
<path d="M3.22397 476.429L52.5522 512.019L49.371 516.428L0.0427702 480.838L3.22397 476.429Z" fill="#404040"/>
<path d="M49.4146 512.2L52.5996 516.606L3.30245 552.239L0.117422 547.832L49.4146 512.2Z" fill="#404040"/>
<path d="M3.22104 547.69L52.5493 583.28L49.3681 587.689L0.0398405 552.099L3.22104 547.69Z" fill="#404040"/>
<path d="M49.2081 583.483L53.0527 587.328L2.91317 637.467L-0.931421 633.623L49.2081 583.483Z" fill="#404040"/>
<path d="M-1.77915 330.715H5.35693V635.982H-1.77915V330.715Z" fill="#404040"/>
<path d="M-1.89225 328.674H54.1772V336.036H-1.89225V328.674Z" fill="#404040"/>
<path d="M47.0411 330.715H54.1772V635.982H47.0411V330.715Z" fill="#404040"/>
<path d="M17.9306 296.277H34.0151V333.544H17.9306V296.277Z" fill="#404040"/>
<path d="M12.1532 282.231H40.2446V303.187H12.1532V282.231Z" fill="#404040"/>
<path d="M70.7241 389.133V374.7C70.5376 372.474 70.8132 370.234 71.5335 368.122C72.2537 366.009 73.4029 364.069 74.9083 362.425C76.4138 360.781 78.2427 359.468 80.2794 358.571C82.316 357.673 84.5161 357.209 86.7404 357.209C88.9647 357.209 91.1648 357.673 93.2015 358.571C95.2381 359.468 97.067 360.781 98.5725 362.425C100.078 364.069 101.227 366.009 101.947 368.122C102.668 370.234 102.943 372.474 102.757 374.7V389.133H107.284V374.7C107.098 372.474 107.373 370.234 108.094 368.122C108.814 366.009 109.963 364.069 111.468 362.425C112.974 360.781 114.803 359.468 116.839 358.571C118.876 357.673 121.076 357.209 123.3 357.209C125.525 357.209 127.725 357.673 129.761 358.571C131.798 359.468 133.627 360.781 135.132 362.425C136.638 364.069 137.787 366.009 138.507 368.122C139.228 370.234 139.503 372.474 139.317 374.7V389.133H153.465V497.321H177.914V295.036H191.497V277.535H187.535V263.102H206.777V277.535H202.476V295.036H216.285V497.321H226.472L227.491 498.457L261.447 532.55L275.596 546.756V528.459H286.915V461.296H273.672V469.137H269.371V374.473H273.672V382.655H287.028V387.996H273.785V394.815H287.028V400.27H273.785V407.543H287.028V412.884H273.785V418.907H287.028V424.362H273.785V431.181H287.028V436.522H273.785V443.454H287.028V448.795H273.785V455.614H287.028V459.137V363.563H307.402V335.606H320.645V293.899H506.728C513.923 293.929 520.816 296.812 525.904 301.921C530.992 307.029 533.864 313.949 533.893 321.174V350.721H580.64C587.836 350.751 594.728 353.634 599.816 358.743C604.904 363.851 607.776 370.771 607.806 377.995V416.975H611.314V429.476H622.633V460.728C635.229 465.049 646.182 473.182 653.986 484.008C661.79 494.835 666.06 507.823 666.211 521.186V622.215H752.348V644.944H666.211L516.123 686.31L275.37 644.944V632.443H201.684V644.716H105.02L56.6887 675.741V389.133H70.7241ZM211.418 304.241L200.099 312.196L211.418 320.265V304.241ZM182.894 443.113L194.213 435.044L182.894 426.976V443.113ZM182.894 369.359L194.213 361.29L182.894 353.221V369.359ZM197.156 358.903L210.739 349.13L197.156 339.357L183.574 349.13L197.156 358.903ZM211.418 353.221L200.099 361.29L211.418 369.359V353.221ZM197.156 363.563L183.347 373.677L197.156 383.678L210.965 373.45L197.156 363.563ZM182.894 377.995V394.019L194.213 386.064L182.894 377.995ZM182.894 345.039L194.213 336.97L182.894 328.902V345.039ZM197.156 334.697L210.965 324.583L197.156 314.582L183.347 324.583L197.156 334.697ZM200.326 336.97L211.644 345.039V329.015L200.326 336.97ZM200.326 386.064L211.644 394.019V377.995L200.326 386.064ZM197.156 388.337L183.574 398.11L197.156 407.997L210.739 398.11L197.156 388.337ZM182.894 402.315V418.907L194.213 410.838L182.894 402.315ZM182.894 422.657L196.703 432.772L210.512 422.657L196.703 412.657L182.894 422.657ZM199.873 435.044L211.192 443.113V426.976L199.873 435.044ZM196.703 437.317L183.121 447.204L196.703 456.978L210.286 447.204L196.703 437.317ZM182.442 451.295V467.433L193.761 459.364L182.442 451.295ZM182.442 320.265L193.761 312.196L182.442 304.241V320.265ZM196.703 309.923L210.286 300.15H183.121L196.703 309.923ZM210.965 402.315L199.646 410.27L210.965 418.339V402.315ZM210.965 451.295L199.646 459.364L210.965 467.433V451.295ZM196.703 461.637L182.555 471.978L196.703 486.184L210.852 471.978L196.703 461.637ZM182.442 477.092V497.321H185.611L194.1 488.798L182.442 477.092ZM191.384 497.321H202.702L196.93 491.525L191.384 497.321ZM211.418 477.092L200.099 488.457L208.588 496.98H211.758L211.418 477.092ZM361.733 467.66L327.776 512.208L293.82 467.66V528.459H361.733V467.66ZM532.082 622.442V521.186C532.105 508.058 536.101 495.247 543.54 484.45C550.978 473.653 561.509 465.38 573.736 460.728V429.249H588.677V416.748H591.959V377.768C591.959 374.754 590.767 371.864 588.644 369.732C586.521 367.601 583.642 366.404 580.64 366.404H474.016C471.014 366.404 468.135 367.601 466.013 369.732C463.89 371.864 462.697 374.754 462.697 377.768V416.748H466.32V429.249H480.015V460.728C492.357 465.274 503.018 473.504 510.565 484.312C518.112 495.119 522.184 507.987 522.235 521.186V521.186V622.215L532.082 622.442ZM378.259 622.442H388.332V521.186C388.357 508.027 392.379 495.189 399.863 484.386C407.346 473.583 417.934 465.33 430.212 460.728V429.249H443.795V416.748H446.851V377.768C446.881 370.544 449.752 363.624 454.84 358.515C459.928 353.407 466.821 350.524 474.016 350.494H517.934V320.719C517.934 317.705 516.741 314.815 514.618 312.683C512.496 310.552 509.617 309.355 506.615 309.355H456.359H334.454V335.606H348.037V363.563H367.958V528.459H378.372L378.259 622.442ZM237.791 601.986H275.37V597.668L235.64 557.893L202.702 524.936H201.684V601.986H237.791Z" fill="#404040"/>
<path d="M556.073 163.318C556.474 160.538 556.129 157.703 555.073 155.097C554.016 152.49 552.286 150.203 550.054 148.463C547.153 146.359 543.537 145.454 539.972 145.938C539.317 142.011 537.271 138.442 534.198 135.866C531.125 133.291 527.225 131.877 523.194 131.877C519.163 131.877 515.264 133.291 512.191 135.866C509.118 138.442 507.071 142.011 506.417 145.938C502.852 145.469 499.242 146.374 496.335 148.463C494.118 150.209 492.408 152.503 491.377 155.111C490.347 157.72 490.033 160.551 490.467 163.318C487.886 164.004 485.58 165.454 483.858 167.472C482.137 169.49 481.082 171.98 480.836 174.607V175.944C480.836 183.075 489.112 188.868 499.495 188.868H546.894C557.276 188.868 565.552 183.075 565.552 175.944V174.607C565.338 171.992 564.313 169.506 562.617 167.486C560.921 165.466 558.636 164.011 556.073 163.318Z" fill="#404040"/>
<path d="M432.619 64.9739C432.957 62.8635 432.727 60.701 431.95 58.7098C431.173 56.7185 429.879 54.9707 428.201 53.6467C425.981 52.1231 423.29 51.4404 420.612 51.7211C420.119 48.727 418.579 46.0054 416.266 44.0417C413.952 42.078 411.017 41 407.982 41C404.948 41 402.012 42.078 399.699 44.0417C397.386 46.0054 395.845 48.727 395.353 51.7211C392.674 51.4404 389.984 52.1231 387.763 53.6467C386.092 54.9807 384.796 56.7259 384.001 58.7116C383.207 60.6972 382.942 62.8551 383.233 64.9739C381.302 65.538 379.587 66.6729 378.314 68.2296C377.04 69.7862 376.267 71.6917 376.096 73.6958V74.6019C376.096 80.1522 382.326 84.5698 390.142 84.5698H425.483C433.299 84.5698 439.529 80.1522 439.529 74.6019V73.6958C439.374 71.7197 438.635 69.8345 437.404 68.281C436.173 66.7274 434.507 65.576 432.619 64.9739V64.9739Z" fill="#404040"/>
<path d="M331.334 208.994C331.769 205.489 331.311 201.931 330.002 198.654C328.693 195.377 326.577 192.488 323.852 190.261C320.12 187.565 315.523 186.366 310.958 186.898C309.987 181.818 307.287 177.236 303.321 173.941C299.356 170.647 294.373 168.844 289.229 168.844C284.086 168.844 279.103 170.647 275.138 173.941C271.172 177.236 268.472 181.818 267.501 186.898C262.886 186.357 258.235 187.555 254.447 190.261C251.717 192.49 249.586 195.374 248.251 198.647C246.916 201.92 246.42 205.478 246.806 208.994C243.457 209.929 240.473 211.872 238.253 214.562C236.034 217.253 234.686 220.561 234.39 224.045V225.646C234.39 235.093 245.215 242.778 258.427 242.778H319.554C332.926 242.778 343.75 235.093 343.75 225.646V224.045C343.433 220.569 342.077 217.271 339.861 214.584C337.645 211.898 334.672 209.949 331.334 208.994V208.994Z" fill="#404040"/>
</g>
<circle opacity="0.2" cx="384" cy="435" r="200" fill="#4B0731"/>
<circle cx="384" cy="435" r="180" fill="#936A83"/>
<mask id="mask0" mask-type="alpha" maskUnits="userSpaceOnUse" x="204" y="255" width="361" height="360">
<circle cx="384" cy="435" r="180" fill="#936A83"/>
</mask>
<g mask="url(#mask0)">
<path d="M216 529.914L344.782 647.175L380.329 627.518L454.934 687.562L558.191 618.053L579.947 628.888L722.734 529.914H216Z" fill="#3C444D"/>
<path d="M552.354 529.922H204L271.839 487.651L521.478 487.652L552.354 529.922Z" fill="#4D5A68"/>
<path d="M328.791 603.157L498.463 529.909H206.463L302.329 617.909L328.791 603.157Z" fill="#627182"/>
<path d="M304.919 366.878C305.91 366.858 306.864 366.495 307.617 365.85C308.127 366.301 308.779 366.558 309.459 366.579C310.142 366.574 310.799 366.314 311.3 365.85C311.399 366.342 311.673 366.78 312.072 367.083C312.471 367.386 312.967 367.533 313.467 367.496C313.967 367.459 314.436 367.241 314.786 366.883C315.136 366.525 315.343 366.051 315.369 365.551C315.375 365.279 315.325 365.009 315.224 364.757C315.123 364.505 314.972 364.276 314.78 364.084C314.588 363.892 314.359 363.741 314.107 363.64C313.855 363.538 313.585 363.489 313.313 363.495H313.099C313.703 363.023 314.17 362.397 314.45 361.683C314.73 360.969 314.813 360.193 314.69 359.436C314.567 358.679 314.244 357.969 313.753 357.379C313.262 356.79 312.622 356.343 311.9 356.086C311.7 355.155 311.196 354.316 310.467 353.704C309.738 353.091 308.826 352.739 307.874 352.702C307.011 352.687 306.168 352.958 305.476 353.473C305.086 352.966 304.587 352.553 304.016 352.264C303.446 351.975 302.818 351.818 302.178 351.803C302.178 351.31 302.044 350.827 301.789 350.405C301.533 349.984 301.168 349.64 300.731 349.411C300.295 349.183 299.804 349.078 299.312 349.109C298.82 349.139 298.346 349.304 297.941 349.585C297.537 349.866 297.216 350.253 297.016 350.703C296.815 351.153 296.741 351.649 296.803 352.138C296.864 352.627 297.058 353.09 297.364 353.476C297.67 353.863 298.076 354.158 298.538 354.33C298.314 354.828 298.197 355.368 298.195 355.915C298.187 356.967 298.567 357.985 299.263 358.775C299.958 359.565 300.919 360.071 301.964 360.197C301.296 360.936 300.929 361.899 300.936 362.895C301.006 363.929 301.448 364.901 302.181 365.634C302.913 366.366 303.886 366.808 304.919 366.878Z" fill="#514260"/>
<path d="M294.297 347.521C296.144 347.496 297.921 346.813 299.308 345.594C300.241 346.459 301.462 346.948 302.734 346.965C303.985 346.945 305.187 346.473 306.118 345.637C306.251 346.53 306.701 347.345 307.384 347.935C308.068 348.524 308.941 348.849 309.844 348.849C310.855 348.849 311.824 348.447 312.539 347.733C313.254 347.018 313.655 346.048 313.655 345.037C313.655 344.026 313.254 343.057 312.539 342.342C311.824 341.627 310.855 341.226 309.844 341.226H309.415C310.639 340.424 311.604 339.286 312.196 337.949C312.787 336.611 312.979 335.131 312.748 333.687C312.517 332.243 311.873 330.897 310.895 329.81C309.916 328.724 308.644 327.944 307.231 327.564C307.005 326.3 306.464 325.115 305.658 324.116C304.852 323.118 303.807 322.339 302.619 321.852C301.432 321.365 300.141 321.186 298.866 321.331C297.591 321.476 296.373 321.94 295.325 322.681C294.618 321.736 293.7 320.969 292.645 320.441C291.589 319.913 290.424 319.639 289.244 319.641H288.987C288.981 318.729 288.726 317.837 288.25 317.06C287.775 316.282 287.096 315.649 286.287 315.229C285.479 314.809 284.571 314.617 283.661 314.674C282.751 314.731 281.875 315.036 281.125 315.554C280.376 316.073 279.782 316.786 279.408 317.617C279.033 318.448 278.893 319.365 279.001 320.27C279.109 321.175 279.462 322.033 280.022 322.752C280.581 323.471 281.327 324.024 282.177 324.352C281.781 325.302 281.578 326.32 281.578 327.35C281.582 329.246 282.296 331.072 283.581 332.468C284.865 333.863 286.626 334.726 288.516 334.887C287.554 335.99 286.93 337.346 286.718 338.793C286.506 340.241 286.715 341.719 287.32 343.051C287.925 344.383 288.901 345.513 290.13 346.305C291.36 347.098 292.792 347.52 294.255 347.521H294.297Z" fill="#514260"/>
<path d="M498.288 356.17C499.663 356.179 500.991 355.675 502.014 354.757C502.705 355.42 503.626 355.789 504.584 355.785C505.504 355.771 506.388 355.42 507.068 354.8C507.169 355.458 507.499 356.06 508.001 356.499C508.502 356.938 509.143 357.185 509.809 357.198C510.559 357.198 511.277 356.9 511.808 356.37C512.338 355.84 512.635 355.121 512.635 354.371C512.635 353.622 512.338 352.903 511.808 352.373C511.277 351.843 510.559 351.545 509.809 351.545H509.509C510.286 351.029 510.924 350.329 511.365 349.507C511.805 348.685 512.036 347.766 512.036 346.834C512.024 345.586 511.596 344.378 510.82 343.401C510.045 342.424 508.965 341.733 507.753 341.437C507.531 340.133 506.854 338.949 505.843 338.094C504.832 337.24 503.552 336.771 502.228 336.769C501.05 336.768 499.899 337.126 498.931 337.797C498.432 337.123 497.788 336.569 497.047 336.176C496.306 335.783 495.486 335.561 494.648 335.527H494.434C494.335 334.613 493.903 333.768 493.219 333.154C492.535 332.54 491.648 332.2 490.729 332.2C489.81 332.2 488.923 332.54 488.24 333.154C487.556 333.768 487.123 334.613 487.025 335.527C487.036 336.284 487.275 337.019 487.711 337.638C488.146 338.257 488.758 338.73 489.466 338.996C489.158 339.684 488.998 340.428 488.995 341.18C489 342.588 489.529 343.942 490.479 344.98C491.43 346.017 492.733 346.663 494.134 346.791C493.411 347.605 492.94 348.612 492.779 349.689C492.618 350.766 492.774 351.867 493.228 352.857C493.682 353.847 494.415 354.683 495.336 355.264C496.257 355.844 497.328 356.145 498.417 356.127L498.288 356.17Z" fill="#9CAAB8"/>
<path d="M324.02 497.973L323.292 484.739L322.649 472.962L322.007 460.97L321.322 449.193L320.593 435.873L319.908 423.668L319.223 411.419L318.538 399.17L317.853 387.136H320.037V379.47H317.424L317.039 372.96H312.285H307.531L307.146 379.47H304.533V387.136H306.717L306.032 399.17L305.347 411.419L304.662 423.668L303.976 435.873L303.248 449.193L302.606 460.97L301.964 472.962L301.321 484.739L300.593 497.973L299.951 509.365H324.619L324.02 497.973Z" fill="#514260"/>
<path d="M368.989 388.034C369.399 388.03 369.794 387.878 370.102 387.606C370.135 387.852 370.239 388.083 370.401 388.271C370.562 388.46 370.775 388.597 371.013 388.667C371.251 388.737 371.504 388.737 371.742 388.666C371.98 388.595 372.192 388.457 372.353 388.268C372.514 388.079 372.617 387.848 372.649 387.602C372.682 387.356 372.642 387.106 372.535 386.882C372.429 386.658 372.259 386.47 372.048 386.34C371.837 386.21 371.592 386.144 371.344 386.15C371.69 385.921 371.973 385.609 372.168 385.243C372.362 384.876 372.462 384.466 372.458 384.051C372.46 383.499 372.281 382.962 371.948 382.521C371.615 382.08 371.148 381.76 370.616 381.61C370.51 380.967 370.164 380.387 369.647 379.99C369.13 379.592 368.481 379.406 367.832 379.469C367.29 379.475 366.765 379.655 366.333 379.983C366.103 379.665 365.8 379.405 365.451 379.227C365.101 379.048 364.713 378.955 364.32 378.955C364.326 378.734 364.287 378.514 364.205 378.309C364.123 378.104 364.001 377.917 363.844 377.761C363.688 377.605 363.502 377.482 363.296 377.4C363.091 377.318 362.871 377.279 362.65 377.285C362.271 377.303 361.909 377.45 361.625 377.702C361.34 377.953 361.15 378.294 361.085 378.668C361.02 379.042 361.085 379.427 361.268 379.759C361.451 380.092 361.743 380.352 362.093 380.497C361.926 380.863 361.85 381.264 361.872 381.666C361.894 382.068 362.014 382.458 362.22 382.804C362.427 383.15 362.714 383.44 363.057 383.65C363.401 383.859 363.79 383.983 364.192 384.009C363.788 384.472 363.56 385.064 363.55 385.679C363.55 386.36 363.82 387.014 364.302 387.496C364.784 387.978 365.438 388.249 366.119 388.249C366.734 388.238 367.326 388.01 367.789 387.606C368.121 387.894 368.549 388.047 368.989 388.034Z" fill="#9CAAB8"/>
<path d="M379.781 438.829L379.224 429.492L378.71 420.156L378.196 410.777L377.682 401.569H379.31V395.744H377.34L377.04 390.733H373.4H369.759L369.502 395.744H367.489V401.569H369.16L368.646 410.777L368.132 420.156L367.575 429.492L367.061 438.829L366.504 509.065H372.629H381.922L379.781 438.829Z" fill="#9CAAB8"/>
<path d="M404.011 392.199V386.76C403.94 385.921 404.045 385.077 404.317 384.281C404.59 383.484 405.025 382.753 405.594 382.134C406.164 381.514 406.856 381.02 407.626 380.681C408.397 380.343 409.229 380.168 410.071 380.168C410.913 380.168 411.745 380.343 412.516 380.681C413.286 381.02 413.978 381.514 414.548 382.134C415.118 382.753 415.552 383.484 415.825 384.281C416.097 385.077 416.202 385.921 416.131 386.76V392.199H417.844V386.76C417.774 385.921 417.878 385.077 418.15 384.281C418.423 383.484 418.858 382.753 419.427 382.134C419.997 381.514 420.689 381.02 421.46 380.681C422.23 380.343 423.063 380.168 423.904 380.168C424.746 380.168 425.578 380.343 426.349 380.681C427.12 381.02 427.812 381.514 428.381 382.134C428.951 382.753 429.386 383.484 429.658 384.281C429.931 385.077 430.035 385.921 429.964 386.76V392.199H435.318V432.97H444.569V356.738H449.708V350.142H448.209V344.703H455.49V350.142H453.862V356.738H459.087V432.97H462.942L463.327 433.399L476.175 446.247L481.529 451.6V444.705H485.811V419.394H480.801V422.349H479.173V386.674H480.801V389.758H485.854V391.77H480.843V394.34H485.854V396.396H480.843V399.137H485.854V401.15H480.843V403.419H485.854V405.475H480.843V408.045H485.854V410.058H480.843V412.67H485.854V414.683H480.843V417.253H485.854V418.58V382.563H493.563V372.027H498.574V356.309H505.154V372.027H510.293V382.563H517.831L517.831 444.705H521.728V488.603H481.443V483.892H453.562V488.518H416.988L398.7 500.209V392.199H404.011ZM457.245 360.207L452.963 363.205L457.245 366.245V360.207ZM446.453 412.542L450.736 409.501L446.453 406.46V412.542ZM446.453 384.747L450.736 381.706L446.453 378.665V384.747ZM451.849 380.807L456.989 377.123L451.849 373.44L446.71 377.123L451.849 380.807ZM457.245 378.665L452.963 381.706L457.245 384.747V378.665ZM451.849 382.563L446.624 386.374L451.849 390.143L457.074 386.289L451.849 382.563ZM446.453 388.002V394.04L450.736 391.042L446.453 388.002ZM446.453 375.582L450.736 372.541L446.453 369.5V375.582ZM451.849 371.684L457.074 367.873L451.849 364.104L446.624 367.873L451.849 371.684ZM453.048 372.541L457.331 375.582V369.543L453.048 372.541ZM453.048 391.042L457.331 394.04V388.002L453.048 391.042ZM451.849 391.899L446.71 395.582L451.849 399.308L456.989 395.582L451.849 391.899ZM446.453 397.167V403.419L450.736 400.379L446.453 397.167ZM446.453 404.833L451.678 408.644L456.903 404.833L451.678 401.064L446.453 404.833ZM452.877 409.501L457.16 412.542V406.46L452.877 409.501ZM451.678 410.358L446.539 414.084L451.678 417.767L456.817 414.084L451.678 410.358ZM446.282 415.625V421.707L450.564 418.666L446.282 415.625ZM446.282 366.245L450.564 363.205L446.282 360.207V366.245ZM451.678 362.348L456.817 358.665H446.539L451.678 362.348ZM457.074 397.167L452.791 400.165L457.074 403.205V397.167ZM457.074 415.625L452.791 418.666L457.074 421.707V415.625ZM451.678 419.523L446.324 423.42L451.678 428.773L457.031 423.42L451.678 419.523ZM446.282 425.347V432.97H447.481L450.693 429.758L446.282 425.347ZM449.665 432.97H453.948L451.764 430.786L449.665 432.97ZM457.245 425.347L452.963 429.63L456.175 432.842H457.374L457.245 425.347ZM514.12 421.792L501.272 438.581L488.424 421.792V444.705H514.12V421.792ZM467.224 472.414H481.443V470.787L466.411 455.797L453.948 443.377H453.562V472.414H467.224Z" fill="#514260"/>
<path d="M423.636 390.818H419.311H415.028L411.131 470.306H419.311H427.533L423.636 390.818Z" fill="#F7B23F"/>
<path d="M447.534 390.818H443.208H438.926L435.028 470.306H443.208H451.431L447.534 390.818Z" fill="#F7B23F"/>
<path d="M470.918 390.818H466.592H462.309L458.412 470.306H466.592H474.815L470.918 390.818Z" fill="#F7B23F"/>
<path d="M432.502 404.609L408.69 440.884V509.065H432.502V404.609Z" fill="#8C9AA8"/>
<path d="M456.313 404.609L432.501 440.884V509.065H456.313V404.609Z" fill="#8C9AA8"/>
<path d="M480.125 404.609L456.313 440.884V509.065H480.125V404.609Z" fill="#8C9AA8"/>
<path d="M415.242 383.752C415.242 384.438 415.039 385.109 414.657 385.68C414.276 386.25 413.734 386.695 413.101 386.957C412.467 387.22 411.769 387.288 411.096 387.155C410.423 387.021 409.805 386.69 409.32 386.205C408.835 385.72 408.504 385.102 408.371 384.429C408.237 383.756 408.305 383.059 408.568 382.425C408.831 381.791 409.275 381.249 409.846 380.868C410.416 380.487 411.087 380.283 411.773 380.283C412.229 380.283 412.68 380.373 413.101 380.547C413.521 380.722 413.904 380.977 414.226 381.299C414.548 381.621 414.804 382.004 414.978 382.425C415.152 382.846 415.242 383.297 415.242 383.752Z" fill="#9CAAB8"/>
<path d="M420.21 381.611C420.21 382.531 419.845 383.413 419.194 384.064C418.543 384.714 417.661 385.08 416.741 385.08C415.821 385.08 414.939 384.714 414.288 384.064C413.637 383.413 413.272 382.531 413.272 381.611C413.272 380.691 413.637 379.808 414.288 379.158C414.939 378.507 415.821 378.142 416.741 378.142C417.661 378.142 418.543 378.507 419.194 379.158C419.845 379.808 420.21 380.691 420.21 381.611Z" fill="#9CAAB8"/>
<path d="M417.983 384.695C417.983 385.324 417.736 385.927 417.296 386.376C416.855 386.824 416.256 387.082 415.628 387.093C415.152 387.102 414.684 386.968 414.284 386.71C413.884 386.452 413.57 386.08 413.382 385.643C413.194 385.205 413.14 384.722 413.228 384.254C413.315 383.786 413.54 383.354 413.874 383.015C414.207 382.675 414.635 382.442 415.101 382.346C415.567 382.25 416.052 382.295 416.492 382.475C416.933 382.655 417.31 382.963 417.576 383.358C417.841 383.753 417.983 384.219 417.983 384.695Z" fill="#9CAAB8"/>
<path d="M412.93 378.1C412.93 378.555 412.84 379.007 412.665 379.427C412.491 379.848 412.236 380.231 411.913 380.553C411.591 380.875 411.209 381.13 410.788 381.305C410.367 381.479 409.916 381.569 409.46 381.569C409.005 381.569 408.554 381.479 408.133 381.305C407.712 381.13 407.33 380.875 407.008 380.553C406.685 380.231 406.43 379.848 406.256 379.427C406.081 379.007 405.991 378.555 405.991 378.1C405.991 377.18 406.357 376.297 407.008 375.647C407.658 374.996 408.54 374.631 409.46 374.631C410.381 374.631 411.263 374.996 411.913 375.647C412.564 376.297 412.93 377.18 412.93 378.1Z" fill="#9CAAB8"/>
<path d="M417.726 378.869C417.726 379.789 417.361 380.672 416.71 381.322C416.06 381.973 415.177 382.338 414.257 382.338C413.337 382.338 412.455 381.973 411.804 381.322C411.154 380.672 410.788 379.789 410.788 378.869C410.788 378.414 410.878 377.963 411.052 377.542C411.226 377.121 411.482 376.739 411.804 376.416C412.126 376.094 412.509 375.839 412.93 375.664C413.35 375.49 413.802 375.4 414.257 375.4C414.713 375.4 415.164 375.49 415.585 375.664C416.006 375.839 416.388 376.094 416.71 376.416C417.032 376.739 417.288 377.121 417.462 377.542C417.636 377.963 417.726 378.414 417.726 378.869Z" fill="#9CAAB8"/>
<path d="M409.332 374.629C409.332 375.231 409.093 375.809 408.667 376.234C408.241 376.66 407.664 376.899 407.062 376.899C406.46 376.899 405.883 376.66 405.457 376.234C405.031 375.809 404.792 375.231 404.792 374.629C404.792 374.027 405.031 373.45 405.457 373.024C405.883 372.599 406.46 372.359 407.062 372.359C407.664 372.359 408.241 372.599 408.667 373.024C409.093 373.45 409.332 374.027 409.332 374.629Z" fill="#9CAAB8"/>
<path d="M420.596 386.192C420.635 386.443 420.62 386.699 420.551 386.943C420.482 387.188 420.361 387.414 420.196 387.607C420.031 387.8 419.826 387.954 419.596 388.061C419.366 388.167 419.115 388.222 418.861 388.222C418.607 388.222 418.357 388.167 418.126 388.061C417.896 387.954 417.691 387.8 417.526 387.607C417.362 387.414 417.24 387.188 417.171 386.943C417.102 386.699 417.087 386.443 417.127 386.192C417.192 385.779 417.402 385.403 417.72 385.131C418.038 384.859 418.443 384.71 418.861 384.71C419.279 384.71 419.684 384.859 420.002 385.131C420.32 385.403 420.531 385.779 420.596 386.192Z" fill="#9CAAB8"/>
<path d="M439.054 384.051C439.054 384.507 438.965 384.958 438.79 385.379C438.616 385.799 438.36 386.182 438.038 386.504C437.716 386.826 437.334 387.082 436.913 387.256C436.492 387.43 436.041 387.52 435.585 387.52C434.665 387.52 433.783 387.155 433.132 386.504C432.482 385.853 432.116 384.971 432.116 384.051C432.116 383.131 432.482 382.249 433.132 381.598C433.783 380.948 434.665 380.582 435.585 380.582C436.505 380.582 437.388 380.948 438.038 381.598C438.689 382.249 439.054 383.131 439.054 384.051Z" fill="#9CAAB8"/>
<path d="M444.022 381.825C444.014 382.51 443.803 383.176 443.417 383.741C443.031 384.306 442.486 384.744 441.851 385C441.217 385.256 440.521 385.318 439.851 385.18C439.181 385.041 438.566 384.707 438.086 384.22C437.605 383.734 437.278 383.115 437.148 382.444C437.018 381.772 437.089 381.077 437.353 380.445C437.616 379.814 438.061 379.275 438.63 378.895C439.2 378.516 439.869 378.314 440.553 378.313C441.012 378.313 441.467 378.405 441.891 378.582C442.314 378.759 442.699 379.018 443.021 379.345C443.344 379.671 443.599 380.059 443.771 380.485C443.942 380.91 444.028 381.366 444.022 381.825Z" fill="#9CAAB8"/>
<path d="M441.795 384.909C441.795 385.534 441.547 386.133 441.105 386.575C440.664 387.017 440.064 387.265 439.44 387.265C438.815 387.265 438.216 387.017 437.774 386.575C437.332 386.133 437.084 385.534 437.084 384.909C437.084 384.284 437.332 383.685 437.774 383.244C438.216 382.802 438.815 382.554 439.44 382.554C440.064 382.554 440.664 382.802 441.105 383.244C441.547 383.685 441.795 384.284 441.795 384.909Z" fill="#9CAAB8"/>
<path d="M436.741 378.313C436.741 379.233 436.376 380.115 435.725 380.766C435.075 381.416 434.192 381.782 433.272 381.782C432.352 381.782 431.47 381.416 430.82 380.766C430.169 380.115 429.803 379.233 429.803 378.313C429.803 377.393 430.169 376.51 430.82 375.86C431.47 375.209 432.352 374.844 433.272 374.844C434.192 374.844 435.075 375.209 435.725 375.86C436.376 376.51 436.741 377.393 436.741 378.313Z" fill="#9CAAB8"/>
<path d="M438.069 382.553C439.985 382.553 441.538 381 441.538 379.084C441.538 377.168 439.985 375.615 438.069 375.615C436.153 375.615 434.6 377.168 434.6 379.084C434.6 381 436.153 382.553 438.069 382.553Z" fill="#9CAAB8"/>
<path d="M433.144 374.845C433.144 375.447 432.905 376.024 432.479 376.45C432.054 376.876 431.476 377.115 430.874 377.115C430.272 377.115 429.695 376.876 429.269 376.45C428.844 376.024 428.604 375.447 428.604 374.845C428.604 374.243 428.844 373.666 429.269 373.24C429.695 372.814 430.272 372.575 430.874 372.575C431.172 372.575 431.468 372.634 431.743 372.748C432.018 372.862 432.269 373.029 432.479 373.24C432.69 373.451 432.857 373.701 432.971 373.976C433.085 374.252 433.144 374.547 433.144 374.845Z" fill="#9CAAB8"/>
<path d="M444.407 386.407C444.447 386.658 444.432 386.914 444.363 387.158C444.294 387.402 444.173 387.629 444.008 387.822C443.843 388.014 443.638 388.169 443.408 388.275C443.177 388.382 442.927 388.437 442.673 388.437C442.419 388.437 442.168 388.382 441.938 388.275C441.708 388.169 441.503 388.014 441.338 387.822C441.173 387.629 441.052 387.402 440.983 387.158C440.914 386.914 440.899 386.658 440.938 386.407C440.899 386.157 440.914 385.9 440.983 385.656C441.052 385.412 441.173 385.186 441.338 384.993C441.503 384.8 441.708 384.645 441.938 384.539C442.168 384.433 442.419 384.378 442.673 384.378C442.927 384.378 443.177 384.433 443.408 384.539C443.638 384.645 443.843 384.8 444.008 384.993C444.173 385.186 444.294 385.412 444.363 385.656C444.432 385.9 444.447 386.157 444.407 386.407Z" fill="#9CAAB8"/>
<path d="M462.052 384.267C462.052 385.187 461.687 386.069 461.036 386.72C460.386 387.37 459.503 387.736 458.583 387.736C457.663 387.736 456.781 387.37 456.13 386.72C455.48 386.069 455.114 385.187 455.114 384.267C455.114 383.347 455.48 382.464 456.13 381.814C456.781 381.163 457.663 380.798 458.583 380.798C459.503 380.798 460.386 381.163 461.036 381.814C461.687 382.464 462.052 383.347 462.052 384.267Z" fill="#9CAAB8"/>
<path d="M466.892 381.997C466.892 382.929 466.522 383.822 465.863 384.48C465.205 385.139 464.311 385.509 463.38 385.509C462.685 385.509 462.006 385.303 461.429 384.917C460.851 384.531 460.401 383.983 460.135 383.341C459.87 382.699 459.8 381.993 459.936 381.312C460.071 380.631 460.406 380.005 460.897 379.514C461.388 379.023 462.014 378.688 462.695 378.553C463.376 378.417 464.082 378.487 464.724 378.753C465.366 379.018 465.914 379.469 466.3 380.046C466.686 380.624 466.892 381.303 466.892 381.997Z" fill="#9CAAB8"/>
<path d="M464.622 385.124C464.628 385.435 464.571 385.744 464.454 386.032C464.338 386.321 464.165 386.583 463.945 386.803C463.725 387.023 463.463 387.196 463.175 387.312C462.886 387.428 462.577 387.485 462.266 387.48C461.642 387.48 461.043 387.231 460.601 386.79C460.159 386.348 459.911 385.749 459.911 385.124C459.911 384.499 460.159 383.9 460.601 383.458C461.043 383.017 461.642 382.769 462.266 382.769C462.891 382.769 463.49 383.017 463.932 383.458C464.374 383.9 464.622 384.499 464.622 385.124Z" fill="#9CAAB8"/>
<path d="M459.611 378.529C459.6 379.453 459.225 380.335 458.568 380.984C457.91 381.634 457.023 381.998 456.099 381.998C455.179 381.998 454.297 381.632 453.646 380.982C452.996 380.331 452.63 379.449 452.63 378.529C452.63 377.609 452.996 376.726 453.646 376.076C454.297 375.425 455.179 375.06 456.099 375.06C457.023 375.06 457.91 375.424 458.568 376.073C459.225 376.722 459.6 377.605 459.611 378.529Z" fill="#9CAAB8"/>
<path d="M464.365 379.47C464.365 380.156 464.162 380.827 463.78 381.397C463.399 381.968 462.857 382.412 462.224 382.675C461.59 382.938 460.892 383.006 460.219 382.872C459.546 382.739 458.928 382.408 458.443 381.923C457.958 381.438 457.628 380.82 457.494 380.147C457.36 379.474 457.429 378.776 457.691 378.142C457.954 377.509 458.398 376.967 458.969 376.586C459.539 376.204 460.21 376.001 460.896 376.001C461.813 376.012 462.689 376.381 463.337 377.029C463.985 377.677 464.354 378.553 464.365 379.47Z" fill="#9CAAB8"/>
<path d="M455.971 375.189C455.971 375.791 455.732 376.368 455.306 376.794C454.88 377.219 454.303 377.459 453.701 377.459C453.099 377.459 452.522 377.219 452.096 376.794C451.67 376.368 451.431 375.791 451.431 375.189C451.431 374.587 451.67 374.009 452.096 373.584C452.522 373.158 453.099 372.919 453.701 372.919C454.303 372.919 454.88 373.158 455.306 373.584C455.732 374.009 455.971 374.587 455.971 375.189Z" fill="#9CAAB8"/>
<path d="M467.234 386.622C467.169 387.035 466.959 387.412 466.641 387.683C466.323 387.955 465.918 388.105 465.5 388.105C465.081 388.105 464.677 387.955 464.359 387.683C464.041 387.412 463.83 387.035 463.765 386.622C463.726 386.371 463.741 386.115 463.81 385.871C463.879 385.627 464 385.401 464.165 385.208C464.33 385.015 464.535 384.86 464.765 384.754C464.995 384.648 465.246 384.593 465.5 384.593C465.754 384.593 466.004 384.648 466.235 384.754C466.465 384.86 466.67 385.015 466.835 385.208C466.999 385.401 467.121 385.627 467.19 385.871C467.259 386.115 467.274 386.371 467.234 386.622Z" fill="#9CAAB8"/>
<path d="M310.358 436.474H308.773V501.614H310.358V436.474Z" fill="#F19B2C"/>
<path d="M315.369 494.89H309.544V496.474H315.369V494.89Z" fill="#F19B2C"/>
<path d="M315.369 488.894H309.544V490.478H315.369V488.894Z" fill="#F19B2C"/>
<path d="M315.369 482.898H309.544V484.483H315.369V482.898Z" fill="#F19B2C"/>
<path d="M315.369 476.901H309.544V478.486H315.369V476.901Z" fill="#F19B2C"/>
<path d="M315.369 470.948H309.544V472.533H315.369V470.948Z" fill="#F19B2C"/>
<path d="M315.369 464.953H309.544V466.538H315.369V464.953Z" fill="#F19B2C"/>
<path d="M315.369 458.958H309.544V460.543H315.369V458.958Z" fill="#F19B2C"/>
<path d="M315.369 452.962H309.544V454.547H315.369V452.962Z" fill="#F19B2C"/>
<path d="M315.369 446.965H309.544V448.549H315.369V446.965Z" fill="#F19B2C"/>
<path d="M315.369 440.97H309.544V442.554H315.369V440.97Z" fill="#F19B2C"/>
<path d="M267.659 417.929H266.074V483.069H267.659V417.929Z" fill="#F19B2C"/>
<path d="M272.712 476.346H266.888V477.93H272.712V476.346Z" fill="#F19B2C"/>
<path d="M272.712 470.351H266.888V471.935H272.712V470.351Z" fill="#F19B2C"/>
<path d="M272.712 464.353H266.888V465.937H272.712V464.353Z" fill="#F19B2C"/>
<path d="M272.712 458.357H266.888V459.942H272.712V458.357Z" fill="#F19B2C"/>
<path d="M272.712 452.362H266.888V453.947H272.712V452.362Z" fill="#F19B2C"/>
<path d="M272.712 446.367H266.888V447.952H272.712V446.367Z" fill="#F19B2C"/>
<path d="M272.712 440.37H266.888V441.955H272.712V440.37Z" fill="#F19B2C"/>
<path d="M272.712 434.374H266.888V436.001H272.712V434.374Z" fill="#F19B2C"/>
<path d="M272.712 428.422H266.888V430.006H272.712V428.422Z" fill="#F19B2C"/>
<path d="M272.712 422.425H266.888V424.009H272.712V422.425Z" fill="#F19B2C"/>
<path d="M298.28 479.429H292.456V481.142H298.28V479.429Z" fill="#F19B2C"/>
<path d="M298.28 473.09H292.456V474.803H298.28V473.09Z" fill="#F19B2C"/>
<path d="M298.28 466.71H292.456V468.423H298.28V466.71Z" fill="#F19B2C"/>
<path d="M298.28 460.37H292.456V462.083H298.28V460.37Z" fill="#F19B2C"/>
<path d="M298.28 453.989H292.456V455.702H298.28V453.989Z" fill="#F19B2C"/>
<path d="M298.28 447.651H292.456V449.364H298.28V447.651Z" fill="#F19B2C"/>
<path d="M298.28 441.271H292.456V442.984H298.28V441.271Z" fill="#F19B2C"/>
<path d="M298.28 434.932H292.456V436.645H298.28V434.932Z" fill="#F19B2C"/>
<path d="M298.28 428.55H292.456V430.263H298.28V428.55Z" fill="#F19B2C"/>
<path d="M298.28 422.212H292.456V423.925H298.28V422.212Z" fill="#F19B2C"/>
<path d="M383.888 356.725L382.683 358.391L401.322 371.863L402.527 370.197L383.888 356.725Z" fill="#D6741D"/>
<path d="M401.309 370.177L382.667 383.646L383.871 385.313L402.513 371.843L401.309 370.177Z" fill="#D6741D"/>
<path d="M383.878 383.641L382.674 385.307L401.313 398.779L402.517 397.113L383.878 383.641Z" fill="#D6741D"/>
<path d="M383.85 412.276L382.65 410.606L401.28 397.115L402.479 398.786L383.85 412.276Z" fill="#D6741D"/>
<path d="M383.859 410.549L382.655 412.215L401.297 425.684L402.501 424.018L383.859 410.549Z" fill="#D6741D"/>
<path d="M401.299 424.039L382.657 437.508L383.861 439.174L402.503 425.705L401.299 424.039Z" fill="#D6741D"/>
<path d="M383.859 437.516L382.654 439.182L401.293 452.654L402.498 450.988L383.859 437.516Z" fill="#D6741D"/>
<path d="M401.151 451.133L382.191 470.087L383.644 471.541L402.605 452.587L401.151 451.133Z" fill="#D6741D"/>
<path d="M401.144 356.719L382.493 370.175L383.696 371.842L402.347 358.386L401.144 356.719Z" fill="#D6741D"/>
<path d="M383.666 370.136L382.462 371.803L401.104 385.272L402.308 383.606L383.666 370.136Z" fill="#D6741D"/>
<path d="M401.121 383.626L382.484 397.102L383.689 398.767L402.325 385.292L401.121 383.626Z" fill="#D6741D"/>
<path d="M383.691 397.104L382.486 398.77L401.121 412.249L402.325 410.583L383.691 397.104Z" fill="#D6741D"/>
<path d="M401.146 410.601L382.495 424.058L383.698 425.725L402.349 412.268L401.146 410.601Z" fill="#D6741D"/>
<path d="M383.695 424.048L382.491 425.714L401.133 439.183L402.337 437.517L383.695 424.048Z" fill="#D6741D"/>
<path d="M401.126 437.474L382.499 450.963L383.704 452.628L402.331 439.139L401.126 437.474Z" fill="#D6741D"/>
<path d="M401.323 471.506L382.351 452.533L383.807 451.12L402.779 470.05L401.323 471.506Z" fill="#D6741D"/>
<path d="M441.667 522.977H435.071V534.24H441.667V522.977Z" fill="#D6741D"/>
<path d="M462.053 526.361H411.045C404.792 526.361 399.867 522.549 399.867 517.795C399.867 513.041 404.578 509.615 411.045 509.615V515.954C407.919 515.954 406.206 517.196 406.206 517.795C406.206 518.395 408.047 520.108 411.045 520.108H462.053V526.361Z" fill="#D6741D"/>
<path d="M380.167 526.36H286.46V520.022H380.167C383.164 520.022 385.049 518.523 385.049 517.709C385.049 516.895 383.164 515.439 380.167 515.439V509.101C386.462 509.101 391.344 512.869 391.344 517.666C391.344 522.463 386.462 526.36 380.167 526.36Z" fill="#D6741D"/>
<path d="M462.053 537.237H368.646V530.899H462.053C465.05 530.899 466.892 529.443 466.892 528.629C466.892 527.815 465.05 526.359 462.053 526.359V520.021C468.348 520.021 473.231 523.789 473.231 528.586C473.231 533.383 468.477 537.237 462.053 537.237Z" fill="#D6741D"/>
<path d="M380.68 537.237H287.188C280.892 537.237 275.967 533.469 275.967 528.672C275.967 523.875 280.892 520.106 287.188 520.106V526.359C284.147 526.359 282.349 527.815 282.349 528.629C282.349 529.443 284.147 530.899 287.188 530.899H380.68V537.237Z" fill="#D6741D"/>
<path d="M484.451 472.278C490.704 472.278 495.629 468.509 495.629 463.713C495.297 461.162 493.984 458.841 491.969 457.242C489.954 455.643 487.396 454.892 484.837 455.147C481.839 455.147 479.997 453.691 479.997 452.877C479.997 452.064 481.839 450.565 484.837 450.565C491.089 450.565 496.014 446.796 496.014 441.999C496.014 437.202 491.089 433.434 484.837 433.434H458.069C455.968 433.434 453.953 434.268 452.467 435.754C450.981 437.24 450.146 439.255 450.146 441.357V446.41H442.823C440.722 446.41 438.706 447.245 437.22 448.731C435.735 450.217 434.9 452.232 434.9 454.333V460.5H424.921C422.827 460.5 420.818 461.329 419.334 462.806C417.849 464.283 417.009 466.287 416.998 468.381V476.218H423.508V468.209C423.508 467.789 423.675 467.386 423.972 467.089C424.269 466.792 424.672 466.625 425.092 466.625H450.917C451.337 466.625 451.741 466.792 452.038 467.089C452.335 467.386 452.502 467.789 452.502 468.209V476.047H458.84V468.209C458.829 466.116 457.989 464.111 456.505 462.635C455.02 461.158 453.011 460.329 450.917 460.329H441.238V454.162C441.249 453.745 441.419 453.348 441.714 453.054C442.009 452.759 442.406 452.588 442.823 452.577H456.442V449.023V441.185C456.442 440.765 456.609 440.362 456.906 440.065C457.203 439.768 457.606 439.601 458.027 439.601H484.794C487.792 439.601 489.633 441.1 489.633 441.871C489.633 442.641 487.792 444.14 484.794 444.14C478.498 444.14 473.573 447.952 473.573 452.706C473.573 457.46 478.327 461.271 484.408 461.271C487.406 461.271 489.248 462.728 489.248 463.541C489.248 464.355 487.406 465.811 484.408 465.811C478.113 465.811 473.187 469.623 473.187 474.377C473.187 479.13 478.113 482.942 484.408 482.942C487.406 482.942 489.248 484.398 489.248 485.212C489.248 486.026 487.406 487.482 484.408 487.482C478.113 487.482 473.187 491.293 473.187 496.047C473.187 500.801 478.113 504.613 484.408 504.613C487.406 504.613 489.248 506.069 489.248 506.883C489.248 507.696 487.406 509.152 484.408 509.152H411.045V515.491H484.451C490.704 515.491 495.629 511.722 495.629 506.925C495.629 502.129 490.704 498.36 484.451 498.36C481.41 498.36 479.569 496.861 479.569 496.09C479.569 495.319 481.41 493.777 484.451 493.777C490.704 493.777 495.629 490.009 495.629 485.212C495.629 480.415 490.704 476.646 484.451 476.646C481.41 476.646 479.569 475.147 479.569 474.377C479.569 473.606 481.41 472.278 484.451 472.278Z" fill="#D6741D"/>
<path d="M314.255 512.1H307.66V523.363H314.255V512.1Z" fill="#D6741D"/>
<path d="M380.166 509.099L489.676 509.057L486.121 515.438H380.166V509.099Z" fill="#D6741D"/>
<path d="M373.999 521.006H367.404V532.269H373.999V521.006Z" fill="#D6741D"/>
<path d="M261.32 509.109C258.28 509.109 256.438 507.652 256.438 506.839C256.438 506.025 258.28 504.569 261.32 504.569H270.828V498.23H261.32C255.025 498.23 250.1 501.999 250.1 506.796C250.1 511.593 255.025 515.361 261.32 515.361H354.984V509.109H261.32Z" fill="#D6741D"/>
<path d="M380.167 509.101H354.813V515.439H380.167V509.101Z" fill="#D6741D"/>
<path d="M292.884 396.6C292.884 393.67 291.72 390.859 289.648 388.787C287.576 386.715 284.765 385.551 281.835 385.551C278.904 385.551 276.094 386.715 274.022 388.787C271.95 390.859 270.785 393.67 270.785 396.6V509.065H292.884V396.6Z" fill="#F8BE49"/>
<path d="M349.93 435.445C349.93 430.867 348.112 426.477 344.875 423.241C341.639 420.004 337.249 418.186 332.671 418.186C328.094 418.186 323.704 420.004 320.467 423.241C317.23 426.477 315.412 430.867 315.412 435.445V509.108H349.93V435.445Z" fill="#F8BE49"/>
<path d="M301.193 509.108L296.61 509.536V380.283C296.806 378.33 296.237 376.378 295.023 374.837C293.809 373.295 292.044 372.284 290.101 372.017C288.141 372.264 286.355 373.266 285.124 374.81C283.892 376.354 283.311 378.317 283.505 380.283V387.135H278.965V380.283C278.753 377.106 279.804 373.974 281.889 371.567C283.974 369.161 286.926 367.676 290.101 367.435C293.268 367.687 296.208 369.177 298.284 371.581C300.361 373.986 301.406 377.113 301.193 380.283V509.108Z" fill="#F8BE49"/>
<path d="M370.616 446.538H349.93V449.236H370.616V446.538Z" fill="#F19B2C"/>
<path d="M370.616 455.317H349.93V458.016H370.616V455.317Z" fill="#F19B2C"/>
<path d="M370.616 464.054H349.93V466.752H370.616V464.054Z" fill="#F19B2C"/>
<path d="M370.616 472.833H349.93V475.574H370.616V472.833Z" fill="#F19B2C"/>
<path d="M370.616 481.613H349.93V484.354H370.616V481.613Z" fill="#F19B2C"/>
<path d="M403.079 355.529H400.381V470.949H403.079V355.529Z" fill="#D6741D"/>
<path d="M370.616 490.392H349.93V493.09H370.616V490.392Z" fill="#F19B2C"/>
<path d="M403.079 354.759H381.922V357.543H403.079V354.759Z" fill="#D6741D"/>
<path d="M384.62 355.529H381.922V470.949H384.62V355.529Z" fill="#D6741D"/>
<path d="M395.67 342.51H389.546V356.6H395.67V342.51Z" fill="#D6741D"/>
<path d="M397.811 337.199H387.19V345.122H397.811V337.199Z" fill="#D6741D"/>
<path d="M426.335 476.045H414.172V509.108H426.335V476.045Z" fill="white"/>
<path d="M428.561 479.257H411.602V483.454H428.561V479.257Z" fill="#D6741D"/>
<path d="M428.561 490.906H411.602V495.103H428.561V490.906Z" fill="#D6741D"/>
<path d="M428.561 502.513H411.602V506.753H428.561V502.513Z" fill="#D6741D"/>
<path d="M364.449 509.151H357.211V411.505C357.211 404.224 352.5 398.314 346.761 398.314C341.022 398.314 336.268 404.224 336.268 411.505V422.297H329.031V411.505C329.031 400.241 336.954 391.076 346.761 391.076C356.569 391.076 364.449 400.241 364.449 411.505V509.151Z" fill="#F8BE49"/>
<path d="M292.884 412.362H270.785V417.93H292.884V412.362Z" fill="#F19B2C"/>
<path d="M292.884 430.478H270.785V436.045H292.884V430.478Z" fill="#F19B2C"/>
<path d="M292.884 449.321H270.785V454.889H292.884V449.321Z" fill="#F19B2C"/>
<path d="M292.884 471.72H270.785V477.287H292.884V471.72Z" fill="#F19B2C"/>
<path d="M463.252 503.668C465.74 502.545 467.863 500.745 469.378 498.473C470.892 496.201 471.738 493.549 471.817 490.82C471.704 487.513 470.494 484.337 468.377 481.794C466.26 479.25 463.357 477.484 460.125 476.772V472.918H451.346V476.858C448.176 477.61 445.343 479.385 443.284 481.908C441.224 484.432 440.054 487.564 439.954 490.82C439.982 493.517 440.769 496.151 442.223 498.423C443.676 500.695 445.739 502.512 448.176 503.668L443.894 505.253L443.38 509.535H445.35L446.164 506.323L451.003 504.953C452.173 505.316 453.379 505.546 454.601 505.638V505.852L454.943 509.535H456.057L456.399 505.852C457.845 505.851 459.284 505.664 460.682 505.295L464.965 506.495L465.736 509.707H467.749L467.235 505.424L463.252 503.668Z" fill="white"/>
<path d="M453.573 481.785H451.988V498.188H453.573V481.785Z" fill="#F19B2C"/>
<path d="M459.911 481.785H458.326V498.188H459.911V481.785Z" fill="#F19B2C"/>
<path d="M459.14 485.169H452.502V486.368H459.14V485.169Z" fill="#F19B2C"/>
<path d="M459.14 489.451H452.502V490.65H459.14V489.451Z" fill="#F19B2C"/>
<path d="M459.14 493.69H452.502V494.89H459.14V493.69Z" fill="#F19B2C"/>
<path d="M407.062 469.065H378.925V509.109H407.062V469.065Z" fill="#4D5A68"/>
<path d="M329.63 426.537H327.617V447.437H329.63V426.537Z" fill="#F19B2C"/>
<path d="M337.682 426.537H335.669V447.437H337.682V426.537Z" fill="#F19B2C"/>
<path d="M336.697 430.862H328.26V432.361H336.697V430.862Z" fill="#F19B2C"/>
<path d="M336.697 436.302H328.26V437.801H336.697V436.302Z" fill="#F19B2C"/>
<path d="M336.697 441.697H328.26V443.196H336.697V441.697Z" fill="#F19B2C"/>
<path d="M329.63 447.394H327.617V468.293H329.63V447.394Z" fill="#F19B2C"/>
<path d="M337.682 447.394H335.669V468.293H337.682V447.394Z" fill="#F19B2C"/>
<path d="M336.697 451.72H328.26V453.219H336.697V451.72Z" fill="#F19B2C"/>
<path d="M336.697 457.159H328.26V458.658H336.697V457.159Z" fill="#F19B2C"/>
<path d="M336.697 462.599H328.26V464.098H336.697V462.599Z" fill="#F19B2C"/>
<path d="M337.725 446.538H327.617V448.337H337.725V446.538Z" fill="#F19B2C"/>
<path d="M329.63 467.308H327.617V488.207H329.63V467.308Z" fill="#F19B2C"/>
<path d="M337.682 467.308H335.669V488.207H337.682V467.308Z" fill="#F19B2C"/>
<path d="M336.697 471.635H328.26V473.134H336.697V471.635Z" fill="#F19B2C"/>
<path d="M336.697 477.073H328.26V478.572H336.697V477.073Z" fill="#F19B2C"/>
<path d="M336.697 482.513H328.26V484.012H336.697V482.513Z" fill="#F19B2C"/>
<path d="M329.63 488.209H327.617V509.109H329.63V488.209Z" fill="#F19B2C"/>
<path d="M337.682 488.209H335.669V509.109H337.682V488.209Z" fill="#F19B2C"/>
<path d="M336.697 492.533H328.26V494.032H336.697V492.533Z" fill="#F19B2C"/>
<path d="M336.697 497.973H328.26V499.472H336.697V497.973Z" fill="#F19B2C"/>
<path d="M336.697 503.405H328.26V504.904H336.697V503.405Z" fill="#F19B2C"/>
<path d="M337.725 487.31H327.617V489.151H337.725V487.31Z" fill="#F19B2C"/>
<path d="M336.954 466.796H328.431V468.509H336.954V466.796Z" fill="#F19B2C"/>
<path d="M260.764 645.206C251.086 645.194 241.807 641.348 234.96 634.508C228.112 627.669 224.255 618.394 224.232 608.717V605.505C224.255 595.827 228.112 586.552 234.96 579.713C241.807 572.874 251.086 569.027 260.764 569.016H302.135L300.465 579.465H260.764C253.925 579.465 247.362 582.164 242.502 586.976C237.642 591.788 234.878 598.323 234.811 605.162V608.374C234.878 615.213 237.642 621.748 242.502 626.56C247.362 631.372 253.925 634.071 260.764 634.07H290.743V644.692L260.764 645.206Z" fill="#D6741D"/>
<path d="M326.975 534.585C327.421 536.437 327.651 538.334 327.66 540.238V543.407C327.66 550.223 324.953 556.759 320.134 561.578C315.315 566.397 308.779 569.104 301.964 569.104H272.499V579.425H301.964C311.487 579.403 320.613 575.61 327.347 568.876C334.08 562.142 337.873 553.016 337.896 543.493V540.324C337.892 538.43 337.734 536.539 337.425 534.671L326.975 534.585Z" fill="#D6741D"/>
<path d="M350.23 304.137C350.118 303.189 350.262 302.229 350.646 301.355C351.03 300.482 351.64 299.727 352.414 299.169C353.506 298.463 354.803 298.146 356.097 298.269C356.444 296.891 357.241 295.667 358.362 294.793C359.483 293.919 360.864 293.444 362.286 293.444C363.707 293.444 365.088 293.919 366.209 294.793C367.331 295.667 368.128 296.891 368.474 298.269C369.782 298.147 371.093 298.463 372.2 299.169C372.97 299.729 373.574 300.485 373.951 301.359C374.328 302.233 374.463 303.193 374.342 304.137C376.483 304.907 377.896 306.364 377.896 308.077V308.548C377.896 311.032 374.813 312.83 371.044 312.83H353.57C349.759 312.83 346.675 310.818 346.675 308.548V308.077C346.675 306.364 348.089 304.907 350.23 304.137Z" fill="#8C9AA8"/>
<path d="M334.47 305.678C334.355 304.876 334.454 304.059 334.754 303.308C335.055 302.556 335.547 301.896 336.183 301.395C337.008 300.788 338.037 300.527 339.052 300.667C339.238 299.535 339.821 298.506 340.696 297.763C341.57 297.021 342.68 296.613 343.827 296.613C344.975 296.613 346.085 297.021 346.959 297.763C347.834 298.506 348.416 299.535 348.603 300.667C349.617 300.532 350.645 300.793 351.472 301.395C352.103 301.898 352.59 302.56 352.883 303.312C353.176 304.064 353.266 304.88 353.142 305.678C353.877 305.876 354.533 306.293 355.023 306.875C355.513 307.457 355.813 308.175 355.883 308.933V309.318C355.883 311.374 353.528 313.044 350.573 313.044H337.082C334.127 313.044 331.771 311.374 331.771 309.318V308.933C331.833 308.179 332.124 307.462 332.607 306.879C333.09 306.297 333.74 305.877 334.47 305.678Z" fill="#514260"/>
<path d="M399.951 279.538C399.891 278.963 399.976 278.383 400.197 277.855C400.418 277.327 400.768 276.87 401.21 276.532C401.843 276.088 402.603 275.893 403.358 275.983C403.526 275.124 403.974 274.354 404.624 273.809C405.274 273.265 406.085 272.979 406.914 273.004C407.757 272.965 408.586 273.242 409.254 273.787C409.923 274.333 410.388 275.11 410.568 275.983C411.323 275.893 412.083 276.088 412.716 276.532C413.158 276.87 413.508 277.327 413.729 277.855C413.95 278.383 414.035 278.963 413.975 279.538C414.506 279.677 414.984 279.984 415.346 280.419C415.708 280.853 415.936 281.393 416 281.968V282.23C416 283.772 414.247 285 412.049 285H401.975C399.778 285 398 283.772 398 282.23V281.968C398.062 281.405 398.281 280.873 398.628 280.44C398.975 280.008 399.435 279.694 399.951 279.538Z" fill="#8C9AA8"/>
<path d="M391.525 280.502C391.45 280.018 391.501 279.522 391.673 279.065C391.844 278.608 392.13 278.207 392.5 277.903C392.99 277.553 393.584 277.396 394.175 277.461C394.284 276.773 394.624 276.149 395.134 275.698C395.645 275.247 396.293 275 396.962 275C397.632 275 398.28 275.247 398.791 275.698C399.301 276.149 399.641 276.773 399.75 277.461C400.341 277.396 400.935 277.553 401.425 277.903C401.794 278.209 402.08 278.609 402.255 279.065C402.431 279.521 402.489 280.016 402.425 280.502C402.851 280.632 403.23 280.892 403.511 281.25C403.792 281.607 403.962 282.044 404 282.504V282.712C404 283.986 402.625 285 400.9 285H393.1C391.375 285 390 283.986 390 282.712V282.504C390.034 282.051 390.197 281.618 390.469 281.261C390.741 280.905 391.108 280.641 391.525 280.502Z" fill="#514260"/>
<path d="M441.18 315.162C441.049 314.111 441.162 313.043 441.511 312.042C441.86 311.042 442.436 310.134 443.193 309.389C443.951 308.644 444.87 308.083 445.88 307.748C446.891 307.412 447.965 307.313 449.02 307.456C449.431 305.594 450.479 303.932 451.986 302.755C453.493 301.578 455.365 300.959 457.28 301.003C459.192 300.952 461.061 301.569 462.562 302.749C464.063 303.928 465.101 305.594 465.493 307.456C467.229 307.235 468.986 307.647 470.44 308.616C471.476 309.342 472.293 310.335 472.803 311.488C473.313 312.642 473.496 313.912 473.333 315.162C474.551 315.469 475.647 316.134 476.479 317.069C477.312 318.005 477.842 319.168 478 320.408V321.011C478 324.307 473.893 327 468.667 327H445.333C440.247 327 436 324.307 436 321.011V320.408C436.191 319.099 436.796 317.885 437.727 316.942C438.659 315.999 439.868 315.375 441.18 315.162Z" fill="#8C9AA8"/>
<path d="M421.633 316.947C421.506 315.904 421.64 314.845 422.023 313.87C422.406 312.895 423.025 312.036 423.822 311.373C424.915 310.571 426.26 310.214 427.595 310.372C427.879 308.86 428.67 307.497 429.83 306.517C430.99 305.536 432.448 305 433.953 305C435.458 305 436.916 305.536 438.077 306.517C439.237 307.497 440.027 308.86 440.311 310.372C441.662 310.211 443.023 310.567 444.131 311.373C444.93 312.036 445.553 312.894 445.944 313.868C446.335 314.842 446.48 315.901 446.367 316.947C447.347 317.225 448.22 317.803 448.87 318.604C449.519 319.405 449.913 320.389 450 321.426V321.902C450 324.713 446.833 327 442.967 327H425.08C421.167 327 418 324.713 418 321.902V321.426C418.093 320.391 418.49 319.41 419.138 318.611C419.787 317.811 420.656 317.231 421.633 316.947Z" fill="#514260"/>
</g>
</g>
<defs>
<clipPath id="clip0">
<rect width="768" height="695" fill="white"/>
</clipPath>
</defs>
</svg>
