<svg width="1063" height="603" viewBox="0 0 1063 603" fill="none" xmlns="http://www.w3.org/2000/svg">
<g opacity="0.1">
<path d="M233.496 325.616C233.496 318.221 237.727 312.203 242.98 312.203C248.232 312.203 252.494 318.191 252.494 325.616C252.494 333.041 242.98 349.568 242.98 349.568C242.98 349.568 233.496 333.011 233.496 325.616Z" fill="#404040"/>
<path d="M233.496 276.635C233.496 269.24 237.727 263.222 242.98 263.222C248.232 263.222 252.494 269.21 252.494 276.635C252.494 284.06 242.98 300.587 242.98 300.587C242.98 300.587 233.496 284.03 233.496 276.635Z" fill="#404040"/>
<path d="M233.496 227.413C233.496 219.988 237.727 214 242.98 214C248.232 214 252.494 219.988 252.494 227.413C252.494 234.838 242.98 251.365 242.98 251.365C242.98 251.365 233.496 234.958 233.496 227.413Z" fill="#404040"/>
<path d="M204.983 291.844C202.672 284.808 204.983 277.772 209.875 276.155C214.768 274.538 220.77 278.94 223.051 286.005C225.332 293.071 221.43 311.664 221.43 311.664C221.43 311.664 207.384 298.79 204.983 291.844Z" fill="#404040"/>
<path d="M189.977 245.167C187.696 238.131 189.977 231.125 194.869 229.479C199.761 227.832 205.764 232.263 208.075 239.299C210.386 246.335 206.364 264.898 206.364 264.898C206.364 264.898 192.198 252.203 189.977 245.167Z" fill="#404040"/>
<path d="M281.126 291.844C283.407 284.808 281.126 277.772 276.234 276.155C271.342 274.538 265.339 278.94 263.028 286.005C260.717 293.071 264.679 311.664 264.679 311.664C264.679 311.664 278.845 298.79 281.126 291.844Z" fill="#404040"/>
<path d="M296.313 245.167C298.594 238.131 296.313 231.125 291.421 229.479C286.529 227.832 280.526 232.263 278.215 239.299C275.904 246.335 280.016 264.898 280.016 264.898C280.016 264.898 294.002 252.203 296.313 245.167Z" fill="#404040"/>
<path d="M285.808 546.333H202.312C201.468 546.333 200.659 545.999 200.063 545.404C199.466 544.808 199.131 544.001 199.131 543.16C199.131 542.318 199.466 541.511 200.063 540.915C200.659 540.32 201.468 539.986 202.312 539.986H285.808C286.652 539.986 287.461 540.32 288.058 540.915C288.654 541.511 288.99 542.318 288.99 543.16C288.99 544.001 288.654 544.808 288.058 545.404C287.461 545.999 286.652 546.333 285.808 546.333Z" fill="#404040"/>
<path d="M269.631 417.741H218.609C217.765 417.741 216.956 417.407 216.36 416.812C215.763 416.217 215.428 415.409 215.428 414.568C215.428 413.726 215.763 412.919 216.36 412.324C216.956 411.728 217.765 411.394 218.609 411.394H269.631C270.475 411.394 271.284 411.728 271.881 412.324C272.477 412.919 272.813 413.726 272.813 414.568C272.813 415.409 272.477 416.217 271.881 416.812C271.284 417.407 270.475 417.741 269.631 417.741Z" fill="#404040"/>
<path d="M203.873 541.752C203.242 541.767 202.621 541.595 202.087 541.26C201.554 540.925 201.131 540.44 200.872 539.866C200.698 539.485 200.601 539.074 200.589 538.655C200.576 538.237 200.648 537.821 200.799 537.43C200.95 537.04 201.177 536.684 201.468 536.382C201.759 536.08 202.107 535.84 202.492 535.674L283.017 499.836C283.789 499.491 284.667 499.466 285.458 499.766C286.249 500.066 286.888 500.668 287.234 501.438C287.58 502.208 287.606 503.084 287.304 503.873C287.003 504.662 286.4 505.299 285.628 505.645L205.253 541.573C204.812 541.732 204.341 541.794 203.873 541.752Z" fill="#404040"/>
<path d="M284.278 465.136C283.968 465.913 283.365 466.537 282.597 466.872L272.302 471.483L212.036 498.429L208.135 500.166C207.721 500.354 207.269 500.446 206.814 500.435C206.114 500.403 205.445 500.142 204.909 499.693C204.373 499.243 204.001 498.629 203.85 497.946C203.7 497.264 203.779 496.551 204.077 495.918C204.374 495.286 204.872 494.769 205.493 494.447L213.087 491.064L271.342 465.106L280.016 461.064C280.674 460.776 281.411 460.716 282.108 460.895C282.804 461.075 283.421 461.482 283.857 462.052L284.278 465.136Z" fill="#404040"/>
<path d="M212.186 465.495C211.496 465.441 210.842 465.163 210.325 464.705C209.807 464.246 209.453 463.631 209.318 462.954C209.182 462.277 209.271 461.574 209.572 460.952C209.873 460.33 210.37 459.822 210.986 459.507L274.613 431.064C275.369 430.806 276.194 430.838 276.927 431.153C277.661 431.469 278.25 432.046 278.58 432.771C278.91 433.497 278.957 434.319 278.712 435.078C278.467 435.836 277.947 436.476 277.255 436.873L213.477 465.495C213.051 465.579 212.613 465.579 212.186 465.495Z" fill="#404040"/>
<path d="M277.405 416.663C277.102 417.015 276.722 417.292 276.294 417.472L265.339 422.352L219.99 442.621L214.497 445.046C214.083 445.235 213.632 445.327 213.177 445.316C212.545 445.338 211.92 445.17 211.385 444.834C210.85 444.498 210.428 444.008 210.176 443.43C209.849 442.658 209.835 441.789 210.137 441.007C210.439 440.225 211.034 439.591 211.796 439.238L220.8 435.166L264.379 415.795L273.683 411.604C274.163 411.381 274.693 411.288 275.22 411.335C275.747 411.383 276.252 411.568 276.684 411.873L277.405 416.663Z" fill="#404040"/>
<path d="M284.218 541.752C283.774 541.749 283.335 541.658 282.927 541.483L202.582 505.555C202.2 505.386 201.855 505.143 201.566 504.841C201.278 504.539 201.052 504.183 200.902 503.794C200.751 503.405 200.679 502.99 200.689 502.573C200.7 502.156 200.792 501.745 200.962 501.363C201.131 500.982 201.374 500.638 201.677 500.35C201.98 500.062 202.337 499.837 202.727 499.687C203.117 499.537 203.533 499.465 203.951 499.475C204.369 499.485 204.781 499.578 205.163 499.747L285.538 535.675C285.935 535.825 286.296 536.058 286.596 536.358C286.896 536.657 287.129 537.017 287.279 537.413C287.429 537.81 287.494 538.233 287.468 538.656C287.442 539.079 287.326 539.491 287.129 539.866C286.879 540.428 286.471 540.905 285.954 541.24C285.437 541.575 284.834 541.753 284.218 541.752Z" fill="#404040"/>
<path d="M280.016 500.376C279.568 500.38 279.125 500.277 278.725 500.076L206.904 468.13C206.522 467.959 206.177 467.715 205.889 467.411C205.602 467.107 205.377 466.75 205.228 466.359C205.079 465.968 205.008 465.552 205.02 465.134C205.033 464.717 205.127 464.305 205.299 463.924C205.47 463.543 205.715 463.199 206.02 462.912C206.324 462.625 206.683 462.401 207.074 462.252C207.466 462.103 207.883 462.033 208.302 462.045C208.721 462.057 209.133 462.151 209.515 462.322L281.186 494.268C281.786 494.603 282.262 495.12 282.545 495.745C282.829 496.369 282.903 497.068 282.759 497.738C282.615 498.408 282.258 499.014 281.743 499.467C281.228 499.921 280.58 500.197 279.896 500.256L280.016 500.376Z" fill="#404040"/>
<path d="M274.974 464.118C274.53 464.115 274.091 464.023 273.683 463.848L211.826 436.274C211.444 436.103 211.099 435.858 210.812 435.554C210.524 435.25 210.299 434.893 210.15 434.502C210.001 434.112 209.93 433.696 209.943 433.278C209.955 432.86 210.049 432.449 210.221 432.067C210.392 431.686 210.637 431.342 210.942 431.055C211.247 430.768 211.605 430.544 211.996 430.395C212.388 430.246 212.805 430.176 213.224 430.188C213.643 430.2 214.055 430.294 214.437 430.465L276.294 458.04C276.916 458.362 277.414 458.879 277.711 459.512C278.008 460.144 278.088 460.857 277.937 461.54C277.787 462.222 277.415 462.836 276.879 463.286C276.343 463.736 275.673 463.997 274.974 464.028V464.118Z" fill="#404040"/>
<path d="M272.873 444.028C272.429 444.025 271.99 443.933 271.582 443.759L213.987 418.04C213.215 417.695 212.612 417.057 212.311 416.269C212.01 415.48 212.035 414.604 212.381 413.834C212.728 413.063 213.366 412.462 214.157 412.161C214.948 411.861 215.826 411.886 216.598 412.232L274.223 437.95C274.843 438.27 275.341 438.785 275.639 439.415C275.937 440.045 276.019 440.755 275.872 441.436C275.725 442.117 275.358 442.731 274.827 443.183C274.295 443.636 273.63 443.901 272.933 443.938L272.873 444.028Z" fill="#404040"/>
<path d="M194.029 586.243H193.128C191.452 585.998 189.94 585.102 188.923 583.751C187.905 582.4 187.464 580.702 187.696 579.027L218.939 358.46C219.011 357.594 219.26 356.751 219.67 355.984C220.08 355.217 220.642 354.542 221.324 354C222.005 353.458 222.79 353.06 223.63 352.832C224.471 352.603 225.35 352.549 226.212 352.671C227.075 352.794 227.904 353.091 228.647 353.545C229.39 353.998 230.033 354.599 230.535 355.309C231.037 356.02 231.388 356.825 231.567 357.676C231.746 358.526 231.749 359.405 231.575 360.256L200.361 580.764C200.139 582.282 199.377 583.671 198.215 584.676C197.052 585.682 195.567 586.238 194.029 586.243Z" fill="#404040"/>
<path d="M295.022 586.184H294.122C292.59 586.184 291.109 585.634 289.951 584.633C288.793 583.632 288.036 582.248 287.819 580.734L272.302 471.484L271.342 464.927L265.339 422.352L264.379 415.795L256.516 360.257C256.339 359.403 256.339 358.522 256.517 357.668C256.695 356.814 257.047 356.006 257.551 355.293C258.054 354.58 258.699 353.978 259.445 353.523C260.191 353.069 261.023 352.772 261.889 352.651C262.755 352.53 263.636 352.587 264.479 352.82C265.321 353.052 266.107 353.454 266.788 354.001C267.469 354.549 268.029 355.229 268.436 356.002C268.842 356.774 269.086 357.621 269.151 358.49L276.744 411.933L277.405 416.664L283.827 462.053L284.278 465.047L300.395 578.818C300.535 579.655 300.508 580.511 300.313 581.337C300.118 582.162 299.76 582.941 299.259 583.627C298.759 584.312 298.127 584.892 297.399 585.331C296.671 585.77 295.863 586.06 295.022 586.184Z" fill="#404040"/>
<path d="M244 586.243C240.999 586.243 238.598 584.806 238.598 583.069V362.532C238.598 360.795 240.999 359.358 244 359.358C247.002 359.358 249.403 360.795 249.403 362.532V583.069C249.433 584.806 247.002 586.243 244 586.243Z" fill="#404040"/>
<path d="M274.824 351.125H213.297C210.38 351.125 208.015 353.484 208.015 356.394V365.586C208.015 368.496 210.38 370.855 213.297 370.855H274.824C277.741 370.855 280.106 368.496 280.106 365.586V356.394C280.106 353.484 277.741 351.125 274.824 351.125Z" fill="#404040"/>
<path d="M348.836 564.058H137.124C132.085 564.058 128 568.133 128 573.159V593.698C128 598.725 132.085 602.8 137.124 602.8H348.836C353.875 602.8 357.96 598.725 357.96 593.698V573.159C357.96 568.133 353.875 564.058 348.836 564.058Z" fill="#404040"/>
<path d="M431.694 320.683L403.205 325.73C402.575 325.845 402.017 326.205 401.652 326.732L391.953 340.944C391.953 340.944 391.953 340.944 391.754 341.187L386.553 348.165L384.42 346.674L372.906 363.146L374.565 364.305L368.038 373.18C367.522 373.901 367.308 374.796 367.442 375.673L376.656 427.685C376.859 428.531 377.377 429.267 378.105 429.743C378.833 430.219 379.715 430.398 380.571 430.245L448.354 418.237C449.21 418.087 449.977 417.615 450.497 416.918C451.017 416.221 451.251 415.352 451.151 414.488L434.862 322.544C434.806 322.198 434.674 321.868 434.476 321.578C434.278 321.289 434.018 321.046 433.716 320.869C433.413 320.691 433.075 320.582 432.726 320.55C432.377 320.518 432.024 320.563 431.694 320.683ZM405.005 330.222L430.172 325.763L431.498 333.246L399.049 338.995L405.005 330.222ZM433.926 363.168C434.011 363.63 433.991 364.105 433.867 364.558C433.744 365.012 433.52 365.431 433.213 365.786L440.822 408.738C440.98 409.628 440.778 410.545 440.26 411.285C439.742 412.026 438.951 412.531 438.061 412.688L387.727 421.606C386.837 421.763 385.921 421.561 385.18 421.043C384.439 420.525 383.934 419.734 383.777 418.844L376.917 380.121C376.833 379.663 376.843 379.194 376.947 378.741C377.052 378.288 377.247 377.861 377.523 377.487L382.89 370.272L394.872 354.098L395.16 353.77C395.408 353.421 395.723 353.125 396.088 352.9C396.452 352.675 396.858 352.525 397.281 352.459L423.824 347.757L423.33 344.972C423.182 344.135 423.372 343.274 423.859 342.578C424.346 341.881 425.089 341.407 425.926 341.259L426.631 341.134C427.467 340.986 428.328 341.176 429.025 341.663C429.721 342.149 430.196 342.893 430.344 343.729L433.926 363.168Z" fill="#404040"/>
<path d="M430.602 366.875C429.767 366.972 428.925 366.758 428.239 366.273C427.552 365.787 427.069 365.065 426.883 364.246L424.303 349.682L397.76 354.384C397.578 354.415 397.405 354.481 397.25 354.58C397.095 354.679 396.962 354.808 396.858 354.96L396.631 355.242L384.643 371.383L379.383 378.613C379.154 378.938 379.064 379.34 379.131 379.731L385.962 418.287C385.994 418.47 386.063 418.646 386.164 418.802C386.265 418.959 386.397 419.093 386.551 419.198C386.705 419.303 386.878 419.376 387.061 419.413C387.244 419.45 387.432 419.45 387.615 419.413L437.949 410.496C438.13 410.464 438.302 410.397 438.457 410.298C438.612 410.199 438.745 410.071 438.85 409.921C438.956 409.77 439.03 409.601 439.07 409.421C439.109 409.242 439.113 409.057 439.081 408.876L431.603 366.663L430.596 366.841L430.602 366.875ZM411.451 408.614C405.867 409.565 400.128 408.416 395.34 405.388C390.553 402.36 387.056 397.667 385.522 392.213C383.989 386.76 384.528 380.932 387.035 375.853C389.543 370.773 393.842 366.801 399.103 364.702C400.508 364.146 401.966 363.737 403.455 363.481C406.471 362.826 409.588 362.787 412.62 363.365C415.652 363.943 418.535 365.127 421.099 366.846C423.662 368.565 425.852 370.784 427.537 373.369C429.222 375.955 430.368 378.854 430.907 381.893C431.445 384.932 431.365 388.048 430.67 391.055C429.976 394.062 428.681 396.898 426.865 399.393C425.048 401.888 422.747 403.991 420.098 405.576C417.45 407.16 414.508 408.194 411.451 408.614Z" fill="#404040"/>
<path d="M382.618 340.21L377.246 336.455C376.899 336.209 376.507 336.035 376.093 335.942C375.678 335.849 375.249 335.84 374.831 335.914C374.172 336.046 373.567 336.37 373.092 336.845L383.673 344.211C383.998 343.527 384.071 342.75 383.878 342.018C383.685 341.285 383.238 340.645 382.618 340.21Z" fill="#404040"/>
<path d="M372.567 345.039L379.677 350.009L382.797 345.545L383.404 344.676L382.797 345.545L382.466 346.019L375.355 341.049L371.834 338.558L372.745 337.254L368.984 342.593L369.045 342.548L372.567 345.039Z" fill="#404040"/>
<path d="M400.138 392.033C401.262 398.375 405.795 402.867 410.292 402.071C414.788 401.274 417.503 395.498 416.379 389.156C415.256 382.814 404.626 370.092 404.626 370.092C404.626 370.092 399.003 385.624 400.138 392.033ZM413.596 389.857C413.977 392.004 413.072 393.93 411.562 394.197C410.052 394.465 408.507 392.973 408.127 390.826C408.271 388.271 408.844 385.76 409.821 383.396C411.476 385.298 412.806 387.459 413.758 389.793L413.596 389.857Z" fill="#404040"/>
<path d="M469 161.497C469 177.806 459.62 191 448 191C436.38 191 427 177.806 427 161.497C427 145.188 448 109 448 109C448 109 469 145.188 469 161.497Z" fill="#404040"/>
<path d="M72.062 263.91C71.9294 263.557 71.7733 263.214 71.5945 262.882L50.6863 216.69L54.0193 193.304C54.0962 192.688 54.0771 192.064 53.9626 191.454C54.5294 191.417 55.0609 191.166 55.4502 190.752C55.8395 190.339 56.0576 189.793 56.0608 189.225C56.0639 188.657 55.8517 188.109 55.467 187.692C55.0823 187.274 54.5536 187.017 53.9873 186.974L40.3844 185.035C40.0924 184.993 39.7951 185.01 39.5094 185.083C39.2237 185.156 38.9552 185.285 38.7193 185.462C38.4834 185.639 38.2847 185.861 38.1345 186.115C37.9843 186.369 37.8856 186.65 37.844 186.942C37.7634 187.489 37.8905 188.048 38.2004 188.507C38.5103 188.966 38.9806 189.292 39.5189 189.422C39.2484 189.97 39.0657 190.556 38.9777 191.16L35.4545 215.881L3.51288 253.099L3.3261 253.286C3.12405 253.493 2.94032 253.717 2.777 253.955C1.87007 255.257 1.28994 256.758 1.08565 258.332C0.851684 259.869 0.974962 261.439 1.44592 262.921C1.65373 263.848 2.12346 264.697 2.79932 265.366C3.47519 266.035 4.3288 266.496 5.25878 266.694L66.2624 275.388C67.1687 275.446 68.0737 275.254 68.8778 274.832C69.6819 274.41 70.3541 273.774 70.8206 272.995C71.6867 271.704 72.2437 270.23 72.4484 268.689C72.7139 267.088 72.5812 265.447 72.062 263.91ZM46.7752 187.2L52.818 188.061C53.1094 188.103 53.3724 188.259 53.5491 188.494C53.7257 188.729 53.8017 189.025 53.7601 189.317C53.7312 189.536 53.6269 189.738 53.4651 189.889C53.3524 190.032 53.2043 190.144 53.0354 190.214C52.8664 190.283 52.6824 190.308 52.5011 190.285L46.4583 189.424C46.1986 189.345 45.9756 189.176 45.8297 188.947C45.6838 188.718 45.6247 188.445 45.663 188.176C45.7013 187.907 45.8345 187.661 46.0385 187.482C46.2425 187.303 46.5038 187.203 46.7752 187.2ZM10.4779 251.423L26.1217 232.674L34.4666 222.813L37.6976 218.869L38.9491 217.58L42.6773 191.42C42.7184 190.946 42.7856 190.475 42.8786 190.008L50.491 191.093C50.4499 191.567 50.3827 192.039 50.2896 192.505L46.5204 218.953L49.3476 225.334L54.3439 236.722L64.2615 259.088C64.4322 259.371 64.5773 259.669 64.6953 259.977C65.1713 261.235 65.272 262.604 64.9853 263.919C64.6985 265.233 64.0365 266.435 63.0797 267.381L9.29602 259.715C8.64134 258.541 8.3417 257.201 8.43346 255.859C8.52521 254.517 9.00442 253.231 9.81294 252.156C10.0124 251.892 10.2349 251.647 10.4779 251.423Z" fill="#404040"/>
<path d="M62.5694 265.733C63.2161 264.881 63.6052 263.862 63.691 262.796C63.7767 261.729 63.5554 260.661 63.0532 259.717L53.5507 238.184L26.7373 234.363L11.5978 252.383C10.8424 253.143 10.3231 254.105 10.1027 255.154C9.88218 256.202 9.96995 257.292 10.3554 258.292L62.5694 265.733ZM48.9565 244.576L49.375 244.635C51.0193 244.87 52.5031 245.748 53.5001 247.076C54.4971 248.404 54.9255 250.074 54.6912 251.719L54.6353 252.111C54.4009 253.755 53.523 255.239 52.1946 256.236C50.8662 257.233 49.1962 257.662 47.5519 257.427L47.1334 257.368C45.4891 257.133 44.0052 256.255 43.0083 254.927C42.0113 253.599 41.5828 251.929 41.8172 250.284L41.8731 249.892C42.1074 248.248 42.9854 246.764 44.3138 245.767C45.6421 244.77 47.3122 244.341 48.9565 244.576Z" fill="#404040"/>
<path d="M42.4691 226.622C42.7199 226.658 42.9753 226.644 43.2206 226.581C43.466 226.518 43.6965 226.408 43.8991 226.256C44.1017 226.104 44.2724 225.913 44.4014 225.695C44.5304 225.477 44.6152 225.236 44.6509 224.985L48.1368 200.526C48.2089 200.02 48.077 199.505 47.7699 199.096C47.4628 198.687 47.0058 198.416 46.4993 198.344C45.9928 198.272 45.4784 198.404 45.0693 198.711C44.6601 199.018 44.3897 199.475 44.3175 199.982L40.8205 224.519C40.7705 225.015 40.9142 225.511 41.2215 225.903C41.5288 226.295 41.9759 226.553 42.4691 226.622Z" fill="#404040"/>
</g>
<circle opacity="0.2" cx="793" cy="270" r="270" fill="#4B0731"/>
<circle cx="793" cy="270" r="243" fill="#936A83"/>
<mask id="mask0" mask-type="alpha" maskUnits="userSpaceOnUse" x="550" y="27" width="486" height="486">
<circle cx="793" cy="270" r="243" fill="#936A83"/>
</mask>
<g mask="url(#mask0)">
<path d="M961.89 190.756C961.89 184.996 958.587 180.319 954.517 180.319C950.448 180.319 947.145 184.996 947.145 190.756C947.145 196.516 954.517 209.253 954.517 209.253C954.517 209.253 961.89 196.49 961.89 190.756Z" fill="#514260"/>
<path d="M961.89 152.655C961.89 146.894 958.587 142.217 954.517 142.217C950.448 142.217 947.145 146.894 947.145 152.655C947.145 158.415 954.517 171.151 954.517 171.151C954.517 171.151 961.89 158.389 961.89 152.655Z" fill="#514260"/>
<path d="M961.89 114.367C961.89 108.606 958.587 103.929 954.517 103.929C950.448 103.929 947.145 108.606 947.145 114.499C947.145 120.391 954.517 132.995 954.517 132.995C954.517 132.995 961.89 120.127 961.89 114.367Z" fill="#514260"/>
<path d="M925.105 164.411C926.902 169.881 937.894 179.816 937.894 179.816C937.894 179.816 940.933 165.31 939.162 159.84C937.392 154.37 932.794 150.962 928.91 152.204C925.026 153.445 923.334 158.942 925.105 164.411Z" fill="#514260"/>
<path d="M926.109 143.591C926.109 143.591 929.148 129.084 927.378 123.614C925.607 118.145 921.01 114.709 917.125 115.978C913.241 117.246 911.55 122.689 913.347 128.291C915.144 133.893 926.109 143.591 926.109 143.591Z" fill="#514260"/>
<path d="M984.11 164.411C985.88 158.942 984.11 153.472 980.305 152.204C976.5 150.935 971.849 154.37 970.079 159.84C968.309 165.31 971.347 179.816 971.347 179.816C971.347 179.816 982.313 169.881 984.11 164.411Z" fill="#514260"/>
<path d="M995.867 128.29C997.664 122.794 995.867 117.351 992.089 116.083C988.31 114.814 983.633 118.249 981.836 123.719C980.039 129.189 983.131 143.695 983.131 143.695C983.131 143.695 994.097 133.575 995.867 128.29Z" fill="#514260"/>
<path d="M1036.53 376.197H997.428L986.541 299.225L986.198 296.846L981.204 261.544L980.702 257.845L976.183 226.057H979.222C980.308 226.057 981.35 225.626 982.118 224.858C982.886 224.09 983.318 223.048 983.318 221.962V214.669C983.321 214.13 983.217 213.596 983.013 213.097C982.808 212.599 982.507 212.146 982.126 211.765C981.745 211.384 981.292 211.082 980.793 210.878C980.295 210.673 979.761 210.57 979.222 210.573H931.474C930.935 210.57 930.401 210.673 929.903 210.878C929.404 211.082 928.951 211.384 928.57 211.765C928.189 212.146 927.888 212.599 927.683 213.097C927.479 213.596 927.375 214.13 927.379 214.669V221.83C927.361 222.378 927.454 222.925 927.652 223.438C927.849 223.95 928.148 224.417 928.53 224.811C928.913 225.206 929.37 225.519 929.876 225.733C930.381 225.948 930.925 226.058 931.474 226.057H934.513L913.374 376.329H872.391C870.517 376.329 868.72 377.071 867.393 378.394C866.065 379.716 865.316 381.51 865.309 383.384V399.37C865.309 400.299 865.493 401.219 865.849 402.076C866.205 402.934 866.727 403.713 867.385 404.368C868.043 405.024 868.824 405.543 869.683 405.896C870.542 406.249 871.462 406.429 872.391 406.426H1036.53C1037.46 406.429 1038.38 406.249 1039.24 405.896C1040.1 405.542 1040.88 405.023 1041.53 404.367C1042.19 403.711 1042.71 402.932 1043.06 402.074C1043.41 401.217 1043.59 400.298 1043.59 399.37V383.384C1043.61 382.447 1043.44 381.515 1043.09 380.644C1042.74 379.772 1042.23 378.979 1041.57 378.31C1040.91 377.641 1040.13 377.109 1039.27 376.746C1038.4 376.383 1037.47 376.197 1036.53 376.197ZM930.497 325.067L951.133 315.898V337.83L929.994 328.396L930.47 325.067H930.497ZM934.275 298.22L951.133 290.69V307.152L934.117 299.542L934.275 298.22ZM936.627 281.732L938.979 280.675L950.182 285.669L935.121 292.434L936.627 281.732ZM980.675 328.396L959.536 337.856V316.321L980.305 325.595L980.675 328.396ZM959.536 289.844L976.289 297.401L976.527 299.145L959.51 306.755L959.536 289.844ZM974.069 281.415L975.496 291.535L962.284 285.669L972.854 280.913L974.069 281.415ZM959.536 281.415V274.941L966.882 278.218L959.536 281.415ZM951.16 280.596L945.082 277.954L951.16 275.311V280.596ZM929.334 333.443L949.337 342.322L926.665 352.442L929.334 333.443ZM981.415 333.443L984.057 352.495L961.412 342.322L981.415 333.443ZM979.486 319.756L960.99 311.432L977.372 304.113L979.486 319.756ZM973.118 275.364H972.854L961.676 270.37L971.797 265.851L973.118 275.364ZM959.457 266.063V262.39H967.833L959.457 266.063ZM951.133 265.693L943.576 262.311H951.133V265.693ZM949.601 270.423L939.031 275.153L937.684 274.545L938.767 265.693L949.601 270.423ZM948.729 311.406L931.316 319.333L933.377 304.694L948.729 311.406ZM951.133 346.946V357.515H927.643L951.133 346.946ZM959.51 346.946L983.053 357.515H959.51V346.946ZM970.634 257.396H959.51V226.057H966.195L970.634 257.396ZM951.133 226.057V257.449H940.062L944.501 226.057H951.133ZM925.212 362.589H951.133V376.329H923.283L925.212 362.589ZM959.563 376.329V362.589H985.537L987.466 376.329H959.563Z" fill="#514260"/>
<path d="M864.067 157.911C864.067 170.224 856.986 180.186 848.213 180.186C839.44 180.186 832.359 170.224 832.359 157.911C832.359 145.597 848.213 118.275 848.213 118.275C848.213 118.275 864.067 145.597 864.067 157.911Z" fill="#514260"/>
<path d="M738.793 358.176H649.903C645.514 358.169 641.307 356.42 638.205 353.314C635.104 350.207 633.362 345.997 633.362 341.608V335.134C633.359 332.958 633.784 330.803 634.613 328.792C635.443 326.781 636.66 324.952 638.196 323.411C639.732 321.87 641.556 320.647 643.565 319.811C645.574 318.975 647.728 318.544 649.903 318.54H738.793C743.182 318.547 747.389 320.296 750.491 323.402C753.592 326.508 755.334 330.718 755.334 335.108V341.529C755.344 343.709 754.924 345.87 754.098 347.887C753.272 349.905 752.055 351.739 750.519 353.286C748.982 354.832 747.155 356.06 745.143 356.899C743.131 357.738 740.973 358.172 738.793 358.176ZM649.903 324.089C646.974 324.089 644.165 325.253 642.093 327.324C640.022 329.395 638.858 332.205 638.858 335.134V341.529C638.858 344.458 640.022 347.267 642.093 349.339C644.165 351.41 646.974 352.574 649.903 352.574H738.793C741.717 352.567 744.52 351.4 746.586 349.329C748.651 347.259 749.811 344.453 749.811 341.529V335.134C749.811 332.209 748.651 329.404 746.586 327.333C744.52 325.263 741.717 324.096 738.793 324.089H649.903Z" fill="#C5D3E1"/>
<path d="M709.595 295.657V363.619C709.595 366.674 708.381 369.604 706.22 371.765C704.06 373.926 701.13 375.139 698.074 375.139H667.713C664.655 375.139 661.722 373.926 659.558 371.767C657.393 369.607 656.173 366.676 656.166 363.619V295.657C656.187 292.608 657.413 289.691 659.576 287.543C661.739 285.395 664.664 284.189 667.713 284.189H698.074C699.039 284.187 700 284.321 700.928 284.585C703.394 285.211 705.583 286.638 707.152 288.641C708.72 290.645 709.579 293.112 709.595 295.657Z" fill="#D6741D"/>
<path d="M667.579 383.175C667.572 383.956 667.257 384.702 666.703 385.251C666.149 385.8 665.4 386.108 664.62 386.108C663.842 386.108 663.096 385.799 662.546 385.249C661.996 384.699 661.687 383.953 661.687 383.175V368.748C661.686 367.968 661.995 367.219 662.544 366.665C663.093 366.11 663.839 365.796 664.62 365.789C665.008 365.789 665.393 365.865 665.752 366.014C666.111 366.163 666.437 366.381 666.712 366.655C666.987 366.93 667.205 367.256 667.354 367.616C667.502 367.975 667.579 368.359 667.579 368.748V383.175Z" fill="#7C8A98"/>
<path d="M704.202 383.175C704.202 383.953 703.893 384.699 703.343 385.249C702.793 385.799 702.047 386.108 701.269 386.108C700.881 386.112 700.497 386.039 700.138 385.893C699.779 385.747 699.453 385.531 699.178 385.259C698.902 384.986 698.684 384.662 698.535 384.304C698.386 383.946 698.309 383.563 698.309 383.175V368.748C698.306 368.361 698.379 367.976 698.525 367.618C698.671 367.259 698.886 366.932 699.159 366.657C699.432 366.382 699.756 366.163 700.114 366.014C700.471 365.865 700.855 365.789 701.242 365.789C701.631 365.789 702.016 365.865 702.375 366.014C702.734 366.163 703.06 366.381 703.335 366.655C703.61 366.93 703.828 367.256 703.976 367.616C704.125 367.975 704.202 368.359 704.202 368.748V383.175Z" fill="#7C8A98"/>
<path d="M713.978 365.919C713.978 366.62 713.7 367.292 713.204 367.787C712.709 368.283 712.037 368.561 711.336 368.561H654.419C653.718 368.561 653.046 368.283 652.551 367.787C652.055 367.292 651.777 366.62 651.777 365.919C651.777 365.218 652.055 364.546 652.551 364.051C653.046 363.555 653.718 363.277 654.419 363.277H711.336C711.683 363.277 712.026 363.345 712.347 363.478C712.667 363.611 712.959 363.805 713.204 364.051C713.45 364.296 713.644 364.587 713.777 364.908C713.91 365.228 713.978 365.572 713.978 365.919Z" fill="#7C8A98"/>
<path d="M701.272 287.386V346.311C701.272 347.916 700.955 349.506 700.34 350.989C699.725 352.472 698.823 353.819 697.687 354.953C696.551 356.087 695.202 356.985 693.718 357.597C692.233 358.209 690.643 358.522 689.038 358.519C687.431 358.526 685.84 358.215 684.354 357.604C682.868 356.994 681.518 356.095 680.381 354.96C679.244 353.826 678.342 352.477 677.728 350.993C677.114 349.509 676.8 347.917 676.804 346.311V287.386C676.776 286.308 676.9 285.232 677.174 284.189H697.969C698.934 284.187 699.895 284.321 700.823 284.585C701.086 285.497 701.237 286.438 701.272 287.386Z" fill="#F19B2C"/>
<path d="M713.978 297.4C713.978 298.101 713.7 298.773 713.204 299.269C712.709 299.764 712.037 300.043 711.336 300.043H654.419C653.718 300.043 653.046 299.764 652.551 299.269C652.055 298.773 651.777 298.101 651.777 297.4C651.777 296.7 652.055 296.028 652.551 295.532C653.046 295.036 653.718 294.758 654.419 294.758H711.336C711.683 294.758 712.026 294.826 712.347 294.959C712.667 295.092 712.959 295.287 713.204 295.532C713.45 295.777 713.644 296.069 713.777 296.389C713.91 296.71 713.978 297.053 713.978 297.4Z" fill="#7C8A98"/>
<path d="M718.68 302.818H696.669C692.28 302.811 688.073 301.063 684.971 297.957C681.87 294.85 680.128 290.64 680.128 286.251V250.949C680.128 246.562 681.871 242.354 684.973 239.252C688.075 236.15 692.282 234.407 696.669 234.407H718.68C719.409 234.407 720.108 234.697 720.623 235.212C721.139 235.728 721.428 236.427 721.428 237.156C721.428 237.884 721.139 238.583 720.623 239.099C720.108 239.614 719.409 239.904 718.68 239.904H696.669C693.745 239.911 690.942 241.077 688.876 243.148C686.811 245.219 685.651 248.024 685.651 250.949V286.251C685.637 287.708 685.911 289.153 686.458 290.504C687.006 291.854 687.815 293.083 688.839 294.12C689.863 295.156 691.082 295.98 692.426 296.543C693.77 297.106 695.212 297.398 696.669 297.402H718.68C719.413 297.402 720.115 297.692 720.633 298.21C721.151 298.728 721.441 299.43 721.441 300.163C721.441 300.895 721.151 301.598 720.633 302.115C720.115 302.633 719.413 302.924 718.68 302.924V302.818Z" fill="#C5D3E1"/>
<path d="M871.681 266.011H855.826C855.094 266.011 854.392 265.72 853.874 265.202C853.356 264.684 853.065 263.982 853.065 263.25C853.065 262.517 853.356 261.815 853.874 261.297C854.392 260.779 855.094 260.488 855.826 260.488H871.681C874.61 260.488 877.419 259.325 879.491 257.253C881.562 255.182 882.726 252.373 882.726 249.443V247.832C882.719 244.907 881.552 242.104 879.481 240.039C877.411 237.973 874.605 236.813 871.681 236.813H855.826C855.094 236.813 854.392 236.522 853.874 236.004C853.356 235.486 853.065 234.784 853.065 234.052C853.065 233.319 853.356 232.617 853.874 232.099C854.392 231.581 855.094 231.29 855.826 231.29H871.681C876.065 231.297 880.269 233.042 883.369 236.143C886.47 239.243 888.215 243.447 888.222 247.832V249.443C888.222 253.833 886.48 258.043 883.379 261.149C880.277 264.255 876.07 266.004 871.681 266.011Z" fill="#C5D3E1"/>
<path d="M864.224 325.808H855.848C855.116 325.808 854.413 325.517 853.895 324.999C853.377 324.481 853.087 323.779 853.087 323.046C853.087 322.314 853.377 321.612 853.895 321.094C854.413 320.576 855.116 320.285 855.848 320.285H864.224C865.425 320.278 866.574 319.796 867.421 318.945C868.267 318.093 868.743 316.941 868.743 315.74V314.895C868.736 313.698 868.257 312.553 867.411 311.707C866.566 310.861 865.42 310.383 864.224 310.376H855.848C855.116 310.376 854.413 310.085 853.895 309.567C853.377 309.049 853.087 308.347 853.087 307.615C853.087 306.882 853.377 306.18 853.895 305.662C854.413 305.144 855.116 304.854 855.848 304.854H864.224C866.887 304.854 869.441 305.911 871.324 307.794C873.207 309.678 874.265 312.232 874.265 314.895V315.74C874.265 318.406 873.208 320.962 871.326 322.85C869.443 324.737 866.89 325.801 864.224 325.808Z" fill="#C5D3E1"/>
<path d="M864.224 348.797H855.848C855.116 348.797 854.413 348.507 853.895 347.989C853.377 347.471 853.087 346.769 853.087 346.036C853.087 345.304 853.377 344.602 853.895 344.084C854.413 343.566 855.116 343.275 855.848 343.275H864.224C865.422 343.275 866.572 342.799 867.419 341.951C868.267 341.104 868.743 339.955 868.743 338.756V337.911C868.743 336.71 868.267 335.558 867.421 334.706C866.574 333.855 865.425 333.373 864.224 333.366H855.848C855.119 333.366 854.42 333.076 853.905 332.561C853.389 332.046 853.1 331.347 853.1 330.618C853.1 329.889 853.389 329.19 853.905 328.675C854.42 328.159 855.119 327.87 855.848 327.87H864.224C866.887 327.87 869.441 328.928 871.324 330.811C873.207 332.694 874.265 335.248 874.265 337.911V338.756C874.265 341.419 873.207 343.973 871.324 345.857C869.441 347.74 866.887 348.797 864.224 348.797Z" fill="#C5D3E1"/>
<path d="M864.224 371.813H855.848C855.115 371.813 854.413 371.522 853.895 371.005C853.377 370.487 853.087 369.784 853.087 369.052C853.087 368.32 853.377 367.617 853.895 367.1C854.413 366.582 855.115 366.291 855.848 366.291H864.224C865.42 366.284 866.566 365.806 867.411 364.96C868.257 364.114 868.736 362.969 868.743 361.772V360.821C868.736 359.625 868.257 358.48 867.411 357.634C866.566 356.788 865.42 356.31 864.224 356.303H855.848C855.115 356.303 854.413 356.012 853.895 355.494C853.377 354.976 853.087 354.274 853.087 353.541C853.087 352.809 853.377 352.107 853.895 351.589C854.413 351.071 855.115 350.78 855.848 350.78H864.224C866.885 350.787 869.435 351.847 871.316 353.729C873.198 355.61 874.258 358.16 874.265 360.821V361.693C874.272 363.017 874.018 364.33 873.517 365.556C873.015 366.782 872.277 367.896 871.345 368.837C870.412 369.777 869.303 370.524 868.081 371.034C866.859 371.545 865.548 371.81 864.224 371.813Z" fill="#C5D3E1"/>
<path d="M814.576 381.616C814.576 384.602 798.193 387.244 795.181 387.244H780.595C777.556 387.244 761.306 384.787 761.306 381.721L762.284 367.505L763.473 351.044L765.402 323.51L766.564 307.233L768.493 279.805L769.656 263.264L771.611 235.863L772.774 219.374L775.099 186.609C775.106 185.156 775.688 183.765 776.718 182.74C777.748 181.715 779.142 181.139 780.595 181.139H795.181C796.639 181.139 798.037 181.718 799.067 182.749C800.098 183.78 800.677 185.178 800.677 186.635L803.003 219.401L804.165 235.889L806.147 263.29L807.283 279.726L809.291 307.101L810.454 323.563L812.383 350.938L813.572 367.4L814.576 381.616Z" fill="#F19B2C"/>
<path d="M804.165 235.861H771.611L772.773 219.399H803.028L804.165 235.861Z" fill="#F7B23F"/>
<path d="M807.282 279.698H768.492L769.654 263.262H806.145L807.282 279.698Z" fill="#F7B23F"/>
<path d="M810.374 323.562H767.013C766.436 323.563 765.861 323.51 765.295 323.403L766.458 307.126H809.29L810.374 323.562Z" fill="#F7B23F"/>
<path d="M813.493 367.398H762.284L763.473 350.936H812.304L813.493 367.398Z" fill="#F7B23F"/>
<path d="M835.927 222.437C835.568 222.438 835.213 222.365 834.884 222.224C834.554 222.083 834.257 221.877 834.01 221.617C833.763 221.358 833.571 221.051 833.446 220.715C833.321 220.379 833.266 220.021 833.284 219.663V211.868C833.284 208.939 832.121 206.129 830.049 204.058C827.978 201.987 825.169 200.823 822.239 200.823H754.357C752.9 200.812 751.455 201.09 750.106 201.641C748.756 202.191 747.529 203.003 746.495 204.03C745.461 205.056 744.641 206.278 744.081 207.623C743.521 208.968 743.232 210.411 743.232 211.868V219.663C743.232 220.392 742.943 221.091 742.427 221.606C741.912 222.121 741.213 222.411 740.484 222.411C739.755 222.411 739.056 222.121 738.541 221.606C738.026 221.091 737.736 220.392 737.736 219.663V211.868C737.736 207.479 739.478 203.268 742.579 200.162C745.681 197.056 749.888 195.307 754.277 195.3H822.054C826.444 195.307 830.651 197.056 833.752 200.162C836.854 203.268 838.595 207.479 838.595 211.868V219.663C838.613 220.023 838.558 220.383 838.431 220.721C838.305 221.059 838.111 221.367 837.861 221.627C837.611 221.887 837.31 222.093 836.978 222.232C836.645 222.372 836.287 222.441 835.927 222.437Z" fill="#C5D3E1"/>
<path d="M788.629 121.738C789.474 121.738 800.202 133.179 793.913 147.95C787.625 162.721 788.153 174.374 788.999 174.215C787.387 174.215 773.144 162.404 783.714 148.03C794.283 133.655 790.267 121.764 788.629 121.738Z" fill="#7C8A98"/>
<path d="M772.827 233.457V372.789C772.827 376.438 771.382 379.938 768.806 382.524C766.231 385.109 762.736 386.568 759.087 386.582H732.663C729.005 386.582 725.497 385.129 722.91 382.542C720.323 379.955 718.87 376.447 718.87 372.789V233.457C718.867 231.644 719.221 229.849 719.913 228.174C720.605 226.499 721.621 224.977 722.902 223.696C724.184 222.414 725.706 221.398 727.381 220.706C729.056 220.015 730.851 219.66 732.663 219.664H759.087C762.732 219.691 766.219 221.155 768.791 223.737C771.363 226.32 772.814 229.812 772.827 233.457Z" fill="#8C9AA8"/>
<path d="M765.271 221.17V362.774C765.348 364.445 765.086 366.113 764.5 367.679C763.914 369.245 763.016 370.676 761.862 371.886C760.707 373.095 759.319 374.058 757.782 374.715C756.244 375.373 754.59 375.712 752.918 375.712C751.246 375.712 749.591 375.373 748.054 374.715C746.516 374.058 745.128 373.095 743.974 371.886C742.819 370.676 741.921 369.245 741.336 367.679C740.75 366.113 740.487 364.445 740.565 362.774V219.664H759.061C761.221 219.671 763.348 220.187 765.271 221.17Z" fill="#9CAAB8"/>
<path d="M777.133 245.294C777.133 245.995 776.855 246.667 776.359 247.163C775.864 247.658 775.192 247.937 774.491 247.937H717.574C716.874 247.937 716.201 247.658 715.706 247.163C715.21 246.667 714.932 245.995 714.932 245.294C714.932 244.593 715.21 243.921 715.706 243.426C716.201 242.93 716.874 242.652 717.574 242.652H774.491C775.192 242.652 775.864 242.93 776.359 243.426C776.855 243.921 777.133 244.593 777.133 245.294Z" fill="#9CAAB8"/>
<path d="M777.133 277.823C777.133 278.524 776.855 279.196 776.359 279.691C775.864 280.187 775.192 280.465 774.491 280.465H717.574C716.874 280.465 716.201 280.187 715.706 279.691C715.21 279.196 714.932 278.524 714.932 277.823C714.932 277.122 715.21 276.45 715.706 275.954C716.201 275.459 716.874 275.18 717.574 275.18H774.491C775.192 275.18 775.864 275.459 776.359 275.954C776.855 276.45 777.133 277.122 777.133 277.823Z" fill="#9CAAB8"/>
<path d="M777.133 310.377C777.133 311.078 776.855 311.75 776.359 312.245C775.864 312.741 775.192 313.019 774.491 313.019H717.574C716.874 313.019 716.201 312.741 715.706 312.245C715.21 311.75 714.932 311.078 714.932 310.377C714.932 309.676 715.21 309.004 715.706 308.509C716.201 308.013 716.874 307.735 717.574 307.735H774.491C775.192 307.735 775.864 308.013 776.359 308.509C776.855 309.004 777.133 309.676 777.133 310.377Z" fill="#9CAAB8"/>
<path d="M777.133 342.906C777.133 343.606 776.855 344.278 776.359 344.774C775.864 345.27 775.192 345.548 774.491 345.548H717.574C716.874 345.548 716.201 345.27 715.706 344.774C715.21 344.278 714.932 343.606 714.932 342.906C714.932 342.205 715.21 341.533 715.706 341.037C716.201 340.542 716.874 340.263 717.574 340.263H774.491C775.192 340.263 775.864 340.542 776.359 341.037C776.855 341.533 777.133 342.205 777.133 342.906Z" fill="#9CAAB8"/>
<path d="M855.85 233.457V372.789C855.85 376.447 854.397 379.955 851.81 382.542C849.223 385.129 845.715 386.582 842.057 386.582H815.474C811.816 386.582 808.308 385.129 805.721 382.542C803.134 379.955 801.681 376.447 801.681 372.789V233.457C801.678 231.644 802.032 229.849 802.724 228.174C803.416 226.499 804.432 224.977 805.713 223.696C806.995 222.414 808.517 221.398 810.192 220.706C811.867 220.015 813.662 219.66 815.474 219.664H842.057C845.711 219.678 849.211 221.135 851.795 223.719C854.378 226.303 855.836 229.803 855.85 233.457Z" fill="#8C9AA8"/>
<path d="M848.294 221.17V362.774C848.294 366.054 846.991 369.199 844.672 371.519C842.353 373.838 839.207 375.141 835.927 375.141C832.648 375.141 829.502 373.838 827.183 371.519C824.864 369.199 823.561 366.054 823.561 362.774V219.664H842.058C844.226 219.667 846.363 220.183 848.294 221.17Z" fill="#9CAAB8"/>
<path d="M860.157 245.294C860.157 245.995 859.878 246.667 859.383 247.163C858.887 247.658 858.215 247.937 857.514 247.937H800.598C799.897 247.937 799.225 247.658 798.729 247.163C798.234 246.667 797.955 245.995 797.955 245.294C797.955 244.593 798.234 243.921 798.729 243.426C799.225 242.93 799.897 242.652 800.598 242.652H857.514C858.215 242.652 858.887 242.93 859.383 243.426C859.878 243.921 860.157 244.593 860.157 245.294Z" fill="#9CAAB8"/>
<path d="M860.157 277.823C860.157 278.524 859.878 279.196 859.383 279.691C858.887 280.187 858.215 280.465 857.514 280.465H800.598C799.897 280.465 799.225 280.187 798.729 279.691C798.234 279.196 797.955 278.524 797.955 277.823C797.955 277.122 798.234 276.45 798.729 275.954C799.225 275.459 799.897 275.18 800.598 275.18H857.514C858.215 275.18 858.887 275.459 859.383 275.954C859.878 276.45 860.157 277.122 860.157 277.823Z" fill="#9CAAB8"/>
<path d="M860.157 310.377C860.157 311.078 859.878 311.75 859.383 312.245C858.887 312.741 858.215 313.019 857.514 313.019H800.598C799.897 313.019 799.225 312.741 798.729 312.245C798.234 311.75 797.955 311.078 797.955 310.377C797.955 309.676 798.234 309.004 798.729 308.509C799.225 308.013 799.897 307.735 800.598 307.735H857.514C858.215 307.735 858.887 308.013 859.383 308.509C859.878 309.004 860.157 309.676 860.157 310.377Z" fill="#9CAAB8"/>
<path d="M860.157 342.906C860.157 343.606 859.878 344.278 859.383 344.774C858.887 345.27 858.215 345.548 857.514 345.548H800.598C799.897 345.548 799.225 345.27 798.729 344.774C798.234 344.278 797.955 343.606 797.955 342.906C797.955 342.205 798.234 341.533 798.729 341.037C799.225 340.542 799.897 340.263 800.598 340.263H857.514C858.215 340.263 858.887 340.542 859.383 341.037C859.878 341.533 860.157 342.205 860.157 342.906Z" fill="#9CAAB8"/>
<path d="M885.473 384.997C885.114 384.998 884.76 384.925 884.43 384.784C884.101 384.643 883.803 384.437 883.556 384.177C883.309 383.918 883.117 383.611 882.992 383.275C882.868 382.939 882.813 382.581 882.83 382.223V304.986C882.83 302.057 881.667 299.248 879.595 297.176C877.524 295.105 874.715 293.941 871.785 293.941H855.931C855.199 293.941 854.497 293.65 853.979 293.132C853.461 292.615 853.17 291.912 853.17 291.18C853.17 290.448 853.461 289.745 853.979 289.227C854.497 288.71 855.199 288.419 855.931 288.419H871.785C876.175 288.426 880.382 290.174 883.483 293.281C886.585 296.387 888.327 300.597 888.327 304.986V382.223C888.347 382.599 888.286 382.976 888.149 383.327C888.011 383.678 887.8 383.995 887.53 384.258C887.26 384.521 886.936 384.723 886.581 384.85C886.227 384.978 885.849 385.028 885.473 384.997Z" fill="#C5D3E1"/>
<path d="M896.408 382.486H646.36C644.011 382.486 642.106 384.391 642.106 386.741V402.04C642.106 404.389 644.011 406.294 646.36 406.294H896.408C898.757 406.294 900.662 404.389 900.662 402.04V386.741C900.662 384.391 898.757 382.486 896.408 382.486Z" fill="#4D5A68"/>
<path d="M762.415 289.475C762.415 290.743 761.911 291.959 761.014 292.856C760.117 293.753 758.9 294.257 757.632 294.257C757.004 294.257 756.382 294.133 755.802 293.893C755.222 293.653 754.694 293.3 754.25 292.856C753.806 292.412 753.454 291.885 753.213 291.305C752.973 290.725 752.849 290.103 752.849 289.475V239.27C752.849 238.641 752.973 238.02 753.213 237.439C753.454 236.859 753.806 236.332 754.25 235.888C754.694 235.444 755.222 235.091 755.802 234.851C756.382 234.611 757.004 234.487 757.632 234.487C758.9 234.487 760.117 234.991 761.014 235.888C761.911 236.785 762.415 238.001 762.415 239.27V289.475Z" fill="white"/>
<path d="M843.485 289.475C843.478 290.745 842.968 291.962 842.067 292.858C841.166 293.754 839.946 294.257 838.676 294.257C837.407 294.257 836.191 293.753 835.294 292.856C834.397 291.959 833.893 290.743 833.893 289.475V239.27C833.893 238.001 834.397 236.785 835.294 235.888C836.191 234.991 837.407 234.487 838.676 234.487C839.946 234.487 841.166 234.99 842.067 235.886C842.968 236.782 843.478 237.999 843.485 239.27V289.475Z" fill="white"/>
<path d="M963.684 255.282C963.711 257.388 963.24 259.471 962.31 261.36C961.84 262.502 961.063 263.492 960.065 264.22C959.067 264.947 957.887 265.384 956.655 265.482H872.84C871.608 265.384 870.428 264.947 869.43 264.22C868.432 263.492 867.655 262.502 867.185 261.36C866.255 259.445 865.771 257.345 865.771 255.216C865.771 253.088 866.255 250.987 867.185 249.073C867.362 248.724 867.565 248.388 867.793 248.069C867.848 247.97 867.919 247.88 868.004 247.804C868.529 247.017 869.235 246.367 870.062 245.907C870.889 245.448 871.814 245.192 872.76 245.162H956.576C957.526 245.192 958.454 245.448 959.286 245.907C960.117 246.366 960.828 247.017 961.359 247.804C961.659 248.209 961.933 248.633 962.178 249.073C963.172 250.992 963.688 253.122 963.684 255.282Z" fill="#ACBAC8"/>
<path d="M915.963 149.192H912.369C907.67 149.192 903.86 153.001 903.86 157.701V212.292C903.86 216.991 907.67 220.8 912.369 220.8H915.963C920.662 220.8 924.471 216.991 924.471 212.292V157.701C924.471 153.001 920.662 149.192 915.963 149.192Z" fill="#ACBAC8"/>
<path d="M963.684 255.284C963.711 257.389 963.24 259.472 962.31 261.361H867.185C866.255 259.447 865.771 257.346 865.771 255.217C865.771 253.089 866.255 250.988 867.185 249.074L868.004 247.806L903.861 191.708L908.749 183.781C909.537 182.989 910.474 182.361 911.506 181.932C912.537 181.504 913.644 181.283 914.761 181.283C915.878 181.283 916.984 181.504 918.016 181.932C919.047 182.361 919.984 182.989 920.772 183.781L924.471 189.594L961.465 247.726L962.284 248.995C963.253 250.947 963.734 253.105 963.684 255.284Z" fill="#ACBAC8"/>
<path d="M919.451 208.883C919.451 213.322 917.469 216.81 915.039 216.81H913.162C910.705 216.81 908.75 213.19 908.75 208.883V157.357C908.75 152.918 910.705 149.43 913.162 149.43H914.986C917.417 149.43 919.398 153.024 919.398 157.357L919.451 208.883Z" fill="#E8F1FA"/>
<path d="M950.843 255.31H877.121C875.873 253.678 875.198 251.682 875.198 249.629C875.198 247.575 875.873 245.579 877.121 243.948L894.587 215.912L907.534 195.09L909.331 192.21C909.863 191.478 910.56 190.883 911.366 190.473C912.172 190.062 913.064 189.848 913.968 189.848C914.873 189.848 915.764 190.062 916.57 190.473C917.376 190.883 918.074 191.478 918.606 192.21L919.451 193.558L933.482 215.912L950.948 243.948C952.18 245.59 952.837 247.593 952.818 249.647C952.799 251.7 952.105 253.69 950.843 255.31Z" fill="#E8F1FA"/>
<path d="M950.843 255.31H877.121C875.873 253.679 875.198 251.682 875.198 249.629C875.198 247.576 875.873 245.579 877.121 243.948L894.587 215.912H933.482L950.948 243.948C952.18 245.591 952.837 247.593 952.818 249.647C952.799 251.7 952.105 253.69 950.843 255.31Z" fill="#514260"/>
<path d="M926.425 152.231C926.425 153.037 926.105 153.81 925.535 154.38C924.966 154.95 924.193 155.27 923.387 155.27H904.573C904.173 155.273 903.776 155.197 903.406 155.046C903.036 154.894 902.699 154.67 902.416 154.388C902.134 154.105 901.91 153.768 901.758 153.398C901.607 153.028 901.531 152.631 901.534 152.231C901.531 151.831 901.607 151.434 901.758 151.064C901.91 150.694 902.134 150.357 902.416 150.074C902.699 149.792 903.036 149.568 903.406 149.416C903.776 149.265 904.173 149.189 904.573 149.192H923.387C924.193 149.192 924.966 149.512 925.535 150.082C926.105 150.652 926.425 151.425 926.425 152.231Z" fill="#9CAAB8"/>
<path d="M920.562 198.896C920.562 199.597 920.284 200.269 919.788 200.764C919.293 201.26 918.621 201.538 917.92 201.538C917.219 201.538 916.547 201.26 916.051 200.764C915.556 200.269 915.277 199.597 915.277 198.896V165.285C915.277 164.584 915.556 163.912 916.051 163.417C916.547 162.921 917.219 162.643 917.92 162.643C918.621 162.643 919.293 162.921 919.788 163.417C920.284 163.912 920.562 164.584 920.562 165.285V198.896Z" fill="white"/>
<path d="M927.512 227.512H928.199C930.456 227.512 932.62 228.408 934.215 230.004C935.811 231.599 936.707 233.764 936.707 236.02V236.628C936.704 237.742 936.481 238.844 936.052 239.872C935.622 240.9 934.995 241.833 934.204 242.618C933.414 243.403 932.477 244.025 931.447 244.448C930.417 244.871 929.313 245.087 928.199 245.083H927.618C926.496 245.097 925.382 244.889 924.341 244.471C923.3 244.053 922.352 243.434 921.552 242.648C920.751 241.862 920.114 240.925 919.676 239.892C919.239 238.859 919.01 237.75 919.004 236.628V236.073C918.997 234.951 919.212 233.839 919.636 232.801C920.06 231.762 920.686 230.818 921.477 230.022C922.268 229.227 923.208 228.595 924.244 228.164C925.279 227.734 926.39 227.512 927.512 227.512Z" fill="white"/>
<path d="M923.389 153.736C923.389 154.143 923.228 154.533 922.941 154.82C922.653 155.107 922.263 155.269 921.857 155.269H913.586C913.385 155.269 913.186 155.229 913 155.152C912.814 155.075 912.645 154.962 912.503 154.82C912.36 154.678 912.247 154.509 912.17 154.323C912.093 154.137 912.054 153.938 912.054 153.736C912.061 153.335 912.225 152.951 912.512 152.67C912.798 152.388 913.184 152.23 913.586 152.23H921.857C922.259 152.23 922.645 152.388 922.931 152.67C923.218 152.951 923.383 153.335 923.389 153.736Z" fill="white"/>
<path d="M754.013 99.2247H731.58C731.083 99.2275 730.608 99.4271 730.258 99.7796L720.931 109.319C720.931 109.319 720.931 109.319 720.746 109.477L715.831 114.101L714.404 112.674L703.385 123.693L704.495 124.803L698.312 130.695C697.821 131.177 697.536 131.831 697.519 132.519V173.475C697.56 174.148 697.856 174.78 698.347 175.242C698.838 175.704 699.488 175.96 700.162 175.959H753.538C754.212 175.96 754.861 175.704 755.352 175.242C755.843 174.78 756.14 174.148 756.18 173.475V101.074C756.184 100.802 756.128 100.533 756.016 100.285C755.904 100.037 755.738 99.8168 755.531 99.6401C755.325 99.4635 755.081 99.3347 754.819 99.2629C754.556 99.191 754.281 99.178 754.013 99.2247ZM732.346 102.898H752.164V108.79H726.612L732.346 102.898ZM749.97 131.964C749.973 132.328 749.893 132.688 749.738 133.017C749.582 133.346 749.355 133.637 749.072 133.866V167.688C749.072 168.389 748.794 169.061 748.298 169.557C747.803 170.052 747.13 170.331 746.43 170.331H706.794C706.093 170.331 705.421 170.052 704.926 169.557C704.43 169.061 704.152 168.389 704.152 167.688V137.196C704.15 136.835 704.221 136.478 704.362 136.146C704.503 135.815 704.71 135.515 704.971 135.267L710.044 130.484L721.38 119.756L721.644 119.545C721.881 119.312 722.162 119.128 722.47 119.006C722.779 118.883 723.109 118.824 723.441 118.831H744.342V116.638C744.342 115.979 744.604 115.347 745.07 114.882C745.535 114.416 746.167 114.154 746.826 114.154H747.381C748.04 114.154 748.671 114.416 749.137 114.882C749.603 115.347 749.865 115.979 749.865 116.638L749.97 131.964Z" fill="#514260"/>
<path d="M746.931 134.344C746.281 134.305 745.667 134.028 745.208 133.564C744.75 133.101 744.479 132.485 744.447 131.833V120.366H723.546C723.404 120.364 723.262 120.391 723.131 120.446C722.999 120.5 722.88 120.581 722.78 120.683L722.569 120.868L711.233 131.569L706.239 136.378C706.02 136.595 705.897 136.89 705.895 137.197V167.558C705.895 167.703 705.924 167.846 705.98 167.979C706.036 168.112 706.118 168.233 706.222 168.334C706.325 168.435 706.448 168.514 706.582 168.567C706.717 168.62 706.861 168.645 707.005 168.642H746.641C746.783 168.642 746.924 168.614 747.055 168.559C747.187 168.505 747.306 168.425 747.407 168.324C747.507 168.224 747.587 168.104 747.641 167.973C747.696 167.841 747.724 167.701 747.724 167.558V134.317H746.931V134.344ZM726.664 163.621C722.272 163.592 718.046 161.938 714.8 158.979C711.555 156.019 709.52 151.963 709.086 147.592C708.653 143.221 709.853 138.845 712.455 135.306C715.056 131.767 718.875 129.316 723.176 128.425C724.324 128.19 725.493 128.075 726.664 128.081C729.056 127.989 731.441 128.38 733.677 129.232C735.914 130.083 737.955 131.377 739.68 133.037C741.404 134.696 742.776 136.686 743.713 138.888C744.65 141.09 745.133 143.458 745.133 145.851C745.133 148.244 744.65 150.613 743.713 152.815C742.776 155.016 741.404 157.007 739.68 158.666C737.955 160.325 735.914 161.619 733.677 162.471C731.441 163.322 729.056 163.713 726.664 163.621Z" fill="#514260"/>
<path d="M713.903 107.496L710.309 103.902C710.078 103.668 709.802 103.481 709.498 103.354C709.194 103.227 708.868 103.162 708.539 103.162C708.018 103.174 707.512 103.34 707.085 103.638L714.167 110.693C714.508 110.215 714.669 109.631 714.62 109.046C714.572 108.461 714.318 107.912 713.903 107.496Z" fill="#514260"/>
<path d="M700.005 123.878C700.528 123.879 701.037 123.712 701.458 123.403L694.403 116.321C694.055 116.802 693.89 117.391 693.939 117.982C693.987 118.573 694.246 119.128 694.668 119.545L698.314 123.139C698.762 123.593 699.367 123.858 700.005 123.878Z" fill="#514260"/>
<path d="M705.576 109.823L710.332 114.579L713.318 111.593L713.899 111.012L713.318 111.593L713.001 111.91L708.245 107.154L705.893 104.776L706.765 103.904L703.171 107.471L703.224 107.445L705.576 109.823Z" fill="#514260"/>
<path d="M706.502 118.408L709.171 115.74L704.414 110.983L702.036 108.632L699.367 111.274L701.746 113.652L706.502 118.408Z" fill="#514260"/>
<path d="M702.671 122.239L705.921 118.989L705.34 119.597L700.557 114.814L698.206 112.462L695.537 115.131L697.915 117.483L702.671 122.239Z" fill="#514260"/>
<path d="M720.27 149.431C720.27 154.426 723.124 158.468 726.664 158.468C730.205 158.468 733.059 154.426 733.059 149.431C733.059 144.437 726.664 133.287 726.664 133.287C726.664 133.287 720.27 144.385 720.27 149.431ZM730.839 149.59C730.839 151.281 729.888 152.629 728.699 152.629C727.51 152.629 726.532 151.281 726.532 149.59C726.988 147.659 727.765 145.819 728.831 144.147C729.837 145.823 730.56 147.653 730.971 149.564L730.839 149.59Z" fill="#514260"/>
<path d="M687.423 213.876C687.242 213.546 687.039 213.228 686.815 212.925L659.598 170.145V146.522C659.588 145.902 659.481 145.286 659.281 144.699C659.837 144.582 660.328 144.259 660.655 143.794C660.982 143.33 661.121 142.759 661.044 142.196C660.967 141.634 660.68 141.121 660.24 140.762C659.8 140.402 659.24 140.223 658.674 140.26H644.933C644.638 140.26 644.346 140.318 644.074 140.431C643.801 140.543 643.554 140.709 643.345 140.917C643.137 141.126 642.971 141.374 642.858 141.646C642.745 141.919 642.687 142.211 642.687 142.506C642.685 143.059 642.889 143.594 643.261 144.005C643.633 144.416 644.144 144.672 644.695 144.725C644.505 145.305 644.407 145.912 644.405 146.522V171.492L618.034 212.845L617.875 213.057C617.705 213.29 617.554 213.538 617.426 213.797C616.712 215.214 616.35 216.782 616.369 218.368C616.355 219.923 616.698 221.46 617.373 222.86C617.71 223.749 618.295 224.523 619.058 225.09C619.822 225.657 620.732 225.992 621.68 226.057H683.301C684.206 225.987 685.075 225.669 685.811 225.138C686.548 224.606 687.124 223.882 687.475 223.045C688.151 221.645 688.494 220.108 688.48 218.553C688.517 216.931 688.154 215.325 687.423 213.876ZM651.566 141.501H657.67C657.964 141.501 658.246 141.618 658.454 141.827C658.662 142.035 658.779 142.317 658.779 142.611C658.782 142.832 658.707 143.047 658.568 143.219C658.477 143.377 658.346 143.509 658.188 143.602C658.031 143.694 657.852 143.745 657.67 143.748H651.566C651.297 143.706 651.053 143.57 650.876 143.364C650.699 143.158 650.602 142.896 650.602 142.625C650.602 142.353 650.699 142.091 650.876 141.885C651.053 141.679 651.297 141.543 651.566 141.501ZM624.693 210.203L637.535 189.434L644.405 178.495L647.047 174.135L648.104 172.681V146.258C648.078 145.782 648.078 145.306 648.104 144.831H655.793C655.82 145.306 655.82 145.782 655.793 146.258V172.972L659.493 178.891L666.046 189.461L679.02 210.203C679.229 210.459 679.414 210.733 679.575 211.022C680.224 212.2 680.516 213.542 680.418 214.883C680.319 216.225 679.834 217.509 679.02 218.579H624.693C623.879 217.509 623.393 216.225 623.295 214.883C623.196 213.542 623.489 212.2 624.138 211.022C624.298 210.733 624.484 210.459 624.693 210.203Z" fill="#514260"/>
<path d="M678.282 217.02C678.802 216.086 679.044 215.022 678.978 213.954C678.913 212.886 678.543 211.86 677.912 210.996L665.467 191.02H638.383L625.937 210.996C625.296 211.855 624.918 212.88 624.848 213.95C624.777 215.019 625.018 216.085 625.541 217.02H678.282ZM661.82 197.995H662.243C663.904 197.995 665.497 198.655 666.671 199.83C667.846 201.004 668.506 202.597 668.506 204.258V204.654C668.506 206.315 667.846 207.908 666.671 209.082C665.497 210.257 663.904 210.917 662.243 210.917H661.82C660.159 210.917 658.567 210.257 657.392 209.082C656.218 207.908 655.558 206.315 655.558 204.654V204.258C655.558 202.597 656.218 201.004 657.392 199.83C658.567 198.655 660.159 197.995 661.82 197.995Z" fill="#514260"/>
<path d="M652.865 181.137C653.118 181.137 653.369 181.087 653.603 180.99C653.837 180.893 654.05 180.751 654.229 180.572C654.408 180.393 654.55 180.18 654.647 179.946C654.744 179.712 654.794 179.461 654.794 179.208V154.502C654.794 153.99 654.591 153.5 654.229 153.138C653.867 152.776 653.376 152.573 652.865 152.573C652.353 152.573 651.863 152.776 651.501 153.138C651.139 153.5 650.936 153.99 650.936 154.502V179.287C650.956 179.785 651.169 180.256 651.528 180.6C651.888 180.945 652.367 181.137 652.865 181.137Z" fill="#514260"/>
<path d="M999.328 406.294H990.926V345.863C990.926 344.756 990.486 343.694 989.703 342.911C988.92 342.128 987.858 341.688 986.751 341.688H954.197V333.285H986.751C990.084 333.292 993.28 334.62 995.637 336.977C997.994 339.334 999.321 342.529 999.328 345.863V406.294Z" fill="#F8BE49"/>
<path d="M957.263 350.567C957.278 360.698 953.997 370.56 947.915 378.663C941.833 386.767 933.28 392.671 923.547 395.487C921.386 396.137 919.177 396.614 916.941 396.914C912.696 397.477 908.396 397.477 904.152 396.914C901.915 396.617 899.706 396.139 897.546 395.487C887.811 392.675 879.255 386.771 873.172 378.667C867.09 370.563 863.81 360.699 863.829 350.567C863.837 340.387 867.172 330.489 873.325 322.38C879.479 314.27 888.114 308.394 897.916 305.646C900.328 304.957 902.794 304.471 905.288 304.193C908.8 303.8 912.345 303.8 915.857 304.193C918.351 304.471 920.817 304.957 923.23 305.646C933.019 308.408 941.64 314.289 947.783 322.397C953.925 330.504 957.254 340.395 957.263 350.567Z" fill="#F8BE49"/>
<path d="M873.052 359.021H866.737C865.963 359.021 865.336 359.648 865.336 360.422V404.919C865.336 405.693 865.963 406.32 866.737 406.32H873.052C873.825 406.32 874.452 405.693 874.452 404.919V360.422C874.452 359.648 873.825 359.021 873.052 359.021Z" fill="#7C8A98"/>
<path d="M940.851 330.906C940.851 332.376 940.414 333.814 939.596 335.036C938.778 336.258 937.615 337.21 936.255 337.77C934.896 338.331 933.4 338.475 931.958 338.184C930.516 337.893 929.194 337.181 928.157 336.137C927.121 335.093 926.418 333.765 926.138 332.322C925.857 330.878 926.012 329.383 926.582 328.027C927.152 326.672 928.112 325.516 929.34 324.706C930.568 323.897 932.008 323.47 933.479 323.481C934.451 323.484 935.412 323.679 936.308 324.054C937.205 324.429 938.018 324.977 938.703 325.666C939.388 326.356 939.93 327.173 940.298 328.072C940.667 328.971 940.855 329.934 940.851 330.906Z" fill="white"/>
<path d="M936.861 307.813C936.861 308.381 936.635 308.925 936.234 309.327C935.832 309.728 935.288 309.953 934.72 309.953H887.871C887.303 309.953 886.759 309.728 886.358 309.327C885.956 308.925 885.731 308.381 885.731 307.813C885.731 307.246 885.956 306.701 886.358 306.3C886.759 305.898 887.303 305.673 887.871 305.673H934.72C935.288 305.673 935.832 305.898 936.234 306.3C936.635 306.701 936.861 307.246 936.861 307.813Z" fill="#BCCAD8"/>
<path d="M869.881 359.021V406.293H866.737C866.554 406.297 866.372 406.264 866.203 406.197C866.033 406.129 865.878 406.028 865.748 405.9C865.617 405.773 865.514 405.62 865.443 405.451C865.372 405.283 865.336 405.102 865.336 404.919V360.422C865.336 360.051 865.484 359.694 865.746 359.432C866.009 359.169 866.365 359.021 866.737 359.021H869.881Z" fill="#BCCAD8"/>
<path d="M912.686 359.021H906.37C905.597 359.021 904.97 359.648 904.97 360.422V404.919C904.97 405.693 905.597 406.32 906.37 406.32H912.686C913.459 406.32 914.086 405.693 914.086 404.919V360.422C914.086 359.648 913.459 359.021 912.686 359.021Z" fill="#7C8A98"/>
<path d="M909.515 359.021V406.294H906.344C905.98 406.294 905.63 406.149 905.373 405.891C905.115 405.633 904.97 405.284 904.97 404.919V360.422C904.967 360.239 905 360.058 905.067 359.888C905.135 359.718 905.235 359.564 905.363 359.433C905.491 359.303 905.644 359.199 905.812 359.129C905.981 359.058 906.162 359.021 906.344 359.021H909.515Z" fill="#BCCAD8"/>
<path d="M953.515 359.021H947.2C946.426 359.021 945.799 359.648 945.799 360.422V404.919C945.799 405.693 946.426 406.32 947.2 406.32H953.515C954.288 406.32 954.915 405.693 954.915 404.919V360.422C954.915 359.648 954.288 359.021 953.515 359.021Z" fill="#7C8A98"/>
<path d="M950.37 359.021V406.293H947.2C947.017 406.297 946.835 406.264 946.666 406.197C946.496 406.129 946.341 406.028 946.211 405.9C946.081 405.773 945.977 405.62 945.906 405.451C945.836 405.283 945.799 405.102 945.799 404.919V360.422C945.799 360.051 945.947 359.694 946.209 359.432C946.472 359.169 946.828 359.021 947.2 359.021H950.37Z" fill="#BCCAD8"/>
<path d="M959.323 359.578C959.323 360.321 959.028 361.033 958.503 361.559C957.977 362.084 957.265 362.379 956.522 362.379H862.506C861.764 362.379 861.051 362.084 860.526 361.559C860.001 361.033 859.706 360.321 859.706 359.578C859.712 358.837 860.01 358.129 860.534 357.605C861.057 357.081 861.766 356.784 862.506 356.777H956.522C957.263 356.784 957.971 357.081 958.495 357.605C959.019 358.129 959.316 358.837 959.323 359.578Z" fill="#BCCAD8"/>
<path d="M996.69 363.039C996.69 363.74 996.411 364.412 995.916 364.907C995.42 365.403 994.748 365.681 994.047 365.681C993.346 365.681 992.674 365.403 992.179 364.907C991.683 364.412 991.405 363.74 991.405 363.039V351.703C991.405 351.002 991.683 350.33 992.179 349.835C992.674 349.339 993.346 349.061 994.047 349.061C994.748 349.061 995.42 349.339 995.916 349.835C996.411 350.33 996.69 351.002 996.69 351.703V363.039Z" fill="#E47E30"/>
<path d="M1005.2 366.236C1005.79 366.588 1006.22 367.159 1006.4 367.826C1006.57 368.492 1006.48 369.202 1006.15 369.803C1005.79 370.396 1005.22 370.827 1004.56 371.005C1003.89 371.182 1003.18 371.093 1002.58 370.754L992.75 365.073C992.157 364.72 991.725 364.15 991.548 363.483C991.37 362.816 991.46 362.107 991.798 361.506C992.151 360.913 992.722 360.482 993.388 360.304C994.055 360.126 994.764 360.216 995.366 360.555L1005.2 366.236Z" fill="#E47E30"/>
<path d="M992.749 360.423C993.35 360.084 994.06 359.994 994.726 360.172C995.393 360.35 995.963 360.781 996.316 361.374C996.655 361.975 996.745 362.685 996.567 363.351C996.389 364.018 995.958 364.588 995.365 364.941L985.535 370.622C984.931 370.958 984.219 371.044 983.552 370.862C982.885 370.679 982.317 370.242 981.968 369.645C981.632 369.04 981.546 368.328 981.729 367.661C981.912 366.994 982.348 366.426 982.946 366.077L992.749 360.423Z" fill="#E47E30"/>
<path d="M999.143 362.114C999.143 363.164 998.829 364.191 998.243 365.063C997.656 365.935 996.822 366.612 995.849 367.007C994.876 367.403 993.806 367.5 992.778 367.285C991.749 367.07 990.808 366.554 990.074 365.801C989.341 365.049 988.848 364.095 988.66 363.061C988.471 362.027 988.595 360.961 989.015 359.998C989.435 359.035 990.133 358.219 991.019 357.655C991.906 357.09 992.94 356.803 993.99 356.829C994.678 356.829 995.359 356.966 995.993 357.233C996.627 357.5 997.201 357.892 997.682 358.384C998.162 358.877 998.538 359.461 998.79 360.101C999.041 360.742 999.161 361.426 999.143 362.114Z" fill="#6C7A88"/>
<path d="M993.991 377.784C990.944 377.784 987.966 376.88 985.432 375.187C982.899 373.495 980.924 371.089 979.758 368.274C978.592 365.459 978.287 362.362 978.882 359.373C979.476 356.385 980.943 353.64 983.098 351.486C985.252 349.331 987.997 347.864 990.985 347.27C993.974 346.675 997.071 346.98 999.886 348.146C1002.7 349.312 1005.11 351.287 1006.8 353.82C1008.49 356.353 1009.4 359.332 1009.4 362.379C1009.39 366.462 1007.76 370.376 1004.88 373.264C1001.99 376.151 998.074 377.777 993.991 377.784ZM993.991 351.201C991.779 351.196 989.615 351.847 987.774 353.072C985.932 354.297 984.496 356.041 983.645 358.083C982.795 360.125 982.57 362.373 982.999 364.543C983.427 366.713 984.489 368.707 986.051 370.273C987.614 371.839 989.605 372.906 991.774 373.339C993.943 373.773 996.192 373.553 998.236 372.708C1000.28 371.862 1002.03 370.43 1003.26 368.591C1004.49 366.752 1005.14 364.59 1005.14 362.379C1005.14 359.419 1003.97 356.58 1001.88 354.484C999.787 352.389 996.951 351.208 993.991 351.201Z" fill="#EF893A"/>
<path d="M893.265 309.953H891.6V357.358H893.265V309.953Z" fill="#EF893A"/>
<path d="M901.249 309.953H899.584V357.358H901.249V309.953Z" fill="#EF893A"/>
<path d="M900.402 315.662H892.422V317.326H900.402V315.662Z" fill="#EF893A"/>
<path d="M900.402 320.682H892.422V322.347H900.402V320.682Z" fill="#EF893A"/>
<path d="M900.402 325.728H892.422V327.392H900.402V325.728Z" fill="#EF893A"/>
<path d="M900.402 330.775H892.422V332.466H900.402V330.775Z" fill="#EF893A"/>
<path d="M900.402 335.797H892.422V337.462H900.402V335.797Z" fill="#EF893A"/>
<path d="M900.402 340.842H892.422V342.507H900.402V340.842Z" fill="#EF893A"/>
<path d="M900.402 345.864H892.422V347.555H900.402V345.864Z" fill="#EF893A"/>
<path d="M900.402 350.91H892.422V352.602H900.402V350.91Z" fill="#EF893A"/>
<path d="M609.979 361.189C608.879 361.186 607.825 360.749 607.046 359.973L581.6 334.527C580.843 333.745 580.425 332.697 580.434 331.609C580.443 330.521 580.879 329.48 581.649 328.71C582.418 327.941 583.459 327.504 584.547 327.495C585.635 327.486 586.683 327.905 587.466 328.661L612.912 354.107C613.683 354.889 614.116 355.942 614.116 357.04C614.116 358.138 613.683 359.192 612.912 359.973C612.129 360.744 611.077 361.18 609.979 361.189Z" fill="#ACBAC8"/>
<path d="M610.109 361.189C609.002 361.184 607.94 360.748 607.149 359.973C606.378 359.192 605.946 358.138 605.946 357.04C605.946 355.942 606.378 354.889 607.149 354.107L632.595 328.661C633.378 327.905 634.426 327.486 635.514 327.495C636.602 327.504 637.643 327.941 638.412 328.71C639.182 329.48 639.618 330.521 639.627 331.609C639.637 332.697 639.218 333.745 638.461 334.527L613.042 359.973C612.259 360.744 611.207 361.18 610.109 361.189Z" fill="#ACBAC8"/>
<path d="M609.527 371.705C608.427 371.705 607.372 371.268 606.594 370.49C605.816 369.712 605.379 368.657 605.379 367.557V331.594C605.379 330.494 605.816 329.439 606.594 328.661C607.372 327.883 608.427 327.446 609.527 327.446C610.627 327.446 611.683 327.883 612.461 328.661C613.239 329.439 613.676 330.494 613.676 331.594V367.557C613.676 368.657 613.239 369.712 612.461 370.49C611.683 371.268 610.627 371.705 609.527 371.705Z" fill="#9CAAB8"/>
<path d="M642.215 324.407H576.843C575.004 324.407 573.514 325.898 573.514 327.737V335.452C573.514 337.291 575.004 338.782 576.843 338.782H642.215C644.054 338.782 645.545 337.291 645.545 335.452V327.737C645.545 325.898 644.054 324.407 642.215 324.407Z" fill="#D6741D"/>
<path d="M625.62 324.407H593.436C591.598 324.407 590.107 325.898 590.107 327.737V335.452C590.107 337.291 591.598 338.782 593.436 338.782H625.62C627.459 338.782 628.95 337.291 628.95 335.452V327.737C628.95 325.898 627.459 324.407 625.62 324.407Z" fill="#F19B2C"/>
<path d="M674.689 384.151V406.294H661.318V384.151C661.318 381.509 660.269 378.975 658.401 377.107C656.533 375.239 653.999 374.189 651.357 374.189H568.836C566.194 374.189 563.66 375.239 561.792 377.107C559.923 378.975 558.874 381.509 558.874 384.151V406.294H545.662V384.151C545.652 381.097 546.243 378.072 547.402 375.246C548.561 372.421 550.265 369.852 552.417 367.685C554.568 365.519 557.126 363.797 559.943 362.619C562.76 361.441 565.782 360.829 568.836 360.819H651.462C654.521 360.822 657.548 361.429 660.371 362.604C663.194 363.779 665.758 365.5 667.916 367.667C670.073 369.834 671.782 372.406 672.944 375.234C674.106 378.063 674.699 381.093 674.689 384.151Z" fill="#ACBAC8"/>
<path d="M668.4 386.318V406.295H661.318V384.151C661.318 381.509 660.269 378.976 658.4 377.107C656.532 375.239 653.998 374.19 651.356 374.19H568.835C566.193 374.19 563.659 375.239 561.791 377.107C559.923 378.976 558.874 381.509 558.874 384.151V406.295H551.792V386.318C551.799 380.758 554.013 375.429 557.946 371.5C561.88 367.571 567.213 365.364 572.772 365.364H647.419C652.979 365.364 658.312 367.571 662.245 371.5C666.179 375.429 668.393 380.758 668.4 386.318Z" fill="#BCCAD8"/>
<path d="M620.175 357.093L617.532 380.24C617.532 380.696 617.351 381.132 617.029 381.455C616.707 381.777 616.27 381.958 615.815 381.958H604.321C603.865 381.958 603.428 381.777 603.106 381.455C602.784 381.132 602.603 380.696 602.603 380.24L599.961 357.093C599.957 356.869 599.998 356.646 600.082 356.438C600.165 356.229 600.289 356.04 600.447 355.88C600.604 355.72 600.792 355.593 600.998 355.507C601.205 355.42 601.427 355.375 601.652 355.375H618.378C618.61 355.365 618.842 355.401 619.06 355.483C619.277 355.564 619.476 355.689 619.644 355.85C619.812 356.01 619.946 356.203 620.037 356.417C620.128 356.631 620.175 356.861 620.175 357.093Z" fill="#6C7A88"/>
<path d="M609.53 355.376V381.958H604.245C603.79 381.958 603.353 381.777 603.031 381.455C602.709 381.133 602.528 380.696 602.528 380.241L599.885 357.094C599.882 356.869 599.923 356.647 600.007 356.438C600.09 356.23 600.214 356.041 600.371 355.881C600.529 355.721 600.716 355.594 600.923 355.507C601.13 355.421 601.352 355.376 601.577 355.376H609.53Z" fill="#7C8A98"/>
<path d="M561.463 396.069C561.463 396.728 561.201 397.359 560.735 397.825C560.27 398.291 559.638 398.553 558.979 398.553H544.895C544.237 398.553 543.605 398.291 543.139 397.825C542.673 397.359 542.411 396.728 542.411 396.069V396.069C542.411 395.41 542.673 394.778 543.139 394.312C543.605 393.847 544.237 393.585 544.895 393.585H558.979C559.638 393.585 560.27 393.847 560.735 394.312C561.201 394.778 561.463 395.41 561.463 396.069Z" fill="#7C8A98"/>
<path d="M677.859 396.069C677.859 396.728 677.597 397.359 677.131 397.825C676.665 398.291 676.034 398.553 675.375 398.553H661.318C660.659 398.553 660.027 398.291 659.561 397.825C659.095 397.359 658.834 396.728 658.834 396.069C658.834 395.41 659.095 394.778 659.561 394.312C660.027 393.847 660.659 393.585 661.318 393.585H675.401C676.06 393.585 676.692 393.847 677.158 394.312C677.624 394.778 677.885 395.41 677.885 396.069H677.859Z" fill="#7C8A98"/>
<path d="M581.094 358.176C581.752 358.176 582.384 358.438 582.85 358.904C583.316 359.369 583.577 360.001 583.577 360.66V374.744C583.577 375.402 583.316 376.034 582.85 376.5C582.384 376.966 581.752 377.228 581.094 377.228C580.419 377.229 579.77 376.972 579.279 376.51C578.788 376.049 578.492 375.417 578.451 374.744V360.528C578.492 359.855 578.788 359.223 579.279 358.761C579.77 358.299 580.419 358.043 581.094 358.044V358.176Z" fill="#7C8A98"/>
<path d="M637.906 358.176C638.565 358.176 639.197 358.438 639.663 358.904C640.128 359.369 640.39 360.001 640.39 360.66V374.744C640.39 375.402 640.128 376.034 639.663 376.5C639.197 376.966 638.565 377.228 637.906 377.228C637.248 377.228 636.616 376.966 636.15 376.5C635.684 376.034 635.422 375.402 635.422 374.744V360.528C635.422 359.869 635.684 359.237 636.15 358.771C636.616 358.306 637.248 358.044 637.906 358.044V358.176Z" fill="#7C8A98"/>
</g>
<path d="M702.479 327.589V376.858C702.479 379.713 701.345 382.451 699.326 384.469C697.307 386.488 694.569 387.622 691.714 387.622H658.561C657.149 387.622 655.75 387.344 654.446 386.802C653.142 386.261 651.957 385.468 650.96 384.468C649.963 383.468 649.173 382.281 648.636 380.975C648.098 379.669 647.824 378.27 647.828 376.858V327.589C647.828 326.18 648.106 324.784 648.645 323.482C649.184 322.18 649.975 320.997 650.971 320C651.968 319.003 653.151 318.213 654.453 317.673C655.756 317.134 657.151 316.856 658.561 316.856H691.81C694.643 316.882 697.351 318.022 699.349 320.032C701.346 322.041 702.47 324.756 702.479 327.589Z" fill="#FBD099"/>
<path d="M707.064 314.657V349.244C707.072 350.612 706.713 351.958 706.024 353.14C705.335 354.322 704.341 355.297 703.147 355.964L702.478 355.168C700.239 352.363 698.641 349.102 697.796 345.614C697.695 345.108 697.621 344.598 697.573 344.085C697.511 343.417 697.511 342.746 697.573 342.078C697.608 339.801 698.318 337.584 699.611 335.709L688.051 338.289L689.516 331.919C684.444 332.664 679.475 333.989 674.706 335.868C671.901 336.993 669.239 338.447 666.776 340.199C665.138 341.324 663.603 342.592 662.19 343.989L660.693 345.518C656.171 350.359 653.687 354.786 647.954 355.996L646.712 356.219C645.381 355.597 644.256 354.606 643.472 353.364C642.687 352.123 642.275 350.681 642.285 349.212V314.657C642.281 313.634 642.479 312.62 642.868 311.674C643.256 310.727 643.828 309.867 644.55 309.142C645.272 308.417 646.13 307.842 647.075 307.449C648.02 307.057 649.033 306.855 650.056 306.855H699.293C700.316 306.855 701.329 307.057 702.274 307.449C703.219 307.842 704.077 308.417 704.799 309.142C705.521 309.867 706.093 310.727 706.481 311.674C706.87 312.62 707.068 313.634 707.064 314.657Z" fill="#7D4C2E"/>
<path d="M742.288 431.255C742.301 431.139 742.301 431.021 742.288 430.905L725.44 397.433C724.617 395.788 723.237 394.488 721.546 393.765C719.855 393.042 717.962 392.942 716.204 393.484C715.454 393.238 714.669 393.12 713.88 393.133H632.891C632.445 393.1 631.998 393.1 631.553 393.133C629.905 392.86 628.212 393.12 626.723 393.876C625.233 394.632 624.024 395.845 623.273 397.337L606.425 430.809C605.919 431.797 605.637 432.885 605.597 433.994C605.412 435.121 605.316 436.26 605.31 437.402V443.007C605.319 444.961 606.101 446.832 607.486 448.211C608.87 449.59 610.745 450.364 612.699 450.364H625.12H721.587H736.81C737.779 450.368 738.739 450.181 739.635 449.813C740.531 449.445 741.346 448.904 742.033 448.22C742.719 447.537 743.264 446.724 743.636 445.83C744.007 444.935 744.199 443.976 744.199 443.007V437.402C743.972 435.247 743.323 433.158 742.288 431.255Z" fill="#E9F4F5"/>
<path d="M696.463 393.13L690.094 413.927L686.559 425.519L679.011 450.138L678.883 450.552V450.615H668.947L668.915 450.552L668.405 448.832L661.24 426.093L657.418 413.927L650.889 393.13H696.463Z" fill="#F8BE49"/>
<path d="M668.944 450.615H665.441L665.377 450.552L646.396 429.532L643.625 426.475L643.211 426.029L639.453 421.857L638.147 413.927L635.026 394.595L634.803 393.13H650.886L657.415 413.927L661.237 426.093L668.403 448.832L668.912 450.552L668.944 450.615Z" fill="#D5E5E6"/>
<path d="M681.935 450.584L705.025 421.061L710.535 393.13H696.458L678.878 450.584H681.935Z" fill="#D5E5E6"/>
<path d="M679.007 450.138V450.552H668.943L668.433 448.832L669.58 425.902L670.185 413.927V410.201C670.191 409.64 670.344 409.091 670.631 408.608C670.909 408.127 671.308 407.727 671.788 407.447C672.269 407.168 672.814 407.019 673.37 407.016H673.816C674.1 406.965 674.391 406.965 674.675 407.016C675.474 407.228 676.159 407.742 676.586 408.449C676.872 408.931 677.026 409.481 677.032 410.042V413.768L677.637 425.551L679.007 450.138Z" fill="#263536"/>
<path d="M687.223 370.425V390.362C687.228 390.961 687.113 391.555 686.885 392.109C686.658 392.664 686.323 393.168 685.899 393.591C685.475 394.015 684.971 394.35 684.417 394.578C683.862 394.805 683.268 394.92 682.669 394.916H664.452C663.751 394.916 663.059 394.755 662.429 394.446C661.8 394.137 661.25 393.687 660.821 393.132C660.23 392.329 659.907 391.359 659.898 390.362V370.425C659.906 369.22 660.389 368.066 661.241 367.214C662.093 366.361 663.247 365.879 664.452 365.871H682.669C683.874 365.879 685.028 366.361 685.88 367.214C686.732 368.066 687.215 369.22 687.223 370.425Z" fill="#FBD099"/>
<path d="M677.447 394.724H669.899C668.14 394.724 666.714 396.15 666.714 397.909V405.457C666.714 407.216 668.14 408.642 669.899 408.642H677.447C679.206 408.642 680.631 407.216 680.631 405.457V397.909C680.631 396.15 679.206 394.724 677.447 394.724Z" fill="#263536"/>
<path d="M700.406 423.704H727.19C728.423 423.704 729.606 424.194 730.478 425.066C731.35 425.938 731.84 427.121 731.84 428.354V441.093C731.84 442.318 731.353 443.492 730.487 444.358C729.621 445.225 728.447 445.711 727.222 445.711H700.374C699.149 445.711 697.975 445.225 697.109 444.358C696.243 443.492 695.756 442.318 695.756 441.093V428.354C695.752 427.742 695.869 427.136 696.102 426.57C696.334 426.004 696.676 425.489 697.109 425.057C697.541 424.624 698.056 424.282 698.622 424.05C699.188 423.817 699.794 423.7 700.406 423.704Z" fill="white"/>
<path d="M732.896 423.354C732.896 423.878 732.688 424.38 732.318 424.751C731.947 425.121 731.445 425.329 730.921 425.329H696.685C696.161 425.329 695.659 425.121 695.289 424.751C694.918 424.38 694.71 423.878 694.71 423.354C694.71 422.831 694.918 422.329 695.289 421.958C695.659 421.588 696.161 421.38 696.685 421.38H730.921C731.445 421.38 731.947 421.588 732.318 421.958C732.688 422.329 732.896 422.831 732.896 423.354Z" fill="#999999"/>
<path d="M719.386 416.347H708.175C707.841 416.347 707.57 416.618 707.57 416.952V422.749C707.57 423.083 707.841 423.354 708.175 423.354H719.386C719.72 423.354 719.991 423.083 719.991 422.749V416.952C719.991 416.618 719.72 416.347 719.386 416.347Z" fill="#333333"/>
<path d="M727.61 430.169H715.858C715.611 430.169 715.412 430.369 715.412 430.615V431.443C715.412 431.69 715.611 431.889 715.858 431.889H727.61C727.856 431.889 728.055 431.69 728.055 431.443V430.615C728.055 430.369 727.856 430.169 727.61 430.169Z" fill="#BDC3C7"/>
<path d="M727.61 433.865H715.858C715.611 433.865 715.412 434.065 715.412 434.311V435.107C715.412 435.353 715.611 435.553 715.858 435.553H727.61C727.856 435.553 728.055 435.353 728.055 435.107V434.311C728.055 434.065 727.856 433.865 727.61 433.865Z" fill="#BDC3C7"/>
<path d="M727.61 437.525H715.858C715.611 437.525 715.412 437.725 715.412 437.971V438.767C715.412 439.013 715.611 439.213 715.858 439.213H727.61C727.856 439.213 728.055 439.013 728.055 438.767V437.971C728.055 437.725 727.856 437.525 727.61 437.525Z" fill="#BDC3C7"/>
<path d="M674.934 344.054L671.43 359.15C671.43 359.623 671.242 360.076 670.908 360.411C670.574 360.745 670.12 360.933 669.647 360.933H643.341C642.873 360.925 642.428 360.733 642.1 360.4C641.772 360.066 641.589 359.617 641.589 359.15V345.551L642.162 345.2C642.938 344.756 643.747 344.373 644.583 344.054H669.647C670.072 344.063 670.479 344.222 670.8 344.501C671.12 344.78 671.332 345.163 671.399 345.583C671.399 345.583 674.934 343.958 674.934 344.054Z" fill="#B5C5C6"/>
<path d="M707.862 345.804V359.18C707.854 359.648 707.662 360.093 707.329 360.421C706.995 360.748 706.546 360.932 706.079 360.932H679.804C679.337 360.932 678.888 360.748 678.554 360.421C678.221 360.093 678.029 359.648 678.021 359.18L674.518 344.053C674.518 344.053 678.053 345.645 678.053 345.549C678.114 345.127 678.324 344.741 678.645 344.46C678.967 344.18 679.378 344.024 679.804 344.021H704.901C705.924 344.421 706.906 344.923 707.831 345.518C707.861 345.61 707.872 345.707 707.862 345.804Z" fill="#B5C5C6"/>
<path d="M707.832 345.518H641.589L642.162 345.168C642.938 344.724 643.747 344.34 644.583 344.021C645.538 343.639 646.621 343.289 647.767 342.938C653.971 341.37 660.323 340.462 666.717 340.231C669.265 340.231 671.908 340.008 674.647 340.008C682.316 339.939 689.974 340.611 697.514 342.015C699.19 342.329 700.849 342.733 702.482 343.225C703.31 343.48 704.106 343.735 704.807 344.021C705.508 344.308 706.336 344.69 706.973 345.04L707.832 345.518Z" fill="#455556"/>
<path d="M704.104 440.743H700.314C700.253 440.742 700.193 440.723 700.142 440.69C700.091 440.656 700.051 440.608 700.027 440.552L698.116 437.367C698.085 437.32 698.068 437.265 698.068 437.208C698.068 437.151 698.085 437.096 698.116 437.049L700.027 433.864C700.072 433.844 700.121 433.833 700.17 433.833C700.22 433.833 700.269 433.844 700.314 433.864H704.104C704.196 433.827 704.298 433.827 704.39 433.864L706.269 437.049C706.301 437.096 706.318 437.151 706.318 437.208C706.318 437.265 706.301 437.32 706.269 437.367L704.39 440.552C704.363 440.606 704.322 440.652 704.272 440.685C704.222 440.719 704.164 440.739 704.104 440.743ZM700.505 440.202H703.912L705.664 437.017L703.976 434.087H700.505L698.817 437.017L700.505 440.202Z" fill="#354546"/>
<path d="M709.772 437.464H705.982C705.921 437.463 705.862 437.445 705.811 437.411C705.76 437.377 705.72 437.329 705.696 437.273L703.817 434.089C703.786 434.035 703.77 433.975 703.77 433.913C703.77 433.852 703.786 433.791 703.817 433.738L705.696 430.553C705.741 430.533 705.79 430.523 705.839 430.523C705.888 430.523 705.937 430.533 705.982 430.553H709.772C709.817 430.533 709.866 430.523 709.916 430.523C709.965 430.523 710.014 430.533 710.059 430.553L711.97 433.738C712.001 433.791 712.017 433.852 712.017 433.913C712.017 433.975 712.001 434.035 711.97 434.089L710.059 437.273C710.034 437.329 709.994 437.377 709.944 437.411C709.893 437.445 709.833 437.463 709.772 437.464ZM706.173 436.796H709.581L711.269 433.834L709.581 430.904H706.173L704.485 433.834L706.173 436.796Z" fill="#354546"/>
<path d="M700.278 434.185C700.186 434.222 700.083 434.222 699.991 434.185L699.068 432.529C699.009 432.469 698.977 432.389 698.977 432.306C698.977 432.222 699.009 432.142 699.068 432.083C699.133 432.022 699.218 431.989 699.307 431.989C699.395 431.989 699.481 432.022 699.546 432.083L700.501 433.707C700.555 433.775 700.585 433.859 700.585 433.946C700.585 434.033 700.555 434.117 700.501 434.185H700.278Z" fill="#354546"/>
<path d="M706.043 430.966C705.998 430.986 705.949 430.997 705.9 430.997C705.85 430.997 705.801 430.986 705.756 430.966L704.801 429.342C704.74 429.277 704.707 429.192 704.707 429.103C704.707 429.014 704.74 428.929 704.801 428.864C704.86 428.806 704.94 428.773 705.024 428.773C705.107 428.773 705.187 428.806 705.247 428.864L706.202 430.488C706.263 430.553 706.296 430.639 706.296 430.727C706.296 430.816 706.263 430.901 706.202 430.966H706.043Z" fill="#354546"/>
<path d="M710.856 439.245C710.795 439.244 710.736 439.225 710.685 439.192C710.634 439.158 710.594 439.11 710.57 439.054L709.614 437.43C709.554 437.365 709.52 437.279 709.52 437.191C709.52 437.102 709.554 437.017 709.614 436.952C709.677 436.9 709.756 436.872 709.837 436.872C709.918 436.872 709.997 436.9 710.06 436.952L711.015 438.608C711.074 438.668 711.107 438.748 711.107 438.831C711.107 438.914 711.074 438.994 711.015 439.054L710.856 439.245Z" fill="#354546"/>
<path d="M710.216 433.834C710.171 433.854 710.122 433.864 710.073 433.864C710.023 433.864 709.974 433.854 709.929 433.834L708.974 432.21C708.947 432.17 708.929 432.125 708.921 432.078C708.912 432.031 708.913 431.982 708.924 431.936C708.935 431.889 708.955 431.845 708.984 431.806C709.012 431.768 709.048 431.736 709.09 431.712C709.131 431.688 709.177 431.672 709.225 431.667C709.272 431.661 709.32 431.666 709.366 431.679C709.412 431.693 709.455 431.716 709.491 431.747C709.528 431.778 709.558 431.816 709.579 431.859L710.503 433.483C710.563 433.548 710.597 433.634 710.597 433.722C710.597 433.811 710.563 433.896 710.503 433.961L710.216 433.834Z" fill="#354546"/>
<path d="M705.664 433.832C705.604 433.768 705.57 433.682 705.57 433.594C705.57 433.505 705.604 433.419 705.664 433.355L706.62 431.73C706.679 431.672 706.759 431.639 706.843 431.639C706.926 431.639 707.006 431.672 707.065 431.73C707.126 431.795 707.16 431.881 707.16 431.969C707.16 432.058 707.126 432.143 707.065 432.208L706.11 433.832C706.047 433.884 705.968 433.912 705.887 433.912C705.806 433.912 705.727 433.884 705.664 433.832Z" fill="#354546"/>
<path d="M700.033 437.24C699.973 437.175 699.939 437.09 699.939 437.001C699.939 436.913 699.973 436.827 700.033 436.763L700.988 435.138C701.048 435.08 701.128 435.047 701.211 435.047C701.295 435.047 701.375 435.08 701.434 435.138C701.495 435.203 701.528 435.289 701.528 435.377C701.528 435.466 701.495 435.551 701.434 435.616L700.511 437.24C700.439 437.286 700.356 437.31 700.272 437.31C700.187 437.31 700.104 437.286 700.033 437.24Z" fill="#354546"/>
<path d="M709.741 430.966C709.68 430.901 709.647 430.816 709.647 430.727C709.647 430.639 709.68 430.553 709.741 430.488L710.696 428.864C710.756 428.806 710.836 428.773 710.919 428.773C711.003 428.773 711.083 428.806 711.142 428.864C711.203 428.929 711.236 429.014 711.236 429.103C711.236 429.192 711.203 429.277 711.142 429.342L710.187 430.966C710.124 431.018 710.045 431.046 709.964 431.046C709.882 431.046 709.804 431.018 709.741 430.966Z" fill="#354546"/>
<path d="M711.585 434.183C711.497 434.184 711.412 434.151 711.347 434.092C711.283 434.033 711.242 433.952 711.234 433.865C711.234 433.772 711.271 433.683 711.337 433.617C711.403 433.551 711.492 433.515 711.585 433.515H713.464C713.508 433.51 713.553 433.515 713.595 433.529C713.638 433.543 713.677 433.566 713.71 433.596C713.743 433.626 713.769 433.662 713.787 433.703C713.805 433.744 713.814 433.788 713.814 433.833C713.814 433.926 713.777 434.015 713.711 434.081C713.646 434.146 713.556 434.183 713.464 434.183H711.585Z" fill="#354546"/>
</svg>
