<svg width="768" height="695" viewBox="0 0 768 695" fill="none" xmlns="http://www.w3.org/2000/svg">
<g clip-path="url(#clip0)">
<g opacity="0.1">
<path d="M120.496 425.616C120.496 418.221 124.727 412.203 129.98 412.203C135.232 412.203 139.494 418.191 139.494 425.616C139.494 433.041 129.98 449.568 129.98 449.568C129.98 449.568 120.496 433.011 120.496 425.616Z" fill="#404040"/>
<path d="M120.496 376.635C120.496 369.24 124.727 363.222 129.98 363.222C135.232 363.222 139.494 369.21 139.494 376.635C139.494 384.06 129.98 400.587 129.98 400.587C129.98 400.587 120.496 384.03 120.496 376.635Z" fill="#404040"/>
<path d="M120.496 327.413C120.496 319.988 124.727 314 129.98 314C135.232 314 139.494 319.988 139.494 327.413C139.494 334.838 129.98 351.365 129.98 351.365C129.98 351.365 120.496 334.958 120.496 327.413Z" fill="#404040"/>
<path d="M91.9833 391.844C89.6723 384.808 91.9833 377.772 96.8754 376.155C101.767 374.538 107.77 378.94 110.051 386.005C112.332 393.071 108.43 411.664 108.43 411.664C108.43 411.664 94.3843 398.79 91.9833 391.844Z" fill="#404040"/>
<path d="M76.9767 345.167C74.6957 338.131 76.9767 331.125 81.8688 329.479C86.761 327.832 92.7635 332.263 95.0745 339.299C97.3855 346.335 93.3638 364.898 93.3638 364.898C93.3638 364.898 79.1977 352.203 76.9767 345.167Z" fill="#404040"/>
<path d="M168.126 391.844C170.407 384.808 168.126 377.772 163.234 376.155C158.342 374.538 152.34 378.94 150.029 386.005C147.718 393.071 151.679 411.664 151.679 411.664C151.679 411.664 165.845 398.79 168.126 391.844Z" fill="#404040"/>
<path d="M183.313 345.167C185.594 338.131 183.313 331.125 178.421 329.479C173.529 327.832 167.526 332.263 165.215 339.299C162.904 346.335 167.016 364.898 167.016 364.898C167.016 364.898 181.002 352.203 183.313 345.167Z" fill="#404040"/>
<path d="M172.808 646.333H89.3122C88.4685 646.333 87.6593 645.999 87.0627 645.404C86.466 644.808 86.1309 644.001 86.1309 643.16C86.1309 642.318 86.466 641.511 87.0627 640.915C87.6593 640.32 88.4685 639.986 89.3122 639.986H172.808C173.652 639.986 174.461 640.32 175.058 640.915C175.655 641.511 175.99 642.318 175.99 643.16C175.99 644.001 175.655 644.808 175.058 645.404C174.461 645.999 173.652 646.333 172.808 646.333Z" fill="#404040"/>
<path d="M156.631 517.741H105.609C104.765 517.741 103.956 517.407 103.36 516.812C102.763 516.217 102.428 515.409 102.428 514.568C102.428 513.726 102.763 512.919 103.36 512.324C103.956 511.728 104.765 511.394 105.609 511.394H156.631C157.475 511.394 158.284 511.728 158.881 512.324C159.477 512.919 159.813 513.726 159.813 514.568C159.813 515.409 159.477 516.217 158.881 516.812C158.284 517.407 157.475 517.741 156.631 517.741Z" fill="#404040"/>
<path d="M90.8727 641.752C90.2421 641.767 89.6211 641.595 89.0873 641.26C88.5536 640.925 88.1307 640.44 87.8714 639.866C87.6974 639.485 87.6013 639.074 87.5888 638.655C87.5763 638.237 87.6476 637.821 87.7985 637.43C87.9495 637.04 88.177 636.684 88.4679 636.382C88.7587 636.08 89.1069 635.84 89.4921 635.674L170.017 599.836C170.789 599.491 171.667 599.466 172.458 599.766C173.249 600.066 173.888 600.668 174.234 601.438C174.58 602.208 174.605 603.084 174.304 603.873C174.003 604.662 173.4 605.299 172.628 605.645L92.2533 641.573C91.8119 641.732 91.3406 641.794 90.8727 641.752Z" fill="#404040"/>
<path d="M171.278 565.136C170.968 565.913 170.364 566.537 169.597 566.872L159.302 571.483L99.0362 598.429L95.1346 600.166C94.7205 600.354 94.269 600.446 93.814 600.435C93.1143 600.403 92.4446 600.142 91.9088 599.693C91.3729 599.243 91.0009 598.629 90.8504 597.946C90.6999 597.264 90.7794 596.551 91.0765 595.918C91.3735 595.286 91.8716 594.769 92.4934 594.447L100.087 591.064L158.342 565.106L167.016 561.064C167.674 560.776 168.411 560.716 169.108 560.895C169.804 561.075 170.42 561.482 170.857 562.052L171.278 565.136Z" fill="#404040"/>
<path d="M99.1863 565.495C98.496 565.441 97.8424 565.163 97.3246 564.705C96.8068 564.246 96.4532 563.631 96.3174 562.954C96.1816 562.277 96.271 561.574 96.5721 560.952C96.8733 560.33 97.3696 559.822 97.9858 559.507L161.613 531.064C162.369 530.806 163.194 530.838 163.927 531.153C164.661 531.469 165.25 532.046 165.58 532.771C165.91 533.497 165.957 534.319 165.712 535.078C165.467 535.836 164.947 536.476 164.254 536.873L100.477 565.495C100.051 565.579 99.6124 565.579 99.1863 565.495Z" fill="#404040"/>
<path d="M164.405 516.663C164.102 517.015 163.722 517.292 163.294 517.472L152.339 522.352L106.99 542.621L101.497 545.046C101.083 545.235 100.632 545.327 100.177 545.316C99.5447 545.338 98.9203 545.17 98.385 544.834C97.8497 544.498 97.4283 544.008 97.1756 543.43C96.8486 542.658 96.8347 541.789 97.1371 541.007C97.4394 540.225 98.0343 539.591 98.7963 539.238L107.8 535.166L151.379 515.795L160.683 511.604C161.163 511.381 161.693 511.288 162.22 511.335C162.747 511.383 163.252 511.568 163.684 511.873L164.405 516.663Z" fill="#404040"/>
<path d="M171.218 641.752C170.774 641.749 170.335 641.658 169.927 641.483L89.5824 605.555C89.2001 605.386 88.8549 605.143 88.5666 604.841C88.2782 604.539 88.0523 604.183 87.9018 603.794C87.7513 603.405 87.6792 602.99 87.6894 602.573C87.6997 602.156 87.7922 601.745 87.9617 601.363C88.1312 600.982 88.3743 600.638 88.6772 600.35C88.9801 600.062 89.3368 599.837 89.727 599.687C90.1171 599.537 90.5331 599.465 90.9512 599.475C91.3693 599.485 91.7812 599.578 92.1635 599.747L172.538 635.675C172.935 635.825 173.296 636.058 173.596 636.358C173.896 636.657 174.129 637.017 174.279 637.413C174.43 637.81 174.494 638.233 174.468 638.656C174.442 639.079 174.327 639.491 174.129 639.866C173.879 640.428 173.471 640.905 172.954 641.24C172.437 641.575 171.834 641.753 171.218 641.752Z" fill="#404040"/>
<path d="M167.016 600.376C166.568 600.38 166.125 600.277 165.725 600.076L93.9041 568.13C93.5218 567.959 93.177 567.715 92.8894 567.411C92.6018 567.107 92.377 566.75 92.2279 566.359C92.0788 565.968 92.0083 565.552 92.0204 565.134C92.0325 564.717 92.1269 564.305 92.2984 563.924C92.4698 563.543 92.7149 563.199 93.0196 562.912C93.3243 562.625 93.6827 562.401 94.0742 562.252C94.4658 562.103 94.8829 562.033 95.3017 562.045C95.7205 562.057 96.1329 562.151 96.5152 562.322L168.186 594.268C168.786 594.603 169.262 595.12 169.545 595.745C169.828 596.369 169.903 597.068 169.759 597.738C169.614 598.408 169.258 599.014 168.743 599.467C168.228 599.921 167.58 600.197 166.896 600.256L167.016 600.376Z" fill="#404040"/>
<path d="M161.974 564.118C161.53 564.115 161.091 564.023 160.683 563.848L98.8262 536.274C98.4439 536.103 98.0991 535.858 97.8115 535.554C97.5239 535.25 97.2991 534.893 97.15 534.502C97.0009 534.112 96.9304 533.696 96.9425 533.278C96.9546 532.86 97.0491 532.449 97.2205 532.067C97.392 531.686 97.637 531.342 97.9417 531.055C98.2464 530.768 98.6048 530.544 98.9964 530.395C99.3879 530.246 99.805 530.176 100.224 530.188C100.643 530.2 101.055 530.294 101.437 530.465L163.294 558.04C163.916 558.362 164.414 558.879 164.711 559.512C165.008 560.144 165.088 560.857 164.937 561.54C164.787 562.222 164.415 562.836 163.879 563.286C163.343 563.736 162.673 563.997 161.974 564.028V564.118Z" fill="#404040"/>
<path d="M159.873 544.028C159.429 544.025 158.99 543.933 158.582 543.759L100.987 518.04C100.215 517.695 99.612 517.057 99.3109 516.269C99.0098 515.48 99.0351 514.604 99.3814 513.834C99.7276 513.063 100.366 512.462 101.157 512.161C101.948 511.861 102.826 511.886 103.598 512.232L161.223 537.95C161.843 538.27 162.341 538.785 162.639 539.415C162.937 540.045 163.019 540.755 162.872 541.436C162.725 542.117 162.358 542.731 161.827 543.183C161.295 543.636 160.63 543.901 159.933 543.938L159.873 544.028Z" fill="#404040"/>
<path d="M81.0286 686.243H80.1282C78.4517 685.998 76.9401 685.102 75.9226 683.751C74.9051 682.4 74.4642 680.702 74.6958 679.027L105.939 458.46C106.011 457.594 106.26 456.751 106.67 455.984C107.079 455.217 107.642 454.542 108.323 454C109.005 453.458 109.79 453.06 110.63 452.832C111.471 452.603 112.35 452.549 113.212 452.671C114.075 452.794 114.903 453.091 115.647 453.545C116.39 453.998 117.032 454.599 117.535 455.309C118.037 456.02 118.388 456.825 118.567 457.676C118.746 458.526 118.749 459.405 118.575 460.256L87.3613 680.764C87.1385 682.282 86.3767 683.671 85.2145 684.676C84.0523 685.682 82.5669 686.238 81.0286 686.243Z" fill="#404040"/>
<path d="M182.022 686.184H181.122C179.59 686.184 178.108 685.634 176.951 684.633C175.793 683.632 175.036 682.248 174.819 680.734L159.302 571.484L158.342 564.927L152.339 522.352L151.379 515.795L143.516 460.257C143.339 459.403 143.339 458.522 143.517 457.668C143.695 456.814 144.047 456.006 144.551 455.293C145.054 454.58 145.699 453.978 146.445 453.523C147.191 453.069 148.023 452.772 148.889 452.651C149.755 452.53 150.636 452.587 151.479 452.82C152.321 453.052 153.107 453.454 153.788 454.001C154.469 454.549 155.029 455.229 155.436 456.002C155.842 456.774 156.086 457.621 156.151 458.49L163.744 511.933L164.405 516.664L170.827 562.053L171.278 565.047L187.394 678.818C187.535 679.655 187.507 680.511 187.312 681.337C187.118 682.162 186.759 682.941 186.259 683.627C185.759 684.312 185.126 684.892 184.399 685.331C183.671 685.77 182.863 686.06 182.022 686.184Z" fill="#404040"/>
<path d="M131 686.243C127.999 686.243 125.598 684.806 125.598 683.069V462.532C125.598 460.795 127.999 459.358 131 459.358C134.002 459.358 136.403 460.795 136.403 462.532V683.069C136.433 684.806 134.002 686.243 131 686.243Z" fill="#404040"/>
<path d="M161.824 451.125H100.297C97.3796 451.125 95.0146 453.484 95.0146 456.394V465.586C95.0146 468.496 97.3796 470.855 100.297 470.855H161.824C164.741 470.855 167.106 468.496 167.106 465.586V456.394C167.106 453.484 164.741 451.125 161.824 451.125Z" fill="#404040"/>
<path d="M235.836 664.058H24.124C19.0849 664.058 15 668.133 15 673.159V693.698C15 698.725 19.0849 702.8 24.124 702.8H235.836C240.875 702.8 244.96 698.725 244.96 693.698V673.159C244.96 668.133 240.875 664.058 235.836 664.058Z" fill="#404040"/>
<path d="M697.749 205.522L669.26 210.57C668.63 210.685 668.072 211.045 667.707 211.571L658.008 225.784C658.008 225.784 658.008 225.784 657.809 226.027L652.608 233.005L650.474 231.514L638.96 247.986L640.62 249.145L634.093 258.019C633.577 258.741 633.363 259.636 633.497 260.513L642.711 312.525C642.914 313.371 643.432 314.107 644.16 314.583C644.887 315.059 645.77 315.238 646.625 315.085L714.409 303.077C715.265 302.927 716.032 302.455 716.552 301.758C717.072 301.061 717.306 300.192 717.206 299.328L700.917 207.384C700.861 207.037 700.729 206.708 700.531 206.418C700.333 206.129 700.073 205.886 699.771 205.708C699.468 205.531 699.13 205.422 698.781 205.39C698.431 205.358 698.079 205.403 697.749 205.522ZM671.06 215.061L696.227 210.603L697.552 218.086L665.104 223.834L671.06 215.061ZM699.981 248.008C700.066 248.47 700.046 248.945 699.922 249.398C699.799 249.851 699.575 250.271 699.268 250.626L706.877 293.578C707.035 294.468 706.833 295.384 706.315 296.125C705.797 296.866 705.006 297.371 704.116 297.528L653.782 306.445C652.892 306.603 651.976 306.401 651.235 305.883C650.494 305.365 649.989 304.574 649.832 303.684L642.971 264.96C642.888 264.503 642.898 264.034 643.002 263.581C643.107 263.128 643.302 262.701 643.578 262.327L648.944 255.112L660.927 238.937L661.215 238.609C661.463 238.26 661.778 237.965 662.142 237.739C662.507 237.514 662.913 237.365 663.336 237.299L689.879 232.597L689.385 229.812C689.237 228.975 689.427 228.114 689.914 227.418C690.401 226.721 691.144 226.247 691.981 226.099L692.686 225.974C693.522 225.826 694.383 226.016 695.08 226.503C695.776 226.989 696.25 227.733 696.399 228.569L699.981 248.008Z" fill="#404040"/>
<path d="M696.657 251.714C695.822 251.812 694.98 251.598 694.294 251.112C693.607 250.627 693.124 249.905 692.938 249.085L690.358 234.522L663.815 239.224C663.633 239.254 663.46 239.321 663.305 239.42C663.15 239.519 663.017 239.648 662.913 239.799L662.686 240.082L650.698 256.222L645.438 263.453C645.209 263.778 645.119 264.18 645.186 264.571L652.017 303.127C652.049 303.31 652.118 303.486 652.219 303.642C652.32 303.799 652.452 303.933 652.606 304.038C652.76 304.143 652.933 304.216 653.116 304.253C653.299 304.29 653.487 304.29 653.67 304.253L704.004 295.336C704.185 295.304 704.357 295.236 704.512 295.138C704.667 295.039 704.8 294.911 704.905 294.76C705.011 294.61 705.085 294.44 705.125 294.261C705.164 294.082 705.168 293.897 705.136 293.716L697.657 251.503L696.651 251.681L696.657 251.714ZM677.506 293.454C671.922 294.405 666.183 293.256 661.395 290.228C656.608 287.199 653.11 282.507 651.577 277.053C650.044 271.6 650.583 265.772 653.09 260.692C655.598 255.613 659.896 251.641 665.158 249.542C666.563 248.986 668.021 248.577 669.51 248.321C672.526 247.666 675.643 247.626 678.675 248.205C681.707 248.783 684.59 249.967 687.154 251.686C689.717 253.405 691.907 255.624 693.592 258.209C695.277 260.795 696.423 263.694 696.962 266.733C697.5 269.772 697.42 272.888 696.725 275.895C696.03 278.902 694.736 281.738 692.92 284.233C691.103 286.728 688.801 288.831 686.153 290.415C683.504 292 680.563 293.033 677.506 293.454Z" fill="#404040"/>
<path d="M648.673 225.05L643.301 221.295C642.954 221.049 642.562 220.875 642.148 220.782C641.733 220.689 641.304 220.679 640.886 220.754C640.227 220.886 639.622 221.21 639.147 221.685L649.728 229.051C650.053 228.367 650.126 227.59 649.933 226.858C649.74 226.125 649.293 225.485 648.673 225.05Z" fill="#404040"/>
<path d="M638.622 229.878L645.732 234.849L648.852 230.385L649.459 229.516L648.852 230.385L648.521 230.859L641.41 225.889L637.889 223.398L638.8 222.094L635.039 227.433L635.1 227.387L638.622 229.878Z" fill="#404040"/>
<path d="M666.193 276.873C667.317 283.215 671.85 287.707 676.347 286.911C680.843 286.114 683.558 280.338 682.434 273.996C681.311 267.654 670.681 254.931 670.681 254.931C670.681 254.931 665.058 270.464 666.193 276.873ZM679.651 274.696C680.032 276.844 679.127 278.769 677.617 279.037C676.107 279.304 674.562 277.813 674.182 275.665C674.326 273.111 674.899 270.6 675.876 268.236C677.531 270.138 678.861 272.299 679.813 274.633L679.651 274.696Z" fill="#404040"/>
<path d="M650 568.497C650 584.806 640.62 598 629 598C617.38 598 608 584.806 608 568.497C608 552.188 629 516 629 516C629 516 650 552.188 650 568.497Z" fill="#404040"/>
<path d="M80.0621 247.91C79.9295 247.557 79.7734 247.214 79.5946 246.882L58.6864 200.69L62.0194 177.304C62.0963 176.688 62.0772 176.064 61.9628 175.454C62.5295 175.417 63.061 175.166 63.4503 174.752C63.8396 174.339 64.0578 173.793 64.0609 173.225C64.064 172.657 63.8519 172.109 63.4672 171.692C63.0824 171.274 62.5537 171.017 61.9874 170.974L48.3846 169.035C48.0926 168.993 47.7952 169.01 47.5095 169.083C47.2238 169.156 46.9554 169.285 46.7195 169.462C46.4836 169.639 46.2848 169.861 46.1346 170.115C45.9845 170.369 45.8857 170.65 45.8441 170.942C45.7635 171.489 45.8906 172.048 46.2005 172.507C46.5104 172.966 46.9807 173.292 47.5191 173.422C47.2485 173.97 47.0658 174.556 46.9778 175.16L43.4547 199.881L11.513 237.099L11.3262 237.286C11.1242 237.493 10.9404 237.717 10.7771 237.955C9.87019 239.257 9.29006 240.758 9.08577 242.332C8.85181 243.869 8.97508 245.439 9.44604 246.921C9.65385 247.848 10.1236 248.697 10.7994 249.366C11.4753 250.035 12.3289 250.496 13.2589 250.694L74.2625 259.388C75.1689 259.446 76.0738 259.254 76.8779 258.832C77.682 258.41 78.3543 257.774 78.8207 256.995C79.6868 255.704 80.2438 254.23 80.4486 252.689C80.714 251.088 80.5813 249.447 80.0621 247.91ZM54.7753 171.2L60.8181 172.061C61.1095 172.103 61.3725 172.259 61.5492 172.494C61.7259 172.729 61.8018 173.025 61.7603 173.317C61.7313 173.536 61.627 173.738 61.4652 173.889C61.3525 174.032 61.2045 174.144 61.0355 174.214C60.8666 174.283 60.6825 174.308 60.5013 174.285L54.4584 173.424C54.1987 173.345 53.9757 173.176 53.8298 172.947C53.6839 172.718 53.6248 172.445 53.6631 172.176C53.7014 171.907 53.8346 171.661 54.0386 171.482C54.2426 171.303 54.504 171.203 54.7753 171.2ZM18.478 235.423L34.1218 216.674L42.4667 206.813L45.6978 202.869L46.9492 201.58L50.6774 175.42C50.7185 174.946 50.7857 174.475 50.8787 174.008L58.4911 175.093C58.45 175.567 58.3828 176.039 58.2898 176.505L54.5206 202.953L57.3478 209.334L62.344 220.722L72.2616 243.088C72.4323 243.371 72.5774 243.669 72.6954 243.977C73.1714 245.235 73.2722 246.604 72.9854 247.919C72.6986 249.233 72.0366 250.435 71.0798 251.381L17.2961 243.715C16.6415 242.541 16.3418 241.201 16.4336 239.859C16.5253 238.517 17.0045 237.231 17.8131 236.156C18.0126 235.892 18.2351 235.647 18.478 235.423Z" fill="#404040"/>
<path d="M70.5696 249.733C71.2162 248.881 71.6054 247.862 71.6911 246.796C71.7768 245.729 71.5555 244.661 71.0534 243.717L61.5508 222.184L34.7375 218.363L19.5979 236.383C18.8425 237.143 18.3232 238.105 18.1028 239.154C17.8823 240.202 17.9701 241.292 18.3555 242.292L70.5696 249.733ZM56.9566 228.576L57.3751 228.635C59.0194 228.87 60.5033 229.748 61.5002 231.076C62.4972 232.404 62.9257 234.074 62.6913 235.719L62.6354 236.111C62.4011 237.755 61.5231 239.239 60.1947 240.236C58.8664 241.233 57.1963 241.662 55.552 241.427L55.1335 241.368C53.4892 241.133 52.0054 240.255 51.0084 238.927C50.0114 237.599 49.583 235.929 49.8173 234.284L49.8732 233.892C50.1076 232.248 50.9855 230.764 52.3139 229.767C53.6423 228.77 55.3123 228.341 56.9566 228.576Z" fill="#404040"/>
<path d="M50.4693 210.622C50.7201 210.658 50.9754 210.644 51.2208 210.581C51.4662 210.518 51.6967 210.408 51.8993 210.256C52.1019 210.104 52.2726 209.913 52.4016 209.695C52.5306 209.477 52.6153 209.236 52.6511 208.985L56.1369 184.526C56.2091 184.02 56.0772 183.505 55.7701 183.096C55.463 182.687 55.0059 182.416 54.4995 182.344C53.993 182.272 53.4786 182.404 53.0695 182.711C52.6603 183.018 52.3899 183.475 52.3177 183.982L48.8206 208.519C48.7707 209.015 48.9144 209.511 49.2217 209.903C49.529 210.295 49.9761 210.553 50.4693 210.622Z" fill="#404040"/>
</g>
<circle opacity="0.2" cx="384" cy="435" r="200" fill="#4B0731"/>
<circle cx="384" cy="435" r="180" fill="#936A83"/>
<mask id="mask0" mask-type="alpha" maskUnits="userSpaceOnUse" x="204" y="255" width="360" height="360">
<circle cx="384" cy="435" r="180" fill="#936A83"/>
</mask>
<g mask="url(#mask0)">
<path d="M509.103 376.301C509.103 372.034 506.657 368.569 503.643 368.569C500.628 368.569 498.182 372.034 498.182 376.301C498.182 380.568 503.643 390.002 503.643 390.002C503.643 390.002 509.103 380.548 509.103 376.301Z" fill="#514260"/>
<path d="M509.103 348.078C509.103 343.811 506.657 340.346 503.643 340.346C500.628 340.346 498.182 343.811 498.182 348.078C498.182 352.344 503.643 361.779 503.643 361.779C503.643 361.779 509.103 352.325 509.103 348.078Z" fill="#514260"/>
<path d="M509.103 319.716C509.103 315.449 506.657 311.985 503.643 311.985C500.628 311.985 498.182 315.449 498.182 319.814C498.182 324.179 503.643 333.515 503.643 333.515C503.643 333.515 509.103 323.983 509.103 319.716Z" fill="#514260"/>
<path d="M481.855 356.786C483.186 360.838 491.329 368.197 491.329 368.197C491.329 368.197 493.58 357.452 492.268 353.4C490.957 349.348 487.551 346.823 484.674 347.743C481.797 348.663 480.544 352.734 481.855 356.786Z" fill="#514260"/>
<path d="M482.599 341.363C482.599 341.363 484.85 330.618 483.539 326.566C482.228 322.515 478.822 319.97 475.945 320.91C473.067 321.849 471.815 325.881 473.146 330.031C474.477 334.18 482.599 341.363 482.599 341.363Z" fill="#514260"/>
<path d="M525.563 356.786C526.874 352.735 525.563 348.683 522.744 347.743C519.926 346.804 516.481 349.348 515.17 353.4C513.858 357.452 516.109 368.197 516.109 368.197C516.109 368.197 524.232 360.838 525.563 356.786Z" fill="#514260"/>
<path d="M534.272 330.03C535.603 325.959 534.272 321.927 531.473 320.987C528.674 320.048 525.21 322.592 523.879 326.644C522.548 330.695 524.838 341.441 524.838 341.441C524.838 341.441 532.961 333.945 534.272 330.03Z" fill="#514260"/>
<path d="M564.396 513.664H535.428L527.364 456.648L527.109 454.886L523.41 428.737L523.038 425.996L519.691 402.45H521.942C522.747 402.45 523.518 402.13 524.087 401.561C524.656 400.992 524.976 400.221 524.976 399.416V394.014C524.979 393.615 524.902 393.219 524.75 392.85C524.599 392.481 524.375 392.145 524.093 391.863C523.811 391.581 523.475 391.357 523.106 391.206C522.737 391.054 522.341 390.977 521.942 390.98H486.574C486.174 390.977 485.779 391.054 485.409 391.206C485.04 391.357 484.705 391.581 484.422 391.863C484.14 392.145 483.917 392.481 483.765 392.85C483.614 393.219 483.537 393.615 483.54 394.014V399.318C483.527 399.725 483.595 400.13 483.742 400.509C483.889 400.889 484.11 401.235 484.393 401.527C484.676 401.819 485.015 402.051 485.389 402.21C485.764 402.369 486.167 402.45 486.574 402.45H488.824L473.166 513.762H442.808C441.42 513.762 440.089 514.312 439.106 515.292C438.123 516.271 437.568 517.6 437.563 518.988V530.83C437.562 531.518 437.698 532.199 437.962 532.834C438.226 533.47 438.613 534.047 439.1 534.532C439.587 535.018 440.166 535.402 440.802 535.664C441.438 535.925 442.12 536.059 442.808 536.056H564.396C565.083 536.059 565.764 535.925 566.399 535.663C567.034 535.402 567.612 535.017 568.097 534.531C568.583 534.045 568.968 533.468 569.23 532.833C569.491 532.198 569.625 531.517 569.622 530.83V518.988C569.635 518.294 569.51 517.604 569.253 516.958C568.996 516.313 568.613 515.725 568.127 515.229C567.64 514.734 567.059 514.34 566.419 514.071C565.778 513.803 565.091 513.664 564.396 513.664ZM485.849 475.79L501.136 468.998V485.244L485.477 478.257L485.83 475.79H485.849ZM488.648 455.904L501.136 450.326V462.52L488.531 456.883L488.648 455.904ZM490.39 443.69L492.132 442.908L500.431 446.607L489.275 451.618L490.39 443.69ZM523.019 478.257L507.36 485.264V469.312L522.745 476.182L523.019 478.257ZM507.36 449.699L519.77 455.297L519.946 456.589L507.341 462.226L507.36 449.699ZM518.125 443.456L519.182 450.952L509.396 446.607L517.225 443.084L518.125 443.456ZM507.36 443.456V438.66L512.801 441.087L507.36 443.456ZM501.155 442.849L496.654 440.891L501.155 438.934V442.849ZM484.988 481.995L499.805 488.572L483.011 496.068L484.988 481.995ZM523.567 481.995L525.524 496.107L508.75 488.572L523.567 481.995ZM522.138 471.856L508.437 465.691L520.572 460.269L522.138 471.856ZM517.421 438.973H517.225L508.946 435.274L516.442 431.927L517.421 438.973ZM507.301 432.084V429.363H513.506L507.301 432.084ZM501.136 431.81L495.538 429.304H501.136V431.81ZM500.001 435.313L492.171 438.817L491.173 438.367L491.976 431.81L500.001 435.313ZM499.355 465.671L486.456 471.543L487.983 460.699L499.355 465.671ZM501.136 491.997V499.826H483.735L501.136 491.997ZM507.341 491.997L524.78 499.826H507.341V491.997ZM515.581 425.664H507.341V402.45H512.293L515.581 425.664ZM501.136 402.45V425.703H492.935L496.223 402.45H501.136ZM481.935 503.584H501.136V513.762H480.506L481.935 503.584ZM507.38 513.762V503.584H526.62L528.049 513.762H507.38Z" fill="#514260"/>
<path d="M436.643 351.971C436.643 361.092 431.397 368.471 424.899 368.471C418.4 368.471 413.155 361.092 413.155 351.971C413.155 342.85 424.899 322.611 424.899 322.611C424.899 322.611 436.643 342.85 436.643 351.971Z" fill="#514260"/>
<path d="M343.846 500.315H278.003C274.751 500.31 271.635 499.015 269.337 496.714C267.04 494.413 265.75 491.294 265.75 488.043V483.247C265.747 481.636 266.062 480.04 266.676 478.55C267.291 477.06 268.193 475.705 269.33 474.564C270.468 473.422 271.82 472.516 273.308 471.897C274.796 471.278 276.391 470.958 278.003 470.956H343.846C347.098 470.961 350.214 472.256 352.512 474.557C354.809 476.858 356.099 479.976 356.099 483.228V487.984C356.107 489.599 355.796 491.2 355.184 492.694C354.572 494.189 353.671 495.548 352.532 496.693C351.394 497.839 350.041 498.748 348.55 499.37C347.06 499.991 345.461 500.313 343.846 500.315ZM278.003 475.066C275.833 475.066 273.752 475.928 272.217 477.462C270.683 478.997 269.821 481.078 269.821 483.247V487.984C269.821 490.154 270.683 492.235 272.217 493.769C273.752 495.304 275.833 496.166 278.003 496.166H343.846C346.013 496.161 348.089 495.296 349.619 493.763C351.149 492.229 352.008 490.151 352.008 487.984V483.247C352.008 481.081 351.149 479.003 349.619 477.469C348.089 475.935 346.013 475.071 343.846 475.066H278.003Z" fill="#C5D3E1"/>
<path d="M322.218 454.005V504.347C322.218 506.61 321.319 508.781 319.719 510.381C318.118 511.982 315.948 512.881 313.685 512.881H291.195C288.93 512.881 286.757 511.982 285.154 510.383C283.55 508.783 282.647 506.612 282.642 504.347V454.005C282.657 451.747 283.565 449.586 285.168 447.995C286.77 446.403 288.937 445.51 291.195 445.51H313.685C314.399 445.509 315.111 445.608 315.798 445.804C317.625 446.267 319.247 447.324 320.409 448.808C321.57 450.292 322.207 452.12 322.218 454.005Z" fill="#D6741D"/>
<path d="M291.096 518.834C291.09 519.412 290.857 519.964 290.447 520.371C290.036 520.778 289.481 521.006 288.903 521.006C288.327 521.006 287.775 520.777 287.367 520.37C286.96 519.963 286.731 519.41 286.731 518.834V508.147C286.731 507.569 286.959 507.014 287.366 506.604C287.773 506.193 288.325 505.96 288.903 505.955C289.191 505.955 289.476 506.011 289.742 506.121C290.008 506.232 290.25 506.393 290.453 506.597C290.657 506.8 290.818 507.042 290.929 507.308C291.039 507.574 291.096 507.859 291.096 508.147V518.834Z" fill="#7C8A98"/>
<path d="M318.224 518.834C318.224 519.41 317.995 519.963 317.587 520.37C317.18 520.777 316.627 521.006 316.051 521.006C315.764 521.009 315.479 520.955 315.213 520.847C314.948 520.739 314.706 520.579 314.502 520.377C314.298 520.175 314.136 519.935 314.026 519.67C313.916 519.405 313.859 519.121 313.859 518.834V508.147C313.856 507.86 313.91 507.575 314.018 507.309C314.126 507.043 314.286 506.802 314.488 506.598C314.69 506.394 314.931 506.232 315.195 506.122C315.46 506.011 315.744 505.955 316.031 505.955C316.319 505.955 316.604 506.011 316.87 506.121C317.136 506.232 317.378 506.393 317.581 506.597C317.785 506.8 317.947 507.042 318.057 507.308C318.167 507.574 318.224 507.859 318.224 508.147V518.834Z" fill="#7C8A98"/>
<path d="M325.465 506.051C325.465 506.57 325.259 507.068 324.892 507.435C324.525 507.802 324.027 508.008 323.508 508.008H281.347C280.828 508.008 280.33 507.802 279.963 507.435C279.596 507.068 279.39 506.57 279.39 506.051C279.39 505.532 279.596 505.034 279.963 504.667C280.33 504.3 280.828 504.094 281.347 504.094H323.508C323.765 504.094 324.019 504.144 324.257 504.243C324.494 504.341 324.71 504.485 324.892 504.667C325.074 504.849 325.218 505.065 325.316 505.302C325.415 505.54 325.465 505.794 325.465 506.051Z" fill="#7C8A98"/>
<path d="M316.053 447.879V491.527C316.053 492.716 315.819 493.893 315.363 494.992C314.907 496.09 314.24 497.088 313.398 497.928C312.556 498.768 311.557 499.433 310.458 499.887C309.358 500.34 308.18 500.572 306.991 500.569C305.801 500.575 304.622 500.344 303.521 499.892C302.421 499.44 301.421 498.774 300.578 497.934C299.736 497.093 299.068 496.094 298.614 494.995C298.159 493.895 297.926 492.717 297.929 491.527V447.879C297.908 447.08 298 446.283 298.203 445.51H313.607C314.322 445.509 315.033 445.608 315.721 445.804C315.916 446.479 316.028 447.176 316.053 447.879Z" fill="#F19B2C"/>
<path d="M325.465 455.297C325.465 455.816 325.259 456.314 324.892 456.681C324.525 457.048 324.027 457.254 323.508 457.254H281.347C280.828 457.254 280.33 457.048 279.963 456.681C279.596 456.314 279.39 455.816 279.39 455.297C279.39 454.778 279.596 454.28 279.963 453.913C280.33 453.546 280.828 453.339 281.347 453.339H323.508C323.765 453.339 324.019 453.39 324.257 453.488C324.494 453.587 324.71 453.731 324.892 453.913C325.074 454.094 325.218 454.31 325.316 454.548C325.415 454.785 325.465 455.04 325.465 455.297Z" fill="#7C8A98"/>
<path d="M328.948 459.31H312.644C309.392 459.305 306.276 458.01 303.979 455.709C301.681 453.408 300.391 450.289 300.391 447.038V420.888C300.391 417.638 301.682 414.522 303.98 412.224C306.278 409.926 309.394 408.635 312.644 408.635H328.948C329.488 408.635 330.006 408.85 330.388 409.231C330.769 409.613 330.984 410.131 330.984 410.671C330.984 411.211 330.769 411.728 330.388 412.11C330.006 412.492 329.488 412.706 328.948 412.706H312.644C310.477 412.712 308.401 413.576 306.871 415.11C305.341 416.643 304.482 418.722 304.482 420.888V447.038C304.472 448.117 304.675 449.188 305.08 450.188C305.486 451.189 306.085 452.099 306.843 452.867C307.602 453.634 308.505 454.244 309.501 454.662C310.496 455.079 311.564 455.295 312.644 455.298H328.948C329.491 455.298 330.011 455.513 330.395 455.897C330.778 456.28 330.994 456.8 330.994 457.343C330.994 457.885 330.778 458.406 330.395 458.789C330.011 459.173 329.491 459.388 328.948 459.388V459.31Z" fill="#C5D3E1"/>
<path d="M442.282 432.045H430.538C429.996 432.045 429.475 431.83 429.092 431.446C428.708 431.063 428.493 430.542 428.493 430C428.493 429.457 428.708 428.937 429.092 428.554C429.475 428.17 429.996 427.954 430.538 427.954H442.282C444.452 427.954 446.533 427.092 448.067 425.558C449.601 424.024 450.463 421.943 450.463 419.773V418.579C450.458 416.412 449.594 414.336 448.06 412.806C446.526 411.276 444.448 410.417 442.282 410.417H430.538C429.996 410.417 429.475 410.201 429.092 409.818C428.708 409.434 428.493 408.914 428.493 408.372C428.493 407.829 428.708 407.309 429.092 406.925C429.475 406.542 429.996 406.326 430.538 406.326H442.282C445.53 406.331 448.644 407.624 450.94 409.921C453.237 412.217 454.53 415.331 454.535 418.579V419.773C454.535 423.024 453.244 426.143 450.947 428.444C448.65 430.745 445.533 432.04 442.282 432.045Z" fill="#C5D3E1"/>
<path d="M436.759 476.339H430.554C430.011 476.339 429.491 476.123 429.108 475.74C428.724 475.356 428.509 474.836 428.509 474.294C428.509 473.751 428.724 473.231 429.108 472.847C429.491 472.464 430.011 472.248 430.554 472.248H436.759C437.648 472.243 438.499 471.886 439.126 471.255C439.754 470.624 440.106 469.771 440.106 468.882V468.255C440.1 467.369 439.746 466.521 439.12 465.894C438.493 465.268 437.645 464.913 436.759 464.908H430.554C430.011 464.908 429.491 464.693 429.108 464.309C428.724 463.926 428.509 463.405 428.509 462.863C428.509 462.32 428.724 461.8 429.108 461.416C429.491 461.033 430.011 460.817 430.554 460.817H436.759C438.731 460.817 440.623 461.601 442.018 462.996C443.413 464.391 444.196 466.283 444.196 468.255V468.882C444.196 470.856 443.413 472.75 442.019 474.148C440.625 475.546 438.733 476.334 436.759 476.339Z" fill="#C5D3E1"/>
<path d="M436.759 493.369H430.554C430.011 493.369 429.491 493.153 429.108 492.77C428.724 492.386 428.509 491.866 428.509 491.323C428.509 490.781 428.724 490.261 429.108 489.877C429.491 489.493 430.011 489.278 430.554 489.278H436.759C437.646 489.278 438.498 488.925 439.125 488.298C439.753 487.67 440.106 486.819 440.106 485.931V485.305C440.106 484.415 439.754 483.562 439.126 482.931C438.499 482.3 437.648 481.943 436.759 481.938H430.554C430.014 481.938 429.496 481.723 429.115 481.342C428.733 480.96 428.518 480.442 428.518 479.902C428.518 479.362 428.733 478.845 429.115 478.463C429.496 478.081 430.014 477.867 430.554 477.867H436.759C438.731 477.867 440.623 478.65 442.018 480.045C443.413 481.44 444.196 483.332 444.196 485.305V485.931C444.196 487.903 443.413 489.795 442.018 491.19C440.623 492.585 438.731 493.369 436.759 493.369Z" fill="#C5D3E1"/>
<path d="M436.759 510.417H430.554C430.011 510.417 429.491 510.202 429.108 509.818C428.724 509.434 428.509 508.914 428.509 508.372C428.509 507.829 428.724 507.309 429.108 506.925C429.491 506.542 430.011 506.326 430.554 506.326H436.759C437.645 506.321 438.493 505.967 439.12 505.34C439.746 504.714 440.1 503.865 440.106 502.979V502.275C440.1 501.389 439.746 500.54 439.12 499.914C438.493 499.287 437.645 498.933 436.759 498.928H430.554C430.011 498.928 429.491 498.712 429.108 498.329C428.724 497.945 428.509 497.425 428.509 496.882C428.509 496.34 428.724 495.82 429.108 495.436C429.491 495.052 430.011 494.837 430.554 494.837H436.759C438.73 494.842 440.618 495.627 442.012 497.021C443.406 498.415 444.191 500.304 444.196 502.275V502.921C444.202 503.902 444.013 504.874 443.642 505.782C443.271 506.69 442.724 507.516 442.033 508.212C441.342 508.909 440.521 509.462 439.615 509.84C438.71 510.218 437.74 510.415 436.759 510.417Z" fill="#C5D3E1"/>
<path d="M399.982 517.678C399.982 519.89 387.847 521.847 385.616 521.847H374.811C372.56 521.847 360.523 520.027 360.523 517.757L361.247 507.226L362.128 495.032L363.557 474.637L364.418 462.58L365.847 442.263L366.708 430.01L368.156 409.713L369.018 397.5L370.74 373.229C370.745 372.153 371.177 371.122 371.939 370.363C372.702 369.603 373.735 369.177 374.811 369.177H385.616C386.695 369.177 387.731 369.606 388.494 370.37C389.258 371.133 389.687 372.169 389.687 373.248L391.409 397.519L392.271 409.733L393.739 430.03L394.58 442.205L396.068 462.482L396.929 474.676L398.358 494.954L399.239 507.148L399.982 517.678Z" fill="#F19B2C"/>
<path d="M392.27 409.712H368.156L369.017 397.518H391.428L392.27 409.712Z" fill="#F7B23F"/>
<path d="M394.579 442.184H365.846L366.707 430.009H393.737L394.579 442.184Z" fill="#F7B23F"/>
<path d="M396.869 474.675H364.75C364.323 474.676 363.897 474.637 363.478 474.558L364.339 462.501H396.067L396.869 474.675Z" fill="#F7B23F"/>
<path d="M399.18 507.147H361.247L362.128 494.953H398.299L399.18 507.147Z" fill="#F7B23F"/>
<path d="M415.798 399.769C415.532 399.769 415.269 399.715 415.025 399.611C414.781 399.506 414.561 399.353 414.378 399.161C414.195 398.969 414.053 398.741 413.96 398.493C413.868 398.244 413.827 397.979 413.84 397.713V391.939C413.84 389.769 412.978 387.688 411.444 386.154C409.91 384.62 407.829 383.758 405.659 383.758H355.375C354.296 383.75 353.226 383.956 352.226 384.364C351.227 384.771 350.318 385.373 349.552 386.133C348.786 386.894 348.178 387.798 347.764 388.795C347.349 389.791 347.135 390.86 347.135 391.939V397.713C347.135 398.253 346.921 398.771 346.539 399.153C346.157 399.535 345.639 399.749 345.1 399.749C344.56 399.749 344.042 399.535 343.66 399.153C343.278 398.771 343.064 398.253 343.064 397.713V391.939C343.064 388.688 344.354 385.569 346.652 383.268C348.949 380.967 352.065 379.672 355.317 379.667H405.522C408.773 379.672 411.89 380.967 414.187 383.268C416.484 385.569 417.775 388.688 417.775 391.939V397.713C417.788 397.98 417.746 398.247 417.653 398.497C417.559 398.747 417.415 398.976 417.23 399.168C417.045 399.361 416.822 399.513 416.576 399.617C416.33 399.72 416.065 399.772 415.798 399.769Z" fill="#C5D3E1"/>
<path d="M380.762 325.176C381.388 325.176 389.335 333.651 384.677 344.593C380.018 355.534 380.41 364.166 381.036 364.048C379.842 364.048 369.292 355.299 377.121 344.652C384.951 334.004 381.975 325.196 380.762 325.176Z" fill="#7C8A98"/>
<path d="M369.057 407.931V511.14C369.057 513.843 367.986 516.436 366.079 518.351C364.171 520.266 361.582 521.347 358.879 521.357H339.306C336.597 521.357 333.998 520.281 332.082 518.365C330.166 516.449 329.089 513.85 329.089 511.14V407.931C329.087 406.589 329.349 405.259 329.862 404.018C330.374 402.777 331.127 401.65 332.076 400.701C333.025 399.751 334.153 398.999 335.393 398.486C336.634 397.974 337.964 397.711 339.306 397.714H358.879C361.579 397.734 364.162 398.819 366.067 400.732C367.973 402.644 369.047 405.231 369.057 407.931Z" fill="#8C9AA8"/>
<path d="M363.46 398.83V503.722C363.517 504.959 363.323 506.195 362.889 507.355C362.455 508.515 361.79 509.575 360.935 510.471C360.079 511.367 359.051 512.08 357.912 512.567C356.774 513.054 355.548 513.305 354.309 513.305C353.071 513.305 351.845 513.054 350.706 512.567C349.568 512.08 348.539 511.367 347.684 510.471C346.829 509.575 346.164 508.515 345.73 507.355C345.296 506.195 345.102 504.959 345.159 503.722V397.714H358.86C360.46 397.719 362.036 398.101 363.46 398.83Z" fill="#9CAAB8"/>
<path d="M372.247 416.699C372.247 417.219 372.041 417.716 371.674 418.084C371.307 418.451 370.809 418.657 370.29 418.657H328.129C327.61 418.657 327.112 418.451 326.745 418.084C326.378 417.716 326.172 417.219 326.172 416.699C326.172 416.18 326.378 415.683 326.745 415.315C327.112 414.948 327.61 414.742 328.129 414.742H370.29C370.809 414.742 371.307 414.948 371.674 415.315C372.041 415.683 372.247 416.18 372.247 416.699Z" fill="#9CAAB8"/>
<path d="M372.247 440.795C372.247 441.314 372.041 441.812 371.674 442.179C371.307 442.546 370.809 442.752 370.29 442.752H328.129C327.61 442.752 327.112 442.546 326.745 442.179C326.378 441.812 326.172 441.314 326.172 440.795C326.172 440.276 326.378 439.778 326.745 439.411C327.112 439.044 327.61 438.837 328.129 438.837H370.29C370.809 438.837 371.307 439.044 371.674 439.411C372.041 439.778 372.247 440.276 372.247 440.795Z" fill="#9CAAB8"/>
<path d="M372.247 464.909C372.247 465.428 372.041 465.926 371.674 466.293C371.307 466.66 370.809 466.866 370.29 466.866H328.129C327.61 466.866 327.112 466.66 326.745 466.293C326.378 465.926 326.172 465.428 326.172 464.909C326.172 464.39 326.378 463.892 326.745 463.525C327.112 463.158 327.61 462.952 328.129 462.952H370.29C370.809 462.952 371.307 463.158 371.674 463.525C372.041 463.892 372.247 464.39 372.247 464.909Z" fill="#9CAAB8"/>
<path d="M372.247 489.004C372.247 489.523 372.041 490.021 371.674 490.388C371.307 490.755 370.809 490.962 370.29 490.962H328.129C327.61 490.962 327.112 490.755 326.745 490.388C326.378 490.021 326.172 489.523 326.172 489.004C326.172 488.485 326.378 487.987 326.745 487.62C327.112 487.253 327.61 487.047 328.129 487.047H370.29C370.809 487.047 371.307 487.253 371.674 487.62C372.041 487.987 372.247 488.485 372.247 489.004Z" fill="#9CAAB8"/>
<path d="M430.555 407.931V511.14C430.555 513.85 429.479 516.449 427.563 518.365C425.647 520.281 423.048 521.357 420.338 521.357H400.648C397.938 521.357 395.339 520.281 393.423 518.365C391.507 516.449 390.431 513.85 390.431 511.14V407.931C390.428 406.589 390.691 405.259 391.203 404.018C391.716 402.777 392.468 401.65 393.417 400.701C394.367 399.751 395.494 398.999 396.735 398.486C397.976 397.974 399.305 397.711 400.648 397.714H420.338C423.045 397.724 425.638 398.804 427.552 400.718C429.465 402.632 430.545 405.224 430.555 407.931Z" fill="#8C9AA8"/>
<path d="M424.958 398.83V503.722C424.958 506.151 423.993 508.481 422.275 510.199C420.558 511.917 418.228 512.882 415.798 512.882C413.369 512.882 411.039 511.917 409.321 510.199C407.603 508.481 406.638 506.151 406.638 503.722V397.714H420.339C421.945 397.716 423.528 398.098 424.958 398.83Z" fill="#9CAAB8"/>
<path d="M433.746 416.699C433.746 417.219 433.54 417.716 433.172 418.084C432.805 418.451 432.308 418.657 431.788 418.657H389.628C389.109 418.657 388.611 418.451 388.244 418.084C387.877 417.716 387.671 417.219 387.671 416.699C387.671 416.18 387.877 415.683 388.244 415.315C388.611 414.948 389.109 414.742 389.628 414.742H431.788C432.308 414.742 432.805 414.948 433.172 415.315C433.54 415.683 433.746 416.18 433.746 416.699Z" fill="#9CAAB8"/>
<path d="M433.746 440.795C433.746 441.314 433.54 441.812 433.172 442.179C432.805 442.546 432.308 442.752 431.788 442.752H389.628C389.109 442.752 388.611 442.546 388.244 442.179C387.877 441.812 387.671 441.314 387.671 440.795C387.671 440.276 387.877 439.778 388.244 439.411C388.611 439.044 389.109 438.837 389.628 438.837H431.788C432.308 438.837 432.805 439.044 433.172 439.411C433.54 439.778 433.746 440.276 433.746 440.795Z" fill="#9CAAB8"/>
<path d="M433.746 464.909C433.746 465.428 433.54 465.926 433.172 466.293C432.805 466.66 432.308 466.866 431.788 466.866H389.628C389.109 466.866 388.611 466.66 388.244 466.293C387.877 465.926 387.671 465.428 387.671 464.909C387.671 464.39 387.877 463.892 388.244 463.525C388.611 463.158 389.109 462.952 389.628 462.952H431.788C432.308 462.952 432.805 463.158 433.172 463.525C433.54 463.892 433.746 464.39 433.746 464.909Z" fill="#9CAAB8"/>
<path d="M433.746 489.004C433.746 489.523 433.54 490.021 433.172 490.388C432.805 490.755 432.308 490.962 431.788 490.962H389.628C389.109 490.962 388.611 490.755 388.244 490.388C387.877 490.021 387.671 489.523 387.671 489.004C387.671 488.485 387.877 487.987 388.244 487.62C388.611 487.253 389.109 487.047 389.628 487.047H431.788C432.308 487.047 432.805 487.253 433.172 487.62C433.54 487.987 433.746 488.485 433.746 489.004Z" fill="#9CAAB8"/>
<path d="M452.498 520.183C452.233 520.184 451.97 520.13 451.726 520.025C451.482 519.921 451.262 519.768 451.079 519.576C450.895 519.384 450.753 519.156 450.661 518.907C450.569 518.658 450.528 518.393 450.541 518.128V460.916C450.541 458.746 449.679 456.665 448.145 455.131C446.61 453.596 444.529 452.734 442.36 452.734H430.616C430.073 452.734 429.553 452.519 429.169 452.135C428.786 451.752 428.57 451.231 428.57 450.689C428.57 450.146 428.786 449.626 429.169 449.243C429.553 448.859 430.073 448.644 430.616 448.644H442.36C445.611 448.649 448.727 449.944 451.025 452.245C453.322 454.546 454.612 457.664 454.612 460.916V518.128C454.627 518.407 454.582 518.686 454.48 518.946C454.379 519.206 454.222 519.441 454.022 519.636C453.822 519.831 453.582 519.98 453.32 520.075C453.057 520.169 452.777 520.206 452.498 520.183Z" fill="#C5D3E1"/>
<path d="M460.598 518.323H275.378C273.638 518.323 272.227 519.734 272.227 521.475V532.807C272.227 534.548 273.638 535.959 275.378 535.959H460.598C462.339 535.959 463.75 534.548 463.75 532.807V521.475C463.75 519.734 462.339 518.323 460.598 518.323Z" fill="#4D5A68"/>
<path d="M361.344 449.425C361.344 450.365 360.971 451.266 360.307 451.931C359.642 452.595 358.741 452.968 357.802 452.968C357.336 452.968 356.876 452.877 356.446 452.699C356.016 452.52 355.625 452.26 355.296 451.931C354.967 451.602 354.707 451.211 354.528 450.781C354.35 450.351 354.259 449.891 354.259 449.425V412.237C354.259 411.771 354.35 411.311 354.528 410.881C354.707 410.451 354.967 410.06 355.296 409.731C355.625 409.403 356.016 409.142 356.446 408.964C356.876 408.785 357.336 408.694 357.802 408.694C358.741 408.694 359.642 409.067 360.307 409.731C360.971 410.396 361.344 411.297 361.344 412.237V449.425Z" fill="white"/>
<path d="M421.396 449.425C421.391 450.367 421.013 451.268 420.346 451.932C419.678 452.596 418.775 452.968 417.834 452.968C416.894 452.968 415.993 452.595 415.329 451.931C414.664 451.266 414.291 450.365 414.291 449.425V412.237C414.291 411.297 414.664 410.396 415.329 409.731C415.993 409.067 416.894 408.694 417.834 408.694C418.775 408.694 419.678 409.066 420.346 409.73C421.013 410.394 421.391 411.295 421.396 412.237V449.425Z" fill="white"/>
<path d="M510.433 424.098C510.453 425.658 510.104 427.2 509.415 428.6C509.067 429.446 508.491 430.179 507.752 430.718C507.013 431.257 506.138 431.581 505.226 431.653H443.14C442.228 431.581 441.354 431.257 440.615 430.718C439.875 430.179 439.3 429.446 438.952 428.6C438.263 427.182 437.905 425.626 437.905 424.049C437.905 422.473 438.263 420.916 438.952 419.498C439.083 419.24 439.234 418.991 439.402 418.755C439.443 418.681 439.496 418.615 439.559 418.559C439.948 417.976 440.47 417.494 441.083 417.154C441.696 416.813 442.381 416.624 443.082 416.602H505.168C505.871 416.624 506.559 416.813 507.175 417.153C507.791 417.494 508.317 417.975 508.71 418.559C508.933 418.859 509.135 419.172 509.317 419.498C510.053 420.92 510.436 422.497 510.433 424.098Z" fill="#ACBAC8"/>
<path d="M475.083 345.513H472.421C468.941 345.513 466.119 348.334 466.119 351.815V392.253C466.119 395.734 468.941 398.556 472.421 398.556H475.083C478.564 398.556 481.386 395.734 481.386 392.253V351.815C481.386 348.334 478.564 345.513 475.083 345.513Z" fill="#ACBAC8"/>
<path d="M510.433 424.099C510.453 425.659 510.104 427.201 509.415 428.601H438.952C438.263 427.183 437.905 425.627 437.905 424.05C437.905 422.473 438.263 420.917 438.952 419.499L439.559 418.56L466.119 377.006L469.74 371.134C470.324 370.548 471.018 370.082 471.782 369.765C472.546 369.447 473.366 369.284 474.193 369.284C475.021 369.284 475.84 369.447 476.604 369.765C477.368 370.082 478.062 370.548 478.646 371.134L481.386 375.44L508.789 418.501L509.395 419.441C510.114 420.886 510.47 422.485 510.433 424.099Z" fill="#ACBAC8"/>
<path d="M477.668 389.728C477.668 393.017 476.2 395.6 474.399 395.6H473.009C471.189 395.6 469.74 392.919 469.74 389.728V351.561C469.74 348.273 471.189 345.689 473.009 345.689H474.36C476.16 345.689 477.628 348.351 477.628 351.561L477.668 389.728Z" fill="#E8F1FA"/>
<path d="M500.92 424.118H446.312C445.388 422.91 444.887 421.431 444.887 419.91C444.887 418.389 445.388 416.91 446.312 415.702L459.249 394.935L468.84 379.511L470.171 377.378C470.565 376.836 471.082 376.395 471.679 376.091C472.276 375.787 472.936 375.628 473.606 375.628C474.276 375.628 474.937 375.787 475.534 376.091C476.131 376.395 476.647 376.836 477.041 377.378L477.668 378.376L488.061 394.935L500.999 415.702C501.911 416.919 502.398 418.402 502.384 419.923C502.37 421.444 501.856 422.919 500.92 424.118Z" fill="#E8F1FA"/>
<path d="M500.92 424.119H446.312C445.388 422.91 444.887 421.431 444.887 419.91C444.887 418.389 445.388 416.911 446.312 415.702L459.249 394.935H488.061L500.999 415.702C501.911 416.919 502.398 418.403 502.384 419.924C502.37 421.445 501.856 422.919 500.92 424.119Z" fill="#514260"/>
<path d="M482.834 347.764C482.834 348.361 482.597 348.933 482.174 349.355C481.752 349.777 481.18 350.015 480.583 350.015H466.647C466.35 350.017 466.057 349.961 465.782 349.849C465.508 349.736 465.259 349.571 465.049 349.361C464.84 349.152 464.674 348.902 464.562 348.628C464.45 348.354 464.393 348.06 464.396 347.764C464.393 347.467 464.45 347.173 464.562 346.899C464.674 346.625 464.84 346.376 465.049 346.166C465.259 345.957 465.508 345.791 465.782 345.679C466.057 345.567 466.35 345.51 466.647 345.513H480.583C481.18 345.513 481.752 345.75 482.174 346.172C482.597 346.594 482.834 347.167 482.834 347.764Z" fill="#9CAAB8"/>
<path d="M478.491 382.33C478.491 382.849 478.284 383.347 477.917 383.714C477.55 384.081 477.052 384.288 476.533 384.288C476.014 384.288 475.516 384.081 475.149 383.714C474.782 383.347 474.576 382.849 474.576 382.33V357.433C474.576 356.914 474.782 356.416 475.149 356.049C475.516 355.682 476.014 355.476 476.533 355.476C477.052 355.476 477.55 355.682 477.917 356.049C478.284 356.416 478.491 356.914 478.491 357.433V382.33Z" fill="white"/>
<path d="M483.639 403.527H484.147C485.819 403.527 487.422 404.191 488.604 405.373C489.786 406.555 490.45 408.158 490.45 409.83V410.28C490.447 411.105 490.282 411.922 489.964 412.683C489.646 413.444 489.181 414.135 488.596 414.717C488.011 415.299 487.317 415.759 486.553 416.073C485.79 416.386 484.973 416.546 484.147 416.543H483.717C482.886 416.554 482.061 416.4 481.29 416.09C480.519 415.78 479.817 415.321 479.223 414.739C478.63 414.157 478.158 413.463 477.834 412.698C477.511 411.933 477.341 411.111 477.336 410.28V409.869C477.331 409.038 477.49 408.214 477.805 407.445C478.119 406.676 478.582 405.977 479.168 405.387C479.754 404.798 480.45 404.33 481.218 404.011C481.985 403.692 482.808 403.527 483.639 403.527Z" fill="white"/>
<path d="M480.585 348.879C480.585 349.18 480.465 349.469 480.252 349.682C480.039 349.895 479.751 350.014 479.45 350.014H473.323C473.174 350.014 473.027 349.985 472.889 349.928C472.751 349.871 472.626 349.787 472.52 349.682C472.415 349.576 472.331 349.451 472.274 349.313C472.217 349.176 472.188 349.028 472.188 348.879C472.193 348.581 472.315 348.297 472.527 348.089C472.74 347.88 473.026 347.763 473.323 347.763H479.45C479.747 347.763 480.033 347.88 480.245 348.089C480.458 348.297 480.58 348.581 480.585 348.879Z" fill="white"/>
<path d="M355.121 308.5H338.503C338.136 308.502 337.784 308.65 337.525 308.911L330.615 315.977C330.615 315.977 330.615 315.977 330.478 316.094L326.838 319.519L325.781 318.463L317.619 326.625L318.441 327.447L313.861 331.811C313.497 332.168 313.286 332.652 313.274 333.162V363.5C313.304 363.999 313.523 364.467 313.887 364.809C314.251 365.151 314.732 365.341 315.231 365.34H354.769C355.268 365.341 355.749 365.151 356.113 364.809C356.477 364.467 356.696 363.999 356.726 363.5V309.87C356.729 309.668 356.687 309.469 356.604 309.285C356.521 309.101 356.399 308.938 356.246 308.808C356.092 308.677 355.912 308.581 355.718 308.528C355.523 308.475 355.32 308.465 355.121 308.5ZM339.071 311.22H353.751V315.585H334.824L339.071 311.22ZM352.126 332.751C352.128 333.021 352.069 333.287 351.954 333.531C351.839 333.775 351.67 333.99 351.461 334.16V359.214C351.461 359.733 351.255 360.231 350.888 360.598C350.52 360.965 350.023 361.171 349.503 361.171H320.144C319.625 361.171 319.127 360.965 318.76 360.598C318.393 360.231 318.187 359.733 318.187 359.214V336.626C318.185 336.359 318.238 336.095 318.342 335.849C318.447 335.603 318.6 335.382 318.793 335.198L322.551 331.655L330.948 323.708L331.144 323.552C331.319 323.379 331.527 323.243 331.756 323.152C331.984 323.062 332.229 323.018 332.475 323.023H347.957V321.398C347.957 320.911 348.151 320.443 348.496 320.097C348.841 319.752 349.309 319.559 349.797 319.559H350.208C350.696 319.559 351.164 319.752 351.509 320.097C351.854 320.443 352.048 320.911 352.048 321.398L352.126 332.751Z" fill="#514260"/>
<path d="M349.875 334.514C349.393 334.485 348.939 334.28 348.599 333.937C348.259 333.593 348.058 333.137 348.035 332.654V324.16H332.553C332.447 324.159 332.343 324.179 332.245 324.219C332.148 324.26 332.059 324.319 331.985 324.395L331.829 324.532L323.432 332.459L319.732 336.021C319.571 336.182 319.479 336.4 319.478 336.628V359.117C319.478 359.224 319.499 359.33 319.541 359.429C319.582 359.528 319.643 359.617 319.72 359.692C319.797 359.767 319.887 359.825 319.987 359.864C320.087 359.904 320.193 359.922 320.3 359.92H349.66C349.765 359.92 349.869 359.899 349.967 359.859C350.064 359.818 350.153 359.759 350.227 359.685C350.302 359.61 350.361 359.522 350.401 359.424C350.442 359.327 350.462 359.223 350.462 359.117V334.494H349.875V334.514ZM334.862 356.201C331.609 356.179 328.479 354.954 326.074 352.762C323.67 350.57 322.163 347.565 321.842 344.328C321.521 341.09 322.41 337.848 324.337 335.226C326.264 332.605 329.093 330.789 332.279 330.13C333.129 329.956 333.995 329.87 334.862 329.875C336.634 329.807 338.401 330.097 340.057 330.727C341.714 331.358 343.226 332.317 344.503 333.546C345.781 334.775 346.797 336.249 347.491 337.88C348.185 339.511 348.543 341.265 348.543 343.038C348.543 344.811 348.185 346.565 347.491 348.196C346.797 349.827 345.781 351.301 344.503 352.53C343.226 353.759 341.714 354.718 340.057 355.349C338.401 355.979 336.634 356.269 334.862 356.201Z" fill="#514260"/>
<path d="M325.409 314.626L322.748 311.965C322.576 311.791 322.372 311.653 322.147 311.559C321.922 311.465 321.68 311.416 321.436 311.417C321.05 311.425 320.676 311.548 320.36 311.769L325.605 316.995C325.858 316.641 325.977 316.208 325.941 315.775C325.905 315.341 325.717 314.934 325.409 314.626Z" fill="#514260"/>
<path d="M315.115 326.762C315.502 326.762 315.879 326.639 316.191 326.41L310.965 321.164C310.708 321.52 310.585 321.956 310.621 322.394C310.657 322.832 310.849 323.243 311.161 323.552L313.862 326.214C314.194 326.551 314.643 326.747 315.115 326.762Z" fill="#514260"/>
<path d="M319.241 316.35L322.765 319.873L324.976 317.662L325.407 317.231L324.976 317.662L324.741 317.896L321.218 314.373L319.476 312.612L320.122 311.966L317.46 314.608L317.499 314.589L319.241 316.35Z" fill="#514260"/>
<path d="M319.927 322.71L321.904 320.733L318.381 317.21L316.619 315.468L314.643 317.425L316.404 319.187L319.927 322.71Z" fill="#514260"/>
<path d="M317.09 325.548L319.497 323.14L319.067 323.59L315.524 320.048L313.782 318.306L311.805 320.283L313.567 322.025L317.09 325.548Z" fill="#514260"/>
<path d="M330.126 345.69C330.126 349.389 332.24 352.384 334.862 352.384C337.485 352.384 339.599 349.389 339.599 345.69C339.599 341.991 334.862 333.731 334.862 333.731C334.862 333.731 330.126 341.952 330.126 345.69ZM337.955 345.808C337.955 347.06 337.25 348.058 336.37 348.058C335.489 348.058 334.765 347.06 334.765 345.808C335.102 344.378 335.678 343.014 336.467 341.776C337.212 343.017 337.748 344.373 338.053 345.788L337.955 345.808Z" fill="#514260"/>
<path d="M305.795 393.427C305.66 393.182 305.51 392.947 305.344 392.722L285.184 361.033V343.535C285.176 343.075 285.097 342.62 284.949 342.184C285.361 342.098 285.724 341.858 285.967 341.514C286.209 341.17 286.312 340.747 286.255 340.331C286.198 339.914 285.985 339.534 285.659 339.268C285.333 339.002 284.919 338.869 284.499 338.896H274.321C274.102 338.896 273.886 338.939 273.684 339.023C273.482 339.106 273.299 339.229 273.145 339.383C272.99 339.538 272.867 339.721 272.784 339.923C272.7 340.125 272.657 340.341 272.657 340.56C272.655 340.97 272.807 341.366 273.082 341.67C273.357 341.975 273.736 342.165 274.145 342.204C274.004 342.634 273.931 343.083 273.929 343.535V362.031L254.396 392.663L254.278 392.82C254.152 392.993 254.04 393.176 253.945 393.368C253.416 394.418 253.148 395.579 253.162 396.754C253.151 397.906 253.406 399.044 253.906 400.082C254.156 400.74 254.589 401.314 255.154 401.733C255.72 402.153 256.394 402.402 257.097 402.45H302.741C303.412 402.398 304.055 402.162 304.601 401.769C305.146 401.375 305.573 400.839 305.834 400.219C306.334 399.181 306.588 398.043 306.577 396.891C306.605 395.69 306.336 394.5 305.795 393.427ZM279.234 339.816H283.755C283.973 339.816 284.182 339.903 284.336 340.057C284.491 340.211 284.577 340.42 284.577 340.638C284.579 340.802 284.524 340.961 284.421 341.088C284.353 341.205 284.256 341.303 284.14 341.372C284.023 341.44 283.89 341.478 283.755 341.48H279.234C279.035 341.449 278.854 341.348 278.723 341.196C278.592 341.043 278.52 340.849 278.52 340.648C278.52 340.447 278.592 340.252 278.723 340.1C278.854 339.947 279.035 339.847 279.234 339.816ZM259.328 390.706L268.84 375.322L273.929 367.218L275.887 363.989L276.67 362.912V343.339C276.65 342.987 276.65 342.634 276.67 342.282H282.366C282.385 342.634 282.385 342.987 282.366 343.339V363.128L285.106 367.512L289.96 375.341L299.57 390.706C299.725 390.896 299.863 391.099 299.981 391.313C300.462 392.186 300.679 393.179 300.606 394.173C300.533 395.166 300.173 396.118 299.57 396.911H259.328C258.725 396.118 258.365 395.166 258.292 394.173C258.219 393.179 258.436 392.186 258.917 391.313C259.036 391.099 259.173 390.896 259.328 390.706Z" fill="#514260"/>
<path d="M299.024 395.756C299.409 395.064 299.588 394.275 299.539 393.485C299.491 392.694 299.217 391.933 298.75 391.293L289.531 376.496H269.469L260.25 391.293C259.775 391.929 259.495 392.689 259.443 393.481C259.391 394.273 259.569 395.063 259.956 395.756H299.024ZM286.83 381.663H287.143C288.373 381.663 289.553 382.152 290.423 383.022C291.293 383.892 291.782 385.072 291.782 386.302V386.596C291.782 387.826 291.293 389.006 290.423 389.876C289.553 390.746 288.373 391.235 287.143 391.235H286.83C285.6 391.235 284.42 390.746 283.55 389.876C282.68 389.006 282.191 387.826 282.191 386.596V386.302C282.191 385.072 282.68 383.892 283.55 383.022C284.42 382.152 285.6 381.663 286.83 381.663Z" fill="#514260"/>
<path d="M280.196 369.176C280.384 369.176 280.57 369.139 280.743 369.067C280.916 368.995 281.074 368.89 281.207 368.757C281.339 368.624 281.444 368.467 281.516 368.294C281.588 368.12 281.625 367.934 281.625 367.747V349.446C281.625 349.067 281.474 348.704 281.207 348.436C280.939 348.168 280.575 348.017 280.196 348.017C279.817 348.017 279.454 348.168 279.186 348.436C278.918 348.704 278.767 349.067 278.767 349.446V367.806C278.782 368.174 278.94 368.523 279.206 368.778C279.472 369.033 279.827 369.176 280.196 369.176Z" fill="#514260"/>
<path d="M536.836 535.958H530.612V491.195C530.612 490.375 530.286 489.588 529.706 489.008C529.126 488.428 528.339 488.102 527.519 488.102H503.405V481.878H527.519C529.988 481.883 532.355 482.866 534.101 484.612C535.847 486.359 536.831 488.725 536.836 491.195V535.958Z" fill="#F8BE49"/>
<path d="M505.677 494.679C505.688 502.184 503.257 509.489 498.752 515.491C494.246 521.494 487.911 525.868 480.701 527.953C479.101 528.435 477.465 528.788 475.808 529.01C472.664 529.428 469.479 529.428 466.335 529.01C464.678 528.79 463.041 528.437 461.441 527.953C454.23 525.871 447.893 521.497 443.387 515.494C438.881 509.491 436.452 502.185 436.466 494.679C436.472 487.138 438.942 479.806 443.5 473.8C448.059 467.793 454.455 463.44 461.715 461.405C463.502 460.894 465.329 460.534 467.176 460.328C469.778 460.037 472.404 460.037 475.006 460.328C476.853 460.534 478.679 460.894 480.466 461.405C487.718 463.45 494.104 467.807 498.654 473.812C503.204 479.818 505.67 487.144 505.677 494.679Z" fill="#F8BE49"/>
<path d="M443.298 500.942H438.62C438.047 500.942 437.582 501.406 437.582 501.979V534.94C437.582 535.513 438.047 535.978 438.62 535.978H443.298C443.871 535.978 444.335 535.513 444.335 534.94V501.979C444.335 501.406 443.871 500.942 443.298 500.942Z" fill="#7C8A98"/>
<path d="M493.52 480.115C493.52 481.205 493.196 482.27 492.59 483.175C491.984 484.08 491.122 484.785 490.115 485.2C489.108 485.616 488 485.722 486.932 485.507C485.864 485.291 484.884 484.764 484.117 483.99C483.349 483.217 482.828 482.234 482.62 481.164C482.413 480.095 482.527 478.988 482.95 477.983C483.372 476.979 484.083 476.123 484.992 475.523C485.902 474.924 486.969 474.608 488.059 474.615C488.778 474.618 489.491 474.762 490.155 475.04C490.818 475.318 491.421 475.724 491.928 476.234C492.435 476.745 492.837 477.351 493.11 478.017C493.383 478.683 493.522 479.396 493.52 480.115Z" fill="white"/>
<path d="M490.563 463.01C490.563 463.43 490.396 463.833 490.099 464.131C489.802 464.428 489.399 464.595 488.978 464.595H454.275C453.854 464.595 453.451 464.428 453.154 464.131C452.856 463.833 452.689 463.43 452.689 463.01C452.689 462.589 452.856 462.186 453.154 461.889C453.451 461.591 453.854 461.424 454.275 461.424H488.978C489.399 461.424 489.802 461.591 490.099 461.889C490.396 462.186 490.563 462.589 490.563 463.01Z" fill="#BCCAD8"/>
<path d="M440.949 500.942V535.958H438.62C438.484 535.961 438.35 535.936 438.224 535.886C438.098 535.836 437.984 535.762 437.887 535.667C437.791 535.572 437.714 535.459 437.662 535.334C437.609 535.21 437.582 535.076 437.582 534.94V501.979C437.582 501.704 437.692 501.44 437.886 501.246C438.081 501.051 438.345 500.942 438.62 500.942H440.949Z" fill="#BCCAD8"/>
<path d="M472.656 500.942H467.978C467.405 500.942 466.941 501.406 466.941 501.979V534.94C466.941 535.513 467.405 535.978 467.978 535.978H472.656C473.229 535.978 473.693 535.513 473.693 534.94V501.979C473.693 501.406 473.229 500.942 472.656 500.942Z" fill="#7C8A98"/>
<path d="M470.307 500.942V535.958H467.959C467.689 535.958 467.43 535.851 467.239 535.66C467.048 535.469 466.941 535.21 466.941 534.94V501.979C466.938 501.844 466.963 501.71 467.013 501.584C467.063 501.458 467.137 501.343 467.232 501.247C467.327 501.15 467.44 501.074 467.565 501.021C467.689 500.969 467.823 500.942 467.959 500.942H470.307Z" fill="#BCCAD8"/>
<path d="M502.9 500.942H498.222C497.649 500.942 497.185 501.406 497.185 501.979V534.94C497.185 535.513 497.649 535.978 498.222 535.978H502.9C503.473 535.978 503.937 535.513 503.937 534.94V501.979C503.937 501.406 503.473 500.942 502.9 500.942Z" fill="#7C8A98"/>
<path d="M500.571 500.942V535.958H498.222C498.087 535.961 497.952 535.936 497.826 535.886C497.701 535.836 497.586 535.762 497.49 535.667C497.393 535.572 497.316 535.459 497.264 535.334C497.211 535.21 497.185 535.076 497.185 534.94V501.979C497.185 501.704 497.294 501.44 497.488 501.246C497.683 501.051 497.947 500.942 498.222 500.942H500.571Z" fill="#BCCAD8"/>
<path d="M507.202 501.354C507.202 501.904 506.984 502.432 506.595 502.821C506.205 503.21 505.678 503.429 505.128 503.429H435.486C434.936 503.429 434.408 503.21 434.019 502.821C433.63 502.432 433.412 501.904 433.412 501.354C433.417 500.805 433.637 500.281 434.025 499.893C434.413 499.505 434.938 499.284 435.486 499.279H505.128C505.676 499.284 506.201 499.505 506.589 499.893C506.977 500.281 507.197 500.805 507.202 501.354Z" fill="#BCCAD8"/>
<path d="M534.881 503.918C534.881 504.437 534.675 504.935 534.308 505.302C533.941 505.669 533.443 505.875 532.924 505.875C532.405 505.875 531.907 505.669 531.54 505.302C531.173 504.935 530.967 504.437 530.967 503.918V495.521C530.967 495.002 531.173 494.504 531.54 494.137C531.907 493.77 532.405 493.563 532.924 493.563C533.443 493.563 533.941 493.77 534.308 494.137C534.675 494.504 534.881 495.002 534.881 495.521V503.918Z" fill="#E47E30"/>
<path d="M541.182 506.286C541.621 506.547 541.94 506.97 542.072 507.463C542.204 507.957 542.137 508.483 541.886 508.928C541.625 509.367 541.202 509.687 540.709 509.818C540.215 509.95 539.689 509.883 539.244 509.633L531.963 505.424C531.524 505.163 531.204 504.74 531.072 504.247C530.941 503.753 531.007 503.227 531.258 502.782C531.519 502.343 531.942 502.023 532.436 501.892C532.93 501.76 533.455 501.827 533.901 502.077L541.182 506.286Z" fill="#E47E30"/>
<path d="M531.962 501.98C532.407 501.729 532.933 501.662 533.427 501.794C533.921 501.926 534.343 502.245 534.605 502.684C534.855 503.13 534.922 503.655 534.79 504.149C534.659 504.643 534.339 505.066 533.9 505.327L526.619 509.535C526.171 509.784 525.644 509.848 525.15 509.712C524.656 509.577 524.235 509.253 523.976 508.811C523.727 508.363 523.664 507.836 523.799 507.342C523.935 506.848 524.258 506.427 524.701 506.168L531.962 501.98Z" fill="#E47E30"/>
<path d="M536.699 503.232C536.698 504.011 536.466 504.771 536.032 505.417C535.597 506.063 534.98 506.564 534.259 506.857C533.538 507.15 532.746 507.222 531.984 507.063C531.222 506.904 530.525 506.521 529.981 505.964C529.438 505.407 529.073 504.7 528.933 503.934C528.793 503.168 528.885 502.379 529.196 501.665C529.508 500.952 530.025 500.347 530.681 499.929C531.338 499.511 532.104 499.298 532.882 499.318C533.391 499.317 533.896 499.419 534.365 499.617C534.835 499.815 535.26 500.105 535.616 500.47C535.972 500.835 536.251 501.267 536.437 501.742C536.623 502.216 536.712 502.723 536.699 503.232Z" fill="#6C7A88"/>
<path d="M532.882 514.84C530.625 514.84 528.419 514.171 526.542 512.917C524.666 511.663 523.203 509.881 522.34 507.796C521.476 505.71 521.25 503.416 521.69 501.202C522.131 498.989 523.217 496.956 524.813 495.36C526.409 493.764 528.442 492.677 530.656 492.237C532.869 491.797 535.164 492.023 537.249 492.886C539.334 493.75 541.116 495.212 542.37 497.089C543.624 498.966 544.293 501.172 544.293 503.429C544.288 506.453 543.084 509.353 540.945 511.492C538.806 513.631 535.907 514.835 532.882 514.84ZM532.882 495.149C531.244 495.145 529.641 495.628 528.277 496.535C526.913 497.442 525.849 498.734 525.219 500.247C524.589 501.759 524.423 503.425 524.74 505.032C525.057 506.639 525.844 508.116 527.001 509.276C528.158 510.436 529.633 511.226 531.24 511.548C532.847 511.869 534.512 511.706 536.026 511.08C537.54 510.454 538.835 509.392 539.745 508.031C540.656 506.669 541.142 505.067 541.142 503.429C541.142 501.236 540.272 499.133 538.724 497.581C537.175 496.029 535.075 495.154 532.882 495.149Z" fill="#EF893A"/>
<path d="M458.27 464.595H457.037V499.709H458.27V464.595Z" fill="#EF893A"/>
<path d="M464.184 464.595H462.951V499.709H464.184V464.595Z" fill="#EF893A"/>
<path d="M463.557 468.824H457.646V470.057H463.557V468.824Z" fill="#EF893A"/>
<path d="M463.557 472.542H457.646V473.776H463.557V472.542Z" fill="#EF893A"/>
<path d="M463.557 476.28H457.646V477.513H463.557V476.28Z" fill="#EF893A"/>
<path d="M463.557 480.019H457.646V481.271H463.557V480.019Z" fill="#EF893A"/>
<path d="M463.557 483.739H457.646V484.972H463.557V483.739Z" fill="#EF893A"/>
<path d="M463.557 487.476H457.646V488.709H463.557V487.476Z" fill="#EF893A"/>
<path d="M463.557 491.196H457.646V492.448H463.557V491.196Z" fill="#EF893A"/>
<path d="M463.557 494.934H457.646V496.186H463.557V494.934Z" fill="#EF893A"/>
<path d="M248.429 502.547C247.614 502.545 246.833 502.221 246.256 501.647L227.407 482.798C226.847 482.218 226.537 481.442 226.544 480.636C226.55 479.83 226.874 479.059 227.444 478.489C228.013 477.919 228.785 477.596 229.591 477.589C230.397 477.582 231.173 477.892 231.752 478.453L250.601 497.302C251.173 497.88 251.493 498.661 251.493 499.474C251.493 500.287 251.173 501.068 250.601 501.647C250.022 502.218 249.242 502.541 248.429 502.547Z" fill="#ACBAC8"/>
<path d="M248.525 502.547C247.705 502.544 246.919 502.221 246.333 501.647C245.762 501.068 245.441 500.287 245.441 499.474C245.441 498.661 245.762 497.88 246.333 497.302L265.182 478.453C265.761 477.892 266.538 477.582 267.344 477.589C268.15 477.596 268.921 477.919 269.491 478.489C270.061 479.059 270.384 479.83 270.391 480.636C270.397 481.442 270.087 482.218 269.527 482.798L250.698 501.647C250.118 502.218 249.339 502.541 248.525 502.547Z" fill="#ACBAC8"/>
<path d="M248.094 510.337C247.279 510.337 246.498 510.013 245.921 509.437C245.345 508.861 245.021 508.079 245.021 507.264V480.625C245.021 479.81 245.345 479.029 245.921 478.452C246.498 477.876 247.279 477.552 248.094 477.552C248.909 477.552 249.691 477.876 250.267 478.452C250.843 479.029 251.167 479.81 251.167 480.625V507.264C251.167 508.079 250.843 508.861 250.267 509.437C249.691 510.013 248.909 510.337 248.094 510.337Z" fill="#9CAAB8"/>
<path d="M272.308 475.302H223.884C222.522 475.302 221.417 476.406 221.417 477.768V483.483C221.417 484.845 222.522 485.95 223.884 485.95H272.308C273.67 485.95 274.774 484.845 274.774 483.483V477.768C274.774 476.406 273.67 475.302 272.308 475.302Z" fill="#D6741D"/>
<path d="M260.015 475.302H236.175C234.813 475.302 233.709 476.406 233.709 477.768V483.483C233.709 484.845 234.813 485.95 236.175 485.95H260.015C261.377 485.95 262.481 484.845 262.481 483.483V477.768C262.481 476.406 261.377 475.302 260.015 475.302Z" fill="#F19B2C"/>
<path d="M296.362 519.556V535.959H286.458V519.556C286.458 517.599 285.681 515.723 284.297 514.339C282.913 512.955 281.036 512.177 279.079 512.177H217.952C215.995 512.177 214.118 512.955 212.735 514.339C211.351 515.723 210.573 517.599 210.573 519.556V535.959H200.787V519.556C200.779 517.295 201.217 515.053 202.075 512.961C202.934 510.868 204.196 508.965 205.79 507.36C207.384 505.755 209.279 504.48 211.365 503.607C213.452 502.734 215.69 502.281 217.952 502.273H279.157C281.423 502.276 283.665 502.725 285.756 503.596C287.848 504.466 289.747 505.741 291.345 507.346C292.943 508.951 294.209 510.856 295.07 512.952C295.931 515.047 296.37 517.291 296.362 519.556Z" fill="#ACBAC8"/>
<path d="M291.704 521.162V535.959H286.458V519.557C286.458 517.6 285.68 515.723 284.297 514.339C282.913 512.955 281.036 512.178 279.079 512.178H217.952C215.995 512.178 214.118 512.955 212.734 514.339C211.35 515.723 210.573 517.6 210.573 519.557V535.959H205.327V521.162C205.333 517.043 206.972 513.095 209.886 510.185C212.8 507.275 216.75 505.64 220.868 505.64H276.162C280.281 505.64 284.231 507.275 287.145 510.185C290.059 513.095 291.698 517.043 291.704 521.162Z" fill="#BCCAD8"/>
<path d="M255.981 499.513L254.024 516.659C254.024 516.997 253.89 517.32 253.651 517.559C253.413 517.798 253.089 517.932 252.752 517.932H244.238C243.9 517.932 243.577 517.798 243.338 517.559C243.099 517.32 242.965 516.997 242.965 516.659L241.008 499.513C241.005 499.347 241.036 499.182 241.098 499.028C241.159 498.874 241.251 498.733 241.368 498.615C241.484 498.496 241.623 498.402 241.777 498.338C241.93 498.274 242.094 498.241 242.261 498.241H254.65C254.822 498.233 254.994 498.26 255.155 498.321C255.317 498.381 255.464 498.473 255.588 498.592C255.713 498.711 255.812 498.854 255.879 499.013C255.947 499.171 255.982 499.341 255.981 499.513Z" fill="#6C7A88"/>
<path d="M248.096 498.242V517.932H244.182C243.844 517.932 243.521 517.798 243.282 517.56C243.044 517.321 242.91 516.997 242.91 516.66L240.952 499.514C240.95 499.348 240.98 499.183 241.042 499.029C241.104 498.874 241.196 498.734 241.312 498.615C241.429 498.497 241.568 498.403 241.721 498.339C241.874 498.275 242.039 498.242 242.205 498.242H248.096Z" fill="#7C8A98"/>
<path d="M212.491 528.384C212.491 528.872 212.297 529.34 211.952 529.685C211.607 530.03 211.139 530.224 210.651 530.224H200.219C199.731 530.224 199.263 530.03 198.918 529.685C198.573 529.34 198.379 528.872 198.379 528.384V528.384C198.379 527.896 198.573 527.428 198.918 527.083C199.263 526.738 199.731 526.544 200.219 526.544H210.651C211.139 526.544 211.607 526.738 211.952 527.083C212.297 527.428 212.491 527.896 212.491 528.384Z" fill="#7C8A98"/>
<path d="M298.71 528.384C298.71 528.872 298.516 529.34 298.171 529.685C297.826 530.03 297.358 530.224 296.87 530.224H286.458C285.97 530.224 285.502 530.03 285.157 529.685C284.812 529.34 284.618 528.872 284.618 528.384C284.618 527.896 284.812 527.428 285.157 527.083C285.502 526.738 285.97 526.544 286.458 526.544H296.89C297.378 526.544 297.846 526.738 298.191 527.083C298.536 527.428 298.73 527.896 298.73 528.384H298.71Z" fill="#7C8A98"/>
<path d="M227.032 500.316C227.52 500.316 227.988 500.509 228.333 500.855C228.678 501.2 228.872 501.668 228.872 502.156V512.588C228.872 513.076 228.678 513.544 228.333 513.889C227.988 514.234 227.52 514.428 227.032 514.428C226.533 514.429 226.052 514.239 225.688 513.897C225.324 513.555 225.105 513.086 225.075 512.588V502.058C225.105 501.559 225.324 501.091 225.688 500.749C226.052 500.407 226.533 500.217 227.032 500.218V500.316Z" fill="#7C8A98"/>
<path d="M269.116 500.316C269.604 500.316 270.072 500.509 270.417 500.855C270.762 501.2 270.956 501.668 270.956 502.156V512.588C270.956 513.076 270.762 513.544 270.417 513.889C270.072 514.234 269.604 514.428 269.116 514.428C268.628 514.428 268.16 514.234 267.815 513.889C267.47 513.544 267.276 513.076 267.276 512.588V502.058C267.276 501.57 267.47 501.102 267.815 500.757C268.16 500.412 268.628 500.218 269.116 500.218V500.316Z" fill="#7C8A98"/>
</g>
<path d="M316.947 477.659V514.154C316.947 516.269 316.107 518.297 314.612 519.792C313.116 521.288 311.088 522.128 308.973 522.128H284.415C283.369 522.128 282.334 521.921 281.367 521.52C280.401 521.119 279.524 520.532 278.785 519.791C278.047 519.05 277.462 518.171 277.064 517.204C276.665 516.236 276.462 515.2 276.465 514.154V477.659C276.465 476.615 276.671 475.581 277.07 474.616C277.47 473.652 278.055 472.775 278.794 472.037C279.532 471.299 280.408 470.713 281.373 470.314C282.337 469.914 283.371 469.708 284.415 469.708H309.044C311.143 469.727 313.149 470.572 314.629 472.06C316.108 473.549 316.941 475.56 316.947 477.659Z" fill="#FBD099"/>
<path d="M320.344 468.08V493.699C320.35 494.713 320.084 495.709 319.573 496.585C319.063 497.461 318.327 498.183 317.442 498.677L316.946 498.087C315.288 496.01 314.104 493.594 313.479 491.01C313.404 490.636 313.349 490.258 313.313 489.878C313.268 489.383 313.268 488.886 313.313 488.391C313.339 486.704 313.865 485.062 314.823 483.673L306.26 485.584L307.345 480.866C303.588 481.417 299.908 482.399 296.375 483.791C294.297 484.625 292.325 485.702 290.501 487C289.287 487.832 288.15 488.772 287.104 489.807L285.995 490.939C282.645 494.525 280.805 497.804 276.559 498.701L275.639 498.866C274.653 498.405 273.82 497.671 273.238 496.751C272.657 495.831 272.352 494.764 272.36 493.676V468.08C272.356 467.322 272.503 466.571 272.791 465.87C273.079 465.168 273.502 464.531 274.037 463.994C274.572 463.457 275.208 463.031 275.907 462.74C276.607 462.449 277.358 462.3 278.116 462.3H314.587C315.345 462.3 316.096 462.449 316.796 462.74C317.496 463.031 318.131 463.457 318.666 463.994C319.201 464.531 319.624 465.168 319.912 465.87C320.2 466.571 320.347 467.322 320.344 468.08Z" fill="#7D4C2E"/>
<path d="M346.435 554.448C346.445 554.362 346.445 554.275 346.435 554.189L333.956 529.395C333.346 528.176 332.324 527.214 331.071 526.678C329.819 526.142 328.417 526.068 327.114 526.469C326.559 526.288 325.977 526.2 325.392 526.21H265.4C265.071 526.185 264.739 526.185 264.41 526.21C263.189 526.007 261.935 526.2 260.832 526.76C259.728 527.32 258.833 528.219 258.276 529.324L245.796 554.118C245.422 554.85 245.212 555.655 245.183 556.477C245.046 557.312 244.975 558.156 244.971 559.001V563.153C244.977 564.601 245.556 565.987 246.582 567.008C247.608 568.029 248.996 568.603 250.444 568.603H259.644H331.101H342.378C343.095 568.606 343.807 568.467 344.47 568.195C345.134 567.922 345.738 567.521 346.246 567.015C346.755 566.509 347.159 565.907 347.434 565.244C347.709 564.581 347.851 563.871 347.851 563.153V559.001C347.683 557.405 347.202 555.858 346.435 554.448Z" fill="#E9F4F5"/>
<path d="M312.491 526.208L307.773 541.612L305.155 550.2L299.563 568.435L299.469 568.742V568.789H292.109L292.085 568.742L291.708 567.468L286.4 550.624L283.569 541.612L278.733 526.208H312.491Z" fill="#F8BE49"/>
<path d="M292.107 568.789H289.512L289.464 568.742L275.404 553.172L273.352 550.907L273.045 550.577L270.261 547.487L269.294 541.612L266.982 527.293L266.817 526.208H278.731L283.567 541.612L286.398 550.624L291.706 567.468L292.083 568.742L292.107 568.789Z" fill="#D5E5E6"/>
<path d="M301.73 568.766L318.833 546.897L322.915 526.208H312.487L299.465 568.766H301.73Z" fill="#D5E5E6"/>
<path d="M299.56 568.436V568.742H292.106L291.728 567.468L292.578 550.483L293.026 541.613V538.852C293.03 538.437 293.144 538.03 293.356 537.673C293.562 537.316 293.857 537.02 294.213 536.813C294.569 536.606 294.973 536.496 295.385 536.493H295.715C295.926 536.455 296.141 536.455 296.352 536.493C296.944 536.65 297.451 537.031 297.768 537.555C297.98 537.912 298.094 538.319 298.098 538.734V541.495L298.546 550.223L299.56 568.436Z" fill="#263536"/>
<path d="M305.647 509.389V524.157C305.65 524.6 305.565 525.041 305.396 525.451C305.228 525.862 304.98 526.235 304.666 526.549C304.352 526.863 303.979 527.111 303.568 527.28C303.157 527.448 302.717 527.533 302.273 527.53H288.779C288.26 527.53 287.747 527.411 287.281 527.182C286.815 526.953 286.407 526.62 286.09 526.209C285.652 525.614 285.412 524.896 285.406 524.157V509.389C285.412 508.496 285.769 507.641 286.401 507.01C287.032 506.379 287.886 506.021 288.779 506.015H302.273C303.166 506.021 304.021 506.379 304.652 507.01C305.283 507.641 305.641 508.496 305.647 509.389Z" fill="#FBD099"/>
<path d="M298.405 527.388H292.814C291.511 527.388 290.455 528.444 290.455 529.747V535.338C290.455 536.641 291.511 537.697 292.814 537.697H298.405C299.708 537.697 300.764 536.641 300.764 535.338V529.747C300.764 528.444 299.708 527.388 298.405 527.388Z" fill="#263536"/>
<path d="M315.412 548.855H335.252C336.165 548.855 337.041 549.218 337.687 549.864C338.333 550.51 338.696 551.386 338.696 552.299V561.736C338.696 562.643 338.336 563.513 337.694 564.155C337.053 564.796 336.183 565.156 335.276 565.156H315.388C314.481 565.156 313.611 564.796 312.97 564.155C312.328 563.513 311.968 562.643 311.968 561.736V552.299C311.964 551.846 312.051 551.397 312.223 550.978C312.395 550.558 312.649 550.177 312.969 549.857C313.29 549.536 313.671 549.283 314.09 549.111C314.509 548.939 314.959 548.852 315.412 548.855Z" fill="white"/>
<path d="M339.478 548.596C339.478 548.984 339.324 549.356 339.05 549.63C338.776 549.904 338.404 550.059 338.016 550.059H312.656C312.268 550.059 311.896 549.904 311.621 549.63C311.347 549.356 311.193 548.984 311.193 548.596C311.193 548.208 311.347 547.836 311.621 547.562C311.896 547.287 312.268 547.133 312.656 547.133H338.016C338.404 547.133 338.776 547.287 339.05 547.562C339.324 547.836 339.478 548.208 339.478 548.596Z" fill="#999999"/>
<path d="M329.471 543.405H321.167C320.919 543.405 320.719 543.606 320.719 543.853V548.147C320.719 548.395 320.919 548.595 321.167 548.595H329.471C329.719 548.595 329.919 548.395 329.919 548.147V543.853C329.919 543.606 329.719 543.405 329.471 543.405Z" fill="#333333"/>
<path d="M335.563 553.644H326.858C326.675 553.644 326.527 553.792 326.527 553.974V554.588C326.527 554.77 326.675 554.918 326.858 554.918H335.563C335.745 554.918 335.893 554.77 335.893 554.588V553.974C335.893 553.792 335.745 553.644 335.563 553.644Z" fill="#BDC3C7"/>
<path d="M335.563 556.381H326.858C326.675 556.381 326.527 556.529 326.527 556.712V557.301C326.527 557.484 326.675 557.632 326.858 557.632H335.563C335.745 557.632 335.893 557.484 335.893 557.301V556.712C335.893 556.529 335.745 556.381 335.563 556.381Z" fill="#BDC3C7"/>
<path d="M335.563 559.093H326.858C326.675 559.093 326.527 559.241 326.527 559.423V560.013C326.527 560.195 326.675 560.343 326.858 560.343H335.563C335.745 560.343 335.893 560.195 335.893 560.013V559.423C335.893 559.241 335.745 559.093 335.563 559.093Z" fill="#BDC3C7"/>
<path d="M296.543 489.855L293.948 501.037C293.948 501.387 293.809 501.723 293.562 501.971C293.314 502.219 292.978 502.358 292.627 502.358H273.141C272.795 502.352 272.465 502.21 272.222 501.963C271.98 501.716 271.844 501.383 271.844 501.037V490.963L272.268 490.704C272.843 490.375 273.443 490.091 274.061 489.855H292.627C292.942 489.862 293.244 489.979 293.481 490.186C293.718 490.393 293.875 490.676 293.925 490.987C293.925 490.987 296.543 489.784 296.543 489.855Z" fill="#B5C5C6"/>
<path d="M320.935 491.151V501.059C320.929 501.406 320.787 501.736 320.54 501.978C320.293 502.221 319.96 502.357 319.614 502.357H300.151C299.805 502.357 299.473 502.221 299.226 501.978C298.978 501.736 298.837 501.406 298.83 501.059L296.235 489.854C296.235 489.854 298.854 491.033 298.854 490.962C298.899 490.65 299.055 490.364 299.293 490.156C299.531 489.948 299.836 489.832 300.151 489.83H318.741C319.5 490.127 320.227 490.498 320.912 490.939C320.934 491.007 320.942 491.08 320.935 491.151Z" fill="#B5C5C6"/>
<path d="M320.913 490.939H271.844L272.268 490.68C272.843 490.351 273.443 490.067 274.061 489.831C274.769 489.547 275.571 489.288 276.42 489.028C281.015 487.866 285.72 487.194 290.457 487.023C292.344 487.023 294.302 486.858 296.331 486.858C302.012 486.807 307.684 487.305 313.269 488.344C314.511 488.577 315.74 488.876 316.95 489.241C317.563 489.429 318.153 489.618 318.672 489.831C319.191 490.043 319.804 490.326 320.276 490.585L320.913 490.939Z" fill="#455556"/>
<path d="M318.151 561.476H315.343C315.298 561.476 315.254 561.462 315.217 561.437C315.179 561.412 315.149 561.376 315.131 561.335L313.716 558.976C313.692 558.941 313.68 558.9 313.68 558.858C313.68 558.816 313.692 558.775 313.716 558.74L315.131 556.381C315.165 556.366 315.201 556.358 315.237 556.358C315.274 556.358 315.31 556.366 315.343 556.381H318.151C318.219 556.353 318.295 556.353 318.363 556.381L319.755 558.74C319.778 558.775 319.791 558.816 319.791 558.858C319.791 558.9 319.778 558.941 319.755 558.976L318.363 561.335C318.343 561.375 318.313 561.409 318.276 561.433C318.238 561.458 318.195 561.473 318.151 561.476ZM315.485 561.075H318.009L319.307 558.716L318.056 556.546H315.485L314.235 558.716L315.485 561.075Z" fill="#354546"/>
<path d="M322.35 559.048H319.543C319.497 559.047 319.453 559.033 319.416 559.008C319.378 558.983 319.348 558.948 319.33 558.906L317.938 556.547C317.916 556.508 317.904 556.463 317.904 556.417C317.904 556.372 317.916 556.327 317.938 556.288L319.33 553.928C319.364 553.914 319.4 553.906 319.436 553.906C319.473 553.906 319.509 553.914 319.543 553.928H322.35C322.383 553.914 322.419 553.906 322.456 553.906C322.493 553.906 322.529 553.914 322.562 553.928L323.978 556.288C324 556.327 324.012 556.372 324.012 556.417C324.012 556.463 324 556.508 323.978 556.547L322.562 558.906C322.544 558.948 322.514 558.983 322.477 559.008C322.439 559.033 322.395 559.047 322.35 559.048ZM319.684 558.552H322.208L323.459 556.358L322.208 554.188H319.684L318.434 556.358L319.684 558.552Z" fill="#354546"/>
<path d="M315.317 556.618C315.249 556.646 315.173 556.646 315.105 556.618L314.421 555.392C314.377 555.348 314.353 555.288 314.353 555.226C314.353 555.165 314.377 555.105 314.421 555.061C314.469 555.017 314.532 554.992 314.598 554.992C314.663 554.992 314.727 555.017 314.775 555.061L315.482 556.264C315.523 556.315 315.544 556.377 315.544 556.441C315.544 556.506 315.523 556.568 315.482 556.618H315.317Z" fill="#354546"/>
<path d="M319.587 554.234C319.554 554.249 319.518 554.257 319.481 554.257C319.445 554.257 319.408 554.249 319.375 554.234L318.667 553.031C318.623 552.983 318.598 552.92 318.598 552.854C318.598 552.789 318.623 552.725 318.667 552.677C318.711 552.634 318.771 552.61 318.832 552.61C318.894 552.61 318.954 552.634 318.998 552.677L319.705 553.88C319.75 553.928 319.775 553.992 319.775 554.057C319.775 554.123 319.75 554.186 319.705 554.234H319.587Z" fill="#354546"/>
<path d="M323.153 560.367C323.108 560.366 323.063 560.352 323.026 560.327C322.988 560.302 322.959 560.267 322.94 560.225L322.233 559.022C322.188 558.974 322.163 558.911 322.163 558.845C322.163 558.779 322.188 558.716 322.233 558.668C322.279 558.63 322.338 558.609 322.398 558.609C322.458 558.609 322.517 558.63 322.563 558.668L323.271 559.895C323.314 559.939 323.338 559.998 323.338 560.06C323.338 560.122 323.314 560.181 323.271 560.225L323.153 560.367Z" fill="#354546"/>
<path d="M322.679 556.358C322.645 556.373 322.609 556.381 322.572 556.381C322.536 556.381 322.5 556.373 322.466 556.358L321.759 555.155C321.739 555.126 321.725 555.092 321.719 555.058C321.713 555.023 321.714 554.987 321.722 554.952C321.73 554.918 321.745 554.885 321.766 554.857C321.787 554.828 321.814 554.804 321.844 554.786C321.875 554.769 321.909 554.757 321.944 554.753C321.98 554.749 322.015 554.752 322.049 554.763C322.083 554.773 322.115 554.79 322.142 554.813C322.169 554.836 322.191 554.864 322.207 554.896L322.891 556.099C322.936 556.147 322.961 556.21 322.961 556.276C322.961 556.341 322.936 556.405 322.891 556.453L322.679 556.358Z" fill="#354546"/>
<path d="M319.307 556.357C319.262 556.309 319.237 556.246 319.237 556.18C319.237 556.115 319.262 556.051 319.307 556.003L320.014 554.8C320.059 554.757 320.118 554.733 320.18 554.733C320.241 554.733 320.301 554.757 320.345 554.8C320.39 554.848 320.414 554.912 320.414 554.977C320.414 555.043 320.39 555.106 320.345 555.154L319.637 556.357C319.591 556.396 319.532 556.417 319.472 556.417C319.412 556.417 319.353 556.396 319.307 556.357Z" fill="#354546"/>
<path d="M315.136 558.882C315.091 558.834 315.066 558.77 315.066 558.705C315.066 558.639 315.091 558.576 315.136 558.528L315.843 557.325C315.887 557.282 315.947 557.257 316.008 557.257C316.07 557.257 316.129 557.282 316.174 557.325C316.218 557.373 316.243 557.436 316.243 557.502C316.243 557.567 316.218 557.631 316.174 557.679L315.489 558.882C315.437 558.915 315.375 558.933 315.313 558.933C315.25 558.933 315.188 558.915 315.136 558.882Z" fill="#354546"/>
<path d="M322.327 554.234C322.282 554.186 322.257 554.123 322.257 554.057C322.257 553.992 322.282 553.928 322.327 553.88L323.034 552.677C323.078 552.634 323.138 552.61 323.199 552.61C323.261 552.61 323.32 552.634 323.365 552.677C323.409 552.725 323.434 552.789 323.434 552.854C323.434 552.92 323.409 552.983 323.365 553.031L322.657 554.234C322.61 554.273 322.552 554.294 322.492 554.294C322.431 554.294 322.373 554.273 322.327 554.234Z" fill="#354546"/>
<path d="M323.692 556.617C323.627 556.617 323.565 556.593 323.517 556.55C323.469 556.506 323.439 556.446 323.433 556.381C323.433 556.312 323.46 556.246 323.509 556.198C323.558 556.149 323.624 556.122 323.692 556.122H325.084C325.117 556.118 325.15 556.122 325.182 556.132C325.213 556.143 325.242 556.16 325.267 556.182C325.291 556.204 325.31 556.231 325.324 556.262C325.337 556.292 325.344 556.325 325.344 556.358C325.344 556.427 325.316 556.493 325.268 556.541C325.219 556.59 325.153 556.617 325.084 556.617H323.692Z" fill="#354546"/>
</g>
<defs>
<clipPath id="clip0">
<rect width="768" height="695" fill="white"/>
</clipPath>
</defs>
</svg>
