<svg width="320" height="370" viewBox="0 0 320 370" fill="none" xmlns="http://www.w3.org/2000/svg">
<g clip-path="url(#clip0)">
<g opacity="0.1">
<path d="M49.8813 264.343C49.8813 261.524 51.4944 259.23 53.4965 259.23C55.4986 259.23 57.1231 261.512 57.1231 264.343C57.1231 267.173 53.4965 273.473 53.4965 273.473C53.4965 273.473 49.8813 267.161 49.8813 264.343Z" fill="#404040"/>
<path d="M49.8813 245.672C49.8813 242.853 51.4944 240.559 53.4965 240.559C55.4986 240.559 57.1231 242.841 57.1231 245.672C57.1231 248.502 53.4965 254.802 53.4965 254.802C53.4965 254.802 49.8813 248.491 49.8813 245.672Z" fill="#404040"/>
<path d="M49.8813 226.909C49.8813 224.079 51.4944 221.796 53.4965 221.796C55.4986 221.796 57.1231 224.079 57.1231 226.909C57.1231 229.74 53.4965 236.039 53.4965 236.039C53.4965 236.039 49.8813 229.785 49.8813 226.909Z" fill="#404040"/>
<path d="M39.0131 251.469C38.1322 248.787 39.0131 246.105 40.8778 245.489C42.7426 244.873 45.0307 246.55 45.9002 249.244C46.7697 251.937 45.2824 259.024 45.2824 259.024C45.2824 259.024 39.9283 254.117 39.0131 251.469Z" fill="#404040"/>
<path d="M33.2928 233.677C32.4233 230.995 33.2928 228.324 35.1576 227.697C37.0224 227.069 39.3105 228.758 40.1914 231.44C41.0723 234.122 39.5393 241.198 39.5393 241.198C39.5393 241.198 34.1394 236.359 33.2928 233.677Z" fill="#404040"/>
<path d="M68.0373 251.469C68.9068 248.787 68.0373 246.105 66.1725 245.489C64.3077 244.873 62.0196 246.55 61.1387 249.244C60.2578 251.937 61.7679 259.024 61.7679 259.024C61.7679 259.024 67.1678 254.117 68.0373 251.469Z" fill="#404040"/>
<path d="M73.8262 233.677C74.6957 230.995 73.8262 228.324 71.9614 227.697C70.0966 227.069 67.8085 228.758 66.9276 231.44C66.0467 234.122 67.614 241.198 67.614 241.198C67.614 241.198 72.9453 236.359 73.8262 233.677Z" fill="#404040"/>
<path d="M69.8219 348.476H37.9947C37.673 348.476 37.3646 348.349 37.1372 348.122C36.9097 347.895 36.782 347.587 36.782 347.266C36.782 346.946 36.9097 346.638 37.1372 346.411C37.3646 346.184 37.673 346.057 37.9947 346.057H69.8219C70.1436 346.057 70.452 346.184 70.6794 346.411C70.9069 346.638 71.0346 346.946 71.0346 347.266C71.0346 347.587 70.9069 347.895 70.6794 348.122C70.452 348.349 70.1436 348.476 69.8219 348.476Z" fill="#404040"/>
<path d="M63.6556 299.459H44.2068C43.8852 299.459 43.5767 299.332 43.3493 299.105C43.1219 298.878 42.9941 298.57 42.9941 298.249C42.9941 297.928 43.1219 297.621 43.3493 297.394C43.5767 297.167 43.8852 297.04 44.2068 297.04H63.6556C63.9772 297.04 64.2856 297.167 64.5131 297.394C64.7405 297.621 64.8682 297.928 64.8682 298.249C64.8682 298.57 64.7405 298.878 64.5131 299.105C64.2856 299.332 63.9772 299.459 63.6556 299.459Z" fill="#404040"/>
<path d="M38.5895 346.73C38.3491 346.735 38.1124 346.67 37.9089 346.542C37.7055 346.414 37.5443 346.23 37.4454 346.011C37.3791 345.866 37.3425 345.709 37.3377 345.549C37.3329 345.39 37.3601 345.231 37.4176 345.082C37.4752 344.934 37.5619 344.798 37.6728 344.683C37.7836 344.568 37.9164 344.476 38.0632 344.413L68.7579 330.752C69.0522 330.621 69.3869 330.611 69.6883 330.725C69.9898 330.84 70.2333 331.069 70.3653 331.363C70.4973 331.656 70.5069 331.99 70.3921 332.291C70.2774 332.592 70.0475 332.835 69.7532 332.966L39.1157 346.661C38.9474 346.722 38.7678 346.746 38.5895 346.73Z" fill="#404040"/>
<path d="M69.2385 317.525C69.1206 317.821 68.8904 318.059 68.5978 318.187L64.6737 319.944L41.7013 330.216L40.2141 330.878C40.0563 330.949 39.8841 330.985 39.7107 330.98C39.444 330.968 39.1887 330.869 38.9845 330.697C38.7802 330.526 38.6384 330.292 38.5811 330.032C38.5237 329.772 38.554 329.5 38.6672 329.259C38.7805 329.018 38.9703 328.82 39.2073 328.698L42.1018 327.408L64.3076 317.513L67.6139 315.973C67.865 315.863 68.1459 315.84 68.4114 315.909C68.6769 315.977 68.9118 316.132 69.0783 316.349L69.2385 317.525Z" fill="#404040"/>
<path d="M41.7587 317.662C41.4956 317.641 41.2464 317.535 41.0491 317.361C40.8517 317.186 40.7169 316.951 40.6652 316.693C40.6134 316.435 40.6475 316.167 40.7623 315.93C40.877 315.693 41.0662 315.5 41.3011 315.379L65.5548 304.537C65.8428 304.439 66.1573 304.451 66.4368 304.571C66.7164 304.692 66.941 304.912 67.0668 305.188C67.1925 305.465 67.2105 305.778 67.1171 306.067C67.0236 306.356 66.8256 306.6 66.5616 306.752L42.2507 317.662C42.0883 317.694 41.9211 317.694 41.7587 317.662Z" fill="#404040"/>
<path d="M66.6188 299.048C66.5035 299.182 66.3586 299.288 66.1955 299.356L62.0197 301.217L44.7333 308.943L42.6397 309.867C42.4818 309.939 42.3097 309.974 42.1363 309.97C41.8953 309.979 41.6573 309.915 41.4532 309.786C41.2492 309.658 41.0886 309.472 40.9922 309.251C40.8676 308.957 40.8623 308.626 40.9776 308.328C41.0928 308.03 41.3196 307.788 41.61 307.653L45.0421 306.101L61.6537 298.717L65.2002 297.12C65.383 297.035 65.5851 296.999 65.7861 297.017C65.987 297.035 66.1795 297.106 66.3442 297.222L66.6188 299.048Z" fill="#404040"/>
<path d="M69.2156 346.73C69.0464 346.729 68.8792 346.694 68.7237 346.627L38.0977 332.932C37.9519 332.868 37.8204 332.775 37.7104 332.66C37.6005 332.545 37.5144 332.409 37.4571 332.261C37.3997 332.113 37.3722 331.954 37.3761 331.795C37.38 331.636 37.4153 331.48 37.4799 331.334C37.5445 331.189 37.6372 331.058 37.7526 330.948C37.8681 330.839 38.004 330.753 38.1528 330.695C38.3015 330.638 38.4601 330.611 38.6194 330.615C38.7788 330.619 38.9358 330.654 39.0815 330.718L69.719 344.413C69.8703 344.471 70.0077 344.559 70.1221 344.674C70.2365 344.788 70.3253 344.925 70.3826 345.076C70.4399 345.227 70.4644 345.388 70.4546 345.55C70.4447 345.711 70.4007 345.868 70.3254 346.011C70.2301 346.225 70.0745 346.407 69.8775 346.535C69.6805 346.662 69.4506 346.73 69.2156 346.73Z" fill="#404040"/>
<path d="M67.614 330.958C67.4433 330.959 67.2747 330.92 67.1221 330.844L39.7452 318.666C39.5994 318.601 39.468 318.508 39.3584 318.392C39.2487 318.276 39.1631 318.14 39.1062 317.991C39.0494 317.842 39.0225 317.684 39.0271 317.524C39.0317 317.365 39.0677 317.208 39.1331 317.063C39.1984 316.918 39.2919 316.787 39.408 316.677C39.5242 316.568 39.6608 316.482 39.81 316.426C39.9593 316.369 40.1183 316.342 40.2779 316.347C40.4376 316.351 40.5947 316.387 40.7405 316.452L68.0602 328.63C68.2888 328.757 68.4704 328.954 68.5783 329.192C68.6862 329.431 68.7147 329.697 68.6597 329.952C68.6046 330.208 68.4689 330.439 68.2724 330.612C68.076 330.784 67.8292 330.89 67.5683 330.912L67.614 330.958Z" fill="#404040"/>
<path d="M65.692 317.137C65.5228 317.136 65.3556 317.101 65.2001 317.034L41.6214 306.523C41.4756 306.458 41.3442 306.365 41.2346 306.249C41.125 306.133 41.0393 305.997 40.9824 305.848C40.9256 305.699 40.8987 305.541 40.9033 305.381C40.9079 305.222 40.944 305.065 41.0093 304.92C41.0747 304.775 41.1681 304.643 41.2842 304.534C41.4004 304.425 41.537 304.339 41.6862 304.283C41.8355 304.226 41.9945 304.199 42.1541 304.204C42.3138 304.208 42.471 304.244 42.6167 304.309L66.1954 314.82C66.4324 314.943 66.6223 315.14 66.7355 315.381C66.8488 315.622 66.8791 315.894 66.8217 316.154C66.7643 316.414 66.6225 316.648 66.4183 316.82C66.214 316.991 65.9587 317.091 65.692 317.103V317.137Z" fill="#404040"/>
<path d="M64.8912 309.479C64.722 309.478 64.5548 309.443 64.3993 309.376L42.4451 299.573C42.1508 299.441 41.921 299.198 41.8062 298.898C41.6914 298.597 41.7011 298.263 41.833 297.969C41.965 297.676 42.2085 297.447 42.51 297.332C42.8114 297.218 43.1461 297.227 43.4404 297.359L65.406 307.162C65.6425 307.284 65.8321 307.48 65.9457 307.721C66.0593 307.961 66.0905 308.232 66.0345 308.491C65.9786 308.751 65.8386 308.985 65.6361 309.157C65.4336 309.329 65.1799 309.431 64.9141 309.445L64.8912 309.479Z" fill="#404040"/>
<path d="M34.8373 363.689H34.4941C33.8551 363.596 33.2789 363.254 32.891 362.739C32.5032 362.224 32.3351 361.577 32.4234 360.938L44.3329 276.862C44.3602 276.532 44.4549 276.211 44.6112 275.918C44.7675 275.626 44.982 275.368 45.2417 275.162C45.5013 274.955 45.8005 274.804 46.121 274.717C46.4415 274.629 46.7764 274.609 47.1052 274.655C47.4341 274.702 47.7498 274.815 48.0332 274.988C48.3165 275.161 48.5614 275.39 48.7528 275.661C48.9442 275.932 49.0782 276.239 49.1463 276.563C49.2145 276.887 49.2155 277.222 49.1493 277.547L37.2512 361.6C37.1663 362.179 36.8759 362.708 36.4329 363.092C35.9899 363.475 35.4237 363.687 34.8373 363.689Z" fill="#404040"/>
<path d="M73.3342 363.666H72.991C72.4069 363.667 71.8423 363.457 71.401 363.075C70.9596 362.694 70.6711 362.166 70.5885 361.589L64.6738 319.945L64.3077 317.445L62.0196 301.217L61.6535 298.717L58.6561 277.547C58.5887 277.221 58.5889 276.886 58.6568 276.56C58.7246 276.235 58.8587 275.927 59.0507 275.655C59.2426 275.383 59.4884 275.154 59.7729 274.98C60.0573 274.807 60.3743 274.694 60.7043 274.648C61.0343 274.602 61.3703 274.624 61.6915 274.712C62.0127 274.801 62.3123 274.954 62.5718 275.163C62.8312 275.371 63.045 275.631 63.1999 275.925C63.3549 276.219 63.4476 276.542 63.4725 276.874L66.367 297.245L66.6186 299.048L69.0669 316.35L69.2385 317.491L75.382 360.859C75.4357 361.178 75.4251 361.504 75.3508 361.819C75.2764 362.133 75.1399 362.43 74.9492 362.692C74.7585 362.953 74.5175 363.174 74.2402 363.341C73.9628 363.509 73.6548 363.619 73.3342 363.666Z" fill="#404040"/>
<path d="M53.8855 363.689C52.7414 363.689 51.8262 363.141 51.8262 362.479V278.414C51.8262 277.752 52.7414 277.204 53.8855 277.204C55.0295 277.204 55.9447 277.752 55.9447 278.414V362.479C55.9562 363.141 55.0295 363.689 53.8855 363.689Z" fill="#404040"/>
<path d="M65.6349 274.066H42.182C41.0699 274.066 40.1685 274.965 40.1685 276.075V279.578C40.1685 280.688 41.0699 281.587 42.182 281.587H65.6349C66.7469 281.587 67.6484 280.688 67.6484 279.578V276.075C67.6484 274.965 66.7469 274.066 65.6349 274.066Z" fill="#404040"/>
<path d="M93.8469 355.232H13.1461C11.2253 355.232 9.66821 356.785 9.66821 358.702V366.531C9.66821 368.447 11.2253 370 13.1461 370H93.8469C95.7677 370 97.3248 368.447 97.3248 366.531V358.702C97.3248 356.785 95.7677 355.232 93.8469 355.232Z" fill="#404040"/>
<path d="M292.35 130.199L281.49 132.123C281.25 132.167 281.037 132.304 280.898 132.505L277.201 137.922C277.201 137.922 277.201 137.922 277.125 138.015L275.142 140.675L274.329 140.106L269.94 146.385L270.573 146.827L268.085 150.21C267.888 150.485 267.807 150.826 267.858 151.161L271.37 170.987C271.447 171.309 271.645 171.589 271.922 171.771C272.2 171.952 272.536 172.021 272.862 171.962L298.7 167.385C299.026 167.328 299.319 167.148 299.517 166.882C299.715 166.617 299.804 166.285 299.766 165.956L293.557 130.909C293.536 130.777 293.485 130.651 293.41 130.54C293.334 130.43 293.235 130.338 293.12 130.27C293.005 130.202 292.876 130.161 292.743 130.148C292.61 130.136 292.475 130.153 292.35 130.199ZM282.176 133.835L291.769 132.136L292.275 134.988L279.906 137.179L282.176 133.835ZM293.2 146.394C293.233 146.57 293.225 146.751 293.178 146.924C293.131 147.096 293.046 147.256 292.928 147.392L295.829 163.764C295.889 164.104 295.812 164.453 295.615 164.735C295.417 165.018 295.116 165.21 294.776 165.27L275.59 168.669C275.251 168.729 274.901 168.652 274.619 168.455C274.337 168.257 274.144 167.956 274.084 167.617L271.469 152.856C271.437 152.681 271.441 152.503 271.481 152.33C271.521 152.157 271.595 151.994 271.7 151.852L273.746 149.101L278.313 142.936L278.423 142.811C278.518 142.678 278.638 142.565 278.777 142.48C278.916 142.394 279.07 142.337 279.232 142.312L289.349 140.519L289.161 139.458C289.105 139.139 289.177 138.811 289.363 138.545C289.548 138.28 289.832 138.099 290.151 138.042L290.419 137.995C290.738 137.938 291.067 138.011 291.332 138.196C291.597 138.382 291.778 138.665 291.835 138.984L293.2 146.394Z" fill="#404040"/>
<path d="M291.933 147.806C291.615 147.844 291.294 147.762 291.032 147.577C290.77 147.392 290.586 147.117 290.515 146.804L289.532 141.253L279.414 143.045C279.345 143.057 279.279 143.082 279.22 143.12C279.161 143.158 279.11 143.207 279.07 143.265L278.984 143.372L274.414 149.525L272.409 152.281C272.322 152.405 272.287 152.558 272.313 152.707L274.917 167.404C274.929 167.474 274.955 167.541 274.994 167.6C275.033 167.66 275.083 167.711 275.141 167.751C275.2 167.791 275.266 167.819 275.336 167.833C275.406 167.847 275.477 167.847 275.547 167.833L294.733 164.434C294.802 164.422 294.868 164.396 294.927 164.359C294.986 164.321 295.037 164.272 295.077 164.215C295.117 164.157 295.146 164.093 295.161 164.025C295.176 163.956 295.177 163.886 295.165 163.817L292.314 147.726L291.931 147.794L291.933 147.806ZM284.633 163.717C282.504 164.079 280.317 163.641 278.492 162.487C276.667 161.333 275.334 159.544 274.749 157.465C274.165 155.386 274.37 153.165 275.326 151.229C276.282 149.292 277.92 147.778 279.926 146.978C280.462 146.766 281.018 146.61 281.585 146.513C282.735 146.263 283.923 146.248 285.079 146.469C286.234 146.689 287.333 147.14 288.31 147.796C289.287 148.451 290.122 149.297 290.765 150.282C291.407 151.268 291.844 152.373 292.049 153.531C292.254 154.69 292.224 155.877 291.959 157.024C291.694 158.17 291.201 159.251 290.508 160.202C289.816 161.153 288.939 161.955 287.929 162.559C286.919 163.163 285.798 163.557 284.633 163.717Z" fill="#404040"/>
<path d="M273.642 137.642L271.595 136.211C271.463 136.117 271.313 136.051 271.155 136.015C270.997 135.98 270.834 135.976 270.674 136.005C270.423 136.055 270.193 136.179 270.011 136.36L274.045 139.168C274.169 138.907 274.196 138.611 274.123 138.331C274.049 138.052 273.879 137.808 273.642 137.642Z" fill="#404040"/>
<path d="M269.811 139.483L272.522 141.377L273.711 139.676L273.942 139.345L273.711 139.676L273.585 139.857L270.874 137.962L269.532 137.013L269.879 136.516L268.446 138.551L268.469 138.533L269.811 139.483Z" fill="#404040"/>
<path d="M280.321 157.396C280.749 159.814 282.477 161.526 284.191 161.223C285.905 160.919 286.94 158.717 286.512 156.3C286.084 153.882 282.032 149.033 282.032 149.033C282.032 149.033 279.888 154.953 280.321 157.396ZM285.451 156.567C285.596 157.385 285.251 158.119 284.676 158.221C284.1 158.323 283.511 157.755 283.366 156.936C283.421 155.962 283.639 155.005 284.012 154.104C284.643 154.829 285.15 155.653 285.513 156.543L285.451 156.567Z" fill="#404040"/>
<path d="M287.01 315.011C287.01 321.228 283.434 326.257 279.005 326.257C274.575 326.257 271 321.228 271 315.011C271 308.794 279.005 295 279.005 295C279.005 295 287.01 308.794 287.01 315.011Z" fill="#404040"/>
<path d="M38.4691 171.604C38.4186 171.469 38.3591 171.339 38.2909 171.212L30.3211 153.605L31.5916 144.69C31.6209 144.455 31.6136 144.217 31.57 143.985C31.786 143.971 31.9886 143.875 32.137 143.717C32.2854 143.56 32.3686 143.352 32.3698 143.135C32.3709 142.919 32.2901 142.71 32.1434 142.551C31.9968 142.391 31.7952 142.294 31.5794 142.277L26.3942 141.538C26.2829 141.522 26.1696 141.528 26.0607 141.556C25.9518 141.584 25.8494 141.633 25.7595 141.701C25.6696 141.768 25.5938 141.853 25.5366 141.95C25.4793 142.046 25.4417 142.154 25.4258 142.265C25.3951 142.474 25.4436 142.686 25.5617 142.861C25.6798 143.036 25.8591 143.161 26.0643 143.21C25.9612 143.419 25.8915 143.643 25.858 143.873L24.515 153.296L12.3394 167.483L12.2682 167.554C12.1912 167.633 12.1212 167.718 12.0589 167.809C11.7132 168.306 11.4921 168.878 11.4142 169.478C11.325 170.063 11.372 170.662 11.5515 171.227C11.6307 171.58 11.8098 171.904 12.0674 172.159C12.325 172.414 12.6504 172.589 13.0049 172.665L36.2584 175.979C36.6039 176.001 36.9489 175.928 37.2554 175.767C37.5619 175.606 37.8181 175.364 37.9959 175.067C38.3261 174.575 38.5384 174.013 38.6165 173.426C38.7176 172.815 38.6671 172.19 38.4691 171.604ZM28.8303 142.363L31.1337 142.692C31.2448 142.708 31.345 142.767 31.4123 142.857C31.4797 142.946 31.5086 143.059 31.4928 143.17C31.4818 143.254 31.442 143.331 31.3803 143.388C31.3374 143.443 31.2809 143.486 31.2165 143.512C31.1521 143.539 31.082 143.548 31.0129 143.539L28.7095 143.211C28.6105 143.181 28.5255 143.117 28.4699 143.029C28.4142 142.942 28.3917 142.838 28.4063 142.735C28.4209 142.633 28.4717 142.539 28.5494 142.471C28.6272 142.403 28.7268 142.365 28.8303 142.363ZM14.9943 166.844L20.9575 159.697L24.1384 155.938L25.3701 154.435L25.8471 153.944L27.2682 143.972C27.2839 143.791 27.3095 143.612 27.3449 143.434L30.2466 143.847C30.231 144.028 30.2054 144.208 30.1699 144.386L28.7331 154.467L29.8108 156.899L31.7153 161.24L35.4957 169.766C35.5608 169.874 35.6161 169.987 35.6611 170.105C35.8425 170.584 35.8809 171.106 35.7716 171.607C35.6623 172.108 35.41 172.566 35.0452 172.927L14.5438 170.005C14.2943 169.557 14.1801 169.046 14.2151 168.535C14.25 168.023 14.4327 167.533 14.7409 167.123C14.8169 167.023 14.9017 166.929 14.9943 166.844Z" fill="#404040"/>
<path d="M34.8506 172.299C35.097 171.974 35.2454 171.585 35.2781 171.179C35.3107 170.773 35.2264 170.365 35.035 170.005L31.4128 161.798L21.192 160.341L15.421 167.21C15.1331 167.5 14.9352 167.866 14.8511 168.266C14.7671 168.666 14.8005 169.081 14.9475 169.462L34.8506 172.299ZM29.6615 164.234L29.8211 164.257C30.4478 164.346 31.0135 164.681 31.3935 165.187C31.7735 165.693 31.9368 166.33 31.8475 166.957L31.8262 167.106C31.7369 167.733 31.4022 168.299 30.8959 168.679C30.3895 169.059 29.7529 169.222 29.1261 169.133L28.9666 169.11C28.3398 169.021 27.7742 168.686 27.3942 168.18C27.0141 167.673 26.8508 167.037 26.9402 166.41L26.9615 166.26C27.0508 165.634 27.3855 165.068 27.8918 164.688C28.3982 164.308 29.0348 164.145 29.6615 164.234Z" fill="#404040"/>
<path d="M27.1885 157.39C27.2841 157.404 27.3814 157.399 27.475 157.375C27.5685 157.351 27.6564 157.309 27.7336 157.251C27.8108 157.193 27.8759 157.12 27.9251 157.037C27.9742 156.954 28.0065 156.862 28.0202 156.766L29.3489 147.443C29.3764 147.25 29.3261 147.054 29.2091 146.898C29.092 146.742 28.9178 146.639 28.7247 146.611C28.5317 146.584 28.3356 146.634 28.1796 146.751C28.0237 146.868 27.9206 147.042 27.8931 147.235L26.5601 156.589C26.541 156.778 26.5958 156.967 26.713 157.116C26.8301 157.266 27.0005 157.364 27.1885 157.39Z" fill="#404040"/>
</g>
<circle opacity="0.2" cx="160" cy="250" r="100" fill="#4B0731"/>
<circle cx="160" cy="250" r="90" fill="#936A83"/>
<mask id="mask0" mask-type="alpha" maskUnits="userSpaceOnUse" x="70" y="160" width="180" height="180">
<circle cx="160" cy="250" r="90" fill="#936A83"/>
</mask>
<g mask="url(#mask0)">
<path d="M222.552 220.65C222.552 218.517 221.328 216.785 219.821 216.785C218.314 216.785 217.091 218.517 217.091 220.65C217.091 222.784 219.821 227.501 219.821 227.501C219.821 227.501 222.552 222.774 222.552 220.65Z" fill="#514260"/>
<path d="M222.552 206.539C222.552 204.405 221.328 202.673 219.821 202.673C218.314 202.673 217.091 204.405 217.091 206.539C217.091 208.672 219.821 213.389 219.821 213.389C219.821 213.389 222.552 208.662 222.552 206.539Z" fill="#514260"/>
<path d="M222.552 192.358C222.552 190.225 221.328 188.492 219.821 188.492C218.314 188.492 217.091 190.225 217.091 192.407C217.091 194.589 219.821 199.258 219.821 199.258C219.821 199.258 222.552 194.492 222.552 192.358Z" fill="#514260"/>
<path d="M208.928 210.893C209.593 212.919 213.664 216.599 213.664 216.599C213.664 216.599 214.79 211.226 214.134 209.2C213.478 207.174 211.776 205.912 210.337 206.372C208.898 206.832 208.272 208.867 208.928 210.893Z" fill="#514260"/>
<path d="M209.3 203.182C209.3 203.182 210.425 197.809 209.769 195.783C209.114 193.757 207.411 192.485 205.972 192.955C204.534 193.425 203.907 195.441 204.573 197.515C205.238 199.59 209.3 203.182 209.3 203.182Z" fill="#514260"/>
<path d="M230.782 210.893C231.437 208.867 230.782 206.842 229.372 206.372C227.963 205.902 226.241 207.174 225.585 209.2C224.929 211.226 226.055 216.599 226.055 216.599C226.055 216.599 230.116 212.919 230.782 210.893Z" fill="#514260"/>
<path d="M235.136 197.515C235.801 195.479 235.136 193.463 233.737 192.994C232.337 192.524 230.605 193.796 229.939 195.822C229.274 197.848 230.419 203.221 230.419 203.221C230.419 203.221 234.48 199.472 235.136 197.515Z" fill="#514260"/>
<path d="M250.198 289.332H235.714L231.682 260.824L231.555 259.943L229.705 246.868L229.519 245.498L227.846 233.725H228.971C229.373 233.725 229.759 233.565 230.044 233.281C230.328 232.996 230.488 232.61 230.488 232.208V229.507C230.489 229.307 230.451 229.11 230.375 228.925C230.299 228.74 230.188 228.573 230.047 228.431C229.905 228.29 229.738 228.179 229.553 228.103C229.368 228.027 229.171 227.989 228.971 227.99H211.287C211.087 227.989 210.889 228.027 210.705 228.103C210.52 228.179 210.352 228.29 210.211 228.431C210.07 228.573 209.958 228.74 209.883 228.925C209.807 229.11 209.769 229.307 209.77 229.507V232.159C209.763 232.362 209.798 232.565 209.871 232.755C209.944 232.944 210.055 233.117 210.196 233.263C210.338 233.41 210.507 233.526 210.695 233.605C210.882 233.684 211.083 233.725 211.287 233.725H212.412L204.583 289.381H189.404C188.71 289.381 188.044 289.656 187.553 290.146C187.061 290.636 186.784 291.3 186.781 291.994V297.915C186.781 298.259 186.849 298.6 186.981 298.917C187.113 299.235 187.306 299.523 187.55 299.766C187.794 300.009 188.083 300.201 188.401 300.332C188.719 300.463 189.06 300.529 189.404 300.528H250.198C250.542 300.529 250.882 300.463 251.2 300.332C251.517 300.201 251.806 300.008 252.049 299.766C252.292 299.523 252.484 299.234 252.615 298.916C252.746 298.599 252.812 298.258 252.811 297.915V291.994C252.818 291.647 252.755 291.302 252.626 290.979C252.498 290.656 252.307 290.363 252.063 290.115C251.82 289.867 251.53 289.67 251.209 289.536C250.889 289.401 250.545 289.332 250.198 289.332ZM210.925 270.395L218.568 266.999V275.122L210.739 271.628L210.915 270.395H210.925ZM212.324 260.452L218.568 257.663V263.76L212.265 260.941L212.324 260.452ZM213.195 254.345L214.066 253.954L218.216 255.803L212.637 258.309L213.195 254.345ZM229.509 271.628L221.68 275.132V267.156L229.372 270.591L229.509 271.628ZM221.68 257.35L227.885 260.149L227.973 260.795L221.67 263.613L221.68 257.35ZM227.063 254.228L227.591 257.976L222.698 255.803L226.612 254.042L227.063 254.228ZM221.68 254.228V251.83L224.401 253.044L221.68 254.228ZM218.578 253.924L216.327 252.946L218.578 251.967V253.924ZM210.494 273.498L217.902 276.786L209.506 280.534L210.494 273.498ZM229.783 273.498L230.762 280.554L222.375 276.786L229.783 273.498ZM229.069 268.428L222.218 265.345L228.286 262.634L229.069 268.428ZM226.71 251.987H226.612L222.473 250.137L226.221 248.463L226.71 251.987ZM221.651 248.542V247.181H224.753L221.651 248.542ZM218.568 248.405L215.769 247.152H218.568V248.405ZM218 250.157L214.086 251.908L213.587 251.683L213.988 248.405L218 250.157ZM217.677 265.336L211.228 268.271L211.991 262.85L217.677 265.336ZM218.568 278.498V282.413H209.868L218.568 278.498ZM221.67 278.498L230.39 282.413H221.67V278.498ZM225.79 245.332H221.67V233.725H224.146L225.79 245.332ZM218.568 233.725V245.351H214.467L216.112 233.725H218.568ZM208.967 284.292H218.568V289.381H208.253L208.967 284.292ZM221.69 289.381V284.292H231.31L232.024 289.381H221.69Z" fill="#514260"/>
<path d="M186.321 208.485C186.321 213.046 183.698 216.736 180.449 216.736C177.2 216.736 174.577 213.046 174.577 208.485C174.577 203.925 180.449 193.806 180.449 193.806C180.449 193.806 186.321 203.925 186.321 208.485Z" fill="#514260"/>
<path d="M139.923 282.658H107.001C105.376 282.655 103.817 282.007 102.669 280.857C101.52 279.706 100.875 278.147 100.875 276.521V274.124C100.874 273.318 101.031 272.52 101.338 271.775C101.646 271.03 102.096 270.353 102.665 269.782C103.234 269.211 103.91 268.758 104.654 268.449C105.398 268.139 106.196 267.979 107.001 267.978H139.923C141.549 267.98 143.107 268.628 144.256 269.778C145.405 270.929 146.05 272.488 146.05 274.114V276.492C146.054 277.3 145.898 278.1 145.592 278.847C145.286 279.594 144.836 280.274 144.266 280.847C143.697 281.419 143.021 281.874 142.275 282.185C141.53 282.496 140.731 282.656 139.923 282.658ZM107.001 270.033C105.916 270.033 104.876 270.464 104.109 271.231C103.342 271.998 102.911 273.039 102.911 274.124V276.492C102.911 277.577 103.342 278.618 104.109 279.385C104.876 280.152 105.916 280.583 107.001 280.583H139.923C141.007 280.58 142.045 280.148 142.81 279.381C143.575 278.614 144.004 277.575 144.004 276.492V274.124C144.004 273.041 143.575 272.001 142.81 271.235C142.045 270.468 141.007 270.036 139.923 270.033H107.001Z" fill="#C5D3E1"/>
<path d="M129.109 259.502V284.674C129.109 285.805 128.66 286.89 127.859 287.691C127.059 288.491 125.974 288.94 124.842 288.94H113.598C112.465 288.94 111.379 288.491 110.577 287.691C109.775 286.891 109.323 285.806 109.321 284.674V259.502C109.329 258.373 109.783 257.293 110.584 256.497C111.385 255.702 112.468 255.255 113.598 255.255H124.842C125.2 255.254 125.555 255.304 125.899 255.402C126.813 255.634 127.623 256.162 128.204 256.904C128.785 257.646 129.103 258.56 129.109 259.502Z" fill="#D6741D"/>
<path d="M113.548 291.917C113.545 292.206 113.428 292.482 113.223 292.686C113.018 292.889 112.741 293.003 112.452 293.003C112.163 293.003 111.887 292.889 111.683 292.685C111.48 292.481 111.365 292.205 111.365 291.917V286.573C111.365 286.284 111.479 286.007 111.683 285.802C111.886 285.596 112.163 285.48 112.452 285.477C112.595 285.477 112.738 285.506 112.871 285.561C113.004 285.616 113.125 285.697 113.227 285.798C113.328 285.9 113.409 286.021 113.464 286.154C113.519 286.287 113.548 286.429 113.548 286.573V291.917Z" fill="#7C8A98"/>
<path d="M127.112 291.917C127.112 292.205 126.997 292.481 126.794 292.685C126.59 292.889 126.314 293.003 126.026 293.003C125.882 293.004 125.74 292.977 125.607 292.923C125.474 292.869 125.353 292.789 125.251 292.688C125.149 292.587 125.068 292.467 125.013 292.335C124.958 292.202 124.929 292.06 124.929 291.917V286.573C124.928 286.43 124.955 286.288 125.009 286.155C125.063 286.022 125.143 285.901 125.244 285.799C125.345 285.697 125.465 285.616 125.598 285.561C125.73 285.506 125.872 285.477 126.016 285.477C126.16 285.477 126.302 285.506 126.435 285.561C126.568 285.616 126.689 285.697 126.791 285.798C126.893 285.9 126.973 286.021 127.028 286.154C127.084 286.287 127.112 286.429 127.112 286.573V291.917Z" fill="#7C8A98"/>
<path d="M130.733 285.526C130.733 285.785 130.629 286.034 130.446 286.218C130.262 286.401 130.014 286.504 129.754 286.504H108.674C108.414 286.504 108.165 286.401 107.982 286.218C107.798 286.034 107.695 285.785 107.695 285.526C107.695 285.266 107.798 285.017 107.982 284.834C108.165 284.65 108.414 284.547 108.674 284.547H129.754C129.882 284.547 130.01 284.572 130.128 284.621C130.247 284.671 130.355 284.743 130.446 284.834C130.537 284.924 130.609 285.032 130.658 285.151C130.707 285.27 130.733 285.397 130.733 285.526Z" fill="#7C8A98"/>
<path d="M126.027 256.439V278.263C126.027 278.858 125.909 279.447 125.682 279.996C125.454 280.545 125.12 281.044 124.699 281.464C124.278 281.884 123.778 282.217 123.229 282.443C122.679 282.67 122.09 282.786 121.495 282.785C120.901 282.787 120.311 282.672 119.761 282.446C119.21 282.22 118.71 281.887 118.289 281.467C117.868 281.047 117.534 280.547 117.307 279.997C117.079 279.448 116.963 278.858 116.964 278.263V256.439C116.954 256.04 117 255.641 117.101 255.255H124.803C125.161 255.254 125.517 255.304 125.86 255.402C125.958 255.74 126.014 256.088 126.027 256.439Z" fill="#F19B2C"/>
<path d="M130.733 260.148C130.733 260.408 130.629 260.657 130.446 260.84C130.262 261.024 130.014 261.127 129.754 261.127H108.674C108.414 261.127 108.165 261.024 107.982 260.84C107.798 260.657 107.695 260.408 107.695 260.148C107.695 259.889 107.798 259.64 107.982 259.456C108.165 259.273 108.414 259.17 108.674 259.17H129.754C129.882 259.17 130.01 259.195 130.128 259.244C130.247 259.293 130.355 259.365 130.446 259.456C130.537 259.547 130.609 259.655 130.658 259.774C130.707 259.893 130.733 260.02 130.733 260.148Z" fill="#7C8A98"/>
<path d="M132.474 262.155H124.322C122.696 262.152 121.138 261.505 119.989 260.354C118.841 259.204 118.196 257.645 118.196 256.019V242.944C118.196 241.319 118.841 239.761 119.99 238.612C121.139 237.463 122.697 236.818 124.322 236.818H132.474C132.744 236.818 133.003 236.925 133.194 237.116C133.385 237.307 133.492 237.565 133.492 237.835C133.492 238.105 133.385 238.364 133.194 238.555C133.003 238.746 132.744 238.853 132.474 238.853H124.322C123.239 238.856 122.201 239.288 121.436 240.055C120.671 240.822 120.241 241.861 120.241 242.944V256.019C120.236 256.559 120.337 257.094 120.54 257.594C120.743 258.094 121.042 258.549 121.422 258.933C121.801 259.317 122.253 259.622 122.75 259.831C123.248 260.039 123.782 260.148 124.322 260.149H132.474C132.745 260.149 133.005 260.257 133.197 260.448C133.389 260.64 133.497 260.9 133.497 261.171C133.497 261.443 133.389 261.703 133.197 261.895C133.005 262.086 132.745 262.194 132.474 262.194V262.155Z" fill="#C5D3E1"/>
<path d="M189.141 248.523H183.269C182.998 248.523 182.738 248.415 182.546 248.223C182.354 248.031 182.246 247.771 182.246 247.5C182.246 247.229 182.354 246.969 182.546 246.777C182.738 246.585 182.998 246.477 183.269 246.477H189.141C190.226 246.477 191.266 246.046 192.034 245.279C192.801 244.512 193.232 243.471 193.232 242.386V241.789C193.229 240.706 192.797 239.668 192.03 238.903C191.263 238.138 190.224 237.708 189.141 237.708H183.269C182.998 237.708 182.738 237.601 182.546 237.409C182.354 237.217 182.246 236.957 182.246 236.686C182.246 236.415 182.354 236.154 182.546 235.963C182.738 235.771 182.998 235.663 183.269 235.663H189.141C190.765 235.666 192.322 236.312 193.47 237.46C194.618 238.609 195.265 240.165 195.267 241.789V242.386C195.267 244.012 194.622 245.571 193.474 246.722C192.325 247.872 190.767 248.52 189.141 248.523Z" fill="#C5D3E1"/>
<path d="M186.379 270.669H183.277C183.006 270.669 182.745 270.562 182.554 270.37C182.362 270.178 182.254 269.918 182.254 269.647C182.254 269.376 182.362 269.115 182.554 268.924C182.745 268.732 183.006 268.624 183.277 268.624H186.379C186.824 268.621 187.25 268.443 187.563 268.128C187.877 267.812 188.053 267.386 188.053 266.941V266.628C188.05 266.185 187.873 265.76 187.56 265.447C187.246 265.134 186.822 264.957 186.379 264.954H183.277C183.006 264.954 182.745 264.846 182.554 264.655C182.362 264.463 182.254 264.203 182.254 263.931C182.254 263.66 182.362 263.4 182.554 263.208C182.745 263.016 183.006 262.909 183.277 262.909H186.379C187.365 262.909 188.311 263.301 189.009 263.998C189.706 264.695 190.098 265.641 190.098 266.628V266.941C190.098 267.928 189.707 268.875 189.009 269.574C188.312 270.273 187.366 270.667 186.379 270.669Z" fill="#C5D3E1"/>
<path d="M186.379 279.184H183.277C183.006 279.184 182.745 279.077 182.554 278.885C182.362 278.693 182.254 278.433 182.254 278.162C182.254 277.89 182.362 277.63 182.554 277.438C182.745 277.247 183.006 277.139 183.277 277.139H186.379C186.823 277.139 187.249 276.963 187.563 276.649C187.876 276.335 188.053 275.909 188.053 275.465V275.152C188.053 274.708 187.877 274.281 187.563 273.965C187.25 273.65 186.824 273.472 186.379 273.469H183.277C183.007 273.469 182.748 273.362 182.557 273.171C182.366 272.98 182.259 272.721 182.259 272.451C182.259 272.181 182.366 271.922 182.557 271.731C182.748 271.541 183.007 271.433 183.277 271.433H186.379C187.365 271.433 188.311 271.825 189.009 272.523C189.706 273.22 190.098 274.166 190.098 275.152V275.465C190.098 276.452 189.706 277.398 189.009 278.095C188.311 278.793 187.365 279.184 186.379 279.184Z" fill="#C5D3E1"/>
<path d="M186.379 287.709H183.277C183.006 287.709 182.745 287.601 182.554 287.409C182.362 287.217 182.254 286.957 182.254 286.686C182.254 286.415 182.362 286.154 182.554 285.963C182.745 285.771 183.006 285.663 183.277 285.663H186.379C186.822 285.661 187.246 285.483 187.56 285.17C187.873 284.857 188.05 284.433 188.053 283.99V283.637C188.05 283.194 187.873 282.77 187.56 282.457C187.246 282.144 186.822 281.966 186.379 281.964H183.277C183.006 281.964 182.745 281.856 182.554 281.664C182.362 281.473 182.254 281.212 182.254 280.941C182.254 280.67 182.362 280.41 182.554 280.218C182.745 280.026 183.006 279.918 183.277 279.918H186.379C187.365 279.921 188.309 280.314 189.006 281.011C189.703 281.707 190.095 282.652 190.098 283.637V283.96C190.101 284.451 190.006 284.937 189.821 285.391C189.635 285.845 189.362 286.258 189.016 286.606C188.671 286.954 188.26 287.231 187.808 287.42C187.355 287.609 186.87 287.707 186.379 287.709Z" fill="#C5D3E1"/>
<path d="M167.991 291.339C167.991 292.445 161.924 293.424 160.808 293.424H155.406C154.28 293.424 148.261 292.514 148.261 291.378L148.624 286.113L149.064 280.016L149.778 269.819L150.209 263.79L150.923 253.632L151.354 247.505L152.078 237.357L152.509 231.25L153.37 219.114C153.373 218.576 153.588 218.061 153.97 217.681C154.351 217.302 154.867 217.089 155.406 217.089H160.808C161.348 217.089 161.865 217.303 162.247 217.685C162.629 218.067 162.843 218.584 162.843 219.124L163.705 231.26L164.135 237.366L164.869 247.515L165.29 253.602L166.034 263.741L166.464 269.838L167.179 279.977L167.619 286.074L167.991 291.339Z" fill="#F19B2C"/>
<path d="M164.135 237.356H152.078L152.508 231.259H163.714L164.135 237.356Z" fill="#F7B23F"/>
<path d="M165.29 253.592H150.923L151.353 247.505H164.869L165.29 253.592Z" fill="#F7B23F"/>
<path d="M166.435 269.838H150.375C150.161 269.838 149.949 269.818 149.739 269.779L150.169 263.75H166.033L166.435 269.838Z" fill="#F7B23F"/>
<path d="M167.59 286.073H148.624L149.064 279.976H167.15L167.59 286.073Z" fill="#F7B23F"/>
<path d="M175.899 232.384C175.766 232.384 175.635 232.358 175.513 232.305C175.391 232.253 175.28 232.177 175.189 232.081C175.097 231.984 175.026 231.871 174.98 231.746C174.934 231.622 174.914 231.489 174.92 231.357V228.47C174.92 227.385 174.489 226.344 173.722 225.577C172.955 224.81 171.914 224.379 170.829 224.379H145.688C145.148 224.375 144.613 224.478 144.113 224.682C143.614 224.886 143.159 225.186 142.776 225.567C142.393 225.947 142.089 226.399 141.882 226.897C141.674 227.396 141.568 227.93 141.568 228.47V231.357C141.568 231.627 141.46 231.886 141.269 232.076C141.079 232.267 140.82 232.374 140.55 232.374C140.28 232.374 140.021 232.267 139.83 232.076C139.639 231.886 139.532 231.627 139.532 231.357V228.47C139.532 226.844 140.177 225.285 141.326 224.134C142.474 222.984 144.033 222.336 145.658 222.333H170.761C172.387 222.336 173.945 222.984 175.093 224.134C176.242 225.285 176.887 226.844 176.887 228.47V231.357C176.894 231.49 176.873 231.623 176.826 231.749C176.78 231.874 176.708 231.988 176.615 232.084C176.523 232.18 176.411 232.257 176.288 232.308C176.165 232.36 176.032 232.386 175.899 232.384Z" fill="#C5D3E1"/>
<path d="M158.381 195.088C158.694 195.088 162.667 199.326 160.338 204.796C158.009 210.267 158.205 214.583 158.518 214.524C157.921 214.524 152.646 210.15 156.561 204.826C160.475 199.502 158.988 195.098 158.381 195.088Z" fill="#7C8A98"/>
<path d="M152.529 236.466V288.07C152.529 289.422 151.993 290.718 151.039 291.675C150.086 292.633 148.791 293.173 147.44 293.179H137.653C136.298 293.179 134.999 292.64 134.041 291.682C133.083 290.724 132.545 289.425 132.545 288.07V236.466C132.543 235.794 132.675 235.129 132.931 234.509C133.187 233.889 133.563 233.325 134.038 232.85C134.513 232.376 135.076 231.999 135.697 231.743C136.317 231.487 136.982 231.356 137.653 231.357H147.44C148.79 231.367 150.081 231.909 151.034 232.866C151.987 233.822 152.524 235.116 152.529 236.466Z" fill="#8C9AA8"/>
<path d="M149.73 231.915V284.361C149.759 284.98 149.662 285.598 149.445 286.178C149.227 286.758 148.895 287.288 148.467 287.735C148.04 288.183 147.526 288.54 146.956 288.784C146.387 289.027 145.774 289.153 145.155 289.153C144.536 289.153 143.923 289.027 143.353 288.784C142.784 288.54 142.27 288.183 141.842 287.735C141.415 287.288 141.082 286.758 140.865 286.178C140.648 285.598 140.551 284.98 140.58 284.361V231.357H147.43C148.23 231.36 149.018 231.551 149.73 231.915Z" fill="#9CAAB8"/>
<path d="M154.123 240.85C154.123 241.109 154.02 241.358 153.837 241.542C153.653 241.725 153.404 241.828 153.145 241.828H132.065C131.805 241.828 131.556 241.725 131.373 241.542C131.189 241.358 131.086 241.109 131.086 240.85C131.086 240.59 131.189 240.341 131.373 240.158C131.556 239.974 131.805 239.871 132.065 239.871H153.145C153.404 239.871 153.653 239.974 153.837 240.158C154.02 240.341 154.123 240.59 154.123 240.85Z" fill="#9CAAB8"/>
<path d="M154.123 252.897C154.123 253.157 154.02 253.406 153.837 253.589C153.653 253.773 153.404 253.876 153.145 253.876H132.065C131.805 253.876 131.556 253.773 131.373 253.589C131.189 253.406 131.086 253.157 131.086 252.897C131.086 252.638 131.189 252.389 131.373 252.205C131.556 252.022 131.805 251.919 132.065 251.919H153.145C153.404 251.919 153.653 252.022 153.837 252.205C154.02 252.389 154.123 252.638 154.123 252.897Z" fill="#9CAAB8"/>
<path d="M154.123 264.954C154.123 265.214 154.02 265.463 153.837 265.647C153.653 265.83 153.404 265.933 153.145 265.933H132.065C131.805 265.933 131.556 265.83 131.373 265.647C131.189 265.463 131.086 265.214 131.086 264.954C131.086 264.695 131.189 264.446 131.373 264.262C131.556 264.079 131.805 263.976 132.065 263.976H153.145C153.404 263.976 153.653 264.079 153.837 264.262C154.02 264.446 154.123 264.695 154.123 264.954Z" fill="#9CAAB8"/>
<path d="M154.123 277.002C154.123 277.262 154.02 277.511 153.837 277.694C153.653 277.878 153.404 277.981 153.145 277.981H132.065C131.805 277.981 131.556 277.878 131.373 277.694C131.189 277.511 131.086 277.262 131.086 277.002C131.086 276.743 131.189 276.494 131.373 276.31C131.556 276.127 131.805 276.023 132.065 276.023H153.145C153.404 276.023 153.653 276.127 153.837 276.31C154.02 276.494 154.123 276.743 154.123 277.002Z" fill="#9CAAB8"/>
<path d="M183.278 236.466V288.07C183.278 289.425 182.74 290.724 181.781 291.682C180.823 292.64 179.524 293.179 178.169 293.179H168.324C166.969 293.179 165.67 292.64 164.712 291.682C163.754 290.724 163.215 289.425 163.215 288.07V236.466C163.214 235.794 163.345 235.129 163.602 234.509C163.858 233.889 164.234 233.325 164.709 232.85C165.183 232.376 165.747 231.999 166.367 231.743C166.988 231.487 167.653 231.356 168.324 231.357H178.169C179.522 231.362 180.819 231.902 181.776 232.859C182.733 233.816 183.273 235.112 183.278 236.466Z" fill="#8C9AA8"/>
<path d="M180.479 231.915V284.361C180.479 285.576 179.997 286.741 179.138 287.6C178.279 288.458 177.114 288.941 175.899 288.941C174.684 288.941 173.52 288.458 172.661 287.6C171.802 286.741 171.319 285.576 171.319 284.361V231.357H178.17C178.973 231.358 179.764 231.549 180.479 231.915Z" fill="#9CAAB8"/>
<path d="M184.873 240.85C184.873 241.109 184.77 241.358 184.586 241.542C184.403 241.725 184.154 241.828 183.894 241.828H162.814C162.555 241.828 162.306 241.725 162.122 241.542C161.939 241.358 161.835 241.109 161.835 240.85C161.835 240.59 161.939 240.341 162.122 240.158C162.306 239.974 162.555 239.871 162.814 239.871H183.894C184.154 239.871 184.403 239.974 184.586 240.158C184.77 240.341 184.873 240.59 184.873 240.85Z" fill="#9CAAB8"/>
<path d="M184.873 252.897C184.873 253.157 184.77 253.406 184.586 253.589C184.403 253.773 184.154 253.876 183.894 253.876H162.814C162.555 253.876 162.306 253.773 162.122 253.589C161.939 253.406 161.835 253.157 161.835 252.897C161.835 252.638 161.939 252.389 162.122 252.205C162.306 252.022 162.555 251.919 162.814 251.919H183.894C184.154 251.919 184.403 252.022 184.586 252.205C184.77 252.389 184.873 252.638 184.873 252.897Z" fill="#9CAAB8"/>
<path d="M184.873 264.954C184.873 265.214 184.77 265.463 184.586 265.647C184.403 265.83 184.154 265.933 183.894 265.933H162.814C162.555 265.933 162.306 265.83 162.122 265.647C161.939 265.463 161.835 265.214 161.835 264.954C161.835 264.695 161.939 264.446 162.122 264.262C162.306 264.079 162.555 263.976 162.814 263.976H183.894C184.154 263.976 184.403 264.079 184.586 264.262C184.77 264.446 184.873 264.695 184.873 264.954Z" fill="#9CAAB8"/>
<path d="M184.873 277.002C184.873 277.262 184.77 277.511 184.586 277.694C184.403 277.878 184.154 277.981 183.894 277.981H162.814C162.555 277.981 162.306 277.878 162.122 277.694C161.939 277.511 161.835 277.262 161.835 277.002C161.835 276.743 161.939 276.494 162.122 276.31C162.306 276.127 162.555 276.023 162.814 276.023H183.894C184.154 276.023 184.403 276.127 184.586 276.31C184.77 276.494 184.873 276.743 184.873 277.002Z" fill="#9CAAB8"/>
<path d="M194.249 292.592C194.116 292.592 193.985 292.565 193.863 292.513C193.741 292.461 193.631 292.384 193.539 292.288C193.448 292.192 193.377 292.078 193.33 291.954C193.284 291.829 193.264 291.697 193.271 291.564V262.958C193.271 261.873 192.84 260.832 192.072 260.065C191.305 259.298 190.265 258.867 189.18 258.867H183.308C183.037 258.867 182.776 258.759 182.585 258.568C182.393 258.376 182.285 258.116 182.285 257.844C182.285 257.573 182.393 257.313 182.585 257.121C182.776 256.93 183.037 256.822 183.308 256.822H189.18C190.805 256.824 192.364 257.472 193.512 258.622C194.661 259.773 195.306 261.332 195.306 262.958V291.564C195.314 291.703 195.291 291.843 195.24 291.973C195.189 292.103 195.111 292.221 195.011 292.318C194.911 292.415 194.791 292.49 194.66 292.537C194.528 292.584 194.388 292.603 194.249 292.592Z" fill="#C5D3E1"/>
<path d="M198.299 291.662H105.689C104.819 291.662 104.114 292.367 104.114 293.237V298.904C104.114 299.774 104.819 300.479 105.689 300.479H198.299C199.17 300.479 199.875 299.774 199.875 298.904V293.237C199.875 292.367 199.17 291.662 198.299 291.662Z" fill="#4D5A68"/>
<path d="M148.672 257.213C148.672 257.683 148.486 258.133 148.153 258.465C147.821 258.797 147.371 258.984 146.901 258.984C146.668 258.984 146.438 258.938 146.223 258.849C146.008 258.76 145.813 258.63 145.648 258.465C145.484 258.301 145.353 258.106 145.264 257.891C145.175 257.676 145.129 257.445 145.129 257.213V238.618C145.129 238.386 145.175 238.155 145.264 237.94C145.353 237.726 145.484 237.53 145.648 237.366C145.813 237.201 146.008 237.071 146.223 236.982C146.438 236.893 146.668 236.847 146.901 236.847C147.371 236.847 147.821 237.034 148.153 237.366C148.486 237.698 148.672 238.148 148.672 238.618V257.213Z" fill="white"/>
<path d="M178.698 257.213C178.695 257.683 178.507 258.134 178.173 258.466C177.839 258.798 177.388 258.984 176.917 258.984C176.447 258.984 175.997 258.797 175.664 258.465C175.332 258.133 175.146 257.683 175.146 257.213V238.618C175.146 238.148 175.332 237.698 175.664 237.366C175.997 237.034 176.447 236.847 176.917 236.847C177.388 236.847 177.839 237.033 178.173 237.365C178.507 237.697 178.695 238.148 178.698 238.618V257.213Z" fill="white"/>
<path d="M223.216 244.549C223.226 245.329 223.052 246.1 222.707 246.8C222.534 247.223 222.246 247.59 221.876 247.859C221.506 248.129 221.069 248.29 220.613 248.327H189.57C189.114 248.29 188.677 248.129 188.307 247.859C187.938 247.59 187.65 247.223 187.476 246.8C187.131 246.091 186.952 245.313 186.952 244.525C186.952 243.736 187.131 242.958 187.476 242.249C187.542 242.12 187.617 241.996 187.701 241.877C187.722 241.841 187.748 241.808 187.779 241.779C187.974 241.488 188.235 241.247 188.542 241.077C188.848 240.907 189.191 240.812 189.541 240.801H220.584C220.935 240.812 221.279 240.907 221.587 241.077C221.895 241.247 222.159 241.488 222.355 241.779C222.466 241.929 222.568 242.086 222.659 242.249C223.027 242.96 223.218 243.749 223.216 244.549Z" fill="#ACBAC8"/>
<path d="M205.542 205.256H204.211C202.47 205.256 201.059 206.667 201.059 208.408V228.627C201.059 230.367 202.47 231.778 204.211 231.778H205.542C207.282 231.778 208.693 230.367 208.693 228.627V208.408C208.693 206.667 207.282 205.256 205.542 205.256Z" fill="#ACBAC8"/>
<path d="M223.216 244.549C223.226 245.329 223.052 246.101 222.708 246.8H187.476C187.131 246.091 186.952 245.313 186.952 244.525C186.952 243.737 187.131 242.959 187.476 242.25L187.779 241.78L201.06 221.003L202.87 218.067C203.162 217.774 203.509 217.541 203.891 217.382C204.273 217.224 204.683 217.142 205.097 217.142C205.51 217.142 205.92 217.224 206.302 217.382C206.684 217.541 207.031 217.774 207.323 218.067L208.693 220.22L222.394 241.751L222.698 242.22C223.057 242.943 223.235 243.743 223.216 244.549Z" fill="#ACBAC8"/>
<path d="M206.834 227.364C206.834 229.008 206.1 230.3 205.2 230.3H204.505C203.595 230.3 202.87 228.959 202.87 227.364V208.28C202.87 206.636 203.595 205.344 204.505 205.344H205.18C206.08 205.344 206.814 206.675 206.814 208.28L206.834 227.364Z" fill="#E8F1FA"/>
<path d="M218.46 244.559H191.156C190.694 243.955 190.444 243.216 190.444 242.455C190.444 241.695 190.694 240.955 191.156 240.351L197.625 229.967L202.42 222.256L203.086 221.189C203.283 220.918 203.541 220.697 203.839 220.545C204.138 220.393 204.468 220.314 204.803 220.314C205.138 220.314 205.468 220.393 205.767 220.545C206.065 220.697 206.324 220.918 206.521 221.189L206.834 221.688L212.03 229.967L218.499 240.351C218.956 240.959 219.199 241.701 219.192 242.462C219.185 243.222 218.928 243.959 218.46 244.559Z" fill="#E8F1FA"/>
<path d="M218.46 244.559H191.156C190.694 243.955 190.444 243.216 190.444 242.455C190.444 241.695 190.694 240.955 191.156 240.351L197.625 229.968H212.03L218.499 240.351C218.956 240.96 219.199 241.701 219.192 242.462C219.185 243.222 218.928 243.959 218.46 244.559Z" fill="#514260"/>
<path d="M209.417 206.382C209.417 206.68 209.298 206.967 209.087 207.178C208.876 207.389 208.59 207.507 208.292 207.507H201.323C201.175 207.509 201.028 207.48 200.891 207.424C200.754 207.368 200.63 207.285 200.525 207.181C200.42 207.076 200.337 206.951 200.281 206.814C200.225 206.677 200.197 206.53 200.198 206.382C200.197 206.234 200.225 206.087 200.281 205.95C200.337 205.812 200.42 205.688 200.525 205.583C200.63 205.478 200.754 205.395 200.891 205.339C201.028 205.283 201.175 205.255 201.323 205.256H208.292C208.59 205.256 208.876 205.375 209.087 205.586C209.298 205.797 209.417 206.083 209.417 206.382Z" fill="#9CAAB8"/>
<path d="M207.245 223.665C207.245 223.925 207.142 224.174 206.959 224.357C206.775 224.541 206.526 224.644 206.267 224.644C206.007 224.644 205.758 224.541 205.575 224.357C205.391 224.174 205.288 223.925 205.288 223.665V211.217C205.288 210.957 205.391 210.708 205.575 210.525C205.758 210.341 206.007 210.238 206.267 210.238C206.526 210.238 206.775 210.341 206.959 210.525C207.142 210.708 207.245 210.957 207.245 211.217V223.665Z" fill="white"/>
<path d="M209.819 234.264H210.074C210.91 234.264 211.711 234.596 212.302 235.187C212.893 235.778 213.225 236.579 213.225 237.415V237.64C213.224 238.053 213.141 238.461 212.982 238.841C212.823 239.222 212.591 239.568 212.298 239.859C212.005 240.149 211.658 240.38 211.277 240.536C210.895 240.693 210.486 240.773 210.074 240.772H209.858C209.443 240.777 209.031 240.7 208.645 240.545C208.259 240.39 207.908 240.161 207.612 239.87C207.315 239.579 207.079 239.232 206.917 238.849C206.755 238.466 206.671 238.056 206.668 237.64V237.435C206.665 237.019 206.745 236.607 206.902 236.223C207.059 235.838 207.291 235.488 207.584 235.194C207.877 234.899 208.225 234.665 208.609 234.505C208.992 234.346 209.404 234.264 209.819 234.264Z" fill="white"/>
<path d="M208.292 206.939C208.292 207.09 208.233 207.234 208.126 207.341C208.02 207.447 207.875 207.507 207.725 207.507H204.662C204.587 207.507 204.513 207.492 204.444 207.464C204.376 207.435 204.313 207.394 204.26 207.341C204.208 207.288 204.166 207.226 204.137 207.157C204.109 207.088 204.094 207.014 204.094 206.939C204.097 206.791 204.157 206.649 204.264 206.544C204.37 206.44 204.513 206.382 204.662 206.382H207.725C207.874 206.382 208.017 206.44 208.123 206.544C208.229 206.649 208.29 206.791 208.292 206.939Z" fill="white"/>
<path d="M145.561 186.75H137.252C137.068 186.751 136.892 186.825 136.762 186.955L133.308 190.488C133.308 190.488 133.308 190.488 133.239 190.547L131.419 192.26L130.891 191.731L126.81 195.812L127.221 196.223L124.931 198.406C124.749 198.584 124.643 198.826 124.637 199.081V214.25C124.652 214.499 124.762 214.733 124.944 214.904C125.125 215.075 125.366 215.17 125.616 215.17H145.384C145.634 215.17 145.875 215.075 146.057 214.904C146.238 214.733 146.348 214.499 146.363 214.25V187.435C146.365 187.334 146.344 187.234 146.302 187.143C146.261 187.051 146.2 186.969 146.123 186.904C146.046 186.838 145.956 186.791 145.859 186.764C145.762 186.737 145.66 186.733 145.561 186.75ZM137.536 188.11H144.876V190.293H135.412L137.536 188.11ZM144.063 198.875C144.064 199.01 144.035 199.144 143.977 199.266C143.919 199.388 143.835 199.495 143.731 199.58V212.107C143.731 212.366 143.627 212.615 143.444 212.799C143.26 212.982 143.011 213.086 142.752 213.086H128.072C127.812 213.086 127.564 212.982 127.38 212.799C127.196 212.615 127.093 212.366 127.093 212.107V200.813C127.093 200.68 127.119 200.547 127.171 200.425C127.223 200.302 127.3 200.191 127.397 200.099L129.276 198.327L133.474 194.354L133.572 194.276C133.66 194.189 133.764 194.122 133.878 194.076C133.992 194.031 134.115 194.009 134.238 194.012H141.979V193.199C141.979 192.955 142.076 192.721 142.248 192.549C142.421 192.376 142.655 192.279 142.899 192.279H143.104C143.348 192.279 143.582 192.376 143.755 192.549C143.927 192.721 144.024 192.955 144.024 193.199L144.063 198.875Z" fill="#514260"/>
<path d="M142.938 199.757C142.697 199.743 142.469 199.64 142.299 199.468C142.13 199.297 142.029 199.068 142.018 198.827V194.58H134.276C134.224 194.579 134.171 194.589 134.123 194.61C134.074 194.63 134.03 194.66 133.993 194.697L133.914 194.766L129.716 198.729L127.866 200.511C127.785 200.591 127.74 200.7 127.739 200.814V212.059C127.739 212.112 127.75 212.165 127.77 212.214C127.791 212.264 127.822 212.308 127.86 212.346C127.898 212.383 127.944 212.413 127.993 212.432C128.043 212.452 128.097 212.461 128.15 212.46H142.83C142.883 212.46 142.935 212.45 142.983 212.429C143.032 212.409 143.076 212.38 143.114 212.342C143.151 212.305 143.18 212.261 143.201 212.212C143.221 212.164 143.231 212.111 143.231 212.059V199.747H142.938V199.757ZM135.431 210.6C133.804 210.59 132.239 209.977 131.037 208.881C129.835 207.785 129.081 206.283 128.921 204.664C128.76 203.045 129.205 201.424 130.168 200.113C131.132 198.802 132.546 197.895 134.139 197.565C134.564 197.478 134.997 197.435 135.431 197.438C136.317 197.403 137.2 197.548 138.029 197.864C138.857 198.179 139.613 198.658 140.252 199.273C140.89 199.887 141.398 200.624 141.746 201.44C142.093 202.256 142.271 203.133 142.271 204.019C142.271 204.905 142.093 205.782 141.746 206.598C141.398 207.414 140.89 208.151 140.252 208.765C139.613 209.38 138.857 209.859 138.029 210.174C137.2 210.49 136.317 210.635 135.431 210.6Z" fill="#514260"/>
<path d="M130.705 189.813L129.374 188.482C129.288 188.395 129.186 188.326 129.074 188.279C128.961 188.232 128.84 188.208 128.718 188.208C128.525 188.213 128.338 188.274 128.18 188.384L130.803 190.997C130.929 190.82 130.989 190.604 130.971 190.387C130.953 190.171 130.859 189.967 130.705 189.813Z" fill="#514260"/>
<path d="M125.557 195.881C125.751 195.881 125.94 195.819 126.096 195.705L123.483 193.082C123.354 193.26 123.293 193.478 123.311 193.697C123.329 193.916 123.424 194.121 123.581 194.276L124.931 195.607C125.097 195.775 125.321 195.873 125.557 195.881Z" fill="#514260"/>
<path d="M127.621 190.675L129.382 192.437L130.488 191.331L130.703 191.115L130.488 191.331L130.371 191.448L128.609 189.687L127.738 188.806L128.061 188.483L126.73 189.804L126.75 189.794L127.621 190.675Z" fill="#514260"/>
<path d="M127.964 193.855L128.952 192.866L127.191 191.105L126.31 190.234L125.321 191.213L126.202 192.093L127.964 193.855Z" fill="#514260"/>
<path d="M126.545 195.274L127.749 194.07L127.533 194.295L125.762 192.524L124.891 191.653L123.903 192.641L124.783 193.512L126.545 195.274Z" fill="#514260"/>
<path d="M133.063 205.345C133.063 207.195 134.12 208.692 135.431 208.692C136.742 208.692 137.799 207.195 137.799 205.345C137.799 203.495 135.431 199.365 135.431 199.365C135.431 199.365 133.063 203.476 133.063 205.345ZM136.977 205.404C136.977 206.03 136.625 206.529 136.185 206.529C135.744 206.529 135.382 206.03 135.382 205.404C135.551 204.689 135.839 204.007 136.234 203.388C136.606 204.008 136.874 204.686 137.026 205.394L136.977 205.404Z" fill="#514260"/>
<path d="M120.897 229.213C120.83 229.091 120.755 228.973 120.672 228.861L110.592 213.017V204.267C110.588 204.038 110.549 203.81 110.475 203.592C110.681 203.549 110.862 203.429 110.983 203.257C111.105 203.085 111.156 202.874 111.128 202.665C111.099 202.457 110.993 202.267 110.83 202.134C110.667 202.001 110.46 201.934 110.25 201.948H105.161C105.051 201.948 104.943 201.97 104.842 202.011C104.741 202.053 104.65 202.114 104.572 202.192C104.495 202.269 104.434 202.361 104.392 202.462C104.35 202.562 104.329 202.671 104.329 202.78C104.328 202.985 104.404 203.183 104.541 203.335C104.679 203.487 104.868 203.582 105.073 203.602C105.002 203.817 104.966 204.041 104.965 204.267V213.516L95.1979 228.832L95.1392 228.91C95.0759 228.996 95.0202 229.088 94.9728 229.184C94.7083 229.709 94.574 230.289 94.5813 230.877C94.5759 231.453 94.7031 232.022 94.9532 232.541C95.0779 232.87 95.2945 233.157 95.5773 233.367C95.86 233.577 96.1971 233.701 96.5484 233.725H119.371C119.706 233.699 120.028 233.581 120.301 233.384C120.573 233.188 120.787 232.919 120.917 232.609C121.167 232.091 121.294 231.521 121.289 230.946C121.303 230.345 121.168 229.75 120.897 229.213ZM107.617 202.408H109.878C109.987 202.408 110.091 202.451 110.168 202.528C110.245 202.605 110.289 202.71 110.289 202.819C110.29 202.901 110.262 202.98 110.21 203.044C110.177 203.103 110.128 203.152 110.07 203.186C110.012 203.22 109.945 203.239 109.878 203.24H107.617C107.518 203.225 107.427 203.174 107.362 203.098C107.296 203.022 107.26 202.924 107.26 202.824C107.26 202.723 107.296 202.626 107.362 202.55C107.427 202.474 107.518 202.423 107.617 202.408ZM97.6641 227.853L102.42 220.161L104.965 216.109L105.944 214.494L106.335 213.956V204.17C106.325 203.994 106.325 203.817 106.335 203.641H109.183C109.193 203.817 109.193 203.994 109.183 204.17V214.064L110.553 216.256L112.98 220.171L117.785 227.853C117.863 227.948 117.931 228.049 117.991 228.156C118.231 228.593 118.34 229.09 118.303 229.586C118.267 230.083 118.087 230.559 117.785 230.955H97.6641C97.3627 230.559 97.1828 230.083 97.1463 229.586C97.1098 229.09 97.2183 228.593 97.4586 228.156C97.518 228.049 97.5867 227.948 97.6641 227.853Z" fill="#514260"/>
<path d="M117.512 230.378C117.704 230.032 117.794 229.638 117.77 229.242C117.745 228.847 117.608 228.467 117.375 228.147L112.765 220.748H102.734L98.1247 228.147C97.8874 228.465 97.7473 228.845 97.7212 229.241C97.6952 229.637 97.7843 230.032 97.9779 230.378H117.512ZM111.415 223.332H111.571C112.187 223.332 112.776 223.576 113.211 224.011C113.646 224.446 113.891 225.036 113.891 225.651V225.798C113.891 226.413 113.646 227.003 113.211 227.438C112.776 227.873 112.187 228.117 111.571 228.117H111.415C110.8 228.117 110.21 227.873 109.775 227.438C109.34 227.003 109.095 226.413 109.095 225.798V225.651C109.095 225.036 109.34 224.446 109.775 224.011C110.21 223.576 110.8 223.332 111.415 223.332Z" fill="#514260"/>
<path d="M108.098 217.088C108.192 217.088 108.285 217.069 108.371 217.033C108.458 216.998 108.537 216.945 108.603 216.879C108.669 216.812 108.722 216.733 108.758 216.647C108.794 216.56 108.812 216.467 108.812 216.373V207.223C108.812 207.033 108.737 206.852 108.603 206.718C108.469 206.584 108.287 206.509 108.098 206.509C107.908 206.509 107.727 206.584 107.593 206.718C107.459 206.852 107.384 207.033 107.384 207.223V216.403C107.391 216.587 107.47 216.761 107.603 216.889C107.736 217.017 107.913 217.088 108.098 217.088Z" fill="#514260"/>
<path d="M236.418 300.479H233.306V278.097C233.306 277.687 233.143 277.294 232.853 277.004C232.563 276.714 232.17 276.551 231.759 276.551H219.702V273.439H231.759C232.994 273.442 234.177 273.933 235.051 274.806C235.924 275.679 236.415 276.863 236.418 278.097V300.479Z" fill="#F8BE49"/>
<path d="M220.838 279.839C220.844 283.592 219.629 287.244 217.376 290.246C215.123 293.247 211.956 295.434 208.351 296.477C207.551 296.717 206.732 296.894 205.904 297.005C204.332 297.214 202.739 297.214 201.167 297.005C200.339 296.895 199.521 296.718 198.721 296.477C195.115 295.435 191.947 293.249 189.694 290.247C187.441 287.246 186.226 283.592 186.233 279.839C186.236 276.069 187.471 272.403 189.75 269.4C192.029 266.396 195.228 264.22 198.858 263.202C199.751 262.947 200.665 262.767 201.588 262.664C202.889 262.519 204.202 262.519 205.503 262.664C206.426 262.767 207.34 262.947 208.233 263.202C211.859 264.225 215.052 266.403 217.327 269.406C219.602 272.409 220.835 276.072 220.838 279.839Z" fill="#F8BE49"/>
<path d="M189.649 282.971H187.31C187.023 282.971 186.791 283.203 186.791 283.49V299.97C186.791 300.257 187.023 300.489 187.31 300.489H189.649C189.935 300.489 190.167 300.257 190.167 299.97V283.49C190.167 283.203 189.935 282.971 189.649 282.971Z" fill="#7C8A98"/>
<path d="M214.76 272.558C214.76 273.102 214.598 273.635 214.295 274.088C213.992 274.54 213.561 274.893 213.058 275.1C212.554 275.308 212 275.361 211.466 275.253C210.932 275.146 210.442 274.882 210.058 274.495C209.674 274.109 209.414 273.617 209.31 273.082C209.206 272.547 209.264 271.994 209.475 271.492C209.686 270.99 210.041 270.561 210.496 270.262C210.951 269.962 211.485 269.804 212.029 269.808C212.389 269.809 212.745 269.881 213.077 270.02C213.409 270.159 213.711 270.362 213.964 270.617C214.218 270.873 214.418 271.175 214.555 271.508C214.691 271.841 214.761 272.198 214.76 272.558Z" fill="white"/>
<path d="M213.282 264.005C213.282 264.215 213.198 264.417 213.05 264.565C212.901 264.714 212.699 264.798 212.489 264.798H195.137C194.927 264.798 194.726 264.714 194.577 264.565C194.428 264.417 194.345 264.215 194.345 264.005C194.345 263.795 194.428 263.593 194.577 263.444C194.726 263.296 194.927 263.212 195.137 263.212H212.489C212.699 263.212 212.901 263.296 213.05 263.444C213.198 263.593 213.282 263.795 213.282 264.005Z" fill="#BCCAD8"/>
<path d="M188.474 282.971V300.479H187.31C187.242 300.48 187.175 300.468 187.112 300.443C187.049 300.418 186.992 300.381 186.944 300.334C186.895 300.286 186.857 300.23 186.831 300.167C186.804 300.105 186.791 300.038 186.791 299.97V283.49C186.791 283.352 186.846 283.22 186.943 283.123C187.04 283.026 187.172 282.971 187.31 282.971H188.474Z" fill="#BCCAD8"/>
<path d="M204.328 282.971H201.989C201.702 282.971 201.47 283.203 201.47 283.49V299.97C201.47 300.257 201.702 300.489 201.989 300.489H204.328C204.614 300.489 204.847 300.257 204.847 299.97V283.49C204.847 283.203 204.614 282.971 204.328 282.971Z" fill="#7C8A98"/>
<path d="M203.154 282.971V300.479H201.979C201.844 300.479 201.715 300.425 201.619 300.33C201.524 300.235 201.47 300.105 201.47 299.97V283.49C201.469 283.422 201.481 283.355 201.506 283.292C201.531 283.229 201.568 283.172 201.616 283.123C201.663 283.075 201.72 283.037 201.782 283.011C201.845 282.984 201.912 282.971 201.979 282.971H203.154Z" fill="#BCCAD8"/>
<path d="M219.45 282.971H217.111C216.825 282.971 216.592 283.203 216.592 283.49V299.97C216.592 300.257 216.825 300.489 217.111 300.489H219.45C219.736 300.489 219.969 300.257 219.969 299.97V283.49C219.969 283.203 219.736 282.971 219.45 282.971Z" fill="#7C8A98"/>
<path d="M218.285 282.971V300.479H217.111C217.043 300.48 216.976 300.468 216.913 300.443C216.85 300.418 216.793 300.381 216.745 300.334C216.696 300.286 216.658 300.23 216.632 300.167C216.606 300.105 216.592 300.038 216.592 299.97V283.49C216.592 283.352 216.647 283.22 216.744 283.123C216.841 283.026 216.973 282.971 217.111 282.971H218.285Z" fill="#BCCAD8"/>
<path d="M221.601 283.177C221.601 283.452 221.492 283.716 221.297 283.911C221.103 284.105 220.839 284.214 220.564 284.214H185.743C185.468 284.214 185.204 284.105 185.01 283.911C184.815 283.716 184.706 283.452 184.706 283.177C184.708 282.903 184.818 282.64 185.012 282.446C185.206 282.252 185.469 282.142 185.743 282.14H220.564C220.838 282.142 221.1 282.252 221.294 282.446C221.488 282.64 221.599 282.903 221.601 283.177Z" fill="#BCCAD8"/>
<path d="M235.44 284.459C235.44 284.718 235.337 284.967 235.154 285.151C234.97 285.334 234.721 285.437 234.462 285.437C234.202 285.437 233.953 285.334 233.77 285.151C233.586 284.967 233.483 284.718 233.483 284.459V280.26C233.483 280.001 233.586 279.752 233.77 279.568C233.953 279.385 234.202 279.282 234.462 279.282C234.721 279.282 234.97 279.385 235.154 279.568C235.337 279.752 235.44 280.001 235.44 280.26V284.459Z" fill="#E47E30"/>
<path d="M238.591 285.643C238.81 285.773 238.97 285.985 239.036 286.232C239.102 286.479 239.069 286.741 238.943 286.964C238.813 287.184 238.601 287.343 238.354 287.409C238.107 287.475 237.845 287.442 237.622 287.316L233.981 285.212C233.762 285.082 233.602 284.87 233.536 284.623C233.47 284.377 233.504 284.114 233.629 283.891C233.76 283.671 233.971 283.512 234.218 283.446C234.465 283.38 234.728 283.413 234.95 283.539L238.591 285.643Z" fill="#E47E30"/>
<path d="M233.981 283.49C234.204 283.365 234.467 283.331 234.713 283.397C234.96 283.463 235.172 283.623 235.302 283.842C235.428 284.065 235.461 284.328 235.395 284.575C235.329 284.821 235.17 285.033 234.95 285.163L231.309 287.268C231.086 287.392 230.822 287.424 230.575 287.356C230.328 287.288 230.117 287.127 229.988 286.905C229.864 286.682 229.832 286.418 229.9 286.171C229.967 285.924 230.129 285.713 230.35 285.584L233.981 283.49Z" fill="#E47E30"/>
<path d="M236.349 284.116C236.349 284.505 236.233 284.886 236.016 285.208C235.799 285.531 235.49 285.782 235.129 285.929C234.769 286.075 234.373 286.111 233.992 286.031C233.611 285.952 233.262 285.761 232.991 285.482C232.719 285.203 232.537 284.85 232.467 284.467C232.397 284.084 232.443 283.689 232.598 283.333C232.754 282.976 233.012 282.674 233.341 282.465C233.669 282.256 234.052 282.149 234.441 282.159C234.696 282.159 234.948 282.21 235.183 282.309C235.418 282.408 235.63 282.553 235.808 282.735C235.986 282.917 236.126 283.134 236.218 283.371C236.311 283.608 236.356 283.861 236.349 284.116Z" fill="#6C7A88"/>
<path d="M234.441 289.92C233.313 289.92 232.21 289.585 231.271 288.958C230.333 288.331 229.602 287.44 229.17 286.398C228.738 285.355 228.625 284.208 228.845 283.101C229.065 281.994 229.609 280.978 230.407 280.18C231.205 279.382 232.221 278.839 233.328 278.618C234.435 278.398 235.582 278.511 236.625 278.943C237.667 279.375 238.558 280.106 239.185 281.045C239.812 281.983 240.147 283.086 240.147 284.214C240.144 285.727 239.542 287.176 238.473 288.246C237.403 289.315 235.954 289.917 234.441 289.92ZM234.441 280.075C233.622 280.073 232.821 280.314 232.139 280.768C231.457 281.221 230.924 281.867 230.61 282.623C230.295 283.38 230.211 284.212 230.37 285.016C230.529 285.82 230.922 286.558 231.501 287.138C232.079 287.718 232.817 288.113 233.62 288.274C234.423 288.434 235.256 288.353 236.013 288.04C236.77 287.727 237.417 287.196 237.873 286.515C238.328 285.834 238.571 285.034 238.571 284.214C238.571 283.118 238.136 282.067 237.362 281.291C236.588 280.515 235.537 280.077 234.441 280.075Z" fill="#EF893A"/>
<path d="M197.135 264.798H196.519V282.355H197.135V264.798Z" fill="#EF893A"/>
<path d="M200.092 264.798H199.476V282.355H200.092V264.798Z" fill="#EF893A"/>
<path d="M199.779 266.912H196.823V267.528H199.779V266.912Z" fill="#EF893A"/>
<path d="M199.779 268.771H196.823V269.388H199.779V268.771Z" fill="#EF893A"/>
<path d="M199.779 270.64H196.823V271.256H199.779V270.64Z" fill="#EF893A"/>
<path d="M199.779 272.509H196.823V273.136H199.779V272.509Z" fill="#EF893A"/>
<path d="M199.779 274.369H196.823V274.986H199.779V274.369Z" fill="#EF893A"/>
<path d="M199.779 276.238H196.823V276.854H199.779V276.238Z" fill="#EF893A"/>
<path d="M199.779 278.098H196.823V278.724H199.779V278.098Z" fill="#EF893A"/>
<path d="M199.779 279.967H196.823V280.593H199.779V279.967Z" fill="#EF893A"/>
<path d="M92.2144 283.774C91.8071 283.772 91.4167 283.611 91.128 283.323L81.7036 273.899C81.4235 273.609 81.2684 273.221 81.2718 272.818C81.2752 272.415 81.4368 272.029 81.7218 271.744C82.0067 271.459 82.3923 271.298 82.7953 271.294C83.1983 271.291 83.5865 271.446 83.8762 271.726L93.3007 281.151C93.5863 281.44 93.7465 281.83 93.7465 282.237C93.7465 282.644 93.5863 283.034 93.3007 283.323C93.0108 283.609 92.6212 283.77 92.2144 283.774Z" fill="#ACBAC8"/>
<path d="M92.2624 283.774C91.8524 283.772 91.4592 283.61 91.1663 283.323C90.8806 283.034 90.7205 282.644 90.7205 282.237C90.7205 281.83 90.8806 281.44 91.1663 281.151L100.591 271.726C100.881 271.446 101.269 271.291 101.672 271.294C102.075 271.298 102.46 271.459 102.745 271.744C103.03 272.029 103.192 272.415 103.195 272.818C103.199 273.221 103.044 273.609 102.763 273.899L93.3487 283.323C93.0589 283.609 92.6693 283.77 92.2624 283.774Z" fill="#ACBAC8"/>
<path d="M92.0472 287.669C91.6397 287.669 91.2489 287.507 90.9608 287.219C90.6726 286.93 90.5107 286.54 90.5107 286.132V272.813C90.5107 272.405 90.6726 272.014 90.9608 271.726C91.2489 271.438 91.6397 271.276 92.0472 271.276C92.4547 271.276 92.8455 271.438 93.1337 271.726C93.4218 272.014 93.5837 272.405 93.5837 272.813V286.132C93.5837 286.54 93.4218 286.93 93.1337 287.219C92.8455 287.507 92.4547 287.669 92.0472 287.669Z" fill="#9CAAB8"/>
<path d="M104.154 270.151H79.9418C79.2608 270.151 78.7087 270.703 78.7087 271.384V274.242C78.7087 274.923 79.2608 275.475 79.9418 275.475H104.154C104.835 275.475 105.387 274.923 105.387 274.242V271.384C105.387 270.703 104.835 270.151 104.154 270.151Z" fill="#D6741D"/>
<path d="M98.0076 270.151H86.0876C85.4066 270.151 84.8545 270.703 84.8545 271.384V274.242C84.8545 274.923 85.4066 275.475 86.0876 275.475H98.0076C98.6886 275.475 99.2407 274.923 99.2407 274.242V271.384C99.2407 270.703 98.6886 270.151 98.0076 270.151Z" fill="#F19B2C"/>
<path d="M116.181 292.278V300.479H111.229V292.278C111.229 291.3 110.84 290.361 110.148 289.669C109.457 288.977 108.518 288.589 107.54 288.589H76.9762C75.9976 288.589 75.0592 288.977 74.3673 289.669C73.6754 290.361 73.2866 291.3 73.2866 292.278V300.479H68.3934V292.278C68.3895 291.147 68.6084 290.027 69.0377 288.98C69.4669 287.934 70.098 286.982 70.895 286.18C71.692 285.377 72.6393 284.74 73.6827 284.304C74.7261 283.867 75.8452 283.641 76.9762 283.637H107.579C108.711 283.638 109.833 283.863 110.878 284.298C111.924 284.733 112.873 285.37 113.673 286.173C114.472 286.976 115.104 287.928 115.535 288.976C115.965 290.023 116.185 291.146 116.181 292.278Z" fill="#ACBAC8"/>
<path d="M113.852 293.081V300.479H111.229V292.278C111.229 291.3 110.84 290.361 110.148 289.669C109.456 288.977 108.518 288.589 107.539 288.589H76.9759C75.9974 288.589 75.0589 288.977 74.367 289.669C73.6751 290.361 73.2864 291.3 73.2864 292.278V300.479H70.6636V293.081C70.6662 291.022 71.486 289.048 72.943 287.593C74.3999 286.137 76.3749 285.32 78.4341 285.32H106.081C108.14 285.32 110.115 286.137 111.572 287.593C113.029 289.048 113.849 291.022 113.852 293.081Z" fill="#BCCAD8"/>
<path d="M95.9907 282.257L95.012 290.83C95.012 290.998 94.945 291.16 94.8257 291.28C94.7064 291.399 94.5446 291.466 94.3759 291.466H90.1188C89.9501 291.466 89.7883 291.399 89.669 291.28C89.5497 291.16 89.4826 290.998 89.4826 290.83L88.504 282.257C88.5027 282.174 88.5179 282.091 88.5488 282.014C88.5797 281.937 88.6256 281.867 88.6839 281.807C88.7422 281.748 88.8117 281.701 88.8883 281.669C88.965 281.637 89.0472 281.621 89.1303 281.621H95.3252C95.4112 281.617 95.4971 281.63 95.5777 281.66C95.6583 281.69 95.7319 281.737 95.7941 281.796C95.8563 281.856 95.9058 281.927 95.9396 282.006C95.9734 282.085 95.9908 282.171 95.9907 282.257Z" fill="#6C7A88"/>
<path d="M92.0482 281.621V291.466H90.0909C89.9222 291.466 89.7604 291.399 89.6411 291.28C89.5218 291.16 89.4548 290.999 89.4548 290.83L88.4762 282.257C88.4749 282.174 88.4901 282.091 88.521 282.014C88.5519 281.937 88.5978 281.867 88.6561 281.808C88.7144 281.749 88.7839 281.702 88.8605 281.669C88.9372 281.637 89.0194 281.621 89.1025 281.621H92.0482Z" fill="#7C8A98"/>
<path d="M74.2456 296.692C74.2456 296.936 74.1486 297.17 73.9761 297.343C73.8036 297.515 73.5696 297.612 73.3256 297.612H68.1094C67.8654 297.612 67.6314 297.515 67.4589 297.343C67.2864 297.17 67.1895 296.936 67.1895 296.692V296.692C67.1895 296.448 67.2864 296.214 67.4589 296.042C67.6314 295.869 67.8654 295.772 68.1094 295.772H73.3256C73.5696 295.772 73.8036 295.869 73.9761 296.042C74.1486 296.214 74.2456 296.448 74.2456 296.692Z" fill="#7C8A98"/>
<path d="M117.355 296.692C117.355 296.936 117.258 297.17 117.086 297.343C116.913 297.515 116.679 297.612 116.435 297.612H111.229C110.985 297.612 110.751 297.515 110.578 297.343C110.406 297.17 110.309 296.936 110.309 296.692C110.309 296.448 110.406 296.214 110.578 296.042C110.751 295.869 110.985 295.772 111.229 295.772H116.445C116.689 295.772 116.923 295.869 117.095 296.042C117.268 296.214 117.365 296.448 117.365 296.692H117.355Z" fill="#7C8A98"/>
<path d="M81.516 282.658C81.76 282.658 81.994 282.755 82.1665 282.927C82.339 283.1 82.4359 283.334 82.4359 283.578V288.794C82.4359 289.038 82.339 289.272 82.1665 289.444C81.994 289.617 81.76 289.714 81.516 289.714C81.2663 289.714 81.0259 289.619 80.844 289.448C80.662 289.277 80.5523 289.043 80.5374 288.794V283.529C80.5523 283.28 80.662 283.045 80.844 282.874C81.0259 282.703 81.2663 282.608 81.516 282.609V282.658Z" fill="#7C8A98"/>
<path d="M102.558 282.658C102.802 282.658 103.036 282.755 103.208 282.927C103.381 283.1 103.478 283.334 103.478 283.578V288.794C103.478 289.038 103.381 289.272 103.208 289.444C103.036 289.617 102.802 289.714 102.558 289.714C102.314 289.714 102.08 289.617 101.907 289.444C101.735 289.272 101.638 289.038 101.638 288.794V283.529C101.638 283.285 101.735 283.051 101.907 282.878C102.08 282.706 102.314 282.609 102.558 282.609V282.658Z" fill="#7C8A98"/>
</g>
<path d="M126.473 271.329V289.577C126.473 290.634 126.053 291.648 125.306 292.396C124.558 293.144 123.544 293.564 122.487 293.564H110.208C109.685 293.564 109.167 293.461 108.684 293.26C108.201 293.06 107.762 292.766 107.393 292.395C107.023 292.025 106.731 291.585 106.532 291.102C106.333 290.618 106.231 290.1 106.232 289.577V271.329C106.232 270.807 106.335 270.29 106.535 269.808C106.735 269.326 107.028 268.888 107.397 268.519C107.766 268.149 108.204 267.857 108.686 267.657C109.169 267.457 109.686 267.354 110.208 267.354H122.522C123.571 267.364 124.574 267.786 125.314 268.53C126.054 269.274 126.47 270.28 126.473 271.329Z" fill="#FBD099"/>
<path d="M128.172 266.54V279.35C128.175 279.856 128.042 280.355 127.787 280.792C127.531 281.23 127.163 281.592 126.721 281.839L126.473 281.544C125.644 280.505 125.052 279.297 124.739 278.005C124.702 277.818 124.674 277.629 124.657 277.439C124.634 277.192 124.634 276.943 124.657 276.696C124.67 275.852 124.932 275.031 125.412 274.337L121.13 275.292L121.672 272.933C119.794 273.209 117.954 273.699 116.188 274.396C115.149 274.812 114.163 275.351 113.25 276C112.644 276.416 112.075 276.886 111.552 277.403L110.998 277.97C109.323 279.763 108.403 281.402 106.279 281.85L105.819 281.933C105.326 281.703 104.91 281.336 104.619 280.876C104.329 280.416 104.176 279.882 104.18 279.338V266.54C104.178 266.161 104.252 265.785 104.395 265.435C104.539 265.084 104.751 264.766 105.019 264.497C105.286 264.229 105.604 264.015 105.954 263.87C106.304 263.725 106.679 263.65 107.058 263.65H125.294C125.673 263.65 126.048 263.725 126.398 263.87C126.748 264.015 127.066 264.229 127.333 264.497C127.6 264.766 127.812 265.084 127.956 265.435C128.1 265.785 128.173 266.161 128.172 266.54Z" fill="#7D4C2E"/>
<path d="M141.218 309.724C141.223 309.681 141.223 309.637 141.218 309.594L134.978 297.197C134.673 296.588 134.162 296.107 133.536 295.839C132.909 295.571 132.208 295.534 131.557 295.735C131.279 295.644 130.988 295.6 130.696 295.605H100.7C100.535 295.593 100.37 295.593 100.205 295.605C99.5944 295.504 98.9676 295.6 98.4159 295.88C97.8641 296.16 97.4164 296.609 97.138 297.162L90.8982 309.559C90.7108 309.925 90.6061 310.328 90.5915 310.739C90.523 311.156 90.4875 311.578 90.4854 312.001V314.077C90.4885 314.8 90.7782 315.493 91.291 316.004C91.8039 316.515 92.4982 316.801 93.2219 316.801H97.8221H133.551H139.189C139.548 316.803 139.903 316.734 140.235 316.597C140.567 316.461 140.869 316.261 141.123 316.008C141.377 315.754 141.579 315.453 141.717 315.122C141.855 314.791 141.925 314.435 141.925 314.077V312.001C141.842 311.203 141.601 310.429 141.218 309.724Z" fill="#E9F4F5"/>
<path d="M124.246 295.604L121.887 303.306L120.577 307.6L117.782 316.718L117.735 316.871V316.895H114.055L114.043 316.871L113.854 316.234L111.2 307.812L109.785 303.306L107.366 295.604H124.246Z" fill="#F8BE49"/>
<path d="M114.053 316.895H112.756L112.732 316.871L105.702 309.086L104.676 307.954L104.522 307.788L103.131 306.243L102.647 303.306L101.491 296.146L101.408 295.604H107.365L109.783 303.306L111.199 307.812L113.853 316.234L114.041 316.871L114.053 316.895Z" fill="#D5E5E6"/>
<path d="M118.865 316.883L127.417 305.948L129.457 295.604H124.244L117.733 316.883H118.865Z" fill="#D5E5E6"/>
<path d="M117.78 316.718V316.871H114.053L113.864 316.234L114.289 307.741L114.513 303.306V301.926C114.515 301.719 114.572 301.515 114.678 301.336C114.781 301.158 114.929 301.01 115.107 300.906C115.285 300.803 115.486 300.748 115.692 300.747H115.857C115.963 300.728 116.071 300.728 116.176 300.747C116.472 300.825 116.726 301.015 116.884 301.277C116.99 301.456 117.047 301.66 117.049 301.867V303.247L117.273 307.612L117.78 316.718Z" fill="#263536"/>
<path d="M120.823 287.194V294.578C120.825 294.8 120.782 295.02 120.698 295.226C120.614 295.431 120.49 295.618 120.333 295.774C120.176 295.931 119.989 296.056 119.784 296.14C119.579 296.224 119.359 296.267 119.137 296.265H112.39C112.13 296.265 111.874 296.206 111.641 296.091C111.407 295.977 111.204 295.81 111.045 295.604C110.826 295.307 110.706 294.948 110.703 294.578V287.194C110.706 286.748 110.885 286.321 111.2 286.005C111.516 285.689 111.943 285.511 112.39 285.508H119.137C119.583 285.511 120.01 285.689 120.326 286.005C120.642 286.321 120.82 286.748 120.823 287.194Z" fill="#FBD099"/>
<path d="M117.202 296.194H114.407C113.755 296.194 113.227 296.722 113.227 297.374V300.169C113.227 300.821 113.755 301.349 114.407 301.349H117.202C117.854 301.349 118.382 300.821 118.382 300.169V297.374C118.382 296.722 117.854 296.194 117.202 296.194Z" fill="#263536"/>
<path d="M125.706 306.928H135.626C136.083 306.928 136.521 307.109 136.844 307.432C137.167 307.755 137.348 308.193 137.348 308.65V313.368C137.348 313.821 137.168 314.257 136.847 314.577C136.527 314.898 136.091 315.078 135.638 315.078H125.694C125.241 315.078 124.806 314.898 124.485 314.577C124.164 314.257 123.984 313.821 123.984 313.368V308.65C123.982 308.423 124.026 308.198 124.112 307.989C124.198 307.779 124.325 307.589 124.485 307.428C124.645 307.268 124.836 307.141 125.045 307.055C125.255 306.969 125.479 306.926 125.706 306.928Z" fill="white"/>
<path d="M137.739 306.798C137.739 306.992 137.662 307.178 137.525 307.315C137.388 307.452 137.202 307.529 137.008 307.529H124.328C124.134 307.529 123.948 307.452 123.811 307.315C123.673 307.178 123.596 306.992 123.596 306.798C123.596 306.604 123.673 306.418 123.811 306.281C123.948 306.144 124.134 306.067 124.328 306.067H137.008C137.202 306.067 137.388 306.144 137.525 306.281C137.662 306.418 137.739 306.604 137.739 306.798Z" fill="#999999"/>
<path d="M132.735 304.203H128.583C128.46 304.203 128.359 304.303 128.359 304.427V306.574C128.359 306.697 128.46 306.798 128.583 306.798H132.735C132.859 306.798 132.96 306.697 132.96 306.574V304.427C132.96 304.303 132.859 304.203 132.735 304.203Z" fill="#333333"/>
<path d="M135.781 309.322H131.429C131.338 309.322 131.264 309.396 131.264 309.487V309.794C131.264 309.885 131.338 309.959 131.429 309.959H135.781C135.873 309.959 135.946 309.885 135.946 309.794V309.487C135.946 309.396 135.873 309.322 135.781 309.322Z" fill="#BDC3C7"/>
<path d="M135.781 310.691H131.429C131.338 310.691 131.264 310.765 131.264 310.856V311.151C131.264 311.242 131.338 311.316 131.429 311.316H135.781C135.873 311.316 135.946 311.242 135.946 311.151V310.856C135.946 310.765 135.873 310.691 135.781 310.691Z" fill="#BDC3C7"/>
<path d="M135.781 312.046H131.429C131.338 312.046 131.264 312.12 131.264 312.212V312.506C131.264 312.598 131.338 312.672 131.429 312.672H135.781C135.873 312.672 135.946 312.598 135.946 312.506V312.212C135.946 312.12 135.873 312.046 135.781 312.046Z" fill="#BDC3C7"/>
<path d="M116.272 277.427L114.974 283.018C114.974 283.194 114.905 283.362 114.781 283.485C114.657 283.609 114.489 283.679 114.314 283.679H104.571C104.397 283.676 104.232 283.605 104.111 283.481C103.99 283.358 103.922 283.192 103.922 283.018V277.982L104.134 277.852C104.422 277.687 104.721 277.545 105.031 277.427H114.314C114.471 277.431 114.622 277.489 114.741 277.593C114.859 277.696 114.938 277.838 114.962 277.993C114.962 277.993 116.272 277.392 116.272 277.427Z" fill="#B5C5C6"/>
<path d="M128.468 278.076V283.03C128.464 283.203 128.394 283.368 128.27 283.489C128.146 283.61 127.98 283.678 127.807 283.678H118.076C117.903 283.678 117.736 283.61 117.613 283.489C117.489 283.368 117.418 283.203 117.415 283.03L116.118 277.427C116.118 277.427 117.427 278.017 117.427 277.981C117.45 277.825 117.527 277.682 117.646 277.578C117.765 277.474 117.918 277.416 118.076 277.415H127.371C127.75 277.563 128.113 277.749 128.456 277.969C128.467 278.004 128.471 278.04 128.468 278.076Z" fill="#B5C5C6"/>
<path d="M128.456 277.97H103.922L104.134 277.84C104.422 277.675 104.721 277.533 105.031 277.415C105.385 277.274 105.786 277.144 106.21 277.014C108.508 276.433 110.86 276.097 113.229 276.012C114.172 276.012 115.151 275.929 116.166 275.929C119.006 275.903 121.842 276.152 124.635 276.672C125.256 276.788 125.87 276.938 126.475 277.12C126.782 277.215 127.076 277.309 127.336 277.415C127.595 277.521 127.902 277.663 128.138 277.793L128.456 277.97Z" fill="#455556"/>
<path d="M127.076 313.238H125.672C125.649 313.238 125.627 313.231 125.608 313.218C125.59 313.206 125.575 313.188 125.566 313.167L124.858 311.988C124.846 311.97 124.84 311.95 124.84 311.929C124.84 311.908 124.846 311.887 124.858 311.87L125.566 310.69C125.582 310.683 125.6 310.679 125.619 310.679C125.637 310.679 125.655 310.683 125.672 310.69H127.076C127.11 310.677 127.148 310.677 127.182 310.69L127.878 311.87C127.889 311.887 127.896 311.908 127.896 311.929C127.896 311.95 127.889 311.97 127.878 311.988L127.182 313.167C127.172 313.187 127.157 313.204 127.138 313.217C127.119 313.229 127.098 313.236 127.076 313.238ZM125.743 313.038H127.005L127.654 311.858L127.028 310.773H125.743L125.117 311.858L125.743 313.038Z" fill="#354546"/>
<path d="M129.175 312.024H127.771C127.749 312.024 127.727 312.017 127.708 312.004C127.689 311.992 127.674 311.974 127.665 311.953L126.969 310.774C126.958 310.754 126.952 310.731 126.952 310.709C126.952 310.686 126.958 310.664 126.969 310.644L127.665 309.464C127.682 309.457 127.7 309.453 127.718 309.453C127.737 309.453 127.755 309.457 127.771 309.464H129.175C129.192 309.457 129.21 309.453 129.228 309.453C129.246 309.453 129.265 309.457 129.281 309.464L129.989 310.644C130 310.664 130.006 310.686 130.006 310.709C130.006 310.731 130 310.754 129.989 310.774L129.281 311.953C129.272 311.974 129.257 311.992 129.239 312.004C129.22 312.017 129.198 312.024 129.175 312.024ZM127.842 311.776H129.104L129.729 310.679L129.104 309.594H127.842L127.217 310.679L127.842 311.776Z" fill="#354546"/>
<path d="M125.659 310.809C125.625 310.823 125.587 310.823 125.553 310.809L125.21 310.196C125.189 310.174 125.177 310.144 125.177 310.113C125.177 310.082 125.189 310.053 125.21 310.031C125.234 310.008 125.266 309.996 125.299 309.996C125.332 309.996 125.363 310.008 125.387 310.031L125.741 310.632C125.761 310.657 125.772 310.689 125.772 310.721C125.772 310.753 125.761 310.784 125.741 310.809H125.659Z" fill="#354546"/>
<path d="M127.794 309.617C127.777 309.625 127.759 309.628 127.741 309.628C127.722 309.628 127.704 309.625 127.688 309.617L127.334 309.016C127.311 308.992 127.299 308.96 127.299 308.927C127.299 308.894 127.311 308.863 127.334 308.839C127.356 308.817 127.385 308.805 127.416 308.805C127.447 308.805 127.477 308.817 127.499 308.839L127.853 309.44C127.875 309.464 127.887 309.496 127.887 309.529C127.887 309.562 127.875 309.593 127.853 309.617H127.794Z" fill="#354546"/>
<path d="M129.576 312.683C129.554 312.683 129.532 312.676 129.513 312.664C129.494 312.651 129.479 312.633 129.47 312.613L129.116 312.011C129.094 311.987 129.082 311.955 129.082 311.923C129.082 311.89 129.094 311.858 129.116 311.834C129.14 311.815 129.169 311.804 129.199 311.804C129.229 311.804 129.258 311.815 129.282 311.834L129.635 312.447C129.657 312.47 129.669 312.499 129.669 312.53C129.669 312.561 129.657 312.591 129.635 312.613L129.576 312.683Z" fill="#354546"/>
<path d="M129.339 310.679C129.323 310.687 129.305 310.691 129.286 310.691C129.268 310.691 129.25 310.687 129.233 310.679L128.879 310.078C128.869 310.063 128.863 310.046 128.86 310.029C128.856 310.011 128.857 309.993 128.861 309.976C128.865 309.959 128.872 309.943 128.883 309.928C128.893 309.914 128.907 309.902 128.922 309.893C128.938 309.884 128.955 309.879 128.972 309.877C128.99 309.875 129.008 309.876 129.025 309.881C129.042 309.886 129.057 309.895 129.071 309.906C129.084 309.918 129.096 309.932 129.103 309.948L129.445 310.549C129.468 310.573 129.48 310.605 129.48 310.638C129.48 310.671 129.468 310.702 129.445 310.726L129.339 310.679Z" fill="#354546"/>
<path d="M127.653 310.679C127.631 310.655 127.618 310.623 127.618 310.59C127.618 310.557 127.631 310.526 127.653 310.502L128.007 309.9C128.029 309.879 128.059 309.866 128.09 309.866C128.121 309.866 128.15 309.879 128.172 309.9C128.195 309.924 128.207 309.956 128.207 309.989C128.207 310.021 128.195 310.053 128.172 310.077L127.818 310.679C127.795 310.698 127.766 310.708 127.736 310.708C127.706 310.708 127.676 310.698 127.653 310.679Z" fill="#354546"/>
<path d="M125.568 311.941C125.545 311.917 125.533 311.885 125.533 311.852C125.533 311.82 125.545 311.788 125.568 311.764L125.922 311.162C125.944 311.141 125.973 311.129 126.004 311.129C126.035 311.129 126.065 311.141 126.087 311.162C126.109 311.186 126.122 311.218 126.122 311.251C126.122 311.284 126.109 311.315 126.087 311.339L125.745 311.941C125.718 311.958 125.688 311.967 125.656 311.967C125.625 311.967 125.594 311.958 125.568 311.941Z" fill="#354546"/>
<path d="M129.163 309.617C129.141 309.593 129.128 309.562 129.128 309.529C129.128 309.496 129.141 309.464 129.163 309.44L129.517 308.839C129.539 308.817 129.569 308.805 129.6 308.805C129.631 308.805 129.66 308.817 129.682 308.839C129.705 308.863 129.717 308.894 129.717 308.927C129.717 308.96 129.705 308.992 129.682 309.016L129.328 309.617C129.305 309.636 129.276 309.647 129.246 309.647C129.216 309.647 129.186 309.636 129.163 309.617Z" fill="#354546"/>
<path d="M129.846 310.809C129.814 310.809 129.783 310.797 129.758 310.775C129.734 310.753 129.72 310.723 129.717 310.691C129.717 310.656 129.73 310.623 129.755 310.599C129.779 310.575 129.812 310.561 129.846 310.561H130.542C130.559 310.559 130.575 310.561 130.591 310.566C130.607 310.571 130.621 310.58 130.633 310.591C130.646 310.602 130.655 310.616 130.662 310.631C130.669 310.646 130.672 310.662 130.672 310.679C130.672 310.713 130.658 310.746 130.634 310.771C130.61 310.795 130.577 310.809 130.542 310.809H129.846Z" fill="#354546"/>
</g>
<defs>
<clipPath id="clip0">
<rect width="320" height="370" fill="white"/>
</clipPath>
</defs>
</svg>
