<svg width="678" height="30" viewBox="0 0 678 30" fill="none" xmlns="http://www.w3.org/2000/svg">
<g clip-path="url(#clip0)">
<path fill-rule="evenodd" clip-rule="evenodd" d="M1.13087 30V25.7444H-3.12238V24.0781H-2.57536V22.0273H-3.12238V21.8322C-3.12183 21.6075 -3.1774 21.3861 -3.28419 21.1876C-3.39098 20.9892 -3.54567 20.8198 -3.73455 20.6946V19.5746H-4.50471V16.318C-4.50471 16.2865 -4.5174 16.2562 -4.53999 16.2339C-4.56258 16.2116 -4.59322 16.199 -4.62516 16.199C-4.64114 16.1988 -4.65702 16.2017 -4.67187 16.2075C-4.68671 16.2134 -4.70023 16.2221 -4.71162 16.2332C-4.72302 16.2443 -4.73207 16.2575 -4.73825 16.272C-4.74442 16.2866 -4.7476 16.3023 -4.7476 16.318V19.5649H-7.13706V19.8849C-7.64062 19.8088 -8.17973 19.7444 -8.74648 19.6898V22.6946H-9.49097V27.5922H-9.79311V22.402H-9.04665V19.6059H-9.78719V19.3268C-9.78766 18.9274 -9.91778 18.5386 -10.1584 18.2176C-10.399 17.8966 -10.7375 17.6603 -11.1241 17.5434V16.3259H-12.1273V12.1932C-12.131 12.164 -12.1455 12.1371 -12.1678 12.1177C-12.1902 12.0983 -12.2189 12.0875 -12.2487 12.0875C-12.2785 12.0875 -12.3073 12.0983 -12.3296 12.1177C-12.352 12.1371 -12.3664 12.164 -12.3702 12.1932V16.3259H-15.4488V16.6654C-17.0413 16.4374 -18.6482 16.3214 -20.2573 16.318C-21.4833 16.3196 -22.7082 16.388 -23.9264 16.5229C-23.8479 16.7678 -23.808 17.0231 -23.808 17.28V17.3171H-22.9035V21.3171H-23.808V27.6H-24.1121V21.0185H-23.2096V17.6176H-24.1121V17.28C-24.1118 16.7816 -24.2775 16.297 -24.5838 15.9009C-24.89 15.5049 -25.3197 15.2195 -25.8064 15.0888C-26.15 14.9971 -26.543 14.8937 -26.9755 14.7941V13.1395H-28.265V7.93756C-28.2628 7.92052 -28.2643 7.90321 -28.2694 7.88678C-28.2745 7.87035 -28.283 7.85519 -28.2945 7.84229C-28.306 7.8294 -28.3202 7.81906 -28.336 7.81199C-28.3519 7.80491 -28.369 7.80125 -28.3864 7.80125C-28.4038 7.80125 -28.421 7.80491 -28.4369 7.81199C-28.4527 7.81906 -28.4668 7.8294 -28.4783 7.84229C-28.4898 7.85519 -28.4984 7.87035 -28.5035 7.88678C-28.5086 7.90321 -28.5101 7.92052 -28.5079 7.93756V13.1395H-32.4179V13.8634C-33.8855 13.703 -35.3609 13.6216 -36.8374 13.6195C-40.5631 13.6381 -44.2707 14.1319 -47.8684 15.0888C-48.3548 15.2201 -48.7841 15.5056 -49.0902 15.9015C-49.3964 16.2974 -49.5624 16.7818 -49.5627 17.28V17.6176H-50.4652V21.0185H-49.5627V21.7112H-58.694L-58.8816 20.5541C-58.7284 20.5331 -58.5891 20.455 -58.4923 20.3358C-58.3955 20.2166 -58.3485 20.0653 -58.3608 19.9129C-58.3732 19.7606 -58.444 19.6187 -58.5588 19.5162C-58.6736 19.4138 -58.8237 19.3586 -58.9784 19.362H-59.0751L-59.3398 17.7229C-59.7594 15.1268 -59.972 12.5022 -59.9756 9.87317C-59.8148 9.87472 -59.66 9.8131 -59.5452 9.70186C-59.4304 9.59062 -59.365 9.43887 -59.3635 9.28C-59.3619 9.12113 -59.4243 8.96815 -59.5368 8.85471C-59.6494 8.74127 -59.803 8.67667 -59.9638 8.67512C-59.9282 7.04 -59.8104 5.40878 -59.6103 3.78146H-59.2687V2.6361H-75.5723V3.78146H-75.2464C-75.0674 5.41138 -74.9647 7.04455 -74.9384 8.68098C-75.0871 8.6956 -75.2249 8.7643 -75.3252 8.87374C-75.4255 8.98318 -75.481 9.12554 -75.481 9.27317C-75.481 9.4208 -75.4255 9.56316 -75.3252 9.6726C-75.2249 9.78204 -75.0871 9.85074 -74.9384 9.86537C-74.9534 12.4937 -75.1647 15.1174 -75.5703 17.7151L-75.827 19.362H-75.8665C-76.0161 19.3598 -76.1612 19.4123 -76.2739 19.5095C-76.3867 19.6067 -76.4591 19.7416 -76.4772 19.8883C-76.4953 20.035 -76.4579 20.1832 -76.3722 20.3043C-76.2864 20.4254 -76.1584 20.5109 -76.0126 20.5444L-76.299 22.3668H-78.3725V21.0732H-79.1861V19.9454H-82.7525V21.0732H-85.9852V23.6098H-89.518L-90.1697 19.5922C-90.0167 19.5711 -89.8776 19.4931 -89.7809 19.3741C-89.6842 19.2551 -89.637 19.1042 -89.6491 18.952C-89.6612 18.7999 -89.7316 18.658 -89.846 18.5554C-89.9604 18.4528 -90.11 18.3972 -90.2645 18.4H-90.3612L-90.6634 16.5463C-91.1261 13.6805 -91.3591 10.7831 -91.3605 7.88098C-91.2052 7.87386 -91.0586 7.80829 -90.9508 7.69775C-90.8429 7.5872 -90.782 7.44005 -90.7805 7.28651C-90.7789 7.13297 -90.837 6.98467 -90.9426 6.87207C-91.0483 6.75946 -91.1935 6.69109 -91.3486 6.68098C-91.3091 4.87285 -91.1775 3.06602 -90.9537 1.26049H-90.5784V0H-108.458V1.25659H-108.1C-107.903 3.06146 -107.785 4.87805 -107.761 6.68488C-107.907 6.7034 -108.04 6.77373 -108.137 6.88273C-108.234 6.99172 -108.288 7.13191 -108.288 7.27707C-108.288 7.42224 -108.234 7.56243 -108.137 7.67142C-108.04 7.78042 -107.907 7.85075 -107.761 7.86927C-107.775 10.7701 -108.008 13.6659 -108.456 16.5327L-108.748 18.3961H-108.772C-108.914 18.4028 -109.05 18.4589 -109.155 18.5546C-109.259 18.6502 -109.327 18.7793 -109.345 18.9192C-109.363 19.059 -109.33 19.2006 -109.253 19.3191C-109.175 19.4375 -109.058 19.5253 -108.922 19.5668L-109.236 21.5629H-114.929V16.318H-117.856V12.7707C-117.852 12.7294 -117.858 12.6878 -117.871 12.6485C-117.885 12.6093 -117.907 12.5733 -117.935 12.5428C-117.964 12.5123 -117.998 12.4879 -118.037 12.4713C-118.075 12.4546 -118.117 12.446 -118.159 12.446C-118.201 12.446 -118.242 12.4546 -118.281 12.4713C-118.319 12.4879 -118.354 12.5123 -118.382 12.5428C-118.411 12.5733 -118.433 12.6093 -118.446 12.6485C-118.46 12.6878 -118.465 12.7294 -118.462 12.7707V16.318H-118.79V21.5707H-121.015V30L1.13087 30ZM-57.7402 27.6H-49.5627L-49.5647 26.3824H-57.9377L-57.7402 27.6ZM-58.0206 25.9024H-49.5627L-49.5687 25.3346H-58.1115L-58.0206 25.9024ZM-58.1845 24.8546H-49.5627V24.2868H-58.2754L-58.1845 24.8546ZM-58.3544 23.8068H-49.5627L-49.5588 23.239H-58.4452L-58.3544 23.8068ZM-58.5242 22.759H-49.5627V22.1912H-58.615L-58.5242 22.759Z" fill="white"/>
<path d="M51.3583 25.2481C51.3583 22.9588 51.3443 22.6724 48.8604 22.7776V25.2481H51.3583ZM21.2355 8.9427C21.2355 9.23689 20.665 9.08687 20.5009 9.12194V9.75709C20.665 9.79216 21.2475 9.64214 21.2355 9.93828C21.2234 10.2344 20.663 10.0825 20.5009 10.1156V10.7507C20.665 10.7858 21.2475 10.6358 21.2355 10.9319C21.2234 11.2281 20.663 11.0741 20.5009 11.1092V12.7146L26.5155 14.3337V12.7633C26.3533 12.7302 25.7689 12.8783 25.7829 12.5821C25.7969 12.286 26.3533 12.438 26.5155 12.4029V11.7677C26.3533 11.7346 25.7709 11.8827 25.7829 11.5885C25.7949 11.2943 26.3533 11.4443 26.5155 11.4093V10.7741C26.3533 10.741 25.7689 10.8891 25.7829 10.5929C25.7969 10.2968 26.3533 10.4507 26.5155 10.4156V9.77852C26.3533 9.7454 25.7709 9.89347 25.7829 9.59928C25.7949 9.30508 26.3533 9.45705 26.5155 9.42198V8.78489C26.3533 8.75177 25.7709 8.89984 25.7829 8.60564C25.7949 8.31145 26.3533 8.46147 26.5155 8.4264V7.53602C24.5131 7.61166 22.5079 7.56871 20.5109 7.40744V7.76787C20.675 7.80099 21.2575 7.65292 21.2455 7.94906C21.2334 8.24521 20.673 8.09129 20.5109 8.12636V8.76346C20.663 8.79658 21.2475 8.64851 21.2355 8.9427ZM18.7476 7.13272L19.27 7.18533V7.13272H18.7476ZM19.28 5.69293C11.1638 5.22144 5.90985 3.90633 1.90481 1.34041V1.43393C3.70618 4.48498 13.4736 6.72748 18.6715 7.12688C18.6304 7.1133 18.5954 7.08614 18.5726 7.05009C18.5499 7.01404 18.5408 6.97138 18.547 6.92951C18.5532 6.88764 18.5742 6.84919 18.6065 6.82083C18.6387 6.79247 18.6801 6.77599 18.7235 6.77424H19.27V5.80008C19.2711 5.7642 19.2744 5.72842 19.28 5.69293ZM19.28 7.30417C13.9319 6.93205 4.03042 4.79086 1.90481 1.63461V15.8319L6.9086 14.0784L15.0127 16.1553V11.2378L19.27 12.3834V11.1014C19.1078 11.0683 18.5274 11.2144 18.5374 10.9241C18.5474 10.6338 19.1058 10.778 19.27 10.7429V10.1156C19.1098 10.0825 18.5274 10.2286 18.5374 9.93828C18.5474 9.64799 19.1058 9.79216 19.27 9.75709V9.12194C19.1078 9.08882 18.5254 9.23495 18.5374 8.9427C18.5494 8.65045 19.1058 8.79852 19.27 8.76346V8.12636C19.1078 8.09324 18.5274 8.23936 18.5374 7.94906C18.5474 7.65877 19.1058 7.80099 19.27 7.76787L19.28 7.30417ZM240.447 14.8655V14.2811H234.863L236.977 14.8655H240.447ZM215.601 14.2811V14.8655H219.071L221.185 14.2811H215.601ZM204.648 3.94335H204.166L204.06 5.74748H204.542L204.648 3.94335ZM204.188 3.58291H204.668L204.776 1.77878H204.296L204.188 3.58291ZM214.83 16.9872H215.469V15.0273H214.83V16.9872ZM214.83 19.068H215.469V17.108H214.83V19.068ZM214.83 21.1488H215.469V19.1888H214.83V21.1488ZM215.469 27.3951V25.4351H214.83V27.397L215.469 27.3951ZM215.469 25.3124V23.3543H214.83V25.324L215.469 25.3124ZM215.469 23.2316V21.2696H214.83V23.2335L215.469 23.2316ZM203.736 19.0895H203.245L203.217 19.5668H203.706L203.736 19.0895ZM203.864 16.9249H203.375L203.267 18.731H203.758L203.864 16.9249ZM203.992 14.7603H203.503L203.395 16.5664H203.884L203.992 14.7603ZM204.122 12.5958H203.634L203.525 14.4018H204.014L204.122 12.5958ZM204.248 10.4312H203.764L203.656 12.2353H204.136L204.248 10.4312ZM204.376 8.26664H203.892L203.784 10.0708H204.268L204.376 8.26664ZM204.506 6.10207H204.02L203.912 7.90815H204.398L204.506 6.10207ZM184.961 25.1097V24.2934H181.331C178.703 24.0538 181.263 21.0845 178.599 21.3865V25.1097H184.961ZM151.24 27.5997V15.5552H149.639V25.0376C149.657 26.5047 148.146 27.0366 146.865 26.8632V27.5997H151.24ZM151.24 8.09129C151.04 6.53265 152.219 5.04219 153.902 5.1474C154.116 2.32041 149.699 2.11389 149.645 4.95257V8.09129H151.24ZM140.932 8.09129C140.732 6.53265 141.911 5.04024 143.594 5.1474C143.808 2.32236 139.391 2.11389 139.339 4.95257V8.09129H140.932ZM117.654 7.92958V6.78982H115.895V7.92958H117.654ZM119.868 7.92958V6.78982H118.109V7.92958H119.868ZM119.216 6.34561H121.752L119.216 3.94725V6.34561ZM122.074 6.78982H120.312V7.92958H122.074V6.78982ZM107.08 14.4973L108.992 12.6776H107.08V14.4973ZM109.64 12.6776L107.323 14.8831H109.626C109.862 14.1095 110.198 13.3683 110.627 12.6776H109.64ZM113.565 16.4651H118.335V15.941H109.374C109.41 15.7345 109.454 15.528 109.506 15.3253H107.08V25.8248H107.769C107.909 24.9889 109.638 18.4212 109.232 17.7081H118.335V16.9892H113.565V16.4651ZM100.822 14.8831L98.502 12.6776H97.7014C98.1308 13.3679 98.4672 14.1091 98.7021 14.8831H100.822ZM101.35 14.7681L101.454 14.6688V12.6776H99.1505L101.35 14.7681ZM90.2277 16.9892V17.7081H99.1044C98.7041 18.4563 100.419 24.9539 100.566 25.8248H101.458V15.3253H98.8302C98.8823 15.5202 98.9243 15.7345 98.9623 15.941H90.2277V16.4651H94.9953V16.9892H90.2277ZM89.5732 6.34561H92.1071L89.5732 3.94725V6.34561ZM92.4394 6.78982H90.68V7.92958H92.4394V6.78982ZM88.014 7.92958V6.78982H86.2467V7.92958H88.014ZM90.2277 6.78982H88.4664V7.92958H90.2277V6.78982ZM89.1189 1.72423C89.1242 1.66916 89.1504 1.61801 89.1924 1.58077C89.2344 1.54354 89.2892 1.5229 89.346 1.5229C89.4028 1.5229 89.4576 1.54354 89.4996 1.58077C89.5417 1.61801 89.5679 1.66916 89.5732 1.72423V3.33158L92.8257 6.41185C92.847 6.43217 92.864 6.45641 92.8757 6.48316C92.8874 6.50991 92.8935 6.53865 92.8937 6.56772V8.71085C94.7317 9.41352 96.309 10.6399 97.4192 12.2295H101.458C101.68 12.0171 100.928 2.12363 101.911 2.56979H106.632C107.619 2.16649 106.858 11.9645 107.084 12.2295H110.919C112.031 10.6402 113.609 9.41392 115.447 8.71085C115.447 5.35587 114.932 6.54823 118.767 6.33782V1.72423C118.767 1.66584 118.791 1.60984 118.834 1.56855C118.876 1.52727 118.933 1.50407 118.993 1.50407C119.053 1.50407 119.111 1.52727 119.153 1.56855C119.196 1.60984 119.22 1.66584 119.22 1.72423V3.33158L122.474 6.4099C122.496 6.42995 122.513 6.45413 122.525 6.48095C122.536 6.50776 122.542 6.53663 122.542 6.56577V8.7089C124.105 9.30545 125.484 10.283 126.546 11.5478C127.609 12.8126 128.32 14.322 128.611 15.9313H120.104V16.4554H124.872V16.9795H120.096V17.6984H128.745C128.345 18.4465 130.06 24.9441 130.206 25.815H131.547V26.2553H138.722V4.94867C138.725 4.59106 138.801 4.2376 138.947 3.90922C139.092 3.58084 139.304 3.28422 139.57 3.03693C139.835 2.78963 140.149 2.59668 140.492 2.46951C140.835 2.34235 141.201 2.28354 141.569 2.29658C141.936 2.30962 142.296 2.39423 142.629 2.54542C142.962 2.69661 143.261 2.91129 143.507 3.17676C143.753 3.44222 143.942 3.75307 144.063 4.0909C144.183 4.42872 144.233 4.78666 144.209 5.1435C144.55 5.12334 144.892 5.17122 145.213 5.2842C145.535 5.39718 145.829 5.57289 146.078 5.80055C146.327 6.02821 146.526 6.30303 146.663 6.60816C146.799 6.91328 146.87 7.24228 146.871 7.57499V26.2612C147.785 26.3644 149.048 26.1735 149.03 25.0338V4.94867C149.076 1.32483 154.733 1.54109 154.518 5.1435C154.86 5.12334 155.201 5.17122 155.523 5.2842C155.844 5.39718 156.139 5.57289 156.388 5.80055C156.637 6.02821 156.836 6.30303 156.972 6.60816C157.109 6.91328 157.179 7.24228 157.18 7.57499V24.3031H159.112V21.8833H161.752V21.2988C160.751 20.6462 161.532 19.5454 162.715 19.5707C163.897 19.5356 164.68 20.6462 163.677 21.2988V21.8833H165.679L171.177 20.1766L173.223 18.8713L173.539 19.4441L178.597 17.8854V20.8079C181.885 20.613 179.555 23.5121 181.329 23.7147H184.961V22.1561H188.45V27.6289H189.473V23.4439H190.139V20.7825C190.139 20.7432 190.147 20.7043 190.162 20.6679C190.177 20.6315 190.2 20.5984 190.228 20.5705C190.257 20.5426 190.291 20.5205 190.328 20.5054C190.365 20.4903 190.405 20.4825 190.446 20.4825C190.528 20.4825 190.606 20.5141 190.664 20.5703C190.722 20.6265 190.755 20.7028 190.756 20.7825V23.4439H192.089V20.7825C192.085 20.7412 192.091 20.6997 192.105 20.6605C192.119 20.6214 192.141 20.5854 192.17 20.555C192.198 20.5245 192.233 20.5002 192.272 20.4836C192.311 20.4669 192.354 20.4584 192.396 20.4584C192.439 20.4584 192.481 20.4669 192.52 20.4836C192.559 20.5002 192.594 20.5245 192.623 20.555C192.651 20.5854 192.674 20.6214 192.687 20.6605C192.701 20.6997 192.707 20.7412 192.703 20.7825V23.4439H194.034V20.7825C194.041 20.7069 194.076 20.6363 194.133 20.5848C194.19 20.5334 194.266 20.5048 194.344 20.5048C194.422 20.5048 194.497 20.5334 194.554 20.5848C194.611 20.6363 194.647 20.7069 194.653 20.7825V23.4439H195.984V20.7825C195.98 20.7412 195.986 20.6997 196 20.6605C196.014 20.6214 196.036 20.5854 196.064 20.555C196.093 20.5245 196.128 20.5002 196.167 20.4836C196.206 20.4669 196.248 20.4584 196.291 20.4584C196.334 20.4584 196.376 20.4669 196.415 20.4836C196.454 20.5002 196.489 20.5245 196.518 20.555C196.546 20.5854 196.569 20.6214 196.582 20.6605C196.596 20.6997 196.602 20.7412 196.598 20.7825V23.4439H197.931V20.7825C197.932 20.7028 197.965 20.6265 198.023 20.5703C198.081 20.5141 198.16 20.4825 198.242 20.4825C198.282 20.4825 198.322 20.4903 198.359 20.5054C198.396 20.5205 198.43 20.5426 198.459 20.5705C198.487 20.5984 198.51 20.6315 198.525 20.6679C198.54 20.7043 198.548 20.7432 198.548 20.7825V23.4439H200.661V19.5727H202.847L203.936 1.42029H207.739L208.715 19.5727H211.734V23.4439H212.49V27.5997H215.463V27.5159H214.702V14.9065H215.463V14.8655V14.1622H221.605L227.702 12.4828V10.8813C227.542 10.8559 227.065 10.9767 227.073 10.7001C227.081 10.4234 227.542 10.5462 227.702 10.5208V10.1935C227.542 10.1682 227.065 10.289 227.073 10.0123C227.081 9.73566 227.544 9.86035 227.702 9.83502V9.50381C227.544 9.47848 227.065 9.59928 227.073 9.32457C227.081 9.04986 227.542 9.17065 227.702 9.14532V8.81606C227.544 8.79073 227.065 8.91153 227.073 8.63682C227.081 8.3621 227.542 8.4829 227.702 8.45757C227.702 8.21403 227.61 7.67825 228.008 7.69384C228.406 7.70942 228.306 8.21208 228.318 8.45757C228.478 8.4829 228.955 8.3621 228.947 8.63682C228.939 8.91153 228.478 8.79073 228.318 8.81606V9.15312C228.476 9.17844 228.955 9.05765 228.947 9.33236C228.939 9.60707 228.478 9.48628 228.318 9.5116V9.84282C228.476 9.86814 228.955 9.74735 228.947 10.0201C228.939 10.2929 228.48 10.176 228.318 10.2013V10.5169C228.476 10.5403 228.955 10.4234 228.947 10.6962C228.939 10.9689 228.48 10.852 228.318 10.8774V12.4789L234.413 14.1583H240.564V14.8617V27.5958H242.965V30H-3.22107V27.6036H-0.164755V16.5567L1.31637 16.0345V0.775405H1.90481V1.19624C5.90784 3.77969 11.1578 5.10259 19.318 5.57603C19.5342 4.974 20.5189 5.13961 20.5069 5.79229V6.76644C20.669 6.79956 21.2515 6.65344 21.2415 6.94569C21.2314 7.23793 20.671 7.08986 20.5069 7.12493V7.28274C22.5081 7.44063 24.5172 7.48162 26.5235 7.40549C26.5455 6.64954 27.7664 6.67682 27.7524 7.43471V8.41861C27.9145 8.45173 28.497 8.3056 28.4849 8.59785C28.4729 8.8901 27.9165 8.74202 27.7524 8.77709V9.41419C27.9125 9.44731 28.495 9.30119 28.4849 9.59149C28.4749 9.88178 27.9165 9.73566 27.7524 9.77073V10.4078C27.9125 10.4409 28.495 10.2948 28.4849 10.5851C28.4749 10.8754 27.9165 10.7332 27.7524 10.7663V11.4015C27.9145 11.4346 28.497 11.2885 28.4849 11.5807C28.4729 11.873 27.9165 11.7249 27.7524 11.7599V12.3951C27.9145 12.4282 28.497 12.2821 28.4849 12.5743C28.4729 12.8666 27.9165 12.7224 27.7524 12.7555V14.6571L42.7277 18.6998C43.6965 17.4081 44.9394 16.6872 46.6467 16.5762V19.7538L48.8604 20.3383V21.9282C51.8306 21.782 52.2329 22.499 52.2369 25.2403H55.0391V26.0196H59.2262L60.0468 8.26664C59.7306 8.28028 59.1802 8.3095 59.2022 7.86139C59.2022 7.40549 59.7686 7.47173 60.0849 7.47173L60.1169 6.7528C59.1161 6.90282 59.1822 5.77865 60.1549 5.9579L60.1869 5.23897C59.3863 5.35587 59.4384 4.2921 60.225 4.44406C60.1369 3.44263 60.5933 2.31457 61.7401 2.22105C61.8142 2.08661 61.54 -0.097436 61.9263 -0.00391739C62.3006 -0.0896428 62.0343 2.07687 62.1104 2.22105C63.2613 2.31457 63.7116 3.44263 63.6256 4.44406C64.4262 4.29404 64.4642 5.35587 63.6616 5.23897L63.6956 5.9579C64.6683 5.77865 64.7284 6.90282 63.7336 6.7528L63.7657 7.47173C64.0799 7.47173 64.6543 7.40354 64.6463 7.86139C64.6683 8.31145 64.1199 8.28028 63.8037 8.26664L63.9518 11.4424L64.6063 25.5715L65.2308 11.7561C64.9686 11.7677 64.5122 11.7931 64.5302 11.419C64.5483 11.0449 65.0106 11.1014 65.2708 11.1014L65.2988 10.5033C64.4762 10.6299 64.5222 9.6928 65.3288 9.84282L65.3569 9.24664C64.6924 9.34405 64.7324 8.46731 65.3869 8.58616C65.3188 7.76592 65.6811 6.83268 66.6138 6.74501C66.6839 6.59889 66.4297 4.79671 66.8 4.86295C67.1682 4.79865 66.914 6.5911 66.9841 6.74501C67.9188 6.84243 68.2831 7.76592 68.211 8.58616C68.8635 8.46147 68.9056 9.34405 68.2411 9.24664L68.2691 9.84282C69.0697 9.6928 69.1257 10.6221 68.2991 10.5033L68.3291 11.1014C68.5893 11.1014 69.0657 11.0469 69.0597 11.4229C69.0537 11.7989 68.6233 11.7716 68.3591 11.7599L69.0337 26.1209L69.478 16.5294C68.7775 16.6327 68.8115 15.9449 69.5 16.054L69.52 15.6234C68.9196 15.715 68.9576 15.0389 69.54 15.148L69.562 14.7194C69.0817 14.7896 69.1137 14.1525 69.5841 14.244C69.54 13.6732 69.7722 13.0224 70.4167 12.925C70.4847 12.7692 70.2406 11.4716 70.5988 11.5125C70.9631 11.4735 70.7169 12.7614 70.785 12.925C71.4295 13.0224 71.6616 13.6732 71.6156 14.244C72.084 14.1525 72.12 14.7876 71.6396 14.7194L71.6576 15.148C72.2381 15.0389 72.2761 15.7131 71.6817 15.6234L71.6997 16.054C72.3882 15.9352 72.4242 16.6385 71.7217 16.5294L72.2361 27.5997H77.1778V25.8248H78.1385C78.2786 24.9889 80.008 18.4212 79.5997 17.7081H88.4764V16.9892H83.6988V16.4651H88.4664V15.941H79.7318C80.0239 14.3323 80.7353 12.8235 81.7979 11.559C82.8604 10.2945 84.2385 9.31648 85.8003 8.71864C85.8003 5.35977 85.302 6.55797 89.1189 6.34561V1.72423ZM159.112 27.5997V26.419H157.18V27.5997H159.112ZM159.112 25.8209V24.9052H157.18V25.8209H159.112ZM151.24 14.9571V8.69137H149.639V14.9571H151.24ZM140.932 27.5997V26.8632H131.547V27.5997H140.932ZM140.932 26.2651V15.5494H139.331V26.2651H140.932ZM140.932 14.9649V8.69137H139.331V14.9571L140.932 14.9649ZM129.279 25.8248L128.156 20.8235C127.561 22.4043 126.546 23.8033 125.214 24.8779V25.8248H129.279ZM112.763 25.8248V24.8779C111.432 23.8023 110.416 22.4037 109.819 20.8235L108.698 25.8248H112.763ZM99.6368 25.8248L98.516 20.8235C97.9197 22.4038 96.9046 23.8026 95.5738 24.8779V25.8248H99.6368ZM83.1203 25.8248V24.8779C81.7887 23.8033 80.7735 22.4043 80.1781 20.8235L79.0572 25.8248H83.1203ZM59.1502 27.5997L59.1842 26.8593H55.0371V27.5997H59.1502ZM29.7539 23.0757V18.4115H28.2448V23.0757H29.7539ZM27.6183 23.0757V17.7451H26.1091V23.0757H27.6183ZM25.4807 23.0757V17.2308H23.9715V23.0757H25.4807ZM23.345 23.0757V16.5762H21.8359V23.0757H23.345ZM21.2054 23.0757V15.9488H19.6963V23.0757H21.2054Z" fill="white"/>
<path d="M675.245 17.9354V7.91984L670.319 12.3989V8.02247C670.55 7.94099 670.749 7.79427 670.889 7.60198C671.03 7.4097 671.106 7.18105 671.106 6.94669C671.106 6.31075 670.565 7.12996 669.897 7.12996C669.229 7.12996 668.686 6.30708 668.686 6.94669C668.687 7.18099 668.763 7.40952 668.903 7.60176C669.044 7.79399 669.243 7.94077 669.474 8.02247V13.1686L667.265 15.1736V16.724H662.16V11.7007L660.602 12.9725H654.488V8.8765C654.488 8.32697 654.308 7.79117 653.974 7.34307C653.639 6.89497 653.167 6.55668 652.623 6.37489V5.85075C652.623 5.61161 652.574 5.37476 652.478 5.15376C652.382 4.93275 652.241 4.73191 652.063 4.56273C651.886 4.39355 651.675 4.25934 651.443 4.16776C651.211 4.07619 650.962 4.02906 650.711 4.02906H645.769C645.651 3.4123 645.31 2.85446 644.804 2.45263C644.299 2.05079 643.661 1.83042 643.003 1.82984H640.542C639.93 1.82984 639.342 2.06155 638.909 2.47398C638.475 2.88641 638.232 3.44579 638.232 4.02906V22.6308C638.231 22.7488 638.182 22.8617 638.094 22.9453C638.007 23.0289 637.888 23.0765 637.764 23.078H636.091V8.69507H623.208V4.89775C623.21 4.77202 623.163 4.65001 623.077 4.55457C622.991 4.45914 622.872 4.39681 622.741 4.37928C622.61 4.36175 622.477 4.39022 622.367 4.45934C622.256 4.52847 622.176 4.63351 622.142 4.7548C621.582 4.95151 621 5.14272 620.395 5.32843V4.89775C620.395 4.78 620.353 4.66582 620.275 4.57411C620.198 4.4824 620.09 4.41866 619.969 4.39343C619.848 4.36821 619.722 4.38301 619.611 4.4354C619.5 4.48778 619.412 4.5746 619.36 4.6815C618.782 4.79879 618.185 4.91608 617.585 5.02971V4.89775C617.589 4.82717 617.578 4.75648 617.553 4.69001C617.528 4.62355 617.488 4.56272 617.437 4.51126C617.386 4.4598 617.325 4.41879 617.257 4.39077C617.189 4.36274 617.115 4.34829 617.041 4.34829C616.967 4.34829 616.893 4.36274 616.825 4.39077C616.757 4.41879 616.695 4.4598 616.644 4.51126C616.593 4.56272 616.554 4.62355 616.529 4.69001C616.503 4.75648 616.493 4.82717 616.497 4.89775V5.2313C615.93 5.33637 615.355 5.43778 614.774 5.53553V4.89775C614.774 4.7602 614.717 4.62828 614.614 4.53101C614.512 4.43375 614.374 4.3791 614.229 4.3791C614.085 4.3791 613.946 4.43375 613.844 4.53101C613.742 4.62828 613.684 4.7602 613.684 4.89775V5.02971C613.111 5.27406 612.536 5.51537 611.961 5.75361V4.89775C611.962 4.76957 611.913 4.64559 611.824 4.54989C611.734 4.45419 611.61 4.39361 611.477 4.37991C611.343 4.3662 611.208 4.40035 611.099 4.47573C610.99 4.5511 610.915 4.66233 610.887 4.78779C609.045 5.54286 607.131 6.25394 605.16 6.93569C591.56 8.62726 576.327 9.43547 565.856 9.33284C565.741 9.24373 565.602 9.18749 565.454 9.17065C565.307 9.15381 565.158 9.17706 565.024 9.23771C564.89 9.29835 564.777 9.39389 564.698 9.51324C564.619 9.63259 564.577 9.77085 564.577 9.91197V14.8419L563.969 14.5102C563.554 14.2842 563.084 14.166 562.607 14.1675C562.129 14.169 561.66 14.2901 561.247 14.5187C560.834 14.7472 560.491 15.0752 560.253 15.4697C560.015 15.8642 559.891 16.3113 559.892 16.7662V20.8989H558.563C558.47 20.8989 558.378 20.8814 558.292 20.8475C558.206 20.8136 558.129 20.7639 558.063 20.7012C557.997 20.6386 557.945 20.5642 557.91 20.4824C557.874 20.4006 557.856 20.3129 557.857 20.2245V3.50675C557.856 3.05924 557.669 2.6302 557.337 2.31376C557.004 1.99732 556.554 1.81933 556.084 1.81885H539.109C538.64 1.81982 538.189 1.99802 537.857 2.3144C537.525 2.63079 537.339 3.05955 537.338 3.50675V3.62037C537.223 3.64298 537.12 3.70242 537.045 3.78878C536.971 3.87514 536.929 3.98323 536.928 4.09504V4.42859C535.779 4.63832 534.742 5.22301 533.996 6.08201C533.25 6.94101 532.843 8.02059 532.843 9.13491V8.82336H528.608V7.01267C528.607 6.4357 528.365 5.88266 527.937 5.47486C527.508 5.06705 526.927 4.83776 526.321 4.83727H494.386C493.834 4.83824 493.3 5.02956 492.884 5.37588C492.468 5.7222 492.198 6.20011 492.124 6.72127H490.848C490.282 6.72176 489.74 6.93591 489.341 7.31667C488.941 7.69743 488.716 8.21365 488.716 8.75188V9.64623C488.713 9.88482 488.612 10.1127 488.435 10.2814C488.257 10.4502 488.018 10.5464 487.767 10.5497H483.653V9.364H481.582V5.86174H460.189H460.166H460.143H460.124L460.099 5.87091L460.084 5.88007C460.076 5.88146 460.069 5.88535 460.064 5.89107L460.047 5.90389C460.041 5.90832 460.035 5.91322 460.03 5.91856L460.016 5.93505L460.001 5.95154C460 5.95765 460 5.96377 460.001 5.96987L459.989 5.99003C459.989 5.99003 459.989 5.99919 459.989 6.00103C459.989 6.00895 459.989 6.01692 459.989 6.02485C459.989 6.03401 459.989 6.03951 459.989 6.04868V9.3475H457.897V12.5749H483.653V11.6768H487.767C488.333 11.6764 488.875 11.4623 489.275 11.0816C489.675 10.7008 489.9 10.1846 489.9 9.64623V8.75188C489.9 8.51257 490 8.28304 490.178 8.11365C490.355 7.94426 490.596 7.84886 490.848 7.84837H492.101V13.1521C492.1 13.43 491.984 13.6964 491.778 13.8929C491.571 14.0894 491.292 14.2 491 14.2004H483.653V13.4509H457.897V16.0771H483.653V15.3275H491C491.606 15.3271 492.187 15.0977 492.615 14.6898C493.043 14.282 493.284 13.729 493.285 13.1521V7.84837H517.157C517.409 7.84837 517.65 7.94356 517.828 8.113C518.006 8.28244 518.106 8.51226 518.106 8.75188V18.0509H515.305V16.0771H509.5V14.4277H509.758C509.863 14.4277 509.963 14.3882 510.037 14.3179C510.111 14.2476 510.152 14.1523 510.152 14.0529C510.152 13.9535 510.111 13.8582 510.037 13.7879C509.963 13.7176 509.863 13.6781 509.758 13.6781H509.5V13.1412H509.758C509.862 13.1412 509.962 13.1019 510.035 13.0319C510.109 12.962 510.15 12.8671 510.15 12.7682C510.15 12.6693 510.109 12.5744 510.035 12.5045C509.962 12.4345 509.862 12.3953 509.758 12.3953H509.5V11.8619H509.758C509.861 11.8619 509.958 11.8233 510.031 11.7546C510.103 11.6858 510.143 11.5926 510.143 11.4954C510.143 11.3982 510.103 11.305 510.031 11.2362C509.958 11.1675 509.861 11.1289 509.758 11.1289H509.5V10.6304C509.491 10.4722 509.419 10.3233 509.298 10.2143C509.177 10.1053 509.017 10.0446 508.851 10.0446C508.684 10.0446 508.524 10.1053 508.403 10.2143C508.282 10.3233 508.21 10.4722 508.201 10.6304V11.1124H507.943C507.841 11.1124 507.743 11.151 507.671 11.2197C507.599 11.2885 507.558 11.3817 507.558 11.4789C507.558 11.5761 507.599 11.6694 507.671 11.7381C507.743 11.8068 507.841 11.8454 507.943 11.8454H508.201V12.3788H507.943C507.839 12.3788 507.739 12.4181 507.666 12.488C507.593 12.5579 507.551 12.6528 507.551 12.7517C507.551 12.8506 507.593 12.9455 507.666 13.0154C507.739 13.0854 507.839 13.1247 507.943 13.1247H508.201V13.658H507.943C507.839 13.658 507.738 13.6975 507.665 13.7677C507.591 13.838 507.549 13.9334 507.549 14.0328C507.549 14.1322 507.591 14.2275 507.665 14.2978C507.738 14.368 507.839 14.4075 507.943 14.4075H508.201V16.0569H505.055V14.4075H505.313C505.418 14.4075 505.518 14.368 505.592 14.2978C505.665 14.2275 505.707 14.1322 505.707 14.0328C505.707 13.9334 505.665 13.838 505.592 13.7677C505.518 13.6975 505.418 13.658 505.313 13.658H505.055V13.1412H505.313C505.417 13.1412 505.517 13.1019 505.59 13.0319C505.664 12.962 505.705 12.8671 505.705 12.7682C505.705 12.6693 505.664 12.5744 505.59 12.5045C505.517 12.4345 505.417 12.3953 505.313 12.3953H505.055V11.8619H505.313C505.391 11.8616 505.467 11.8395 505.531 11.7983C505.596 11.7571 505.646 11.6987 505.676 11.6304C505.706 11.5621 505.714 11.4869 505.699 11.4144C505.684 11.3418 505.647 11.275 505.592 11.2223C505.518 11.1524 505.418 11.1129 505.313 11.1124H505.055V10.6304C505.055 10.4666 504.987 10.3095 504.865 10.1937C504.744 10.0778 504.579 10.0128 504.407 10.0128C504.234 10.0128 504.069 10.0778 503.948 10.1937C503.826 10.3095 503.758 10.4666 503.758 10.6304V11.1124H503.5C503.398 11.1147 503.302 11.1541 503.23 11.2223C503.159 11.2905 503.117 11.3824 503.115 11.4789C503.115 11.5761 503.155 11.6694 503.227 11.7381C503.3 11.8068 503.398 11.8454 503.5 11.8454H503.758V12.3788H503.5C503.396 12.3788 503.296 12.4181 503.223 12.488C503.149 12.5579 503.108 12.6528 503.108 12.7517C503.108 12.8506 503.149 12.9455 503.223 13.0154C503.296 13.0854 503.396 13.1247 503.5 13.1247H503.758V13.658H503.5C503.395 13.658 503.295 13.6975 503.221 13.7677C503.148 13.838 503.106 13.9334 503.106 14.0328C503.106 14.1322 503.148 14.2275 503.221 14.2978C503.295 14.368 503.395 14.4075 503.5 14.4075H503.758V16.0569H500.614V14.4075H500.87C500.974 14.4075 501.075 14.368 501.148 14.2978C501.222 14.2275 501.264 14.1322 501.264 14.0328C501.264 13.9334 501.222 13.838 501.148 13.7677C501.075 13.6975 500.974 13.658 500.87 13.658H500.614V13.1412H500.87C500.974 13.1412 501.074 13.1019 501.147 13.0319C501.22 12.962 501.262 12.8671 501.262 12.7682C501.262 12.6693 501.22 12.5744 501.147 12.5045C501.074 12.4345 500.974 12.3953 500.87 12.3953H500.614V11.8619H500.87C500.973 11.862 501.072 11.8236 501.146 11.7552C501.219 11.6867 501.262 11.5935 501.265 11.4954C501.264 11.3959 501.223 11.3005 501.149 11.2297C501.113 11.1944 501.069 11.1664 501.021 11.1475C500.973 11.1286 500.922 11.1192 500.87 11.1197H500.614V10.6304C500.614 10.4661 500.545 10.3085 500.423 10.1924C500.301 10.0762 500.136 10.0109 499.963 10.0109C499.791 10.0109 499.625 10.0762 499.503 10.1924C499.381 10.3085 499.313 10.4661 499.313 10.6304V11.1124H499.056C498.953 11.1123 498.855 11.1507 498.781 11.2192C498.707 11.2876 498.664 11.3809 498.662 11.4789C498.662 11.5278 498.672 11.5763 498.692 11.6213C498.712 11.6664 498.741 11.7072 498.778 11.7414C498.815 11.7755 498.858 11.8023 498.906 11.8202C498.954 11.8381 499.005 11.8467 499.056 11.8454H499.313V12.3788H499.056C498.953 12.3788 498.853 12.4181 498.779 12.488C498.706 12.5579 498.665 12.6528 498.665 12.7517C498.665 12.8506 498.706 12.9455 498.779 13.0154C498.853 13.0854 498.953 13.1247 499.056 13.1247H499.313V13.658H499.056C498.952 13.658 498.852 13.6975 498.778 13.7677C498.704 13.838 498.663 13.9334 498.663 14.0328C498.663 14.1322 498.704 14.2275 498.778 14.2978C498.852 14.368 498.952 14.4075 499.056 14.4075H499.313V16.0569H495.11V18.6135H483.653V16.9531H457.897V18.6025H457.207C456.256 18.6025 455.343 18.9625 454.67 19.6031C453.997 20.2437 453.619 21.1126 453.619 22.0187V27.7366H452.065V22.596H450.856V23.811H449.949V20.4957H448.739V21.1591H447.834V18.3936H446.625V21.1591H445.718V15.7179H444.507V17.8676H443.6V13.4509H442.391V27.7458H429.482V30H678V19.7058L675.245 17.9354ZM460.426 9.364V6.38955L469.444 9.364H460.426ZM470.545 9.26137L461.562 6.30159H470.545V9.26137ZM471.005 9.364V6.38955L480.022 9.364H471.005ZM481.124 9.26137L472.141 6.30159H481.124V9.26137ZM444.507 27.7421H443.6V25.301H444.507V27.7421ZM444.507 23.8055H443.6V22.6528H444.507V23.8055ZM444.507 21.1591H443.6V19.3613H444.507V21.1591ZM446.625 27.7421H445.718V25.301H446.625V27.7421ZM446.625 23.8055H445.718V22.6528H446.625V23.8055ZM448.742 27.7421H447.838V25.301H448.742V27.7421ZM448.742 23.8055H447.838V22.6528H448.742V23.8055ZM450.86 27.7421H449.949V25.301H450.856L450.86 27.7421ZM457.9 27.7421H456.378V22.0242C456.378 21.8147 456.465 21.6138 456.621 21.4656C456.776 21.3175 456.987 21.2343 457.207 21.2343H457.897L457.9 27.7421ZM495.114 23.3437H493.693V22.4732H493.241V24.6449H493.693V23.7744H495.11V25.8966H493.689V25.0261H493.237V27.1997H493.689V26.3291H495.11V27.7421H483.653V20.8677H495.11L495.114 23.3437ZM515.305 19.178H518.098V22.1781H515.305V19.178ZM525.175 27.7421H515.305V23.3052H518.098V24.6101C518.099 25.1483 518.324 25.6643 518.724 26.0449C519.124 26.4255 519.666 26.6397 520.231 26.6407H525.175V27.7421ZM527.41 23.2356L525.175 24.5807V25.5136H520.231C519.98 25.5136 519.738 25.4184 519.56 25.249C519.382 25.0795 519.282 24.8497 519.282 24.6101V23.3052H523.903C524.552 23.3047 525.175 23.0588 525.635 22.6213C526.094 22.1839 526.353 21.5908 526.353 20.9722V14.6953C526.354 14.4109 526.46 14.136 526.653 13.9191C526.846 13.7021 527.114 13.5571 527.408 13.5095L527.41 23.2356ZM527.41 12.3733C526.8 12.4245 526.232 12.6911 525.818 13.1208C525.403 13.5504 525.173 14.112 525.171 14.6953V20.9722C525.171 21.2919 525.037 21.5983 524.8 21.8244C524.562 22.0504 524.24 22.1776 523.905 22.1781H519.284V19.178H520.551C521.2 19.177 521.822 18.9311 522.281 18.4942C522.74 18.0572 522.999 17.4648 523 16.8468V11.1655C523 10.8455 523.134 10.5388 523.372 10.3127C523.61 10.0866 523.932 9.95962 524.268 9.95962H527.41V12.3733ZM527.41 8.82336H524.268C523.946 8.8236 523.626 8.8844 523.328 9.00227C523.03 9.12016 522.76 9.2928 522.532 9.51034C522.304 9.72788 522.124 9.98604 522.001 10.2701C521.878 10.5541 521.815 10.8584 521.816 11.1655V16.8468C521.815 17.1665 521.682 17.473 521.444 17.699C521.207 17.925 520.885 18.0523 520.549 18.0527H519.282V8.75188C519.282 8.21348 519.057 7.69727 518.657 7.31656C518.257 6.93585 517.715 6.72176 517.149 6.72127H493.329C493.395 6.50316 493.534 6.31145 493.725 6.17495C493.916 6.03845 494.148 5.96455 494.386 5.96437H526.307C526.599 5.96486 526.879 6.0754 527.086 6.27183C527.293 6.46827 527.409 6.73462 527.41 7.01267V8.82336ZM532.843 24.0621H530.983V21.0858L528.594 22.5281V13.4912H532.83L532.843 24.0621ZM532.843 12.3641H528.608V9.95045H532.843V12.3641ZM545.449 27.7421H542.904V26.8551H545.443L545.449 27.7421ZM545.449 26.078H542.904V24.9784H545.443L545.449 26.078ZM545.449 24.2069H542.904V23.1073H545.443L545.449 24.2069ZM545.449 22.3375H542.904V21.2379H545.443L545.449 22.3375ZM545.449 20.4664H542.904V19.3668H545.443L545.449 20.4664ZM545.449 18.5952H542.904V17.4956H545.443L545.449 18.5952ZM549.944 3.62037C549.829 3.64304 549.726 3.70254 549.652 3.78894C549.578 3.87534 549.537 3.98339 549.536 4.09504V4.42859C548.385 4.63681 547.346 5.22085 546.599 6.08C545.852 6.93914 545.443 8.01955 545.443 9.13491V16.724H542.904V9.13491C542.904 8.01955 542.495 6.93914 541.748 6.08C541.001 5.22085 539.962 4.63681 538.811 4.42859V4.09504C538.81 3.98348 538.769 3.8756 538.695 3.78927C538.621 3.70294 538.518 3.64335 538.403 3.62037V3.50675C538.403 3.41842 538.421 3.33091 538.456 3.24922C538.491 3.16752 538.543 3.09324 538.608 3.03061C538.674 2.96799 538.752 2.91824 538.837 2.88422C538.923 2.8502 539.015 2.83256 539.107 2.83232H549.942L549.944 3.62037ZM559.892 27.7421H555.51V9.13491C555.509 8.01964 555.1 6.93942 554.353 6.08034C553.606 5.22127 552.568 4.63714 551.417 4.42859V4.09504C551.416 3.98348 551.375 3.8756 551.301 3.78927C551.226 3.70294 551.123 3.64335 551.009 3.62037V2.83232H556.084C556.176 2.83232 556.269 2.84978 556.354 2.88369C556.44 2.91761 556.518 2.96732 556.584 3.02997C556.649 3.09262 556.701 3.16698 556.737 3.24879C556.772 3.33061 556.79 3.41827 556.79 3.50675V20.2245C556.791 20.672 556.978 21.101 557.31 21.4175C557.642 21.7339 558.093 21.9119 558.563 21.9124H559.892V27.7421ZM605.244 7.26558C606.738 7.08231 608.213 6.88438 609.659 6.67729C607.395 7.55697 605.142 8.35113 602.9 9.05977C600.899 9.34384 598.857 9.59125 596.785 9.80201C599.675 9.04878 602.513 8.20024 605.244 7.26558ZM600.83 9.69938C591.222 12.5602 581.823 13.9145 572.736 13.7459C579.732 13.3244 587.254 12.1478 594.517 10.3775C594.927 10.3408 595.338 10.306 595.748 10.2657C597.461 10.1093 599.155 9.92052 600.83 9.69938ZM603.554 7.46351C600.653 8.40917 597.646 9.2632 594.594 10.0091C585.29 10.8265 575.655 10.8448 567.573 9.67739C577.518 9.68472 591.096 8.94065 603.554 7.47084V7.46351ZM568.688 13.3153C568.584 13.315 568.482 13.3342 568.387 13.3717C568.292 13.4092 568.205 13.4643 568.132 13.5338C568.059 13.6033 568.002 13.6859 567.963 13.7767C567.923 13.8675 567.904 13.9648 567.904 14.063V16.6636L566.148 15.7032V9.91747C566.151 9.88025 566.151 9.84289 566.148 9.80567C570.769 10.5681 576.128 10.9529 581.904 10.9529C585.236 10.9529 588.709 10.8246 592.255 10.5681C584.484 12.3238 576.511 13.3867 569.281 13.5627C569.206 13.4835 569.114 13.4205 569.012 13.3778C568.91 13.3351 568.799 13.3138 568.688 13.3153ZM572.707 27.7421H572.166V26.6847H572.707C572.56 26.8251 572.478 27.0152 572.478 27.2134C572.478 27.4116 572.56 27.6017 572.707 27.7421ZM574.894 27.7421H573.849C573.993 27.6005 574.074 27.4108 574.074 27.2134C574.074 27.0159 573.993 26.8263 573.849 26.6847H574.904C574.758 26.8258 574.677 27.0157 574.677 27.2134C574.677 27.4111 574.758 27.601 574.904 27.7421H574.894ZM577.081 27.7421H576.026C576.172 27.601 576.253 27.4111 576.253 27.2134C576.253 27.0157 576.172 26.8258 576.026 26.6847H577.081C576.936 26.8258 576.854 27.0157 576.854 27.2134C576.854 27.4111 576.936 27.601 577.081 27.7421ZM579.27 27.7421H578.215C578.361 27.601 578.442 27.4111 578.442 27.2134C578.442 27.0157 578.361 26.8258 578.215 26.6847H579.27C579.123 26.8251 579.041 27.0152 579.041 27.2134C579.041 27.4116 579.123 27.6017 579.27 27.7421ZM581.457 27.7421H580.394C580.54 27.601 580.621 27.4111 580.621 27.2134C580.621 27.0157 580.54 26.8258 580.394 26.6847H581.449C581.305 26.8263 581.224 27.0159 581.224 27.2134C581.224 27.4108 581.305 27.6005 581.449 27.7421H581.457ZM583.644 27.7421H582.589C582.736 27.6017 582.818 27.4116 582.818 27.2134C582.818 27.0152 582.736 26.8251 582.589 26.6847H583.644C583.5 26.8263 583.419 27.0159 583.419 27.2134C583.419 27.4108 583.5 27.6005 583.644 27.7421ZM585.664 27.7421H584.778C584.924 27.601 585.005 27.4111 585.005 27.2134C585.005 27.0157 584.924 26.8258 584.778 26.6847H585.664V27.7421ZM592.979 27.7421H590.197V19.8909H592.977L592.979 27.7421ZM598.784 27.7421H596.002V19.8909H598.782L598.784 27.7421ZM604.588 27.7421H601.804V19.8909H604.586L604.588 27.7421ZM610.392 27.7421H607.609V19.8909H610.39L610.392 27.7421ZM610.876 8.69507H609.245L585.664 16.3795V26.232H572.166V22.0022L576.402 21.7511C578.96 21.5971 581.386 20.6185 583.282 18.9764H572.153L569.473 17.5103V14.063C569.476 14.0301 569.476 13.997 569.473 13.964C571.081 14.0593 572.697 14.1076 574.321 14.1088C580.093 14.0965 585.849 13.5217 591.499 12.3934C595.364 11.6201 599.177 10.6287 602.919 9.42448C605.672 9.03411 608.338 8.57778 610.87 8.06829L610.876 8.69507ZM610.876 7.71092C608.95 8.09578 606.96 8.44399 604.908 8.77021C606.889 8.097 608.879 7.36393 610.876 6.57099V7.71092ZM610.876 6.1568C609.528 6.3584 608.163 6.549 606.775 6.73043C608.174 6.22828 609.541 5.70474 610.876 5.15983V6.1568ZM613.686 5.40174V5.71696C613.286 5.78294 612.882 5.8483 612.473 5.91306C612.876 5.74934 613.28 5.5789 613.684 5.40174H613.686ZM611.967 6.33457C612.545 6.24661 613.122 6.15131 613.69 6.05967V7.11163C613.126 7.23992 612.55 7.36454 611.967 7.48733V6.33457ZM611.967 7.8447C612.545 7.72191 613.122 7.59729 613.69 7.46717V8.69507H611.967V7.8447ZM616.202 27.7421H613.413V19.8909H616.202V27.7421ZM616.505 8.69507H614.782V7.21426C615.359 7.07681 615.937 6.93203 616.505 6.78908V8.69507ZM616.505 6.43171C615.941 6.57588 615.367 6.71822 614.782 6.85872V5.88007C615.363 5.77988 615.937 5.67847 616.505 5.57584V6.43171ZM619.315 8.69507H617.583V6.49585C618.17 6.33824 618.738 6.17513 619.315 6.01019V8.69507ZM619.315 5.66015C618.757 5.82509 618.182 5.98636 617.583 6.14581V5.37608C618.16 5.26429 618.738 5.1525 619.315 5.03704V5.66015ZM622.126 8.69507H620.394V5.68581C620.985 5.50254 621.56 5.31927 622.126 5.12317V8.69507ZM643.981 6.37489C643.436 6.55691 642.964 6.89526 642.63 7.34331C642.296 7.79136 642.116 8.32704 642.115 8.8765V27.7421H636.093V24.8318H637.764C638.377 24.8318 638.965 24.6001 639.398 24.1877C639.831 23.7753 640.074 23.2159 640.074 22.6326V4.01807C640.074 3.95895 640.086 3.90036 640.11 3.84567C640.133 3.79099 640.168 3.74127 640.212 3.69938C640.256 3.6575 640.308 3.62426 640.365 3.60158C640.423 3.5789 640.484 3.56723 640.546 3.56723H643.503C643.565 3.56698 643.627 3.57848 643.685 3.60105C643.742 3.62362 643.795 3.65682 643.839 3.69873C643.883 3.74065 643.917 3.79044 643.941 3.84525C643.965 3.90006 643.977 3.95879 643.977 4.01807L643.981 6.37489ZM648.926 27.7421H647.685V26.6792H648.926V27.7421ZM648.926 26.243H647.685V25.0481H648.926V26.243ZM648.926 24.6101H647.685V13.4106H648.926V24.6101ZM648.926 12.9725H647.685V11.7795H648.926V12.9725ZM650.792 6.37489C650.247 6.55691 649.775 6.89526 649.441 7.34331C649.107 7.79136 648.927 8.32704 648.926 8.8765V11.3488H647.685V8.8765C647.684 8.3272 647.505 7.79156 647.171 7.34348C646.837 6.89541 646.365 6.55698 645.821 6.37489V5.77194H650.719C650.728 5.77194 650.738 5.7738 650.747 5.77741C650.756 5.78103 650.764 5.78632 650.771 5.79298C650.778 5.79964 650.783 5.80754 650.787 5.8162C650.79 5.82486 650.792 5.83412 650.792 5.84342V6.37489ZM657.863 15.1974H654.488V14.5505H658.664L657.863 15.1974ZM659.211 14.1088H654.496V13.4106H660.079L659.211 14.1088ZM667.273 27.7385H662.168V26.8514H667.273V27.7385ZM667.273 25.9864H662.168V24.9968H667.273V25.9864ZM667.273 24.1354H662.168V23.1458H667.273V24.1354ZM667.273 22.2807H662.168V21.2911H667.273V22.2807ZM667.273 20.4279H662.168V19.4382H667.273V20.4279ZM667.273 18.5751H662.168V17.5799H667.273V18.5751Z" fill="white"/>
<path fill-rule="evenodd" clip-rule="evenodd" d="M348.918 30.0003H430.165V20.7221H424.254V25.7388L421.729 22.2773V19.3489C422.707 18.7815 423.279 18.0535 423.081 17.493C422.915 17.0249 422.273 16.7759 421.418 16.7759V11.7126C421.47 11.6923 421.519 11.6661 421.564 11.6349C421.605 11.6069 421.643 11.5744 421.677 11.5388C421.716 11.498 421.75 11.4528 421.778 11.4044C421.801 11.3636 421.821 11.3209 421.835 11.277C421.861 11.2012 421.872 11.1229 421.87 11.0445C421.869 11.0216 421.867 10.9987 421.864 10.9758C421.855 10.9102 421.837 10.8458 421.81 10.7853C421.795 10.7528 421.778 10.721 421.758 10.6904C421.701 10.6044 421.625 10.5306 421.536 10.4752C421.447 10.4191 421.346 10.3828 421.24 10.3688C421.135 10.3542 421.027 10.3618 420.925 10.3911C420.824 10.4204 420.729 10.4707 420.649 10.5388L416.632 9.46378L416.755 9.03898L405.748 6.09337L405.849 5.08772C405.86 4.9527 405.822 4.81768 405.741 4.70686C405.659 4.59541 405.541 4.51516 405.404 4.47886L404.327 4.21009C404.2 4.17824 404.065 4.18652 403.944 4.23429C403.823 4.28142 403.721 4.36549 403.653 4.47312L402.857 5.75263C402.801 5.84371 402.772 5.94816 402.773 6.05388L402.8 10.3542C402.801 10.4376 402.821 10.5197 402.858 10.5955C402.895 10.6707 402.949 10.7376 403.015 10.7911V11.198C402.976 11.2159 402.941 11.242 402.914 11.2751C402.887 11.3082 402.868 11.3471 402.86 11.3878L402.486 13.0616C402.477 13.1017 402.479 13.1431 402.488 13.1832C402.499 13.2233 402.517 13.2603 402.544 13.2928C402.571 13.3246 402.605 13.3501 402.645 13.3679C402.683 13.3857 402.726 13.3947 402.769 13.3947H403.012V22.7289H401.85V26.7082L399.888 24.0205V21.8704C400.174 21.7048 400.413 21.5214 400.587 21.3347C400.854 21.0494 400.971 20.7558 400.883 20.5068C400.765 20.1807 400.328 20.003 399.738 19.9871V16.2244C399.815 16.1779 399.878 16.1142 399.922 16.0384C399.966 15.9626 399.989 15.8772 399.989 15.7906C399.99 15.7027 399.968 15.6161 399.924 15.5391C399.88 15.462 399.817 15.397 399.739 15.3499C399.662 15.3034 399.573 15.2767 399.481 15.2722C399.39 15.2677 399.299 15.2856 399.216 15.3244L396.167 14.5079L396.293 14.085L388.155 11.9075L388.207 11.3897C388.218 11.2891 388.189 11.1878 388.129 11.105C388.069 11.0216 387.979 10.9617 387.876 10.9363L387.085 10.7376C386.992 10.714 386.893 10.7197 386.803 10.7548C386.714 10.7898 386.639 10.8516 386.589 10.9312L386.004 11.8719C385.963 11.9387 385.941 12.0145 385.94 12.0922L385.963 15.262C385.963 15.362 386.001 15.4588 386.069 15.5346H386.043V15.8409C385.985 15.8811 385.945 15.9403 385.931 16.0072L385.66 17.2383C385.655 17.2574 385.653 17.2771 385.653 17.2969C385.653 17.3179 385.656 17.3389 385.661 17.3593C385.671 17.3994 385.691 17.4364 385.718 17.4676C385.745 17.4994 385.779 17.5249 385.817 17.5427C385.855 17.5605 385.898 17.5695 385.94 17.5701H386.043V24.2893H385.19V27.796H384.152L379.586 25.7388L379.102 18.9693C379.109 18.9318 379.109 18.8936 379.102 18.8566L378.55 11.205H377.927V9.14088C377.927 9.06827 377.897 8.99822 377.844 8.94663C377.79 8.89504 377.717 8.86574 377.641 8.86511H376.871V7.28499H377.641C377.717 7.28435 377.79 7.25505 377.843 7.2041C377.896 7.15251 377.927 7.08309 377.927 7.01049V2.86625C377.922 2.79683 377.889 2.73251 377.835 2.68538C377.783 2.63825 377.713 2.61213 377.641 2.61213C377.568 2.61213 377.498 2.63825 377.445 2.68538C377.413 2.7134 377.389 2.74779 377.373 2.78537C377.362 2.81084 377.356 2.83823 377.353 2.86625V6.72771H376.871V4.87309C376.874 4.83488 376.869 4.79666 376.856 4.76036C376.843 4.72469 376.822 4.69158 376.795 4.66355C376.768 4.63553 376.736 4.61324 376.699 4.59795C376.663 4.58267 376.623 4.57439 376.584 4.57439C376.544 4.57439 376.504 4.58267 376.468 4.59795C376.431 4.61324 376.399 4.63553 376.372 4.66355C376.345 4.69158 376.324 4.72469 376.311 4.76036C376.298 4.79666 376.293 4.83488 376.296 4.87309V6.72771H375.818V2.86625C375.818 2.79301 375.787 2.72232 375.733 2.67073C375.707 2.64525 375.676 2.62551 375.642 2.61213C375.607 2.59749 375.569 2.58984 375.53 2.58984C375.453 2.58984 375.38 2.61914 375.326 2.67073C375.296 2.69875 375.274 2.73251 375.26 2.76881C375.248 2.79938 375.242 2.8325 375.242 2.86625V7.01049C375.243 7.0538 375.255 7.09583 375.276 7.13341C375.29 7.15697 375.307 7.17926 375.328 7.19837C375.38 7.24868 375.452 7.27671 375.526 7.27734H376.296V8.8581H375.522C375.445 8.8581 375.372 8.88676 375.318 8.93899C375.264 8.99057 375.234 9.06063 375.234 9.13387V11.205H374.613L374.078 18.8655L374.07 18.9031L374.067 18.9388C374.066 18.9521 374.066 18.9649 374.067 18.9783L373.749 23.4295C373.729 23.4645 373.717 23.5034 373.714 23.5428C373.711 23.583 373.717 23.6231 373.732 23.6607L373.65 24.8217H368.54V20.6214H367.634V13.4704H367.76C367.803 13.4704 367.846 13.4609 367.885 13.4431C367.924 13.4259 367.958 13.3998 367.986 13.3679C368.001 13.3501 368.013 13.3303 368.023 13.31C368.031 13.2934 368.037 13.2762 368.042 13.2584C368.052 13.2182 368.052 13.1768 368.042 13.1367L367.756 11.8324C367.748 11.7891 367.729 11.7489 367.701 11.7145C367.683 11.691 367.66 11.6706 367.634 11.6534V11.3197C367.706 11.2388 367.745 11.1369 367.747 11.0312L367.767 7.67349C367.769 7.59069 367.746 7.50981 367.702 7.43848L367.083 6.44238C367.03 6.35831 366.951 6.29208 366.856 6.25514C366.761 6.2182 366.656 6.21119 366.557 6.23667L365.719 6.4462C365.656 6.46149 365.598 6.48951 365.548 6.52773C365.511 6.55511 365.478 6.58759 365.451 6.62453C365.387 6.71242 365.358 6.81942 365.368 6.92642L365.428 7.52509L356.823 9.83063L356.947 10.2554L353.743 11.112C353.657 11.0668 353.562 11.0426 353.464 11.042C353.389 11.0375 353.314 11.0477 353.244 11.0713C353.194 11.0885 353.146 11.112 353.103 11.142C353.06 11.1713 353.022 11.2057 352.99 11.2445C352.943 11.3012 352.909 11.3668 352.889 11.4381C352.855 11.5572 352.865 11.684 352.917 11.7973C352.97 11.9101 353.061 12.0024 353.176 12.0585V16.0377C352.544 16.0486 352.069 16.2403 351.946 16.5861C351.79 17.0249 352.232 17.5911 353.001 18.0338V20.3202L349.723 24.8128L348.918 25.7102L348.918 30.0003ZM411.737 22.0353H415.065L411.39 25.556L411.737 22.0353ZM416.915 25.9879H411.75L415.632 22.2697L416.915 25.9879ZM414.567 19.1827L415.36 21.4851H412.164L414.567 19.1827ZM412.042 18.9458H413.999L411.834 21.0195L412.042 18.9458ZM413.86 17.1415L414.296 18.3961H412.551L413.86 17.1415ZM413.539 16.2008L413.656 16.5485L412.135 18L412.3 16.3282C412.437 16.36 412.578 16.3778 412.719 16.3804C412.901 16.381 413.081 16.3562 413.254 16.3071C413.351 16.2791 413.447 16.2435 413.539 16.2008ZM419.146 20.1826L418.36 27.796H418.145L414.019 15.8263C414.089 15.7365 414.138 15.6333 414.165 15.5251C414.178 15.4684 414.185 15.4104 414.186 15.3518C414.172 15.1658 414.105 14.9875 413.991 14.8372C413.877 14.6863 413.72 14.5697 413.54 14.5003V9.89368L416.296 10.6318L416.419 10.207L420.439 11.2821C420.469 11.377 420.52 11.4642 420.588 11.5388C420.657 11.6133 420.741 11.6731 420.835 11.7139V16.8084C420.377 16.8612 419.926 16.9606 419.49 17.1058C417.784 17.6631 416.629 18.7382 416.901 19.5069C417.006 19.7897 417.292 19.9916 417.695 20.1056C418.088 20.217 418.592 20.2444 419.146 20.1826ZM417.188 26.7763L417.539 27.796H416.121L417.188 26.7763ZM416.617 26.5419L415.308 27.796H411.168L411.292 26.5419H416.617ZM403.721 11.2592C403.685 11.2216 403.639 11.1942 403.588 11.1802L403.581 10.9044C403.662 10.8809 403.737 10.8414 403.802 10.7879C403.867 10.7344 403.919 10.6681 403.955 10.5943L405.325 7.69833L412.379 9.58734V14.3519C412.023 14.4099 411.714 14.5633 411.51 14.7729C411.351 14.9378 411.257 15.1372 411.257 15.3518C411.265 15.5079 411.314 15.6588 411.399 15.7925C411.483 15.9257 411.602 16.0365 411.742 16.1148L411.183 21.6914C411.177 21.7239 411.177 21.757 411.183 21.7895L410.591 27.796H404.745V22.7289H403.591V13.3947H403.833C403.853 13.3947 403.874 13.3927 403.894 13.3883C403.915 13.3838 403.936 13.3775 403.955 13.3685C403.994 13.3513 404.028 13.3259 404.055 13.2947C404.082 13.2635 404.102 13.2265 404.112 13.1877C404.119 13.1641 404.122 13.1399 404.122 13.1157C404.122 13.0991 404.121 13.0832 404.117 13.0673L403.791 11.3936C403.781 11.3432 403.757 11.2967 403.721 11.2592ZM393.031 19.6737C393.108 19.6865 393.187 19.6928 393.265 19.6935C393.447 19.6935 393.628 19.6604 393.796 19.5948L393.866 19.7992L392.93 20.6947L393.031 19.6737ZM392.62 23.9256H394.814L392.39 26.2547L392.62 23.9256ZM396.245 26.6884H392.743L395.373 24.1619L396.245 26.6884ZM394.589 21.8831L395.109 23.3753L393.04 23.3683L394.589 21.8831ZM392.844 21.6538H394.03L392.721 22.9079L392.844 21.6538ZM394.076 20.3864L394.325 21.1036H393.329L394.076 20.3864ZM397.993 22.4888L397.443 27.796L397.234 27.8049L394.267 19.2044C394.314 19.1222 394.338 19.0305 394.339 18.9369C394.329 18.8006 394.279 18.6694 394.195 18.5586C394.111 18.4484 393.996 18.3624 393.864 18.3114V15.1512L395.829 15.676L395.953 15.2531L399.002 16.0664C399.043 16.1295 399.1 16.183 399.166 16.2224V20.0158C398.855 20.0571 398.55 20.1285 398.253 20.2272C397 20.6374 396.149 21.4277 396.351 21.992C396.497 22.4041 397.161 22.5799 397.993 22.4888ZM396.516 27.4737L396.626 27.796H396.177L396.516 27.4737ZM395.947 27.2387L395.365 27.796H392.229L392.285 27.2387H395.947ZM386.721 15.9027C386.696 15.869 386.663 15.8422 386.625 15.8231L386.632 15.6295C386.714 15.5836 386.78 15.5149 386.82 15.4321L387.745 13.5093L393.027 14.9251V18.2025C392.55 18.2796 392.195 18.5789 392.195 18.9369C392.198 19.0375 392.224 19.1356 392.273 19.2247C392.322 19.3133 392.391 19.3903 392.476 19.4496L392.059 23.5849C392.056 23.611 392.056 23.6365 392.059 23.6619L391.651 27.796H387.478V24.2893H386.625V17.5701H386.728C386.77 17.5701 386.812 17.5612 386.85 17.5434C386.888 17.5262 386.922 17.5007 386.949 17.4695C386.976 17.4389 386.995 17.4032 387.006 17.3644C387.016 17.3255 387.018 17.2848 387.01 17.2453L386.771 16.0148C386.764 15.9741 386.746 15.9358 386.721 15.9027ZM374.37 22.8021L374.602 19.5534L376.181 21.0679L374.37 22.8021ZM376.586 20.6768L374.757 18.9229L376.586 17.1701L378.418 18.9229L376.586 20.6768ZM376.586 13.4991L378.1 14.9487L376.586 16.3982L375.073 14.9487L376.586 13.4991ZM376.181 16.7867L374.697 18.2095L374.886 15.5467L376.181 16.7867ZM374.978 14.2551L375.131 12.105L376.181 13.103L374.978 14.2551ZM375.818 9.41729H377.357V11.2089H375.818V9.41729ZM376.586 12.7266L375.584 11.7661H377.592L376.586 12.7266ZM376.994 13.117L378.042 12.1139L378.195 14.2678L376.994 13.117ZM376.994 16.7956L378.287 15.5556L378.478 18.2185L376.994 16.7956ZM376.994 21.0679L378.575 19.5534L378.807 22.804L376.994 21.0679ZM378.891 24.0027L378.996 25.4669L377.884 24.9669L378.891 24.0027ZM378.659 23.4473L377.234 24.8109L375.717 24.8052L374.407 23.5511L376.586 21.4615L378.659 23.4473ZM374.271 24.1995L374.909 24.8109H374.226L374.271 24.1995ZM359.36 15.8409L359.438 15.6117C359.622 15.6881 359.821 15.7269 360.022 15.7263C360.11 15.7257 360.199 15.718 360.286 15.7027L360.398 16.8319L359.36 15.8409ZM356.844 23.1531L357.779 20.4297L360.621 23.1531H356.844ZM360.729 20.1947L360.978 22.7142L358.34 20.1947H360.729ZM358.608 18.0306L360.3 19.6432H358.047L358.608 18.0306ZM360.491 17.7866L360.628 19.177L359.182 17.7866H360.491ZM359.159 16.4269L360.007 17.2364H358.881L359.159 16.4269ZM361.762 24.8128L361.281 19.9368C361.28 19.9088 361.276 19.8814 361.268 19.8546L360.835 15.4805C360.894 15.4416 360.946 15.3951 360.991 15.3423C361.018 15.3098 361.043 15.2754 361.064 15.2391C361.12 15.1423 361.152 15.0353 361.157 14.9251C361.157 14.7137 361.04 14.522 360.85 14.3793C360.698 14.2653 360.498 14.1825 360.275 14.1455V10.6229L365.85 9.12878L366.847 11.2178C366.893 11.3127 366.972 11.3891 367.069 11.4343V11.6356C367.03 11.654 366.995 11.6814 366.968 11.7152C366.941 11.7489 366.922 11.7884 366.914 11.8305L366.66 13.1348C366.652 13.1749 366.654 13.2163 366.664 13.2552C366.675 13.2947 366.695 13.331 366.722 13.3622C366.749 13.3934 366.783 13.4182 366.822 13.4354C366.86 13.4526 366.902 13.4615 366.944 13.4609H367.071V20.6125H366.166V24.8128H361.762ZM361.075 23.7033L361.186 24.8128H358.294L357.136 23.7033H361.075ZM356.568 23.9396L357.48 24.8128H356.268L356.568 23.9396ZM354.738 16.2906C354.419 16.1855 354.089 16.111 353.754 16.0683L353.752 12.0508C353.839 12.0018 353.91 11.9324 353.96 11.8483L357.164 10.9923L357.288 11.4165L359.384 10.856V14.2602C359.244 14.315 359.122 14.4067 359.033 14.5239C358.945 14.6417 358.892 14.7805 358.881 14.9251C358.881 15.0041 358.896 15.0818 358.927 15.1544C358.938 15.1799 358.95 15.2053 358.965 15.2295L355.66 24.8217H355.645L355.013 18.6987C355.896 18.7866 356.599 18.5987 356.756 18.1611C356.967 17.5625 356.066 16.7262 354.738 16.2906Z" fill="white"/>
<path fill-rule="evenodd" clip-rule="evenodd" d="M325.781 20.064H328.606L340.474 15.3835L345.578 25.6055H349.482L350.249 30.0001H340.474H212.089V25.7011L249.161 25.6674V17.1541L249.223 17.1382V16.3331H252.171L252.571 16.2223V15.181H256.821V16.2172L257.221 16.3281H260.167V17.1382L260.228 17.1541V25.2891L261.063 25.2604V17.1541L261.124 17.1382V16.3331H264.071L264.472 16.2223V15.181H268.722V16.2172L269.122 16.3281H272.066V17.1382L272.128 17.1541V24.8808L286.847 24.8089L289.74 23.9503V22.4116H290.374V14.348C290.331 14.348 290.289 14.3384 290.251 14.3206C290.228 14.3098 290.207 14.2964 290.187 14.2811C290.174 14.2703 290.162 14.2582 290.151 14.2454C290.137 14.2282 290.124 14.2091 290.115 14.1887C290.106 14.1715 290.1 14.1544 290.095 14.1365C290.085 14.0964 290.085 14.055 290.093 14.0149L290.296 13.099C290.307 13.0455 290.336 12.9965 290.378 12.9596V12.7678H290.468C290.419 12.7105 290.392 12.6392 290.391 12.5653L290.367 10.2018C290.367 10.1432 290.384 10.0865 290.415 10.0369L290.849 9.3382C290.867 9.31018 290.889 9.2847 290.914 9.26305C290.942 9.23885 290.975 9.2191 291.011 9.20573C291.079 9.17962 291.153 9.1758 291.224 9.1949L291.814 9.34139C291.89 9.36113 291.956 9.40635 292.001 9.46813C292.046 9.52991 292.066 9.60506 292.058 9.68021L292.042 9.84899L298.122 11.4775L297.996 11.9004L300.514 12.5761C300.581 12.5927 300.642 12.6258 300.692 12.6723C300.741 12.7188 300.777 12.7774 300.796 12.8411C300.814 12.9048 300.816 12.9723 300.799 13.0366C300.782 13.1009 300.749 13.1602 300.701 13.2086V16.0752C301.105 16.0988 301.397 16.2293 301.479 16.4573C301.578 16.7637 301.27 17.1592 300.731 17.4694V19.073L301.709 20.4118L302.878 20.064H307.22V16.2064H308.125V9.06052H307.997C307.954 9.06052 307.912 9.0516 307.873 9.03377C307.846 9.02167 307.821 9.00511 307.8 8.986C307.79 8.97772 307.781 8.96817 307.773 8.95798C307.746 8.92614 307.727 8.8892 307.716 8.84907C307.707 8.80895 307.706 8.76755 307.715 8.72679L308.003 7.42435C308.017 7.35175 308.061 7.28742 308.125 7.24539V6.91166C308.054 6.83141 308.014 6.73014 308.012 6.62506L307.99 3.26547C307.99 3.18267 308.013 3.10179 308.057 3.03046L308.676 2.03627C308.7 1.9987 308.729 1.96494 308.762 1.93565C308.802 1.90062 308.848 1.87196 308.899 1.85158C308.992 1.814 309.095 1.80572 309.192 1.82865L310.036 2.03818C310.145 2.06493 310.24 2.12862 310.305 2.21715C310.369 2.30504 310.398 2.41267 310.388 2.52031L310.326 3.11835L318.93 5.42261L318.805 5.84741L322.01 6.70594C322.057 6.67983 322.107 6.66072 322.159 6.64862C322.201 6.63907 322.244 6.63397 322.287 6.63397C322.417 6.62633 322.545 6.66072 322.649 6.73269C322.755 6.80466 322.831 6.90911 322.865 7.02884C322.899 7.14858 322.889 7.27532 322.836 7.38869C322.784 7.50205 322.692 7.5944 322.577 7.64981V11.6297C323.209 11.6425 323.683 11.8323 323.806 12.18C323.963 12.6169 323.522 13.1831 322.753 13.6257V15.9141L325.781 20.064ZM249.451 16.5535V17.0751L251.362 16.5535H249.451ZM254.694 15.6402L256.589 16.1599L256.598 15.4014H252.808V16.1599L254.694 15.6402ZM258.023 16.5535L259.935 17.0751V16.5535H258.023ZM261.353 16.5535V17.0751L263.264 16.5535H261.353ZM266.596 15.6402L268.49 16.1599V15.4014H264.7V16.1599L266.596 15.6402ZM269.925 16.5535L271.836 17.0751V16.5535H269.925ZM295.809 15.8478H295.709L295.655 16.4013L296.173 15.9052L296.135 15.7956C296.031 15.83 295.921 15.8472 295.809 15.8478ZM296.756 17.6197L295.821 18.5158H297.069L296.756 17.6197ZM295.247 20.5315L296.777 19.0679H295.393L295.247 20.5315ZM295.559 17.3796L295.492 18.0534L296.193 17.3796H295.559ZM296.374 16.4962L296.027 16.8299H296.489L296.374 16.4962ZM294.461 22.5549L294.835 18.7756L294.834 18.7546L294.835 18.7221L295.144 15.6026C295.103 15.5638 295.07 15.5186 295.046 15.4695C295.017 15.4116 295.002 15.3485 295 15.2836C295 15.0256 295.264 14.8033 295.617 14.746V12.5386L291.602 11.4629L291.01 12.6997C290.993 12.7347 290.97 12.7672 290.941 12.7946V12.9468C290.997 12.9888 291.035 13.0487 291.047 13.115L291.225 14.0289C291.233 14.069 291.231 14.1098 291.22 14.1493C291.21 14.1887 291.19 14.225 291.164 14.2569C291.137 14.2875 291.103 14.3129 291.065 14.3301C291.027 14.3473 290.985 14.3569 290.943 14.3569V22.4205H291.575V23.4096L294.461 22.5549ZM295.06 22.3772L297.478 21.6607L297.618 21.5282H295.142L295.06 22.3772ZM297.336 19.3023L295.589 20.9761H297.916L297.336 19.3023ZM299.506 16.2491C299.703 16.1841 299.906 16.1364 300.112 16.1058L300.104 13.2767L297.764 12.6494L297.641 13.0742L296.24 12.6997V14.825C296.339 14.8632 296.425 14.9269 296.488 15.0097C296.55 15.0925 296.588 15.1906 296.595 15.2925C296.595 15.3224 296.59 15.353 296.582 15.3816L298.64 21.3181L298.975 21.2181L299.313 17.9298C298.696 17.998 298.202 17.8655 298.091 17.5611C297.944 17.1452 298.57 16.5535 299.506 16.2491ZM316.386 11.4342L316.313 11.2049C316.128 11.2813 315.929 11.3202 315.728 11.3183C315.639 11.3177 315.551 11.31 315.464 11.2947L315.352 12.4252L316.386 11.4342ZM318.904 18.747L317.969 16.0217L315.122 18.747H318.904ZM315.036 15.7905L314.77 18.3081L317.419 15.7905H315.036ZM317.131 13.6226L315.447 15.2352H317.692L317.131 13.6226ZM315.256 13.3805L315.12 14.7709L316.566 13.3805H315.256ZM316.588 12.0189L315.741 12.8303H316.867L316.588 12.0189ZM314.028 20.064L314.475 15.5268C314.471 15.5001 314.471 15.4733 314.475 15.4466L314.91 11.0724C314.816 11.01 314.737 10.9272 314.682 10.8311C314.626 10.7343 314.594 10.6273 314.589 10.5171C314.589 10.3018 314.71 10.1069 314.908 9.96363C315.058 9.85408 315.253 9.77447 315.472 9.73944V6.2149L309.896 4.72203L308.899 6.80975C308.853 6.90401 308.775 6.98108 308.676 7.0263V7.22755C308.716 7.24602 308.751 7.27341 308.778 7.30716C308.805 7.34092 308.823 7.38041 308.832 7.42244L309.084 8.72679C309.093 8.76691 309.091 8.80767 309.081 8.84716C309.071 8.88665 309.051 8.92359 309.024 8.95479C308.997 8.986 308.963 9.01084 308.924 9.02804C308.886 9.04523 308.844 9.05351 308.802 9.05288H308.676V16.2064H309.585V20.064H314.028ZM314.604 20.064H317.817L318.619 19.2972H314.68L314.604 20.064ZM319.193 19.5265L318.632 20.064H319.381L319.193 19.5265ZM321.021 11.8845C321.339 11.7781 321.666 11.703 321.999 11.6603L322.001 7.64663C321.915 7.59759 321.844 7.5288 321.794 7.44601L318.59 6.58748L318.466 7.01037L316.371 6.448V9.85217C316.512 9.90694 316.634 9.99802 316.723 10.1152C316.812 10.233 316.866 10.3719 316.876 10.5171C316.876 10.5725 316.868 10.6273 316.854 10.6795C316.839 10.7285 316.819 10.7763 316.792 10.8215L319.981 20.064H320.149L320.744 14.2817C320.236 14.3378 319.786 14.2989 319.467 14.1722C319.233 14.0792 319.069 13.9391 319.003 13.755C318.79 13.1563 319.693 12.3182 321.021 11.8845Z" fill="white"/>
</g>
<defs>
<clipPath id="clip0">
<rect width="678" height="30" fill="white"/>
</clipPath>
</defs>
</svg>
