<svg width="678" height="30" viewBox="0 0 678 30" fill="none" xmlns="http://www.w3.org/2000/svg">
<g clip-path="url(#clip0)">
<path fill-rule="evenodd" clip-rule="evenodd" d="M1.13062 30V25.7444H-3.12263V24.0781H-2.57561V22.0273H-3.12263V21.8322C-3.12207 21.6075 -3.17764 21.3861 -3.28443 21.1876C-3.39122 20.9892 -3.54591 20.8198 -3.73479 20.6946V19.5746H-4.50496V16.318C-4.50496 16.2865 -4.51765 16.2562 -4.54023 16.2339C-4.56282 16.2116 -4.59346 16.199 -4.6254 16.199C-4.64139 16.1988 -4.65726 16.2017 -4.67211 16.2075C-4.68696 16.2134 -4.70047 16.2221 -4.71187 16.2332C-4.72327 16.2443 -4.73232 16.2575 -4.73849 16.272C-4.74467 16.2866 -4.74785 16.3023 -4.74785 16.318V19.5649H-7.13731V19.8849C-7.64087 19.8088 -8.17998 19.7444 -8.74673 19.6898V22.6946H-9.49122V27.5922H-9.79336V22.402H-9.0469V19.6059H-9.78743V19.3268C-9.7879 18.9274 -9.91802 18.5386 -10.1587 18.2176C-10.3993 17.8966 -10.7378 17.6603 -11.1243 17.5434V16.3259H-12.1275V12.1932C-12.1313 12.164 -12.1457 12.1371 -12.1681 12.1177C-12.1904 12.0983 -12.2192 12.0875 -12.249 12.0875C-12.2787 12.0875 -12.3075 12.0983 -12.3299 12.1177C-12.3522 12.1371 -12.3666 12.164 -12.3704 12.1932V16.3259H-15.4491V16.6654C-17.0416 16.4374 -18.6484 16.3214 -20.2576 16.318C-21.4835 16.3196 -22.7084 16.388 -23.9267 16.5229C-23.8482 16.7678 -23.8082 17.0231 -23.8082 17.28V17.3171H-22.9038V21.3171H-23.8082V27.6H-24.1123V21.0185H-23.2099V17.6176H-24.1123V17.28C-24.112 16.7816 -24.2778 16.297 -24.584 15.9009C-24.8902 15.5049 -25.3199 15.2195 -25.8067 15.0888C-26.1503 14.9971 -26.5432 14.8937 -26.9757 14.7941V13.1395H-28.2652V7.93756C-28.263 7.92052 -28.2645 7.90321 -28.2696 7.88678C-28.2747 7.87035 -28.2833 7.85519 -28.2948 7.84229C-28.3063 7.8294 -28.3204 7.81906 -28.3363 7.81199C-28.3521 7.80491 -28.3693 7.80125 -28.3867 7.80125C-28.4041 7.80125 -28.4213 7.80491 -28.4371 7.81199C-28.453 7.81906 -28.4671 7.8294 -28.4786 7.84229C-28.4901 7.85519 -28.4986 7.87035 -28.5037 7.88678C-28.5088 7.90321 -28.5103 7.92052 -28.5081 7.93756V13.1395H-32.4181V13.8634C-33.8858 13.703 -35.3611 13.6216 -36.8377 13.6195C-40.5633 13.6381 -44.271 14.1319 -47.8686 15.0888C-48.3551 15.2201 -48.7844 15.5056 -49.0905 15.9015C-49.3966 16.2974 -49.5626 16.7818 -49.563 17.28V17.6176H-50.4654V21.0185H-49.563V21.7112H-58.6943L-58.8819 20.5541C-58.7287 20.5331 -58.5894 20.455 -58.4926 20.3358C-58.3957 20.2166 -58.3487 20.0653 -58.3611 19.9129C-58.3734 19.7606 -58.4443 19.6187 -58.5591 19.5162C-58.6739 19.4138 -58.824 19.3586 -58.9786 19.362H-59.0754L-59.34 17.7229C-59.7597 15.1268 -59.9723 12.5022 -59.9759 9.87317C-59.8151 9.87472 -59.6603 9.8131 -59.5455 9.70186C-59.4307 9.59062 -59.3653 9.43887 -59.3637 9.28C-59.3621 9.12113 -59.4245 8.96815 -59.5371 8.85471C-59.6497 8.74127 -59.8032 8.67667 -59.964 8.67512C-59.9285 7.04 -59.8107 5.40878 -59.6105 3.78146H-59.2689V2.6361H-75.5725V3.78146H-75.2467C-75.0676 5.41138 -74.9649 7.04455 -74.9386 8.68098C-75.0873 8.6956 -75.2252 8.7643 -75.3254 8.87374C-75.4257 8.98318 -75.4813 9.12554 -75.4813 9.27317C-75.4813 9.4208 -75.4257 9.56316 -75.3254 9.6726C-75.2252 9.78204 -75.0873 9.85074 -74.9386 9.86537C-74.9537 12.4937 -75.1649 15.1174 -75.5705 17.7151L-75.8273 19.362H-75.8668C-76.0163 19.3598 -76.1614 19.4123 -76.2742 19.5095C-76.3869 19.6067 -76.4593 19.7416 -76.4775 19.8883C-76.4956 20.035 -76.4582 20.1832 -76.3724 20.3043C-76.2867 20.4254 -76.1586 20.5109 -76.0129 20.5444L-76.2992 22.3668H-78.3727V21.0732H-79.1863V19.9454H-82.7527V21.0732H-85.9854V23.6098H-89.5182L-90.1699 19.5922C-90.0169 19.5711 -89.8779 19.4931 -89.7812 19.3741C-89.6844 19.2551 -89.6373 19.1042 -89.6494 18.952C-89.6615 18.7999 -89.7319 18.658 -89.8462 18.5554C-89.9606 18.4528 -90.1103 18.3972 -90.2647 18.4H-90.3615L-90.6636 16.5463C-91.1263 13.6805 -91.3594 10.7831 -91.3607 7.88098C-91.2055 7.87386 -91.0589 7.80829 -90.951 7.69775C-90.8432 7.5872 -90.7822 7.44005 -90.7807 7.28651C-90.7792 7.13297 -90.8372 6.98467 -90.9429 6.87207C-91.0485 6.75946 -91.1938 6.69109 -91.3489 6.68098C-91.3094 4.87285 -91.1777 3.06602 -90.9539 1.26049H-90.5787V0H-108.458V1.25659H-108.101C-107.903 3.06146 -107.785 4.87805 -107.761 6.68488C-107.907 6.7034 -108.041 6.77373 -108.138 6.88273C-108.235 6.99172 -108.288 7.13191 -108.288 7.27707C-108.288 7.42224 -108.235 7.56243 -108.138 7.67142C-108.041 7.78042 -107.907 7.85075 -107.761 7.86927C-107.775 10.7701 -108.008 13.6659 -108.456 16.5327L-108.748 18.3961H-108.772C-108.915 18.4028 -109.05 18.4589 -109.155 18.5546C-109.26 18.6502 -109.327 18.7793 -109.345 18.9192C-109.363 19.059 -109.33 19.2006 -109.253 19.3191C-109.176 19.4375 -109.059 19.5253 -108.922 19.5668L-109.236 21.5629H-114.929V16.318H-117.856V12.7707C-117.853 12.7294 -117.858 12.6878 -117.872 12.6485C-117.885 12.6093 -117.907 12.5733 -117.936 12.5428C-117.964 12.5123 -117.999 12.4879 -118.037 12.4713C-118.076 12.4546 -118.117 12.446 -118.159 12.446C-118.201 12.446 -118.243 12.4546 -118.281 12.4713C-118.32 12.4879 -118.354 12.5123 -118.383 12.5428C-118.411 12.5733 -118.433 12.6093 -118.447 12.6485C-118.46 12.6878 -118.466 12.7294 -118.462 12.7707V16.318H-118.79V21.5707H-121.016V30L1.13062 30ZM-57.7405 27.6H-49.563L-49.565 26.3824H-57.9379L-57.7405 27.6ZM-58.0209 25.9024H-49.563L-49.5689 25.3346H-58.1117L-58.0209 25.9024ZM-58.1848 24.8546H-49.563V24.2868H-58.2756L-58.1848 24.8546ZM-58.3546 23.8068H-49.563L-49.559 23.239H-58.4454L-58.3546 23.8068ZM-58.5244 22.759H-49.563V22.1912H-58.6153L-58.5244 22.759Z" fill="#F3B36A"/>
<path d="M51.3586 25.2481C51.3586 22.9588 51.3446 22.6724 48.8607 22.7776V25.2481H51.3586ZM21.2358 8.9427C21.2358 9.23689 20.6654 9.08687 20.5013 9.12194V9.75709C20.6654 9.79216 21.2478 9.64214 21.2358 9.93828C21.2238 10.2344 20.6634 10.0825 20.5013 10.1156V10.7507C20.6654 10.7858 21.2478 10.6358 21.2358 10.9319C21.2238 11.2281 20.6634 11.0741 20.5013 11.1092V12.7146L26.5158 14.3337V12.7633C26.3537 12.7302 25.7693 12.8783 25.7833 12.5821C25.7973 12.286 26.3537 12.438 26.5158 12.4029V11.7677C26.3537 11.7346 25.7713 11.8827 25.7833 11.5885C25.7953 11.2943 26.3537 11.4443 26.5158 11.4093V10.7741C26.3537 10.741 25.7693 10.8891 25.7833 10.5929C25.7973 10.2968 26.3537 10.4507 26.5158 10.4156V9.77852C26.3537 9.7454 25.7713 9.89347 25.7833 9.59928C25.7953 9.30508 26.3537 9.45705 26.5158 9.42198V8.78489C26.3537 8.75177 25.7713 8.89984 25.7833 8.60564C25.7953 8.31145 26.3537 8.46147 26.5158 8.4264V7.53602C24.5135 7.61166 22.5083 7.56871 20.5113 7.40744V7.76787C20.6754 7.80099 21.2578 7.65292 21.2458 7.94906C21.2338 8.24521 20.6734 8.09129 20.5113 8.12636V8.76346C20.6634 8.79658 21.2478 8.64851 21.2358 8.9427ZM18.7479 7.13272L19.2703 7.18533V7.13272H18.7479ZM19.2803 5.69293C11.1642 5.22144 5.91021 3.90633 1.90518 1.34041V1.43393C3.70654 4.48498 13.4739 6.72748 18.6719 7.12688C18.6307 7.1133 18.5957 7.08614 18.573 7.05009C18.5503 7.01404 18.5412 6.97138 18.5474 6.92951C18.5535 6.88764 18.5746 6.84919 18.6068 6.82083C18.6391 6.79247 18.6805 6.77599 18.7239 6.77424H19.2703V5.80008C19.2715 5.7642 19.2748 5.72842 19.2803 5.69293ZM19.2803 7.30417C13.9323 6.93205 4.03079 4.79086 1.90518 1.63461V15.8319L6.90897 14.0784L15.0131 16.1553V11.2378L19.2703 12.3834V11.1014C19.1082 11.0683 18.5278 11.2144 18.5378 10.9241C18.5478 10.6338 19.1062 10.778 19.2703 10.7429V10.1156C19.1102 10.0825 18.5278 10.2286 18.5378 9.93828C18.5478 9.64799 19.1062 9.79216 19.2703 9.75709V9.12194C19.1082 9.08882 18.5258 9.23495 18.5378 8.9427C18.5498 8.65045 19.1062 8.79852 19.2703 8.76346V8.12636C19.1082 8.09324 18.5278 8.23936 18.5378 7.94906C18.5478 7.65877 19.1062 7.80099 19.2703 7.76787L19.2803 7.30417ZM240.448 14.8655V14.2811H234.864L236.977 14.8655H240.448ZM215.601 14.2811V14.8655H219.072L221.185 14.2811H215.601ZM204.649 3.94335H204.166L204.06 5.74748H204.543L204.649 3.94335ZM204.188 3.58291H204.669L204.777 1.77878H204.296L204.188 3.58291ZM214.83 16.9872H215.469V15.0273H214.83V16.9872ZM214.83 19.068H215.469V17.108H214.83V19.068ZM214.83 21.1488H215.469V19.1888H214.83V21.1488ZM215.469 27.3951V25.4351H214.83V27.397L215.469 27.3951ZM215.469 25.3124V23.3543H214.83V25.324L215.469 25.3124ZM215.469 23.2316V21.2696H214.83V23.2335L215.469 23.2316ZM203.736 19.0895H203.246L203.218 19.5668H203.706L203.736 19.0895ZM203.864 16.9249H203.376L203.268 18.731H203.758L203.864 16.9249ZM203.992 14.7603H203.504L203.396 16.5664H203.884L203.992 14.7603ZM204.122 12.5958H203.634L203.526 14.4018H204.014L204.122 12.5958ZM204.248 10.4312H203.764L203.656 12.2353H204.136L204.248 10.4312ZM204.377 8.26664H203.892L203.784 10.0708H204.268L204.377 8.26664ZM204.507 6.10207H204.02L203.912 7.90815H204.399L204.507 6.10207ZM184.962 25.1097V24.2934H181.331C178.703 24.0538 181.263 21.0845 178.599 21.3865V25.1097H184.962ZM151.24 27.5997V15.5552H149.639V25.0376C149.657 26.5047 148.146 27.0366 146.865 26.8632V27.5997H151.24ZM151.24 8.09129C151.04 6.53265 152.219 5.04219 153.902 5.1474C154.116 2.32041 149.699 2.11389 149.645 4.95257V8.09129H151.24ZM140.932 8.09129C140.732 6.53265 141.911 5.04024 143.594 5.1474C143.809 2.32236 139.391 2.11389 139.339 4.95257V8.09129H140.932ZM117.655 7.92958V6.78982H115.896V7.92958H117.655ZM119.869 7.92958V6.78982H118.109V7.92958H119.869ZM119.216 6.34561H121.752L119.216 3.94725V6.34561ZM122.074 6.78982H120.313V7.92958H122.074V6.78982ZM107.081 14.4973L108.992 12.6776H107.081V14.4973ZM109.641 12.6776L107.323 14.8831H109.627C109.863 14.1095 110.199 13.3683 110.628 12.6776H109.641ZM113.566 16.4651H118.335V15.941H109.375C109.411 15.7345 109.455 15.528 109.507 15.3253H107.081V25.8248H107.769C107.909 24.9889 109.639 18.4212 109.232 17.7081H118.335V16.9892H113.566V16.4651ZM100.822 14.8831L98.5023 12.6776H97.7017C98.1312 13.3679 98.4676 14.1091 98.7025 14.8831H100.822ZM101.35 14.7681L101.455 14.6688V12.6776H99.1508L101.35 14.7681ZM90.2281 16.9892V17.7081H99.1048C98.7045 18.4563 100.42 24.9539 100.566 25.8248H101.459V15.3253H98.8306C98.8826 15.5202 98.9247 15.7345 98.9627 15.941H90.2281V16.4651H94.9957V16.9892H90.2281ZM89.5736 6.34561H92.1075L89.5736 3.94725V6.34561ZM92.4397 6.78982H90.6804V7.92958H92.4397V6.78982ZM88.0144 7.92958V6.78982H86.2471V7.92958H88.0144ZM90.2281 6.78982H88.4667V7.92958H90.2281V6.78982ZM89.1192 1.72423C89.1245 1.66916 89.1508 1.61801 89.1928 1.58077C89.2348 1.54354 89.2896 1.5229 89.3464 1.5229C89.4032 1.5229 89.458 1.54354 89.5 1.58077C89.542 1.61801 89.5683 1.66916 89.5736 1.72423V3.33158L92.826 6.41185C92.8474 6.43217 92.8644 6.45641 92.8761 6.48316C92.8877 6.50991 92.8939 6.53865 92.8941 6.56772V8.71085C94.7321 9.41352 96.3093 10.6399 97.4195 12.2295H101.459C101.681 12.0171 100.928 2.12363 101.911 2.56979H106.632C107.619 2.16649 106.859 11.9645 107.085 12.2295H110.92C112.031 10.6402 113.609 9.41392 115.447 8.71085C115.447 5.35587 114.933 6.54823 118.768 6.33782V1.72423C118.768 1.66584 118.792 1.60984 118.834 1.56855C118.876 1.52727 118.934 1.50407 118.994 1.50407C119.054 1.50407 119.111 1.52727 119.154 1.56855C119.196 1.60984 119.22 1.66584 119.22 1.72423V3.33158L122.474 6.4099C122.496 6.42995 122.513 6.45413 122.525 6.48095C122.537 6.50776 122.543 6.53663 122.543 6.56577V8.7089C124.105 9.30545 125.484 10.283 126.547 11.5478C127.61 12.8126 128.32 14.322 128.611 15.9313H120.105V16.4554H124.872V16.9795H120.097V17.6984H128.745C128.345 18.4465 130.06 24.9441 130.206 25.815H131.547V26.2553H138.723V4.94867C138.725 4.59106 138.802 4.2376 138.947 3.90922C139.093 3.58084 139.304 3.28422 139.57 3.03693C139.835 2.78963 140.149 2.59668 140.492 2.46951C140.836 2.34235 141.202 2.28354 141.569 2.29658C141.936 2.30962 142.297 2.39423 142.63 2.54542C142.963 2.69661 143.261 2.91129 143.507 3.17676C143.753 3.44222 143.942 3.75307 144.063 4.0909C144.183 4.42872 144.233 4.78666 144.209 5.1435C144.55 5.12334 144.892 5.17122 145.213 5.2842C145.535 5.39718 145.829 5.57289 146.079 5.80055C146.328 6.02821 146.527 6.30303 146.663 6.60816C146.799 6.91328 146.87 7.24228 146.871 7.57499V26.2612C147.786 26.3644 149.049 26.1735 149.031 25.0338V4.94867C149.077 1.32483 154.733 1.54109 154.519 5.1435C154.86 5.12334 155.202 5.17122 155.523 5.2842C155.845 5.39718 156.139 5.57289 156.388 5.80055C156.638 6.02821 156.836 6.30303 156.973 6.60816C157.109 6.91328 157.18 7.24228 157.181 7.57499V24.3031H159.112V21.8833H161.752V21.2988C160.751 20.6462 161.532 19.5454 162.715 19.5707C163.898 19.5356 164.68 20.6462 163.678 21.2988V21.8833H165.679L171.177 20.1766L173.223 18.8713L173.539 19.4441L178.597 17.8854V20.8079C181.885 20.613 179.556 23.5121 181.329 23.7147H184.962V22.1561H188.45V27.6289H189.473V23.4439H190.14V20.7825C190.139 20.7432 190.147 20.7043 190.162 20.6679C190.178 20.6315 190.2 20.5984 190.229 20.5705C190.257 20.5426 190.291 20.5205 190.328 20.5054C190.366 20.4903 190.406 20.4825 190.446 20.4825C190.528 20.4825 190.607 20.5141 190.665 20.5703C190.723 20.6265 190.756 20.7028 190.756 20.7825V23.4439H192.089V20.7825C192.086 20.7412 192.091 20.6997 192.105 20.6605C192.119 20.6214 192.141 20.5854 192.17 20.555C192.199 20.5245 192.234 20.5002 192.273 20.4836C192.312 20.4669 192.354 20.4584 192.396 20.4584C192.439 20.4584 192.481 20.4669 192.52 20.4836C192.559 20.5002 192.594 20.5245 192.623 20.555C192.652 20.5854 192.674 20.6214 192.688 20.6605C192.702 20.6997 192.707 20.7412 192.704 20.7825V23.4439H194.035V20.7825C194.041 20.7069 194.076 20.6363 194.134 20.5848C194.191 20.5334 194.266 20.5048 194.344 20.5048C194.422 20.5048 194.497 20.5334 194.554 20.5848C194.612 20.6363 194.647 20.7069 194.653 20.7825V23.4439H195.984V20.7825C195.981 20.7412 195.986 20.6997 196 20.6605C196.014 20.6214 196.036 20.5854 196.065 20.555C196.094 20.5245 196.129 20.5002 196.168 20.4836C196.207 20.4669 196.249 20.4584 196.291 20.4584C196.334 20.4584 196.376 20.4669 196.415 20.4836C196.454 20.5002 196.489 20.5245 196.518 20.555C196.547 20.5854 196.569 20.6214 196.583 20.6605C196.597 20.6997 196.602 20.7412 196.599 20.7825V23.4439H197.932V20.7825C197.932 20.7028 197.965 20.6265 198.023 20.5703C198.081 20.5141 198.16 20.4825 198.242 20.4825C198.282 20.4825 198.322 20.4903 198.36 20.5054C198.397 20.5205 198.431 20.5426 198.459 20.5705C198.488 20.5984 198.51 20.6315 198.525 20.6679C198.541 20.7043 198.548 20.7432 198.548 20.7825V23.4439H200.662V19.5727H202.847L203.936 1.42029H207.739L208.716 19.5727H211.734V23.4439H212.491V27.5997H215.463V27.5159H214.702V14.9065H215.463V14.8655V14.1622H221.606L227.702 12.4828V10.8813C227.542 10.8559 227.066 10.9767 227.074 10.7001C227.082 10.4234 227.542 10.5462 227.702 10.5208V10.1935C227.542 10.1682 227.066 10.289 227.074 10.0123C227.082 9.73566 227.544 9.86035 227.702 9.83502V9.50381C227.544 9.47848 227.066 9.59928 227.074 9.32457C227.082 9.04986 227.542 9.17065 227.702 9.14532V8.81606C227.544 8.79073 227.066 8.91153 227.074 8.63682C227.082 8.3621 227.542 8.4829 227.702 8.45757C227.702 8.21403 227.61 7.67825 228.008 7.69384C228.407 7.70942 228.307 8.21208 228.319 8.45757C228.479 8.4829 228.955 8.3621 228.947 8.63682C228.939 8.91153 228.479 8.79073 228.319 8.81606V9.15312C228.477 9.17844 228.955 9.05765 228.947 9.33236C228.939 9.60707 228.479 9.48628 228.319 9.5116V9.84282C228.477 9.86814 228.955 9.74735 228.947 10.0201C228.939 10.2929 228.481 10.176 228.319 10.2013V10.5169C228.477 10.5403 228.955 10.4234 228.947 10.6962C228.939 10.9689 228.481 10.852 228.319 10.8774V12.4789L234.413 14.1583H240.564V14.8617V27.5958H242.966V30H-3.2207V27.6036H-0.164388V16.5567L1.31673 16.0345V0.775405H1.90518V1.19624C5.90821 3.77969 11.1582 5.10259 19.3184 5.57603C19.5345 4.974 20.5193 5.13961 20.5073 5.79229V6.76644C20.6694 6.79956 21.2518 6.65344 21.2418 6.94569C21.2318 7.23793 20.6714 7.08986 20.5073 7.12493V7.28274C22.5085 7.44063 24.5176 7.48162 26.5238 7.40549C26.5458 6.64954 27.7668 6.67682 27.7528 7.43471V8.41861C27.9149 8.45173 28.4973 8.3056 28.4853 8.59785C28.4733 8.8901 27.9169 8.74202 27.7528 8.77709V9.41419C27.9129 9.44731 28.4953 9.30119 28.4853 9.59149C28.4753 9.88178 27.9169 9.73566 27.7528 9.77073V10.4078C27.9129 10.4409 28.4953 10.2948 28.4853 10.5851C28.4753 10.8754 27.9169 10.7332 27.7528 10.7663V11.4015C27.9149 11.4346 28.4973 11.2885 28.4853 11.5807C28.4733 11.873 27.9169 11.7249 27.7528 11.7599V12.3951C27.9149 12.4282 28.4973 12.2821 28.4853 12.5743C28.4733 12.8666 27.9169 12.7224 27.7528 12.7555V14.6571L42.7281 18.6998C43.6968 17.4081 44.9398 16.6872 46.6471 16.5762V19.7538L48.8607 20.3383V21.9282C51.831 21.782 52.2333 22.499 52.2373 25.2403H55.0394V26.0196H59.2266L60.0472 8.26664C59.731 8.28028 59.1806 8.3095 59.2026 7.86139C59.2026 7.40549 59.769 7.47173 60.0852 7.47173L60.1173 6.7528C59.1165 6.90282 59.1826 5.77865 60.1553 5.9579L60.1873 5.23897C59.3867 5.35587 59.4387 4.2921 60.2253 4.44406C60.1373 3.44263 60.5936 2.31457 61.7405 2.22105C61.8146 2.08661 61.5403 -0.097436 61.9266 -0.00391739C62.3009 -0.0896428 62.0347 2.07687 62.1108 2.22105C63.2616 2.31457 63.712 3.44263 63.6259 4.44406C64.4265 4.29404 64.4646 5.35587 63.6619 5.23897L63.696 5.9579C64.6687 5.77865 64.7288 6.90282 63.734 6.7528L63.766 7.47173C64.0803 7.47173 64.6547 7.40354 64.6467 7.86139C64.6687 8.31145 64.1203 8.28028 63.8041 8.26664L63.9522 11.4424L64.6067 25.5715L65.2311 11.7561C64.9689 11.7677 64.5126 11.7931 64.5306 11.419C64.5486 11.0449 65.011 11.1014 65.2712 11.1014L65.2992 10.5033C64.4766 10.6299 64.5226 9.6928 65.3292 9.84282L65.3572 9.24664C64.6927 9.34405 64.7328 8.46731 65.3873 8.58616C65.3192 7.76592 65.6815 6.83268 66.6142 6.74501C66.6842 6.59889 66.43 4.79671 66.8003 4.86295C67.1686 4.79865 66.9144 6.5911 66.9845 6.74501C67.9192 6.84243 68.2834 7.76592 68.2114 8.58616C68.8639 8.46147 68.9059 9.34405 68.2414 9.24664L68.2694 9.84282C69.07 9.6928 69.1261 10.6221 68.2995 10.5033L68.3295 11.1014C68.5897 11.1014 69.066 11.0469 69.06 11.4229C69.054 11.7989 68.6237 11.7716 68.3595 11.7599L69.034 26.1209L69.4784 16.5294C68.7778 16.6327 68.8118 15.9449 69.5004 16.054L69.5204 15.6234C68.9199 15.715 68.958 15.0389 69.5404 15.148L69.5624 14.7194C69.0821 14.7896 69.1141 14.1525 69.5844 14.244C69.5404 13.6732 69.7726 13.0224 70.4171 12.925C70.4851 12.7692 70.2409 11.4716 70.5992 11.5125C70.9635 11.4735 70.7173 12.7614 70.7853 12.925C71.4298 13.0224 71.662 13.6732 71.616 14.244C72.0843 14.1525 72.1204 14.7876 71.64 14.7194L71.658 15.148C72.2384 15.0389 72.2765 15.7131 71.682 15.6234L71.7 16.054C72.3886 15.9352 72.4246 16.6385 71.7221 16.5294L72.2364 27.5997H77.1782V25.8248H78.1389C78.279 24.9889 80.0083 18.4212 79.6 17.7081H88.4767V16.9892H83.6991V16.4651H88.4667V15.941H79.7321C80.0243 14.3323 80.7357 12.8235 81.7982 11.559C82.8608 10.2945 84.2389 9.31648 85.8007 8.71864C85.8007 5.35977 85.3023 6.55797 89.1192 6.34561V1.72423ZM159.112 27.5997V26.419H157.181V27.5997H159.112ZM159.112 25.8209V24.9052H157.181V25.8209H159.112ZM151.24 14.9571V8.69137H149.639V14.9571H151.24ZM140.932 27.5997V26.8632H131.547V27.5997H140.932ZM140.932 26.2651V15.5494H139.331V26.2651H140.932ZM140.932 14.9649V8.69137H139.331V14.9571L140.932 14.9649ZM129.28 25.8248L128.157 20.8235C127.561 22.4043 126.546 23.8033 125.215 24.8779V25.8248H129.28ZM112.763 25.8248V24.8779C111.432 23.8023 110.416 22.4037 109.819 20.8235L108.698 25.8248H112.763ZM99.6372 25.8248L98.5163 20.8235C97.92 22.4038 96.905 23.8026 95.5741 24.8779V25.8248H99.6372ZM83.1207 25.8248V24.8779C81.7891 23.8033 80.7738 22.4043 80.1785 20.8235L79.0576 25.8248H83.1207ZM59.1505 27.5997L59.1846 26.8593H55.0374V27.5997H59.1505ZM29.7543 23.0757V18.4115H28.2451V23.0757H29.7543ZM27.6187 23.0757V17.7451H26.1095V23.0757H27.6187ZM25.481 23.0757V17.2308H23.9719V23.0757H25.481ZM23.3454 23.0757V16.5762H21.8363V23.0757H23.3454ZM21.2058 23.0757V15.9488H19.6967V23.0757H21.2058Z" fill="#F3B36A"/>
<path d="M675.245 17.9359V7.92033L670.318 12.3994V8.02296C670.549 7.94148 670.748 7.79476 670.889 7.60247C671.03 7.41019 671.105 7.18153 671.106 6.94718C671.106 6.31124 670.565 7.13045 669.897 7.13045C669.229 7.13045 668.686 6.30757 668.686 6.94718C668.687 7.18147 668.762 7.41001 668.903 7.60225C669.044 7.79448 669.243 7.94126 669.473 8.02296V13.1691L667.265 15.1741V16.7245H662.16V11.7012L660.602 12.973H654.488V8.87699C654.487 8.32746 654.307 7.79166 653.973 7.34356C653.639 6.89546 653.167 6.55717 652.622 6.37538V5.85123C652.623 5.61209 652.573 5.37525 652.477 5.15424C652.381 4.93324 652.241 4.7324 652.063 4.56322C651.886 4.39404 651.675 4.25982 651.443 4.16825C651.211 4.07668 650.962 4.02955 650.711 4.02955H645.769C645.651 3.41279 645.309 2.85495 644.804 2.45311C644.298 2.05128 643.661 1.8309 643.002 1.83033H640.542C639.929 1.83033 639.342 2.06203 638.908 2.47447C638.475 2.8869 638.232 3.44628 638.232 4.02955V22.6313C638.231 22.7493 638.181 22.8622 638.094 22.9458C638.006 23.0294 637.888 23.077 637.764 23.0784H636.091V8.69556H623.208V4.89824C623.21 4.77251 623.163 4.6505 623.077 4.55506C622.991 4.45962 622.871 4.3973 622.741 4.37977C622.61 4.36224 622.477 4.39071 622.367 4.45983C622.256 4.52896 622.176 4.634 622.141 4.75529C621.582 4.952 621 5.14321 620.395 5.32892V4.89824C620.395 4.78049 620.353 4.66631 620.275 4.5746C620.198 4.48289 620.089 4.41915 619.969 4.39392C619.848 4.36869 619.722 4.3835 619.611 4.43588C619.5 4.48827 619.411 4.57509 619.359 4.68198C618.782 4.79928 618.185 4.91657 617.584 5.03019V4.89824C617.589 4.82766 617.578 4.75697 617.553 4.6905C617.527 4.62404 617.488 4.56321 617.437 4.51175C617.386 4.46029 617.325 4.41928 617.257 4.39126C617.188 4.36323 617.115 4.34877 617.041 4.34877C616.966 4.34877 616.893 4.36323 616.825 4.39126C616.756 4.41928 616.695 4.46029 616.644 4.51175C616.593 4.56321 616.554 4.62404 616.528 4.6905C616.503 4.75697 616.492 4.82766 616.497 4.89824V5.23179C615.929 5.33686 615.355 5.43827 614.774 5.53601V4.89824C614.774 4.76069 614.716 4.62877 614.614 4.5315C614.512 4.43424 614.373 4.37959 614.229 4.37959C614.084 4.37959 613.946 4.43424 613.844 4.5315C613.742 4.62877 613.684 4.76069 613.684 4.89824V5.03019C613.11 5.27455 612.536 5.51585 611.961 5.7541V4.89824C611.962 4.77005 611.913 4.64608 611.823 4.55038C611.734 4.45468 611.61 4.3941 611.476 4.38039C611.342 4.36669 611.208 4.40084 611.099 4.47622C610.99 4.55159 610.914 4.66281 610.887 4.78828C609.044 5.54334 607.131 6.25442 605.159 6.93618C591.56 8.62775 576.326 9.43596 565.855 9.33333C565.74 9.24422 565.601 9.18798 565.454 9.17114C565.307 9.1543 565.158 9.17755 565.024 9.23819C564.89 9.29883 564.777 9.39438 564.698 9.51373C564.619 9.63308 564.577 9.77134 564.577 9.91246V14.8424L563.969 14.5107C563.554 14.2847 563.084 14.1665 562.606 14.168C562.129 14.1695 561.66 14.2906 561.247 14.5191C560.833 14.7477 560.491 15.0757 560.253 15.4702C560.015 15.8647 559.89 16.3118 559.891 16.7667V20.8994H558.563C558.47 20.8994 558.378 20.8819 558.292 20.848C558.206 20.8141 558.128 20.7644 558.063 20.7017C557.997 20.6391 557.945 20.5647 557.91 20.4829C557.874 20.4011 557.856 20.3134 557.856 20.225V3.50724C557.856 3.05973 557.669 2.63068 557.336 2.31425C557.004 1.99781 556.553 1.81982 556.083 1.81934H539.109C538.639 1.82031 538.189 1.99851 537.857 2.31489C537.525 2.63128 537.339 3.06004 537.338 3.50724V3.62086C537.223 3.64347 537.12 3.7029 537.045 3.78927C536.97 3.87563 536.929 3.98371 536.928 4.09553V4.42907C535.778 4.63881 534.741 5.2235 533.996 6.0825C533.25 6.9415 532.842 8.02108 532.843 9.1354V8.82384H528.607V7.01315C528.606 6.43619 528.365 5.88315 527.936 5.47534C527.508 5.06754 526.926 4.83825 526.32 4.83776H494.386C493.833 4.83873 493.3 5.03005 492.884 5.37637C492.468 5.72269 492.198 6.20059 492.124 6.72176H490.847C490.282 6.72224 489.74 6.9364 489.34 7.31716C488.941 7.69792 488.716 8.21414 488.716 8.75237V9.64672C488.713 9.88531 488.612 10.1132 488.434 10.2819C488.257 10.4507 488.018 10.5469 487.767 10.5502H483.653V9.36448H481.582V5.86223H460.189H460.166H460.143H460.124L460.099 5.87139L460.083 5.88056C460.076 5.88195 460.069 5.88584 460.064 5.89155L460.047 5.90438C460.041 5.90881 460.035 5.91371 460.029 5.91904L460.016 5.93554L460.001 5.95203C460 5.95814 460 5.96425 460.001 5.97036L459.989 5.99052C459.989 5.99052 459.989 5.99968 459.989 6.00151C459.988 6.00944 459.988 6.01741 459.989 6.02534C459.989 6.0345 459.989 6.04 459.989 6.04916V9.34799H457.896V12.5753H483.653V11.6773H487.767C488.333 11.6768 488.875 11.4627 489.275 11.082C489.675 10.7013 489.9 10.1851 489.9 9.64672V8.75237C489.9 8.51306 490 8.28353 490.177 8.11414C490.355 7.94475 490.596 7.84934 490.847 7.84886H492.101V13.1526C492.1 13.4305 491.984 13.6969 491.778 13.8934C491.571 14.0898 491.291 14.2004 490.999 14.2009H483.653V13.4514H457.896V16.0776H483.653V15.328H490.999C491.605 15.3275 492.186 15.0982 492.615 14.6903C493.043 14.2825 493.284 13.7294 493.285 13.1526V7.84886H517.157C517.408 7.84886 517.65 7.94405 517.828 8.11349C518.006 8.28293 518.106 8.51274 518.106 8.75237V18.0514H515.305V16.0776H509.5V14.4282H509.758C509.863 14.4282 509.963 14.3887 510.037 14.3184C510.11 14.2481 510.152 14.1528 510.152 14.0534C510.152 13.954 510.11 13.8587 510.037 13.7884C509.963 13.7181 509.863 13.6786 509.758 13.6786H509.5V13.1416H509.758C509.862 13.1416 509.962 13.1023 510.035 13.0324C510.109 12.9625 510.15 12.8676 510.15 12.7687C510.15 12.6698 510.109 12.5749 510.035 12.505C509.962 12.435 509.862 12.3957 509.758 12.3957H509.5V11.8624H509.758C509.86 11.8624 509.958 11.8238 510.03 11.7551C510.103 11.6863 510.143 11.5931 510.143 11.4959C510.143 11.3987 510.103 11.3055 510.03 11.2367C509.958 11.168 509.86 11.1294 509.758 11.1294H509.5V10.6309C509.491 10.4726 509.419 10.3237 509.298 10.2148C509.177 10.1058 509.017 10.0451 508.85 10.0451C508.684 10.0451 508.524 10.1058 508.403 10.2148C508.282 10.3237 508.21 10.4726 508.201 10.6309V11.1129H507.943C507.841 11.1129 507.743 11.1515 507.671 11.2202C507.598 11.289 507.558 11.3822 507.558 11.4794C507.558 11.5766 507.598 11.6698 507.671 11.7386C507.743 11.8073 507.841 11.8459 507.943 11.8459H508.201V12.3792H507.943C507.839 12.3792 507.739 12.4185 507.666 12.4885C507.592 12.5584 507.551 12.6533 507.551 12.7522C507.551 12.8511 507.592 12.946 507.666 13.0159C507.739 13.0859 507.839 13.1251 507.943 13.1251H508.201V13.6585H507.943C507.838 13.6585 507.738 13.6979 507.664 13.7682C507.591 13.8385 507.549 13.9338 507.549 14.0332C507.549 14.1326 507.591 14.228 507.664 14.2983C507.738 14.3685 507.838 14.408 507.943 14.408H508.201V16.0574H505.055V14.408H505.313C505.417 14.408 505.518 14.3685 505.591 14.2983C505.665 14.228 505.707 14.1326 505.707 14.0332C505.707 13.9338 505.665 13.8385 505.591 13.7682C505.518 13.6979 505.417 13.6585 505.313 13.6585H505.055V13.1416H505.313C505.417 13.1416 505.517 13.1023 505.59 13.0324C505.663 12.9625 505.705 12.8676 505.705 12.7687C505.705 12.6698 505.663 12.5749 505.59 12.505C505.517 12.435 505.417 12.3957 505.313 12.3957H505.055V11.8624H505.313C505.391 11.8621 505.467 11.84 505.531 11.7988C505.596 11.7576 505.646 11.6992 505.676 11.6309C505.706 11.5626 505.713 11.4874 505.699 11.4148C505.684 11.3423 505.647 11.2755 505.592 11.2228C505.518 11.1529 505.418 11.1134 505.313 11.1129H505.055V10.6309C505.055 10.4671 504.987 10.31 504.865 10.1941C504.743 10.0783 504.578 10.0133 504.406 10.0133C504.234 10.0133 504.069 10.0783 503.947 10.1941C503.826 10.31 503.757 10.4671 503.757 10.6309V11.1129H503.5C503.398 11.1152 503.302 11.1546 503.23 11.2228C503.158 11.291 503.117 11.3829 503.114 11.4794C503.114 11.5766 503.155 11.6698 503.227 11.7386C503.299 11.8073 503.397 11.8459 503.5 11.8459H503.757V12.3792H503.5C503.396 12.3792 503.296 12.4185 503.222 12.4885C503.149 12.5584 503.108 12.6533 503.108 12.7522C503.108 12.8511 503.149 12.946 503.222 13.0159C503.296 13.0859 503.396 13.1251 503.5 13.1251H503.757V13.6585H503.5C503.395 13.6585 503.295 13.6979 503.221 13.7682C503.147 13.8385 503.106 13.9338 503.106 14.0332C503.106 14.1326 503.147 14.228 503.221 14.2983C503.295 14.3685 503.395 14.408 503.5 14.408H503.757V16.0574H500.614V14.408H500.87C500.974 14.408 501.074 14.3685 501.148 14.2983C501.222 14.228 501.263 14.1326 501.263 14.0332C501.263 13.9338 501.222 13.8385 501.148 13.7682C501.074 13.6979 500.974 13.6585 500.87 13.6585H500.614V13.1416H500.87C500.974 13.1416 501.073 13.1023 501.147 13.0324C501.22 12.9625 501.262 12.8676 501.262 12.7687C501.262 12.6698 501.22 12.5749 501.147 12.505C501.073 12.435 500.974 12.3957 500.87 12.3957H500.614V11.8624H500.87C500.973 11.8625 501.072 11.8241 501.145 11.7556C501.219 11.6872 501.262 11.5939 501.264 11.4959C501.264 11.3964 501.222 11.301 501.149 11.2302C501.113 11.1949 501.069 11.1669 501.021 11.148C500.973 11.1291 500.922 11.1197 500.87 11.1202H500.614V10.6309C500.614 10.4666 500.545 10.309 500.423 10.1929C500.301 10.0767 500.136 10.0114 499.963 10.0114C499.79 10.0114 499.625 10.0767 499.503 10.1929C499.381 10.309 499.312 10.4666 499.312 10.6309V11.1129H499.056C498.953 11.1128 498.854 11.1512 498.781 11.2196C498.707 11.2881 498.664 11.3814 498.662 11.4794C498.662 11.5283 498.672 11.5767 498.692 11.6218C498.712 11.6669 498.741 11.7077 498.778 11.7419C498.815 11.776 498.858 11.8028 498.906 11.8207C498.954 11.8386 499.005 11.8472 499.056 11.8459H499.312V12.3792H499.056C498.952 12.3792 498.853 12.4185 498.779 12.4885C498.706 12.5584 498.664 12.6533 498.664 12.7522C498.664 12.8511 498.706 12.946 498.779 13.0159C498.853 13.0859 498.952 13.1251 499.056 13.1251H499.312V13.6585H499.056C498.952 13.6585 498.852 13.6979 498.778 13.7682C498.704 13.8385 498.663 13.9338 498.663 14.0332C498.663 14.1326 498.704 14.228 498.778 14.2983C498.852 14.3685 498.952 14.408 499.056 14.408H499.312V16.0574H495.11V18.614H483.653V16.9536H457.896V18.603H457.207C456.255 18.603 455.343 18.9629 454.67 19.6036C453.997 20.2442 453.619 21.1131 453.619 22.0191V27.7371H452.065V22.5964H450.856V23.8115H449.949V20.4962H448.738V21.1596H447.834V18.3941H446.625V21.1596H445.718V15.7184H444.507V17.8681H443.6V13.4514H442.391V27.7463H429.481V30.0005H678V19.7063L675.245 17.9359ZM460.426 9.36448V6.39004L469.443 9.36448H460.426ZM470.545 9.26186L461.562 6.30207H470.545V9.26186ZM471.005 9.36448V6.39004L480.022 9.36448H471.005ZM481.123 9.26186L472.141 6.30207H481.123V9.26186ZM444.507 27.7426H443.6V25.3015H444.507V27.7426ZM444.507 23.806H443.6V22.6533H444.507V23.806ZM444.507 21.1596H443.6V19.3618H444.507V21.1596ZM446.625 27.7426H445.718V25.3015H446.625V27.7426ZM446.625 23.806H445.718V22.6533H446.625V23.806ZM448.742 27.7426H447.837V25.3015H448.742V27.7426ZM448.742 23.806H447.837V22.6533H448.742V23.806ZM450.86 27.7426H449.949V25.3015H450.856L450.86 27.7426ZM457.9 27.7426H456.377V22.0246C456.377 21.8152 456.465 21.6142 456.62 21.4661C456.776 21.318 456.987 21.2348 457.207 21.2348H457.896L457.9 27.7426ZM495.114 23.3442H493.693V22.4737H493.24V24.6454H493.693V23.7749H495.11V25.8971H493.689V25.0266H493.236V27.2001H493.689V26.3296H495.11V27.7426H483.653V20.8682H495.11L495.114 23.3442ZM515.305 19.1785H518.098V22.1786H515.305V19.1785ZM525.175 27.7426H515.305V23.3057H518.098V24.6106C518.099 25.1488 518.324 25.6647 518.724 26.0453C519.124 26.426 519.666 26.6402 520.231 26.6412H525.175V27.7426ZM527.41 23.2361L525.175 24.5812V25.5141H520.231C519.979 25.5141 519.738 25.4189 519.56 25.2494C519.382 25.08 519.282 24.8502 519.282 24.6106V23.3057H523.902C524.552 23.3052 525.175 23.0593 525.635 22.6218C526.094 22.1844 526.353 21.5913 526.353 20.9727V14.6958C526.354 14.4114 526.46 14.1365 526.653 13.9196C526.846 13.7026 527.114 13.5575 527.408 13.51L527.41 23.2361ZM527.41 12.3737C526.8 12.425 526.232 12.6916 525.817 13.1213C525.403 13.5509 525.172 14.1125 525.171 14.6958V20.9727C525.171 21.2924 525.037 21.5988 524.799 21.8249C524.562 22.0509 524.24 22.1781 523.904 22.1786H519.284V19.1785H520.551C521.2 19.1775 521.822 18.9316 522.281 18.4946C522.74 18.0577 522.998 17.4653 522.999 16.8473V11.166C523 10.846 523.134 10.5393 523.372 10.3132C523.61 10.0871 523.932 9.96011 524.268 9.96011H527.41V12.3737ZM527.41 8.82384H524.268C523.945 8.82408 523.626 8.88488 523.328 9.00276C523.03 9.12064 522.759 9.29329 522.532 9.51083C522.304 9.72837 522.123 9.98653 522 10.2705C521.878 10.5546 521.815 10.8588 521.815 11.166V16.8473C521.815 17.167 521.681 17.4734 521.444 17.6995C521.206 17.9255 520.885 18.0527 520.549 18.0532H519.282V8.75237C519.281 8.21397 519.057 7.69775 518.657 7.31705C518.257 6.93634 517.714 6.72224 517.149 6.72176H493.329C493.395 6.50365 493.534 6.31193 493.725 6.17544C493.915 6.03894 494.147 5.96504 494.386 5.96486H526.307C526.599 5.96534 526.879 6.07589 527.086 6.27232C527.292 6.46876 527.409 6.73511 527.41 7.01315V8.82384ZM532.843 24.0626H530.983V21.0863L528.594 22.5286V13.4917H532.829L532.843 24.0626ZM532.843 12.3646H528.607V9.95094H532.843V12.3646ZM545.449 27.7426H542.904V26.8556H545.443L545.449 27.7426ZM545.449 26.0785H542.904V24.9789H545.443L545.449 26.0785ZM545.449 24.2074H542.904V23.1078H545.443L545.449 24.2074ZM545.449 22.338H542.904V21.2384H545.443L545.449 22.338ZM545.449 20.4669H542.904V19.3673H545.443L545.449 20.4669ZM545.449 18.5957H542.904V17.4961H545.443L545.449 18.5957ZM549.944 3.62086C549.829 3.64353 549.726 3.70303 549.652 3.78943C549.577 3.87582 549.536 3.98388 549.536 4.09553V4.42907C548.385 4.6373 547.346 5.22134 546.599 6.08048C545.852 6.93963 545.443 8.02003 545.443 9.1354V16.7245H542.904V9.1354C542.904 8.02003 542.495 6.93963 541.748 6.08048C541 5.22134 539.962 4.6373 538.811 4.42907V4.09553C538.81 3.98397 538.769 3.87609 538.695 3.78976C538.62 3.70343 538.517 3.64384 538.403 3.62086V3.50724C538.402 3.41891 538.42 3.3314 538.456 3.2497C538.491 3.16801 538.543 3.09373 538.608 3.0311C538.674 2.96848 538.751 2.91873 538.837 2.88471C538.923 2.85068 539.014 2.83305 539.107 2.83281H549.942L549.944 3.62086ZM559.891 27.7426H555.51V9.1354C555.509 8.02013 555.1 6.93991 554.353 6.08083C553.606 5.22176 552.568 4.63763 551.417 4.42907V4.09553C551.416 3.98397 551.375 3.87609 551.3 3.78976C551.226 3.70343 551.123 3.64384 551.009 3.62086V2.83281H556.083C556.176 2.83281 556.268 2.85027 556.354 2.88418C556.44 2.9181 556.518 2.9678 556.584 3.03045C556.649 3.0931 556.701 3.16747 556.737 3.24928C556.772 3.3311 556.79 3.41876 556.79 3.50724V20.225C556.79 20.6725 556.977 21.1015 557.31 21.4179C557.642 21.7344 558.093 21.9124 558.563 21.9129H559.891V27.7426ZM605.244 7.26607C606.738 7.0828 608.213 6.88487 609.659 6.67777C607.395 7.55746 605.142 8.35162 602.899 9.06026C600.899 9.34433 598.857 9.59174 596.785 9.8025C599.675 9.04926 602.512 8.20073 605.244 7.26607ZM600.83 9.69987C591.221 12.5607 581.823 13.915 572.736 13.7464C579.732 13.3249 587.254 12.1483 594.517 10.378C594.927 10.3413 595.337 10.3065 595.747 10.2662C597.461 10.1098 599.155 9.92101 600.83 9.69987ZM603.554 7.46399C600.653 8.40966 597.646 9.26369 594.594 10.0096C585.29 10.827 575.654 10.8453 567.573 9.67787C577.518 9.6852 591.096 8.94114 603.554 7.47133V7.46399ZM568.687 13.3157C568.584 13.3155 568.482 13.3347 568.387 13.3722C568.291 13.4097 568.205 13.4648 568.132 13.5343C568.059 13.6038 568.002 13.6864 567.962 13.7772C567.923 13.868 567.903 13.9653 567.904 14.0635V16.6641L566.148 15.7037V9.91795C566.151 9.88074 566.151 9.84338 566.148 9.80616C570.768 10.5686 576.128 10.9534 581.904 10.9534C585.236 10.9534 588.709 10.8251 592.255 10.5686C584.483 12.3243 576.511 13.3872 569.28 13.5632C569.206 13.484 569.114 13.4209 569.012 13.3783C568.91 13.3356 568.799 13.3143 568.687 13.3157ZM572.707 27.7426H572.166V26.6852H572.707C572.56 26.8256 572.478 27.0157 572.478 27.2139C572.478 27.4121 572.56 27.6021 572.707 27.7426ZM574.894 27.7426H573.849C573.993 27.601 574.074 27.4113 574.074 27.2139C574.074 27.0164 573.993 26.8268 573.849 26.6852H574.904C574.758 26.8263 574.677 27.0162 574.677 27.2139C574.677 27.4116 574.758 27.6015 574.904 27.7426H574.894ZM577.081 27.7426H576.026C576.171 27.6015 576.253 27.4116 576.253 27.2139C576.253 27.0162 576.171 26.8263 576.026 26.6852H577.081C576.936 26.8263 576.854 27.0162 576.854 27.2139C576.854 27.4116 576.936 27.6015 577.081 27.7426ZM579.27 27.7426H578.215C578.36 27.6015 578.442 27.4116 578.442 27.2139C578.442 27.0162 578.36 26.8263 578.215 26.6852H579.27C579.123 26.8256 579.041 27.0157 579.041 27.2139C579.041 27.4121 579.123 27.6021 579.27 27.7426ZM581.457 27.7426H580.394C580.54 27.6015 580.621 27.4116 580.621 27.2139C580.621 27.0162 580.54 26.8263 580.394 26.6852H581.449C581.305 26.8268 581.224 27.0164 581.224 27.2139C581.224 27.4113 581.305 27.601 581.449 27.7426H581.457ZM583.644 27.7426H582.589C582.736 27.6021 582.818 27.4121 582.818 27.2139C582.818 27.0157 582.736 26.8256 582.589 26.6852H583.644C583.499 26.8268 583.419 27.0164 583.419 27.2139C583.419 27.4113 583.499 27.601 583.644 27.7426ZM585.663 27.7426H584.778C584.923 27.6015 585.005 27.4116 585.005 27.2139C585.005 27.0162 584.923 26.8263 584.778 26.6852H585.663V27.7426ZM592.979 27.7426H590.197V19.8914H592.977L592.979 27.7426ZM598.783 27.7426H596.001V19.8914H598.781L598.783 27.7426ZM604.588 27.7426H601.804V19.8914H604.586L604.588 27.7426ZM610.392 27.7426H607.608V19.8914H610.39L610.392 27.7426ZM610.875 8.69556H609.245L585.663 16.38V26.2325H572.166V22.0027L576.401 21.7516C578.959 21.5976 581.386 20.619 583.282 18.9769H572.153L569.473 17.5108V14.0635C569.476 14.0306 569.476 13.9974 569.473 13.9645C571.081 14.0598 572.697 14.1081 574.32 14.1093C580.093 14.097 585.849 13.5222 591.499 12.3939C595.364 11.6206 599.177 10.6292 602.919 9.42496C605.672 9.0346 608.338 8.57826 610.87 8.06878L610.875 8.69556ZM610.875 7.71141C608.95 8.09627 606.96 8.44448 604.907 8.7707C606.889 8.09749 608.878 7.36442 610.875 6.57148V7.71141ZM610.875 6.15729C609.528 6.35889 608.163 6.54949 606.775 6.73092C608.174 6.22877 609.541 5.70523 610.875 5.16031V6.15729ZM613.686 5.40223V5.71745C613.286 5.78343 612.881 5.84879 612.473 5.91355C612.876 5.74983 613.28 5.57939 613.684 5.40223H613.686ZM611.967 6.33506C612.544 6.24709 613.122 6.15179 613.69 6.06016V7.11212C613.126 7.24041 612.55 7.36503 611.967 7.48782V6.33506ZM611.967 7.84519C612.544 7.7224 613.122 7.59778 613.69 7.46766V8.69556H611.967V7.84519ZM616.202 27.7426H613.413V19.8914H616.202V27.7426ZM616.504 8.69556H614.781V7.21475C615.359 7.0773 615.937 6.93252 616.504 6.78957V8.69556ZM616.504 6.43219C615.941 6.57637 615.367 6.7187 614.781 6.85921V5.88056C615.363 5.78037 615.937 5.67896 616.504 5.57633V6.43219ZM619.315 8.69556H617.583V6.49634C618.17 6.33873 618.738 6.17562 619.315 6.01068V8.69556ZM619.315 5.66064C618.757 5.82558 618.181 5.98685 617.583 6.1463V5.37657C618.16 5.26478 618.738 5.15298 619.315 5.03752V5.66064ZM622.126 8.69556H620.393V5.68629C620.984 5.50303 621.56 5.31976 622.126 5.12366V8.69556ZM643.98 6.37538C643.436 6.5574 642.964 6.89575 642.63 7.3438C642.296 7.79185 642.116 8.32753 642.115 8.87699V27.7426H636.093V24.8323H637.764C638.377 24.8323 638.964 24.6006 639.398 24.1882C639.831 23.7757 640.074 23.2164 640.074 22.6331V4.01855C640.074 3.95943 640.086 3.90085 640.11 3.84616C640.133 3.79148 640.168 3.74176 640.212 3.69987C640.255 3.65798 640.308 3.62475 640.365 3.60207C640.422 3.57939 640.484 3.56771 640.546 3.56771H643.503C643.565 3.56747 643.627 3.57897 643.684 3.60154C643.742 3.62411 643.794 3.65731 643.838 3.69922C643.882 3.74113 643.917 3.79093 643.941 3.84574C643.965 3.90055 643.977 3.95928 643.977 4.01855L643.98 6.37538ZM648.926 27.7426H647.684V26.6797H648.926V27.7426ZM648.926 26.2435H647.684V25.0486H648.926V26.2435ZM648.926 24.6106H647.684V13.411H648.926V24.6106ZM648.926 12.973H647.684V11.78H648.926V12.973ZM650.792 6.37538C650.247 6.5574 649.775 6.89575 649.441 7.3438C649.107 7.79185 648.927 8.32753 648.926 8.87699V11.3493H647.684V8.87699C647.684 8.32768 647.504 7.79205 647.171 7.34397C646.837 6.8959 646.365 6.55747 645.821 6.37538V5.77243H650.718C650.728 5.77243 650.738 5.77429 650.747 5.7779C650.756 5.78151 650.764 5.78681 650.771 5.79347C650.778 5.80013 650.783 5.80803 650.787 5.81669C650.79 5.82535 650.792 5.83461 650.792 5.8439V6.37538ZM657.863 15.1979H654.488V14.551H658.664L657.863 15.1979ZM659.21 14.1093H654.496V13.411H660.079L659.21 14.1093ZM667.273 27.7389H662.167V26.8519H667.273V27.7389ZM667.273 25.9869H662.167V24.9973H667.273V25.9869ZM667.273 24.1359H662.167V23.1462H667.273V24.1359ZM667.273 22.2812H662.167V21.2916H667.273V22.2812ZM667.273 20.4284H662.167V19.4387H667.273V20.4284ZM667.273 18.5755H662.167V17.5804H667.273V18.5755Z" fill="#F3B36A"/>
<path fill-rule="evenodd" clip-rule="evenodd" d="M348.918 30.0003H430.164V20.7221H424.254V25.7388L421.729 22.2773V19.3489C422.707 18.7815 423.279 18.0535 423.081 17.493C422.915 17.0249 422.273 16.7759 421.418 16.7759V11.7126C421.47 11.6923 421.518 11.6661 421.563 11.6349C421.605 11.6069 421.643 11.5744 421.677 11.5388C421.716 11.498 421.75 11.4528 421.778 11.4044C421.801 11.3636 421.821 11.3209 421.835 11.277C421.86 11.2012 421.872 11.1229 421.869 11.0445C421.869 11.0216 421.867 10.9987 421.864 10.9758C421.855 10.9102 421.837 10.8458 421.81 10.7853C421.795 10.7528 421.777 10.721 421.758 10.6904C421.701 10.6044 421.625 10.5306 421.536 10.4752C421.446 10.4191 421.346 10.3828 421.24 10.3688C421.135 10.3542 421.027 10.3618 420.925 10.3911C420.824 10.4204 420.729 10.4707 420.649 10.5388L416.632 9.46378L416.755 9.03898L405.748 6.09337L405.849 5.08772C405.86 4.9527 405.822 4.81768 405.741 4.70686C405.659 4.59541 405.54 4.51516 405.404 4.47886L404.327 4.21009C404.199 4.17824 404.065 4.18652 403.944 4.23429C403.823 4.28142 403.721 4.36549 403.653 4.47312L402.857 5.75263C402.801 5.84371 402.772 5.94816 402.772 6.05388L402.8 10.3542C402.801 10.4376 402.821 10.5197 402.858 10.5955C402.895 10.6707 402.949 10.7376 403.015 10.7911V11.198C402.976 11.2159 402.941 11.242 402.914 11.2751C402.887 11.3082 402.868 11.3471 402.86 11.3878L402.486 13.0616C402.477 13.1017 402.479 13.1431 402.488 13.1832C402.499 13.2233 402.517 13.2603 402.544 13.2928C402.571 13.3246 402.605 13.3501 402.644 13.3679C402.683 13.3857 402.725 13.3947 402.769 13.3947H403.012V22.7289H401.85V26.7082L399.888 24.0205V21.8704C400.174 21.7048 400.413 21.5214 400.587 21.3347C400.854 21.0494 400.971 20.7558 400.883 20.5068C400.765 20.1807 400.328 20.003 399.738 19.9871V16.2244C399.815 16.1779 399.878 16.1142 399.921 16.0384C399.966 15.9626 399.989 15.8772 399.989 15.7906C399.99 15.7027 399.968 15.6161 399.924 15.5391C399.88 15.462 399.817 15.397 399.739 15.3499C399.662 15.3034 399.572 15.2767 399.481 15.2722C399.39 15.2677 399.299 15.2856 399.216 15.3244L396.167 14.5079L396.293 14.085L388.155 11.9075L388.207 11.3897C388.218 11.2891 388.189 11.1878 388.129 11.105C388.068 11.0216 387.978 10.9617 387.876 10.9363L387.085 10.7376C386.992 10.714 386.893 10.7197 386.803 10.7548C386.714 10.7898 386.639 10.8516 386.589 10.9312L386.004 11.8719C385.963 11.9387 385.941 12.0145 385.94 12.0922L385.963 15.262C385.963 15.362 386.001 15.4588 386.069 15.5346H386.043V15.8409C385.985 15.8811 385.945 15.9403 385.931 16.0072L385.66 17.2383C385.655 17.2574 385.653 17.2771 385.653 17.2969C385.653 17.3179 385.656 17.3389 385.661 17.3593C385.671 17.3994 385.691 17.4364 385.718 17.4676C385.745 17.4994 385.779 17.5249 385.817 17.5427C385.855 17.5605 385.898 17.5695 385.94 17.5701H386.043V24.2893H385.19V27.796H384.152L379.586 25.7388L379.102 18.9693C379.109 18.9318 379.109 18.8936 379.102 18.8566L378.55 11.205H377.927V9.14088C377.927 9.06827 377.897 8.99822 377.844 8.94663C377.79 8.89504 377.717 8.86574 377.641 8.86511H376.87V7.28499H377.641C377.717 7.28435 377.79 7.25505 377.843 7.2041C377.896 7.15251 377.927 7.08309 377.927 7.01049V2.86625C377.921 2.79683 377.889 2.73251 377.835 2.68538C377.783 2.63825 377.712 2.61213 377.64 2.61213C377.568 2.61213 377.498 2.63825 377.445 2.68538C377.413 2.7134 377.389 2.74779 377.373 2.78537C377.362 2.81084 377.356 2.83823 377.353 2.86625V6.72771H376.87V4.87309C376.874 4.83488 376.868 4.79666 376.856 4.76036C376.843 4.72469 376.822 4.69158 376.795 4.66355C376.768 4.63553 376.735 4.61324 376.699 4.59795C376.663 4.58267 376.623 4.57439 376.584 4.57439C376.544 4.57439 376.504 4.58267 376.468 4.59795C376.431 4.61324 376.399 4.63553 376.372 4.66355C376.345 4.69158 376.324 4.72469 376.311 4.76036C376.298 4.79666 376.293 4.83488 376.296 4.87309V6.72771H375.817V2.86625C375.817 2.79301 375.787 2.72232 375.733 2.67073C375.707 2.64525 375.676 2.62551 375.642 2.61213C375.607 2.59749 375.569 2.58984 375.529 2.58984C375.453 2.58984 375.38 2.61914 375.326 2.67073C375.296 2.69875 375.274 2.73251 375.259 2.76881C375.248 2.79938 375.241 2.8325 375.241 2.86625V7.01049C375.243 7.0538 375.255 7.09583 375.276 7.13341C375.29 7.15697 375.307 7.17926 375.328 7.19837C375.38 7.24868 375.452 7.27671 375.526 7.27734H376.296V8.8581H375.522C375.445 8.8581 375.372 8.88676 375.318 8.93899C375.264 8.99057 375.234 9.06063 375.234 9.13387V11.205H374.613L374.078 18.8655L374.07 18.9031L374.067 18.9388C374.066 18.9521 374.066 18.9649 374.067 18.9783L373.749 23.4295C373.729 23.4645 373.717 23.5034 373.714 23.5428C373.711 23.583 373.717 23.6231 373.732 23.6607L373.65 24.8217H368.539V20.6214H367.634V13.4704H367.76C367.803 13.4704 367.846 13.4609 367.885 13.4431C367.924 13.4259 367.958 13.3998 367.986 13.3679C368.001 13.3501 368.013 13.3303 368.023 13.31C368.031 13.2934 368.037 13.2762 368.042 13.2584C368.051 13.2182 368.051 13.1768 368.042 13.1367L367.756 11.8324C367.747 11.7891 367.729 11.7489 367.701 11.7145C367.683 11.691 367.66 11.6706 367.634 11.6534V11.3197C367.706 11.2388 367.745 11.1369 367.747 11.0312L367.767 7.67349C367.769 7.59069 367.746 7.50981 367.702 7.43848L367.083 6.44238C367.03 6.35831 366.951 6.29208 366.856 6.25514C366.761 6.2182 366.656 6.21119 366.557 6.23667L365.719 6.4462C365.656 6.46149 365.598 6.48951 365.548 6.52773C365.511 6.55511 365.478 6.58759 365.451 6.62453C365.387 6.71242 365.357 6.81942 365.368 6.92642L365.427 7.52509L356.823 9.83063L356.947 10.2554L353.743 11.112C353.657 11.0668 353.562 11.0426 353.464 11.042C353.389 11.0375 353.314 11.0477 353.244 11.0713C353.194 11.0885 353.146 11.112 353.103 11.142C353.06 11.1713 353.022 11.2057 352.99 11.2445C352.943 11.3012 352.908 11.3668 352.889 11.4381C352.854 11.5572 352.865 11.684 352.917 11.7973C352.97 11.9101 353.061 12.0024 353.176 12.0585V16.0377C352.544 16.0486 352.069 16.2403 351.946 16.5861C351.79 17.0249 352.232 17.5911 353 18.0338V20.3202L349.723 24.8128L348.918 25.7102L348.918 30.0003ZM411.737 22.0353H415.064L411.389 25.556L411.737 22.0353ZM416.915 25.9879H411.75L415.631 22.2697L416.915 25.9879ZM414.567 19.1827L415.36 21.4851H412.163L414.567 19.1827ZM412.042 18.9458H413.999L411.834 21.0195L412.042 18.9458ZM413.86 17.1415L414.296 18.3961H412.55L413.86 17.1415ZM413.538 16.2008L413.656 16.5485L412.135 18L412.3 16.3282C412.437 16.36 412.578 16.3778 412.719 16.3804C412.901 16.381 413.081 16.3562 413.254 16.3071C413.351 16.2791 413.446 16.2435 413.538 16.2008ZM419.146 20.1826L418.36 27.796H418.145L414.019 15.8263C414.089 15.7365 414.138 15.6333 414.165 15.5251C414.178 15.4684 414.185 15.4104 414.186 15.3518C414.172 15.1658 414.105 14.9875 413.991 14.8372C413.877 14.6863 413.72 14.5697 413.54 14.5003V9.89368L416.295 10.6318L416.419 10.207L420.438 11.2821C420.469 11.377 420.52 11.4642 420.588 11.5388C420.656 11.6133 420.741 11.6731 420.834 11.7139V16.8084C420.377 16.8612 419.926 16.9606 419.49 17.1058C417.784 17.6631 416.628 18.7382 416.901 19.5069C417.006 19.7897 417.292 19.9916 417.695 20.1056C418.088 20.217 418.592 20.2444 419.146 20.1826ZM417.188 26.7763L417.539 27.796H416.121L417.188 26.7763ZM416.617 26.5419L415.307 27.796H411.168L411.292 26.5419H416.617ZM403.721 11.2592C403.685 11.2216 403.639 11.1942 403.587 11.1802L403.58 10.9044C403.662 10.8809 403.737 10.8414 403.802 10.7879C403.866 10.7344 403.919 10.6681 403.955 10.5943L405.325 7.69833L412.379 9.58734V14.3519C412.023 14.4099 411.713 14.5633 411.51 14.7729C411.351 14.9378 411.256 15.1372 411.256 15.3518C411.265 15.5079 411.314 15.6588 411.398 15.7925C411.483 15.9257 411.602 16.0365 411.742 16.1148L411.183 21.6914C411.177 21.7239 411.177 21.757 411.183 21.7895L410.59 27.796H404.745V22.7289H403.591V13.3947H403.832C403.853 13.3947 403.874 13.3927 403.893 13.3883C403.915 13.3838 403.936 13.3775 403.955 13.3685C403.994 13.3513 404.028 13.3259 404.055 13.2947C404.082 13.2635 404.102 13.2265 404.112 13.1877C404.118 13.1641 404.122 13.1399 404.122 13.1157C404.122 13.0991 404.12 13.0832 404.117 13.0673L403.791 11.3936C403.781 11.3432 403.757 11.2967 403.721 11.2592ZM393.031 19.6737C393.108 19.6865 393.187 19.6928 393.265 19.6935C393.447 19.6935 393.628 19.6604 393.796 19.5948L393.865 19.7992L392.93 20.6947L393.031 19.6737ZM392.62 23.9256H394.814L392.389 26.2547L392.62 23.9256ZM396.244 26.6884H392.743L395.373 24.1619L396.244 26.6884ZM394.589 21.8831L395.109 23.3753L393.04 23.3683L394.589 21.8831ZM392.844 21.6538H394.03L392.721 22.9079L392.844 21.6538ZM394.076 20.3864L394.325 21.1036H393.329L394.076 20.3864ZM397.993 22.4888L397.443 27.796L397.234 27.8049L394.267 19.2044C394.313 19.1222 394.338 19.0305 394.339 18.9369C394.329 18.8006 394.279 18.6694 394.195 18.5586C394.111 18.4484 393.996 18.3624 393.863 18.3114V15.1512L395.829 15.676L395.953 15.2531L399.002 16.0664C399.043 16.1295 399.1 16.183 399.166 16.2224V20.0158C398.855 20.0571 398.55 20.1285 398.253 20.2272C397 20.6374 396.149 21.4277 396.351 21.992C396.497 22.4041 397.161 22.5799 397.993 22.4888ZM396.516 27.4737L396.626 27.796H396.177L396.516 27.4737ZM395.947 27.2387L395.365 27.796H392.229L392.285 27.2387H395.947ZM386.721 15.9027C386.696 15.869 386.663 15.8422 386.625 15.8231L386.632 15.6295C386.714 15.5836 386.78 15.5149 386.819 15.4321L387.745 13.5093L393.027 14.9251V18.2025C392.55 18.2796 392.195 18.5789 392.195 18.9369C392.198 19.0375 392.224 19.1356 392.273 19.2247C392.322 19.3133 392.391 19.3903 392.476 19.4496L392.058 23.5849C392.056 23.611 392.056 23.6365 392.058 23.6619L391.651 27.796H387.478V24.2893H386.625V17.5701H386.727C386.77 17.5701 386.812 17.5612 386.85 17.5434C386.888 17.5262 386.922 17.5007 386.949 17.4695C386.976 17.4389 386.995 17.4032 387.006 17.3644C387.016 17.3255 387.018 17.2848 387.01 17.2453L386.771 16.0148C386.763 15.9741 386.746 15.9358 386.721 15.9027ZM374.37 22.8021L374.602 19.5534L376.181 21.0679L374.37 22.8021ZM376.586 20.6768L374.757 18.9229L376.586 17.1701L378.418 18.9229L376.586 20.6768ZM376.586 13.4991L378.099 14.9487L376.586 16.3982L375.073 14.9487L376.586 13.4991ZM376.181 16.7867L374.697 18.2095L374.886 15.5467L376.181 16.7867ZM374.978 14.2551L375.131 12.105L376.181 13.103L374.978 14.2551ZM375.817 9.41729H377.357V11.2089H375.817V9.41729ZM376.586 12.7266L375.583 11.7661H377.592L376.586 12.7266ZM376.994 13.117L378.042 12.1139L378.195 14.2678L376.994 13.117ZM376.994 16.7956L378.287 15.5556L378.477 18.2185L376.994 16.7956ZM376.994 21.0679L378.575 19.5534L378.807 22.804L376.994 21.0679ZM378.891 24.0027L378.996 25.4669L377.884 24.9669L378.891 24.0027ZM378.659 23.4473L377.234 24.8109L375.717 24.8052L374.407 23.5511L376.586 21.4615L378.659 23.4473ZM374.271 24.1995L374.908 24.8109H374.226L374.271 24.1995ZM359.36 15.8409L359.438 15.6117C359.622 15.6881 359.821 15.7269 360.022 15.7263C360.11 15.7257 360.199 15.718 360.286 15.7027L360.398 16.8319L359.36 15.8409ZM356.844 23.1531L357.779 20.4297L360.62 23.1531H356.844ZM360.729 20.1947L360.978 22.7142L358.34 20.1947H360.729ZM358.608 18.0306L360.3 19.6432H358.047L358.608 18.0306ZM360.491 17.7866L360.627 19.177L359.182 17.7866H360.491ZM359.159 16.4269L360.007 17.2364H358.881L359.159 16.4269ZM361.761 24.8128L361.281 19.9368C361.28 19.9088 361.276 19.8814 361.268 19.8546L360.835 15.4805C360.894 15.4416 360.946 15.3951 360.991 15.3423C361.018 15.3098 361.043 15.2754 361.064 15.2391C361.12 15.1423 361.151 15.0353 361.157 14.9251C361.157 14.7137 361.04 14.522 360.85 14.3793C360.698 14.2653 360.498 14.1825 360.275 14.1455V10.6229L365.85 9.12878L366.847 11.2178C366.893 11.3127 366.972 11.3891 367.069 11.4343V11.6356C367.029 11.654 366.995 11.6814 366.968 11.7152C366.941 11.7489 366.922 11.7884 366.914 11.8305L366.66 13.1348C366.652 13.1749 366.654 13.2163 366.664 13.2552C366.675 13.2947 366.695 13.331 366.722 13.3622C366.749 13.3934 366.783 13.4182 366.822 13.4354C366.86 13.4526 366.902 13.4615 366.944 13.4609H367.071V20.6125H366.166V24.8128H361.761ZM361.075 23.7033L361.185 24.8128H358.293L357.136 23.7033H361.075ZM356.567 23.9396L357.48 24.8128H356.268L356.567 23.9396ZM354.738 16.2906C354.418 16.1855 354.089 16.111 353.754 16.0683L353.752 12.0508C353.839 12.0018 353.91 11.9324 353.959 11.8483L357.164 10.9923L357.287 11.4165L359.384 10.856V14.2602C359.243 14.315 359.122 14.4067 359.033 14.5239C358.945 14.6417 358.892 14.7805 358.881 14.9251C358.881 15.0041 358.896 15.0818 358.927 15.1544C358.938 15.1799 358.95 15.2053 358.965 15.2295L355.66 24.8217H355.645L355.013 18.6987C355.896 18.7866 356.599 18.5987 356.756 18.1611C356.967 17.5625 356.066 16.7262 354.738 16.2906Z" fill="#F3B36A"/>
<path fill-rule="evenodd" clip-rule="evenodd" d="M325.782 20.0636H328.606L340.474 15.3831L345.579 25.6051H349.482L350.249 29.9997H340.474H212.089V25.7007L249.161 25.6669V17.1536L249.223 17.1377V16.3327H252.171L252.571 16.2218V15.1805H256.821V16.2167L257.221 16.3276H260.167V17.1377L260.229 17.1536V25.2886L261.063 25.2599V17.1536L261.125 17.1377V16.3327H264.071L264.473 16.2218V15.1805H268.722V16.2167L269.123 16.3276H272.066V17.1377L272.129 17.1536V24.8803L286.847 24.8084L289.74 23.9498V22.4111H290.375V14.3475C290.332 14.3475 290.29 14.3379 290.251 14.3201C290.228 14.3093 290.207 14.2959 290.188 14.2806C290.175 14.2698 290.163 14.2577 290.152 14.2449C290.137 14.2277 290.125 14.2086 290.115 14.1883C290.107 14.1711 290.1 14.1539 290.096 14.136C290.086 14.0959 290.086 14.0545 290.094 14.0144L290.296 13.0985C290.307 13.045 290.336 12.996 290.379 12.9591V12.7674H290.468C290.419 12.71 290.392 12.6387 290.392 12.5648L290.367 10.2013C290.368 10.1427 290.384 10.0861 290.416 10.0364L290.85 9.33771C290.867 9.30969 290.889 9.28421 290.914 9.26256C290.942 9.23836 290.975 9.21862 291.011 9.20524C291.079 9.17913 291.154 9.17531 291.224 9.19441L291.815 9.3409C291.891 9.36064 291.957 9.40586 292.002 9.46764C292.046 9.52942 292.066 9.60457 292.058 9.67972L292.043 9.8485L298.122 11.477L297.997 11.8999L300.514 12.5757C300.582 12.5922 300.643 12.6253 300.692 12.6718C300.742 12.7183 300.778 12.7769 300.796 12.8406C300.815 12.9043 300.816 12.9718 300.8 13.0361C300.783 13.1005 300.749 13.1597 300.701 13.2081V16.0747C301.106 16.0983 301.397 16.2288 301.48 16.4569C301.579 16.7632 301.27 17.1587 300.731 17.4689V19.0726L301.71 20.4113L302.878 20.0636H307.22V16.2059H308.125V9.06003H307.998C307.955 9.06003 307.912 9.05111 307.874 9.03328C307.847 9.02118 307.822 9.00462 307.801 8.98551C307.791 8.97723 307.782 8.96768 307.774 8.95749C307.747 8.92565 307.727 8.88871 307.717 8.84858C307.707 8.80846 307.707 8.76706 307.716 8.7263L308.004 7.42386C308.018 7.35126 308.062 7.28693 308.125 7.2449V6.91117C308.054 6.83092 308.015 6.72965 308.013 6.62457L307.99 3.26498C307.99 3.18219 308.013 3.1013 308.058 3.02997L308.677 2.03579C308.7 1.99821 308.729 1.96445 308.762 1.93516C308.802 1.90013 308.848 1.87147 308.899 1.85109C308.992 1.81351 309.095 1.80523 309.193 1.82816L310.037 2.0377C310.146 2.06445 310.241 2.12813 310.305 2.21666C310.369 2.30455 310.399 2.41219 310.389 2.51982L310.326 3.11786L318.93 5.42212L318.805 5.84693L322.011 6.70545C322.058 6.67934 322.108 6.66023 322.16 6.64813C322.202 6.63858 322.245 6.63348 322.288 6.63348C322.417 6.62584 322.545 6.66023 322.65 6.7322C322.755 6.80417 322.832 6.90862 322.866 7.02836C322.9 7.14809 322.89 7.27483 322.837 7.3882C322.785 7.50156 322.693 7.59391 322.578 7.64932V11.6292C323.21 11.642 323.683 11.8318 323.807 12.1795C323.964 12.6164 323.522 13.1826 322.753 13.6252V15.9136L325.782 20.0636ZM249.451 16.553V17.0746L251.363 16.553H249.451ZM254.694 15.6397L256.589 16.1594L256.598 15.4009H252.809V16.1594L254.694 15.6397ZM258.024 16.553L259.935 17.0746V16.553H258.024ZM261.353 16.553V17.0746L263.264 16.553H261.353ZM266.596 15.6397L268.49 16.1594V15.4009H264.701V16.1594L266.596 15.6397ZM269.925 16.553L271.837 17.0746V16.553H269.925ZM295.81 15.8474H295.709L295.655 16.4008L296.173 15.9047L296.136 15.7951C296.031 15.8295 295.921 15.8467 295.81 15.8474ZM296.757 17.6192L295.821 18.5153H297.069L296.757 17.6192ZM295.247 20.531L296.777 19.0675H295.393L295.247 20.531ZM295.56 17.3791L295.492 18.0529L296.194 17.3791H295.56ZM296.375 16.4957L296.027 16.8294H296.489L296.375 16.4957ZM294.462 22.5544L294.835 18.7751L294.835 18.7541L294.835 18.7216L295.145 15.6021C295.103 15.5633 295.071 15.5181 295.046 15.469C295.018 15.4111 295.003 15.348 295.001 15.2831C295.001 15.0251 295.264 14.8029 295.618 14.7455V12.5381L291.602 11.4624L291.011 12.6992C290.994 12.7342 290.97 12.7667 290.941 12.7941V12.9463C290.997 12.9884 291.035 13.0482 291.048 13.1145L291.226 14.0284C291.233 14.0685 291.232 14.1093 291.221 14.1488C291.211 14.1883 291.191 14.2246 291.164 14.2564C291.137 14.287 291.103 14.3125 291.065 14.3296C291.027 14.3468 290.986 14.3564 290.943 14.3564V22.42H291.576V23.4091L294.462 22.5544ZM295.06 22.3767L297.479 21.6602L297.619 21.5278H295.143L295.06 22.3767ZM297.337 19.3018L295.589 20.9756H297.916L297.337 19.3018ZM299.506 16.2486C299.704 16.1836 299.906 16.1359 300.112 16.1053L300.105 13.2762L297.765 12.6489L297.641 13.0737L296.241 12.6992V14.8245C296.34 14.8627 296.425 14.9264 296.488 15.0092C296.55 15.092 296.588 15.1901 296.595 15.292C296.595 15.3219 296.591 15.3525 296.583 15.3811L298.64 21.3176L298.975 21.2176L299.313 17.9293C298.696 17.9975 298.203 17.865 298.092 17.5606C297.944 17.1447 298.571 16.553 299.506 16.2486ZM316.387 11.4337L316.313 11.2044C316.129 11.2809 315.93 11.3197 315.729 11.3178C315.64 11.3172 315.552 11.3095 315.464 11.2942L315.352 12.4247L316.387 11.4337ZM318.904 18.7465L317.969 16.0212L315.122 18.7465H318.904ZM315.036 15.79L314.771 18.3077L317.419 15.79H315.036ZM317.131 13.6221L315.448 15.2347H317.692L317.131 13.6221ZM315.257 13.38L315.12 14.7704L316.566 13.38H315.257ZM316.589 12.0184L315.741 12.8298H316.868L316.589 12.0184ZM314.028 20.0636L314.475 15.5264C314.471 15.4996 314.471 15.4729 314.475 15.4461L314.911 11.072C314.816 11.0095 314.738 10.9268 314.683 10.8306C314.627 10.7338 314.595 10.6268 314.589 10.5166C314.589 10.3013 314.711 10.1064 314.908 9.96314C315.059 9.85359 315.253 9.77398 315.472 9.73895V6.21441L309.896 4.72154L308.899 6.80927C308.853 6.90352 308.775 6.98059 308.677 7.02581V7.22706C308.717 7.24553 308.751 7.27292 308.778 7.30668C308.805 7.34043 308.824 7.37992 308.832 7.42195L309.084 8.7263C309.093 8.76642 309.092 8.80719 309.082 8.84667C309.071 8.88616 309.051 8.9231 309.024 8.95431C308.997 8.98551 308.963 9.01035 308.925 9.02755C308.886 9.04474 308.844 9.05302 308.802 9.05239H308.677V16.2059H309.586V20.0636H314.028ZM314.604 20.0636H317.818L318.62 19.2967H314.681L314.604 20.0636ZM319.194 19.526L318.633 20.0636H319.381L319.194 19.526ZM321.022 11.884C321.339 11.7776 321.667 11.7025 322 11.6598L322.002 7.64614C321.916 7.5971 321.844 7.52831 321.794 7.44552L318.59 6.58699L318.466 7.00989L316.372 6.44751V9.85168C316.513 9.90646 316.634 9.99753 316.724 10.1147C316.813 10.2325 316.866 10.3714 316.877 10.5166C316.877 10.572 316.869 10.6268 316.854 10.679C316.84 10.728 316.819 10.7758 316.792 10.821L319.981 20.0636H320.15L320.744 14.2812C320.236 14.3373 319.787 14.2984 319.467 14.1717C319.234 14.0787 319.07 13.9386 319.004 13.7545C318.79 13.1559 319.693 12.3177 321.022 11.884Z" fill="#F3B36A"/>
</g>
<defs>
<clipPath id="clip0">
<rect width="678" height="30" fill="white"/>
</clipPath>
</defs>
</svg>
