<svg width="1030" height="46" viewBox="0 0 1030 46" fill="none" xmlns="http://www.w3.org/2000/svg">
<g clip-path="url(#clip0)">
<path fill-rule="evenodd" clip-rule="evenodd" d="M1.71768 46V39.4747H-4.74374V36.9197H-3.91273V33.7752H-4.74374V33.476C-4.7429 33.1314 -4.82733 32.7919 -4.98956 32.4877C-5.15179 32.1834 -5.3868 31.9238 -5.67374 31.7318V30.0144H-6.84375V25.021C-6.84375 24.9726 -6.86302 24.9262 -6.89734 24.892C-6.93166 24.8577 -6.9782 24.8385 -7.02673 24.8385C-7.05101 24.8381 -7.07513 24.8425 -7.09769 24.8515C-7.12024 24.8605 -7.14076 24.8739 -7.15808 24.8909C-7.1754 24.9079 -7.18915 24.9281 -7.19853 24.9505C-7.20792 24.9728 -7.21274 24.9968 -7.21274 25.021V29.9995H-10.8427V30.4901C-11.6077 30.3735 -12.4267 30.2747 -13.2877 30.191V34.7984H-14.4187V42.308H-14.8777V34.3497H-13.7437V30.0623H-14.8687V29.6345C-14.8695 29.022 -15.0671 28.4258 -15.4327 27.9336C-15.7982 27.4414 -16.3125 27.0791 -16.8997 26.8999V25.033H-18.4237V18.6962C-18.4295 18.6514 -18.4514 18.6103 -18.4853 18.5805C-18.5193 18.5507 -18.563 18.5342 -18.6082 18.5342C-18.6535 18.5342 -18.6972 18.5507 -18.7312 18.5805C-18.7651 18.6103 -18.787 18.6514 -18.7928 18.6962V25.033H-23.4697V25.5536C-25.8891 25.2041 -28.3302 25.0261 -30.7747 25.021C-32.6371 25.0234 -34.498 25.1282 -36.3487 25.3352C-36.2295 25.7106 -36.1688 26.1021 -36.1687 26.496V26.5528H-34.7948V32.6862H-36.1687V42.32H-36.6308V32.2284H-35.2598V27.0136H-36.6308V26.496C-36.6303 25.7318 -36.8821 24.9887 -37.3473 24.3814C-37.8125 23.7742 -38.4653 23.3365 -39.2047 23.1361C-39.7267 22.9955 -40.3237 22.8369 -40.9807 22.6844V20.1473H-42.9397V12.1709C-42.9364 12.1448 -42.9387 12.1183 -42.9464 12.0931C-42.9541 12.0679 -42.9672 12.0446 -42.9846 12.0248C-43.0021 12.0051 -43.0236 11.9892 -43.0476 11.9784C-43.0717 11.9675 -43.0978 11.9619 -43.1242 11.9619C-43.1507 11.9619 -43.1768 11.9675 -43.2009 11.9784C-43.2249 11.9892 -43.2464 12.0051 -43.2639 12.0248C-43.2813 12.0446 -43.2943 12.0679 -43.3021 12.0931C-43.3098 12.1183 -43.3121 12.1448 -43.3087 12.1709V20.1473H-49.2487V21.2572C-51.4783 21.0113 -53.7196 20.8865 -55.9627 20.8833C-61.6227 20.9117 -67.2553 21.6689 -72.7207 23.1361C-73.4597 23.3374 -74.1119 23.7753 -74.5769 24.3824C-75.042 24.9894 -75.2942 25.732 -75.2947 26.496V27.0136H-76.6657V32.2284H-75.2947V33.2905H-89.1667L-89.4517 31.5164C-89.219 31.4841 -89.0074 31.3643 -88.8603 31.1815C-88.7132 30.9987 -88.6418 30.7668 -88.6606 30.5332C-88.6793 30.2996 -88.787 30.082 -88.9614 29.9249C-89.1358 29.7678 -89.3638 29.6832 -89.5987 29.6883H-89.7457L-90.1477 27.1752C-90.7853 23.1945 -91.1083 19.17 -91.1137 15.1389C-90.8695 15.1412 -90.6343 15.0468 -90.4599 14.8762C-90.2855 14.7056 -90.1861 14.4729 -90.1837 14.2293C-90.1814 13.9857 -90.2761 13.7512 -90.4471 13.5772C-90.6182 13.4033 -90.8515 13.3042 -91.0957 13.3019C-91.0417 10.7947 -90.8627 8.29346 -90.5587 5.79824H-90.0397V4.04202H-114.808V5.79824H-114.313C-114.041 8.29745 -113.885 10.8016 -113.845 13.3108C-114.071 13.3333 -114.28 13.4386 -114.432 13.6064C-114.585 13.7742 -114.669 13.9925 -114.669 14.2189C-114.669 14.4452 -114.585 14.6635 -114.432 14.8313C-114.28 14.9991 -114.071 15.1045 -113.845 15.1269C-113.868 19.1571 -114.189 23.1801 -114.805 27.1632L-115.195 29.6883H-115.255C-115.482 29.685 -115.702 29.7656 -115.874 29.9146C-116.045 30.0635 -116.155 30.2704 -116.183 30.4954C-116.21 30.7204 -116.153 30.9476 -116.023 31.1333C-115.893 31.319 -115.698 31.4501 -115.477 31.5014L-115.912 34.2958H-119.062V32.3122H-120.298V30.5829H-125.716V32.3122H-130.627V36.2016H-135.994L-136.984 30.0414C-136.751 30.009 -136.54 29.8894 -136.393 29.707C-136.246 29.5245 -136.175 29.293 -136.193 29.0598C-136.211 28.8265 -136.318 28.609 -136.492 28.4517C-136.666 28.2943 -136.893 28.2091 -137.128 28.2133H-137.275L-137.734 25.3711C-138.437 20.9768 -138.791 16.534 -138.793 12.0842C-138.557 12.0732 -138.334 11.9727 -138.17 11.8032C-138.007 11.6337 -137.914 11.4081 -137.912 11.1726C-137.909 10.9372 -137.997 10.7098 -138.158 10.5372C-138.318 10.3645 -138.539 10.2597 -138.775 10.2442C-138.715 7.4717 -138.515 4.70123 -138.175 1.93275H-137.605V0H-164.767V1.92676H-164.224C-163.924 4.69424 -163.744 7.47967 -163.708 10.2501C-163.929 10.2785 -164.133 10.3864 -164.28 10.5535C-164.427 10.7206 -164.509 10.9356 -164.509 11.1582C-164.509 11.3808 -164.427 11.5957 -164.28 11.7628C-164.133 11.93 -163.929 12.0378 -163.708 12.0662C-163.73 16.5141 -164.083 20.9543 -164.764 25.3501L-165.208 28.2073H-165.244C-165.46 28.2176 -165.666 28.3036 -165.825 28.4503C-165.984 28.597 -166.087 28.795 -166.114 29.0094C-166.141 29.2238 -166.092 29.4409 -165.974 29.6226C-165.857 29.8042 -165.679 29.9387 -165.472 30.0025L-165.949 33.0632H-174.598V25.021H-179.044V19.5818C-179.039 19.5184 -179.047 19.4546 -179.068 19.3944C-179.088 19.3343 -179.121 19.2791 -179.165 19.2323C-179.208 19.1855 -179.26 19.1482 -179.319 19.1227C-179.377 19.0971 -179.44 19.0839 -179.504 19.0839C-179.568 19.0839 -179.631 19.0971 -179.69 19.1227C-179.748 19.1482 -179.801 19.1855 -179.844 19.2323C-179.887 19.2791 -179.92 19.3343 -179.941 19.3944C-179.962 19.4546 -179.97 19.5184 -179.965 19.5818V25.021H-180.463V33.0751H-183.844V46L1.71768 46ZM-87.7177 42.32H-75.2947L-75.2977 40.4531H-88.0177L-87.7177 42.32ZM-88.1437 39.7171H-75.2947L-75.3037 38.8464H-88.2817L-88.1437 39.7171ZM-88.3927 38.1104H-75.2947V37.2398H-88.5307L-88.3927 38.1104ZM-88.6507 36.5038H-75.2947L-75.2887 35.6332H-88.7887L-88.6507 36.5038ZM-88.9087 34.8972H-75.2947V34.0265H-89.0468L-88.9087 34.8972Z" fill="#F3B36A"/>
<path d="M78.0219 38.7134C78.0219 35.2032 78.0007 34.7641 74.2272 34.9254V38.7134H78.0219ZM32.2602 13.7119C32.2602 14.163 31.3936 13.9329 31.1442 13.9867V14.9606C31.3936 15.0144 32.2784 14.7844 32.2602 15.2384C32.2419 15.6925 31.3905 15.4595 31.1442 15.5103V16.4842C31.3936 16.538 32.2784 16.3079 32.2602 16.762C32.2419 17.2161 31.3905 16.9801 31.1442 17.0339V19.4955L40.2814 21.978V19.5702C40.0351 19.5194 39.1472 19.7464 39.1685 19.2923C39.1898 18.8383 40.0351 19.0713 40.2814 19.0175V18.0436C40.0351 17.9928 39.1503 18.2199 39.1685 17.7688C39.1868 17.3177 40.0351 17.5477 40.2814 17.4939V16.52C40.0351 16.4692 39.1472 16.6963 39.1685 16.2422C39.1898 15.7881 40.0351 16.0241 40.2814 15.9704V14.9935C40.0351 14.9427 39.1503 15.1697 39.1685 14.7186C39.1868 14.2675 40.0351 14.5006 40.2814 14.4468V13.4699C40.0351 13.4191 39.1503 13.6462 39.1685 13.1951C39.1868 12.744 40.0351 12.974 40.2814 12.9202V11.555C37.2395 11.6709 34.1932 11.6051 31.1594 11.3578V11.9105C31.4088 11.9613 32.2936 11.7342 32.2754 12.1883C32.2571 12.6424 31.4057 12.4064 31.1594 12.4602V13.437C31.3905 13.4878 32.2784 13.2608 32.2602 13.7119ZM28.4806 10.9366L29.2742 11.0172V10.9366H28.4806ZM29.2894 8.72889C16.9596 8.00594 8.97789 5.98945 2.89355 2.05504V2.19843C5.63014 6.8767 20.4685 10.3152 28.3651 10.9276C28.3026 10.9068 28.2494 10.8651 28.2149 10.8099C28.1803 10.7546 28.1665 10.6892 28.1759 10.625C28.1853 10.5608 28.2173 10.5018 28.2663 10.4583C28.3152 10.4149 28.3782 10.3896 28.4441 10.3869H29.2742V8.8932C29.276 8.83818 29.281 8.78332 29.2894 8.72889ZM29.2894 11.1995C21.1648 10.6289 6.12272 7.34573 2.89355 2.50614V24.2753L10.4952 21.5867L22.8068 24.7712V17.231L29.2742 18.9876V17.0219C29.0279 16.9711 28.1462 17.1952 28.1614 16.7501C28.1766 16.3049 29.0249 16.526 29.2742 16.4722V15.5103C29.031 15.4595 28.1462 15.6836 28.1614 15.2384C28.1766 14.7933 29.0249 15.0144 29.2742 14.9606V13.9867C29.0279 13.9359 28.1431 14.16 28.1614 13.7119C28.1796 13.2638 29.0249 13.4908 29.2742 13.437V12.4602C29.0279 12.4094 28.1462 12.6334 28.1614 12.1883C28.1766 11.7432 29.0249 11.9613 29.2742 11.9105L29.2894 11.1995ZM365.281 22.7936V21.8974H356.798L360.009 22.7936H365.281ZM327.535 21.8974V22.7936H332.807L336.018 21.8974H327.535ZM310.896 6.04621H310.163L310.002 8.81254H310.735L310.896 6.04621ZM310.197 5.49354H310.927L311.091 2.7272H310.361L310.197 5.49354ZM326.364 26.0469H327.334V23.0415H326.364V26.0469ZM326.364 29.2374H327.334V26.2321H326.364V29.2374ZM326.364 32.4279H327.334V29.4226H326.364V32.4279ZM327.334 42.0056V39.0002H326.364V42.0085L327.334 42.0056ZM327.334 38.812V35.8097H326.364V38.8299L327.334 38.812ZM327.334 35.6215V32.6132H326.364V35.6245L327.334 35.6215ZM309.51 29.2703H308.765L308.722 30.0022H309.464L309.51 29.2703ZM309.704 25.9513H308.962L308.798 28.7206H309.543L309.704 25.9513ZM309.899 22.6323H309.157L308.993 25.4016H309.735L309.899 22.6323ZM310.097 19.3133H309.355L309.19 22.0826H309.932L310.097 19.3133ZM310.288 15.9943H309.552L309.388 18.7606H310.118L310.288 15.9943ZM310.483 12.6753H309.747L309.583 15.4416H310.319L310.483 12.6753ZM310.68 9.35625H309.941L309.777 12.1256H310.516L310.68 9.35625ZM280.988 38.5013V37.2496H275.473C271.48 36.8822 275.369 32.3294 271.322 32.7924V38.5013H280.988ZM229.76 42.3192V23.8511H227.327V38.3908C227.354 40.6403 225.059 41.4559 223.113 41.19V42.3192H229.76ZM229.76 12.4064C229.455 10.0165 231.246 7.7311 233.804 7.89242C234.129 3.5577 227.418 3.24104 227.336 7.59368V12.4064H229.76ZM214.1 12.4064C213.796 10.0165 215.587 7.72811 218.144 7.89242C218.47 3.56069 211.759 3.24104 211.68 7.59368V12.4064H214.1ZM178.737 12.1584V10.4108H176.065V12.1584H178.737ZM182.1 12.1584V10.4108H179.428V12.1584H182.1ZM181.109 9.72967H184.962L181.109 6.05218V9.72967ZM185.451 10.4108H182.775V12.1584H185.451V10.4108ZM162.674 22.229L165.577 19.4387H162.674V22.229ZM166.563 19.4387L163.042 22.8205H166.541C166.9 21.6342 167.41 20.4978 168.062 19.4387H166.563ZM172.525 25.2462H179.771V24.4426H166.158C166.213 24.126 166.28 23.8093 166.359 23.4986H162.674V39.5977H163.72C163.932 38.3161 166.56 28.2456 165.942 27.1522H179.771V26.0498H172.525V25.2462ZM153.166 22.8205L149.641 19.4387H148.425C149.078 20.4972 149.589 21.6338 149.945 22.8205H153.166ZM153.968 22.6442L154.126 22.4918V19.4387H150.627L153.968 22.6442ZM137.071 26.0498V27.1522H150.557C149.949 28.2994 152.554 38.2623 152.776 39.5977H154.132V23.4986H150.14C150.219 23.7973 150.283 24.126 150.341 24.4426H137.071V25.2462H144.314V26.0498H137.071ZM136.077 9.72967H139.927L136.077 6.05218V9.72967ZM140.431 10.4108H137.759V12.1584H140.431V10.4108ZM133.708 12.1584V10.4108H131.024V12.1584H133.708ZM137.071 10.4108H134.396V12.1584H137.071V10.4108ZM135.387 2.64356C135.395 2.55912 135.435 2.48069 135.499 2.42359C135.562 2.3665 135.646 2.33486 135.732 2.33486C135.818 2.33486 135.902 2.3665 135.965 2.42359C136.029 2.48069 136.069 2.55912 136.077 2.64356V5.10816L141.018 9.83124C141.051 9.8624 141.076 9.89956 141.094 9.94058C141.112 9.9816 141.121 10.0257 141.122 10.0702V13.3564C143.914 14.4338 146.31 16.3142 147.996 18.7516H154.132C154.47 18.426 153.327 3.25597 154.82 3.94009H161.993C163.492 3.3217 162.336 18.3453 162.68 18.7516H168.506C170.194 16.3147 172.591 14.4344 175.384 13.3564C175.384 8.21207 174.602 10.0404 180.428 9.71772V2.64356C180.428 2.55403 180.464 2.46816 180.529 2.40486C180.593 2.34155 180.68 2.30598 180.772 2.30598C180.863 2.30598 180.95 2.34155 181.015 2.40486C181.079 2.46816 181.115 2.55403 181.115 2.64356V5.10816L186.059 9.82826C186.092 9.85899 186.118 9.89607 186.136 9.93719C186.154 9.9783 186.163 10.0226 186.163 10.0672V13.3534C188.537 14.2681 190.631 15.7671 192.246 17.7064C193.86 19.6457 194.94 21.9602 195.382 24.4277H182.459V25.2313H189.702V26.0349H182.447V27.1373H195.586C194.978 28.2844 197.583 38.2474 197.805 39.5828H199.843V40.2579H210.743V7.58771C210.747 7.03937 210.863 6.4974 211.084 5.99388C211.305 5.49037 211.627 5.03555 212.03 4.65636C212.433 4.27717 212.91 3.98132 213.432 3.78633C213.953 3.59134 214.509 3.50117 215.067 3.52116C215.625 3.54115 216.173 3.6709 216.679 3.90272C217.184 4.13454 217.638 4.46372 218.012 4.87076C218.386 5.27781 218.673 5.75444 218.856 6.27244C219.039 6.79045 219.114 7.33928 219.078 7.88645C219.596 7.85553 220.115 7.92894 220.604 8.10218C221.092 8.27542 221.539 8.54484 221.918 8.89392C222.297 9.243 222.599 9.66439 222.806 10.1322C223.013 10.6001 223.12 11.1046 223.122 11.6147V40.2669C224.511 40.4252 226.43 40.1325 226.403 38.3848V7.58771C226.473 2.03114 235.065 2.36274 234.74 7.88645C235.258 7.85553 235.778 7.92894 236.266 8.10218C236.754 8.27542 237.202 8.54484 237.58 8.89392C237.959 9.243 238.261 9.66439 238.468 10.1322C238.675 10.6001 238.783 11.1046 238.784 11.6147V37.2645H241.718V33.5542H245.729V32.658C244.209 31.6572 245.395 29.9693 247.192 30.0081C248.989 29.9544 250.177 31.6572 248.654 32.658V33.5542H251.695L260.047 30.9372L263.155 28.9357L263.635 29.814L271.319 27.424V31.9051C276.315 31.6064 272.776 36.0517 275.47 36.3624H280.988V33.9724H286.288V42.364H287.842V35.9471H288.855V31.8663C288.854 31.806 288.866 31.7463 288.889 31.6905C288.912 31.6347 288.947 31.5839 288.99 31.5412C289.033 31.4984 289.084 31.4645 289.141 31.4413C289.198 31.4182 289.258 31.4063 289.32 31.4063C289.444 31.4062 289.564 31.4546 289.652 31.5408C289.74 31.627 289.79 31.744 289.791 31.8663V35.9471H291.816V31.8663C291.811 31.803 291.819 31.7393 291.84 31.6792C291.861 31.6192 291.895 31.564 291.939 31.5173C291.983 31.4706 292.036 31.4334 292.095 31.4079C292.154 31.3824 292.218 31.3692 292.283 31.3692C292.348 31.3692 292.412 31.3824 292.471 31.4079C292.53 31.4334 292.583 31.4706 292.627 31.5173C292.671 31.564 292.704 31.6192 292.726 31.6792C292.747 31.7393 292.755 31.803 292.75 31.8663V35.9471H294.772V31.8663C294.781 31.7503 294.835 31.6421 294.922 31.5632C295.009 31.4842 295.123 31.4404 295.241 31.4404C295.36 31.4404 295.474 31.4842 295.561 31.5632C295.648 31.6421 295.702 31.7503 295.711 31.8663V35.9471H297.733V31.8663C297.728 31.803 297.736 31.7393 297.757 31.6792C297.778 31.6192 297.812 31.564 297.856 31.5173C297.9 31.4706 297.953 31.4334 298.012 31.4079C298.071 31.3824 298.135 31.3692 298.2 31.3692C298.265 31.3692 298.329 31.3824 298.388 31.4079C298.447 31.4334 298.5 31.4706 298.544 31.5173C298.588 31.564 298.622 31.6192 298.643 31.6792C298.664 31.7393 298.672 31.803 298.667 31.8663V35.9471H300.692V31.8663C300.693 31.744 300.743 31.627 300.831 31.5408C300.919 31.4546 301.039 31.4062 301.163 31.4063C301.224 31.4063 301.285 31.4182 301.342 31.4413C301.398 31.4645 301.45 31.4984 301.493 31.5412C301.536 31.5839 301.571 31.6347 301.594 31.6905C301.617 31.7463 301.629 31.806 301.628 31.8663V35.9471H304.839V30.0111H308.16L309.814 2.17752H315.591L317.075 30.0111H321.66V35.9471H322.81V42.3192H327.325V42.1908H326.169V22.8563H327.325V22.7936V21.7151H336.657L345.918 19.14V16.6843C345.675 16.6455 344.952 16.8307 344.964 16.4065C344.976 15.9823 345.675 16.1705 345.918 16.1317V15.6298C345.675 15.591 344.952 15.7762 344.964 15.352C344.976 14.9277 345.678 15.1189 345.918 15.0801V14.5722C345.678 14.5334 344.952 14.7186 344.964 14.2974C344.976 13.8762 345.675 14.0614 345.918 14.0226V13.5177C345.678 13.4789 344.952 13.6641 344.964 13.2429C344.976 12.8216 345.675 13.0069 345.918 12.968C345.918 12.5946 345.779 11.7731 346.384 11.797C346.989 11.8209 346.837 12.5916 346.855 12.968C347.098 13.0069 347.822 12.8216 347.81 13.2429C347.798 13.6641 347.098 13.4789 346.855 13.5177V14.0345C347.095 14.0734 347.822 13.8881 347.81 14.3094C347.798 14.7306 347.098 14.5454 346.855 14.5842V15.0921C347.095 15.1309 347.822 14.9457 347.81 15.3639C347.798 15.7821 347.101 15.6029 346.855 15.6417V16.1257C347.095 16.1615 347.822 15.9823 347.81 16.4005C347.798 16.8188 347.101 16.6395 346.855 16.6784V19.134L356.114 21.7092H365.458V22.7876V42.3133H369.106V45.9997H-4.89355V42.3252H-0.250481V25.3866L1.9996 24.586V1.18869H2.89355V1.83397C8.97485 5.79527 16.9505 7.82371 29.3472 8.54965C29.6756 7.62654 31.1716 7.88047 31.1534 8.88125V10.375C31.3997 10.4257 32.2845 10.2017 32.2693 10.6498C32.2541 11.0979 31.4027 10.8709 31.1534 10.9246V11.1666C34.1935 11.4087 37.2457 11.4715 40.2936 11.3548C40.327 10.1957 42.1818 10.2375 42.1605 11.3996V12.9083C42.4068 12.9591 43.2916 12.735 43.2734 13.1831C43.2551 13.6312 42.4098 13.4042 42.1605 13.4579V14.4348C42.4038 14.4856 43.2886 14.2616 43.2734 14.7067C43.2582 15.1518 42.4098 14.9277 42.1605 14.9815V15.9584C42.4038 16.0092 43.2886 15.7851 43.2734 16.2303C43.2582 16.6754 42.4098 16.4573 42.1605 16.5081V17.482C42.4068 17.5328 43.2916 17.3087 43.2734 17.7568C43.2551 18.2049 42.4098 17.9779 42.1605 18.0317V19.0056C42.4068 19.0563 43.2916 18.8323 43.2734 19.2804C43.2551 19.7285 42.4098 19.5074 42.1605 19.5582V22.4739L64.9107 28.6728C66.3823 26.6921 68.2706 25.5868 70.8643 25.4165V30.289L74.2272 31.1852V33.6229C78.7395 33.3988 79.3507 34.4982 79.3568 38.7015H83.6137V39.8965H89.9747L91.2214 12.6753C90.741 12.6962 89.9048 12.741 89.9383 12.0539C89.9383 11.3548 90.7988 11.4564 91.2792 11.4564L91.3278 10.354C89.8075 10.5841 89.9079 8.86034 91.3856 9.13518L91.4342 8.03283C90.218 8.21207 90.297 6.58095 91.492 6.81397C91.3582 5.27845 92.0515 3.54874 93.7938 3.40534C93.9063 3.19921 93.4897 -0.149662 94.0766 -0.00626709C94.6452 -0.137713 94.2408 3.18428 94.3563 3.40534C96.1047 3.54874 96.7888 5.27845 96.6581 6.81397C97.8744 6.58394 97.9321 8.21207 96.7128 8.03283L96.7645 9.13518C98.2423 8.86034 98.3335 10.5841 96.8223 10.354L96.8709 11.4564C97.3483 11.4564 98.221 11.3518 98.2088 12.0539C98.2423 12.744 97.4091 12.6962 96.9287 12.6753L97.1537 17.5447L98.148 39.2093L99.0967 18.0257C98.6984 18.0436 98.0051 18.0824 98.0325 17.5089C98.0598 16.9353 98.7622 17.0219 99.1575 17.0219L99.2001 16.1048C97.9504 16.299 98.0203 14.862 99.2457 15.0921L99.2883 14.1779C98.2788 14.3273 98.3396 12.983 99.3339 13.1652C99.2305 11.9075 99.7808 10.4765 101.198 10.3421C101.304 10.118 100.918 7.35469 101.481 7.45626C102.04 7.35768 101.654 10.1061 101.76 10.3421C103.18 10.4915 103.734 11.9075 103.624 13.1652C104.615 12.974 104.679 14.3273 103.67 14.1779L103.712 15.0921C104.929 14.862 105.014 16.287 103.758 16.1048L103.804 17.0219C104.199 17.0219 104.923 16.9383 104.913 17.5148C104.904 18.0914 104.251 18.0496 103.849 18.0317L104.874 40.0518L105.549 25.3448C104.485 25.5031 104.536 24.4486 105.582 24.6159L105.613 23.9557C104.701 24.0961 104.758 23.0595 105.643 23.2267L105.677 22.5695C104.947 22.6771 104.996 21.7002 105.71 21.8406C105.643 20.9653 105.996 19.9675 106.975 19.8181C107.078 19.5791 106.707 17.5895 107.252 17.6523C107.805 17.5925 107.431 19.5672 107.535 19.8181C108.514 19.9675 108.866 20.9653 108.796 21.8406C109.508 21.7002 109.563 22.6741 108.833 22.5695L108.86 23.2267C109.742 23.0595 109.8 24.0931 108.897 23.9557L108.924 24.6159C109.97 24.4337 110.025 25.5121 108.958 25.3448L109.739 42.3192H117.246V39.5977H118.706C118.919 38.3161 121.546 28.2456 120.926 27.1522H134.411V26.0498H127.153V25.2462H134.396V24.4426H121.126C121.57 21.976 122.651 19.6625 124.265 17.7235C125.879 15.7846 127.973 14.285 130.345 13.3683C130.345 8.21805 129.588 10.0553 135.387 9.72967V2.64356ZM241.718 42.3192V40.5089H238.784V42.3192H241.718ZM241.718 39.5917V38.1877H238.784V39.5917H241.718ZM229.76 22.934V13.3265H227.327V22.934H229.76ZM214.1 42.3192V41.19H199.843V42.3192H214.1ZM214.1 40.2729V23.8422H211.668V40.2729H214.1ZM214.1 22.9459V13.3265H211.668V22.934L214.1 22.9459ZM196.398 39.5977L194.692 31.929C193.787 34.353 192.245 36.4981 190.222 38.1458V39.5977H196.398ZM171.306 39.5977V38.1458C169.284 36.4966 167.741 34.3521 166.833 31.929L165.13 39.5977H171.306ZM151.365 39.5977L149.663 31.929C148.757 34.3523 147.215 36.497 145.193 38.1458V39.5977H151.365ZM126.274 39.5977V38.1458C124.251 36.4981 122.709 34.353 121.804 31.929L120.102 39.5977H126.274ZM89.8592 42.3192L89.9109 41.184H83.6107V42.3192H89.8592ZM45.2012 35.3825V28.2306H42.9085V35.3825H45.2012ZM41.9568 35.3825V27.209H39.6641V35.3825H41.9568ZM38.7094 35.3825V26.4203H36.4167V35.3825H38.7094ZM35.465 35.3825V25.4165H33.1723V35.3825H35.465ZM32.2145 35.3825V24.4546H29.9219V35.3825H32.2145Z" fill="#F3B36A"/>
<path d="M1025.81 27.5012V12.1439L1018.33 19.0118V12.3013C1018.68 12.1763 1018.98 11.9514 1019.2 11.6565C1019.41 11.3617 1019.53 11.0111 1019.53 10.6518C1019.53 9.67664 1018.7 10.9328 1017.69 10.9328C1016.68 10.9328 1015.85 9.67102 1015.85 10.6518C1015.85 11.011 1015.97 11.3614 1016.18 11.6562C1016.39 11.9509 1016.7 12.176 1017.05 12.3013V20.1921L1013.69 23.2663V25.6437H1005.94V17.9412L1003.57 19.8914H994.281V13.6108C994.28 12.7682 994.007 11.9466 993.499 11.2595C992.992 10.5725 992.275 10.0537 991.447 9.775V8.97131C991.447 8.60462 991.373 8.24146 991.227 7.90259C991.081 7.56371 990.867 7.25576 990.597 6.99635C990.328 6.73694 990.007 6.53114 989.655 6.39073C989.302 6.25033 988.924 6.17806 988.543 6.17806H981.035C980.856 5.23236 980.337 4.377 979.569 3.76086C978.801 3.14471 977.833 2.8068 976.832 2.80592H973.095C972.164 2.80592 971.271 3.1612 970.613 3.7936C969.955 4.426 969.585 5.28371 969.585 6.17806V34.7007C969.584 34.8816 969.508 35.0547 969.376 35.1829C969.243 35.3111 969.063 35.3842 968.874 35.3864H966.333V13.3326H946.761V7.51005C946.764 7.31727 946.693 7.13018 946.563 6.98384C946.432 6.8375 946.25 6.74195 946.051 6.71507C945.853 6.68818 945.651 6.73183 945.483 6.83782C945.316 6.94381 945.194 7.10488 945.141 7.29086C944.291 7.59248 943.407 7.88567 942.488 8.17042V7.51005C942.488 7.3295 942.424 7.15443 942.306 7.0138C942.188 6.87318 942.024 6.77544 941.84 6.73676C941.657 6.69808 941.465 6.72078 941.297 6.8011C941.128 6.88142 940.994 7.01455 940.915 7.17846C940.037 7.3583 939.131 7.53815 938.218 7.71238V7.51005C938.225 7.40183 938.209 7.29343 938.17 7.19152C938.132 7.0896 938.072 6.99633 937.994 6.91742C937.917 6.83852 937.824 6.77565 937.72 6.73268C937.617 6.6897 937.505 6.66754 937.392 6.66754C937.279 6.66754 937.168 6.6897 937.064 6.73268C936.96 6.77565 936.867 6.83852 936.79 6.91742C936.712 6.99633 936.653 7.0896 936.614 7.19152C936.576 7.29343 936.559 7.40183 936.566 7.51005V8.02149C935.704 8.1826 934.832 8.3381 933.948 8.48797V7.51005C933.948 7.29913 933.861 7.09685 933.706 6.94771C933.551 6.79857 933.34 6.71479 933.121 6.71479C932.901 6.71479 932.691 6.79857 932.535 6.94771C932.38 7.09685 932.293 7.29913 932.293 7.51005V7.71238C931.421 8.08706 930.549 8.45706 929.675 8.82237V7.51005C929.677 7.3135 929.602 7.1234 929.466 6.97666C929.33 6.82993 929.142 6.73703 928.939 6.71602C928.735 6.695 928.531 6.74737 928.366 6.86295C928.2 6.97852 928.085 7.14906 928.043 7.34144C925.245 8.49921 922.337 9.58953 919.343 10.6349C898.683 13.2286 875.54 14.4679 859.633 14.3105C859.458 14.1739 859.247 14.0877 859.023 14.0618C858.8 14.036 858.573 14.0717 858.37 14.1646C858.166 14.2576 857.995 14.4041 857.874 14.5871C857.754 14.7701 857.691 14.9821 857.691 15.1985V22.7577L856.767 22.2491C856.137 21.9026 855.423 21.7214 854.697 21.7236C853.971 21.7259 853.259 21.9116 852.631 22.2621C852.003 22.6126 851.483 23.1155 851.122 23.7204C850.76 24.3253 850.571 25.0109 850.572 25.7083V32.0451H848.554C848.413 32.0451 848.273 32.0184 848.143 31.9664C848.012 31.9144 847.894 31.8381 847.794 31.7421C847.695 31.646 847.616 31.532 847.562 31.4065C847.508 31.2811 847.481 31.1467 847.481 31.011V5.37717C847.48 4.69099 847.196 4.03313 846.691 3.54792C846.186 3.06272 845.501 2.78981 844.787 2.78906H819.001C818.287 2.79055 817.603 3.06379 817.099 3.54892C816.594 4.03404 816.311 4.69148 816.31 5.37717V5.5514C816.135 5.58607 815.978 5.6772 815.865 5.80962C815.751 5.94205 815.689 6.10777 815.687 6.27922V6.79066C813.941 7.11225 812.365 8.00878 811.233 9.32591C810.1 10.643 809.48 12.2984 809.481 14.007V13.5293H803.047V10.7529C803.045 9.86823 802.678 9.02025 802.027 8.39494C801.376 7.76964 800.493 7.41806 799.572 7.41732H751.058C750.219 7.41879 749.408 7.71215 748.777 8.24318C748.145 8.7742 747.735 9.50699 747.622 10.3061H745.683C744.824 10.3069 744 10.6352 743.393 11.2191C742.786 11.8029 742.445 12.5944 742.445 13.4197V14.791C742.44 15.1569 742.286 15.5063 742.017 15.765C741.748 16.0238 741.384 16.1713 741.003 16.1764H734.753V14.3583H731.606V8.98817H699.107H699.072H699.037H699.008L698.97 9.00222L698.947 9.01627C698.935 9.0184 698.925 9.02437 698.917 9.03313L698.891 9.0528C698.882 9.05958 698.873 9.0671 698.865 9.07528L698.844 9.10057L698.821 9.12586C698.82 9.13522 698.82 9.1446 698.821 9.15396L698.803 9.18488C698.803 9.18488 698.803 9.19893 698.803 9.20174C698.802 9.21389 698.802 9.22611 698.803 9.23827C698.803 9.25232 698.803 9.26075 698.803 9.2748V14.333H695.624V19.2816H734.753V17.9046H741.003C741.862 17.9039 742.686 17.5756 743.294 16.9919C743.901 16.4081 744.243 15.6166 744.244 14.791V13.4197C744.244 13.0528 744.395 12.7008 744.665 12.4411C744.935 12.1814 745.301 12.0351 745.683 12.0343H747.586V20.1668C747.586 20.5929 747.409 21.0013 747.096 21.3026C746.782 21.6038 746.357 21.7734 745.914 21.7742H734.753V20.6248H695.624V24.6517H734.753V23.5024H745.914C746.834 23.5016 747.717 23.15 748.367 22.5246C749.018 21.8992 749.384 21.0512 749.385 20.1668V12.0343H785.651C786.033 12.0343 786.4 12.1803 786.67 12.4401C786.941 12.6999 787.093 13.0523 787.093 13.4197V27.6782H782.837V24.6517H774.019V22.1226H774.411C774.57 22.1226 774.722 22.0621 774.834 21.9543C774.946 21.8465 775.009 21.7004 775.009 21.548C775.009 21.3955 774.946 21.2494 774.834 21.1416C774.722 21.0338 774.57 20.9733 774.411 20.9733H774.019V20.1499H774.411C774.569 20.1499 774.721 20.0897 774.832 19.9824C774.944 19.8752 775.007 19.7297 775.007 19.5781C775.007 19.4264 774.944 19.281 774.832 19.1737C774.721 19.0665 774.569 19.0062 774.411 19.0062H774.019V18.1885H774.411C774.567 18.1885 774.715 18.1293 774.825 18.0239C774.935 17.9185 774.996 17.7755 774.996 17.6264C774.996 17.4774 774.935 17.3344 774.825 17.229C774.715 17.1236 774.567 17.0644 774.411 17.0644H774.019V16.3001C774.006 16.0575 773.896 15.8291 773.712 15.6621C773.529 15.495 773.285 15.4019 773.032 15.4019C772.78 15.4019 772.536 15.495 772.353 15.6621C772.169 15.8291 772.059 16.0575 772.045 16.3001V17.0391H771.653C771.498 17.0391 771.35 17.0983 771.24 17.2037C771.13 17.3091 771.069 17.4521 771.069 17.6012C771.069 17.7502 771.13 17.8932 771.24 17.9986C771.35 18.104 771.498 18.1632 771.653 18.1632H772.045V18.9809H771.653C771.496 18.9809 771.344 19.0412 771.233 19.1484C771.121 19.2557 771.058 19.4011 771.058 19.5528C771.058 19.7044 771.121 19.8499 771.233 19.9571C771.344 20.0644 771.496 20.1246 771.653 20.1246H772.045V20.9424H771.653C771.495 20.9424 771.343 21.0029 771.231 21.1107C771.118 21.2185 771.055 21.3646 771.055 21.517C771.055 21.6695 771.118 21.8156 771.231 21.9234C771.343 22.0312 771.495 22.0917 771.653 22.0917H772.045V24.6208H767.266V22.0917H767.658C767.817 22.0917 767.969 22.0312 768.081 21.9234C768.193 21.8156 768.256 21.6695 768.256 21.517C768.256 21.3646 768.193 21.2185 768.081 21.1107C767.969 21.0029 767.817 20.9424 767.658 20.9424H767.266V20.1499H767.658C767.816 20.1499 767.968 20.0897 768.079 19.9824C768.191 19.8752 768.254 19.7297 768.254 19.5781C768.254 19.4264 768.191 19.281 768.079 19.1737C767.968 19.0665 767.816 19.0062 767.658 19.0062H767.266V18.1885H767.658C767.776 18.188 767.892 18.154 767.99 18.0909C768.088 18.0277 768.164 17.9381 768.209 17.8334C768.255 17.7287 768.267 17.6135 768.244 17.5022C768.222 17.3909 768.165 17.2885 768.082 17.2077C767.969 17.1005 767.817 17.04 767.658 17.0391H767.266V16.3001C767.266 16.0489 767.163 15.808 766.978 15.6304C766.793 15.4528 766.542 15.3531 766.281 15.3531C766.019 15.3531 765.769 15.4528 765.584 15.6304C765.399 15.808 765.295 16.0489 765.295 16.3001V17.0391H764.903C764.749 17.0427 764.603 17.1031 764.494 17.2077C764.385 17.3123 764.322 17.4532 764.318 17.6012C764.318 17.7502 764.38 17.8932 764.49 17.9986C764.599 18.104 764.748 18.1632 764.903 18.1632H765.295V18.9809H764.903C764.745 18.9809 764.594 19.0412 764.483 19.1484C764.371 19.2557 764.308 19.4011 764.308 19.5528C764.308 19.7044 764.371 19.8499 764.483 19.9571C764.594 20.0644 764.745 20.1246 764.903 20.1246H765.295V20.9424H764.903C764.745 20.9424 764.593 21.0029 764.48 21.1107C764.368 21.2185 764.305 21.3646 764.305 21.517C764.305 21.6695 764.368 21.8156 764.48 21.9234C764.593 22.0312 764.745 22.0917 764.903 22.0917H765.295V24.6208H760.519V22.0917H760.908C761.067 22.0917 761.219 22.0312 761.331 21.9234C761.443 21.8156 761.506 21.6695 761.506 21.517C761.506 21.3646 761.443 21.2185 761.331 21.1107C761.219 21.0029 761.067 20.9424 760.908 20.9424H760.519V20.1499H760.908C761.066 20.1499 761.217 20.0897 761.329 19.9824C761.441 19.8752 761.503 19.7297 761.503 19.5781C761.503 19.4264 761.441 19.281 761.329 19.1737C761.217 19.0665 761.066 19.0062 760.908 19.0062H760.519V18.1885H760.908C761.065 18.1885 761.215 18.1298 761.327 18.0247C761.439 17.9197 761.504 17.7768 761.508 17.6264C761.507 17.4738 761.444 17.3276 761.332 17.219C761.277 17.1649 761.211 17.122 761.138 17.093C761.065 17.0641 760.987 17.0496 760.908 17.0504H760.519V16.3001C760.519 16.0482 760.415 15.8066 760.23 15.6285C760.044 15.4503 759.793 15.3503 759.531 15.3503C759.269 15.3503 759.017 15.4503 758.832 15.6285C758.646 15.8066 758.542 16.0482 758.542 16.3001V17.0391H758.153C757.997 17.0391 757.846 17.0979 757.734 17.2029C757.622 17.3079 757.558 17.4508 757.554 17.6012C757.554 17.6762 757.569 17.7504 757.6 17.8195C757.63 17.8887 757.674 17.9512 757.73 18.0036C757.786 18.056 757.852 18.0971 757.925 18.1245C757.998 18.1519 758.075 18.1651 758.153 18.1632H758.542V18.9809H758.153C757.995 18.9809 757.844 19.0412 757.732 19.1484C757.621 19.2557 757.558 19.4011 757.558 19.5528C757.558 19.7044 757.621 19.8499 757.732 19.9571C757.844 20.0644 757.995 20.1246 758.153 20.1246H758.542V20.9424H758.153C757.995 20.9424 757.842 21.0029 757.73 21.1107C757.618 21.2185 757.555 21.3646 757.555 21.517C757.555 21.6695 757.618 21.8156 757.73 21.9234C757.842 22.0312 757.995 22.0917 758.153 22.0917H758.542V24.6208H752.158V28.5409H734.753V25.995H695.624V28.5241H694.577C693.131 28.5241 691.745 29.0759 690.722 30.0582C689.7 31.0406 689.126 32.3729 689.126 33.7621V42.5297H686.765V34.6473H684.929V36.5104H683.551V31.4269H681.712V32.4442H680.337V28.2037H678.5V32.4442H677.123V24.1009H675.283V27.3972H673.906V20.6248H672.069V42.5437H652.457V46.0001H1030V30.2157L1025.81 27.5012ZM699.467 14.3583V9.79748L713.166 14.3583H699.467ZM714.839 14.2009L701.193 9.66259H714.839V14.2009ZM715.538 14.3583V9.79748L729.237 14.3583H715.538ZM730.91 14.2009L717.264 9.66259H730.91V14.2009ZM675.283 42.5381H673.906V38.795H675.283V42.5381ZM675.283 36.502H673.906V34.7344H675.283V36.502ZM675.283 32.4442H673.906V29.6874H675.283V32.4442ZM678.5 42.5381H677.123V38.795H678.5V42.5381ZM678.5 36.502H677.123V34.7344H678.5V36.502ZM681.717 42.5381H680.343V38.795H681.717V42.5381ZM681.717 36.502H680.343V34.7344H681.717V36.502ZM684.935 42.5381H683.551V38.795H684.929L684.935 42.5381ZM695.63 42.5381H693.317V33.7705C693.317 33.4493 693.449 33.1413 693.686 32.9141C693.922 32.687 694.243 32.5594 694.577 32.5594H695.624L695.63 42.5381ZM752.164 35.7938H750.005V34.459H749.318V37.789H750.005V36.4542H752.158V39.7083H749.999V38.3735H749.312V41.7063H749.999V40.3715H752.158V42.5381H734.753V31.9974H752.158L752.164 35.7938ZM782.837 29.4064H787.081V34.0066H782.837V29.4064ZM797.832 42.5381H782.837V35.7348H787.081V37.7356C787.083 38.5609 787.424 39.352 788.032 39.9356C788.639 40.5192 789.463 40.8477 790.321 40.8492H797.832V42.5381ZM801.228 35.628L797.832 37.6906V39.121H790.321C789.939 39.121 789.572 38.975 789.302 38.7152C789.032 38.4554 788.88 38.103 788.88 37.7356V35.7348H795.899C796.886 35.7341 797.833 35.3569 798.531 34.6862C799.229 34.0155 799.621 33.1061 799.622 32.1575V22.5329C799.623 22.0969 799.785 21.6754 800.078 21.3427C800.371 21.0101 800.777 20.7876 801.225 20.7148L801.228 35.628ZM801.228 18.9725C800.3 19.051 799.437 19.4599 798.808 20.1187C798.179 20.7775 797.828 21.6386 797.826 22.5329V32.1575C797.825 32.6477 797.622 33.1176 797.262 33.4642C796.901 33.8108 796.412 34.0058 795.902 34.0066H788.883V29.4064H790.807C791.793 29.4049 792.738 29.0279 793.436 28.3579C794.133 27.6878 794.526 26.7795 794.527 25.832V17.1206C794.528 16.63 794.731 16.1597 795.093 15.813C795.454 15.4663 795.944 15.2716 796.454 15.2716H801.228V18.9725ZM801.228 13.5293H796.454C795.964 13.5297 795.479 13.6229 795.026 13.8036C794.574 13.9844 794.163 14.2491 793.817 14.5827C793.47 14.9162 793.196 15.3121 793.01 15.7476C792.823 16.1831 792.727 16.6496 792.728 17.1206V25.832C792.728 26.3221 792.525 26.792 792.164 27.1386C791.803 27.4852 791.314 27.6803 790.804 27.681H788.88V13.4197C788.879 12.5942 788.537 11.8026 787.93 11.2189C787.322 10.6351 786.498 10.3069 785.639 10.3061H749.452C749.553 9.97168 749.764 9.67771 750.054 9.46842C750.343 9.25912 750.696 9.14581 751.058 9.14553H799.552C799.995 9.14627 800.421 9.31577 800.735 9.61697C801.049 9.91818 801.226 10.3266 801.228 10.7529V13.5293ZM809.481 36.8954H806.656V32.3318L803.026 34.5433V20.6867H809.46L809.481 36.8954ZM809.481 18.9584H803.047V15.2575H809.481V18.9584ZM828.632 42.5381H824.765V41.178H828.623L828.632 42.5381ZM828.632 39.9865H824.765V38.3004H828.623L828.632 39.9865ZM828.632 37.1174H824.765V35.4313H828.623L828.632 37.1174ZM828.632 34.2511H824.765V32.565H828.623L828.632 34.2511ZM828.632 31.3819H824.765V29.6959H828.623L828.632 31.3819ZM828.632 28.5128H824.765V26.8268H828.623L828.632 28.5128ZM835.461 5.5514C835.286 5.58615 835.129 5.67739 835.016 5.80987C834.904 5.94234 834.842 6.10803 834.841 6.27922V6.79066C833.092 7.10994 831.514 8.00546 830.379 9.32282C829.244 10.6402 828.623 12.2968 828.623 14.007V25.6437H824.765V14.007C824.765 12.2968 824.144 10.6402 823.009 9.32282C821.874 8.00546 820.296 7.10994 818.547 6.79066V6.27922C818.546 6.10817 818.483 5.94275 818.371 5.81038C818.258 5.67801 818.101 5.58663 817.927 5.5514V5.37717C817.927 5.24174 817.954 5.10756 818.008 4.98229C818.061 4.85703 818.14 4.74313 818.24 4.6471C818.339 4.55108 818.457 4.4748 818.587 4.42263C818.717 4.37046 818.857 4.34342 818.998 4.34305H835.458L835.461 5.5514ZM850.572 42.5381H843.916V14.007C843.915 12.2969 843.294 10.6406 842.159 9.32336C841.024 8.00611 839.446 7.11044 837.698 6.79066V6.27922C837.696 6.10817 837.634 5.94275 837.521 5.81038C837.409 5.67801 837.252 5.58663 837.078 5.5514V4.34305H844.787C844.928 4.34305 845.068 4.36982 845.199 4.42183C845.329 4.47383 845.448 4.55005 845.547 4.64611C845.647 4.74217 845.726 4.8562 845.78 4.98165C845.834 5.1071 845.861 5.2415 845.861 5.37717V31.011C845.861 31.6972 846.145 32.3551 846.65 32.8403C847.155 33.3255 847.84 33.5984 848.554 33.5991H850.572V42.5381ZM919.471 11.1407C921.741 10.8597 923.981 10.5562 926.177 10.2387C922.738 11.5875 919.315 12.8052 915.909 13.8918C912.87 14.3274 909.767 14.7067 906.62 15.0299C911.01 13.875 915.321 12.5739 919.471 11.1407ZM912.765 14.8725C898.168 19.2591 883.89 21.3358 870.086 21.0773C880.714 20.4309 892.14 18.6268 903.175 15.9123C903.798 15.8561 904.421 15.8027 905.044 15.7409C907.647 15.5011 910.221 15.2116 912.765 14.8725ZM916.903 11.4442C912.496 12.8942 907.928 14.2037 903.292 15.3474C889.157 16.6008 874.519 16.6289 862.242 14.8388C877.35 14.8501 897.978 13.7092 916.903 11.4554V11.4442ZM863.935 20.4169C863.778 20.4165 863.623 20.4459 863.478 20.5035C863.334 20.561 863.202 20.6455 863.091 20.752C862.981 20.8586 862.893 20.9852 862.834 21.1244C862.774 21.2637 862.744 21.4129 862.745 21.5634V25.551L860.077 24.0785V15.2069C860.082 15.1499 860.082 15.0926 860.077 15.0355C867.097 16.2045 875.239 16.7947 884.013 16.7947C889.075 16.7947 894.351 16.5979 899.739 16.2045C887.932 18.8966 875.821 20.5265 864.836 20.7963C864.723 20.6749 864.584 20.5782 864.428 20.5127C864.273 20.4473 864.105 20.4146 863.935 20.4169ZM870.042 42.5381H869.22V40.9166H870.042C869.819 41.132 869.693 41.4235 869.693 41.7274C869.693 42.0312 869.819 42.3227 870.042 42.5381ZM873.364 42.5381H871.776C871.996 42.3209 872.118 42.0301 872.118 41.7274C872.118 41.4246 871.996 41.1338 871.776 40.9166H873.379C873.158 41.1331 873.034 41.4242 873.034 41.7274C873.034 42.0306 873.158 42.3216 873.379 42.5381H873.364ZM876.686 42.5381H875.084C875.305 42.3216 875.428 42.0306 875.428 41.7274C875.428 41.4242 875.305 41.1331 875.084 40.9166H876.686C876.465 41.1331 876.342 41.4242 876.342 41.7274C876.342 42.0306 876.465 42.3216 876.686 42.5381ZM880.012 42.5381H878.409C878.63 42.3216 878.754 42.0306 878.754 41.7274C878.754 41.4242 878.63 41.1331 878.409 40.9166H880.012C879.789 41.132 879.664 41.4235 879.664 41.7274C879.664 42.0312 879.789 42.3227 880.012 42.5381ZM883.334 42.5381H881.72C881.941 42.3216 882.065 42.0306 882.065 41.7274C882.065 41.4242 881.941 41.1331 881.72 40.9166H883.323C883.103 41.1338 882.98 41.4246 882.98 41.7274C882.98 42.0301 883.103 42.3209 883.323 42.5381H883.334ZM886.657 42.5381H885.054C885.277 42.3227 885.402 42.0312 885.402 41.7274C885.402 41.4235 885.277 41.132 885.054 40.9166H886.657C886.437 41.1338 886.314 41.4246 886.314 41.7274C886.314 42.0301 886.437 42.3209 886.657 42.5381ZM889.725 42.5381H888.379C888.6 42.3216 888.724 42.0306 888.724 41.7274C888.724 41.4242 888.6 41.1331 888.379 40.9166H889.725V42.5381ZM900.838 42.5381H896.612V30.4996H900.835L900.838 42.5381ZM909.656 42.5381H905.43V30.4996H909.653L909.656 42.5381ZM918.474 42.5381H914.245V30.4996H918.471L918.474 42.5381ZM927.292 42.5381H923.063V30.4996H927.289L927.292 42.5381ZM928.026 13.3326H925.549L889.725 25.1154V40.2226H869.22V33.7368L875.654 33.3518C879.54 33.1158 883.227 31.6152 886.107 29.0973H869.199L865.128 26.8492V21.5634C865.133 21.5129 865.133 21.4622 865.128 21.4117C867.571 21.5578 870.026 21.6318 872.493 21.6337C881.262 21.6148 890.006 20.7335 898.589 19.0034C904.461 17.8177 910.254 16.2976 915.938 14.451C920.121 13.8525 924.171 13.1528 928.017 12.3715L928.026 13.3326ZM928.026 11.8236C925.101 12.4137 922.077 12.9476 918.959 13.4478C921.97 12.4156 924.992 11.2915 928.026 10.0757V11.8236ZM928.026 9.4406C925.979 9.74971 923.905 10.042 921.796 10.3202C923.922 9.55019 925.998 8.74743 928.026 7.91189V9.4406ZM932.296 8.28283V8.76617C931.688 8.86733 931.073 8.96756 930.453 9.06685C931.066 8.81581 931.679 8.55447 932.293 8.28283H932.296ZM929.684 9.71318C930.562 9.57829 931.439 9.43217 932.302 9.29166V10.9047C931.445 11.1014 930.57 11.2925 929.684 11.4807V9.71318ZM929.684 12.0287C930.562 11.8404 931.439 11.6493 932.302 11.4498V13.3326H929.684V12.0287ZM936.118 42.5381H931.881V30.4996H936.118V42.5381ZM936.578 13.3326H933.96V11.062C934.837 10.8513 935.715 10.6293 936.578 10.4101V13.3326ZM936.578 9.86211C935.722 10.0832 934.849 10.3014 933.96 10.5169V9.01627C934.843 8.86265 935.716 8.70716 936.578 8.54979V9.86211ZM940.848 13.3326H938.215V9.96047C939.107 9.7188 939.97 9.4687 940.848 9.21579V13.3326ZM940.848 8.67906C939.999 8.93197 939.125 9.17926 938.215 9.42373V8.24349C939.093 8.07207 939.97 7.90065 940.848 7.72362V8.67906ZM945.118 13.3326H942.485V8.7184C943.383 8.43739 944.258 8.15637 945.118 7.85569V13.3326ZM978.318 9.775C977.491 10.0541 976.774 10.5729 976.266 11.2599C975.759 11.9469 975.486 12.7683 975.484 13.6108V42.5381H966.336V38.0756H968.874C969.805 38.0756 970.698 37.7203 971.356 37.088C972.014 36.4556 972.384 35.5978 972.384 34.7035V6.1612C972.384 6.07055 972.402 5.98072 972.438 5.89686C972.474 5.81301 972.526 5.73678 972.593 5.67255C972.659 5.60832 972.739 5.55736 972.826 5.52258C972.913 5.48781 973.006 5.46991 973.101 5.46991H977.593C977.688 5.46954 977.781 5.48716 977.869 5.52177C977.956 5.55638 978.036 5.60729 978.103 5.67155C978.169 5.73582 978.222 5.81217 978.258 5.89621C978.294 5.98025 978.313 6.07031 978.312 6.1612L978.318 9.775ZM985.832 42.5381H983.945V40.9082H985.832V42.5381ZM985.832 40.2394H983.945V38.4072H985.832V40.2394ZM985.832 37.7356H983.945V20.563H985.832V37.7356ZM985.832 19.8914H983.945V18.062H985.832V19.8914ZM988.666 9.775C987.838 10.0541 987.121 10.5729 986.614 11.2599C986.106 11.9469 985.833 12.7683 985.832 13.6108V17.4016H983.945V13.6108C983.945 12.7685 983.672 11.9472 983.165 11.2602C982.658 10.5731 981.941 10.0542 981.114 9.775V8.85047H988.555C988.569 8.85047 988.584 8.85332 988.598 8.85886C988.611 8.8644 988.624 8.87252 988.634 8.88274C988.644 8.89295 988.653 8.90506 988.658 8.91834C988.663 8.93162 988.666 8.94581 988.666 8.96007V9.775ZM999.408 23.3029H994.281V22.3109H1000.62L999.408 23.3029ZM1001.46 21.6337H994.293V20.563H1002.77L1001.46 21.6337ZM1013.7 42.5325H1005.95V41.1724H1013.7V42.5325ZM1013.7 39.846H1005.95V38.3285H1013.7V39.846ZM1013.7 37.0078H1005.95V35.4903H1013.7V37.0078ZM1013.7 34.164H1005.95V32.6465H1013.7V34.164ZM1013.7 31.3229H1005.95V29.8055H1013.7V31.3229ZM1013.7 28.4819H1005.95V26.956H1013.7V28.4819Z" fill="#F3B36A"/>
<path fill-rule="evenodd" clip-rule="evenodd" d="M530.067 46H653.495V31.7734H644.515V39.4658L640.679 34.1582V29.668C642.166 28.7979 643.035 27.6816 642.734 26.8223C642.481 26.1045 641.507 25.7227 640.208 25.7227V17.959C640.286 17.9277 640.36 17.8877 640.428 17.8398C640.491 17.7969 640.549 17.7471 640.6 17.6924C640.66 17.6299 640.712 17.5605 640.755 17.4863C640.79 17.4238 640.819 17.3584 640.842 17.291C640.88 17.1748 640.897 17.0547 640.893 16.9346C640.892 16.8994 640.889 16.8643 640.885 16.8291C640.871 16.7285 640.844 16.6299 640.802 16.5371C640.78 16.4873 640.754 16.4385 640.723 16.3916C640.637 16.2598 640.522 16.1465 640.386 16.0615C640.251 15.9756 640.097 15.9199 639.937 15.8984C639.777 15.876 639.614 15.8877 639.459 15.9326C639.304 15.9775 639.161 16.0547 639.04 16.1592L632.936 14.5107L633.124 13.8594L616.402 9.34277L616.555 7.80078C616.572 7.59375 616.514 7.38672 616.391 7.2168C616.267 7.0459 616.087 6.92285 615.88 6.86719L614.243 6.45508C614.05 6.40625 613.845 6.41895 613.661 6.49219C613.477 6.56445 613.322 6.69336 613.219 6.8584L612.01 8.82031C611.925 8.95996 611.881 9.12012 611.882 9.28223L611.924 15.876C611.925 16.0039 611.955 16.1299 612.011 16.2461C612.067 16.3613 612.149 16.4639 612.251 16.5459V17.1699C612.19 17.1973 612.137 17.2373 612.096 17.2881C612.055 17.3389 612.027 17.3984 612.014 17.4609L611.446 20.0273C611.433 20.0889 611.435 20.1523 611.45 20.2139C611.466 20.2754 611.494 20.332 611.535 20.3818C611.576 20.4307 611.628 20.4697 611.687 20.4971C611.746 20.5244 611.81 20.5381 611.876 20.5381H612.245V34.8506H610.48V40.9521L607.5 36.8311V33.5342C607.934 33.2803 608.297 32.999 608.561 32.7129C608.967 32.2754 609.145 31.8252 609.011 31.4434C608.832 30.9434 608.168 30.6709 607.272 30.6465V24.877C607.388 24.8057 607.484 24.708 607.551 24.5918C607.618 24.4756 607.653 24.3447 607.653 24.2119C607.655 24.0771 607.621 23.9443 607.554 23.8262C607.488 23.708 607.391 23.6084 607.273 23.5361C607.156 23.4648 607.02 23.4238 606.882 23.417C606.743 23.4102 606.604 23.4375 606.479 23.4971L601.847 22.2451L602.038 21.5967L589.675 18.2578L589.755 17.4639C589.77 17.3096 589.727 17.1543 589.635 17.0273C589.544 16.8994 589.407 16.8076 589.252 16.7686L588.05 16.4639C587.908 16.4277 587.758 16.4365 587.622 16.4902C587.486 16.5439 587.372 16.6387 587.297 16.7607L586.407 18.2031C586.344 18.3057 586.311 18.4219 586.31 18.541L586.344 23.4014C586.345 23.5547 586.403 23.7031 586.507 23.8193H586.467V24.2891C586.379 24.3506 586.318 24.4414 586.297 24.5439L585.885 26.4316C585.878 26.4609 585.875 26.4912 585.875 26.5215C585.875 26.5537 585.879 26.5859 585.886 26.6172C585.902 26.6787 585.931 26.7354 585.972 26.7832C586.013 26.832 586.065 26.8711 586.124 26.8984C586.181 26.9258 586.246 26.9395 586.31 26.9404H586.467V37.2432H585.171V42.6201H583.594L576.658 39.4658L575.922 29.0859C575.933 29.0283 575.933 28.9697 575.922 28.9131L575.084 17.1807H574.137V14.0156C574.137 13.9043 574.092 13.7969 574.01 13.7178C573.929 13.6387 573.818 13.5938 573.703 13.5928H572.532V11.1699H573.703C573.818 11.1689 573.928 11.124 574.01 11.0459C574.091 10.9668 574.136 10.8604 574.137 10.749V4.39453C574.129 4.28809 574.079 4.18945 573.998 4.11719C573.918 4.04492 573.811 4.00488 573.702 4.00488C573.592 4.00488 573.485 4.04492 573.405 4.11719C573.356 4.16016 573.319 4.21289 573.296 4.27051C573.279 4.30957 573.269 4.35156 573.265 4.39453V10.3154H572.532V7.47168C572.537 7.41309 572.529 7.35449 572.51 7.29883C572.49 7.24414 572.459 7.19336 572.418 7.15039C572.377 7.10742 572.327 7.07324 572.271 7.0498C572.217 7.02637 572.156 7.01367 572.096 7.01367C572.036 7.01367 571.975 7.02637 571.921 7.0498C571.865 7.07324 571.815 7.10742 571.774 7.15039C571.733 7.19336 571.702 7.24414 571.682 7.29883C571.663 7.35449 571.655 7.41309 571.66 7.47168V10.3154H570.932V4.39453C570.932 4.28223 570.886 4.17383 570.804 4.09473C570.764 4.05566 570.718 4.02539 570.666 4.00488C570.612 3.98242 570.554 3.9707 570.495 3.9707C570.379 3.9707 570.267 4.01562 570.185 4.09473C570.14 4.1377 570.106 4.18945 570.085 4.24512C570.067 4.29199 570.057 4.34277 570.057 4.39453V10.749C570.059 10.8154 570.078 10.8799 570.11 10.9375C570.131 10.9736 570.157 11.0078 570.188 11.0371C570.268 11.1143 570.377 11.1572 570.489 11.1582H571.66V13.582H570.483C570.367 13.582 570.256 13.626 570.174 13.7061C570.092 13.7852 570.046 13.8926 570.046 14.0049V17.1807H569.102L568.29 28.9268L568.277 28.9844L568.273 29.0391C568.271 29.0596 568.271 29.0791 568.273 29.0996L567.79 35.9248C567.76 35.9785 567.741 36.0381 567.737 36.0986C567.732 36.1602 567.742 36.2217 567.764 36.2793L567.639 38.0596H559.876V31.6191H558.501V20.6543H558.691C558.757 20.6543 558.822 20.6396 558.882 20.6123C558.941 20.5859 558.993 20.5459 559.035 20.4971C559.057 20.4697 559.076 20.4395 559.092 20.4082C559.103 20.3828 559.113 20.3564 559.12 20.3291C559.135 20.2676 559.135 20.2041 559.12 20.1426L558.685 18.1426C558.673 18.0762 558.644 18.0146 558.602 17.9619C558.574 17.9258 558.54 17.8945 558.501 17.8682V17.3564C558.609 17.2324 558.669 17.0762 558.672 16.9141L558.703 11.7656C558.706 11.6387 558.671 11.5146 558.603 11.4053L557.663 9.87793C557.583 9.74902 557.463 9.64746 557.318 9.59082C557.174 9.53418 557.014 9.52344 556.864 9.5625L555.592 9.88379C555.496 9.90723 555.407 9.9502 555.331 10.0088C555.275 10.0508 555.225 10.1006 555.184 10.1572C555.087 10.292 555.042 10.4561 555.057 10.6201L555.148 11.5381L542.077 15.0732L542.264 15.7246L537.397 17.0381C537.267 16.9688 537.122 16.9316 536.973 16.9307C536.859 16.9238 536.746 16.9395 536.639 16.9756C536.563 17.002 536.491 17.0381 536.425 17.084C536.36 17.1289 536.302 17.1816 536.254 17.2412C536.182 17.3281 536.13 17.4287 536.099 17.5381C536.048 17.7207 536.063 17.915 536.142 18.0889C536.222 18.2617 536.361 18.4033 536.536 18.4893V24.5908C535.576 24.6074 534.854 24.9014 534.667 25.4316C534.43 26.1045 535.101 26.9727 536.269 27.6514V31.1572L531.291 38.0459L530.068 39.422L530.067 46ZM625.501 33.7871H630.555L624.972 39.1855L625.501 33.7871ZM633.366 39.8477H625.52L631.417 34.1465L633.366 39.8477ZM629.8 29.4131L631.005 32.9434H626.148L629.8 29.4131ZM625.964 29.0498H628.936L625.648 32.2295L625.964 29.0498ZM628.725 26.2832L629.387 28.207H626.736L628.725 26.2832ZM628.237 24.8408L628.416 25.374L626.105 27.5996L626.356 25.0361C626.564 25.085 626.778 25.1123 626.992 25.1162C627.268 25.1172 627.543 25.0791 627.805 25.0039C627.953 24.9609 628.097 24.9062 628.237 24.8408ZM636.756 30.9463L635.562 42.6201H635.235L628.968 24.2666C629.074 24.1289 629.148 23.9707 629.188 23.8047C629.209 23.7178 629.219 23.6289 629.22 23.5391C629.2 23.2539 629.097 22.9805 628.925 22.75C628.751 22.5186 628.513 22.3398 628.24 22.2334V15.1699L632.426 16.3018L632.613 15.6504L638.719 17.2988C638.765 17.4443 638.844 17.5781 638.947 17.6924C639.051 17.8066 639.178 17.8984 639.321 17.9609V25.7725C638.626 25.8535 637.94 26.0059 637.278 26.2285C634.687 27.083 632.931 28.7314 633.345 29.9102C633.505 30.3438 633.939 30.6533 634.552 30.8281C635.148 30.999 635.914 31.041 636.756 30.9463ZM633.781 41.0566L634.315 42.6201H632.161L633.781 41.0566ZM632.914 40.6973L630.925 42.6201H624.636L624.824 40.6973H632.914ZM613.322 17.2637C613.267 17.2061 613.198 17.1641 613.12 17.1426L613.109 16.7197C613.233 16.6836 613.347 16.623 613.446 16.541C613.544 16.459 613.623 16.3574 613.677 16.2441L615.76 11.8037L626.475 14.7002V22.0059C625.934 22.0947 625.465 22.3301 625.156 22.6514C624.914 22.9043 624.77 23.21 624.77 23.5391C624.783 23.7783 624.857 24.0098 624.986 24.2148C625.115 24.4189 625.295 24.5889 625.509 24.709L624.659 33.2598C624.649 33.3096 624.649 33.3604 624.659 33.4102L623.759 42.6201H614.879V34.8506H613.126V20.5381H613.492C613.523 20.5381 613.554 20.5352 613.585 20.5283C613.618 20.5215 613.649 20.5117 613.678 20.498C613.737 20.4717 613.789 20.4326 613.83 20.3848C613.871 20.3369 613.901 20.2803 613.917 20.2207C613.927 20.1846 613.931 20.1475 613.931 20.1104C613.931 20.085 613.929 20.0605 613.925 20.0361L613.429 17.4697C613.414 17.3926 613.377 17.3213 613.322 17.2637ZM597.083 30.166C597.2 30.1855 597.319 30.1953 597.438 30.1963C597.715 30.1963 597.989 30.1455 598.245 30.0449L598.35 30.3584L596.929 31.7314L597.083 30.166ZM596.458 36.6855H599.791L596.108 40.2568L596.458 36.6855ZM601.965 40.9219H596.645L600.64 37.0479L601.965 40.9219ZM599.45 33.5537L600.24 35.8418L597.096 35.8311L599.45 33.5537ZM596.799 33.2021H598.6L596.611 35.125L596.799 33.2021ZM598.671 31.2588L599.049 32.3584H597.535L598.671 31.2588ZM604.621 34.4824L603.786 42.6201L603.468 42.6338L598.961 29.4463C599.031 29.3203 599.068 29.1797 599.069 29.0361C599.054 28.8271 598.979 28.626 598.851 28.4561C598.723 28.2871 598.549 28.1553 598.347 28.0771V23.2314L601.334 24.0361L601.521 23.3877L606.153 24.6348C606.217 24.7314 606.302 24.8135 606.403 24.874V30.6904C605.93 30.7539 605.467 30.8633 605.016 31.0146C603.112 31.6436 601.819 32.8555 602.127 33.7207C602.348 34.3525 603.357 34.6221 604.621 34.4824ZM602.377 42.126L602.544 42.6201H601.862L602.377 42.126ZM601.512 41.7656L600.629 42.6201H595.864L595.949 41.7656H601.512ZM587.497 24.3838C587.459 24.332 587.408 24.291 587.35 24.2617L587.362 23.9648C587.486 23.8945 587.586 23.7891 587.646 23.6621L589.052 20.7139L597.077 22.8848V27.9102C596.352 28.0283 595.812 28.4873 595.812 29.0361C595.817 29.1904 595.857 29.3408 595.931 29.4775C596.006 29.6133 596.11 29.7314 596.239 29.8223L595.605 36.1631C595.601 36.2031 595.601 36.2422 595.605 36.2812L594.986 42.6201H588.646V37.2432H587.35V26.9404H587.507C587.571 26.9404 587.635 26.9268 587.692 26.8994C587.751 26.873 587.802 26.834 587.843 26.7861C587.884 26.7393 587.913 26.6846 587.929 26.625C587.945 26.5654 587.948 26.5029 587.936 26.4424L587.572 24.5557C587.561 24.4932 587.535 24.4346 587.497 24.3838ZM568.733 34.9629L569.086 29.9814L571.484 32.3037L568.733 34.9629ZM572.1 31.7041L569.321 29.0146L572.1 26.3271L574.883 29.0146L572.1 31.7041ZM572.1 20.6982L574.399 22.9209L572.1 25.1436L569.802 22.9209L572.1 20.6982ZM571.484 25.7393L569.23 27.9209L569.517 23.8379L571.484 25.7393ZM569.657 21.8574L569.889 18.5605L571.484 20.0908L569.657 21.8574ZM570.932 14.4395H573.271V17.1865H570.932V14.4395ZM572.1 19.5137L570.577 18.041H573.629L572.1 19.5137ZM572.719 20.1123L574.311 18.5742L574.544 21.877L572.719 20.1123ZM572.719 25.7529L574.683 23.8516L574.973 27.9346L572.719 25.7529ZM572.719 32.3037L575.121 29.9814L575.473 34.9658L572.719 32.3037ZM575.601 36.8037L575.76 39.0488L574.072 38.2822L575.601 36.8037ZM575.249 35.9521L573.084 38.043L570.779 38.0342L568.79 36.1113L572.1 32.9072L575.249 35.9521ZM568.583 37.1055L569.552 38.043H568.514L568.583 37.1055ZM545.93 24.2891L546.05 23.9375C546.329 24.0547 546.631 24.1143 546.936 24.1133C547.07 24.1123 547.205 24.1006 547.337 24.0771L547.508 25.8086L545.93 24.2891ZM542.108 35.501L543.529 31.3252L547.845 35.501H542.108ZM548.01 30.9648L548.388 34.8281L544.382 30.9648H548.01ZM544.788 27.6465L547.359 30.1191H543.935L544.788 27.6465ZM547.649 27.2725L547.856 29.4043L545.66 27.2725H547.649ZM545.626 25.1875L546.913 26.4287H545.203L545.626 25.1875ZM549.579 38.0459L548.848 30.5693C548.847 30.5264 548.842 30.4844 548.829 30.4434L548.172 23.7363C548.261 23.6768 548.341 23.6055 548.409 23.5244C548.45 23.4746 548.487 23.4219 548.519 23.3662C548.604 23.2178 548.652 23.0537 548.661 22.8848C548.661 22.5605 548.483 22.2666 548.194 22.0479C547.963 21.873 547.66 21.7461 547.32 21.6895V16.2881L555.79 13.9971L557.304 17.2002C557.375 17.3457 557.494 17.4629 557.642 17.5322V17.8408C557.582 17.8691 557.529 17.9111 557.488 17.9629C557.447 18.0146 557.419 18.0752 557.407 18.1396L557.02 20.1396C557.009 20.2012 557.011 20.2646 557.027 20.3242C557.044 20.3848 557.074 20.4404 557.115 20.4883C557.156 20.5361 557.208 20.5742 557.266 20.6006C557.324 20.627 557.388 20.6406 557.452 20.6396H557.645V31.6055H556.27V38.0459H549.579ZM548.536 36.3447L548.704 38.0459H544.31L542.552 36.3447H548.536ZM541.688 36.707L543.074 38.0459H541.233L541.688 36.707ZM538.909 24.9785C538.424 24.8174 537.923 24.7031 537.414 24.6377L537.411 18.4775C537.543 18.4023 537.651 18.2959 537.726 18.167L542.594 16.8545L542.782 17.5049L545.967 16.6455V21.8652C545.754 21.9492 545.569 22.0898 545.434 22.2695C545.3 22.4502 545.219 22.6631 545.203 22.8848C545.203 23.0059 545.226 23.125 545.272 23.2363C545.289 23.2754 545.308 23.3145 545.331 23.3516L540.309 38.0596H540.287L539.327 28.6709C540.668 28.8057 541.736 28.5176 541.974 27.8467C542.296 26.9287 540.927 25.6465 538.909 24.9785Z" fill="#F3B36A"/>
<path fill-rule="evenodd" clip-rule="evenodd" d="M494.919 30.7646H499.21L517.239 23.5879L524.994 39.2616H530.924L532.089 46H517.239H322.2V39.4082L378.519 39.3564V26.3027L378.613 26.2783V25.0439H383.091L383.7 24.874V23.2773H390.156V24.8662L390.763 25.0361H395.239V26.2783L395.333 26.3027V38.7764L396.6 38.7324V26.3027L396.694 26.2783V25.0439H401.169L401.78 24.874V23.2773H408.236V24.8662L408.844 25.0361H413.316V26.2783L413.411 26.3027V38.1504L435.77 38.04L440.166 36.7236V34.3642H441.13V22C441.064 22 441.001 21.9853 440.942 21.958C440.907 21.9414 440.875 21.9209 440.845 21.8974C440.826 21.8808 440.807 21.8623 440.791 21.8428C440.768 21.8164 440.75 21.7871 440.735 21.7558C440.722 21.7295 440.713 21.7031 440.706 21.6758C440.69 21.6142 440.69 21.5508 440.703 21.4892L441.01 20.0849C441.027 20.0029 441.071 19.9277 441.135 19.8711V19.5771H441.271C441.197 19.4892 441.156 19.3799 441.155 19.2666L441.118 15.6426C441.119 15.5527 441.144 15.4658 441.192 15.3896L441.851 14.3183C441.878 14.2754 441.911 14.2363 441.949 14.2031C441.992 14.166 442.042 14.1357 442.096 14.1152C442.2 14.0752 442.313 14.0693 442.42 14.0986L443.317 14.3232C443.432 14.3535 443.533 14.4228 443.601 14.5176C443.669 14.6123 443.699 14.7275 443.687 14.8428L443.664 15.1016L452.899 17.5986L452.709 18.2471L456.533 19.2832C456.635 19.3086 456.728 19.3594 456.803 19.4307C456.879 19.5019 456.933 19.5918 456.962 19.6894C456.99 19.7871 456.992 19.8906 456.966 19.9892C456.941 20.0879 456.89 20.1787 456.817 20.2529V24.6484C457.431 24.6846 457.875 24.8848 458 25.2344C458.15 25.7041 457.681 26.3105 456.863 26.7861V29.2451L458.349 31.2978L460.125 30.7646H466.72V24.8496H468.095V13.8926H467.902C467.837 13.8926 467.772 13.8789 467.714 13.8516C467.673 13.833 467.634 13.8076 467.602 13.7783C467.588 13.7656 467.574 13.751 467.561 13.7353C467.52 13.6865 467.491 13.6299 467.475 13.5683C467.461 13.5068 467.46 13.4433 467.473 13.3808L467.911 11.3838C467.932 11.2724 467.999 11.1738 468.095 11.1094V10.5976C467.988 10.4746 467.927 10.3193 467.925 10.1582L467.89 5.00682C467.89 4.87987 467.925 4.75585 467.993 4.64647L468.933 3.12206C468.969 3.06444 469.013 3.01268 469.063 2.96776C469.124 2.91405 469.194 2.87011 469.271 2.83886C469.413 2.78124 469.569 2.76854 469.717 2.8037L471 3.12499C471.165 3.166 471.309 3.26366 471.407 3.3994C471.505 3.53417 471.549 3.69921 471.534 3.86425L471.439 4.78124L484.51 8.31444L484.32 8.96581L489.19 10.2822C489.261 10.2422 489.338 10.2129 489.417 10.1943C489.48 10.1797 489.546 10.1719 489.611 10.1719C489.807 10.1601 490.002 10.2129 490.161 10.3232C490.321 10.4336 490.437 10.5937 490.489 10.7773C490.541 10.9609 490.525 11.1553 490.445 11.3291C490.366 11.5029 490.226 11.6445 490.051 11.7295V17.832C491.011 17.8516 491.731 18.1426 491.919 18.6758C492.157 19.3457 491.486 20.2139 490.318 20.8926V24.4014L494.919 30.7646ZM378.96 25.3818V26.1816L381.864 25.3818H378.96ZM386.924 23.9814L389.803 24.7783L389.817 23.6152H384.06V24.7783L386.924 23.9814ZM391.983 25.3818L394.886 26.1816V25.3818H391.983ZM397.041 25.3818V26.1816L399.944 25.3818H397.041ZM405.005 23.9814L407.883 24.7783V23.6152H402.126V24.7783L405.005 23.9814ZM410.063 25.3818L412.967 26.1816V25.3818H410.063ZM449.386 24.2998H449.233L449.151 25.1484L449.938 24.3877L449.882 24.2197C449.722 24.2724 449.555 24.2988 449.386 24.2998ZM450.825 27.0166L449.404 28.3906H451.299L450.825 27.0166ZM448.532 31.4814L450.856 29.2373H448.754L448.532 31.4814ZM449.007 26.6484L448.904 27.6816L449.969 26.6484H449.007ZM450.245 25.2939L449.716 25.8057H450.419L450.245 25.2939ZM447.339 34.584L447.906 28.7891L447.905 28.7568L447.906 28.707L448.376 23.9238C448.313 23.8642 448.263 23.7949 448.226 23.7197C448.183 23.6308 448.16 23.5342 448.157 23.4346C448.157 23.0391 448.557 22.6982 449.094 22.6103V19.2256L442.994 17.5762L442.095 19.4726C442.07 19.5264 442.034 19.5762 441.99 19.6182V19.8516C442.075 19.916 442.132 20.0078 442.152 20.1094L442.423 21.5107C442.433 21.5723 442.431 21.6348 442.415 21.6953C442.399 21.7558 442.369 21.8115 442.329 21.8603C442.288 21.9072 442.236 21.9463 442.178 21.9726C442.121 21.999 442.057 22.0137 441.993 22.0137V34.3779H442.954V35.8945L447.339 34.584ZM448.248 34.3115L451.922 33.2129L452.134 33.0098H448.373L448.248 34.3115ZM451.706 29.5967L449.051 32.1631H452.587L451.706 29.5967ZM455.002 24.915C455.301 24.8154 455.609 24.7422 455.923 24.6953L455.911 20.3574L452.356 19.3955L452.169 20.0469L450.041 19.4726V22.7314C450.191 22.79 450.321 22.8877 450.417 23.0146C450.511 23.1416 450.569 23.292 450.58 23.4482C450.58 23.4941 450.573 23.541 450.56 23.5849L453.686 32.6875L454.195 32.5342L454.709 27.4922C453.771 27.5967 453.021 27.3935 452.853 26.9267C452.629 26.2891 453.581 25.3818 455.002 24.915ZM480.646 17.5322L480.535 17.1807C480.255 17.2978 479.952 17.3574 479.646 17.3545C479.511 17.3535 479.378 17.3418 479.245 17.3183L479.075 19.0517L480.646 17.5322ZM484.47 28.7451L483.05 24.5664L478.725 28.7451H484.47ZM478.594 24.2119L478.191 28.0723L482.215 24.2119H478.594ZM481.777 20.8877L479.219 23.3603H482.63L481.777 20.8877ZM478.929 20.5166L478.722 22.6484L480.919 20.5166H478.929ZM480.953 18.4287L479.666 19.6728H481.377L480.953 18.4287ZM477.063 30.7646L477.742 23.8076C477.736 23.7666 477.736 23.7256 477.742 23.6846L478.404 16.9775C478.26 16.8818 478.141 16.7549 478.057 16.6074C477.972 16.459 477.924 16.2949 477.916 16.126C477.916 15.7959 478.1 15.4971 478.4 15.2773C478.629 15.1094 478.925 14.9873 479.257 14.9336V9.52928L470.786 7.24022L469.271 10.4414C469.202 10.5859 469.083 10.7041 468.933 10.7734V11.082C468.994 11.1103 469.047 11.1523 469.088 11.2041C469.129 11.2558 469.157 11.3164 469.17 11.3808L469.552 13.3808C469.566 13.4424 469.564 13.5049 469.549 13.5654C469.533 13.626 469.503 13.6826 469.462 13.7305C469.421 13.7783 469.369 13.8164 469.31 13.8428C469.252 13.8691 469.188 13.8818 469.124 13.8808H468.933V24.8496H470.314V30.7646H477.063ZM477.938 30.7646H482.82L484.039 29.5889H478.054L477.938 30.7646ZM484.911 29.9404L484.058 30.7646H485.195L484.911 29.9404ZM487.687 18.2226C488.17 18.0596 488.668 17.9443 489.174 17.8789L489.176 11.7246C489.046 11.6494 488.937 11.5439 488.861 11.417L483.994 10.1006L483.805 10.749L480.624 9.88671V15.1064C480.838 15.1904 481.022 15.3301 481.158 15.5098C481.294 15.6904 481.375 15.9033 481.39 16.126C481.39 16.2109 481.379 16.2949 481.356 16.375C481.335 16.4502 481.303 16.5234 481.262 16.5928L486.107 30.7646H486.363L487.266 21.8984C486.494 21.9844 485.811 21.9248 485.326 21.7305C484.971 21.5879 484.722 21.373 484.622 21.0908C484.298 20.1728 485.67 18.8877 487.687 18.2226Z" fill="#F3B36A"/>
</g>
<defs>
<clipPath id="clip0">
<rect width="1030" height="46" fill="white"/>
</clipPath>
</defs>
</svg>
