<svg width="200" height="200" viewBox="0 0 200 200" fill="none" xmlns="http://www.w3.org/2000/svg">
<circle opacity="0.2" cx="100" cy="100" r="100" fill="#4B0731"/>
<circle cx="100" cy="100" r="90" fill="#936A83"/>
<g clip-path="url(#clip0)">
<path d="M133.15 85.4007C133.15 83.8735 132.271 82.6353 131.185 82.6353C130.098 82.6353 129.229 83.8735 129.229 85.4007C129.229 86.9279 131.185 90.3124 131.185 90.3124C131.185 90.3124 133.15 86.9176 133.15 85.4007Z" fill="#C9C9C9"/>
<path d="M133.15 75.3708C133.15 73.8437 132.271 72.6157 131.185 72.6157C130.098 72.6157 129.229 73.8437 129.229 75.3708C129.229 76.898 131.185 80.2929 131.185 80.2929C131.185 80.2929 133.15 76.8464 133.15 75.3708Z" fill="#C9C9C9"/>
<path d="M133.15 65.1966C133.15 63.6694 132.271 62.4312 131.185 62.4312C130.098 62.4312 129.229 63.6694 129.229 65.1966C129.229 66.7238 131.185 70.1083 131.185 70.1083C131.185 70.1083 133.15 66.7135 133.15 65.1966Z" fill="#C9C9C9"/>
<path d="M123.396 78.4667C123.872 79.9113 126.778 82.5323 126.778 82.5323C126.778 82.5323 127.585 78.704 127.12 77.2594C126.654 75.8147 125.423 74.9067 124.399 75.1956C123.375 75.4845 122.92 76.9808 123.396 78.4667Z" fill="#C9C9C9"/>
<path d="M123.654 72.9253C123.654 72.9253 124.461 69.0867 123.995 67.642C123.53 66.1974 122.268 65.2894 121.234 65.6196C120.199 65.9498 119.754 67.3944 120.199 68.8493C120.644 70.3043 123.654 72.9253 123.654 72.9253Z" fill="#C9C9C9"/>
<path d="M139.036 78.4665C139.501 77.0115 139.036 75.5669 138.001 75.2367C136.967 74.9065 135.757 75.8042 135.281 77.3004C134.805 78.7967 135.622 82.5733 135.622 82.5733C135.622 82.5733 138.56 79.8801 139.036 78.4665Z" fill="#C9C9C9"/>
<path d="M142.16 68.8495C142.625 67.3946 142.16 65.9602 141.125 65.6197C140.091 65.2792 138.881 66.1976 138.405 67.6835C137.929 69.1694 138.746 72.9667 138.746 72.9667C138.746 72.9667 141.684 70.2941 142.16 68.8495Z" fill="#C9C9C9"/>
<path d="M152.959 134.446H142.615L139.729 114.087L139.636 113.457L138.323 104.171L138.178 103.201L136.988 94.7495H137.785C138.063 94.7473 138.331 94.6394 138.532 94.4478C138.734 94.2561 138.855 93.995 138.871 93.7176V91.7261C138.868 91.4395 138.753 91.1655 138.55 90.9629C138.347 90.7603 138.072 90.6453 137.785 90.6426H125.082C124.942 90.6424 124.803 90.6707 124.674 90.7258C124.545 90.7808 124.429 90.8615 124.332 90.9628C124.235 91.0642 124.16 91.1841 124.111 91.3153C124.062 91.4465 124.041 91.5863 124.048 91.7261V93.6144C124.048 93.8881 124.157 94.1505 124.351 94.344C124.545 94.5376 124.808 94.6463 125.082 94.6463H125.879L120.252 134.394H109.411C108.915 134.394 108.438 134.591 108.087 134.941C107.736 135.292 107.539 135.767 107.539 136.262V140.493C107.528 140.745 107.568 140.997 107.657 141.233C107.746 141.469 107.882 141.685 108.057 141.867C108.232 142.049 108.442 142.194 108.675 142.293C108.908 142.392 109.158 142.443 109.411 142.443H152.959C153.456 142.443 153.932 142.246 154.283 141.896C154.634 141.546 154.832 141.071 154.832 140.575V136.345C154.836 136.097 154.79 135.851 154.698 135.62C154.606 135.39 154.469 135.181 154.294 135.004C154.12 134.827 153.912 134.687 153.683 134.591C153.454 134.495 153.208 134.446 152.959 134.446ZM124.824 120.918L130.296 118.483V124.292L124.7 121.805L124.824 120.928V120.918ZM125.858 113.819L130.327 111.827V116.182L125.806 114.118L125.858 113.819ZM126.406 109.423L127.027 109.144L129.996 110.475L126.003 112.26L126.406 109.423ZM138.085 121.805L132.468 124.303V118.607L137.981 121.062L138.085 121.805ZM132.468 111.61L136.957 113.55L137.03 114.015L132.509 116.078L132.468 111.61ZM136.368 109.423L136.74 112.095L133.254 110.548L136.068 109.289L136.368 109.423ZM132.509 109.423V107.658L134.454 108.525L132.509 109.423ZM130.296 109.196L128.682 108.484L130.296 107.761V109.196ZM124.503 123.147L129.799 125.51L123.789 128.193L124.503 123.147ZM138.312 123.147L139.026 128.193L133.016 125.51L138.312 123.147ZM137.785 119.525L132.851 117.337L137.195 115.397L137.785 119.525ZM136.119 107.782H136.047L133.078 106.461L135.768 105.264L136.119 107.782ZM132.509 105.295V104.325H134.682L132.509 105.295ZM130.296 105.213L128.289 104.325H130.296V105.213ZM129.882 106.472L127.068 107.72L126.706 107.565L127.048 105.202L129.882 106.472ZM129.654 117.317L125.041 119.38L125.589 115.511L129.654 117.317ZM130.296 126.707V129.483H124.089L130.296 126.707ZM132.509 126.707L138.716 129.483H132.509V126.707ZM135.468 102.974H132.509V94.6979H134.288L135.468 102.974ZM130.296 94.636V102.974H127.358L128.537 94.636H130.296ZM123.417 130.752H130.296V134.384H122.91L123.417 130.752ZM132.509 134.384V130.814H139.398L139.916 134.446L132.509 134.384Z" fill="#C9C9C9"/>
<path d="M77.0965 74.0085C77.0965 72.4814 76.2277 71.2534 75.1415 71.2534C74.0554 71.2534 73.1865 72.4814 73.1865 74.0085C73.1865 75.5357 75.1415 78.9306 75.1415 78.9306C75.1415 78.9306 77.0965 75.5254 77.0965 74.0085Z" fill="#C9C9C9"/>
<path d="M77.0965 63.9275C77.0965 62.4106 76.2277 61.1724 75.1415 61.1724C74.0554 61.1724 73.1865 62.4106 73.1865 63.9275C73.1865 65.4443 75.1415 68.8496 75.1415 68.8496C75.1415 68.8496 77.0965 65.4547 77.0965 63.9275Z" fill="#C9C9C9"/>
<path d="M77.0965 53.8044C77.0965 52.2773 76.2277 51.0493 75.1415 51.0493C74.0554 51.0493 73.1865 52.2773 73.1865 53.8044C73.1865 55.3316 75.1415 58.7265 75.1415 58.7265C75.1415 58.7265 77.0965 55.3316 77.0965 53.8044Z" fill="#C9C9C9"/>
<path d="M67.352 67.0435C67.8175 68.4881 70.7345 71.171 70.7345 71.171C70.7345 71.171 71.5413 67.3324 71.0655 65.8878C70.5897 64.4432 69.3794 63.5351 68.3554 63.824C67.3313 64.113 66.8762 65.5989 67.352 67.0435Z" fill="#C9C9C9"/>
<path d="M67.6111 61.5335C67.6111 61.5335 68.4179 57.7052 67.9421 56.2503C67.4663 54.7953 66.256 53.8976 65.232 54.2381C64.2079 54.5786 63.7528 56.013 64.1976 57.4576C64.6424 58.9022 67.6111 61.5335 67.6111 61.5335Z" fill="#C9C9C9"/>
<path d="M82.9608 67.0434C83.4263 65.5987 82.9608 64.1541 81.9264 63.8136C80.892 63.473 79.6818 64.3914 79.2163 65.8773C78.7508 67.3632 79.5473 71.1606 79.5473 71.1606C79.5473 71.1606 82.516 68.488 82.9608 67.0434Z" fill="#C9C9C9"/>
<path d="M86.0643 57.4573C86.5402 56.0126 86.0643 54.568 85.0299 54.2378C83.9955 53.9076 82.7853 54.8053 82.3198 56.25C81.8543 57.6946 82.6508 61.5332 82.6508 61.5332C82.6508 61.5332 85.6402 58.8606 86.0643 57.4573Z" fill="#C9C9C9"/>
<path d="M96.9155 123.054H86.5716L83.6339 102.706L83.5408 102.076L82.2167 92.7891L82.0823 91.8089L80.8927 83.3165H81.6995C81.8398 83.3167 81.9787 83.2884 82.1077 83.2333C82.2367 83.1783 82.3531 83.0976 82.4499 82.9962C82.5467 82.8949 82.6217 82.775 82.6706 82.6438C82.7194 82.5125 82.741 82.3728 82.7339 82.233V80.3343C82.741 80.1946 82.7194 80.0548 82.6706 79.9236C82.6217 79.7924 82.5467 79.6725 82.4499 79.5711C82.3531 79.4698 82.2367 79.3891 82.1077 79.334C81.9787 79.279 81.8398 79.2507 81.6995 79.2509H69.0282C68.8836 79.2435 68.739 79.2664 68.6039 79.3182C68.4688 79.3701 68.346 79.4496 68.2437 79.5517C68.1413 79.6539 68.0615 79.7763 68.0096 79.9111C67.9576 80.0459 67.9346 80.1901 67.9421 80.3343V82.233C67.9346 82.3772 67.9576 82.5214 68.0096 82.6562C68.0615 82.7911 68.1413 82.9135 68.2437 83.0156C68.346 83.1177 68.4688 83.1973 68.6039 83.2491C68.739 83.3009 68.8836 83.3239 69.0282 83.3165H69.835L64.2079 123.054H53.3674C52.8744 123.054 52.4013 123.248 52.0508 123.594C51.7002 123.94 51.5006 124.41 51.4951 124.901V129.132C51.4951 129.627 51.6924 130.102 52.0435 130.453C52.3946 130.803 52.8708 131 53.3674 131H96.9155C97.4121 131 97.8883 130.803 98.2394 130.453C98.5906 130.102 98.7878 129.627 98.7878 129.132V124.901C98.7824 124.41 98.5827 123.94 98.2322 123.594C97.8816 123.248 97.4085 123.054 96.9155 123.054ZM68.7799 109.537L74.2415 107.101V112.911L68.6454 110.455L68.7696 109.578L68.7799 109.537ZM69.8143 102.437L74.2726 100.435V104.79L69.7626 102.726L69.8143 102.437ZM70.3936 98.0724L71.0142 97.7938L73.9933 99.1043L70.0005 100.889L70.3936 98.0724ZM82.0719 110.455L76.4655 112.952V107.215L81.9271 109.671L82.0719 110.455ZM76.4655 100.26L80.8927 102.2L80.9548 102.654L76.4448 104.718L76.4655 100.26ZM80.3135 98.0311L80.6962 100.704L77.2103 99.1043L80.0238 97.8454L80.3135 98.0311ZM76.4655 98.0311V96.2769L78.4102 97.1437L76.4655 98.0311ZM74.2415 97.8144L72.6175 97.0405L74.2208 96.3285L74.2415 97.8144ZM68.4799 111.765L73.7761 114.128L67.7662 116.801L68.4799 111.765ZM82.2892 111.765L82.9615 116.801L76.9517 114.128L82.2892 111.765ZM81.772 108.144L76.8482 105.946L81.1927 104.006L81.772 108.144ZM80.0859 96.3904H80.0135L77.0551 95.0696L79.7342 93.9449L80.0859 96.3904ZM76.4655 93.9449V92.913H78.6481L76.4655 93.9449ZM74.2415 93.8726L72.2451 92.913H74.2415V93.8726ZM73.8381 95.1212L71.0246 96.3801L70.6625 96.215L70.9935 93.852L73.8381 95.1212ZM73.6519 105.946L69.0282 108.009L69.5143 104.13L73.6519 105.946ZM74.2829 115.336V118.111H68.0765L74.2829 115.336ZM76.5069 115.336L82.7133 118.111H76.5069V115.336ZM79.4549 91.6025H76.4655V83.3165H78.2343L79.4549 91.6025ZM74.2829 83.2752V91.6025H71.3038L72.4831 83.2752H74.2829ZM67.4145 119.391H74.2829V123.023H66.8559L67.4145 119.391ZM76.5069 123.023V119.422H83.396L83.9132 123.054L76.5069 123.023Z" fill="#C9C9C9"/>
<path d="M66.0283 94.0373C66.0283 94.104 66.0541 94.1681 66.1004 94.2162C66.1467 94.2643 66.2098 94.2927 66.2766 94.2953C66.3452 94.2953 66.4109 94.2681 66.4594 94.2198C66.5079 94.1714 66.5352 94.1058 66.5352 94.0373V70.4898C66.5325 70.4232 66.5041 70.3602 66.4559 70.3141C66.4077 70.2679 66.3434 70.2421 66.2766 70.2422C66.2107 70.2422 66.1476 70.2683 66.101 70.3147C66.0545 70.3612 66.0283 70.4242 66.0283 70.4898V94.0373Z" fill="#514260"/>
<path d="M64.5596 94.0373C64.5595 94.104 64.5853 94.1681 64.6316 94.2162C64.6779 94.2643 64.7411 94.2927 64.8078 94.2953C64.8764 94.2953 64.9422 94.2681 64.9907 94.2198C65.0392 94.1714 65.0664 94.1058 65.0664 94.0373V70.4898C65.0638 70.4232 65.0353 70.3602 64.9871 70.3141C64.9389 70.2679 64.8747 70.2421 64.8078 70.2422C64.742 70.2422 64.6788 70.2683 64.6323 70.3147C64.5857 70.3612 64.5596 70.4242 64.5596 70.4898V94.0373Z" fill="#514260"/>
<path d="M63.7039 70.2352L63.2878 71.4455C63.2211 71.6396 63.3247 71.8508 63.5192 71.9174L67.4526 73.2631C67.6472 73.3297 67.859 73.2263 67.9257 73.0322L68.3418 71.8219C68.4085 71.6278 68.3049 71.4166 68.1103 71.35L64.177 70.0043C63.9824 69.9377 63.7706 70.0411 63.7039 70.2352Z" fill="#2C3A48"/>
<path d="M25.6143 93.9448C25.6143 94.0105 25.6404 94.0735 25.687 94.12C25.7335 94.1664 25.7967 94.1925 25.8625 94.1925C25.9293 94.1926 25.9936 94.1668 26.0418 94.1206C26.09 94.0745 26.1184 94.0115 26.1211 93.9448V67.57C26.1211 67.5016 26.0939 67.4359 26.0454 67.3876C25.9969 67.3392 25.9311 67.312 25.8625 67.312C25.7957 67.3147 25.7326 67.343 25.6863 67.3911C25.64 67.4392 25.6142 67.5033 25.6143 67.57V93.9448Z" fill="#514260"/>
<path d="M26.4311 90.0234H25.3036C25.0636 90.0234 24.8691 90.2175 24.8691 90.4568V95.0281C24.8691 95.2674 25.0636 95.4614 25.3036 95.4614H26.4311C26.671 95.4614 26.8655 95.2674 26.8655 95.0281V90.4568C26.8655 90.2175 26.671 90.0234 26.4311 90.0234Z" fill="#2C3A48"/>
<path d="M24.3936 76.4029C24.3956 76.6948 24.4844 76.9794 24.6486 77.221C24.8129 77.4625 25.0452 77.65 25.3163 77.7598C25.5873 77.8696 25.8849 77.8967 26.1715 77.8378C26.458 77.7788 26.7206 77.6365 26.926 77.4287C27.1314 77.2209 27.2704 76.957 27.3255 76.6703C27.3806 76.3837 27.3492 76.0872 27.2354 75.8184C27.1215 75.5496 26.9303 75.3204 26.6859 75.16C26.4416 74.9995 26.155 74.915 25.8624 74.917C25.6682 74.9184 25.4761 74.9579 25.2972 75.0333C25.1182 75.1087 24.9559 75.2185 24.8195 75.3565C24.6831 75.4945 24.5753 75.6579 24.5022 75.8375C24.4291 76.017 24.3922 76.2092 24.3936 76.4029Z" fill="#2C3A48"/>
<path d="M26.3693 67.3427C26.4014 67.2506 26.4115 67.1523 26.3989 67.0556C26.3864 66.9589 26.3514 66.8664 26.2969 66.7855C25.035 64.8456 25.035 61.0482 26.1935 57.3335C27.352 53.6187 29.6898 50.6056 31.862 49.7698C31.9453 49.7419 32.0222 49.6978 32.0882 49.64C32.1542 49.5822 32.208 49.5119 32.2465 49.4332C32.2851 49.3544 32.3075 49.2688 32.3125 49.1813C32.3175 49.0939 32.305 49.0063 32.2758 48.9236C32.2461 48.84 32.1996 48.7633 32.1391 48.6982C32.0786 48.6332 32.0054 48.5812 31.924 48.5454C31.8426 48.5096 31.7548 48.4909 31.6658 48.4902C31.5769 48.4896 31.4887 48.5072 31.4069 48.5419C28.8415 49.5015 26.3073 52.7932 24.9522 56.931C23.5972 61.0689 23.6902 65.1861 25.2005 67.4975C25.2674 67.6012 25.3625 67.6837 25.4747 67.7355C25.5869 67.7873 25.7116 67.8062 25.8341 67.79C25.9567 67.7737 26.0721 67.7231 26.1668 67.6439C26.2616 67.5647 26.3318 67.4602 26.3693 67.3427Z" fill="#F19B2C"/>
<path d="M30.2071 58.6338V58.5822L32.0587 49.2334C32.0774 49.127 32.0546 49.0174 31.995 48.9273C31.9354 48.8371 31.8434 48.7731 31.738 48.7484C31.6843 48.7379 31.6291 48.7382 31.5755 48.7492C31.522 48.7601 31.4711 48.7816 31.4259 48.8123C31.3807 48.843 31.342 48.8823 31.3121 48.928C31.2823 48.9738 31.2618 49.0249 31.2518 49.0786L29.4106 58.3655L25.3765 66.9714C25.3481 67.0667 25.3552 67.169 25.3964 67.2595C25.4376 67.35 25.5102 67.4226 25.6007 67.464C25.6913 67.5054 25.7938 67.5128 25.8895 67.4849C25.9851 67.4569 26.0674 67.3955 26.1212 67.3119L30.2071 58.6751C30.2071 58.6751 30.2071 58.6441 30.2071 58.6338Z" fill="#F19B2C"/>
<path d="M29.0331 55.7801L27.5636 60.273C27.5069 60.4464 27.6018 60.6328 27.7756 60.6893L29.2212 61.1598C29.395 61.2164 29.5818 61.1217 29.6385 60.9483L31.108 56.4554C31.1647 56.2821 31.0698 56.0957 30.896 56.0391L29.4504 55.5686C29.2767 55.512 29.0898 55.6067 29.0331 55.7801Z" fill="#F19B2C"/>
<path d="M29.6276 57.2822C29.8034 57.3338 30.1448 56.7766 30.1965 56.6012L30.331 56.1987C30.3574 56.1166 30.3505 56.0275 30.3118 55.9503C30.2732 55.8732 30.2058 55.8142 30.1241 55.786L26.7209 54.6716C26.6373 54.6484 26.5479 54.6579 26.4711 54.6982C26.3942 54.7385 26.3356 54.8064 26.3072 54.8883L26.1727 55.301C26.16 55.3416 26.1556 55.3844 26.1597 55.4268C26.1638 55.4692 26.1763 55.5103 26.1965 55.5478C26.2168 55.5852 26.2443 55.6183 26.2775 55.6451C26.3107 55.6718 26.3489 55.6916 26.3899 55.7034L29.6276 57.2822Z" fill="#F19B2C"/>
<path d="M28.4481 60.9244C28.5318 60.9503 28.6223 60.942 28.6999 60.9014C28.7774 60.8608 28.8357 60.7911 28.8619 60.7078L28.9963 60.295C28.9963 60.1299 29.1101 59.4798 28.9343 59.4179L25.3863 58.7575C25.3026 58.7344 25.2133 58.7439 25.1364 58.7841C25.0595 58.8244 25.0009 58.8924 24.9725 58.9742L24.838 59.3766C24.8117 59.4587 24.8186 59.5479 24.8572 59.625C24.8959 59.7022 24.9632 59.7612 25.0449 59.7894L28.4481 60.9244Z" fill="#F19B2C"/>
<path d="M29.1728 59.1702C29.1551 59.2244 29.1482 59.2816 29.1527 59.3384C29.1571 59.3953 29.1728 59.4507 29.1987 59.5015C29.2246 59.5523 29.2604 59.5975 29.3039 59.6345C29.3474 59.6715 29.3977 59.6996 29.4521 59.7171L69.111 72.626C69.1653 72.6437 69.2226 72.6505 69.2796 72.6461C69.3365 72.6416 69.3921 72.626 69.443 72.6001C69.494 72.5743 69.5393 72.5386 69.5764 72.4952C69.6134 72.4519 69.6416 72.4016 69.6592 72.3474L70.1764 70.7892C70.2098 70.6783 70.1996 70.5589 70.1477 70.4553C70.0957 70.3517 70.0061 70.2718 69.8971 70.232L30.2072 57.3232C30.1529 57.3055 30.0956 57.2986 30.0386 57.3031C29.9816 57.3075 29.9261 57.3231 29.8752 57.349C29.8242 57.3749 29.7789 57.4105 29.7418 57.4539C29.7047 57.4973 29.6766 57.5475 29.659 57.6018L29.1728 59.1702Z" fill="#4D5A68"/>
<path d="M43.1367 65.5679C43.1367 66.0128 43.269 66.4477 43.5168 66.8176C43.7645 67.1875 44.1167 67.4759 44.5288 67.6461C44.9408 67.8164 45.3942 67.8609 45.8316 67.7741C46.2691 67.6873 46.6709 67.4731 46.9862 67.1585C47.3016 66.8439 47.5164 66.4431 47.6034 66.0067C47.6904 65.5704 47.6457 65.1181 47.475 64.707C47.3044 64.296 47.0153 63.9446 46.6445 63.6975C46.2737 63.4503 45.8377 63.3184 45.3917 63.3184C44.7936 63.3184 44.2201 63.5554 43.7972 63.9772C43.3743 64.3991 43.1367 64.9713 43.1367 65.5679Z" fill="#2C3A48"/>
<path d="M40.396 90.5806H50.6469C50.7511 90.5806 50.8511 90.5393 50.9248 90.4658C50.9985 90.3922 51.04 90.2925 51.04 90.1885C51.04 90.0845 50.9985 89.9848 50.9248 89.9112C50.8511 89.8377 50.7511 89.7964 50.6469 89.7964H40.396C40.2918 89.7964 40.1918 89.8377 40.1181 89.9112C40.0443 89.9848 40.0029 90.0845 40.0029 90.1885C40.0029 90.2925 40.0443 90.3922 40.1181 90.4658C40.1918 90.5393 40.2918 90.5806 40.396 90.5806Z" fill="#3C4A58"/>
<path d="M42.3814 74.7825H48.6602C48.7165 74.7917 48.774 74.7886 48.829 74.7733C48.8839 74.7581 48.9348 74.7312 48.9783 74.6944C49.0217 74.6576 49.0566 74.6118 49.0805 74.5602C49.1045 74.5086 49.1169 74.4524 49.1169 74.3955C49.1169 74.3387 49.1045 74.2825 49.0805 74.2309C49.0566 74.1793 49.0217 74.1335 48.9783 74.0967C48.9348 74.0599 48.8839 74.0329 48.829 74.0177C48.774 74.0025 48.7165 73.9994 48.6602 74.0086H42.3814C42.3252 73.9994 42.2676 74.0025 42.2127 74.0177C42.1578 74.0329 42.1068 74.0599 42.0634 74.0967C42.02 74.1335 41.9851 74.1793 41.9611 74.2309C41.9372 74.2825 41.9248 74.3387 41.9248 74.3955C41.9248 74.4524 41.9372 74.5086 41.9611 74.5602C41.9851 74.6118 42.02 74.6576 42.0634 74.6944C42.1068 74.7312 42.1578 74.7581 42.2127 74.7733C42.2676 74.7886 42.3252 74.7917 42.3814 74.7825Z" fill="#3C4A58"/>
<path d="M50.4499 90.0132C50.5266 90.0121 50.6014 89.9892 50.6656 89.9472C50.7297 89.9051 50.7805 89.8457 50.8119 89.7759C50.8513 89.6811 50.8528 89.5749 50.8163 89.479C50.7798 89.3831 50.7079 89.3048 50.6154 89.26L40.7473 84.8642C40.6996 84.837 40.6469 84.8201 40.5923 84.8145C40.5378 84.809 40.4827 84.8148 40.4306 84.8318C40.3784 84.8487 40.3304 84.8763 40.2896 84.9129C40.2489 84.9494 40.2162 84.994 40.1937 85.0439C40.1712 85.0938 40.1595 85.1478 40.1592 85.2025C40.1589 85.2572 40.1701 85.3114 40.192 85.3615C40.2139 85.4116 40.2461 85.4566 40.2865 85.4936C40.3269 85.5305 40.3746 85.5587 40.4266 85.5762L50.2947 89.972C50.3434 89.9952 50.3961 90.0092 50.4499 90.0132Z" fill="#3C4A58"/>
<path d="M40.5508 80.6026C40.591 80.6976 40.6645 80.7747 40.7577 80.8193L42.0196 81.3766L49.4466 84.6579L49.9328 84.8746C49.984 84.8844 50.0367 84.8844 50.0879 84.8746C50.1757 84.8724 50.2601 84.841 50.3279 84.7854C50.3957 84.7298 50.4428 84.6532 50.4619 84.5677C50.4809 84.4822 50.4707 84.3929 50.4329 84.3139C50.3952 84.2349 50.332 84.1707 50.2534 84.1317L49.3225 83.7086L42.1644 80.5304L41.13 80.0661C41.0488 80.0277 40.9566 80.019 40.8696 80.0417C40.7826 80.0643 40.7063 80.1168 40.6542 80.1899L40.5508 80.6026Z" fill="#3C4A58"/>
<path d="M49.436 80.6645C49.5104 80.6649 49.5833 80.6436 49.6457 80.6033C49.7082 80.5629 49.7575 80.5053 49.7877 80.4375C49.8101 80.3902 49.8228 80.3389 49.8251 80.2866C49.8273 80.2343 49.819 80.1821 49.8007 80.133C49.7824 80.084 49.7544 80.0391 49.7184 80.001C49.6824 79.9629 49.6392 79.9324 49.5912 79.9112L41.7608 76.4028C41.6661 76.3609 41.5586 76.358 41.4617 76.3947C41.3649 76.4314 41.2865 76.5048 41.2436 76.5989C41.2042 76.6937 41.2027 76.7999 41.2392 76.8958C41.2757 76.9917 41.3476 77.07 41.4401 77.1148L49.2705 80.6129C49.3215 80.6413 49.3779 80.6589 49.436 80.6645Z" fill="#3C4A58"/>
<path d="M41.4297 74.6484C41.4627 74.6959 41.5097 74.732 41.5642 74.7516L42.9089 75.3501L48.4843 77.8369L49.1566 78.1362C49.2079 78.146 49.2605 78.146 49.3118 78.1362C49.3879 78.1386 49.4631 78.1183 49.5276 78.0778C49.5921 78.0374 49.643 77.9787 49.6738 77.9092C49.7159 77.8147 49.7188 77.7075 49.682 77.6109C49.6452 77.5143 49.5716 77.436 49.4773 77.3932L48.3498 76.8876L43.0227 74.5143L41.8848 74.0087C41.8266 73.9752 41.7606 73.9575 41.6935 73.9575C41.6263 73.9575 41.5603 73.9752 41.5021 74.0087L41.4297 74.6484Z" fill="#3C4A58"/>
<path d="M40.5504 90.0131C40.6051 90.0237 40.6613 90.0237 40.7159 90.0131L50.5841 85.6173C50.6766 85.5725 50.7485 85.4941 50.785 85.3982C50.8215 85.3023 50.82 85.1961 50.7806 85.1013C50.7377 85.0072 50.6593 84.9339 50.5625 84.8972C50.4656 84.8604 50.3582 84.8634 50.2634 84.9053L40.3953 89.3011C40.3116 89.3364 40.2427 89.3995 40.2004 89.4798C40.1581 89.56 40.145 89.6524 40.1633 89.7412C40.1816 89.83 40.2302 89.9097 40.3008 89.9668C40.3713 90.0239 40.4596 90.0548 40.5504 90.0544V90.0131Z" fill="#3C4A58"/>
<path d="M41.1194 84.9258C41.1707 84.9356 41.2233 84.9356 41.2746 84.9258L50.0773 81.0047C50.1734 80.9623 50.2485 80.8835 50.2864 80.7858C50.3242 80.6881 50.3216 80.5794 50.279 80.4836C50.2365 80.3878 50.1576 80.3128 50.0596 80.2751C49.9617 80.2373 49.8527 80.2399 49.7567 80.2824L40.9539 84.2138C40.8596 84.2566 40.7861 84.3348 40.7493 84.4315C40.7125 84.5281 40.7154 84.6353 40.7574 84.7298C40.7927 84.7935 40.8456 84.8458 40.9097 84.8805C40.9739 84.9153 41.0466 84.931 41.1194 84.9258Z" fill="#3C4A58"/>
<path d="M41.7198 80.5304C41.7745 80.5402 41.8306 80.5402 41.8853 80.5304L49.4778 77.1458C49.5703 77.101 49.6422 77.0226 49.6787 76.9267C49.7152 76.8308 49.7137 76.7246 49.6743 76.6298C49.6312 76.5357 49.5535 76.4617 49.4572 76.4233C49.3608 76.3849 49.2534 76.3849 49.1571 76.4235L41.5853 79.7358C41.5377 79.7559 41.4946 79.7854 41.4587 79.8225C41.4229 79.8597 41.3949 79.9037 41.3765 79.9519C41.3582 80.0001 41.3498 80.0515 41.3519 80.1031C41.354 80.1546 41.3665 80.2052 41.3888 80.2517C41.4093 80.3261 41.4519 80.3925 41.511 80.4423C41.5701 80.492 41.6429 80.5227 41.7198 80.5304Z" fill="#3C4A58"/>
<path d="M41.9781 78.0126C42.0324 78.0265 42.0894 78.0265 42.1436 78.0126L49.2189 74.8653C49.3114 74.8205 49.3833 74.7422 49.4198 74.6463C49.4564 74.5504 49.4548 74.4442 49.4155 74.3494C49.3726 74.2553 49.2942 74.1819 49.1973 74.1452C49.1004 74.1085 48.993 74.1114 48.8983 74.1533L41.823 77.3109C41.745 77.3494 41.6821 77.4127 41.6441 77.4907C41.606 77.5688 41.595 77.6572 41.6128 77.7422C41.6305 77.8271 41.676 77.9038 41.7421 77.9602C41.8082 78.0166 41.8913 78.0495 41.9781 78.0538V78.0126Z" fill="#3C4A58"/>
<path d="M51.6605 95.4721H51.7743C51.9798 95.4415 52.1648 95.3309 52.2889 95.1646C52.4129 94.9984 52.4659 94.7898 52.4363 94.5847L48.5987 67.5081C48.5551 67.3164 48.4409 67.148 48.2787 67.0363C48.1165 66.9246 47.9182 66.8778 47.723 66.905C47.5279 66.9323 47.3501 67.0317 47.2249 67.1835C47.0997 67.3353 47.0363 67.5285 47.0471 67.7248L50.895 94.8014C50.922 94.9856 51.0139 95.1543 51.1541 95.2772C51.2944 95.4 51.4739 95.4691 51.6605 95.4721Z" fill="#3C4A58"/>
<path d="M39.2687 95.4616H39.3825C39.5718 95.4587 39.7539 95.3885 39.8961 95.2637C40.0383 95.1388 40.1312 94.9676 40.1583 94.7806L42.0512 81.3661L42.165 80.5613L42.9098 75.3709L43.0235 74.566L43.9855 67.7453C43.9964 67.549 43.9329 67.3558 43.8077 67.204C43.6825 67.0522 43.5047 66.9528 43.3096 66.9255C43.1144 66.8983 42.9161 66.9451 42.7539 67.0568C42.5918 67.1685 42.4776 67.3369 42.4339 67.5286L41.503 74.0914L41.4306 74.6692L40.6341 80.2517V80.6232L38.6067 94.5742C38.577 94.7794 38.6301 94.9879 38.7541 95.1542C38.8782 95.3205 39.0632 95.431 39.2687 95.4616Z" fill="#3C4A58"/>
<path d="M45.5263 95.472C45.8883 95.472 46.1883 95.2966 46.1883 95.0799V68.0137C46.1883 67.797 45.8883 67.6216 45.5263 67.6216C45.1642 67.6216 44.8643 67.797 44.8643 68.0137V95.0799C44.8643 95.2966 45.1539 95.472 45.5263 95.472Z" fill="#3C4A58"/>
<path d="M49.2916 66.6104H41.7405C41.3806 66.6104 41.0889 66.9014 41.0889 67.2604V68.3852C41.0889 68.7442 41.3806 69.0353 41.7405 69.0353H49.2916C49.6516 69.0353 49.9433 68.7442 49.9433 68.3852V67.2604C49.9433 66.9014 49.6516 66.6104 49.2916 66.6104Z" fill="#FFAC42"/>
<path d="M70.248 86.5669H61.8177C61.4578 86.5669 61.166 86.8579 61.166 87.217V92.3867C61.166 92.7457 61.4578 93.0368 61.8177 93.0368H70.248C70.6079 93.0368 70.8997 92.7457 70.8997 92.3867V87.217C70.8997 86.8579 70.6079 86.5669 70.248 86.5669Z" fill="#2C3A48"/>
<path d="M71.8311 92.7476H25.5107C24.8937 92.7476 24.3936 93.2465 24.3936 93.862V96.3901C24.3936 97.0056 24.8937 97.5045 25.5107 97.5045H71.8311C72.448 97.5045 72.9482 97.0056 72.9482 96.3901V93.862C72.9482 93.2465 72.448 92.7476 71.8311 92.7476Z" fill="#514260"/>
<path d="M29.702 57.0214L28.8786 59.4777C28.8044 59.6993 28.9242 59.939 29.1464 60.0131L30.196 60.3632C30.4182 60.4373 30.6585 60.3178 30.7327 60.0962L31.5561 57.6399C31.6304 57.4183 31.5106 57.1786 31.2884 57.1045L30.2388 56.7543C30.0166 56.6802 29.7763 56.7998 29.702 57.0214Z" fill="#5C6A78"/>
<path d="M98.9941 69.4685C98.9941 66.9198 100.453 64.8457 102.263 64.8457C104.073 64.8457 105.542 66.9095 105.542 69.4685C105.542 72.0276 102.263 77.7236 102.263 77.7236C102.263 77.7236 98.9941 72.0173 98.9941 69.4685Z" fill="white"/>
<path d="M98.9941 52.5872C98.9941 50.0384 100.453 47.9644 102.263 47.9644C104.073 47.9644 105.542 50.0281 105.542 52.5872C105.542 55.1462 102.263 60.8422 102.263 60.8422C102.263 60.8422 98.9941 55.1359 98.9941 52.5872Z" fill="white"/>
<path d="M98.9941 35.6228C98.9941 33.0638 100.453 31 102.263 31C104.073 31 105.542 33.0638 105.542 35.6228C105.542 38.1819 102.263 43.8779 102.263 43.8779C102.263 43.8779 98.9941 38.2232 98.9941 35.6228Z" fill="white"/>
<path d="M89.1671 57.8289C88.3707 55.404 89.1671 52.9791 90.8532 52.4219C92.5393 51.8647 94.6081 53.3815 95.3942 55.8168C96.1804 58.252 94.8356 64.66 94.8356 64.66C94.8356 64.66 89.9947 60.2229 89.1671 57.8289Z" fill="white"/>
<path d="M83.9957 41.7418C83.2096 39.3169 83.9957 36.9023 85.6818 36.3348C87.3678 35.7673 89.4366 37.2944 90.2331 39.7194C91.0296 42.1443 89.6435 48.5419 89.6435 48.5419C89.6435 48.5419 84.7612 44.1668 83.9957 41.7418Z" fill="white"/>
<path d="M115.411 57.8289C116.197 55.404 115.411 52.9791 113.725 52.4219C112.039 51.8647 109.97 53.3815 109.173 55.8168C108.377 58.252 109.742 64.66 109.742 64.66C109.742 64.66 114.625 60.2229 115.411 57.8289Z" fill="white"/>
<path d="M120.644 41.7418C121.431 39.3169 120.644 36.9023 118.958 36.3348C117.272 35.7673 115.203 37.2944 114.407 39.7194C113.611 42.1443 115.028 48.5419 115.028 48.5419C115.028 48.5419 119.848 44.1668 120.644 41.7418Z" fill="white"/>
<path d="M117.024 145.539H88.2469C87.9561 145.539 87.6772 145.423 87.4715 145.218C87.2659 145.013 87.1504 144.735 87.1504 144.445C87.1504 144.155 87.2659 143.877 87.4715 143.671C87.6772 143.466 87.9561 143.351 88.2469 143.351H117.024C117.315 143.351 117.594 143.466 117.799 143.671C118.005 143.877 118.12 144.155 118.12 144.445C118.12 144.735 118.005 145.013 117.799 145.218C117.594 145.423 117.315 145.539 117.024 145.539Z" fill="#3C4A58"/>
<path d="M111.449 101.219H93.864C93.5732 101.219 93.2943 101.104 93.0887 100.899C92.8831 100.694 92.7676 100.416 92.7676 100.126C92.7676 99.8354 92.8831 99.5572 93.0887 99.3521C93.2943 99.147 93.5732 99.0317 93.864 99.0317H111.449C111.74 99.0317 112.019 99.147 112.224 99.3521C112.43 99.5572 112.545 99.8354 112.545 100.126C112.545 100.416 112.43 100.694 112.224 100.899C112.019 101.104 111.74 101.219 111.449 101.219Z" fill="#3C4A58"/>
<path d="M88.7846 143.96C88.5673 143.965 88.3533 143.906 88.1693 143.79C87.9853 143.675 87.8396 143.507 87.7502 143.31C87.6903 143.179 87.6571 143.037 87.6528 142.893C87.6485 142.748 87.6731 142.605 87.7251 142.47C87.7771 142.336 87.8556 142.213 87.9558 142.109C88.056 142.005 88.176 141.922 88.3088 141.865L116.062 129.514C116.328 129.394 116.63 129.386 116.903 129.489C117.176 129.593 117.396 129.8 117.515 130.066C117.634 130.331 117.643 130.633 117.539 130.905C117.436 131.177 117.228 131.396 116.962 131.515L89.2605 143.898C89.1083 143.953 88.9459 143.974 88.7846 143.96Z" fill="#3C4A58"/>
<path d="M116.497 117.554C116.39 117.822 116.182 118.037 115.918 118.153L112.37 119.742L91.5988 129.029L90.2541 129.627C90.1114 129.692 89.9558 129.724 89.799 129.72C89.5578 129.709 89.327 129.619 89.1423 129.464C88.9576 129.309 88.8294 129.097 88.7776 128.862C88.7257 128.627 88.7531 128.381 88.8555 128.163C88.9578 127.945 89.1295 127.767 89.3438 127.656L91.9608 126.49L112.039 117.544L115.028 116.151C115.255 116.051 115.509 116.031 115.749 116.093C115.989 116.154 116.201 116.295 116.352 116.491L116.497 117.554Z" fill="#3C4A58"/>
<path d="M91.6497 117.678C91.4118 117.659 91.1865 117.563 91.0081 117.405C90.8296 117.247 90.7077 117.035 90.6609 116.802C90.6141 116.568 90.645 116.326 90.7487 116.112C90.8525 115.897 91.0236 115.723 91.236 115.614L113.165 105.811C113.426 105.722 113.71 105.733 113.963 105.842C114.215 105.951 114.419 106.149 114.532 106.399C114.646 106.65 114.662 106.933 114.578 107.194C114.493 107.456 114.314 107.676 114.075 107.813L92.0945 117.678C91.9477 117.707 91.7966 117.707 91.6497 117.678Z" fill="#3C4A58"/>
<path d="M114.128 100.848C114.024 100.969 113.893 101.064 113.745 101.126L109.97 102.808L94.3397 109.794L92.4468 110.63C92.3041 110.695 92.1485 110.727 91.9917 110.723C91.7738 110.731 91.5586 110.673 91.3741 110.557C91.1896 110.441 91.0443 110.272 90.9573 110.073C90.8445 109.807 90.8398 109.507 90.944 109.238C91.0482 108.968 91.2532 108.75 91.5158 108.628L94.619 107.225L109.639 100.549L112.845 99.1039C113.01 99.0271 113.193 98.9952 113.375 99.0115C113.557 99.0278 113.731 99.0917 113.88 99.1968L114.128 100.848Z" fill="#3C4A58"/>
<path d="M116.476 143.96C116.323 143.959 116.172 143.927 116.031 143.867L88.3402 131.484C88.2085 131.426 88.0895 131.343 87.9901 131.238C87.8908 131.134 87.8129 131.012 87.761 130.878C87.7092 130.743 87.6843 130.6 87.6878 130.457C87.6914 130.313 87.7233 130.171 87.7817 130.04C87.8401 129.908 87.9239 129.79 88.0283 129.691C88.1326 129.591 88.2556 129.514 88.3901 129.462C88.5245 129.41 88.6679 129.385 88.812 129.389C88.9561 129.393 89.0981 129.424 89.2298 129.483L116.931 141.865C117.068 141.917 117.192 141.997 117.295 142.101C117.399 142.204 117.479 142.328 117.531 142.464C117.583 142.601 117.605 142.747 117.596 142.893C117.587 143.038 117.547 143.181 117.479 143.31C117.393 143.503 117.252 143.668 117.074 143.783C116.896 143.899 116.688 143.96 116.476 143.96Z" fill="#3C4A58"/>
<path d="M115.027 129.7C114.873 129.701 114.72 129.665 114.583 129.596L89.8294 118.586C89.6976 118.527 89.5788 118.443 89.4796 118.338C89.3805 118.233 89.3031 118.11 89.2517 117.976C89.2003 117.841 89.176 117.698 89.1801 117.554C89.1843 117.41 89.2169 117.268 89.276 117.136C89.3351 117.005 89.4195 116.886 89.5245 116.788C89.6295 116.689 89.7531 116.611 89.888 116.56C90.023 116.509 90.1667 116.485 90.3111 116.489C90.4554 116.493 90.5975 116.525 90.7293 116.584L115.431 127.594C115.637 127.71 115.802 127.888 115.899 128.103C115.997 128.319 116.022 128.559 115.973 128.79C115.923 129.021 115.8 129.23 115.623 129.386C115.445 129.543 115.222 129.638 114.986 129.658L115.027 129.7Z" fill="#3C4A58"/>
<path d="M113.289 117.203C113.136 117.202 112.985 117.171 112.845 117.11L91.5257 107.607C91.3939 107.548 91.2751 107.463 91.1759 107.359C91.0768 107.254 90.9993 107.131 90.948 106.996C90.8966 106.861 90.8723 106.718 90.8764 106.574C90.8806 106.43 90.9132 106.288 90.9723 106.157C91.0313 106.025 91.1158 105.907 91.2208 105.808C91.3258 105.709 91.4494 105.632 91.5843 105.581C91.7193 105.529 91.863 105.505 92.0074 105.509C92.1517 105.513 92.2938 105.546 92.4256 105.605L113.745 115.108C113.959 115.219 114.13 115.398 114.233 115.616C114.335 115.834 114.363 116.079 114.311 116.315C114.259 116.55 114.131 116.761 113.946 116.916C113.761 117.071 113.531 117.161 113.289 117.172V117.203Z" fill="#3C4A58"/>
<path d="M112.566 110.279C112.413 110.278 112.261 110.247 112.121 110.186L92.2708 101.322C92.0047 101.203 91.7969 100.984 91.6931 100.712C91.5893 100.44 91.598 100.138 91.7174 99.8727C91.8367 99.6072 92.0569 99.3999 92.3294 99.2964C92.602 99.1929 92.9046 99.2016 93.1707 99.3206L113.031 108.185C113.245 108.295 113.416 108.472 113.519 108.689C113.622 108.906 113.65 109.151 113.599 109.386C113.549 109.621 113.422 109.832 113.239 109.988C113.056 110.144 112.827 110.235 112.586 110.248L112.566 110.279Z" fill="#3C4A58"/>
<path d="M85.3918 159.294H85.0815C84.5037 159.209 83.9828 158.9 83.6321 158.435C83.2814 157.969 83.1294 157.384 83.2093 156.807L93.9774 80.7881C94.0021 80.4895 94.0877 80.1991 94.229 79.9348C94.3703 79.6704 94.5643 79.4377 94.799 79.2508C95.0338 79.064 95.3044 78.927 95.5941 78.8483C95.8839 78.7695 96.1867 78.7507 96.484 78.793C96.7813 78.8353 97.0668 78.9377 97.323 79.0941C97.5792 79.2504 97.8006 79.4573 97.9737 79.7022C98.1468 79.947 98.2678 80.2245 98.3295 80.5177C98.3911 80.8109 98.3921 81.1136 98.3322 81.4072L87.5744 157.405C87.4976 157.929 87.2351 158.407 86.8345 158.754C86.434 159.1 85.922 159.292 85.3918 159.294Z" fill="#514260"/>
<path d="M120.2 159.273H119.889C119.361 159.273 118.851 159.084 118.452 158.739C118.053 158.393 117.792 157.916 117.717 157.395L112.369 119.742L112.038 117.482L109.97 102.808L109.639 100.549L106.928 81.4073C106.867 81.1129 106.868 80.8092 106.929 80.5149C106.99 80.2207 107.112 79.9421 107.285 79.6964C107.459 79.4507 107.681 79.2432 107.938 79.0866C108.195 78.93 108.482 78.8276 108.78 78.7859C109.079 78.7442 109.382 78.764 109.673 78.844C109.963 78.9241 110.234 79.0627 110.469 79.2513C110.703 79.44 110.897 79.6746 111.037 79.9407C111.177 80.2068 111.261 80.4987 111.283 80.7984L113.9 99.2175L114.128 100.848L116.341 116.491L116.497 117.523L122.051 156.735C122.1 157.023 122.09 157.318 122.023 157.602C121.956 157.887 121.832 158.155 121.66 158.392C121.488 158.628 121.27 158.828 121.019 158.979C120.768 159.13 120.49 159.23 120.2 159.273Z" fill="#514260"/>
<path d="M102.615 159.294C101.58 159.294 100.753 158.798 100.753 158.2V82.1915C100.753 81.593 101.58 81.0977 102.615 81.0977C103.649 81.0977 104.477 81.593 104.477 82.1915V158.2C104.487 158.798 103.649 159.294 102.615 159.294Z" fill="#514260"/>
<path d="M113.238 78.2603H92.0325C91.027 78.2603 90.2119 79.0734 90.2119 80.0764V83.2442C90.2119 84.2472 91.027 85.0603 92.0325 85.0603H113.238C114.243 85.0603 115.058 84.2472 115.058 83.2442V80.0764C115.058 79.0734 114.243 78.2603 113.238 78.2603Z" fill="#F19B2C"/>
<path d="M138.747 151.647H65.7803C64.0436 151.647 62.6357 153.052 62.6357 154.784V161.863C62.6357 163.596 64.0436 165 65.7803 165H138.747C140.483 165 141.891 163.596 141.891 161.863V154.784C141.891 153.052 140.483 151.647 138.747 151.647Z" fill="#FFAC42"/>
<path d="M148.253 90.7461L148.325 91.8605L149.194 91.3239L148.253 90.7461ZM148.584 95.534V96.2563L149.153 95.9158L148.584 95.534ZM148.905 100.322V100.652L149.153 100.497L148.905 100.322ZM148.253 90.7461L148.325 91.8605L149.194 91.3239L148.253 90.7461ZM148.584 95.534V96.2563L149.153 95.9158L148.584 95.534ZM148.905 100.322V100.652L149.153 100.497L148.905 100.322ZM148.253 90.7461L148.325 91.8605L149.194 91.3239L148.253 90.7461ZM148.625 96.2563L149.194 95.9158L148.584 95.534L148.625 96.2563ZM148.936 100.652L149.184 100.497L148.905 100.322L148.936 100.652ZM150.322 102.716L150.187 100.652V100.59L149.898 96.2563V95.8539V95.5959L149.639 91.8502V91.5819V91.1485V90.808L149.411 87.444L149.36 86.794V86.082L148.325 71.6356C148.317 71.4751 148.247 71.3239 148.129 71.2141C148.011 71.1043 147.855 71.0446 147.694 71.0475C147.535 71.0473 147.382 71.1082 147.266 71.2177C147.15 71.3272 147.082 71.4769 147.074 71.6356L146.06 84.1833V84.8127L145.76 88.7855V88.868V89.1776V89.5491L144.85 102.778C144.845 102.863 144.858 102.949 144.888 103.029C144.918 103.109 144.965 103.181 145.026 103.242C145.083 103.306 145.153 103.357 145.232 103.392C145.31 103.428 145.395 103.447 145.481 103.449H149.763C149.93 103.446 150.089 103.379 150.206 103.261C150.324 103.144 150.391 102.985 150.394 102.819C150.374 102.775 150.35 102.734 150.322 102.695V102.716ZM146.112 102.2L146.35 98.7328V98.3304V98.0208V97.5668L146.577 94.3267V93.6147V93.5528V92.7789L146.763 89.9206L146.815 89.2189V88.7545V87.9909L146.981 85.5144V84.8127L147.26 80.7471L147.56 85.1636L147.622 85.9272L147.715 87.4234V88.1251L147.849 89.9515L147.901 90.7151L147.974 91.8295V92.5312L148.129 94.7394V95.503V96.2253V96.9373L148.305 99.5274V100.291V100.621V101.333L148.367 102.2H146.112ZM148.905 100.291V100.621L149.153 100.466L148.905 100.291ZM148.584 95.503V96.2253L149.153 95.8848L148.584 95.503ZM148.253 90.7151L148.325 91.8295L149.194 91.293L148.253 90.7151ZM148.905 100.291V100.621L149.153 100.466L148.905 100.291ZM148.584 95.503V96.2253L149.153 95.8848L148.584 95.503ZM148.253 90.7151L148.325 91.8295L149.194 91.293L148.253 90.7151ZM148.905 100.291V100.621L149.153 100.466L148.905 100.291ZM148.584 95.503V96.2253L149.153 95.8848L148.584 95.503ZM148.253 90.7151L148.325 91.8295L149.194 91.293L148.253 90.7151Z" fill="#2C3A48"/>
<path d="M145.599 97.564L145.27 98.1011L149.365 100.598L149.694 100.061L145.599 97.564Z" fill="#2C3A48"/>
<path d="M145.77 93.0756L145.441 93.6128L149.537 96.1088L149.866 95.5716L145.77 93.0756Z" fill="#2C3A48"/>
<path d="M149.567 91.5507L149.194 91.3237L148.253 90.7459L146.939 89.9513L146.029 89.3941L145.739 89.2187L145.76 88.9091L145.832 88.7853L145.946 88.6099L146.029 88.6615L146.639 89.0329L146.991 89.2496L148.201 89.9823L149.515 90.7768L149.535 91.1173L149.567 91.5507Z" fill="#2C3A48"/>
<path d="M149.235 86.7626L149.194 86.742L147.932 85.9578L147.239 85.545L146.039 84.8124L146.08 84.1726L146.111 84.1313L147.291 84.8433L147.87 85.1942L149.184 85.999L149.235 86.711V86.7626Z" fill="#2C3A48"/>
<path d="M149.891 100.076L145.797 102.575L146.126 103.112L150.22 100.613L149.891 100.076Z" fill="#C5D3E1"/>
<path d="M149.886 96.2252L148.676 96.9681L146.638 98.2064L146.369 98.3611L146.028 98.5675L145.945 98.6294L145.831 98.454L145.614 98.0929L146.028 97.8349L146.421 97.5976L148.624 96.2561L149.193 95.9156L149.71 95.5957L149.793 95.7195L149.855 95.8227L149.886 96.2252Z" fill="#2C3A48"/>
<path d="M149.587 91.8189L148.377 92.5618L146.701 93.5834L146.639 93.6143L146.039 93.9858L145.78 94.1509L145.47 93.6453L145.46 93.6247L145.449 93.604L145.47 93.5937L146.039 93.2532L146.753 92.8095L148.325 91.8601L149.194 91.3236L149.535 91.1172L149.566 91.5506L149.587 91.8189Z" fill="#2C3A48"/>
<path d="M149.286 87.4131L148.066 88.1561L147.021 88.7958L146.638 89.0332L146.028 89.3943L145.718 89.5904L145.738 89.2189L145.759 88.9093V88.8268L145.832 88.7855L146.028 88.6617L147.073 88.0219L148.024 87.4544L149.193 86.7424L149.235 86.7114V86.763L149.286 87.4131Z" fill="#2C3A48"/>
<path d="M174.661 100.353H174.506L170.823 99.5272C170.7 99.4979 170.586 99.4381 170.492 99.3533C170.398 99.2685 170.327 99.1616 170.285 99.0422C170.249 98.9193 170.245 98.7892 170.274 98.6645C170.303 98.5397 170.364 98.4246 170.451 98.3302L191.739 75.3708C191.862 75.2231 192.039 75.1303 192.231 75.1128C192.423 75.0954 192.615 75.1548 192.763 75.278C192.911 75.4011 193.004 75.5779 193.021 75.7695C193.039 75.9611 192.979 76.1518 192.856 76.2995L175.271 100.033C175.203 100.131 175.111 100.212 175.005 100.267C174.899 100.323 174.781 100.352 174.661 100.353ZM172.375 98.3715L174.361 98.8152L183.867 85.9889L172.375 98.3715Z" fill="#2C3A48"/>
<path d="M168.237 96.3388H156.745C156.681 96.3485 156.617 96.3445 156.555 96.3269C156.493 96.3093 156.436 96.2787 156.388 96.237C156.339 96.1954 156.3 96.1437 156.273 96.0856C156.246 96.0274 156.232 95.9642 156.232 95.9003C156.232 95.8363 156.246 95.7731 156.273 95.7149C156.3 95.6568 156.339 95.6051 156.388 95.5635C156.436 95.5218 156.493 95.4912 156.555 95.4736C156.617 95.456 156.681 95.452 156.745 95.4617H168.237C168.342 95.4778 168.438 95.5309 168.507 95.6113C168.576 95.6918 168.614 95.7943 168.614 95.9003C168.614 96.0062 168.576 96.1087 168.507 96.1892C168.438 96.2696 168.342 96.3227 168.237 96.3388Z" fill="#514260"/>
<path d="M166.013 78.6215H158.968C158.905 78.6312 158.84 78.6272 158.779 78.6096C158.717 78.592 158.66 78.5614 158.611 78.5197C158.563 78.4781 158.523 78.4264 158.497 78.3683C158.47 78.3102 158.456 78.2469 158.456 78.183C158.456 78.119 158.47 78.0558 158.497 77.9977C158.523 77.9395 158.563 77.8879 158.611 77.8462C158.66 77.8046 158.717 77.7739 158.779 77.7563C158.84 77.7388 158.905 77.7347 158.968 77.7444H166.013C166.118 77.7605 166.213 77.8136 166.283 77.8941C166.352 77.9745 166.39 78.077 166.39 78.183C166.39 78.289 166.352 78.3914 166.283 78.4719C166.213 78.5523 166.118 78.6054 166.013 78.6215Z" fill="#514260"/>
<path d="M156.962 95.6884C156.877 95.691 156.792 95.6678 156.72 95.6217C156.648 95.5757 156.592 95.509 156.559 95.4305C156.535 95.3784 156.521 95.322 156.519 95.2646C156.517 95.2072 156.526 95.15 156.546 95.0962C156.566 95.0425 156.597 94.9932 156.637 94.9514C156.676 94.9096 156.723 94.876 156.776 94.8526L167.844 89.9202C167.897 89.8964 167.954 89.8834 168.012 89.882C168.07 89.8805 168.128 89.8907 168.182 89.9119C168.236 89.933 168.285 89.9647 168.326 90.0052C168.368 90.0456 168.401 90.0939 168.423 90.1472C168.469 90.2541 168.47 90.3745 168.428 90.4825C168.385 90.5905 168.302 90.6776 168.196 90.7251L157.138 95.6575L156.962 95.6884Z" fill="#514260"/>
<path d="M168.02 85.1429C167.979 85.252 167.898 85.3409 167.792 85.3905L166.375 86.02L158.1 89.7141L157.562 89.9515C157.504 89.9647 157.444 89.9647 157.386 89.9515C157.301 89.9541 157.216 89.9308 157.144 89.8848C157.072 89.8387 157.016 89.7721 156.983 89.6935C156.958 89.6414 156.945 89.585 156.943 89.5276C156.941 89.4702 156.95 89.413 156.97 89.3592C156.99 89.3055 157.021 89.2563 157.06 89.2144C157.1 89.1726 157.147 89.139 157.2 89.1156L158.234 88.6513L166.261 85.0707L167.451 84.5444C167.541 84.5053 167.642 84.4973 167.737 84.5216C167.833 84.5458 167.918 84.6011 167.978 84.6786L168.02 85.1429Z" fill="#514260"/>
<path d="M158.1 85.2151C158.015 85.2138 157.933 85.189 157.862 85.1434C157.79 85.0978 157.733 85.0333 157.697 84.9572C157.673 84.9044 157.66 84.8474 157.658 84.7896C157.657 84.7318 157.667 84.6742 157.688 84.6203C157.71 84.5665 157.741 84.5174 157.782 84.476C157.822 84.4346 157.871 84.4017 157.924 84.3793L166.748 80.4478C166.852 80.4142 166.965 80.4201 167.065 80.4645C167.165 80.5088 167.246 80.5886 167.29 80.6883C167.335 80.7881 167.342 80.9009 167.308 81.005C167.275 81.1092 167.204 81.1974 167.11 81.2527L158.328 85.1739C158.256 85.2057 158.178 85.2198 158.1 85.2151Z" fill="#514260"/>
<path d="M167.078 78.4664C167.039 78.5183 166.985 78.5577 166.923 78.5799L165.413 79.261L159.207 82.047L158.451 82.3772C158.394 82.3917 158.333 82.3917 158.276 82.3772C158.191 82.3771 158.108 82.3528 158.036 82.3071C157.965 82.2614 157.908 82.1962 157.872 82.1193C157.848 82.0672 157.834 82.0108 157.832 81.9534C157.83 81.896 157.839 81.8388 157.86 81.785C157.88 81.7313 157.911 81.682 157.95 81.6402C157.99 81.5984 158.037 81.5648 158.089 81.5414L159.351 80.9739L165.33 78.3116L166.603 77.7441C166.667 77.7079 166.74 77.689 166.815 77.689C166.889 77.689 166.962 77.7079 167.027 77.7441L167.078 78.4664Z" fill="#514260"/>
<path d="M168.02 95.6885C167.962 95.6991 167.902 95.6991 167.844 95.6885L156.776 90.7561C156.723 90.7327 156.676 90.6991 156.637 90.6573C156.597 90.6154 156.566 90.5662 156.546 90.5125C156.526 90.4587 156.517 90.4015 156.519 90.3441C156.521 90.2867 156.535 90.2303 156.559 90.1782C156.58 90.1239 156.612 90.0746 156.654 90.0333C156.695 89.9921 156.744 89.9598 156.799 89.9385C156.853 89.9172 156.911 89.9073 156.97 89.9095C157.028 89.9117 157.085 89.9259 157.138 89.9512L168.196 94.8836C168.291 94.9213 168.37 94.9914 168.418 95.0813C168.466 95.1713 168.481 95.2754 168.46 95.3753C168.439 95.4752 168.384 95.5646 168.303 95.6275C168.222 95.6905 168.122 95.723 168.02 95.7194V95.6885Z" fill="#514260"/>
<path d="M167.42 89.9928C167.362 90.0072 167.302 90.0072 167.244 89.9928L157.376 85.5969C157.281 85.5416 157.211 85.4534 157.177 85.3493C157.144 85.2451 157.15 85.1323 157.195 85.0326C157.24 84.9328 157.32 84.8531 157.421 84.8087C157.521 84.7643 157.634 84.7584 157.738 84.7921L167.606 89.1982C167.659 89.2216 167.706 89.2552 167.746 89.297C167.785 89.3388 167.816 89.3881 167.836 89.4418C167.856 89.4956 167.865 89.5528 167.863 89.6102C167.861 89.6676 167.848 89.724 167.823 89.7761C167.784 89.8469 167.725 89.905 167.654 89.9434C167.582 89.9818 167.501 89.999 167.42 89.9928Z" fill="#514260"/>
<path d="M166.748 85.0084C166.687 85.0229 166.623 85.0229 166.562 85.0084L158.048 81.2111C157.996 81.1874 157.949 81.1536 157.91 81.1118C157.871 81.0699 157.84 81.0207 157.82 80.9671C157.8 80.9134 157.79 80.8563 157.792 80.799C157.794 80.7418 157.807 80.6854 157.831 80.6332C157.855 80.5811 157.889 80.5341 157.931 80.495C157.973 80.4558 158.022 80.4253 158.076 80.4052C158.13 80.3851 158.187 80.3757 158.244 80.3777C158.302 80.3796 158.358 80.3928 158.41 80.4166L166.924 84.2036C167.03 84.2531 167.114 84.3421 167.156 84.4518C167.199 84.5615 167.197 84.6834 167.151 84.7917C167.109 84.8602 167.05 84.9163 166.979 84.9544C166.908 84.9925 166.828 85.0111 166.748 85.0084Z" fill="#514260"/>
<path d="M166.458 82.2431C166.399 82.2538 166.34 82.2538 166.282 82.2431L158.337 78.7037C158.285 78.6804 158.238 78.6468 158.198 78.6049C158.159 78.5631 158.128 78.5139 158.108 78.4601C158.088 78.4064 158.078 78.3491 158.08 78.2918C158.083 78.2344 158.096 78.178 158.12 78.1259C158.168 78.02 158.255 77.9369 158.363 77.8945C158.472 77.8521 158.592 77.8536 158.7 77.8989L166.633 81.4382C166.74 81.4857 166.823 81.5728 166.865 81.6808C166.908 81.7889 166.906 81.9092 166.861 82.0161C166.819 82.0858 166.76 82.1434 166.69 82.1832C166.619 82.223 166.539 82.2437 166.458 82.2431Z" fill="#514260"/>
<path d="M155.607 101.818H155.483C155.365 101.802 155.251 101.762 155.148 101.701C155.046 101.639 154.956 101.558 154.886 101.462C154.815 101.366 154.765 101.256 154.738 101.14C154.711 101.024 154.708 100.904 154.728 100.786L159.031 70.4281C159.047 70.3103 159.087 70.197 159.149 70.095C159.21 69.9931 159.292 69.9047 159.389 69.8352C159.485 69.7657 159.595 69.7166 159.712 69.6908C159.828 69.665 159.948 69.6631 160.066 69.6852C160.184 69.6999 160.299 69.7389 160.402 69.7997C160.505 69.8606 160.594 69.942 160.664 70.0389C160.734 70.1358 160.783 70.246 160.808 70.3627C160.833 70.4794 160.834 70.6 160.81 70.7171L156.476 101.065C156.444 101.273 156.34 101.462 156.18 101.6C156.021 101.738 155.818 101.815 155.607 101.818Z" fill="#2C3A48"/>
<path d="M169.499 101.808H169.375C169.164 101.807 168.959 101.731 168.8 101.593C168.64 101.454 168.536 101.263 168.506 101.054L166.375 86.0096L166.251 85.1016L165.413 79.2508L165.289 78.3428L164.203 70.6965C164.182 70.5798 164.185 70.4601 164.212 70.3446C164.238 70.2291 164.288 70.12 164.357 70.0238C164.427 69.9276 164.515 69.8463 164.616 69.7846C164.717 69.7229 164.83 69.6821 164.948 69.6646C165.065 69.641 165.186 69.6418 165.303 69.6669C165.42 69.6921 165.53 69.7411 165.628 69.8108C165.725 69.8806 165.806 69.9696 165.867 70.0723C165.928 70.175 165.967 70.2891 165.982 70.4076L167.017 77.7649L167.11 78.415L167.999 84.6682V85.0912L170.223 100.766C170.247 100.882 170.247 101.001 170.223 101.117C170.199 101.234 170.152 101.344 170.084 101.441C170.017 101.538 169.93 101.621 169.829 101.684C169.729 101.747 169.616 101.789 169.499 101.808Z" fill="#2C3A48"/>
<path d="M162.486 101.374C162.072 101.374 161.741 101.178 161.741 100.941V70.5828C161.741 70.3455 162.072 70.1494 162.486 70.1494C162.9 70.1494 163.231 70.3455 163.231 70.5828V100.941C163.231 101.168 162.9 101.374 162.486 101.374Z" fill="#2C3A48"/>
<path d="M165.248 69.5613L163.179 61.523C163.114 61.3852 163.011 61.2688 162.882 61.1873C162.752 61.1058 162.603 61.0625 162.45 61.0625C162.297 61.0625 162.148 61.1058 162.018 61.1873C161.889 61.2688 161.786 61.3852 161.721 61.523L159.652 69.5613C159.611 69.7228 159.636 69.8938 159.721 70.0369C159.807 70.18 159.945 70.2836 160.107 70.3249H160.262C160.402 70.3229 160.537 70.2755 160.647 70.1898C160.757 70.1041 160.837 69.9849 160.873 69.8503L162.403 63.7312L163.945 69.8503C163.981 69.9849 164.06 70.1041 164.17 70.1898C164.28 70.2755 164.415 70.3229 164.555 70.3249H164.71C164.797 70.3127 164.88 70.2828 164.955 70.2371C165.03 70.1914 165.094 70.1309 165.145 70.0593C165.195 69.9878 165.23 69.9067 165.248 69.821C165.266 69.7354 165.266 69.647 165.248 69.5613Z" fill="#2C3A48"/>
<path d="M166.727 69.4478H158.245C157.845 69.4478 157.521 69.7711 157.521 70.1701V71.4393C157.521 71.8382 157.845 72.1616 158.245 72.1616H166.727C167.127 72.1616 167.451 71.8382 167.451 71.4393V70.1701C167.451 69.7711 167.127 69.4478 166.727 69.4478Z" fill="#FFAC42"/>
<path d="M164.606 64.3398H160.365C160.165 64.3398 160.003 64.5015 160.003 64.701V65.3408C160.003 65.5402 160.165 65.7019 160.365 65.7019H164.606C164.806 65.7019 164.968 65.5402 164.968 65.3408V64.701C164.968 64.5015 164.806 64.3398 164.606 64.3398Z" fill="#FFAC42"/>
<path d="M160.8 95.4614H152.494C151.803 95.4614 151.242 96.0204 151.242 96.71V100.858C151.242 101.548 151.803 102.107 152.494 102.107H160.8C161.491 102.107 162.052 101.548 162.052 100.858V96.71C162.052 96.0204 161.491 95.4614 160.8 95.4614Z" fill="#514260"/>
<path d="M176.584 97.9585H161.255C160.563 97.9585 160.003 98.5175 160.003 99.2071V100.569C160.003 101.259 160.563 101.818 161.255 101.818H176.584C177.276 101.818 177.836 101.259 177.836 100.569V99.2071C177.836 98.5175 177.276 97.9585 176.584 97.9585Z" fill="#3C4A58"/>
<path d="M150.28 116.966C150.141 116.965 150.005 116.933 149.88 116.875C149.755 116.816 149.645 116.731 149.556 116.626C149.479 116.531 149.421 116.422 149.387 116.306C149.353 116.189 149.342 116.066 149.355 115.945C149.369 115.824 149.406 115.707 149.465 115.601C149.525 115.494 149.605 115.401 149.7 115.325L162.475 105.007C162.573 104.93 162.685 104.873 162.805 104.84C162.924 104.807 163.05 104.797 163.173 104.812C163.296 104.827 163.416 104.866 163.524 104.927C163.632 104.987 163.728 105.069 163.804 105.167C163.881 105.264 163.938 105.376 163.971 105.495C164.005 105.615 164.014 105.74 163.999 105.863C163.985 105.986 163.946 106.105 163.885 106.213C163.824 106.321 163.742 106.416 163.644 106.493L150.869 116.811C150.694 116.925 150.488 116.979 150.28 116.966Z" fill="#F19B2C"/>
<path d="M176.916 116.966C176.705 116.966 176.5 116.893 176.336 116.76L163.551 106.441C163.362 106.286 163.241 106.062 163.216 105.818C163.191 105.575 163.263 105.331 163.417 105.141C163.571 104.952 163.793 104.832 164.035 104.807C164.278 104.782 164.52 104.854 164.71 105.007L177.495 115.325C177.64 115.447 177.745 115.61 177.795 115.792C177.845 115.974 177.838 116.168 177.775 116.346C177.712 116.525 177.596 116.68 177.443 116.79C177.289 116.901 177.105 116.962 176.916 116.966Z" fill="#F19B2C"/>
<path d="M149.36 102.819H143.919C143.41 102.819 142.998 103.23 142.998 103.737V116.914C142.998 117.422 143.41 117.833 143.919 117.833H149.36C149.868 117.833 150.28 117.422 150.28 116.914V103.737C150.28 103.23 149.868 102.819 149.36 102.819Z" fill="#F19B2C"/>
<path d="M182.646 102.819H177.205C176.696 102.819 176.284 103.23 176.284 103.737V116.914C176.284 117.422 176.696 117.833 177.205 117.833H182.646C183.154 117.833 183.566 117.422 183.566 116.914V103.737C183.566 103.23 183.154 102.819 182.646 102.819Z" fill="#F19B2C"/>
<path d="M185.812 100.477H140.795C140.286 100.477 139.874 100.888 139.874 101.395V104.852C139.874 105.359 140.286 105.77 140.795 105.77H185.812C186.32 105.77 186.732 105.359 186.732 104.852V101.395C186.732 100.888 186.32 100.477 185.812 100.477Z" fill="#F7B23F"/>
<path d="M150.28 109.464H142.998V111.435H150.28V109.464Z" fill="#F7B23F"/>
<path d="M150.28 114.066H142.998V116.048H150.28V114.066Z" fill="#F7B23F"/>
<path d="M183.566 109.464H176.284V111.435H183.566V109.464Z" fill="#F7B23F"/>
<path d="M183.566 114.066H176.284V116.048H183.566V114.066Z" fill="#F7B23F"/>
<path d="M186.732 101.395H139.874V102.819H186.732V101.395Z" fill="#F19B2C"/>
<path d="M150.714 117.275C150.714 117.275 167.44 112.952 179.181 115.862C186.597 117.688 185.449 117.802 190.021 117.719C190.021 117.719 178.787 123.312 159.651 118.452C159.651 118.452 155.555 117.884 150.714 117.275Z" fill="#514260"/>
<path d="M134.847 117.678C134.847 117.678 141.125 114.252 147.125 114.975C151.935 115.563 168.847 120.856 176.233 117.678C176.233 117.678 172.675 124.726 145.956 118.772C145.956 118.813 143.505 116.006 134.847 117.678Z" fill="#2C3A48"/>
<path d="M160.324 118.297C160.324 118.442 155.421 120.258 149.153 119.247C142.884 118.235 137.95 118.339 137.971 118.483C137.971 118.215 143.039 115.79 149.142 117.534C155.245 119.278 160.303 118.566 160.324 118.297Z" fill="#5C6A78"/>
<path d="M188.521 118.369C188.521 118.576 183.008 121.279 175.953 119.762C168.899 118.246 163.344 118.369 163.355 118.576C163.355 118.173 169.054 114.551 175.933 117.183C182.812 119.814 188.47 118.772 188.521 118.369Z" fill="#2C3A48"/>
<path d="M60.484 141.845H41.3477V147.025H60.484V141.845Z" fill="#3C4A58"/>
<path d="M75.1415 162.131C75.1401 162.469 75.0722 162.803 74.9415 163.114C74.8108 163.425 74.6199 163.708 74.3798 163.945C74.1397 164.183 73.855 164.371 73.542 164.499C73.2289 164.627 72.8937 164.692 72.5555 164.69H29.3487C29.0105 164.692 28.6753 164.627 28.3622 164.499C28.0492 164.371 27.7645 164.183 27.5244 163.945C27.2843 163.708 27.0934 163.425 26.9627 163.114C26.832 162.803 26.7641 162.469 26.7627 162.131V160.181C26.7641 159.844 26.832 159.51 26.9627 159.199C27.0934 158.887 27.2843 158.605 27.5244 158.367C27.7645 158.13 28.0492 157.942 28.3622 157.814C28.6753 157.686 29.0105 157.621 29.3487 157.622H72.5555C72.8937 157.621 73.2289 157.686 73.542 157.814C73.855 157.942 74.1397 158.13 74.3798 158.367C74.6199 158.605 74.8108 158.887 74.9415 159.199C75.0722 159.51 75.1401 159.844 75.1415 160.181V162.131Z" fill="#2C3A48"/>
<path d="M68.8826 163.679C68.5607 163.841 68.21 163.937 67.8507 163.963C67.4913 163.99 67.1303 163.945 66.7883 163.832C66.4462 163.719 66.1299 163.539 65.8574 163.304C65.5849 163.069 65.3615 162.783 65.2001 162.461L59.273 150.698C58.9452 150.051 58.8886 149.3 59.1156 148.611C59.3425 147.922 59.8345 147.352 60.4832 147.024L65.2311 144.641C65.553 144.479 65.9037 144.383 66.263 144.356C66.6224 144.33 66.9834 144.375 67.3254 144.488C67.6674 144.601 67.9838 144.78 68.2563 145.015C68.5288 145.251 68.7521 145.537 68.9136 145.858L74.851 157.622C75.1768 158.268 75.2334 159.017 75.0087 159.705C74.784 160.393 74.2961 160.964 73.6511 161.295L68.8826 163.679Z" fill="#2C3A48"/>
<path d="M60.9075 120.609V137.924C60.9089 138.422 60.8113 138.916 60.6204 139.377C60.4294 139.838 60.1489 140.256 59.795 140.608C59.4412 140.96 59.0209 141.239 58.5585 141.428C58.0961 141.617 57.6007 141.713 57.1009 141.711H45.4122C44.9107 141.716 44.4131 141.622 43.9483 141.434C43.4835 141.246 43.0608 140.968 42.7047 140.616C42.3487 140.263 42.0663 139.844 41.8741 139.382C41.6818 138.92 41.5836 138.424 41.585 137.924V120.609C41.5877 119.609 41.9878 118.651 42.6975 117.945C43.4072 117.239 44.3686 116.842 45.3709 116.842H57.1009C57.599 116.84 58.0927 116.935 58.5537 117.123C59.0148 117.311 59.4341 117.588 59.7877 117.938C60.1413 118.287 60.4222 118.703 60.6144 119.162C60.8066 119.62 60.9062 120.112 60.9075 120.609Z" fill="#FBD099"/>
<path d="M33.0205 163.679C33.3424 163.841 33.693 163.937 34.0524 163.963C34.4117 163.99 34.7727 163.945 35.1148 163.832C35.4568 163.719 35.7731 163.539 36.0456 163.304C36.3181 163.069 36.5415 162.783 36.7029 162.461L42.6197 150.698C42.7816 150.377 42.8785 150.027 42.9048 149.669C42.9311 149.31 42.8862 148.95 42.7729 148.609C42.6595 148.268 42.4798 147.952 42.2441 147.68C42.0084 147.408 41.7212 147.185 41.3991 147.024L36.6512 144.641C36.3293 144.479 35.9787 144.383 35.6193 144.356C35.26 144.33 34.8989 144.375 34.5569 144.488C34.2149 144.601 33.8986 144.78 33.6261 145.015C33.3536 145.251 33.1302 145.537 32.9688 145.858L27.1037 157.622C26.94 157.942 26.8415 158.291 26.8138 158.65C26.786 159.008 26.8297 159.368 26.9422 159.71C27.0547 160.051 27.2338 160.367 27.4692 160.639C27.7047 160.912 27.9918 161.134 28.314 161.295L33.0205 163.679Z" fill="#2C3A48"/>
<path d="M62.4799 116.068V128.213C62.4859 128.693 62.3623 129.166 62.1221 129.582C61.8818 129.997 61.5338 130.341 61.1145 130.576C57.8147 126.449 59.6042 123.817 59.8732 123.456L55.2701 126.552L56.3045 122.146C53.9978 128.162 46.0019 130.06 41.2023 130.679C40.7293 130.464 40.329 130.116 40.05 129.679C39.7709 129.241 39.625 128.732 39.63 128.213V116.068C39.63 115.708 39.7012 115.352 39.8396 115.019C39.9781 114.687 40.1809 114.385 40.4365 114.131C40.6922 113.877 40.9956 113.676 41.3293 113.539C41.6631 113.402 42.0207 113.332 42.3815 113.334H59.7387C60.0991 113.332 60.4561 113.402 60.7893 113.539C61.1225 113.676 61.4252 113.877 61.68 114.131C61.9349 114.386 62.1367 114.688 62.274 115.02C62.4113 115.352 62.4812 115.709 62.4799 116.068Z" fill="#7D4C2E"/>
<path d="M60.9806 143.63C61.0222 143.767 61.0431 143.91 61.0427 144.053V162.534C61.0399 162.915 60.8862 163.28 60.6149 163.549C60.3436 163.817 59.9768 163.968 59.5945 163.968H42.62C42.4304 163.97 42.2423 163.934 42.0666 163.862C41.891 163.791 41.7313 163.685 41.5967 163.552C41.462 163.418 41.3552 163.26 41.2823 163.085C41.2094 162.911 41.1719 162.723 41.1719 162.534V144.053C41.1714 143.91 41.1923 143.767 41.2339 143.63H60.9806Z" fill="#F2F2F2"/>
<path d="M66.4106 164.608L67.5898 146.364C67.5898 145.639 67.301 144.944 66.7869 144.431C66.2729 143.918 65.5756 143.63 64.8486 143.63H36.413C35.686 143.63 34.9888 143.918 34.4747 144.431C33.9607 144.944 33.6719 145.639 33.6719 146.364L34.8614 164.608H66.4106Z" fill="#2C3A48"/>
<path d="M55.5085 146.788C55.5058 147.169 55.352 147.534 55.0807 147.802C54.8094 148.071 54.4426 148.222 54.0603 148.222H48.2884C47.9071 148.222 47.5414 148.071 47.2717 147.802C47.0021 147.533 46.8506 147.168 46.8506 146.788V140.483C46.8506 140.101 47.0017 139.735 47.2711 139.465C47.5404 139.194 47.9061 139.041 48.2884 139.038H54.0603C54.4444 139.038 54.8128 139.19 55.0843 139.461C55.3559 139.732 55.5085 140.1 55.5085 140.483V146.788Z" fill="#FBD099"/>
<path d="M64.0003 120.175C64.0003 112.735 58.0525 106.204 50.6669 106.204C43.2813 106.204 37.2197 112.766 37.2197 120.217H37.3025V120.887C37.3025 121.114 37.3929 121.332 37.5539 121.493C37.715 121.654 37.9333 121.744 38.161 121.744H63.1521C63.3798 121.744 63.5982 121.654 63.7592 121.493C63.9202 121.332 64.0106 121.114 64.0106 120.887V120.186L64.0003 120.175Z" fill="#FFAC42"/>
<path d="M58.3967 108.818L53.102 114.087C52.7663 114.421 52.7656 114.963 53.1005 115.298L53.7799 115.977C54.1148 116.312 54.6584 116.313 54.9941 115.979L60.2888 110.71C60.6244 110.376 60.6251 109.833 60.2902 109.498L59.6108 108.819C59.276 108.484 58.7324 108.484 58.3967 108.818Z" fill="#FFAC42"/>
<path d="M61.0419 119.061C61.0419 119.189 60.9907 119.313 60.8995 119.404C60.8083 119.495 60.6847 119.546 60.5557 119.546H40.3436C40.2146 119.546 40.091 119.495 39.9998 119.404C39.9086 119.313 39.8574 119.189 39.8574 119.061C39.8574 118.932 39.9086 118.809 39.9998 118.718C40.091 118.627 40.2146 118.576 40.3436 118.576H60.5557C60.6847 118.576 60.8083 118.627 60.8995 118.718C60.9907 118.809 61.0419 118.932 61.0419 119.061Z" fill="#FFAC42"/>
<path d="M50.885 105.563H49.923C49.4488 105.563 49.0645 105.947 49.0645 106.42V113.88C49.0645 114.353 49.4488 114.737 49.923 114.737H50.885C51.3592 114.737 51.7435 114.353 51.7435 113.88V106.42C51.7435 105.947 51.3592 105.563 50.885 105.563Z" fill="#FFAC42"/>
<path d="M47.8946 114.087C48.0544 114.247 48.1441 114.464 48.1441 114.69C48.1441 114.917 48.0544 115.134 47.8946 115.294L47.2119 115.975C47.0511 116.135 46.8335 116.224 46.6068 116.224C46.3801 116.224 46.1625 116.135 46.0017 115.975L40.7056 110.692C40.5457 110.531 40.4561 110.314 40.4561 110.088C40.4561 109.862 40.5457 109.645 40.7056 109.485L41.3883 108.804C41.5491 108.644 41.7666 108.555 41.9934 108.555C42.2201 108.555 42.4377 108.644 42.5985 108.804L47.8946 114.087Z" fill="#FFAC42"/>
<path d="M47.8955 115.305L47.43 115.748L40.9443 109.258L41.3891 108.814C41.4681 108.734 41.5623 108.67 41.6661 108.627C41.77 108.583 41.8816 108.561 41.9943 108.561C42.1069 108.561 42.2185 108.583 42.3224 108.627C42.4262 108.67 42.5204 108.734 42.5994 108.814L47.8955 114.087C47.9762 114.167 48.0402 114.262 48.084 114.366C48.1277 114.471 48.1502 114.583 48.1502 114.696C48.1502 114.809 48.1277 114.921 48.084 115.026C48.0402 115.13 47.9762 115.225 47.8955 115.305Z" fill="#F19B2C"/>
<path d="M51.0398 114.737H50.3984V105.564H51.0294C51.1426 105.562 51.2548 105.583 51.3596 105.626C51.4644 105.668 51.5596 105.732 51.6396 105.811C51.7196 105.891 51.7828 105.986 51.8254 106.091C51.8681 106.195 51.8894 106.307 51.888 106.42V113.88C51.8893 113.992 51.8684 114.104 51.8264 114.207C51.7844 114.311 51.7221 114.406 51.6432 114.485C51.5643 114.565 51.4704 114.628 51.3668 114.672C51.2632 114.715 51.152 114.737 51.0398 114.737Z" fill="#F19B2C"/>
<path d="M53.7915 115.965L53.3467 115.511L59.853 109.041L60.2978 109.485C60.3782 109.563 60.4421 109.657 60.4856 109.761C60.5292 109.865 60.5517 109.976 60.5517 110.088C60.5517 110.201 60.5292 110.312 60.4856 110.416C60.4421 110.519 60.3782 110.613 60.2978 110.692L55.0327 115.965C54.9551 116.053 54.8596 116.123 54.7526 116.171C54.6456 116.22 54.5295 116.244 54.4121 116.244C54.2947 116.244 54.1786 116.22 54.0716 116.171C53.9646 116.123 53.8691 116.053 53.7915 115.965Z" fill="#F19B2C"/>
<path d="M51.6915 150.708H49.1055V164.536H51.6915V150.708Z" fill="#3C4A58"/>
<path d="M39.1539 142.708L37.3882 146.713C37.0179 147.553 37.4003 148.533 38.2422 148.903L47.7488 153.074C48.5907 153.443 49.5734 153.062 49.9437 152.222L51.7094 148.217C52.0797 147.377 51.6973 146.396 50.8554 146.027L41.3488 141.856C40.5069 141.487 39.5242 141.868 39.1539 142.708Z" fill="#4D5A68"/>
<path d="M59.9187 141.85L50.4122 146.021C49.5702 146.39 49.1879 147.37 49.5582 148.21L51.3238 152.215C51.6941 153.055 52.6768 153.436 53.5188 153.067L63.0253 148.896C63.8673 148.527 64.2496 147.547 63.8793 146.707L62.1136 142.702C61.7434 141.862 60.7607 141.48 59.9187 141.85Z" fill="#4D5A68"/>
<path d="M65.5421 156.198H54.8154C54.3241 156.198 53.9258 156.596 53.9258 157.086V162.441C53.9258 162.931 54.3241 163.329 54.8154 163.329H65.5421C66.0334 163.329 66.4317 162.931 66.4317 162.441V157.086C66.4317 156.596 66.0334 156.198 65.5421 156.198Z" fill="#3C4A58"/>
<path d="M63.5977 157.746C63.5977 158.422 63.3966 159.083 63.02 159.645C62.6433 160.207 62.1079 160.644 61.4817 160.903C60.8555 161.161 60.1665 161.228 59.5021 161.095C58.8376 160.963 58.2276 160.636 57.7492 160.158C57.2707 159.679 56.9455 159.069 56.8145 158.406C56.6836 157.743 56.7529 157.056 57.0136 156.432C57.2743 155.808 57.7148 155.275 58.2792 154.901C58.8436 154.527 59.5066 154.329 60.1842 154.331C60.6333 154.331 61.0781 154.419 61.4929 154.591C61.9077 154.763 62.2845 155.014 62.6016 155.332C62.9187 155.649 63.1699 156.025 63.3409 156.44C63.5118 156.854 63.5991 157.298 63.5977 157.746Z" fill="#D9E5F2"/>
<path d="M61.415 158.427C61.415 159.386 60.8668 160.16 60.1841 160.16C59.5014 160.16 58.9531 159.386 58.9531 158.427C59.1889 157.334 59.6049 156.288 60.1841 155.331C60.7632 156.288 61.1792 157.334 61.415 158.427Z" fill="#2C3A48"/>
<path d="M61.0111 158.458C61.0111 158.778 60.8249 159.046 60.5974 159.046C60.3698 159.046 60.1836 158.778 60.1836 158.458C60.2645 158.094 60.4042 157.745 60.5974 157.426C60.7905 157.745 60.9302 158.094 61.0111 158.458Z" fill="white"/>
<path d="M54.6598 116.213C54.6598 116.32 54.6387 116.426 54.5976 116.525C54.5565 116.624 54.4963 116.713 54.4205 116.789C54.3446 116.865 54.2545 116.925 54.1553 116.966C54.0562 117.007 53.9499 117.028 53.8426 117.028H48.0603C47.953 117.028 47.8468 117.007 47.7476 116.966C47.6485 116.925 47.5584 116.865 47.4825 116.789C47.4066 116.713 47.3464 116.624 47.3054 116.525C47.2643 116.426 47.2432 116.32 47.2432 116.213C47.2432 115.996 47.3293 115.789 47.4825 115.636C47.6358 115.483 47.8436 115.397 48.0603 115.397H53.8426C54.0594 115.397 54.2672 115.483 54.4205 115.636C54.5737 115.789 54.6598 115.996 54.6598 116.213Z" fill="white"/>
<path d="M151.863 152.101C151.863 158.881 147.974 164.37 143.164 164.37C138.354 164.37 134.475 158.881 134.475 152.101C134.475 145.322 143.164 130.236 143.164 130.236C143.164 130.236 151.863 145.332 151.863 152.101Z" fill="#2C3A48"/>
<path d="M148.594 154.888C148.594 156.951 147.383 158.716 145.884 158.716C144.384 158.716 143.163 157.003 143.163 154.888C143.163 152.772 145.884 148.067 145.884 148.067C145.884 148.067 148.594 152.762 148.594 154.888Z" fill="#F5F5F5"/>
</g>
<defs>
<clipPath id="clip0">
<rect width="169" height="134" fill="white" transform="translate(24 31)"/>
</clipPath>
</defs>
</svg>
