<svg width="200" height="200" viewBox="0 0 200 200" fill="none" xmlns="http://www.w3.org/2000/svg">
<circle opacity="0.2" cx="100" cy="100" r="100" fill="#4B0731"/>
<circle cx="100" cy="100" r="90" fill="#936A83"/>
<mask id="mask0" mask-type="alpha" maskUnits="userSpaceOnUse" x="10" y="10" width="180" height="180">
<circle cx="100" cy="100" r="90" fill="#936A83"/>
</mask>
<g mask="url(#mask0)">
<path d="M162.552 70.6504C162.552 68.5169 161.328 66.7847 159.821 66.7847C158.314 66.7847 157.091 68.5169 157.091 70.6504C157.091 72.7838 159.821 77.5009 159.821 77.5009C159.821 77.5009 162.552 72.774 162.552 70.6504Z" fill="#514260"/>
<path d="M162.552 56.5385C162.552 54.4051 161.328 52.6729 159.821 52.6729C158.314 52.6729 157.091 54.4051 157.091 56.5385C157.091 58.672 159.821 63.3891 159.821 63.3891C159.821 63.3891 162.552 58.6622 162.552 56.5385Z" fill="#514260"/>
<path d="M162.552 42.3579C162.552 40.2244 161.328 38.4922 159.821 38.4922C158.314 38.4922 157.091 40.2244 157.091 42.4068C157.091 44.5892 159.821 49.2574 159.821 49.2574C159.821 49.2574 162.552 44.4913 162.552 42.3579Z" fill="#514260"/>
<path d="M148.928 60.8933C149.593 62.9191 153.665 66.5988 153.665 66.5988C153.665 66.5988 154.79 61.226 154.134 59.2002C153.479 57.1744 151.776 55.9119 150.337 56.3719C148.899 56.8319 148.272 58.8675 148.928 60.8933Z" fill="#514260"/>
<path d="M149.3 53.1815C149.3 53.1815 150.425 47.8086 149.769 45.7828C149.114 43.757 147.411 42.4848 145.972 42.9545C144.533 43.4243 143.907 45.4403 144.573 47.515C145.238 49.5898 149.3 53.1815 149.3 53.1815Z" fill="#514260"/>
<path d="M170.782 60.8934C171.437 58.8676 170.782 56.8417 169.372 56.372C167.963 55.9022 166.241 57.1745 165.585 59.2003C164.929 61.2261 166.055 66.5989 166.055 66.5989C166.055 66.5989 170.116 62.9192 170.782 60.8934Z" fill="#514260"/>
<path d="M175.136 47.515C175.801 45.4794 175.136 43.4633 173.737 42.9936C172.337 42.5238 170.605 43.7961 169.939 45.8219C169.274 47.8477 170.419 53.2205 170.419 53.2205C170.419 53.2205 174.48 49.4723 175.136 47.515Z" fill="#514260"/>
<path d="M190.198 139.332H175.714L171.682 110.824L171.555 109.943L169.705 96.8685L169.519 95.4984L167.846 83.7252H168.971C169.373 83.7252 169.759 83.5654 170.044 83.2809C170.328 82.9964 170.488 82.6106 170.488 82.2083V79.5072C170.489 79.3076 170.451 79.1098 170.375 78.9251C170.299 78.7405 170.188 78.5728 170.047 78.4317C169.905 78.2905 169.738 78.1789 169.553 78.1031C169.368 78.0273 169.171 77.989 168.971 77.9903H151.287C151.087 77.989 150.889 78.0273 150.705 78.1031C150.52 78.1789 150.352 78.2905 150.211 78.4317C150.07 78.5728 149.958 78.7405 149.883 78.9251C149.807 79.1098 149.769 79.3076 149.77 79.5072V82.1593C149.763 82.3626 149.798 82.5652 149.871 82.7549C149.944 82.9446 150.055 83.1177 150.196 83.2637C150.338 83.4098 150.507 83.5259 150.695 83.6052C150.882 83.6845 151.083 83.7253 151.287 83.7252H152.412L144.583 139.381H129.404C128.71 139.381 128.044 139.656 127.553 140.146C127.061 140.636 126.784 141.3 126.781 141.994V147.915C126.781 148.259 126.849 148.6 126.981 148.917C127.113 149.235 127.306 149.524 127.55 149.766C127.794 150.009 128.083 150.201 128.401 150.332C128.719 150.463 129.06 150.53 129.404 150.528H190.198C190.542 150.53 190.882 150.463 191.2 150.332C191.517 150.201 191.806 150.009 192.049 149.766C192.292 149.523 192.484 149.234 192.615 148.917C192.746 148.599 192.812 148.259 192.811 147.915V141.994C192.818 141.647 192.755 141.302 192.626 140.979C192.498 140.657 192.307 140.363 192.063 140.115C191.82 139.867 191.53 139.67 191.209 139.536C190.889 139.402 190.545 139.332 190.198 139.332ZM150.925 120.395L158.568 116.999V125.122L150.739 121.629L150.915 120.395H150.925ZM152.324 110.452L158.568 107.663V113.76L152.265 110.942L152.324 110.452ZM153.195 104.345L154.066 103.954L158.216 105.804L152.637 108.309L153.195 104.345ZM169.509 121.629L161.68 125.132V117.156L169.372 120.591L169.509 121.629ZM161.68 107.35L167.885 110.149L167.973 110.795L161.67 113.613L161.68 107.35ZM167.063 104.228L167.591 107.976L162.698 105.804L166.613 104.042L167.063 104.228ZM161.68 104.228V101.83L164.401 103.044L161.68 104.228ZM158.578 103.925L156.327 102.946L158.578 101.967V103.925ZM150.494 123.498L157.902 126.786L149.506 130.534L150.494 123.498ZM169.783 123.498L170.762 130.554L162.375 126.786L169.783 123.498ZM169.069 118.428L162.218 115.346L168.286 112.635L169.069 118.428ZM166.71 101.987H166.613L162.473 100.137L166.221 98.4637L166.71 101.987ZM161.651 98.542V97.1817H164.753L161.651 98.542ZM158.568 98.405L155.769 97.1523H158.568V98.405ZM158 100.157L154.086 101.909L153.587 101.684L153.988 98.405L158 100.157ZM157.677 115.336L151.228 118.272L151.991 112.85L157.677 115.336ZM158.568 128.499V132.413H149.868L158.568 128.499ZM161.67 128.499L170.39 132.413H161.67V128.499ZM165.79 95.332H161.67V83.7252H164.146L165.79 95.332ZM158.568 83.7252V95.3516H154.467L156.112 83.7252H158.568ZM148.967 134.292H158.568V139.381H148.253L148.967 134.292ZM161.69 139.381V134.292H171.31L172.024 139.381H161.69Z" fill="#514260"/>
<path d="M126.321 58.4855C126.321 63.046 123.698 66.7356 120.449 66.7356C117.2 66.7356 114.577 63.046 114.577 58.4855C114.577 53.925 120.449 43.8057 120.449 43.8057C120.449 43.8057 126.321 53.925 126.321 58.4855Z" fill="#514260"/>
<path d="M79.9234 132.658H47.0014C45.3757 132.655 43.8174 132.008 42.6688 130.857C41.5202 129.707 40.875 128.147 40.875 126.522V124.124C40.8737 123.318 41.0312 122.52 41.3384 121.775C41.6455 121.03 42.0964 120.353 42.6653 119.782C43.2342 119.211 43.9099 118.758 44.6539 118.449C45.3979 118.139 46.1956 117.979 47.0014 117.978H79.9234C81.5491 117.981 83.1073 118.628 84.256 119.779C85.4046 120.929 86.0497 122.488 86.0497 124.114V126.492C86.0536 127.3 85.8981 128.1 85.592 128.847C85.286 129.595 84.8355 130.274 84.2664 130.847C83.6972 131.42 83.0206 131.874 82.2754 132.185C81.5301 132.496 80.7308 132.657 79.9234 132.658ZM47.0014 120.033C45.9165 120.033 44.8759 120.464 44.1088 121.231C43.3416 121.999 42.9106 123.039 42.9106 124.124V126.492C42.9106 127.577 43.3416 128.618 44.1088 129.385C44.8759 130.152 45.9165 130.583 47.0014 130.583H79.9234C81.0066 130.581 82.0446 130.148 82.8096 129.382C83.5747 128.615 84.0043 127.576 84.0043 126.492V124.124C84.0043 123.041 83.5747 122.002 82.8096 121.235C82.0446 120.468 81.0066 120.036 79.9234 120.033H47.0014Z" fill="#C5D3E1"/>
<path d="M69.1097 109.503V134.674C69.1097 135.805 68.6601 136.891 67.8599 137.691C67.0597 138.491 65.9744 138.941 64.8428 138.941H53.598C52.4654 138.941 51.3791 138.491 50.5774 137.692C49.7756 136.892 49.3239 135.806 49.3213 134.674V109.503C49.329 108.374 49.783 107.293 50.5842 106.498C51.3855 105.702 52.4688 105.255 53.598 105.255H64.8428C65.2002 105.255 65.556 105.304 65.8997 105.402C66.8132 105.634 67.6239 106.162 68.2048 106.904C68.7857 107.646 69.104 108.56 69.1097 109.503Z" fill="#D6741D"/>
<path d="M53.5476 141.917C53.5451 142.206 53.4284 142.482 53.2232 142.685C53.0179 142.889 52.7406 143.003 52.4515 143.003C52.1634 143.003 51.8871 142.888 51.6834 142.685C51.4797 142.481 51.3652 142.205 51.3652 141.917V136.573C51.3652 136.284 51.4794 136.007 51.6828 135.802C51.8863 135.596 52.1625 135.48 52.4515 135.477C52.5955 135.477 52.738 135.505 52.871 135.56C53.004 135.616 53.1248 135.696 53.2266 135.798C53.3284 135.9 53.4091 136.021 53.4642 136.154C53.5193 136.287 53.5476 136.429 53.5476 136.573V141.917Z" fill="#7C8A98"/>
<path d="M67.1121 141.917C67.1121 142.205 66.9977 142.481 66.794 142.685C66.5902 142.888 66.3139 143.003 66.0258 143.003C65.8823 143.004 65.74 142.977 65.6071 142.923C65.4742 142.869 65.3533 142.789 65.2514 142.688C65.1494 142.587 65.0686 142.467 65.0133 142.335C64.9581 142.202 64.9297 142.06 64.9297 141.917V136.573C64.9284 136.43 64.9556 136.287 65.0096 136.154C65.0636 136.022 65.1434 135.901 65.2444 135.799C65.3454 135.697 65.4656 135.616 65.5981 135.561C65.7305 135.505 65.8726 135.477 66.016 135.477C66.16 135.477 66.3025 135.505 66.4355 135.56C66.5685 135.616 66.6893 135.696 66.7911 135.798C66.8929 135.9 66.9736 136.021 67.0287 136.154C67.0838 136.287 67.1121 136.429 67.1121 136.573V141.917Z" fill="#7C8A98"/>
<path d="M70.7329 135.526C70.7329 135.785 70.6297 136.034 70.4462 136.218C70.2627 136.401 70.0138 136.504 69.7542 136.504H48.674C48.4144 136.504 48.1655 136.401 47.982 136.218C47.7984 136.034 47.6953 135.785 47.6953 135.526C47.6953 135.266 47.7984 135.017 47.982 134.834C48.1655 134.65 48.4144 134.547 48.674 134.547H69.7542C69.8827 134.547 70.01 134.572 70.1287 134.621C70.2474 134.671 70.3553 134.743 70.4462 134.834C70.5371 134.924 70.6092 135.032 70.6584 135.151C70.7075 135.27 70.7329 135.397 70.7329 135.526Z" fill="#7C8A98"/>
<path d="M66.0267 106.44V128.264C66.0267 128.858 65.9094 129.447 65.6816 129.996C65.4537 130.545 65.1198 131.044 64.6989 131.464C64.278 131.884 63.7784 132.217 63.2288 132.444C62.6791 132.67 62.0901 132.786 61.4955 132.785C60.9005 132.788 60.311 132.672 59.7607 132.446C59.2104 132.22 58.7103 131.887 58.2892 131.467C57.868 131.047 57.5342 130.547 57.3068 129.998C57.0794 129.448 56.963 128.859 56.9643 128.264V106.44C56.954 106.04 57.0001 105.642 57.1013 105.255H64.8033C65.1608 105.255 65.5166 105.304 65.8603 105.402C65.9579 105.74 66.0138 106.088 66.0267 106.44Z" fill="#F19B2C"/>
<path d="M70.7329 110.149C70.7329 110.408 70.6297 110.657 70.4462 110.841C70.2627 111.024 70.0138 111.127 69.7542 111.127H48.674C48.4144 111.127 48.1655 111.024 47.982 110.841C47.7984 110.657 47.6953 110.408 47.6953 110.149C47.6953 109.889 47.7984 109.64 47.982 109.457C48.1655 109.273 48.4144 109.17 48.674 109.17H69.7542C69.8827 109.17 70.01 109.195 70.1287 109.244C70.2474 109.294 70.3553 109.366 70.4462 109.457C70.5371 109.547 70.6092 109.655 70.6584 109.774C70.7075 109.893 70.7329 110.02 70.7329 110.149Z" fill="#7C8A98"/>
<path d="M72.4739 112.155H64.3217C62.696 112.153 61.1377 111.505 59.9891 110.355C58.8405 109.204 58.1953 107.645 58.1953 106.019V92.9443C58.1953 91.3194 58.8408 89.7612 59.9897 88.6122C61.1386 87.4633 62.6969 86.8179 64.3217 86.8179H72.4739C72.7438 86.8179 73.0027 86.9251 73.1936 87.116C73.3845 87.3069 73.4917 87.5657 73.4917 87.8357C73.4917 88.1056 73.3845 88.3645 73.1936 88.5554C73.0027 88.7462 72.7438 88.8535 72.4739 88.8535H64.3217C63.2385 88.8561 62.2005 89.2882 61.4354 90.0551C60.6703 90.822 60.2407 91.861 60.2407 92.9443V106.019C60.2355 106.559 60.3372 107.094 60.5399 107.594C60.7425 108.095 61.0422 108.55 61.4215 108.934C61.8008 109.317 62.2524 109.622 62.7501 109.831C63.2479 110.04 63.782 110.148 64.3217 110.149H72.4739C72.7451 110.149 73.0053 110.257 73.1971 110.449C73.3888 110.64 73.4966 110.9 73.4966 111.172C73.4966 111.443 73.3888 111.703 73.1971 111.895C73.0053 112.087 72.7451 112.194 72.4739 112.194V112.155Z" fill="#C5D3E1"/>
<path d="M129.141 98.5226H123.269C122.998 98.5226 122.737 98.4149 122.546 98.2231C122.354 98.0313 122.246 97.7712 122.246 97.4999C122.246 97.2287 122.354 96.9686 122.546 96.7768C122.737 96.585 122.998 96.4772 123.269 96.4772H129.141C130.226 96.4772 131.266 96.0462 132.033 95.2791C132.801 94.5119 133.231 93.4714 133.231 92.3865V91.7895C133.229 90.7062 132.797 89.6682 132.03 88.9032C131.263 88.1381 130.224 87.7085 129.141 87.7085H123.269C122.998 87.7085 122.737 87.6007 122.546 87.4089C122.354 87.2171 122.246 86.957 122.246 86.6858C122.246 86.4145 122.354 86.1544 122.546 85.9626C122.737 85.7708 122.998 85.6631 123.269 85.6631H129.141C130.765 85.6657 132.322 86.312 133.47 87.4603C134.618 88.6087 135.265 90.1655 135.267 91.7895V92.3865C135.267 94.0122 134.622 95.5715 133.473 96.7219C132.325 97.8724 130.766 98.52 129.141 98.5226Z" fill="#C5D3E1"/>
<path d="M126.379 120.669H123.277C123.005 120.669 122.745 120.562 122.553 120.37C122.362 120.178 122.254 119.918 122.254 119.647C122.254 119.376 122.362 119.115 122.553 118.924C122.745 118.732 123.005 118.624 123.277 118.624H126.379C126.824 118.621 127.249 118.443 127.563 118.128C127.876 117.812 128.052 117.386 128.052 116.941V116.628C128.05 116.185 127.873 115.76 127.559 115.447C127.246 115.134 126.822 114.957 126.379 114.954H123.277C123.005 114.954 122.745 114.846 122.553 114.655C122.362 114.463 122.254 114.203 122.254 113.931C122.254 113.66 122.362 113.4 122.553 113.208C122.745 113.016 123.005 112.909 123.277 112.909H126.379C127.365 112.909 128.311 113.3 129.009 113.998C129.706 114.695 130.098 115.641 130.098 116.628V116.941C130.098 117.928 129.706 118.875 129.009 119.574C128.312 120.273 127.366 120.667 126.379 120.669Z" fill="#C5D3E1"/>
<path d="M126.379 129.184H123.277C123.005 129.184 122.745 129.076 122.553 128.885C122.362 128.693 122.254 128.433 122.254 128.161C122.254 127.89 122.362 127.63 122.553 127.438C122.745 127.246 123.005 127.139 123.277 127.139H126.379C126.823 127.139 127.248 126.962 127.562 126.649C127.876 126.335 128.052 125.909 128.052 125.465V125.152C128.052 124.707 127.876 124.281 127.563 123.965C127.249 123.65 126.824 123.471 126.379 123.469H123.277C123.007 123.469 122.748 123.361 122.557 123.171C122.366 122.98 122.259 122.721 122.259 122.451C122.259 122.181 122.366 121.922 122.557 121.731C122.748 121.54 123.007 121.433 123.277 121.433H126.379C127.365 121.433 128.311 121.825 129.009 122.522C129.706 123.22 130.098 124.166 130.098 125.152V125.465C130.098 126.451 129.706 127.397 129.009 128.095C128.311 128.792 127.365 129.184 126.379 129.184Z" fill="#C5D3E1"/>
<path d="M126.379 137.709H123.277C123.005 137.709 122.745 137.601 122.553 137.409C122.362 137.217 122.254 136.957 122.254 136.686C122.254 136.415 122.362 136.154 122.553 135.963C122.745 135.771 123.005 135.663 123.277 135.663H126.379C126.822 135.661 127.246 135.483 127.559 135.17C127.873 134.857 128.05 134.433 128.052 133.99V133.637C128.05 133.194 127.873 132.77 127.559 132.457C127.246 132.144 126.822 131.966 126.379 131.964H123.277C123.005 131.964 122.745 131.856 122.553 131.664C122.362 131.473 122.254 131.212 122.254 130.941C122.254 130.67 122.362 130.41 122.553 130.218C122.745 130.026 123.005 129.918 123.277 129.918H126.379C127.364 129.921 128.309 130.314 129.006 131.011C129.703 131.707 130.095 132.652 130.098 133.637V133.96C130.1 134.451 130.006 134.937 129.821 135.391C129.635 135.845 129.362 136.258 129.016 136.606C128.671 136.954 128.26 137.231 127.807 137.42C127.355 137.609 126.869 137.707 126.379 137.709Z" fill="#C5D3E1"/>
<path d="M107.991 141.339C107.991 142.445 101.924 143.424 100.808 143.424H95.4059C94.2805 143.424 88.2617 142.514 88.2617 141.379L88.6238 136.113L89.0642 130.016L89.7786 119.819L90.2092 113.79L90.9237 103.632L91.3543 97.5055L92.0785 87.3568L92.5091 81.25L93.3703 69.1147C93.3729 68.5765 93.5885 68.0613 93.97 67.6816C94.3514 67.302 94.8677 67.0889 95.4059 67.0889H100.808C101.348 67.0889 101.866 67.3033 102.247 67.6851C102.629 68.0668 102.844 68.5846 102.844 69.1245L103.705 81.2598L104.136 87.3666L104.87 97.5153L105.29 103.602L106.034 113.741L106.465 119.838L107.179 129.977L107.62 136.074L107.991 141.339Z" fill="#F19B2C"/>
<path d="M104.135 87.3558H92.0781L92.5087 81.2588H103.714L104.135 87.3558Z" fill="#F7B23F"/>
<path d="M105.29 103.592H90.9229L91.3535 97.5049H104.869L105.29 103.592Z" fill="#F7B23F"/>
<path d="M106.435 119.838H90.3754C90.162 119.838 89.949 119.818 89.7393 119.779L90.1699 113.75H106.034L106.435 119.838Z" fill="#F7B23F"/>
<path d="M107.59 136.073H88.624L89.0644 129.976H107.15L107.59 136.073Z" fill="#F7B23F"/>
<path d="M115.899 82.3843C115.766 82.3845 115.635 82.3576 115.513 82.3054C115.391 82.2532 115.281 82.1767 115.189 82.0806C115.098 81.9844 115.027 81.8707 114.98 81.7463C114.934 81.6218 114.914 81.4893 114.92 81.3567V78.4697C114.92 77.3847 114.489 76.3442 113.722 75.577C112.955 74.8099 111.915 74.3789 110.83 74.3789H85.688C85.1483 74.375 84.6132 74.478 84.1135 74.6818C83.6138 74.8857 83.1593 75.1864 82.7764 75.5666C82.3934 75.9469 82.0894 76.3991 81.882 76.8974C81.6746 77.3956 81.5678 77.93 81.5678 78.4697V81.3567C81.5678 81.6266 81.4606 81.8855 81.2697 82.0764C81.0788 82.2673 80.82 82.3745 80.55 82.3745C80.2801 82.3745 80.0212 82.2673 79.8303 82.0764C79.6395 81.8855 79.5322 81.6266 79.5322 81.3567V78.4697C79.5322 76.8439 80.1774 75.2847 81.326 74.1342C82.4747 72.9837 84.0329 72.3361 85.6586 72.3335H110.761C112.387 72.3361 113.945 72.9837 115.094 74.1342C116.242 75.2847 116.887 76.8439 116.887 78.4697V81.3567C116.894 81.4901 116.873 81.6235 116.827 81.7486C116.78 81.8737 116.708 81.9879 116.615 82.0841C116.523 82.1804 116.411 82.2567 116.288 82.3083C116.165 82.3599 116.033 82.3858 115.899 82.3843Z" fill="#C5D3E1"/>
<path d="M98.3815 45.0884C98.6946 45.0884 102.668 49.326 100.339 54.7966C98.0096 60.2673 98.2053 64.5832 98.5185 64.5245C97.9215 64.5245 92.6466 60.1499 96.5612 54.826C100.476 49.5021 98.9882 45.0982 98.3815 45.0884Z" fill="#7C8A98"/>
<path d="M92.5291 86.4655V138.07C92.5291 139.422 91.9935 140.718 91.0397 141.675C90.0859 142.633 88.7915 143.173 87.4401 143.179H77.6535C76.2986 143.179 74.9992 142.64 74.0412 141.682C73.0832 140.724 72.5449 139.425 72.5449 138.07V86.4655C72.5436 85.7943 72.6749 85.1294 72.9312 84.509C73.1874 83.8886 73.5637 83.325 74.0383 82.8503C74.513 82.3757 75.0766 81.9995 75.697 81.7432C76.3174 81.4869 76.9823 81.3557 77.6535 81.3569H87.4401C88.79 81.3672 90.0813 81.9094 91.0341 82.8658C91.9868 83.8221 92.524 85.1156 92.5291 86.4655Z" fill="#8C9AA8"/>
<path d="M89.7295 81.9148V134.361C89.7582 134.98 89.661 135.598 89.444 136.178C89.227 136.758 88.8946 137.288 88.4669 137.735C88.0393 138.183 87.5252 138.54 86.9558 138.783C86.3865 139.027 85.7736 139.153 85.1543 139.153C84.535 139.153 83.9222 139.027 83.3528 138.783C82.7834 138.54 82.2694 138.183 81.8417 137.735C81.414 137.288 81.0817 136.758 80.8646 136.178C80.6476 135.598 80.5505 134.98 80.5791 134.361V81.3569H87.4297C88.2295 81.3596 89.0174 81.5507 89.7295 81.9148Z" fill="#9CAAB8"/>
<path d="M94.1235 90.8497C94.1235 91.1093 94.0204 91.3582 93.8368 91.5418C93.6533 91.7253 93.4044 91.8284 93.1448 91.8284H72.0646C71.805 91.8284 71.5561 91.7253 71.3726 91.5418C71.189 91.3582 71.0859 91.1093 71.0859 90.8497C71.0859 90.5902 71.189 90.3413 71.3726 90.1577C71.5561 89.9742 71.805 89.8711 72.0646 89.8711H93.1448C93.4044 89.8711 93.6533 89.9742 93.8368 90.1577C94.0204 90.3413 94.1235 90.5902 94.1235 90.8497Z" fill="#9CAAB8"/>
<path d="M94.1235 102.898C94.1235 103.157 94.0204 103.406 93.8368 103.59C93.6533 103.773 93.4044 103.876 93.1448 103.876H72.0646C71.805 103.876 71.5561 103.773 71.3726 103.59C71.189 103.406 71.0859 103.157 71.0859 102.898C71.0859 102.638 71.189 102.389 71.3726 102.206C71.5561 102.022 71.805 101.919 72.0646 101.919H93.1448C93.4044 101.919 93.6533 102.022 93.8368 102.206C94.0204 102.389 94.1235 102.638 94.1235 102.898Z" fill="#9CAAB8"/>
<path d="M94.1235 114.954C94.1235 115.214 94.0204 115.463 93.8368 115.646C93.6533 115.83 93.4044 115.933 93.1448 115.933H72.0646C71.805 115.933 71.5561 115.83 71.3726 115.646C71.189 115.463 71.0859 115.214 71.0859 114.954C71.0859 114.695 71.189 114.446 71.3726 114.262C71.5561 114.079 71.805 113.976 72.0646 113.976H93.1448C93.4044 113.976 93.6533 114.079 93.8368 114.262C94.0204 114.446 94.1235 114.695 94.1235 114.954Z" fill="#9CAAB8"/>
<path d="M94.1235 127.002C94.1235 127.262 94.0204 127.511 93.8368 127.694C93.6533 127.878 93.4044 127.981 93.1448 127.981H72.0646C71.805 127.981 71.5561 127.878 71.3726 127.694C71.189 127.511 71.0859 127.262 71.0859 127.002C71.0859 126.743 71.189 126.494 71.3726 126.31C71.5561 126.127 71.805 126.023 72.0646 126.023H93.1448C93.4044 126.023 93.6533 126.127 93.8368 126.31C94.0204 126.494 94.1235 126.743 94.1235 127.002Z" fill="#9CAAB8"/>
<path d="M123.277 86.4655V138.07C123.277 139.425 122.739 140.724 121.781 141.682C120.823 142.64 119.524 143.179 118.169 143.179H108.323C106.969 143.179 105.669 142.64 104.711 141.682C103.753 140.724 103.215 139.425 103.215 138.07V86.4655C103.214 85.7943 103.345 85.1294 103.601 84.509C103.857 83.8886 104.234 83.325 104.708 82.8503C105.183 82.3757 105.747 81.9995 106.367 81.7432C106.987 81.4869 107.652 81.3557 108.323 81.3569H118.169C119.522 81.3621 120.818 81.902 121.775 82.8589C122.732 83.8158 123.272 85.1122 123.277 86.4655Z" fill="#8C9AA8"/>
<path d="M120.48 81.9148V134.361C120.48 135.576 119.997 136.741 119.138 137.6C118.279 138.458 117.114 138.941 115.899 138.941C114.685 138.941 113.52 138.458 112.661 137.6C111.802 136.741 111.319 135.576 111.319 134.361V81.3569H118.17C118.973 81.358 119.764 81.5492 120.48 81.9148Z" fill="#9CAAB8"/>
<path d="M124.873 90.8497C124.873 91.1093 124.769 91.3582 124.586 91.5418C124.402 91.7253 124.153 91.8284 123.894 91.8284H102.814C102.554 91.8284 102.305 91.7253 102.122 91.5418C101.938 91.3582 101.835 91.1093 101.835 90.8497C101.835 90.5902 101.938 90.3413 102.122 90.1577C102.305 89.9742 102.554 89.8711 102.814 89.8711H123.894C124.153 89.8711 124.402 89.9742 124.586 90.1577C124.769 90.3413 124.873 90.5902 124.873 90.8497Z" fill="#9CAAB8"/>
<path d="M124.873 102.898C124.873 103.157 124.769 103.406 124.586 103.59C124.402 103.773 124.153 103.876 123.894 103.876H102.814C102.554 103.876 102.305 103.773 102.122 103.59C101.938 103.406 101.835 103.157 101.835 102.898C101.835 102.638 101.938 102.389 102.122 102.206C102.305 102.022 102.554 101.919 102.814 101.919H123.894C124.153 101.919 124.402 102.022 124.586 102.206C124.769 102.389 124.873 102.638 124.873 102.898Z" fill="#9CAAB8"/>
<path d="M124.873 114.954C124.873 115.214 124.769 115.463 124.586 115.646C124.402 115.83 124.153 115.933 123.894 115.933H102.814C102.554 115.933 102.305 115.83 102.122 115.646C101.938 115.463 101.835 115.214 101.835 114.954C101.835 114.695 101.938 114.446 102.122 114.262C102.305 114.079 102.554 113.976 102.814 113.976H123.894C124.153 113.976 124.402 114.079 124.586 114.262C124.769 114.446 124.873 114.695 124.873 114.954Z" fill="#9CAAB8"/>
<path d="M124.873 127.002C124.873 127.262 124.769 127.511 124.586 127.694C124.402 127.878 124.153 127.981 123.894 127.981H102.814C102.554 127.981 102.305 127.878 102.122 127.694C101.938 127.511 101.835 127.262 101.835 127.002C101.835 126.743 101.938 126.494 102.122 126.31C102.305 126.127 102.554 126.023 102.814 126.023H123.894C124.153 126.023 124.402 126.127 124.586 126.31C124.769 126.494 124.873 126.743 124.873 127.002Z" fill="#9CAAB8"/>
<path d="M134.249 142.592C134.116 142.592 133.985 142.565 133.863 142.513C133.741 142.461 133.631 142.384 133.539 142.288C133.448 142.192 133.377 142.078 133.331 141.954C133.284 141.829 133.264 141.697 133.271 141.564V112.958C133.271 111.873 132.84 110.832 132.072 110.065C131.305 109.298 130.265 108.867 129.18 108.867H123.308C123.037 108.867 122.776 108.759 122.585 108.568C122.393 108.376 122.285 108.116 122.285 107.844C122.285 107.573 122.393 107.313 122.585 107.121C122.776 106.93 123.037 106.822 123.308 106.822H129.18C130.805 106.824 132.364 107.472 133.512 108.622C134.661 109.773 135.306 111.332 135.306 112.958V141.564C135.314 141.703 135.291 141.843 135.24 141.973C135.189 142.103 135.111 142.221 135.011 142.318C134.911 142.415 134.791 142.49 134.66 142.537C134.528 142.584 134.388 142.603 134.249 142.592Z" fill="#C5D3E1"/>
<path d="M138.299 141.662H45.6889C44.8187 141.662 44.1133 142.367 44.1133 143.237V148.904C44.1133 149.774 44.8187 150.479 45.6889 150.479H138.299C139.169 150.479 139.875 149.774 139.875 148.904V143.237C139.875 142.367 139.169 141.662 138.299 141.662Z" fill="#4D5A68"/>
<path d="M88.6726 107.213C88.6726 107.683 88.486 108.133 88.1538 108.466C87.8216 108.798 87.371 108.984 86.9012 108.984C86.6686 108.984 86.4383 108.939 86.2234 108.85C86.0085 108.76 85.8132 108.63 85.6487 108.466C85.4842 108.301 85.3537 108.106 85.2647 107.891C85.1757 107.676 85.1299 107.446 85.1299 107.213V88.6185C85.1299 88.3859 85.1757 88.1556 85.2647 87.9407C85.3537 87.7258 85.4842 87.5305 85.6487 87.366C85.8132 87.2015 86.0085 87.071 86.2234 86.982C86.4383 86.893 86.6686 86.8472 86.9012 86.8472C87.371 86.8472 87.8216 87.0338 88.1538 87.366C88.486 87.6982 88.6726 88.1487 88.6726 88.6185V107.213Z" fill="white"/>
<path d="M118.698 107.213C118.695 107.684 118.507 108.134 118.173 108.466C117.839 108.798 117.388 108.984 116.917 108.984C116.447 108.984 115.997 108.798 115.664 108.466C115.332 108.133 115.146 107.683 115.146 107.213V88.6185C115.146 88.1487 115.332 87.6982 115.664 87.366C115.997 87.0338 116.447 86.8472 116.917 86.8472C117.388 86.8472 117.839 87.0335 118.173 87.3654C118.507 87.6973 118.695 88.1478 118.698 88.6185V107.213Z" fill="white"/>
<path d="M163.216 94.549C163.226 95.3289 163.052 96.1002 162.707 96.7999C162.533 97.2231 162.245 97.5897 161.876 97.8592C161.506 98.1287 161.069 98.2905 160.613 98.3266H129.57C129.114 98.2905 128.677 98.1287 128.307 97.8592C127.937 97.5897 127.65 97.2231 127.476 96.7999C127.131 96.0909 126.952 95.3129 126.952 94.5246C126.952 93.7363 127.131 92.9582 127.476 92.2492C127.541 92.1198 127.617 91.9955 127.701 91.8773C127.721 91.8406 127.748 91.8075 127.779 91.7794C127.974 91.4879 128.235 91.247 128.541 91.0768C128.848 90.9066 129.19 90.8119 129.541 90.8008H160.584C160.935 90.812 161.279 90.9065 161.587 91.0767C161.895 91.2468 162.158 91.4877 162.355 91.7794C162.466 91.9293 162.567 92.0862 162.658 92.2492C163.026 92.9599 163.218 93.7487 163.216 94.549Z" fill="#ACBAC8"/>
<path d="M145.542 55.2563H144.211C142.47 55.2563 141.06 56.6672 141.06 58.4076V78.6266C141.06 80.367 142.47 81.7779 144.211 81.7779H145.542C147.282 81.7779 148.693 80.367 148.693 78.6266V58.4076C148.693 56.6672 147.282 55.2563 145.542 55.2563Z" fill="#ACBAC8"/>
<path d="M163.216 94.5497C163.226 95.3296 163.052 96.1009 162.707 96.8006H127.476C127.131 96.0916 126.952 95.3135 126.952 94.5252C126.952 93.7369 127.131 92.9589 127.476 92.2499L127.779 91.7801L141.059 71.0033L142.87 68.0673C143.162 67.7741 143.509 67.5414 143.891 67.3826C144.273 67.2238 144.683 67.1421 145.096 67.1421C145.51 67.1421 145.92 67.2238 146.302 67.3826C146.684 67.5414 147.031 67.7741 147.323 68.0673L148.693 70.2203L162.394 91.7507L162.697 92.2205C163.057 92.9434 163.235 93.7427 163.216 94.5497Z" fill="#ACBAC8"/>
<path d="M146.834 77.364C146.834 79.0081 146.1 80.2999 145.199 80.2999H144.504C143.594 80.2999 142.87 78.9592 142.87 77.364V58.2802C142.87 56.6361 143.594 55.3442 144.504 55.3442H145.18C146.08 55.3442 146.814 56.6752 146.814 58.2802L146.834 77.364Z" fill="#E8F1FA"/>
<path d="M158.46 94.5594H131.156C130.694 93.9552 130.443 93.2158 130.443 92.4553C130.443 91.6948 130.694 90.9554 131.156 90.3512L137.624 79.9676L142.42 72.2558L143.085 71.1891C143.282 70.9182 143.541 70.6977 143.839 70.5457C144.138 70.3937 144.468 70.3145 144.803 70.3145C145.138 70.3145 145.468 70.3937 145.767 70.5457C146.065 70.6977 146.323 70.9182 146.52 71.1891L146.834 71.6882L152.03 79.9676L158.499 90.3512C158.955 90.9597 159.199 91.7014 159.192 92.4619C159.185 93.2224 158.928 93.9595 158.46 94.5594Z" fill="#E8F1FA"/>
<path d="M158.46 94.5595H131.156C130.694 93.9553 130.443 93.2159 130.443 92.4554C130.443 91.6949 130.694 90.9555 131.156 90.3513L137.624 79.9678H152.03L158.499 90.3513C158.955 90.9598 159.199 91.7015 159.192 92.462C159.185 93.2226 158.928 93.9596 158.46 94.5595Z" fill="#514260"/>
<path d="M149.417 56.3818C149.417 56.6803 149.299 56.9666 149.088 57.1777C148.877 57.3887 148.59 57.5073 148.292 57.5073H141.324C141.176 57.5086 141.029 57.4804 140.892 57.4243C140.754 57.3682 140.63 57.2853 140.525 57.1806C140.42 57.0758 140.337 56.9512 140.281 56.8141C140.225 56.6769 140.197 56.53 140.198 56.3818C140.197 56.2337 140.225 56.0867 140.281 55.9496C140.337 55.8125 140.42 55.6879 140.525 55.5831C140.63 55.4784 140.754 55.3955 140.892 55.3394C141.029 55.2833 141.176 55.2551 141.324 55.2564H148.292C148.59 55.2564 148.877 55.375 149.088 55.586C149.299 55.7971 149.417 56.0834 149.417 56.3818Z" fill="#9CAAB8"/>
<path d="M147.245 73.6654C147.245 73.925 147.142 74.1739 146.959 74.3574C146.775 74.541 146.526 74.6441 146.267 74.6441C146.007 74.6441 145.758 74.541 145.575 74.3574C145.391 74.1739 145.288 73.925 145.288 73.6654V61.2169C145.288 60.9574 145.391 60.7085 145.575 60.5249C145.758 60.3414 146.007 60.2383 146.267 60.2383C146.526 60.2383 146.775 60.3414 146.959 60.5249C147.142 60.7085 147.245 60.9574 147.245 61.2169V73.6654Z" fill="white"/>
<path d="M149.819 84.2637H150.074C150.91 84.2637 151.711 84.5957 152.302 85.1867C152.893 85.7776 153.225 86.5792 153.225 87.4149V87.64C153.224 88.0526 153.141 88.4608 152.982 88.8415C152.823 89.2221 152.591 89.5677 152.298 89.8585C152.005 90.1493 151.658 90.3797 151.277 90.5363C150.895 90.693 150.486 90.773 150.074 90.7717H149.858C149.443 90.7769 149.031 90.6999 148.645 90.545C148.259 90.3902 147.908 90.1607 147.612 89.8696C147.315 89.5785 147.079 89.2317 146.917 88.8491C146.755 88.4664 146.671 88.0555 146.668 87.64V87.4345C146.665 87.019 146.745 86.6072 146.902 86.2226C147.059 85.838 147.291 85.4883 147.584 85.1936C147.877 84.8989 148.225 84.665 148.609 84.5054C148.992 84.3458 149.404 84.2637 149.819 84.2637Z" fill="white"/>
<path d="M148.292 56.9397C148.292 57.0902 148.232 57.2346 148.126 57.341C148.019 57.4475 147.875 57.5073 147.725 57.5073H144.661C144.587 57.5073 144.513 57.4926 144.444 57.4641C144.375 57.4356 144.313 57.3937 144.26 57.341C144.207 57.2883 144.165 57.2258 144.137 57.1569C144.108 57.088 144.094 57.0142 144.094 56.9397C144.096 56.7908 144.157 56.649 144.263 56.5446C144.37 56.4403 144.513 56.3818 144.661 56.3818H147.725C147.873 56.3818 148.016 56.4403 148.123 56.5446C148.229 56.649 148.29 56.7908 148.292 56.9397Z" fill="white"/>
<path d="M85.5604 36.7499H77.2516C77.0677 36.751 76.8917 36.8249 76.7623 36.9554L73.3076 40.4884C73.3076 40.4884 73.3076 40.4884 73.2391 40.5471L71.4188 42.2597L70.8903 41.7313L66.8093 45.8123L67.2204 46.2233L64.9303 48.4057C64.7483 48.584 64.6429 48.8262 64.6367 49.081V64.2501C64.6517 64.4994 64.7614 64.7335 64.9433 64.9045C65.1253 65.0755 65.3657 65.1705 65.6154 65.1701H85.3842C85.6339 65.1705 85.8743 65.0755 86.0563 64.9045C86.2382 64.7335 86.3479 64.4994 86.3629 64.2501V37.435C86.3644 37.3342 86.3436 37.2344 86.3021 37.1425C86.2606 37.0507 86.1993 36.9692 86.1227 36.9038C86.046 36.8383 85.9559 36.7906 85.8587 36.764C85.7615 36.7374 85.6596 36.7326 85.5604 36.7499ZM77.5354 38.1102H84.8753V40.2926H75.4117L77.5354 38.1102ZM84.063 48.8754C84.0639 49.0103 84.0344 49.1437 83.9768 49.2656C83.9192 49.3876 83.835 49.495 83.7303 49.5801V62.1069C83.7303 62.3664 83.6272 62.6153 83.4436 62.7989C83.2601 62.9824 83.0112 63.0855 82.7516 63.0855H68.0718C67.8122 63.0855 67.5633 62.9824 67.3798 62.7989C67.1962 62.6153 67.0931 62.3664 67.0931 62.1069V50.8132C67.0923 50.6797 67.1188 50.5475 67.171 50.4246C67.2232 50.3017 67.2999 50.1909 67.3965 50.0988L69.2755 48.3274L73.474 44.3541L73.5718 44.2758C73.6595 44.1895 73.7635 44.1216 73.8778 44.0762C73.9921 44.0309 74.1144 44.0088 74.2373 44.0115H81.9785V43.1992C81.9785 42.9553 82.0754 42.7213 82.2479 42.5487C82.4205 42.3762 82.6544 42.2793 82.8984 42.2793H83.1039C83.3479 42.2793 83.5819 42.3762 83.7544 42.5487C83.927 42.7213 84.0239 42.9553 84.0239 43.1992L84.063 48.8754Z" fill="#514260"/>
<path d="M82.9378 49.7567C82.6968 49.7425 82.4695 49.6397 82.2997 49.4681C82.1299 49.2965 82.0295 49.0681 82.0178 48.827V44.5796H74.2767C74.2239 44.579 74.1715 44.5892 74.1228 44.6093C74.074 44.6295 74.0298 44.6594 73.9929 44.6971L73.9146 44.7656L69.7161 48.7291L67.8665 50.5103C67.7856 50.5906 67.7398 50.6997 67.7393 50.8136V62.0584C67.7392 62.1119 67.7499 62.1649 67.7707 62.2142C67.7915 62.2636 67.8219 62.3083 67.8602 62.3456C67.8985 62.383 67.9439 62.4124 67.9937 62.432C68.0436 62.4515 68.0968 62.461 68.1503 62.4596H82.8301C82.8828 62.4596 82.935 62.4493 82.9837 62.4291C83.0324 62.4089 83.0766 62.3794 83.1138 62.3421C83.1511 62.3049 83.1807 62.2606 83.2008 62.212C83.221 62.1633 83.2314 62.1111 83.2314 62.0584V49.7469H82.9378V49.7567ZM75.4315 60.6002C73.8047 60.5894 72.2395 59.9769 71.0375 58.8807C69.8354 57.7846 69.0816 56.2824 68.9211 54.6635C68.7607 53.0447 69.2051 51.4237 70.1686 50.113C71.1321 48.8022 72.5467 47.8944 74.1397 47.5645C74.5647 47.4776 74.9976 47.435 75.4315 47.4373C76.3171 47.4031 77.2006 47.5481 78.0289 47.8634C78.8572 48.1788 79.6133 48.6581 80.252 49.2726C80.8906 49.8871 81.3987 50.6242 81.7457 51.4397C82.0928 52.2553 82.2717 53.1324 82.2717 54.0187C82.2717 54.905 82.0928 55.7822 81.7457 56.5978C81.3987 57.4133 80.8906 58.1504 80.252 58.7649C79.6133 59.3794 78.8572 59.8587 78.0289 60.1741C77.2006 60.4894 76.3171 60.6344 75.4315 60.6002Z" fill="#514260"/>
<path d="M70.7046 39.8135L69.3736 38.4825C69.288 38.3956 69.1859 38.3267 69.0733 38.2796C68.9608 38.2326 68.84 38.2084 68.7179 38.2085C68.5251 38.2129 68.3378 38.2742 68.1797 38.3847L70.8025 40.9977C70.9288 40.8206 70.9883 40.6044 70.9704 40.3877C70.9525 40.1709 70.8583 39.9674 70.7046 39.8135Z" fill="#514260"/>
<path d="M65.5575 45.881C65.7511 45.881 65.9396 45.8193 66.0957 45.7048L63.4827 43.082C63.3538 43.2599 63.2927 43.4781 63.3107 43.6971C63.3286 43.9161 63.4244 44.1215 63.5806 44.276L64.9311 45.607C65.097 45.7754 65.3213 45.8735 65.5575 45.881Z" fill="#514260"/>
<path d="M67.621 40.6751L69.3826 42.4367L70.4885 41.3308L70.7038 41.1155L70.4885 41.3308L70.3711 41.4482L68.6095 39.6867L67.7385 38.8059L68.0614 38.4829L66.7305 39.8041L66.75 39.7943L67.621 40.6751Z" fill="#514260"/>
<path d="M67.9637 43.8549L68.9521 42.8665L67.1905 41.1049L66.3097 40.2339L65.3213 41.2125L66.2021 42.0933L67.9637 43.8549Z" fill="#514260"/>
<path d="M66.5447 45.2739L67.7485 44.0701L67.5332 44.2952L65.7618 42.5238L64.8908 41.6528L63.9023 42.6413L64.7831 43.5123L66.5447 45.2739Z" fill="#514260"/>
<path d="M73.0625 55.3448C73.0625 57.1945 74.1195 58.6918 75.4308 58.6918C76.7422 58.6918 77.7992 57.1945 77.7992 55.3448C77.7992 53.4952 75.4308 49.3652 75.4308 49.3652C75.4308 49.3652 73.0625 53.4756 73.0625 55.3448ZM76.9771 55.4035C76.9771 56.0299 76.6248 56.529 76.1844 56.529C75.744 56.529 75.3819 56.0299 75.3819 55.4035C75.5506 54.6885 75.8384 54.007 76.2333 53.3875C76.6059 54.0082 76.8737 54.686 77.026 55.3937L76.9771 55.4035Z" fill="#514260"/>
<path d="M60.8974 79.2134C60.8304 79.091 60.7552 78.9733 60.6723 78.8611L50.5921 63.0166V54.2674C50.5882 54.0376 50.5485 53.8098 50.4747 53.5922C50.6805 53.5488 50.8623 53.4291 50.9835 53.2572C51.1046 53.0852 51.1561 52.8737 51.1275 52.6653C51.099 52.4569 50.9926 52.267 50.8297 52.134C50.6668 52.0009 50.4595 51.9344 50.2496 51.948H45.1606C45.0514 51.948 44.9432 51.9695 44.8423 52.0114C44.7413 52.0532 44.6496 52.1144 44.5724 52.1917C44.4951 52.2689 44.4339 52.3606 44.3921 52.4615C44.3503 52.5625 44.3287 52.6706 44.3287 52.7799C44.3278 52.985 44.4036 53.1831 44.5412 53.3352C44.6788 53.4873 44.8683 53.5824 45.0725 53.602C45.0019 53.8168 44.9656 54.0413 44.9649 54.2674V63.5157L35.1979 78.8317L35.1392 78.91C35.0759 78.9963 35.0202 79.088 34.9728 79.184C34.7083 79.7088 34.574 80.2895 34.5813 80.8771C34.5759 81.4529 34.7031 82.0222 34.9532 82.5408C35.0779 82.8701 35.2945 83.1568 35.5773 83.3667C35.86 83.5766 36.1971 83.701 36.5484 83.725H59.3707C59.7061 83.6991 60.0278 83.5812 60.3006 83.3844C60.5734 83.1876 60.7866 82.9194 60.917 82.6093C61.1671 82.0907 61.2943 81.5214 61.2888 80.9456C61.3025 80.3448 61.1681 79.7499 60.8974 79.2134ZM47.617 52.408H49.8777C49.9867 52.408 50.0913 52.4513 50.1684 52.5284C50.2454 52.6055 50.2888 52.71 50.2888 52.819C50.2896 52.9009 50.2619 52.9805 50.2105 53.0441C50.1766 53.1027 50.1282 53.1516 50.0699 53.1859C50.0116 53.2202 49.9454 53.2388 49.8777 53.2399H47.617C47.5177 53.2246 47.4271 53.1742 47.3616 53.0979C47.2962 53.0216 47.2602 52.9244 47.2602 52.8239C47.2602 52.7234 47.2962 52.6262 47.3616 52.5499C47.4271 52.4736 47.5177 52.4233 47.617 52.408ZM37.6641 77.853L42.4204 70.1608L44.9649 66.1092L45.9435 64.4944L46.335 63.9561V54.1696C46.3253 53.9936 46.3253 53.8171 46.335 53.6411H49.1829C49.1926 53.8171 49.1926 53.9936 49.1829 54.1696V64.0638L50.553 66.256L52.9801 70.1706L57.7853 77.853C57.8626 77.9479 57.9314 78.0494 57.9908 78.1564C58.2311 78.5928 58.3395 79.0895 58.3031 79.5864C58.2666 80.0832 58.0867 80.5588 57.7853 80.9554H37.6641C37.3627 80.5588 37.1828 80.0832 37.1463 79.5864C37.1098 79.0895 37.2183 78.5928 37.4586 78.1564C37.518 78.0494 37.5867 77.9479 37.6641 77.853Z" fill="#514260"/>
<path d="M57.5118 80.378C57.7044 80.0318 57.7938 79.6377 57.7695 79.2423C57.7453 78.8469 57.6083 78.4667 57.3748 78.1467L52.7653 70.748H42.7341L38.1247 78.1467C37.8874 78.4647 37.7473 78.8447 37.7212 79.2406C37.6952 79.6366 37.7843 80.0316 37.9779 80.378H57.5118ZM51.4148 73.3317H51.5714C52.1865 73.3317 52.7765 73.5761 53.2115 74.011C53.6464 74.446 53.8908 75.036 53.8908 75.6511V75.7979C53.8908 76.4131 53.6464 77.003 53.2115 77.438C52.7765 77.873 52.1865 78.1173 51.5714 78.1173H51.4148C50.7997 78.1173 50.2097 77.873 49.7747 77.438C49.3398 77.003 49.0954 76.4131 49.0954 75.7979V75.6511C49.0954 75.036 49.3398 74.446 49.7747 74.011C50.2097 73.5761 50.7997 73.3317 51.4148 73.3317Z" fill="#514260"/>
<path d="M48.0982 67.0876C48.192 67.0876 48.2849 67.0691 48.3716 67.0332C48.4583 66.9973 48.537 66.9447 48.6034 66.8783C48.6697 66.812 48.7223 66.7332 48.7582 66.6465C48.7941 66.5599 48.8126 66.467 48.8126 66.3731V57.2227C48.8126 57.0332 48.7374 56.8515 48.6034 56.7175C48.4694 56.5836 48.2877 56.5083 48.0982 56.5083C47.9087 56.5083 47.727 56.5836 47.593 56.7175C47.4591 56.8515 47.3838 57.0332 47.3838 57.2227V66.4025C47.3914 66.5868 47.47 66.7611 47.6031 66.8888C47.7363 67.0165 47.9137 67.0877 48.0982 67.0876Z" fill="#514260"/>
<path d="M176.418 150.479H173.305V128.097C173.305 127.687 173.143 127.294 172.853 127.004C172.563 126.714 172.169 126.551 171.759 126.551H159.702V123.439H171.759C172.994 123.442 174.177 123.933 175.05 124.806C175.923 125.679 176.415 126.863 176.418 128.097V150.479Z" fill="#F8BE49"/>
<path d="M160.839 129.84C160.844 133.592 159.629 137.245 157.376 140.246C155.124 143.247 151.956 145.434 148.351 146.477C147.551 146.717 146.733 146.894 145.904 147.005C144.332 147.214 142.74 147.214 141.168 147.005C140.339 146.895 139.521 146.718 138.721 146.477C135.115 145.436 131.947 143.249 129.694 140.247C127.441 137.246 126.226 133.593 126.233 129.84C126.236 126.069 127.471 122.403 129.751 119.4C132.03 116.397 135.228 114.22 138.858 113.203C139.752 112.947 140.665 112.767 141.589 112.664C142.889 112.519 144.202 112.519 145.503 112.664C146.427 112.767 147.34 112.947 148.234 113.203C151.859 114.225 155.052 116.404 157.327 119.406C159.602 122.409 160.835 126.072 160.839 129.84Z" fill="#F8BE49"/>
<path d="M129.649 132.971H127.31C127.023 132.971 126.791 133.203 126.791 133.49V149.97C126.791 150.257 127.023 150.489 127.31 150.489H129.649C129.935 150.489 130.167 150.257 130.167 149.97V133.49C130.167 133.203 129.935 132.971 129.649 132.971Z" fill="#7C8A98"/>
<path d="M154.76 122.558C154.76 123.102 154.598 123.635 154.295 124.088C153.992 124.54 153.561 124.893 153.058 125.1C152.554 125.308 152 125.361 151.466 125.253C150.932 125.146 150.442 124.882 150.058 124.495C149.674 124.109 149.414 123.617 149.31 123.082C149.206 122.547 149.264 121.994 149.475 121.492C149.686 120.99 150.041 120.561 150.496 120.262C150.951 119.962 151.485 119.804 152.029 119.808C152.389 119.809 152.745 119.881 153.077 120.02C153.409 120.159 153.711 120.362 153.964 120.617C154.218 120.873 154.418 121.175 154.555 121.508C154.691 121.841 154.761 122.198 154.76 122.558Z" fill="white"/>
<path d="M153.282 114.005C153.282 114.215 153.198 114.417 153.05 114.566C152.901 114.714 152.699 114.798 152.489 114.798H135.137C134.927 114.798 134.726 114.714 134.577 114.566C134.428 114.417 134.345 114.215 134.345 114.005C134.345 113.795 134.428 113.593 134.577 113.445C134.726 113.296 134.927 113.212 135.137 113.212H152.489C152.699 113.212 152.901 113.296 153.05 113.445C153.198 113.593 153.282 113.795 153.282 114.005Z" fill="#BCCAD8"/>
<path d="M128.474 132.971V150.479H127.31C127.242 150.481 127.175 150.468 127.112 150.443C127.049 150.418 126.992 150.381 126.944 150.334C126.895 150.286 126.857 150.23 126.831 150.167C126.804 150.105 126.791 150.038 126.791 149.97V133.49C126.791 133.352 126.846 133.22 126.943 133.123C127.04 133.026 127.172 132.971 127.31 132.971H128.474Z" fill="#BCCAD8"/>
<path d="M144.328 132.971H141.989C141.703 132.971 141.471 133.203 141.471 133.49V149.97C141.471 150.257 141.703 150.489 141.989 150.489H144.328C144.615 150.489 144.847 150.257 144.847 149.97V133.49C144.847 133.203 144.615 132.971 144.328 132.971Z" fill="#7C8A98"/>
<path d="M143.154 132.971V150.479H141.98C141.845 150.479 141.715 150.426 141.62 150.33C141.524 150.235 141.471 150.105 141.471 149.97V133.49C141.469 133.422 141.482 133.355 141.507 133.292C141.532 133.229 141.569 133.172 141.616 133.124C141.664 133.075 141.72 133.037 141.783 133.011C141.845 132.985 141.912 132.971 141.98 132.971H143.154Z" fill="#BCCAD8"/>
<path d="M159.45 132.971H157.111C156.825 132.971 156.593 133.203 156.593 133.49V149.97C156.593 150.257 156.825 150.489 157.111 150.489H159.45C159.737 150.489 159.969 150.257 159.969 149.97V133.49C159.969 133.203 159.737 132.971 159.45 132.971Z" fill="#7C8A98"/>
<path d="M158.286 132.971V150.479H157.111C157.044 150.481 156.977 150.468 156.914 150.443C156.851 150.418 156.794 150.381 156.745 150.334C156.697 150.286 156.659 150.23 156.632 150.167C156.606 150.105 156.593 150.038 156.593 149.97V133.49C156.593 133.352 156.647 133.22 156.745 133.123C156.842 133.026 156.974 132.971 157.111 132.971H158.286Z" fill="#BCCAD8"/>
<path d="M161.601 133.177C161.601 133.452 161.492 133.716 161.298 133.911C161.103 134.105 160.839 134.214 160.564 134.214H125.743C125.468 134.214 125.204 134.105 125.01 133.911C124.815 133.716 124.706 133.452 124.706 133.177C124.709 132.903 124.819 132.64 125.013 132.446C125.207 132.252 125.469 132.142 125.743 132.14H160.564C160.838 132.142 161.101 132.252 161.295 132.446C161.489 132.64 161.599 132.903 161.601 133.177Z" fill="#BCCAD8"/>
<path d="M175.441 134.459C175.441 134.718 175.338 134.967 175.154 135.151C174.971 135.334 174.722 135.437 174.462 135.437C174.203 135.437 173.954 135.334 173.77 135.151C173.587 134.967 173.483 134.718 173.483 134.459V130.26C173.483 130.001 173.587 129.752 173.77 129.568C173.954 129.385 174.203 129.282 174.462 129.282C174.722 129.282 174.971 129.385 175.154 129.568C175.338 129.752 175.441 130.001 175.441 130.26V134.459Z" fill="#E47E30"/>
<path d="M178.591 135.643C178.81 135.773 178.97 135.985 179.036 136.231C179.102 136.478 179.068 136.741 178.943 136.964C178.812 137.183 178.601 137.343 178.354 137.409C178.107 137.475 177.844 137.441 177.622 137.316L173.981 135.212C173.762 135.081 173.602 134.87 173.536 134.623C173.47 134.376 173.503 134.113 173.629 133.891C173.759 133.671 173.971 133.511 174.218 133.446C174.465 133.38 174.727 133.413 174.95 133.538L178.591 135.643Z" fill="#E47E30"/>
<path d="M173.982 133.49C174.204 133.365 174.467 133.331 174.714 133.397C174.961 133.463 175.172 133.623 175.303 133.842C175.428 134.065 175.461 134.328 175.396 134.575C175.33 134.822 175.17 135.033 174.95 135.164L171.31 137.268C171.086 137.392 170.822 137.424 170.575 137.356C170.328 137.289 170.118 137.127 169.989 136.906C169.864 136.682 169.832 136.418 169.9 136.171C169.968 135.924 170.13 135.714 170.351 135.584L173.982 133.49Z" fill="#E47E30"/>
<path d="M176.349 134.116C176.349 134.505 176.233 134.886 176.016 135.208C175.798 135.531 175.49 135.782 175.129 135.929C174.769 136.075 174.373 136.111 173.992 136.031C173.611 135.952 173.262 135.761 172.99 135.482C172.719 135.203 172.536 134.85 172.466 134.467C172.396 134.084 172.442 133.689 172.598 133.333C172.754 132.976 173.012 132.674 173.34 132.465C173.669 132.256 174.052 132.149 174.441 132.159C174.696 132.159 174.948 132.21 175.183 132.309C175.417 132.408 175.63 132.553 175.808 132.735C175.986 132.917 176.125 133.134 176.218 133.371C176.311 133.608 176.356 133.861 176.349 134.116Z" fill="#6C7A88"/>
<path d="M174.441 139.92C173.312 139.92 172.209 139.585 171.271 138.958C170.333 138.331 169.602 137.44 169.17 136.398C168.738 135.355 168.625 134.208 168.845 133.101C169.065 131.994 169.609 130.978 170.406 130.18C171.204 129.382 172.221 128.839 173.328 128.618C174.435 128.398 175.582 128.511 176.624 128.943C177.667 129.375 178.558 130.106 179.185 131.045C179.812 131.983 180.146 133.086 180.146 134.214C180.144 135.727 179.542 137.176 178.473 138.246C177.403 139.315 175.953 139.917 174.441 139.92ZM174.441 130.075C173.622 130.073 172.82 130.314 172.138 130.768C171.456 131.221 170.924 131.867 170.609 132.623C170.295 133.38 170.211 134.212 170.37 135.016C170.528 135.82 170.922 136.558 171.5 137.138C172.079 137.718 172.817 138.113 173.62 138.274C174.423 138.434 175.256 138.353 176.013 138.04C176.77 137.727 177.417 137.196 177.872 136.515C178.328 135.834 178.571 135.034 178.571 134.214C178.571 133.118 178.136 132.067 177.362 131.291C176.588 130.515 175.537 130.077 174.441 130.075Z" fill="#EF893A"/>
<path d="M137.135 114.797H136.519V132.354H137.135V114.797Z" fill="#EF893A"/>
<path d="M140.092 114.797H139.476V132.354H140.092V114.797Z" fill="#EF893A"/>
<path d="M139.779 116.912H136.823V117.528H139.779V116.912Z" fill="#EF893A"/>
<path d="M139.779 118.771H136.823V119.388H139.779V118.771Z" fill="#EF893A"/>
<path d="M139.779 120.64H136.823V121.256H139.779V120.64Z" fill="#EF893A"/>
<path d="M139.779 122.509H136.823V123.136H139.779V122.509Z" fill="#EF893A"/>
<path d="M139.779 124.369H136.823V124.986H139.779V124.369Z" fill="#EF893A"/>
<path d="M139.779 126.238H136.823V126.854H139.779V126.238Z" fill="#EF893A"/>
<path d="M139.779 128.098H136.823V128.724H139.779V128.098Z" fill="#EF893A"/>
<path d="M139.779 129.967H136.823V130.593H139.779V129.967Z" fill="#EF893A"/>
<path d="M32.2141 133.774C31.8069 133.772 31.4165 133.611 31.1278 133.323L21.7034 123.899C21.4232 123.609 21.2681 123.221 21.2715 122.818C21.2749 122.415 21.4365 122.029 21.7215 121.744C22.0065 121.459 22.392 121.298 22.795 121.294C23.198 121.291 23.5862 121.446 23.876 121.726L33.3004 131.151C33.5861 131.44 33.7463 131.83 33.7463 132.237C33.7463 132.644 33.5861 133.034 33.3004 133.323C33.0106 133.609 32.6209 133.77 32.2141 133.774Z" fill="#ACBAC8"/>
<path d="M32.2627 133.774C31.8526 133.772 31.4594 133.61 31.1666 133.323C30.8809 133.034 30.7207 132.644 30.7207 132.237C30.7207 131.83 30.8809 131.44 31.1666 131.151L40.591 121.726C40.8808 121.446 41.269 121.291 41.672 121.294C42.075 121.298 42.4605 121.459 42.7455 121.744C43.0305 122.029 43.1921 122.415 43.1955 122.818C43.1988 123.221 43.0438 123.609 42.7636 123.899L33.349 133.323C33.0591 133.609 32.6695 133.77 32.2627 133.774Z" fill="#ACBAC8"/>
<path d="M32.0472 137.668C31.6397 137.668 31.2489 137.506 30.9608 137.218C30.6726 136.93 30.5107 136.539 30.5107 136.132V122.812C30.5107 122.405 30.6726 122.014 30.9608 121.726C31.2489 121.438 31.6397 121.276 32.0472 121.276C32.4547 121.276 32.8455 121.438 33.1337 121.726C33.4218 122.014 33.5837 122.405 33.5837 122.812V136.132C33.5837 136.539 33.4218 136.93 33.1337 137.218C32.8455 137.506 32.4547 137.668 32.0472 137.668Z" fill="#9CAAB8"/>
<path d="M44.154 120.151H19.9421C19.2611 120.151 18.709 120.703 18.709 121.384V124.242C18.709 124.923 19.2611 125.475 19.9421 125.475H44.154C44.835 125.475 45.3871 124.923 45.3871 124.242V121.384C45.3871 120.703 44.835 120.151 44.154 120.151Z" fill="#D6741D"/>
<path d="M38.0076 120.151H26.0876C25.4066 120.151 24.8545 120.703 24.8545 121.384V124.242C24.8545 124.923 25.4066 125.475 26.0876 125.475H38.0076C38.6886 125.475 39.2407 124.923 39.2407 124.242V121.384C39.2407 120.703 38.6886 120.151 38.0076 120.151Z" fill="#F19B2C"/>
<path d="M56.1813 142.278V150.479H51.2293V142.278C51.2293 141.3 50.8406 140.361 50.1487 139.669C49.4568 138.977 48.5183 138.589 47.5398 138.589H16.9764C15.9979 138.589 15.0594 138.977 14.3675 139.669C13.6756 140.361 13.2869 141.3 13.2869 142.278V150.479H8.3936V142.278C8.38974 141.147 8.60868 140.027 9.03792 138.98C9.46716 137.934 10.0983 136.982 10.8953 136.18C11.6923 135.377 12.6395 134.74 13.6829 134.304C14.7263 133.867 15.8454 133.641 16.9764 133.637H47.579C48.7116 133.638 49.8328 133.863 50.8785 134.298C51.9241 134.733 52.8737 135.37 53.6728 136.173C54.4718 136.976 55.1047 137.928 55.5352 138.976C55.9656 140.023 56.1852 141.146 56.1813 142.278Z" fill="#ACBAC8"/>
<path d="M53.8521 143.081V150.479H51.2293V142.278C51.2293 141.3 50.8406 140.361 50.1487 139.669C49.4568 138.977 48.5183 138.589 47.5398 138.589H16.9764C15.9979 138.589 15.0594 138.977 14.3675 139.669C13.6756 140.361 13.2869 141.3 13.2869 142.278V150.479H10.6641V143.081C10.6667 141.021 11.4865 139.047 12.9435 137.592C14.4004 136.137 16.3754 135.32 18.4346 135.32H46.0816C48.1408 135.32 50.1158 136.137 51.5727 137.592C53.0297 139.047 53.8495 141.021 53.8521 143.081Z" fill="#BCCAD8"/>
<path d="M35.9907 132.257L35.012 140.83C35.012 140.999 34.945 141.16 34.8257 141.28C34.7064 141.399 34.5446 141.466 34.3759 141.466H30.1188C29.9501 141.466 29.7883 141.399 29.669 141.28C29.5497 141.16 29.4826 140.999 29.4826 140.83L28.504 132.257C28.5027 132.174 28.5179 132.091 28.5488 132.014C28.5797 131.937 28.6256 131.867 28.6839 131.808C28.7422 131.748 28.8117 131.701 28.8883 131.669C28.965 131.637 29.0472 131.621 29.1303 131.621H35.3252C35.4112 131.617 35.4971 131.63 35.5777 131.661C35.6583 131.691 35.7319 131.737 35.7941 131.796C35.8563 131.856 35.9058 131.927 35.9396 132.007C35.9734 132.086 35.9908 132.171 35.9907 132.257Z" fill="#6C7A88"/>
<path d="M32.0478 131.621V141.466H30.0904C29.9217 141.466 29.7599 141.399 29.6406 141.28C29.5213 141.161 29.4543 140.999 29.4543 140.83L28.4757 132.257C28.4744 132.174 28.4896 132.092 28.5205 132.015C28.5514 131.937 28.5973 131.867 28.6556 131.808C28.7139 131.749 28.7834 131.702 28.86 131.67C28.9367 131.638 29.0189 131.621 29.102 131.621H32.0478Z" fill="#7C8A98"/>
<path d="M14.2456 146.692C14.2456 146.936 14.1486 147.17 13.9761 147.343C13.8036 147.515 13.5696 147.612 13.3256 147.612H8.10939C7.86541 147.612 7.63142 147.515 7.4589 147.343C7.28637 147.17 7.18945 146.936 7.18945 146.692V146.692C7.18945 146.448 7.28637 146.214 7.4589 146.042C7.63142 145.869 7.86541 145.772 8.10939 145.772H13.3256C13.5696 145.772 13.8036 145.869 13.9761 146.042C14.1486 146.214 14.2456 146.448 14.2456 146.692Z" fill="#7C8A98"/>
<path d="M57.3549 146.692C57.3549 146.936 57.258 147.17 57.0855 147.343C56.9129 147.515 56.679 147.612 56.435 147.612H51.2285C50.9845 147.612 50.7506 147.515 50.578 147.343C50.4055 147.17 50.3086 146.936 50.3086 146.692C50.3086 146.448 50.4055 146.214 50.578 146.042C50.7506 145.869 50.9845 145.772 51.2285 145.772H56.4448C56.6887 145.772 56.9227 145.869 57.0953 146.042C57.2678 146.214 57.3647 146.448 57.3647 146.692H57.3549Z" fill="#7C8A98"/>
<path d="M21.5158 132.658C21.7597 132.658 21.9937 132.755 22.1663 132.927C22.3388 133.1 22.4357 133.334 22.4357 133.578V138.794C22.4357 139.038 22.3388 139.272 22.1663 139.444C21.9937 139.617 21.7597 139.714 21.5158 139.714C21.2661 139.714 21.0256 139.619 20.8437 139.448C20.6618 139.277 20.5521 139.043 20.5371 138.794V133.529C20.5521 133.28 20.6618 133.045 20.8437 132.874C21.0256 132.703 21.2661 132.608 21.5158 132.609V132.658Z" fill="#7C8A98"/>
<path d="M42.5576 132.658C42.8016 132.658 43.0356 132.755 43.2081 132.927C43.3806 133.1 43.4776 133.334 43.4776 133.578V138.794C43.4776 139.038 43.3806 139.272 43.2081 139.444C43.0356 139.617 42.8016 139.714 42.5576 139.714C42.3136 139.714 42.0797 139.617 41.9071 139.444C41.7346 139.272 41.6377 139.038 41.6377 138.794V133.529C41.6377 133.285 41.7346 133.051 41.9071 132.878C42.0797 132.706 42.3136 132.609 42.5576 132.609V132.658Z" fill="#7C8A98"/>
</g>
<path d="M66.4735 121.329V139.577C66.4735 140.634 66.0534 141.648 65.3058 142.396C64.5581 143.144 63.544 143.564 62.4866 143.564H50.2075C49.6845 143.564 49.1666 143.46 48.6836 143.26C48.2005 143.059 47.7618 142.766 47.3925 142.395C47.0233 142.025 46.7307 141.585 46.5316 141.102C46.3326 140.618 46.2309 140.1 46.2324 139.577V121.329C46.2324 120.807 46.3353 120.29 46.535 119.808C46.7348 119.326 47.0276 118.887 47.3967 118.518C47.7658 118.149 48.204 117.856 48.6863 117.657C49.1686 117.457 49.6855 117.354 50.2075 117.354H62.522C63.5712 117.363 64.5744 117.786 65.3142 118.53C66.0539 119.274 66.4704 120.28 66.4735 121.329Z" fill="#FBD099"/>
<path d="M68.1718 116.54V129.35C68.1748 129.856 68.0418 130.355 67.7866 130.792C67.5314 131.23 67.1634 131.592 66.7209 131.839L66.4732 131.544C65.6439 130.505 65.0521 129.297 64.7393 128.005C64.7019 127.818 64.6744 127.629 64.6567 127.439C64.6339 127.192 64.6339 126.943 64.6567 126.696C64.6697 125.852 64.9324 125.031 65.4116 124.337L61.1299 125.292L61.6725 122.933C59.7942 123.209 57.9538 123.699 56.1876 124.396C55.1485 124.812 54.1626 125.351 53.2505 126C52.6437 126.416 52.0752 126.886 51.5519 127.403L50.9976 127.97C49.3226 129.763 48.4025 131.402 46.2794 131.85L45.8193 131.933C45.3263 131.703 44.9098 131.336 44.6192 130.876C44.3285 130.416 44.176 129.882 44.1798 129.338V116.54C44.1782 116.161 44.2515 115.785 44.3954 115.435C44.5394 115.084 44.7511 114.766 45.0186 114.497C45.286 114.229 45.6038 114.015 45.9537 113.87C46.3037 113.725 46.6789 113.65 47.0579 113.65H65.2937C65.6726 113.65 66.0479 113.725 66.3978 113.87C66.7478 114.015 67.0656 114.229 67.333 114.497C67.6004 114.766 67.8121 115.084 67.9561 115.435C68.1 115.785 68.1733 116.161 68.1718 116.54Z" fill="#7D4C2E"/>
<path d="M81.2177 159.724C81.2226 159.681 81.2226 159.638 81.2177 159.595L74.9779 147.198C74.6731 146.588 74.162 146.107 73.5357 145.839C72.9093 145.571 72.2083 145.534 71.5572 145.735C71.2794 145.644 70.9884 145.6 70.6962 145.605H40.7002C40.5353 145.593 40.3697 145.593 40.2048 145.605C39.5944 145.504 38.9676 145.6 38.4159 145.88C37.8641 146.16 37.4164 146.61 37.138 147.162L30.8982 159.559C30.7108 159.925 30.6061 160.328 30.5915 160.739C30.523 161.156 30.4875 161.578 30.4854 162.001V164.077C30.4885 164.801 30.7782 165.494 31.291 166.004C31.8039 166.515 32.4982 166.802 33.2219 166.802H37.8221H73.5507H79.1889C79.5477 166.803 79.9033 166.734 80.2353 166.598C80.5672 166.461 80.869 166.261 81.1232 166.008C81.3775 165.755 81.5793 165.454 81.7169 165.122C81.8546 164.791 81.9255 164.436 81.9255 164.077V162.001C81.8416 161.203 81.6011 160.429 81.2177 159.724Z" fill="#E9F4F5"/>
<path d="M64.2456 145.604L61.8865 153.306L60.5772 157.6L57.7816 166.718L57.7344 166.871V166.895H54.0543L54.0425 166.871L53.8537 166.234L51.1997 157.812L49.7843 153.306L47.3662 145.604H64.2456Z" fill="#F8BE49"/>
<path d="M54.053 166.895H52.7555L52.7319 166.871L45.7018 159.086L44.6756 157.954L44.5222 157.789L43.1303 156.244L42.6467 153.306L41.4908 146.147L41.4082 145.604H47.3649L49.783 153.306L51.1985 157.812L53.8524 166.234L54.0412 166.871L54.053 166.895Z" fill="#D5E5E6"/>
<path d="M58.8648 166.883L67.4165 155.949L69.4571 145.604H64.2435L57.7324 166.883H58.8648Z" fill="#D5E5E6"/>
<path d="M57.7804 166.718V166.871H54.053L53.8643 166.234L54.2889 157.741L54.513 153.306V151.926C54.5152 151.719 54.5721 151.515 54.6781 151.336C54.7811 151.158 54.9289 151.01 55.1068 150.906C55.2848 150.803 55.4867 150.748 55.6926 150.747H55.8577C55.963 150.728 56.0709 150.728 56.1762 150.747C56.472 150.825 56.7258 151.015 56.8839 151.277C56.9899 151.456 57.0469 151.66 57.049 151.867V153.247L57.2731 157.612L57.7804 166.718Z" fill="#263536"/>
<path d="M60.8237 137.195V144.579C60.8252 144.8 60.7827 145.021 60.6985 145.226C60.6142 145.431 60.4901 145.618 60.3331 145.775C60.1762 145.932 59.9896 146.056 59.7842 146.14C59.5789 146.224 59.3588 146.267 59.1369 146.265H52.3899C52.1302 146.265 51.8739 146.206 51.6408 146.091C51.4077 145.977 51.2039 145.81 51.0452 145.605C50.8261 145.307 50.7064 144.948 50.7031 144.579V137.195C50.7062 136.748 50.8849 136.321 51.2006 136.005C51.5162 135.69 51.9435 135.511 52.3899 135.508H59.1369C59.5833 135.511 60.0105 135.69 60.3262 136.005C60.6419 136.321 60.8206 136.748 60.8237 137.195Z" fill="#FBD099"/>
<path d="M57.2026 146.194H54.4071C53.7556 146.194 53.2275 146.722 53.2275 147.374V150.169C53.2275 150.821 53.7556 151.349 54.4071 151.349H57.2026C57.8541 151.349 58.3822 150.821 58.3822 150.169V147.374C58.3822 146.722 57.8541 146.194 57.2026 146.194Z" fill="#263536"/>
<path d="M65.7056 156.927H75.6256C76.0823 156.927 76.5204 157.109 76.8433 157.432C77.1663 157.755 77.3477 158.193 77.3477 158.649V163.368C77.3477 163.821 77.1675 164.256 76.8468 164.577C76.526 164.898 76.091 165.078 75.6374 165.078H65.6938C65.2402 165.078 64.8051 164.898 64.4844 164.577C64.1636 164.256 63.9834 163.821 63.9834 163.368V158.649C63.9819 158.423 64.0253 158.198 64.1113 157.989C64.1973 157.779 64.3241 157.588 64.4843 157.428C64.6446 157.268 64.835 157.141 65.0447 157.055C65.2543 156.969 65.479 156.926 65.7056 156.927Z" fill="white"/>
<path d="M77.7395 156.798C77.7395 156.992 77.6624 157.178 77.5253 157.315C77.3881 157.452 77.2021 157.529 77.0082 157.529H64.328C64.134 157.529 63.948 157.452 63.8109 157.315C63.6737 157.178 63.5967 156.992 63.5967 156.798C63.5967 156.604 63.6737 156.418 63.8109 156.281C63.948 156.143 64.134 156.066 64.328 156.066H77.0082C77.2021 156.066 77.3881 156.143 77.5253 156.281C77.6624 156.418 77.7395 156.604 77.7395 156.798Z" fill="#999999"/>
<path d="M72.7355 154.203H68.5835C68.4597 154.203 68.3594 154.303 68.3594 154.427V156.574C68.3594 156.697 68.4597 156.798 68.5835 156.798H72.7355C72.8593 156.798 72.9596 156.697 72.9596 156.574V154.427C72.9596 154.303 72.8593 154.203 72.7355 154.203Z" fill="#333333"/>
<path d="M75.7814 159.322H71.4288C71.3376 159.322 71.2637 159.396 71.2637 159.487V159.794C71.2637 159.885 71.3376 159.959 71.4288 159.959H75.7814C75.8726 159.959 75.9465 159.885 75.9465 159.794V159.487C75.9465 159.396 75.8726 159.322 75.7814 159.322Z" fill="#BDC3C7"/>
<path d="M75.7814 160.691H71.4288C71.3376 160.691 71.2637 160.765 71.2637 160.856V161.151C71.2637 161.242 71.3376 161.316 71.4288 161.316H75.7814C75.8726 161.316 75.9465 161.242 75.9465 161.151V160.856C75.9465 160.765 75.8726 160.691 75.7814 160.691Z" fill="#BDC3C7"/>
<path d="M75.7814 162.046H71.4288C71.3376 162.046 71.2637 162.12 71.2637 162.212V162.506C71.2637 162.598 71.3376 162.672 71.4288 162.672H75.7814C75.8726 162.672 75.9465 162.598 75.9465 162.506V162.212C75.9465 162.12 75.8726 162.046 75.7814 162.046Z" fill="#BDC3C7"/>
<path d="M56.2717 127.427L54.9742 133.018C54.9742 133.194 54.9046 133.362 54.7808 133.485C54.6569 133.609 54.4889 133.679 54.3137 133.679H44.5706C44.3975 133.676 44.2325 133.605 44.1112 133.481C43.9898 133.358 43.9218 133.192 43.9219 133.018V127.982L44.1342 127.852C44.4216 127.687 44.7213 127.545 45.0306 127.427H54.3137C54.471 127.431 54.6221 127.489 54.7406 127.593C54.8591 127.696 54.9376 127.838 54.9624 127.993C54.9624 127.993 56.2717 127.392 56.2717 127.427Z" fill="#B5C5C6"/>
<path d="M68.4671 128.076V133.03C68.464 133.203 68.393 133.368 68.2695 133.489C68.1459 133.61 67.9797 133.678 67.8065 133.678H58.0752C57.9021 133.678 57.7358 133.61 57.6123 133.489C57.4887 133.368 57.4178 133.203 57.4147 133.03L56.1172 127.427C56.1172 127.427 57.4265 128.017 57.4265 127.981C57.4491 127.825 57.5269 127.682 57.6459 127.578C57.765 127.474 57.9173 127.416 58.0752 127.415H67.3701C67.7493 127.563 68.1128 127.749 68.4553 127.969C68.4665 128.004 68.4705 128.04 68.4671 128.076Z" fill="#B5C5C6"/>
<path d="M68.4565 127.97H43.9219L44.1342 127.84C44.4216 127.675 44.7213 127.533 45.0306 127.415C45.3845 127.274 45.7856 127.144 46.2102 127.014C48.5077 126.433 50.8602 126.097 53.2285 126.012C54.1722 126.012 55.1512 125.929 56.1656 125.929C59.006 125.903 61.8422 126.152 64.6348 126.672C65.2557 126.788 65.87 126.938 66.4748 127.12C66.7815 127.215 67.0764 127.309 67.3359 127.415C67.5954 127.521 67.9021 127.663 68.138 127.793L68.4565 127.97Z" fill="#455556"/>
<path d="M67.0753 163.238H65.6716C65.649 163.238 65.627 163.231 65.6082 163.219C65.5893 163.206 65.5745 163.188 65.5655 163.168L64.8577 161.988C64.8461 161.971 64.8398 161.95 64.8398 161.929C64.8398 161.908 64.8461 161.888 64.8577 161.87L65.5655 160.691C65.5822 160.683 65.6003 160.679 65.6185 160.679C65.6368 160.679 65.6549 160.683 65.6716 160.691H67.0753C67.1093 160.677 67.1474 160.677 67.1814 160.691L67.8774 161.87C67.889 161.888 67.8953 161.908 67.8953 161.929C67.8953 161.95 67.889 161.971 67.8774 161.988L67.1814 163.168C67.1713 163.188 67.1563 163.205 67.1377 163.217C67.1191 163.229 67.0976 163.237 67.0753 163.238ZM65.7424 163.038H67.0045L67.6533 161.858L67.0281 160.773H65.7424L65.1172 161.858L65.7424 163.038Z" fill="#354546"/>
<path d="M69.1753 162.024H67.7716C67.749 162.024 67.727 162.017 67.7081 162.004C67.6893 161.992 67.6745 161.974 67.6655 161.953L66.9695 160.774C66.9581 160.754 66.9521 160.732 66.9521 160.709C66.9521 160.686 66.9581 160.664 66.9695 160.644L67.6655 159.464C67.6822 159.457 67.7002 159.453 67.7185 159.453C67.7368 159.453 67.7549 159.457 67.7716 159.464H69.1753C69.192 159.457 69.2101 159.453 69.2284 159.453C69.2467 159.453 69.2647 159.457 69.2814 159.464L69.9892 160.644C70.0006 160.664 70.0066 160.686 70.0066 160.709C70.0066 160.732 70.0006 160.754 69.9892 160.774L69.2814 161.953C69.2724 161.974 69.2576 161.992 69.2388 162.004C69.2199 162.017 69.1979 162.024 69.1753 162.024ZM67.8424 161.776H69.1045L69.7297 160.679L69.1045 159.594H67.8424L67.2172 160.679L67.8424 161.776Z" fill="#354546"/>
<path d="M65.6587 160.809C65.6247 160.823 65.5866 160.823 65.5526 160.809L65.2105 160.196C65.1889 160.174 65.1768 160.144 65.1768 160.113C65.1768 160.083 65.1889 160.053 65.2105 160.031C65.2345 160.009 65.2661 159.996 65.2989 159.996C65.3318 159.996 65.3634 160.009 65.3874 160.031L65.7413 160.632C65.7614 160.658 65.7723 160.689 65.7723 160.721C65.7723 160.753 65.7614 160.784 65.7413 160.809H65.6587Z" fill="#354546"/>
<path d="M67.7937 159.617C67.777 159.624 67.7589 159.628 67.7406 159.628C67.7223 159.628 67.7042 159.624 67.6875 159.617L67.3337 159.015C67.3113 158.991 67.2988 158.96 67.2988 158.927C67.2988 158.894 67.3113 158.862 67.3337 158.838C67.3557 158.817 67.3854 158.805 67.4162 158.805C67.4471 158.805 67.4768 158.817 67.4988 158.838L67.8527 159.44C67.875 159.464 67.8875 159.496 67.8875 159.528C67.8875 159.561 67.875 159.593 67.8527 159.617H67.7937Z" fill="#354546"/>
<path d="M69.5759 162.683C69.5533 162.683 69.5313 162.676 69.5124 162.663C69.4936 162.651 69.4788 162.633 69.4698 162.612L69.1159 162.011C69.0935 161.987 69.0811 161.955 69.0811 161.922C69.0811 161.889 69.0935 161.858 69.1159 161.834C69.1391 161.815 69.1683 161.804 69.1985 161.804C69.2286 161.804 69.2578 161.815 69.281 161.834L69.6349 162.447C69.6565 162.469 69.6686 162.499 69.6686 162.53C69.6686 162.561 69.6565 162.59 69.6349 162.612L69.5759 162.683Z" fill="#354546"/>
<path d="M69.3393 160.679C69.3226 160.687 69.3045 160.691 69.2862 160.691C69.268 160.691 69.2499 160.687 69.2332 160.679L68.8793 160.078C68.8694 160.063 68.8627 160.046 68.8595 160.029C68.8563 160.012 68.8568 159.994 68.8608 159.976C68.8648 159.959 68.8723 159.943 68.8829 159.929C68.8934 159.914 68.9068 159.902 68.9222 159.893C68.9375 159.885 68.9545 159.879 68.9722 159.877C68.9898 159.875 69.0076 159.876 69.0246 159.882C69.0416 159.887 69.0574 159.895 69.0709 159.907C69.0845 159.918 69.0955 159.932 69.1034 159.948L69.4455 160.55C69.4679 160.574 69.4803 160.605 69.4803 160.638C69.4803 160.671 69.4679 160.703 69.4455 160.727L69.3393 160.679Z" fill="#354546"/>
<path d="M67.653 160.678C67.6306 160.654 67.6182 160.623 67.6182 160.59C67.6182 160.557 67.6306 160.526 67.653 160.501L68.0069 159.9C68.0289 159.878 68.0586 159.866 68.0894 159.866C68.1203 159.866 68.15 159.878 68.172 159.9C68.1944 159.924 68.2069 159.956 68.2069 159.988C68.2069 160.021 68.1944 160.053 68.172 160.077L67.8181 160.678C67.7949 160.698 67.7657 160.708 67.7356 160.708C67.7054 160.708 67.6762 160.698 67.653 160.678Z" fill="#354546"/>
<path d="M65.568 161.941C65.5457 161.917 65.5332 161.885 65.5332 161.853C65.5332 161.82 65.5457 161.788 65.568 161.764L65.9219 161.163C65.9439 161.141 65.9736 161.129 66.0045 161.129C66.0353 161.129 66.065 161.141 66.087 161.163C66.1094 161.187 66.1219 161.218 66.1219 161.251C66.1219 161.284 66.1094 161.316 66.087 161.34L65.745 161.941C65.7185 161.958 65.6878 161.967 65.6565 161.967C65.6252 161.967 65.5945 161.958 65.568 161.941Z" fill="#354546"/>
<path d="M69.1628 159.617C69.1404 159.593 69.1279 159.561 69.1279 159.528C69.1279 159.496 69.1404 159.464 69.1628 159.44L69.5166 158.838C69.5387 158.817 69.5683 158.805 69.5992 158.805C69.6301 158.805 69.6597 158.817 69.6818 158.838C69.7042 158.862 69.7166 158.894 69.7166 158.927C69.7166 158.96 69.7042 158.991 69.6818 159.015L69.3279 159.617C69.3047 159.636 69.2755 159.647 69.2453 159.647C69.2152 159.647 69.186 159.636 69.1628 159.617Z" fill="#354546"/>
<path d="M69.8465 160.809C69.8141 160.809 69.7828 160.797 69.7587 160.775C69.7347 160.753 69.7197 160.723 69.7168 160.691C69.7168 160.656 69.7305 160.623 69.7548 160.599C69.7791 160.575 69.8121 160.561 69.8465 160.561H70.5425C70.5589 160.559 70.5756 160.561 70.5913 160.566C70.607 160.572 70.6214 160.58 70.6336 160.591C70.6459 160.602 70.6556 160.616 70.6623 160.631C70.6689 160.646 70.6723 160.663 70.6722 160.679C70.6722 160.714 70.6586 160.747 70.6342 160.771C70.6099 160.795 70.5769 160.809 70.5425 160.809H69.8465Z" fill="#354546"/>
</svg>
