<svg width="200" height="200" viewBox="0 0 200 200" fill="none" xmlns="http://www.w3.org/2000/svg">
<circle opacity="0.2" cx="100" cy="100" r="100" fill="#4B0731"/>
<circle cx="100" cy="100" r="90" fill="#936A83"/>
<g clip-path="url(#clip0)">
<path d="M68.4301 121C68.4321 122.292 68.0505 123.556 67.3338 124.632C66.617 125.707 65.5973 126.546 64.4037 127.041C63.21 127.536 61.8963 127.667 60.6286 127.415C59.361 127.163 58.1966 126.541 57.2827 125.627C56.3689 124.714 55.7467 123.549 55.4951 122.281C55.2435 121.014 55.3736 119.7 55.8691 118.506C56.3646 117.313 57.2031 116.293 58.2785 115.576C59.3539 114.86 60.6178 114.478 61.9101 114.48C62.7663 114.48 63.6142 114.649 64.4052 114.976C65.1962 115.304 65.915 115.784 66.5204 116.39C67.1259 116.995 67.6061 117.714 67.9338 118.505C68.2615 119.296 68.4301 120.144 68.4301 121Z" fill="#514260"/>
<path d="M157.54 60.45C157.542 65.0904 156.168 69.6271 153.591 73.4864C151.015 77.3457 147.351 80.3542 143.065 82.1313C138.778 83.9085 134.061 84.3745 129.509 83.4704C124.958 82.5664 120.777 80.3328 117.495 77.0523C114.213 73.7717 111.978 69.5916 111.072 65.0405C110.166 60.4894 110.63 55.7719 112.405 51.4846C114.18 47.1972 117.187 43.5327 121.045 40.9544C124.904 38.3762 129.44 37 134.08 37C140.3 37 146.266 39.4703 150.665 43.8677C155.065 48.2652 157.537 54.2298 157.54 60.45Z" fill="#514260"/>
<path d="M144.28 51.2899C144.089 51.2899 143.906 51.214 143.771 51.079C143.636 50.944 143.56 50.7608 143.56 50.5699V46.2899H135.78L132.17 49.9999C132.031 50.0938 131.864 50.1366 131.698 50.1207C131.531 50.1049 131.375 50.0315 131.257 49.9131C131.138 49.7947 131.065 49.6388 131.049 49.4721C131.033 49.3054 131.076 49.1384 131.17 48.9999L134.99 45.0999C135.055 45.0304 135.135 44.975 135.222 44.9371C135.31 44.8993 135.404 44.8798 135.5 44.8799H144.31C144.502 44.8799 144.686 44.9554 144.823 45.0901C144.959 45.2249 145.037 45.408 145.04 45.5999V50.5999C145.03 50.7918 144.944 50.9718 144.802 51.101C144.659 51.2302 144.472 51.2981 144.28 51.2899Z" fill="#F8BE49"/>
<path d="M126.432 47.8334L122.105 52.1616L129.213 59.2668L133.54 54.9386L126.432 47.8334Z" fill="#E6A729"/>
<path d="M144 48.5999H131.89C131.639 48.598 131.396 48.6909 131.21 48.8599L122.39 57.1999C122.294 57.2917 122.217 57.4017 122.164 57.5237C122.11 57.6456 122.082 57.7769 122.08 57.9099V73.9999C122.08 74.2651 122.185 74.5195 122.373 74.707C122.561 74.8945 122.815 74.9999 123.08 74.9999H144.08C144.345 74.9999 144.6 74.8945 144.787 74.707C144.975 74.5195 145.08 74.2651 145.08 73.9999V49.5799C145.078 49.4433 145.048 49.3085 144.991 49.184C144.935 49.0596 144.853 48.948 144.752 48.8561C144.651 48.7643 144.532 48.6942 144.403 48.6501C144.273 48.606 144.136 48.5889 144 48.5999Z" fill="#F8BE49"/>
<path d="M141.32 52.8301H132.32C132.137 52.8341 131.963 52.9054 131.83 53.0301L125.28 59.2201C125.206 59.287 125.147 59.3689 125.108 59.4603C125.068 59.5517 125.048 59.6505 125.05 59.7501V71.6701C125.05 71.8638 125.127 72.0494 125.264 72.1863C125.401 72.3232 125.586 72.4001 125.78 72.4001H141.33C141.524 72.4001 141.709 72.3232 141.846 72.1863C141.983 72.0494 142.06 71.8638 142.06 71.6701V53.5601C142.06 53.4634 142.041 53.3677 142.003 53.2785C141.966 53.1892 141.911 53.1083 141.843 53.0404C141.774 52.9725 141.692 52.9189 141.602 52.8828C141.513 52.8467 141.417 52.8288 141.32 52.8301Z" fill="#E6A729"/>
<path d="M127.119 46.6699L128.529 48.0799C128.691 48.247 128.789 48.4652 128.808 48.697C128.826 48.9287 128.763 49.1596 128.629 49.3499L128.529 49.4699L123.769 54.2299L123.649 54.3299C123.459 54.4635 123.228 54.5266 122.996 54.5083C122.764 54.4901 122.546 54.3917 122.379 54.2299L120.999 52.8199C120.838 52.6529 120.739 52.4347 120.721 52.2029C120.703 51.9711 120.766 51.7402 120.899 51.5499L120.999 51.4299L125.759 46.6699L125.889 46.5699C126.076 46.4466 126.299 46.3895 126.522 46.4076C126.745 46.4257 126.955 46.5181 127.119 46.6699Z" fill="#F8BE49"/>
<path d="M121.32 51.0801L124.12 53.8801L123.77 54.2301L123.65 54.3301L120.87 51.5501L120.97 51.4301L121.32 51.0801Z" fill="#E6A729"/>
<path d="M122.835 49.5879L122.375 50.0474L125.174 52.8485L125.634 52.389L122.835 49.5879Z" fill="#E6A729"/>
<path d="M124.336 48.0678L123.876 48.5273L126.676 51.328L127.135 50.8684L124.336 48.0678Z" fill="#E6A729"/>
<path d="M125.86 46.5698L128.63 49.3498L128.53 49.4698L128.18 49.8198L125.38 46.9998L125.73 46.6498L125.86 46.5698Z" fill="#E6A729"/>
<path d="M140.52 63.1499C140.52 64.5344 140.109 65.8877 139.34 67.0389C138.571 68.19 137.477 69.0872 136.198 69.6171C134.919 70.1469 133.512 70.2855 132.154 70.0154C130.796 69.7453 129.549 69.0786 128.57 68.0996C127.591 67.1207 126.924 65.8734 126.654 64.5155C126.384 63.1577 126.523 61.7502 127.052 60.4711C127.582 59.192 128.479 58.0988 129.631 57.3296C130.782 56.5604 132.135 56.1499 133.52 56.1499C135.376 56.1499 137.157 56.8874 138.469 58.2002C139.782 59.5129 140.52 61.2934 140.52 63.1499Z" fill="#E9EFF7"/>
<path d="M136.06 64.54C136.06 66.54 134.93 68.09 133.54 68.09C132.15 68.09 131 66.5 131 64.54C131 62.58 133.51 58.21 133.51 58.21C133.51 58.21 136.06 62.58 136.06 64.54Z" fill="#2C3A48"/>
<path d="M135.24 64.6102C135.24 65.2702 134.86 65.8102 134.39 65.8102C133.92 65.8102 133.54 65.2702 133.54 64.6102C133.702 63.8543 133.989 63.1309 134.39 62.4702C134.791 63.1309 135.079 63.8543 135.24 64.6102Z" fill="#514260"/>
<path d="M141.71 50.7002H141.5C140.958 50.7002 140.52 51.139 140.52 51.6802V57.6502C140.52 58.1914 140.958 58.6302 141.5 58.6302H141.71C142.251 58.6302 142.69 58.1914 142.69 57.6502V51.6802C142.69 51.139 142.251 50.7002 141.71 50.7002Z" fill="#514260"/>
<path d="M104.49 107.36V159.6C104.49 161.96 97.0796 163.87 87.9596 163.87C85.2842 163.881 82.6112 163.707 79.9596 163.35C74.8496 162.62 71.3896 161.21 71.3896 159.6V107.36H104.49Z" fill="#3C4A58"/>
<path d="M104.489 107.36C104.489 109.73 97.0895 111.64 87.9595 111.64C78.8295 111.64 71.4395 109.73 71.4395 107.36C71.4395 104.99 78.8395 103.08 87.9595 103.08C97.0795 103.08 104.489 105 104.489 107.36Z" fill="#5C6A78"/>
<path d="M103.499 107.28C103.499 109.22 96.5995 110.79 88.0895 110.79C79.5795 110.79 72.6895 109.22 72.6895 107.28C72.6895 105.34 79.5795 103.78 88.0895 103.78C96.5995 103.78 103.499 105.35 103.499 107.28Z" fill="#3C4A58"/>
<path d="M93.7295 122.76C93.7314 123.903 93.3937 125.022 92.7591 125.973C92.1245 126.924 91.2216 127.665 90.1651 128.102C89.1086 128.539 87.9461 128.652 86.8251 128.427C85.7041 128.203 84.6751 127.65 83.8688 126.839C83.0625 126.029 82.5151 124.997 82.2962 123.875C82.0773 122.753 82.1967 121.591 82.6393 120.537C83.0818 119.482 83.8276 118.583 84.7819 117.954C85.7363 117.324 86.8562 116.992 87.9994 117C89.5211 117.011 90.9769 117.622 92.0501 118.701C93.1233 119.779 93.7269 121.238 93.7295 122.76Z" fill="#D9E5F2"/>
<path d="M89.9996 123.91C89.9996 125.53 89.0696 126.84 87.9196 126.84C86.7696 126.84 85.8496 125.53 85.8496 123.91C85.8496 122.29 87.9996 118.67 87.9996 118.67C87.9996 118.67 89.9996 122.29 89.9996 123.91Z" fill="#3C4A58"/>
<path d="M89.37 124C89.37 124.55 89.05 125 88.66 125C88.27 125 87.96 124.56 87.96 124C88.0931 123.379 88.3298 122.784 88.66 122.24C88.9943 122.783 89.2344 123.378 89.37 124Z" fill="#514260"/>
<path d="M98.0002 159.61H97.2402V110.54C97.2402 110.242 97.1225 109.956 96.9127 109.745C96.703 109.533 96.4181 109.413 96.1202 109.41H95.7802C95.4822 109.413 95.1973 109.533 94.9876 109.745C94.7778 109.956 94.6601 110.242 94.6602 110.54H93.9102C93.9101 110.043 94.1068 109.567 94.4573 109.214C94.8077 108.862 95.2833 108.663 95.7802 108.66H96.1202C96.6188 108.66 97.0969 108.858 97.4495 109.211C97.8021 109.563 98.0002 110.042 98.0002 110.54V159.61Z" fill="#EF893A"/>
<path d="M102.62 158.11H101.86V109.79C101.861 109.642 101.833 109.496 101.777 109.358C101.721 109.221 101.639 109.097 101.535 108.992C101.431 108.887 101.307 108.803 101.17 108.746C101.034 108.689 100.887 108.66 100.74 108.66H100.4C100.252 108.66 100.105 108.689 99.9686 108.746C99.8321 108.803 99.7082 108.887 99.604 108.992C99.4999 109.097 99.4176 109.221 99.3619 109.358C99.3062 109.496 99.2782 109.642 99.2795 109.79H98.5195C98.5195 109.292 98.7176 108.813 99.0702 108.461C99.4227 108.108 99.9009 107.91 100.4 107.91H100.74C101.238 107.91 101.716 108.108 102.069 108.461C102.421 108.813 102.62 109.292 102.62 109.79V158.11Z" fill="#EF893A"/>
<path d="M102.16 114.676L97.5693 115.683L97.73 116.415L102.321 115.408L102.16 114.676Z" fill="#EF893A"/>
<path d="M102.168 119.694L97.5771 120.701L97.7379 121.434L102.329 120.426L102.168 119.694Z" fill="#EF893A"/>
<path d="M102.168 124.71L97.5771 125.719L97.7381 126.451L102.329 125.443L102.168 124.71Z" fill="#EF893A"/>
<path d="M102.163 129.723L97.5723 130.732L97.7332 131.464L102.324 130.456L102.163 129.723Z" fill="#EF893A"/>
<path d="M102.165 134.743L97.5742 135.751L97.735 136.484L102.326 135.476L102.165 134.743Z" fill="#EF893A"/>
<path d="M102.165 139.773L97.5742 140.78L97.7349 141.513L102.326 140.506L102.165 139.773Z" fill="#EF893A"/>
<path d="M102.154 144.794L97.5625 145.8L97.723 146.532L102.314 145.526L102.154 144.794Z" fill="#EF893A"/>
<path d="M102.159 149.809L97.5684 150.818L97.7294 151.55L102.32 150.541L102.159 149.809Z" fill="#EF893A"/>
<path d="M102.173 154.804L97.583 155.814L97.7442 156.547L102.334 155.537L102.173 154.804Z" fill="#EF893A"/>
<path d="M138.63 107.36V159.6C138.63 161.96 131.22 163.87 122.1 163.87C119.425 163.88 116.752 163.706 114.1 163.35C109.01 162.62 105.54 161.21 105.54 159.6V107.36H138.63Z" fill="#3C4A58"/>
<path d="M138.63 107.36C138.63 109.73 131.23 111.64 122.1 111.64C112.97 111.64 105.58 109.73 105.58 107.36C105.58 104.99 113 103.08 122.1 103.08C131.2 103.08 138.63 105 138.63 107.36Z" fill="#5C6A78"/>
<path d="M137.639 107.28C137.639 109.22 130.739 110.79 122.229 110.79C113.719 110.79 106.819 109.22 106.819 107.28C106.819 105.34 113.719 103.78 122.229 103.78C130.739 103.78 137.639 105.35 137.639 107.28Z" fill="#3C4A58"/>
<path d="M127.87 122.76C127.872 123.902 127.535 125.018 126.903 125.968C126.27 126.919 125.369 127.66 124.315 128.098C123.261 128.536 122.1 128.652 120.981 128.43C119.861 128.209 118.832 127.66 118.024 126.854C117.216 126.047 116.665 125.019 116.442 123.899C116.218 122.78 116.332 121.619 116.768 120.564C117.205 119.509 117.944 118.608 118.893 117.973C119.842 117.339 120.958 117 122.1 117C123.629 117 125.095 117.607 126.177 118.686C127.258 119.766 127.867 121.231 127.87 122.76Z" fill="#D9E5F2"/>
<path d="M124.18 123.91C124.18 125.53 123.25 126.84 122.1 126.84C120.95 126.84 120 125.53 120 123.91C120 122.29 122.08 118.67 122.08 118.67C122.08 118.67 124.18 122.29 124.18 123.91Z" fill="#3C4A58"/>
<path d="M123.5 124C123.5 124.55 123.19 125 122.8 125C122.41 125 122.1 124.56 122.1 124C122.233 123.379 122.469 122.784 122.8 122.24C123.13 122.784 123.366 123.379 123.5 124Z" fill="#514260"/>
<path d="M132.16 159.61H131.41V110.54C131.41 110.24 131.291 109.953 131.079 109.741C130.867 109.529 130.58 109.41 130.28 109.41H130C129.701 109.413 129.415 109.533 129.204 109.744C128.993 109.955 128.873 110.241 128.87 110.54H128.12C128.12 110.293 128.169 110.049 128.263 109.821C128.358 109.593 128.496 109.385 128.671 109.211C128.845 109.036 129.053 108.898 129.281 108.803C129.509 108.709 129.753 108.66 130 108.66H130.33C130.829 108.66 131.307 108.858 131.659 109.211C132.012 109.563 132.21 110.042 132.21 110.54L132.16 159.61Z" fill="#EF893A"/>
<path d="M136.75 158.11H136V109.79C136.001 109.642 135.973 109.496 135.918 109.358C135.862 109.221 135.78 109.097 135.676 108.992C135.572 108.887 135.448 108.803 135.311 108.746C135.175 108.689 135.028 108.66 134.88 108.66H134.54C134.24 108.66 133.953 108.779 133.741 108.991C133.529 109.203 133.41 109.49 133.41 109.79H132.66C132.66 109.292 132.858 108.813 133.211 108.461C133.563 108.108 134.042 107.91 134.54 107.91H134.88C135.377 107.913 135.853 108.112 136.203 108.464C136.553 108.817 136.75 109.293 136.75 109.79V158.11Z" fill="#EF893A"/>
<path d="M136.294 114.676L131.702 115.677L131.862 116.41L136.454 115.409L136.294 114.676Z" fill="#EF893A"/>
<path d="M136.305 119.689L131.713 120.691L131.873 121.424L136.465 120.422L136.305 119.689Z" fill="#EF893A"/>
<path d="M136.296 124.724L131.704 125.726L131.864 126.458L136.456 125.456L136.296 124.724Z" fill="#EF893A"/>
<path d="M136.294 129.738L131.702 130.74L131.862 131.473L136.454 130.471L136.294 129.738Z" fill="#EF893A"/>
<path d="M136.304 134.743L131.712 135.745L131.872 136.478L136.464 135.476L136.304 134.743Z" fill="#EF893A"/>
<path d="M136.299 139.76L131.707 140.761L131.867 141.494L136.459 140.493L136.299 139.76Z" fill="#EF893A"/>
<path d="M136.293 144.788L131.701 145.788L131.861 146.521L136.453 145.52L136.293 144.788Z" fill="#EF893A"/>
<path d="M136.298 149.801L131.706 150.805L131.866 151.537L136.458 150.534L136.298 149.801Z" fill="#EF893A"/>
<path d="M136.298 154.815L131.706 155.819L131.866 156.552L136.458 155.548L136.298 154.815Z" fill="#EF893A"/>
<path d="M121.55 120.41V172.64C121.55 175 114.15 176.92 105.03 176.92C102.354 176.928 99.6812 176.751 97.03 176.39C91.93 175.67 88.46 174.26 88.46 172.64V120.41H121.55Z" fill="#2C3A48"/>
<path d="M121.55 120.41C121.55 122.77 114.16 124.69 105.03 124.69C95.8998 124.69 88.5098 122.77 88.5098 120.41C88.5098 118.05 95.9098 116.12 105.03 116.12C114.15 116.12 121.55 118 121.55 120.41Z" fill="#4D5A68"/>
<path d="M120.57 120.33C120.57 122.26 113.67 123.83 105.16 123.83C96.6498 123.83 89.7598 122.26 89.7598 120.33C89.7598 118.4 96.6498 116.82 105.16 116.82C113.67 116.82 120.57 118.39 120.57 120.33Z" fill="#2C3A48"/>
<path d="M110.8 135.8C110.794 136.939 110.451 138.05 109.815 138.994C109.178 139.939 108.277 140.674 107.224 141.107C106.171 141.54 105.013 141.651 103.897 141.428C102.78 141.204 101.755 140.655 100.95 139.85C100.145 139.045 99.5957 138.02 99.3721 136.903C99.1485 135.787 99.2603 134.629 99.6932 133.576C100.126 132.523 100.861 131.621 101.805 130.985C102.75 130.349 103.861 130.006 105 130C105.762 129.996 106.518 130.143 107.224 130.433C107.929 130.724 108.57 131.151 109.11 131.69C109.649 132.229 110.076 132.87 110.366 133.576C110.656 134.281 110.804 135.037 110.8 135.8Z" fill="#E9EFF7"/>
<path d="M107.11 137C107.11 138.62 106.18 139.94 105.03 139.94C103.88 139.94 103 138.57 103 137C103 135.43 105 131.72 105 131.72C105 131.72 107.11 135.33 107.11 137Z" fill="#2C3A48"/>
<path d="M106.429 137C106.429 137.55 106.119 138 105.729 138C105.339 138 105.029 137.56 105.029 137C105.163 136.375 105.4 135.777 105.729 135.23C106.059 135.777 106.296 136.375 106.429 137Z" fill="#514260"/>
<path d="M115.09 172.66H114.34V123.58C114.34 123.283 114.222 122.998 114.012 122.788C113.802 122.578 113.517 122.46 113.22 122.46H112.88C112.582 122.46 112.296 122.578 112.084 122.787C111.873 122.997 111.753 123.282 111.75 123.58H111C111.003 123.083 111.202 122.607 111.554 122.257C111.906 121.907 112.383 121.71 112.88 121.71H113.22C113.716 121.71 114.192 121.907 114.542 122.258C114.893 122.608 115.09 123.084 115.09 123.58V172.66Z" fill="#EF893A"/>
<path d="M119.68 171.15H118.93V122.83C118.93 122.683 118.901 122.537 118.845 122.401C118.788 122.266 118.706 122.142 118.602 122.038C118.498 121.934 118.374 121.852 118.238 121.795C118.103 121.739 117.957 121.71 117.81 121.71H117.47C117.323 121.71 117.177 121.739 117.041 121.795C116.905 121.852 116.782 121.934 116.678 122.038C116.574 122.142 116.491 122.266 116.435 122.401C116.379 122.537 116.35 122.683 116.35 122.83H115.59C115.603 122.34 115.807 121.875 116.158 121.533C116.509 121.191 116.98 121 117.47 121H117.81C118.307 121.003 118.782 121.202 119.133 121.554C119.483 121.906 119.68 122.383 119.68 122.88V171.15Z" fill="#EF893A"/>
<path d="M114.8 129.46L114.64 128.73L119.23 127.72L119.39 128.46L114.8 129.46Z" fill="#EF893A"/>
<path d="M119.233 132.735L114.64 133.732L114.799 134.465L119.392 133.468L119.233 132.735Z" fill="#EF893A"/>
<path d="M114.8 139.5L114.64 138.76L119.23 137.76L119.39 138.49L114.8 139.5Z" fill="#EF893A"/>
<path d="M114.8 144.51L114.64 143.78L119.23 142.78L119.39 143.51L114.8 144.51Z" fill="#EF893A"/>
<path d="M119.231 147.802L114.639 148.801L114.798 149.534L119.391 148.535L119.231 147.802Z" fill="#EF893A"/>
<path d="M114.8 154.55L114.64 153.81L119.23 152.81L119.39 153.55L114.8 154.55Z" fill="#EF893A"/>
<path d="M114.8 159.57L114.64 158.83L119.23 157.83L119.39 158.56L114.8 159.57Z" fill="#EF893A"/>
<path d="M114.8 164.59L114.64 163.85L119.23 162.85L119.39 163.58L114.8 164.59Z" fill="#EF893A"/>
<path d="M114.8 169.6L114.64 168.87L119.23 167.87L119.39 168.6L114.8 169.6Z" fill="#EF893A"/>
<path d="M113.049 164.06C113.049 164.511 112.87 164.943 112.551 165.262C112.233 165.581 111.8 165.76 111.349 165.76C110.899 165.76 110.466 165.581 110.147 165.262C109.829 164.943 109.649 164.511 109.649 164.06V146.48C109.652 146.031 109.832 145.601 110.151 145.284C110.469 144.968 110.9 144.79 111.349 144.79C111.799 144.79 112.229 144.968 112.548 145.284C112.866 145.601 113.047 146.031 113.049 146.48V164.06Z" fill="#514260"/>
<path d="M158 105C158 111.25 154.41 116.32 150 116.32C145.59 116.32 142 111.25 142 105C142 98.7501 150 84.8101 150 84.8101C150 84.8101 158 98.7901 158 105Z" fill="#2C3A48"/>
<path d="M155 107.61C155 109.61 153.89 111.14 152.51 111.14C151.13 111.14 150.01 109.56 150.01 107.61C150.01 105.66 152.51 101.32 152.51 101.32C152.51 101.32 155 105.66 155 107.61Z" fill="#F5F5F5"/>
<path d="M51.4226 106.708C63.9873 106.344 73.8779 95.8632 73.5137 83.2985C73.1496 70.7338 62.6687 60.8432 50.104 61.2074C37.5392 61.5715 27.6487 72.0524 28.0128 84.6171C28.377 97.1819 38.8579 107.072 51.4226 106.708Z" fill="#514260"/>
<path d="M56.5695 67.6299H43.1295C42.0802 67.6299 41.2295 68.4805 41.2295 69.5299V95.9299C41.2295 96.9792 42.0802 97.8299 43.1295 97.8299H56.5695C57.6188 97.8299 58.4695 96.9792 58.4695 95.9299V69.5299C58.4695 68.4805 57.6188 67.6299 56.5695 67.6299Z" fill="#F8BE49"/>
<path d="M44.2101 69.1802H55.7501C56.1851 69.1802 56.6022 69.353 56.9098 69.6605C57.2173 69.9681 57.3901 70.3852 57.3901 70.8202V93.4902C57.3901 93.9251 57.2173 94.3423 56.9098 94.6498C56.6022 94.9574 56.1851 95.1302 55.7501 95.1302H44.2101C43.7778 95.1302 43.3632 94.9584 43.0575 94.6528C42.7518 94.3471 42.5801 93.9325 42.5801 93.5002V70.8202C42.5788 70.6053 42.62 70.3922 42.7013 70.1933C42.7826 69.9944 42.9025 69.8135 43.054 69.6611C43.2055 69.5087 43.3856 69.3877 43.584 69.3052C43.7824 69.2227 43.9952 69.1802 44.2101 69.1802Z" fill="#E6A729"/>
<path d="M53.85 71.1899H46.36C45.3106 71.1899 44.46 72.0406 44.46 73.0899V76.2299C44.46 77.2793 45.3106 78.1299 46.36 78.1299H53.85C54.8993 78.1299 55.75 77.2793 55.75 76.2299V73.0899C55.75 72.0406 54.8993 71.1899 53.85 71.1899Z" fill="#C5D3E1"/>
<path d="M46.6798 79.7798H45.7298C45.3764 79.7798 45.0898 80.0663 45.0898 80.4198V81.3698C45.0898 81.7232 45.3764 82.0098 45.7298 82.0098H46.6798C47.0333 82.0098 47.3198 81.7232 47.3198 81.3698V80.4198C47.3198 80.0663 47.0333 79.7798 46.6798 79.7798Z" fill="#4D5A68"/>
<path d="M49.1798 82.5898H45.7298C45.3764 82.5898 45.0898 82.8764 45.0898 83.2298V83.8998C45.0898 84.2533 45.3764 84.5398 45.7298 84.5398H49.1798C49.5333 84.5398 49.8198 84.2533 49.8198 83.8998V83.2298C49.8198 82.8764 49.5333 82.5898 49.1798 82.5898Z" fill="#3C4A58"/>
<path d="M53.85 86.4102H46.36C45.3106 86.4102 44.46 87.2608 44.46 88.3102V95.1202C44.46 96.1695 45.3106 97.0202 46.36 97.0202H53.85C54.8993 97.0202 55.75 96.1695 55.75 95.1202V88.3102C55.75 87.2608 54.8993 86.4102 53.85 86.4102Z" fill="#F8BE49"/>
<path d="M60.3793 94.54H38.6693C38.0397 94.54 37.5293 95.0504 37.5293 95.68V98.36C37.5293 98.9896 38.0397 99.5 38.6693 99.5H60.3793C61.0089 99.5 61.5193 98.9896 61.5193 98.36V95.68C61.5193 95.0504 61.0089 94.54 60.3793 94.54Z" fill="#4D5A68"/>
<path d="M54.5496 76.6098C54.5496 76.7955 54.4759 76.9735 54.3446 77.1048C54.2133 77.2361 54.0353 77.3098 53.8496 77.3098C53.7569 77.3112 53.6648 77.294 53.5787 77.2595C53.4926 77.2249 53.4143 77.1735 53.3482 77.1084C53.2821 77.0432 53.2297 76.9656 53.1939 76.88C53.1581 76.7945 53.1396 76.7026 53.1396 76.6098V72.7098C53.1396 72.6171 53.1581 72.5252 53.1939 72.4396C53.2297 72.354 53.2821 72.2764 53.3482 72.2113C53.4143 72.1462 53.4926 72.0948 53.5787 72.0602C53.6648 72.0256 53.7569 72.0085 53.8496 72.0098C54.0353 72.0098 54.2133 72.0836 54.3446 72.2149C54.4759 72.3461 54.5496 72.5242 54.5496 72.7098V76.6098Z" fill="#514260"/>
<path d="M61.4101 92.7901C60.8045 92.7901 60.2235 92.5502 59.7944 92.1229C59.3652 91.6956 59.1228 91.1157 59.1201 90.5101V76.7701L59.3901 76.5901C60.0001 76.2301 61.9101 75.0001 62.8301 75.0001C62.9406 74.9932 63.0513 75.0091 63.1555 75.0468C63.2596 75.0844 63.3549 75.143 63.4355 75.2189C63.5161 75.2948 63.5802 75.3864 63.624 75.4881C63.6678 75.5898 63.6903 75.6994 63.6901 75.8101V90.5101C63.6901 90.8095 63.6311 91.106 63.5166 91.3826C63.402 91.6592 63.234 91.9106 63.0223 92.1223C62.8106 92.334 62.5593 92.5019 62.2826 92.6165C62.006 92.7311 61.7095 92.7901 61.4101 92.7901ZM60.2801 77.4001V90.5101C60.2653 90.6667 60.2834 90.8247 60.3332 90.974C60.383 91.1232 60.4635 91.2605 60.5694 91.3768C60.6753 91.4932 60.8043 91.5862 60.9482 91.6498C61.0922 91.7134 61.2478 91.7463 61.4051 91.7463C61.5625 91.7463 61.7181 91.7134 61.862 91.6498C62.0059 91.5862 62.1349 91.4932 62.2408 91.3768C62.3468 91.2605 62.4272 91.1232 62.477 90.974C62.5268 90.8247 62.5449 90.6667 62.5301 90.5101V76.2401C61.7464 76.5576 60.9933 76.9459 60.2801 77.4001Z" fill="#3C4A58"/>
<path d="M59.8598 78.0001C59.3498 78.0001 58.4398 76.5701 58.4398 76.0801C58.4352 75.9573 58.4741 75.8369 58.5498 75.7401C58.5974 75.6897 58.6547 75.6495 58.7183 75.622C58.782 75.5945 58.8505 75.5802 58.9198 75.5801C59.1062 75.5789 59.2909 75.6156 59.4628 75.6877C59.6347 75.7599 59.7902 75.8662 59.9198 76.0001C60.0477 76.1319 60.1466 76.2889 60.2103 76.4611C60.274 76.6333 60.3011 76.8169 60.2898 77.0001V77.5801C60.2948 77.6405 60.2867 77.7013 60.266 77.7582C60.2453 77.8152 60.2125 77.867 60.1698 77.9101L60.0598 78.0301L59.8598 78.0001Z" fill="#3C4A58"/>
<path d="M59.9994 71.0002C59.9626 71.0278 59.9316 71.0623 59.9082 71.1019C59.8848 71.1414 59.8694 71.1852 59.8629 71.2307C59.8564 71.2762 59.8589 71.3225 59.8703 71.367C59.8817 71.4116 59.9018 71.4534 59.9294 71.4902L61.6194 73.7802C61.6462 73.8177 61.6802 73.8496 61.7194 73.8739C61.7586 73.8983 61.8022 73.9147 61.8477 73.9221C61.8933 73.9295 61.9398 73.9279 61.9847 73.9173C62.0296 73.9066 62.072 73.8872 62.1094 73.8602C62.1473 73.8335 62.1793 73.7993 62.2035 73.7598C62.2277 73.7202 62.2436 73.6762 62.2502 73.6303C62.2567 73.5844 62.2538 73.5376 62.2417 73.4929C62.2295 73.4482 62.2083 73.4064 62.1794 73.3702L60.4894 71.0702C60.4618 71.0334 60.4272 71.0024 60.3877 70.979C60.3481 70.9556 60.3044 70.9402 60.2589 70.9337C60.2134 70.9272 60.167 70.9297 60.1225 70.9411C60.078 70.9525 60.0361 70.9726 59.9994 71.0002Z" fill="#3C4A58"/>
<path d="M63.9998 75.8802L62.1498 73.3702C61.8298 72.9402 61.6498 72.5202 61.2098 72.8402L59.9998 73.7902C59.7946 73.9472 59.6581 74.1775 59.619 74.4329C59.5798 74.6883 59.641 74.949 59.7898 75.1602L61.6398 77.6602C61.797 77.8682 62.0293 78.0066 62.2871 78.0458C62.5449 78.0851 62.8078 78.022 63.0198 77.8702L63.8598 77.2502C64.0542 77.0833 64.1772 76.8481 64.2032 76.5932C64.2293 76.3382 64.1565 76.083 63.9998 75.8802ZM60.8698 75.9802L60.0998 74.9802C60.0037 74.8469 59.9635 74.6813 59.9878 74.5188C60.0121 74.3562 60.099 74.2096 60.2298 74.1102C60.3639 74.0171 60.5281 73.9778 60.6898 74.0002C60.7706 74.0113 60.8484 74.0382 60.9187 74.0794C60.9891 74.1206 61.0506 74.1752 61.0998 74.2402L61.8698 75.2402C61.9653 75.372 62.0052 75.536 61.9809 75.6968C61.9566 75.8577 61.87 76.0026 61.7398 76.1002C61.6147 76.1924 61.4592 76.2333 61.305 76.2148C61.1507 76.1962 61.0094 76.1194 60.9098 76.0002L60.8698 75.9802Z" fill="#F8BE49"/>
<path d="M62.8501 78.2199C62.7105 78.3239 62.5356 78.3686 62.3633 78.3443C62.191 78.3199 62.0353 78.2285 61.9301 78.0899C61.8297 77.9483 61.7882 77.7733 61.8143 77.6017C61.8404 77.4301 61.9321 77.2753 62.0701 77.1699L63.9101 75.8099C64.0517 75.7095 64.2267 75.668 64.3983 75.6942C64.5699 75.7203 64.7247 75.812 64.8301 75.9499C65.0401 76.2399 65.3301 77.1199 65.0401 77.3399L62.8501 78.2199Z" fill="#F7B23F"/>
<path d="M117.839 86.4098C117.839 88.3026 117.278 90.1529 116.226 91.7267C115.175 93.3004 113.68 94.527 111.932 95.2514C110.183 95.9757 108.259 96.1652 106.402 95.796C104.546 95.4267 102.841 94.5152 101.502 93.1769C100.164 91.8385 99.2524 90.1333 98.8831 88.2769C98.5138 86.4205 98.7034 84.4963 99.4277 82.7476C100.152 80.9989 101.379 79.5042 102.952 78.4527C104.526 77.4011 106.376 76.8398 108.269 76.8398C110.807 76.8425 113.239 77.8516 115.033 79.6458C116.827 81.4399 117.837 83.8725 117.839 86.4098Z" fill="#514260"/>
<path d="M108.81 85.8899L108.16 85.2799C107.949 85.1019 107.776 84.8821 107.654 84.6342C107.532 84.3864 107.462 84.1159 107.45 83.8399C107.426 83.6442 107.461 83.4459 107.55 83.2699C107.585 83.2357 107.628 83.2098 107.675 83.1943C107.722 83.1787 107.771 83.1738 107.82 83.1799C107.88 83.1799 107.95 83.1799 108.01 83.3399C108.112 83.663 108.156 84.0015 108.14 84.3399V84.9999C108.139 85.0488 108.147 85.0976 108.165 85.1431C108.183 85.1886 108.211 85.2299 108.245 85.2646C108.28 85.2992 108.321 85.3264 108.367 85.3445C108.412 85.3626 108.461 85.3712 108.51 85.3699H109.69C109.788 85.3699 109.882 85.3309 109.952 85.2615C110.021 85.1921 110.06 85.098 110.06 84.9999V84.5699C110.06 83.0699 109.73 82.1199 109.06 81.6799C108.922 81.5957 108.774 81.5285 108.62 81.4799V80.3399C108.621 80.2909 108.613 80.2422 108.595 80.1967C108.577 80.1511 108.549 80.1098 108.515 80.0752C108.48 80.0405 108.439 80.0133 108.393 79.9952C108.348 79.9771 108.299 79.9685 108.25 79.9699H107.5C107.451 79.9685 107.401 79.9771 107.355 79.9951C107.309 80.0131 107.267 80.0401 107.232 80.0746C107.196 80.1091 107.168 80.1504 107.149 80.1959C107.13 80.2415 107.12 80.2904 107.12 80.3399V81.4499C106.32 81.6399 105.5 82.2399 105.5 83.8799C105.513 84.405 105.635 84.9216 105.859 85.3968C106.083 85.8721 106.403 86.2954 106.8 86.6399L107.12 86.9499C107.229 87.0406 107.332 87.1374 107.43 87.2399C107.668 87.438 107.862 87.6835 107.999 87.9607C108.137 88.2379 108.216 88.5407 108.23 88.8499C108.257 89.0823 108.219 89.3177 108.12 89.5299C108.12 89.5299 108.06 89.6199 107.86 89.6199C107.66 89.6199 107.52 89.1599 107.52 88.4199V87.7399C107.52 87.6417 107.481 87.5476 107.412 87.4782C107.342 87.4089 107.248 87.3699 107.15 87.3699H105.95C105.901 87.3685 105.852 87.3771 105.807 87.3952C105.761 87.4133 105.72 87.4405 105.685 87.4752C105.651 87.5098 105.623 87.5511 105.605 87.5967C105.587 87.6422 105.579 87.6909 105.58 87.7399V88.4199C105.516 89.1848 105.702 89.9499 106.11 90.5999C106.391 90.9635 106.785 91.2238 107.23 91.3399V92.4699C107.229 92.5193 107.237 92.5685 107.255 92.6145C107.273 92.6606 107.3 92.7026 107.335 92.738C107.369 92.7734 107.411 92.8016 107.456 92.8208C107.502 92.84 107.551 92.8499 107.6 92.8499H108.35C108.448 92.8499 108.542 92.8109 108.612 92.7415C108.681 92.6721 108.72 92.578 108.72 92.4799V91.3199C109.47 91.0999 110.23 90.4799 110.23 88.8499C110.216 88.2841 110.082 87.7277 109.838 87.2175C109.593 86.7072 109.243 86.2547 108.81 85.8899Z" fill="#F8BE49"/>
<path d="M97.0797 48.1699V78.2199C97.0797 80.1299 91.0796 81.6799 83.7296 81.6799C81.5823 81.6855 79.4371 81.5418 77.3097 81.2499C73.1897 80.6699 70.3896 79.5299 70.3896 78.2499V48.2499L97.0797 48.1699Z" fill="#2C3A48"/>
<path d="M97.0797 48.17C97.0797 50.08 91.0797 51.63 83.7397 51.63C76.3997 51.63 70.3896 50.08 70.3896 48.17C70.3896 46.26 76.3897 44.71 83.7397 44.71C91.0897 44.71 97.0797 46.26 97.0797 48.17Z" fill="#4D5A68"/>
<path d="M90.4898 44.3899C88.2511 44.0679 85.9916 43.9108 83.7298 43.9199C81.3396 43.9091 78.9523 44.0863 76.5898 44.4499C72.5898 45.0799 69.5898 46.2999 69.5898 48.1699C69.6013 48.4687 69.6779 48.7613 69.8143 49.0274C69.9508 49.2934 70.1438 49.5263 70.3798 49.7099C71.5298 50.7099 73.8198 51.4499 76.5798 51.8999C78.9431 52.2551 81.3301 52.4289 83.7198 52.4199C85.9836 52.4409 88.246 52.3006 90.4898 51.9999C93.4198 51.5599 95.8798 50.8199 97.0798 49.7499C97.3159 49.5663 97.5089 49.3334 97.6453 49.0674C97.7818 48.8013 97.8584 48.5087 97.8698 48.2099C97.8698 46.2299 94.6498 44.9999 90.4898 44.3899ZM90.4898 50.3899C88.2533 50.734 85.9927 50.8978 83.7298 50.8799C81.3385 50.9002 78.9498 50.7162 76.5898 50.3299C73.0098 49.7099 71.1798 48.7299 71.1798 48.2099C71.1798 47.6899 73.0098 46.7099 76.5898 46.0899C81.1928 45.3672 85.8779 45.3369 90.4898 45.9999C94.3298 46.6099 96.2898 47.6399 96.2898 48.1799C96.2898 48.7199 94.3298 49.7399 90.4898 50.3499V50.3899Z" fill="#2C3A48"/>
<path d="M97.8696 53.3198C97.8582 53.6186 97.7816 53.9112 97.6451 54.1772C97.5086 54.4433 97.3156 54.6762 97.0796 54.8598C95.0196 56.7098 89.2096 57.5698 83.7296 57.5698C78.2496 57.5698 72.4596 56.7098 70.3896 54.8598C70.1556 54.6744 69.964 54.441 69.8277 54.1754C69.6914 53.9098 69.6137 53.618 69.5996 53.3198C69.5996 53.1103 69.6828 52.9093 69.831 52.7612C69.9792 52.613 70.1801 52.5298 70.3896 52.5298C70.5991 52.5298 70.8001 52.613 70.9482 52.7612C71.0964 52.9093 71.1796 53.1103 71.1796 53.3198C71.1796 54.1198 75.4496 55.9898 83.7296 55.9898C92.0096 55.9898 96.2896 54.1198 96.2896 53.3198C96.2896 53.216 96.31 53.1133 96.3497 53.0175C96.3894 52.9216 96.4476 52.8345 96.521 52.7612C96.5944 52.6878 96.6814 52.6296 96.7773 52.5899C96.8731 52.5502 96.9759 52.5298 97.0796 52.5298C97.1834 52.5298 97.2861 52.5502 97.3819 52.5899C97.4778 52.6296 97.5649 52.6878 97.6382 52.7612C97.7116 52.8345 97.7698 52.9216 97.8095 53.0175C97.8492 53.1133 97.8696 53.216 97.8696 53.3198Z" fill="#4D5A68"/>
<path d="M97.8696 72.8798C97.8582 73.1786 97.7816 73.4713 97.6451 73.7373C97.5086 74.0033 97.3156 74.2363 97.0796 74.4198C95.0196 76.2698 89.2096 77.1298 83.7296 77.1298C78.2496 77.1298 72.4596 76.2698 70.3896 74.4198C70.1556 74.2345 69.964 74.0011 69.8277 73.7355C69.6914 73.4698 69.6137 73.1781 69.5996 72.8798C69.5996 72.6703 69.6828 72.4694 69.831 72.3212C69.9792 72.1731 70.1801 72.0898 70.3896 72.0898C70.5991 72.0898 70.8001 72.1731 70.9482 72.3212C71.0964 72.4694 71.1796 72.6703 71.1796 72.8798C71.1796 73.6698 75.4496 75.5498 83.7296 75.5498C92.0096 75.5498 96.2896 73.6698 96.2896 72.8798C96.2896 72.7761 96.31 72.6734 96.3497 72.5775C96.3894 72.4817 96.4476 72.3946 96.521 72.3212C96.5944 72.2479 96.6814 72.1897 96.7773 72.15C96.8731 72.1103 96.9759 72.0898 97.0796 72.0898C97.1834 72.0898 97.2861 72.1103 97.3819 72.15C97.4778 72.1897 97.5649 72.2479 97.6382 72.3212C97.7116 72.3946 97.7698 72.4817 97.8095 72.5775C97.8492 72.6734 97.8696 72.7761 97.8696 72.8798Z" fill="#5C6A78"/>
<path d="M97.8698 77.81C97.8698 79.75 94.6498 80.98 90.4898 81.59C88.2511 81.912 85.9916 82.0691 83.7298 82.06C81.3396 82.0708 78.9523 81.8936 76.5898 81.53C72.5898 80.91 69.5898 79.69 69.5898 77.81C69.5898 77.6005 69.6731 77.3996 69.8212 77.2514C69.9694 77.1033 70.1703 77.02 70.3798 77.02C70.5894 77.02 70.7903 77.1033 70.9385 77.2514C71.0866 77.3996 71.1698 77.6005 71.1698 77.81C71.1698 78.33 72.9998 79.31 76.5798 79.93C78.9408 80.3072 81.329 80.4878 83.7198 80.47C85.9853 80.4895 88.2488 80.3323 90.4898 80C94.3298 79.39 96.2898 78.36 96.2898 77.82C96.2898 77.7163 96.3103 77.6135 96.35 77.5177C96.3897 77.4219 96.4479 77.3348 96.5212 77.2614C96.5946 77.188 96.6817 77.1299 96.7775 77.0902C96.8734 77.0505 96.9761 77.03 97.0798 77.03C97.1836 77.03 97.2863 77.0505 97.3822 77.0902C97.478 77.1299 97.5651 77.188 97.6385 77.2614C97.7118 77.3348 97.77 77.4219 97.8097 77.5177C97.8494 77.6135 97.8698 77.7163 97.8698 77.82V77.81Z" fill="#2C3A48"/>
<path d="M90.4893 65.6201C90.4893 66.9551 90.0934 68.2602 89.3517 69.3702C88.61 70.4802 87.5558 71.3454 86.3224 71.8563C85.089 72.3672 83.7318 72.5009 82.4224 72.2404C81.113 71.98 79.9103 71.3371 78.9663 70.3931C78.0223 69.4491 77.3794 68.2463 77.119 66.937C76.8585 65.6276 76.9922 64.2704 77.5031 63.037C78.014 61.8036 78.8791 60.7494 79.9892 60.0077C81.0992 59.266 82.4042 58.8701 83.7393 58.8701C85.5295 58.8701 87.2464 59.5813 88.5122 60.8471C89.7781 62.113 90.4893 63.8299 90.4893 65.6201Z" fill="#E9EFF7"/>
<path d="M86.1696 67.0001C86.1696 68.8901 85.0796 70.4301 83.7396 70.4301C82.3996 70.4301 81.3096 68.8601 81.3096 67.0001C81.3096 65.1401 83.7396 60.8701 83.7396 60.8701C83.7396 60.8701 86.1696 65.0701 86.1696 67.0001Z" fill="#2C3A48"/>
<path d="M85.3793 67C85.3793 67.64 85.0093 68.16 84.5593 68.16C84.1093 68.16 83.7393 67.64 83.7393 67C83.9039 66.2938 84.1807 65.6185 84.5593 65C84.9378 65.6185 85.2146 66.2938 85.3793 67Z" fill="#514260"/>
<path d="M94.9395 68.48C94.9395 68.7452 94.8341 68.9996 94.6466 69.1871C94.459 69.3746 94.2047 69.48 93.9395 69.48C93.6742 69.48 93.4199 69.3746 93.2323 69.1871C93.0448 68.9996 92.9395 68.7452 92.9395 68.48V59.48C92.9395 59.2148 93.0448 58.9604 93.2323 58.7729C93.4199 58.5853 93.6742 58.48 93.9395 58.48C94.2047 58.48 94.459 58.5853 94.6466 58.7729C94.8341 58.9604 94.9395 59.2148 94.9395 59.48V68.48Z" fill="#514260"/>
<path d="M90.4899 50.9998C90.4899 51.2438 90.393 51.4778 90.2205 51.6504C90.0479 51.8229 89.8139 51.9198 89.5699 51.9198H87.0799C86.8377 51.9172 86.6062 51.8191 86.4358 51.6469C86.2655 51.4746 86.1699 51.2421 86.1699 50.9998C86.1699 50.7585 86.2658 50.527 86.4365 50.3564C86.6071 50.1857 86.8386 50.0898 87.0799 50.0898H89.5699C89.8122 50.0898 90.0447 50.1854 90.217 50.3558C90.3892 50.5261 90.4873 50.7576 90.4899 50.9998Z" fill="#514260"/>
<path d="M62.5897 112.56C62.5897 114.6 61.9848 116.593 60.8515 118.289C59.7182 119.985 58.1074 121.306 56.2229 122.086C54.3384 122.866 52.2649 123.07 50.2647 122.671C48.2645 122.273 46.4274 121.29 44.9859 119.847C43.5444 118.404 42.5633 116.566 42.1666 114.565C41.7699 112.565 41.9755 110.491 42.7574 108.608C43.5393 106.724 44.8623 105.114 46.5591 103.983C48.2559 102.851 50.2502 102.248 52.2897 102.25C55.0224 102.253 57.6422 103.34 59.5735 105.273C61.5049 107.206 62.5897 109.827 62.5897 112.56Z" fill="#F8BE49"/>
<path d="M60.9996 112.55C61.0016 114.271 60.493 115.954 59.5383 117.386C58.5835 118.818 57.2254 119.935 55.6359 120.595C54.0463 121.255 52.2968 121.428 50.6085 121.094C48.9202 120.759 47.369 119.932 46.1513 118.715C44.9336 117.499 44.104 115.949 43.7675 114.261C43.431 112.573 43.6027 110.823 44.2609 109.233C44.9191 107.643 46.0342 106.283 47.4651 105.327C48.896 104.37 50.5785 103.86 52.2996 103.86C54.6053 103.86 56.8166 104.775 58.4479 106.404C60.0792 108.034 60.997 110.244 60.9996 112.55Z" fill="#E6A729"/>
<path d="M60.06 112.55C60.06 114.089 59.6037 115.593 58.7488 116.872C57.894 118.152 56.6789 119.149 55.2573 119.738C53.8357 120.327 52.2714 120.481 50.7622 120.181C49.253 119.88 47.8668 119.139 46.7787 118.051C45.6907 116.963 44.9497 115.577 44.6495 114.068C44.3493 112.559 44.5034 110.994 45.0922 109.573C45.6811 108.151 46.6783 106.936 47.9577 106.081C49.2371 105.226 50.7413 104.77 52.28 104.77C54.3434 104.77 56.3223 105.59 57.7813 107.049C59.2403 108.508 60.06 110.487 60.06 112.55Z" fill="#F8BE49"/>
<path d="M53.2995 112L52.6095 111.35C52.3864 111.159 52.204 110.925 52.0734 110.663C51.9428 110.4 51.8667 110.113 51.8495 109.82C51.8281 109.61 51.8662 109.399 51.9595 109.21C51.9983 109.174 52.0441 109.147 52.094 109.129C52.1439 109.112 52.1969 109.106 52.2495 109.11C52.3195 109.11 52.3795 109.11 52.4495 109.28C52.5553 109.64 52.5992 110.015 52.5795 110.39V111.06C52.5795 111.112 52.5899 111.164 52.6101 111.212C52.6304 111.26 52.66 111.303 52.6973 111.339C52.7346 111.376 52.7787 111.404 52.8272 111.423C52.8757 111.442 52.9275 111.451 52.9795 111.45H54.2295C54.2816 111.451 54.3334 111.442 54.3818 111.423C54.4303 111.404 54.4745 111.376 54.5118 111.339C54.5491 111.303 54.5787 111.26 54.5989 111.212C54.6191 111.164 54.6295 111.112 54.6295 111.06V110.6C54.6295 109.01 54.2795 108.01 53.5595 107.54C53.4118 107.449 53.2541 107.375 53.0895 107.32V106.1C53.087 105.997 53.0451 105.9 52.9725 105.827C52.8999 105.754 52.8022 105.712 52.6995 105.71H51.8895C51.7869 105.712 51.6892 105.754 51.6166 105.827C51.544 105.9 51.5021 105.997 51.4995 106.1V107.28C50.6495 107.49 49.7695 108.12 49.7695 109.87C49.7839 110.426 49.9141 110.973 50.1517 111.475C50.3893 111.978 50.7292 112.426 51.1495 112.79L51.4995 113.13L51.8295 113.44C52.0793 113.652 52.2828 113.913 52.4273 114.208C52.5718 114.502 52.6542 114.823 52.6695 115.15C52.6975 115.395 52.6595 115.644 52.5595 115.87C52.5595 115.87 52.4995 115.96 52.2895 115.96C52.0795 115.96 51.9195 115.48 51.9195 114.69V114C51.9195 113.894 51.8774 113.792 51.8024 113.717C51.7274 113.642 51.6256 113.6 51.5195 113.6H50.2495C50.1434 113.6 50.0417 113.642 49.9667 113.717C49.8917 113.792 49.8495 113.894 49.8495 114V114.72C49.7859 115.52 49.9823 116.32 50.4095 117C50.7083 117.381 51.1223 117.654 51.5895 117.78V119C51.5895 119.106 51.6317 119.208 51.7067 119.283C51.7817 119.358 51.8834 119.4 51.9895 119.4H52.7895C52.8956 119.4 52.9974 119.358 53.0724 119.283C53.1474 119.208 53.1895 119.106 53.1895 119V117.77C53.9795 117.54 54.7895 116.89 54.7895 115.15C54.776 114.55 54.6363 113.959 54.3796 113.416C54.1229 112.874 53.7549 112.391 53.2995 112Z" fill="#E6A729"/>
<path d="M58.8102 106.61L61.0102 107.21L58.8102 107.8L58.2102 110.01L57.6102 107.8L55.4102 107.21L57.6102 106.61L58.2102 104.41L58.8102 106.61Z" fill="#514260"/>
<path d="M104.239 48.5102C104.239 52.5102 101.909 55.8502 99.0494 55.8502C96.1894 55.8502 93.8594 52.5602 93.8594 48.5102C93.8594 44.4602 99.0494 35.4302 99.0494 35.4302C99.0494 35.4302 104.239 44.4602 104.239 48.5102Z" fill="#F8BE49"/>
<path d="M102.29 50.1801C102.29 51.4401 101.56 52.4701 100.67 52.4701C99.7798 52.4701 99.0498 51.4701 99.0498 50.1801C99.0498 48.8901 100.67 46.1001 100.67 46.1001C100.67 46.1001 102.29 48.9201 102.29 50.1801Z" fill="#F5F5F5"/>
<path d="M81.19 91.3401C81.19 92.6237 80.8093 93.8785 80.0962 94.9457C79.3831 96.013 78.3695 96.8449 77.1836 97.3361C75.9977 97.8273 74.6928 97.9558 73.4338 97.7054C72.1749 97.455 71.0185 96.8369 70.1108 95.9292C69.2032 95.0216 68.5851 93.8652 68.3347 92.6062C68.0842 91.3473 68.2128 90.0424 68.704 88.8565C69.1952 87.6706 70.027 86.657 71.0943 85.9439C72.1616 85.2307 73.4164 84.8501 74.7 84.8501C76.4204 84.8527 78.0696 85.5374 79.2862 86.7539C80.5027 87.9704 81.1873 89.6197 81.19 91.3401Z" fill="#514260"/>
<path d="M91.0498 97.3601C91.0518 98.0033 90.8628 98.6327 90.5069 99.1684C90.151 99.7042 89.6441 100.122 89.0505 100.37C88.4568 100.617 87.803 100.683 87.1719 100.559C86.5408 100.435 85.9608 100.126 85.5053 99.6718C85.0497 99.2176 84.7392 98.6386 84.613 98.0078C84.4868 97.3771 84.5506 96.7232 84.7962 96.1287C85.0419 95.5343 85.4585 95.0261 85.9932 94.6685C86.5278 94.311 87.1566 94.1201 87.7998 94.1201C88.6592 94.1227 89.4828 94.4646 90.0915 95.0714C90.7001 95.6781 91.0445 96.5007 91.0498 97.3601Z" fill="#514260"/>
<path d="M145.01 126.81C146.799 126.81 148.25 125.359 148.25 123.57C148.25 121.781 146.799 120.33 145.01 120.33C143.22 120.33 141.77 121.781 141.77 123.57C141.77 125.359 143.22 126.81 145.01 126.81Z" fill="#514260"/>
<path d="M135.25 85.1798C135.252 86.6878 134.806 88.1624 133.97 89.417C133.133 90.6717 131.943 91.6499 130.55 92.2279C129.158 92.8059 127.625 92.9576 126.146 92.6639C124.667 92.3702 123.308 91.6443 122.242 90.578C121.175 89.5117 120.449 88.153 120.156 86.674C119.862 85.1949 120.014 83.6619 120.592 82.2692C121.17 80.8764 122.148 79.6864 123.403 78.8499C124.657 78.0133 126.132 77.5679 127.64 77.5698C129.658 77.5698 131.594 78.3716 133.021 79.7987C134.448 81.2259 135.25 83.1615 135.25 85.1798Z" fill="#514260"/>
<path d="M131.16 101.82C131.158 102.771 130.874 103.701 130.344 104.491C129.814 105.281 129.061 105.895 128.182 106.258C127.302 106.62 126.335 106.713 125.402 106.526C124.469 106.338 123.613 105.878 122.942 105.204C122.271 104.53 121.814 103.672 121.631 102.739C121.447 101.805 121.544 100.838 121.91 99.9601C122.276 99.0819 122.894 98.332 123.686 97.8051C124.478 97.2782 125.409 96.998 126.36 97C126.992 97 127.618 97.1248 128.202 97.3673C128.785 97.6098 129.315 97.9651 129.761 98.413C130.207 98.8608 130.56 99.3923 130.8 99.977C131.04 100.562 131.163 101.188 131.16 101.82Z" fill="#514260"/>
<path d="M60.2395 47.1498C60.2414 48.4164 59.8675 49.6552 59.165 50.7092C58.4625 51.7632 57.4631 52.585 56.2932 53.0707C55.1234 53.5563 53.8357 53.6839 52.5933 53.4373C51.3509 53.1907 50.2096 52.5809 49.314 51.6852C48.4183 50.7896 47.8086 49.6483 47.5619 48.4059C47.3153 47.1635 47.4429 45.8758 47.9285 44.706C48.4142 43.5361 49.236 42.5367 50.29 41.8342C51.344 41.1317 52.5828 40.7578 53.8494 40.7598C55.5434 40.7624 57.1672 41.4365 58.3649 42.6343C59.5627 43.8321 60.2368 45.4559 60.2395 47.1498Z" fill="#514260"/>
<path d="M69.4298 34.7901C69.4298 35.4661 69.2295 36.1269 68.8542 36.6891C68.4788 37.2513 67.9453 37.6897 67.3209 37.9488C66.6966 38.208 66.0094 38.2763 65.3463 38.1451C64.6832 38.014 64.0738 37.6892 63.5951 37.2119C63.1164 36.7347 62.7899 36.1262 62.6568 35.4634C62.5237 34.8007 62.59 34.1134 62.8473 33.4883C63.1046 32.8632 63.5414 32.3284 64.1025 31.9514C64.6636 31.5744 65.3239 31.3721 65.9998 31.3701C66.4498 31.3688 66.8956 31.4563 67.3117 31.6276C67.7278 31.7989 68.106 32.0506 68.4246 32.3683C68.7433 32.686 68.9961 33.0635 69.1686 33.479C69.3411 33.8946 69.4298 34.3402 69.4298 34.7901Z" fill="#514260"/>
<path d="M116.92 34.9C116.922 35.8711 116.636 36.821 116.098 37.6295C115.56 38.4381 114.794 39.069 113.898 39.4424C113.001 39.8159 112.014 39.9151 111.062 39.7276C110.109 39.5401 109.233 39.0742 108.545 38.389C107.857 37.7037 107.387 36.8298 107.196 35.8777C107.005 34.9256 107.1 33.9382 107.47 33.0403C107.839 32.1423 108.467 31.3742 109.273 30.8331C110.08 30.2919 111.028 30.002 112 30C112.644 29.9987 113.283 30.1244 113.879 30.3699C114.476 30.6155 115.018 30.976 115.474 31.431C115.931 31.886 116.294 32.4266 116.542 33.0218C116.79 33.617 116.918 34.2552 116.92 34.9Z" fill="#514260"/>
<path d="M120.659 108C120.592 107.999 120.526 107.983 120.465 107.954C120.405 107.925 120.352 107.882 120.309 107.83C119.738 107.084 119.447 106.159 119.489 105.22C119.489 105.13 119.489 105.04 119.489 104.95C119.487 104.885 119.499 104.82 119.525 104.761C119.551 104.701 119.589 104.648 119.638 104.605C119.687 104.562 119.744 104.53 119.807 104.512C119.869 104.494 119.935 104.49 119.999 104.5C120.059 104.501 120.118 104.515 120.173 104.539C120.228 104.564 120.277 104.599 120.318 104.642C120.359 104.686 120.391 104.738 120.412 104.794C120.433 104.85 120.442 104.91 120.439 104.97V105.21C120.409 105.925 120.62 106.63 121.039 107.21C121.115 107.304 121.151 107.423 121.14 107.542C121.128 107.662 121.071 107.772 120.979 107.85C120.939 107.895 120.89 107.932 120.835 107.958C120.78 107.984 120.72 107.998 120.659 108ZM120.479 102.74C120.433 102.75 120.385 102.75 120.339 102.74C120.225 102.703 120.129 102.623 120.073 102.516C120.017 102.41 120.005 102.286 120.039 102.17C120.321 101.285 120.655 100.416 121.039 99.5701C121.064 99.5161 121.099 99.4675 121.143 99.4272C121.187 99.3869 121.238 99.3556 121.294 99.3351C121.349 99.3147 121.409 99.3055 121.468 99.3081C121.527 99.3106 121.586 99.3249 121.639 99.3501C121.694 99.374 121.744 99.4085 121.785 99.4517C121.827 99.4949 121.859 99.546 121.88 99.6018C121.902 99.6577 121.912 99.7173 121.91 99.7771C121.908 99.8369 121.894 99.8957 121.869 99.9501C121.485 100.759 121.151 101.59 120.869 102.44C120.839 102.521 120.786 102.591 120.717 102.642C120.648 102.694 120.565 102.724 120.479 102.73V102.74ZM122.749 97.7401C122.664 97.7417 122.58 97.7173 122.509 97.6701C122.459 97.6394 122.415 97.5989 122.38 97.5511C122.345 97.5032 122.319 97.4489 122.306 97.3913C122.292 97.3337 122.289 97.2739 122.298 97.2154C122.308 97.1568 122.328 97.1007 122.359 97.0501C122.861 96.2621 123.409 95.5041 123.999 94.7801C124.077 94.6928 124.186 94.6386 124.303 94.6286C124.42 94.6186 124.536 94.6536 124.628 94.7263C124.719 94.799 124.78 94.9041 124.797 95.02C124.814 95.136 124.786 95.254 124.719 95.3501C124.16 96.0466 123.646 96.7781 123.179 97.5401C123.134 97.6123 123.07 97.6709 122.995 97.7096C122.919 97.7483 122.834 97.7658 122.749 97.7601V97.7401ZM125.999 93.3901C125.894 93.391 125.792 93.3557 125.709 93.2901C125.618 93.2124 125.56 93.1019 125.549 92.9824C125.538 92.8628 125.574 92.7435 125.649 92.6501C126.159 92.0201 126.749 91.2801 127.279 90.5001C127.351 90.403 127.458 90.3373 127.577 90.3168C127.696 90.2963 127.819 90.3226 127.919 90.3901C127.969 90.4232 128.012 90.466 128.045 90.5161C128.078 90.5662 128.1 90.6225 128.11 90.6814C128.12 90.7404 128.118 90.8009 128.105 90.8591C128.091 90.9173 128.065 90.9721 128.029 91.0201C127.479 91.8201 126.869 92.5901 126.349 93.2301C126.307 93.2816 126.253 93.3227 126.193 93.3504C126.132 93.3781 126.066 93.3917 125.999 93.3901ZM129.089 88.8901C129.012 88.8903 128.936 88.8696 128.869 88.8301C128.762 88.7728 128.682 88.6755 128.647 88.5593C128.611 88.4431 128.623 88.3176 128.679 88.2101C129.108 87.4244 129.495 86.6166 129.839 85.7901C129.886 85.6775 129.975 85.5879 130.088 85.541C130.2 85.4941 130.327 85.4938 130.439 85.5401C130.55 85.5887 130.638 85.6782 130.685 85.79C130.731 85.9017 130.733 86.0272 130.689 86.1401C130.329 86.9901 129.929 87.8301 129.489 88.6501C129.453 88.7161 129.401 88.7723 129.339 88.814C129.276 88.8558 129.204 88.8819 129.129 88.8901H129.089ZM131.189 83.8901C131.147 83.8996 131.102 83.8996 131.059 83.8901C131.002 83.874 130.948 83.8467 130.902 83.8098C130.855 83.7728 130.816 83.727 130.787 83.6749C130.759 83.6228 130.74 83.5655 130.734 83.5063C130.727 83.4471 130.733 83.3873 130.749 83.3301C131.005 82.4732 131.209 81.6016 131.359 80.7201C131.381 80.6005 131.449 80.4941 131.548 80.4233C131.647 80.3524 131.769 80.3226 131.889 80.3401C132.008 80.3621 132.114 80.43 132.183 80.5292C132.252 80.6284 132.28 80.7509 132.259 80.8701C132.102 81.7882 131.892 82.6964 131.629 83.5901C131.591 83.664 131.534 83.7263 131.464 83.7703C131.393 83.8143 131.312 83.8385 131.229 83.8401L131.189 83.8901ZM132.069 78.5101C131.948 78.505 131.834 78.4532 131.75 78.3656C131.666 78.278 131.619 78.1614 131.619 78.0401V77.8001C131.619 77.4001 131.619 77.0001 131.619 76.6101C131.611 76.4897 131.65 76.3708 131.729 76.2791C131.808 76.1875 131.919 76.1303 132.039 76.1201C132.099 76.1132 132.159 76.1185 132.216 76.1356C132.273 76.1527 132.327 76.1814 132.373 76.2197C132.418 76.2581 132.456 76.3054 132.483 76.3588C132.51 76.4122 132.526 76.4705 132.529 76.5301C132.529 76.9501 132.529 77.3701 132.529 77.8001V78.0001C132.53 78.1155 132.487 78.2268 132.409 78.312C132.331 78.3972 132.224 78.4501 132.109 78.4601L132.069 78.5101Z" fill="#514260"/>
<path d="M130.919 107.76C130.831 107.76 130.744 107.736 130.669 107.69C130.517 107.587 130.395 107.446 130.314 107.281C130.233 107.116 130.197 106.933 130.209 106.75C130.298 105.971 130.576 105.226 131.019 104.58C131.08 104.476 131.179 104.4 131.295 104.369C131.411 104.337 131.534 104.352 131.639 104.41C131.744 104.472 131.82 104.573 131.852 104.69C131.883 104.808 131.868 104.933 131.809 105.04C131.451 105.548 131.217 106.134 131.129 106.75C131.111 106.808 131.111 106.871 131.129 106.93C131.18 106.962 131.223 107.004 131.257 107.054C131.291 107.103 131.315 107.159 131.327 107.217C131.339 107.276 131.339 107.337 131.328 107.395C131.316 107.454 131.293 107.51 131.259 107.56C131.222 107.617 131.172 107.665 131.113 107.7C131.054 107.735 130.988 107.755 130.919 107.76ZM132.999 103C132.914 103.001 132.83 102.978 132.757 102.934C132.684 102.89 132.626 102.825 132.588 102.749C132.55 102.672 132.535 102.587 132.544 102.502C132.553 102.417 132.586 102.337 132.639 102.27C133.179 101.56 133.789 100.82 134.399 100.12C134.48 100.028 134.594 99.9727 134.716 99.9652C134.838 99.9577 134.958 99.9989 135.049 100.08C135.141 100.161 135.196 100.275 135.204 100.397C135.211 100.518 135.17 100.638 135.089 100.73C134.479 101.41 133.889 102.13 133.369 102.82C133.326 102.876 133.27 102.922 133.206 102.953C133.141 102.985 133.071 103.001 132.999 103ZM136.639 98.8998C136.512 98.899 136.39 98.8488 136.299 98.7598C136.216 98.6723 136.169 98.5559 136.169 98.4348C136.169 98.3137 136.216 98.1973 136.299 98.1098C136.527 97.8919 136.771 97.6914 137.029 97.5098C137.563 97.1337 138.124 96.7994 138.709 96.5098C138.762 96.4829 138.82 96.4669 138.879 96.463C138.939 96.459 138.998 96.4671 139.054 96.4867C139.11 96.5063 139.162 96.5371 139.206 96.5771C139.249 96.6172 139.285 96.6657 139.309 96.7198C139.336 96.7735 139.353 96.8321 139.357 96.8921C139.361 96.9521 139.353 97.0123 139.333 97.0691C139.314 97.126 139.283 97.1784 139.243 97.2231C139.203 97.2679 139.154 97.3042 139.099 97.3298C138.558 97.5839 138.037 97.878 137.539 98.2098C137.321 98.3683 137.114 98.5421 136.919 98.7298C136.879 98.7791 136.829 98.8195 136.772 98.8488C136.715 98.878 136.653 98.8954 136.589 98.8998H136.639ZM141.509 96.5398C141.396 96.5385 141.287 96.4955 141.204 96.419C141.12 96.3424 141.068 96.2378 141.057 96.1251C141.046 96.0124 141.077 95.8995 141.143 95.8081C141.21 95.7168 141.309 95.6532 141.419 95.6298C142.345 95.4319 143.296 95.3712 144.239 95.4498C144.35 95.4729 144.447 95.5355 144.514 95.6259C144.582 95.7163 144.613 95.8282 144.603 95.9403C144.593 96.0524 144.543 96.157 144.461 96.2343C144.379 96.3117 144.272 96.3563 144.159 96.3598C143.306 96.283 142.445 96.3404 141.609 96.5298L141.509 96.5398Z" fill="#514260"/>
<path d="M158.05 122.11C157.81 122.11 157.57 122.11 157.34 122.11C157.219 122.1 157.108 122.043 157.029 121.951C156.951 121.859 156.911 121.74 156.92 121.62C156.923 121.56 156.939 121.501 156.966 121.447C156.993 121.393 157.03 121.346 157.076 121.306C157.121 121.267 157.175 121.238 157.232 121.219C157.289 121.201 157.35 121.194 157.41 121.2C158.278 121.252 159.149 121.185 160 121C160.117 120.976 160.24 120.999 160.341 121.065C160.442 121.13 160.513 121.233 160.54 121.35C160.563 121.468 160.54 121.59 160.475 121.691C160.409 121.792 160.307 121.864 160.19 121.89C159.486 122.037 158.769 122.111 158.05 122.11ZM154.73 121.44C154.667 121.449 154.603 121.449 154.54 121.44C153.649 121.034 152.85 120.452 152.19 119.73C152.125 119.638 152.096 119.525 152.109 119.413C152.122 119.301 152.175 119.198 152.259 119.123C152.343 119.048 152.451 119.006 152.564 119.005C152.676 119.005 152.785 119.046 152.87 119.12C153.427 119.746 154.108 120.25 154.87 120.6C154.966 120.643 155.045 120.718 155.092 120.812C155.14 120.906 155.154 121.014 155.132 121.117C155.109 121.22 155.052 121.313 154.97 121.379C154.888 121.445 154.785 121.48 154.68 121.48L154.73 121.44ZM162.66 120.97C162.559 120.968 162.461 120.934 162.382 120.871C162.302 120.809 162.246 120.722 162.221 120.624C162.196 120.526 162.204 120.423 162.243 120.33C162.283 120.237 162.352 120.16 162.44 120.11C163.204 119.712 163.884 119.169 164.44 118.51C164.519 118.418 164.631 118.36 164.752 118.349C164.874 118.337 164.995 118.374 165.09 118.45C165.181 118.528 165.239 118.638 165.25 118.758C165.261 118.877 165.225 118.996 165.15 119.09C164.522 119.834 163.758 120.452 162.9 120.91C162.829 120.961 162.746 120.992 162.66 121V120.97ZM151.06 117.55C150.972 117.551 150.886 117.525 150.813 117.477C150.74 117.429 150.683 117.361 150.65 117.28C150.253 116.428 149.919 115.549 149.65 114.65C149.631 114.593 149.624 114.534 149.63 114.475C149.635 114.416 149.652 114.358 149.68 114.306C149.708 114.254 149.746 114.207 149.793 114.17C149.839 114.133 149.892 114.106 149.95 114.09C150.007 114.071 150.067 114.065 150.127 114.07C150.186 114.075 150.245 114.092 150.298 114.12C150.351 114.148 150.398 114.186 150.436 114.232C150.474 114.279 150.502 114.332 150.52 114.39C150.764 115.248 151.072 116.087 151.44 116.9C151.464 116.954 151.478 117.013 151.48 117.073C151.482 117.133 151.472 117.192 151.451 117.248C151.429 117.304 151.397 117.355 151.355 117.398C151.314 117.442 151.264 117.476 151.21 117.5C151.163 117.526 151.112 117.543 151.06 117.55ZM166.11 116.89C166.035 116.89 165.963 116.872 165.897 116.837C165.831 116.803 165.775 116.753 165.733 116.692C165.691 116.631 165.664 116.561 165.654 116.487C165.645 116.414 165.654 116.339 165.68 116.27C165.98 115.446 166.184 114.59 166.29 113.72C166.297 113.661 166.316 113.604 166.345 113.552C166.374 113.5 166.413 113.454 166.46 113.418C166.507 113.381 166.561 113.354 166.618 113.338C166.676 113.322 166.735 113.318 166.795 113.325C166.854 113.332 166.911 113.351 166.963 113.38C167.014 113.409 167.06 113.449 167.097 113.496C167.133 113.542 167.16 113.596 167.176 113.653C167.192 113.711 167.197 113.771 167.19 113.83C167.08 114.772 166.862 115.698 166.54 116.59C166.507 116.678 166.448 116.754 166.371 116.807C166.295 116.861 166.203 116.89 166.11 116.89ZM166.83 111.5C166.712 111.5 166.599 111.454 166.515 111.372C166.431 111.289 166.382 111.177 166.38 111.06C166.336 110.17 166.23 109.284 166.06 108.41C166.048 108.351 166.048 108.291 166.06 108.233C166.072 108.174 166.095 108.119 166.129 108.07C166.162 108.02 166.205 107.978 166.255 107.946C166.305 107.913 166.361 107.891 166.42 107.88C166.539 107.856 166.663 107.881 166.764 107.948C166.865 108.016 166.935 108.121 166.96 108.24C167.134 109.158 167.244 110.087 167.29 111.02C167.295 111.14 167.253 111.258 167.173 111.348C167.092 111.438 166.98 111.492 166.86 111.5H166.83ZM165.83 106.14C165.736 106.141 165.643 106.113 165.566 106.059C165.489 106.005 165.431 105.929 165.4 105.84C165.27 105.48 165.13 105.14 164.99 104.84C164.776 104.376 164.529 103.928 164.25 103.5C164.21 103.402 164.205 103.293 164.236 103.191C164.267 103.09 164.332 103.003 164.42 102.944C164.509 102.885 164.614 102.858 164.72 102.869C164.826 102.879 164.924 102.925 165 103C165.299 103.468 165.566 103.956 165.8 104.46C165.96 104.81 166.1 105.17 166.24 105.55C166.278 105.665 166.271 105.791 166.219 105.901C166.167 106.012 166.074 106.097 165.96 106.14H165.83ZM162.83 101.61C162.714 101.605 162.604 101.559 162.52 101.48C161.871 100.878 161.172 100.332 160.43 99.8499C160.329 99.7836 160.258 99.6799 160.234 99.5618C160.21 99.4437 160.233 99.3207 160.3 99.2199C160.366 99.1191 160.469 99.0488 160.588 99.0244C160.706 99 160.829 99.0236 160.93 99.0899C161.717 99.6025 162.46 100.181 163.15 100.82C163.233 100.906 163.279 101.02 163.279 101.14C163.279 101.259 163.233 101.374 163.15 101.46C163.109 101.505 163.06 101.542 163.005 101.568C162.95 101.593 162.89 101.608 162.83 101.61ZM158.29 98.6099C158.224 98.6236 158.156 98.6236 158.09 98.6099C157.34 98.2399 156.53 97.8899 155.62 97.5399C155.562 97.5201 155.51 97.4887 155.465 97.4477C155.421 97.4067 155.385 97.3569 155.361 97.3016C155.337 97.2462 155.324 97.1864 155.324 97.1259C155.323 97.0654 155.336 97.0054 155.36 96.9499C155.404 96.8379 155.491 96.7478 155.601 96.6992C155.712 96.6506 155.837 96.6472 155.95 96.6899C156.88 97.0499 157.71 97.4099 158.49 97.7899C158.544 97.8155 158.593 97.8518 158.633 97.8965C158.673 97.9413 158.704 97.9937 158.723 98.0505C158.743 98.1074 158.751 98.1676 158.747 98.2276C158.743 98.2876 158.727 98.3462 158.7 98.3999C158.653 98.4642 158.591 98.5154 158.519 98.5487C158.448 98.582 158.368 98.5962 158.29 98.5899V98.6099Z" fill="#514260"/>
<path d="M60.9996 113.54C60.888 113.544 60.7786 113.509 60.6895 113.441C60.6004 113.374 60.5369 113.278 60.5096 113.17C60.4964 113.114 60.4945 113.056 60.504 113C60.5135 112.943 60.5342 112.889 60.565 112.841C60.5957 112.792 60.6359 112.75 60.6831 112.718C60.7302 112.685 60.7835 112.662 60.8396 112.65C61.7021 112.536 62.5418 112.289 63.3296 111.92C63.3821 111.892 63.4396 111.875 63.4987 111.87C63.5579 111.864 63.6175 111.87 63.6742 111.888C63.7309 111.906 63.7836 111.934 63.8291 111.973C63.8747 112.011 63.9122 112.057 63.9396 112.11C63.9963 112.218 64.0081 112.343 63.9725 112.459C63.9369 112.575 63.8568 112.673 63.7496 112.73C62.9061 113.133 62.0055 113.402 61.0796 113.53L60.9996 113.54ZM65.6996 111.12C65.6081 111.12 65.5187 111.093 65.4429 111.042C65.367 110.99 65.3081 110.918 65.2738 110.833C65.2394 110.748 65.2311 110.655 65.25 110.565C65.2688 110.476 65.314 110.394 65.3796 110.33C65.8696 109.87 66.3296 109.33 66.7996 108.89L67.2696 108.38C67.3559 108.294 67.4728 108.246 67.5946 108.246C67.7165 108.246 67.8334 108.294 67.9196 108.38C68.0107 108.453 68.07 108.558 68.0849 108.674C68.0998 108.79 68.0692 108.907 67.9996 109L67.5296 109.5C67.0596 110 66.5296 110.5 66.0896 110.98C66.0449 111.027 65.9904 111.064 65.93 111.089C65.8696 111.113 65.8046 111.124 65.7396 111.12H65.6996ZM80.2596 109.12H80.1596C80.0423 109.094 79.9399 109.022 79.8745 108.922C79.8091 108.821 79.7858 108.698 79.8096 108.58C79.8701 108.311 79.9036 108.036 79.9096 107.76C79.9322 107.257 79.7644 106.765 79.4396 106.38C79.3635 106.285 79.3272 106.164 79.3384 106.043C79.3496 105.922 79.4074 105.81 79.4996 105.73C79.593 105.655 79.7123 105.619 79.8319 105.63C79.9515 105.641 80.0619 105.699 80.1396 105.79C80.6013 106.352 80.843 107.063 80.8196 107.79C80.8168 108.127 80.7765 108.462 80.6996 108.79C80.6784 108.882 80.628 108.965 80.5559 109.026C80.4839 109.088 80.394 109.124 80.2996 109.13L80.2596 109.12ZM69.6296 107.28C69.5624 107.279 69.4963 107.263 69.4358 107.234C69.3753 107.205 69.322 107.162 69.2796 107.11C69.2415 107.064 69.2131 107.01 69.196 106.953C69.1788 106.895 69.1734 106.835 69.1799 106.775C69.1864 106.716 69.2048 106.658 69.2339 106.606C69.2631 106.553 69.3024 106.507 69.3496 106.47L69.9996 106C70.5924 105.603 71.239 105.294 71.9196 105.08C72.0324 105.042 72.1556 105.05 72.2625 105.102C72.3693 105.155 72.451 105.248 72.4896 105.36C72.5101 105.417 72.5191 105.477 72.516 105.536C72.5129 105.596 72.4979 105.655 72.4718 105.709C72.4457 105.763 72.4091 105.811 72.3641 105.851C72.319 105.891 72.2665 105.921 72.2096 105.94C71.6125 106.133 71.0441 106.406 70.5196 106.75C70.3296 106.88 70.1396 107.02 69.9596 107.17C69.8659 107.244 69.7491 107.283 69.6296 107.28ZM77.4196 105.38H77.3496C76.4835 105.265 75.6058 105.265 74.7396 105.38C74.6207 105.392 74.5019 105.356 74.4086 105.281C74.3153 105.207 74.2547 105.099 74.2396 104.98C74.2313 104.922 74.2348 104.862 74.25 104.805C74.2652 104.747 74.2918 104.694 74.3283 104.647C74.3647 104.6 74.4101 104.562 74.4619 104.533C74.5137 104.504 74.5708 104.486 74.6296 104.48C75.5782 104.345 76.5411 104.345 77.4896 104.48C77.5491 104.489 77.6062 104.509 77.6576 104.54C77.709 104.571 77.7538 104.612 77.7892 104.66C77.8246 104.709 77.85 104.764 77.8638 104.822C77.8776 104.88 77.8796 104.941 77.8696 105C77.8509 105.106 77.7957 105.202 77.7134 105.272C77.6312 105.341 77.5273 105.379 77.4196 105.38Z" fill="#514260"/>
<path d="M111.31 108.45C111.208 108.45 111.109 108.415 111.03 108.35C110.3 107.608 109.875 106.62 109.84 105.58C109.823 105.461 109.853 105.339 109.926 105.243C109.998 105.146 110.105 105.082 110.225 105.065C110.344 105.048 110.465 105.079 110.562 105.151C110.659 105.223 110.723 105.331 110.74 105.45C110.765 106.253 111.065 107.022 111.59 107.63C111.638 107.666 111.678 107.712 111.708 107.764C111.738 107.816 111.757 107.873 111.765 107.933C111.772 107.993 111.768 108.053 111.751 108.111C111.735 108.169 111.707 108.223 111.67 108.27C111.628 108.326 111.574 108.372 111.512 108.403C111.449 108.435 111.38 108.451 111.31 108.45ZM110.08 103.24C109.963 103.24 109.85 103.196 109.765 103.116C109.679 103.036 109.627 102.927 109.62 102.81V102.6C109.62 101.87 109.56 101.18 109.49 100.71L109.4 100.12C109.384 100.001 109.416 99.8798 109.489 99.7841C109.562 99.6885 109.67 99.6258 109.79 99.6099C109.909 99.594 110.03 99.6261 110.126 99.6993C110.221 99.7724 110.284 99.8805 110.3 99.9999L110.39 100.58C110.47 101.09 110.49 101.77 110.53 102.58V102.79C110.533 102.91 110.488 103.027 110.406 103.115C110.323 103.203 110.21 103.255 110.09 103.26L110.08 103.24ZM109.56 97.7899C109.448 97.7881 109.34 97.7455 109.257 97.67C109.174 97.5945 109.122 97.4913 109.11 97.3799C109.03 96.4599 108.97 95.5399 108.92 94.6399C108.914 94.5792 108.921 94.518 108.94 94.46C108.959 94.402 108.99 94.3485 109.03 94.3027C109.07 94.2569 109.119 94.2197 109.174 94.1934C109.229 94.1672 109.289 94.1524 109.35 94.1499C109.47 94.1444 109.588 94.1864 109.678 94.2668C109.767 94.3472 109.822 94.4596 109.83 94.5799C109.83 95.4799 109.94 96.3899 110.02 97.2999C110.028 97.4203 109.989 97.5392 109.91 97.6309C109.832 97.7226 109.72 97.7797 109.6 97.7899H109.56Z" fill="#514260"/>
<path d="M96.4893 105.48C96.4007 105.48 96.314 105.455 96.2395 105.407C96.165 105.359 96.1059 105.291 96.0693 105.21C95.7419 104.346 95.5956 103.423 95.6393 102.5V102.33C95.6392 102.269 95.6515 102.209 95.6754 102.153C95.6992 102.097 95.7342 102.047 95.7781 102.005C95.822 101.963 95.874 101.93 95.9309 101.909C95.9879 101.887 96.0485 101.878 96.1093 101.88C96.2304 101.885 96.3449 101.937 96.4288 102.025C96.5126 102.112 96.5594 102.229 96.5593 102.35V102.5C96.5156 103.296 96.6347 104.092 96.9093 104.84C96.9562 104.952 96.9573 105.077 96.9124 105.189C96.8675 105.302 96.7801 105.392 96.6693 105.44C96.6134 105.468 96.5516 105.481 96.4893 105.48ZM96.2793 100.06C96.2188 100.055 96.1599 100.038 96.106 100.01C96.0521 99.9825 96.0042 99.9442 95.9652 99.8977C95.9261 99.8512 95.8967 99.7975 95.8785 99.7396C95.8603 99.6816 95.8538 99.6207 95.8593 99.5602V99.1702C95.9493 98.3102 96.0293 97.5002 96.0293 96.8702C96.0319 96.75 96.0815 96.6355 96.1675 96.5514C96.2535 96.4673 96.369 96.4202 96.4893 96.4202C96.5492 96.4202 96.6086 96.4322 96.6638 96.4554C96.7191 96.4787 96.7692 96.5127 96.8111 96.5556C96.853 96.5984 96.8859 96.6492 96.908 96.705C96.93 96.7607 96.9406 96.8203 96.9393 96.8802C96.9393 97.5502 96.8593 98.3802 96.7693 99.2602V99.6502C96.7643 99.7094 96.7476 99.767 96.7202 99.8197C96.6928 99.8724 96.6552 99.9192 96.6097 99.9573C96.5641 99.9954 96.5115 100.024 96.4548 100.042C96.3981 100.059 96.3384 100.066 96.2793 100.06ZM96.4393 94.6002C96.3224 94.5978 96.2109 94.551 96.1273 94.4692C96.0437 94.3875 95.9943 94.277 95.9893 94.1602C95.9893 93.2202 95.8993 92.3102 95.8193 91.4502C95.8228 91.3377 95.8674 91.2304 95.9447 91.1486C96.022 91.0668 96.1267 91.0162 96.2388 91.0063C96.3509 90.9965 96.4628 91.0281 96.5531 91.0951C96.6435 91.1622 96.7062 91.2601 96.7293 91.3702C96.8093 92.2502 96.8693 93.1702 96.8993 94.1202C96.902 94.1807 96.8927 94.241 96.872 94.2979C96.8514 94.3547 96.8197 94.4069 96.7788 94.4515C96.738 94.4961 96.6887 94.5322 96.6339 94.5577C96.579 94.5832 96.5197 94.5977 96.4593 94.6002H96.4393ZM95.9293 89.1502C95.8223 89.1512 95.7186 89.1132 95.6376 89.0433C95.5566 88.9733 95.5039 88.8763 95.4893 88.7702C95.3393 87.8602 95.1593 86.9702 94.9493 86.1202C94.9201 86.0035 94.9385 85.88 95.0004 85.7769C95.0623 85.6738 95.1626 85.5994 95.2793 85.5702C95.396 85.5411 95.5195 85.5594 95.6226 85.6213C95.7258 85.6832 95.8001 85.7836 95.8293 85.9002C96.0493 86.7802 96.2393 87.6902 96.3793 88.6202C96.3997 88.7395 96.3723 88.862 96.3031 88.9612C96.2338 89.0604 96.1283 89.1283 96.0093 89.1502H95.9293ZM94.6093 83.8502C94.5144 83.8492 94.4221 83.8189 94.3451 83.7634C94.2682 83.7079 94.2102 83.63 94.1793 83.5402C93.8793 82.6702 93.5493 81.8202 93.1793 81.0402C93.1313 80.9286 93.1285 80.8026 93.1713 80.6889C93.2142 80.5751 93.2995 80.4824 93.4093 80.4302C93.5195 80.3827 93.644 80.3801 93.7561 80.4231C93.8682 80.4661 93.9591 80.5512 94.0093 80.6602C94.3793 81.4702 94.7293 82.3402 95.0093 83.2402C95.0473 83.3556 95.0382 83.4814 94.9839 83.59C94.9295 83.6987 94.8344 83.7815 94.7193 83.8202L94.6093 83.8502ZM92.3193 78.8502C92.2422 78.8501 92.1666 78.8296 92.0999 78.791C92.0332 78.7524 91.9778 78.697 91.9393 78.6302C91.4728 77.8769 90.9478 77.1614 90.3693 76.4902C90.3299 76.4456 90.2997 76.3936 90.2804 76.3373C90.2611 76.281 90.253 76.2214 90.2567 76.162C90.2605 76.1025 90.2758 76.0444 90.302 75.9909C90.3282 75.9374 90.3646 75.8896 90.4093 75.8502C90.4539 75.8108 90.5059 75.7806 90.5622 75.7613C90.6186 75.742 90.6781 75.734 90.7376 75.7377C90.797 75.7414 90.8551 75.7568 90.9086 75.783C90.9621 75.8091 91.0099 75.8456 91.0493 75.8902C91.6642 76.5964 92.2194 77.3523 92.7093 78.1502C92.7419 78.2012 92.7639 78.2581 92.774 78.3177C92.7841 78.3773 92.7821 78.4383 92.7681 78.4971C92.7541 78.5559 92.7284 78.6113 92.6925 78.6599C92.6566 78.7086 92.6113 78.7495 92.5593 78.7802C92.494 78.843 92.4094 78.8818 92.3193 78.8902V78.8502Z" fill="#514260"/>
<path d="M86.82 108.94C86.7326 108.941 86.6469 108.915 86.5738 108.867C86.5008 108.819 86.4438 108.75 86.41 108.67C86.0387 107.803 85.7313 106.911 85.49 106C85.4559 105.883 85.4693 105.758 85.5274 105.651C85.5855 105.544 85.6835 105.465 85.8 105.43C85.8578 105.413 85.9183 105.408 85.978 105.416C86.0377 105.423 86.0954 105.442 86.1476 105.472C86.1998 105.501 86.2454 105.541 86.2819 105.589C86.3184 105.637 86.345 105.692 86.36 105.75C86.5969 106.609 86.8909 107.45 87.24 108.27C87.2649 108.324 87.2787 108.383 87.2806 108.443C87.2825 108.503 87.2724 108.562 87.251 108.618C87.2296 108.674 87.1972 108.725 87.1558 108.768C87.1145 108.811 87.0649 108.846 87.01 108.87C86.9535 108.909 86.8882 108.933 86.82 108.94ZM85.17 103.73C85.0729 103.727 84.9788 103.695 84.9003 103.638C84.8217 103.581 84.7623 103.501 84.73 103.41C84.4772 102.557 84.1596 101.724 83.78 100.92C83.728 100.811 83.7209 100.686 83.7601 100.572C83.7994 100.458 83.882 100.364 83.99 100.31C84.0429 100.283 84.1008 100.267 84.1601 100.263C84.2193 100.259 84.2788 100.267 84.3348 100.287C84.3909 100.306 84.4424 100.337 84.4863 100.377C84.5301 100.417 84.5654 100.466 84.59 100.52C84.9928 101.365 85.3272 102.241 85.59 103.14C85.6241 103.257 85.6107 103.382 85.5526 103.489C85.4945 103.596 85.3965 103.675 85.28 103.71L85.17 103.73ZM82.72 98.8699C82.6501 98.8699 82.5812 98.8536 82.5188 98.8223C82.4563 98.7911 82.4019 98.7457 82.36 98.6898C81.8188 97.9904 81.2378 97.3226 80.62 96.6898C80.5767 96.6462 80.5427 96.5944 80.5198 96.5374C80.4969 96.4803 80.4856 96.4193 80.4867 96.3579C80.4878 96.2965 80.5011 96.2359 80.526 96.1797C80.5509 96.1235 80.5867 96.0729 80.6315 96.0308C80.6763 95.9887 80.729 95.956 80.7866 95.9347C80.8442 95.9133 80.9055 95.9037 80.9669 95.9064C81.0283 95.9091 81.0885 95.9241 81.144 95.9504C81.1995 95.9768 81.2491 96.014 81.29 96.0598C81.94 96.7598 82.55 97.4798 83.09 98.1898C83.1622 98.2869 83.1932 98.4085 83.1763 98.5283C83.1595 98.6481 83.0961 98.7564 83 98.8298C82.913 98.8716 82.8152 98.8856 82.72 98.8699ZM78.98 94.8699C78.8688 94.8674 78.7622 94.8248 78.68 94.7498C78.01 94.1598 77.3 93.5898 76.58 93.0698C76.4844 92.9964 76.4207 92.8889 76.4021 92.7698C76.3835 92.6507 76.4114 92.529 76.48 92.4298C76.5519 92.3321 76.6595 92.2668 76.7794 92.2481C76.8993 92.2294 77.0217 92.2588 77.12 92.3298C77.86 92.8698 78.59 93.4598 79.29 94.0698C79.3731 94.1557 79.4195 94.2704 79.4195 94.3898C79.4195 94.5093 79.3731 94.624 79.29 94.7098C79.2196 94.8027 79.1154 94.8638 79 94.8798L78.98 94.8699ZM74.57 91.6498C74.4879 91.6513 74.4074 91.6268 74.34 91.5798C73.5835 91.1296 72.8023 90.7223 72 90.3598C71.8892 90.3115 71.8018 90.2214 71.7569 90.1091C71.712 89.9968 71.7131 89.8713 71.76 89.7598C71.8104 89.6483 71.9023 89.5608 72.0163 89.516C72.1302 89.4711 72.2571 89.4725 72.37 89.5198C73.2173 89.9023 74.042 90.3331 74.84 90.8098C74.8915 90.8398 74.9365 90.8797 74.9725 90.9271C75.0085 90.9746 75.0346 91.0287 75.0495 91.0864C75.0644 91.1441 75.0677 91.2041 75.0592 91.2631C75.0507 91.3221 75.0306 91.3787 75 91.4298C74.96 91.5072 74.8975 91.5706 74.8208 91.6117C74.744 91.6528 74.6565 91.6696 74.57 91.6598V91.6498ZM69.57 89.4598H69.45L68.28 89.1898C68.2046 89.2451 68.1135 89.2749 68.02 89.2749C67.9265 89.2749 67.8354 89.2451 67.76 89.1898L67.56 89.0798L67.48 89.0198C67.3612 89.0255 67.2449 88.9848 67.1554 88.9065C67.0659 88.8282 67.0102 88.7183 67 88.5998C67.008 88.5168 67.0359 88.4369 67.0813 88.3669C67.1268 88.2969 67.1883 88.2388 67.2609 88.1976C67.3335 88.1565 67.4149 88.1333 67.4983 88.1302C67.5817 88.1271 67.6646 88.1442 67.74 88.1798C68.3917 88.2644 69.0366 88.3947 69.67 88.5698C69.7847 88.6048 69.8817 88.6822 69.9412 88.7863C70.0007 88.8904 70.0182 89.0133 69.99 89.1298C69.9648 89.2236 69.9106 89.3069 69.8352 89.368C69.7597 89.4291 69.6669 89.4647 69.57 89.4698V89.4598Z" fill="#514260"/>
</g>
<defs>
<clipPath id="clip0">
<rect width="139.29" height="146.92" fill="white" transform="translate(28 30)"/>
</clipPath>
</defs>
</svg>
