<svg width="200" height="200" viewBox="0 0 200 200" fill="none" xmlns="http://www.w3.org/2000/svg">
<circle cx="100" cy="100" r="100" fill="#DBCDD6"/>
<circle cx="100" cy="100" r="90" fill="#936A83"/>
<mask id="mask0" mask-type="alpha" maskUnits="userSpaceOnUse" x="10" y="10" width="180" height="180">
<circle cx="100" cy="100" r="90" fill="#936A83"/>
</mask>
<g mask="url(#mask0)">
<path d="M16 147.457L80.391 206.088L98.1643 196.259L135.467 226.281L187.095 191.526L197.974 196.944L269.367 147.457H16Z" fill="#312D4E"/>
<path d="M184.177 147.461H10L43.9193 126.326L168.739 126.326L184.177 147.461Z" fill="#312D4E"/>
<path d="M72.3955 184.078L157.231 147.455H11.2314L59.1648 191.455L72.3955 184.078Z" fill="#474368"/>
<path d="M60.4592 65.9392C60.9548 65.9292 61.4316 65.7475 61.8083 65.4252C62.0633 65.6504 62.3891 65.7792 62.7291 65.7893C63.0707 65.7869 63.399 65.6571 63.6499 65.4252C63.6991 65.6709 63.8364 65.89 64.0359 66.0415C64.2354 66.1931 64.4833 66.2665 64.7332 66.2481C64.983 66.2297 65.2175 66.1207 65.3926 65.9416C65.5678 65.7624 65.6714 65.5255 65.6842 65.2753C65.6871 65.1396 65.6625 65.0046 65.6119 64.8786C65.5613 64.7525 65.4857 64.6381 65.3896 64.542C65.2936 64.446 65.1791 64.3704 65.0531 64.3198C64.9271 64.2692 64.7921 64.2446 64.6563 64.2475H64.5492C64.8514 64.0114 65.0846 63.6985 65.2246 63.3415C65.3645 62.9845 65.406 62.5965 65.3448 62.2179C65.2835 61.8394 65.1217 61.4843 64.8763 61.1896C64.6309 60.895 64.3109 60.6716 63.9497 60.5429C63.85 60.0773 63.598 59.6581 63.2334 59.3518C62.8689 59.0454 62.4126 58.8693 61.9368 58.8512C61.5054 58.8434 61.0836 58.979 60.7376 59.2367C60.5426 58.9832 60.2932 58.7766 60.0079 58.6321C59.7226 58.4875 59.4085 58.4088 59.0888 58.4015C59.0889 58.1552 59.0215 57.9134 58.894 57.7026C58.7665 57.4918 58.5837 57.3199 58.3654 57.2056C58.1471 57.0914 57.9017 57.039 57.6558 57.0544C57.4099 57.0697 57.1728 57.1521 56.9704 57.2926C56.768 57.4331 56.608 57.6263 56.5076 57.8513C56.4072 58.0764 56.3704 58.3246 56.4012 58.569C56.4319 58.8135 56.529 59.0449 56.6819 59.2381C56.8348 59.4313 57.0377 59.5789 57.2686 59.665C57.1566 59.9141 57.0982 60.1841 57.0973 60.4573C57.0935 60.9833 57.2835 61.4924 57.631 61.8874C57.9786 62.2823 58.4594 62.5355 58.9817 62.5986C58.6477 62.9682 58.4643 63.4496 58.4678 63.9477C58.5028 64.4643 58.7239 64.9507 59.09 65.3169C59.4562 65.683 59.9426 65.9041 60.4592 65.9392Z" fill="#514260"/>
<path d="M55.1485 56.2606C56.0717 56.2481 56.9602 55.9064 57.6539 55.297C58.1204 55.7296 58.7308 55.9738 59.367 55.9823C59.9925 55.9725 60.5934 55.7367 61.0586 55.3184C61.1253 55.7649 61.3501 56.1726 61.692 56.4673C62.0339 56.7621 62.4702 56.9243 62.9216 56.9245C63.4271 56.9245 63.9118 56.7237 64.2693 56.3663C64.6267 56.0088 64.8275 55.5241 64.8275 55.0186C64.8275 54.5132 64.6267 54.0284 64.2693 53.671C63.9118 53.3136 63.4271 53.1128 62.9216 53.1128H62.7075C63.3192 52.7122 63.802 52.1432 64.0976 51.4745C64.3933 50.8057 64.4891 50.0657 64.3737 49.3437C64.2583 48.6216 63.9365 47.9484 63.447 47.4051C62.9576 46.8619 62.3215 46.4718 61.6154 46.2818C61.5025 45.6502 61.2319 45.0573 60.8288 44.5581C60.4257 44.0589 59.9031 43.6695 59.3094 43.4261C58.7158 43.1826 58.0703 43.093 57.4327 43.1655C56.7952 43.238 56.1863 43.4702 55.6624 43.8407C55.3089 43.368 54.85 42.9844 54.322 42.7205C53.7941 42.4565 53.2119 42.3195 52.6217 42.3203H52.4932C52.4901 41.8646 52.3627 41.4184 52.1249 41.0298C51.887 40.6411 51.5477 40.3246 51.1434 40.1144C50.7391 39.9043 50.2851 39.8083 49.8303 39.837C49.3755 39.8656 48.9371 40.0178 48.5624 40.277C48.1877 40.5363 47.8907 40.8929 47.7035 41.3083C47.5164 41.7238 47.446 42.1824 47.5001 42.6349C47.5542 43.0874 47.7307 43.5165 48.0106 43.8761C48.2904 44.2357 48.6631 44.5122 49.0884 44.6758C48.8905 45.1508 48.7886 45.6602 48.7886 46.1748C48.7905 47.1231 49.1479 48.0362 49.7901 48.7339C50.4323 49.4316 51.3127 49.8632 52.2576 49.9436C51.7768 50.4949 51.4648 51.1728 51.3588 51.8966C51.2528 52.6204 51.3573 53.3594 51.6598 54.0254C51.9623 54.6914 52.4501 55.2563 53.0649 55.6526C53.6797 56.049 54.3956 56.26 55.1271 56.2606H55.1485Z" fill="#514260"/>
<path d="M157.145 60.585C157.832 60.5895 158.496 60.3375 159.007 59.8784C159.353 60.2102 159.814 60.3945 160.292 60.3923C160.753 60.3853 161.194 60.2102 161.534 59.8998C161.585 60.2292 161.75 60.5301 162.001 60.7495C162.251 60.969 162.572 61.0927 162.905 61.099C163.28 61.099 163.639 60.9501 163.904 60.685C164.169 60.42 164.318 60.0605 164.318 59.6857C164.318 59.3108 164.169 58.9514 163.904 58.6863C163.639 58.4213 163.28 58.2724 162.905 58.2724H162.755C163.143 58.0144 163.462 57.6644 163.683 57.2534C163.903 56.8424 164.018 56.3832 164.018 55.9169C164.012 55.293 163.798 54.6891 163.411 54.2004C163.023 53.7118 162.483 53.3663 161.877 53.2187C161.766 52.5663 161.428 51.9742 160.922 51.5471C160.417 51.12 159.776 50.8853 159.115 50.8846C158.525 50.8839 157.95 51.0632 157.466 51.3986C157.216 51.0613 156.894 50.7843 156.524 50.5879C156.153 50.3915 155.743 50.2807 155.324 50.2636H155.217C155.168 49.8067 154.952 49.3841 154.61 49.077C154.268 48.77 153.825 48.6001 153.365 48.6001C152.905 48.6001 152.462 48.77 152.12 49.077C151.778 49.3841 151.562 49.8067 151.513 50.2636C151.519 50.6419 151.638 51.0096 151.856 51.3189C152.073 51.6283 152.379 51.8649 152.733 51.9981C152.579 52.3418 152.499 52.7138 152.498 53.0902C152.5 53.7937 152.765 54.4711 153.24 54.9898C153.715 55.5086 154.367 55.8315 155.067 55.8954C154.706 56.3025 154.47 56.806 154.39 57.3446C154.309 57.8831 154.388 58.4334 154.615 58.9284C154.842 59.4233 155.208 59.8415 155.668 60.1319C156.129 60.4222 156.664 60.5723 157.209 60.5636L157.145 60.585Z" fill="#9CAAB8"/>
<path d="M70.0101 131.487L69.6461 124.87L69.3248 118.981L69.0036 112.985L68.661 107.096L68.297 100.437L67.9544 94.3338L67.6117 88.2095L67.2691 82.0852L66.9265 76.0679H68.0186V72.2349H66.7124L66.5197 68.98H64.1427H61.7658L61.5731 72.2349H60.2669V76.0679H61.3589L61.0163 82.0852L60.6737 88.2095L60.3311 94.3338L59.9885 100.437L59.6244 107.096L59.3032 112.985L58.982 118.981L58.6608 124.87L58.2968 131.487L57.9756 137.183H70.3099L70.0101 131.487Z" fill="#514260"/>
<path d="M92.4942 76.5172C92.6994 76.5149 92.897 76.4389 93.0509 76.3031C93.0675 76.426 93.1193 76.5415 93.2001 76.6357C93.2809 76.7298 93.3873 76.7985 93.5063 76.8335C93.6253 76.8685 93.7519 76.8683 93.8708 76.833C93.9897 76.7976 94.0958 76.7285 94.1763 76.6341C94.2569 76.5397 94.3083 76.4241 94.3245 76.3011C94.3407 76.1781 94.3209 76.053 94.2676 75.941C94.2142 75.829 94.1296 75.7348 94.0239 75.6699C93.9182 75.6049 93.7959 75.572 93.6719 75.575C93.845 75.4605 93.9866 75.3045 94.0839 75.1213C94.1811 74.938 94.2309 74.7332 94.2287 74.5257C94.2297 74.2496 94.1402 73.9808 93.9739 73.7604C93.8076 73.5399 93.5737 73.38 93.3079 73.3052C93.2551 72.9834 93.0819 72.6937 92.8234 72.4949C92.565 72.2961 92.2406 72.203 91.916 72.2345C91.6451 72.2376 91.3823 72.3276 91.1665 72.4914C91.0514 72.3323 90.9001 72.2027 90.7251 72.1134C90.5502 72.024 90.3565 71.9775 90.1601 71.9775C90.163 71.867 90.1434 71.7571 90.1025 71.6545C90.0616 71.5518 90.0002 71.4586 89.922 71.3804C89.8439 71.3023 89.7507 71.2409 89.648 71.1999C89.5453 71.159 89.4354 71.1394 89.3249 71.1424C89.1354 71.1516 88.9546 71.2251 88.8123 71.3508C88.6701 71.4765 88.575 71.6469 88.5425 71.8339C88.5101 72.0209 88.5424 72.2134 88.634 72.3796C88.7256 72.5459 88.8711 72.6759 89.0466 72.7484C88.9629 72.9314 88.9249 73.1321 88.9359 73.333C88.947 73.534 89.0067 73.7292 89.1099 73.902C89.2132 74.0748 89.3568 74.2199 89.5286 74.3248C89.7003 74.4297 89.895 74.4913 90.0958 74.5043C89.8938 74.7362 89.78 75.0319 89.7746 75.3395C89.7746 75.6802 89.91 76.007 90.1509 76.248C90.3919 76.4889 90.7187 76.6243 91.0595 76.6243C91.367 76.6189 91.6627 76.5051 91.8946 76.3031C92.0606 76.447 92.2746 76.5234 92.4942 76.5172Z" fill="#9CAAB8"/>
<path d="M97.8902 101.914L97.6118 97.2461L97.3549 92.5779L97.0979 87.8883L96.8409 83.2844H97.6547V80.3721H96.6696L96.5197 77.8667H94.6996H92.8794L92.7509 80.3721H91.7445V83.2844H92.5796L92.3226 87.8883L92.0657 92.5779L91.7873 97.2461L91.5303 101.914L91.252 137.033H94.3141H98.9609L97.8902 101.914Z" fill="#9CAAB8"/>
<path d="M110.006 78.5993V75.8798C109.97 75.4605 110.022 75.0384 110.159 74.6403C110.295 74.2421 110.512 73.8766 110.797 73.5668C111.082 73.2571 111.428 73.0098 111.813 72.8406C112.199 72.6715 112.615 72.5841 113.036 72.5841C113.456 72.5841 113.873 72.6715 114.258 72.8406C114.643 73.0098 114.989 73.2571 115.274 73.5668C115.559 73.8766 115.776 74.2421 115.913 74.6403C116.049 75.0384 116.101 75.4605 116.066 75.8798V78.5993H116.922V75.8798C116.887 75.4605 116.939 75.0384 117.075 74.6403C117.212 74.2421 117.429 73.8766 117.714 73.5668C117.999 73.2571 118.345 73.0098 118.73 72.8406C119.115 72.6715 119.531 72.5841 119.952 72.5841C120.373 72.5841 120.789 72.6715 121.175 72.8406C121.56 73.0098 121.906 73.2571 122.191 73.5668C122.476 73.8766 122.693 74.2421 122.829 74.6403C122.965 75.0384 123.018 75.4605 122.982 75.8798V78.5993H125.659V98.9852H130.284V60.8688H132.854V57.5711H132.105V54.8516H135.745V57.5711H134.931V60.8688H137.544V98.9852H139.471L139.664 99.1993L146.088 105.623L148.764 108.3V104.853H150.906V92.197H148.4V93.6746H147.587V75.837H148.4V77.3788H150.927V78.3852H148.422V79.67H150.927V80.6979H148.422V82.0684H150.927V83.0748H148.422V84.2097H150.927V85.2376H148.422V86.5224H150.927V87.5289H148.422V88.8351H150.927V89.8415H148.422V91.1264H150.927V91.7902V73.7813H154.782V68.5135H157.287V60.6547H160.577V68.5135H163.147V73.7813H166.916L166.916 104.853H168.864V126.802H148.722V124.446H134.781V126.759H116.494L107.35 132.605V78.5993H110.006ZM136.623 62.6033L134.481 64.1023L136.623 65.6226V62.6033ZM131.227 88.7709L133.368 87.2505L131.227 85.7301V88.7709ZM131.227 74.8734L133.368 73.353L131.227 71.8326V74.8734ZM133.925 72.9033L136.494 71.0617L133.925 69.2201L131.355 71.0617L133.925 72.9033ZM136.623 71.8326L134.481 73.353L136.623 74.8734V71.8326ZM133.925 73.7813L131.312 75.6871L133.925 77.5715L136.537 75.6443L133.925 73.7813ZM131.227 76.5008V79.5201L133.368 78.0212L131.227 76.5008ZM131.227 70.2908L133.368 68.7705L131.227 67.2501V70.2908ZM133.925 68.3422L136.537 66.4364L133.925 64.552L131.312 66.4364L133.925 68.3422ZM134.524 68.7705L136.666 70.2908V67.2715L134.524 68.7705ZM134.524 78.0212L136.666 79.5201V76.5008L134.524 78.0212ZM133.925 78.4495L131.355 80.291L133.925 82.154L136.494 80.291L133.925 78.4495ZM131.227 81.0833V84.2097L133.368 82.6894L131.227 81.0833ZM131.227 84.9164L133.839 86.8222L136.452 84.9164L133.839 83.032L131.227 84.9164ZM134.439 87.2505L136.58 88.7709V85.7301L134.439 87.2505ZM133.839 87.6787L131.269 89.5417L133.839 91.3833L136.409 89.5417L133.839 87.6787ZM131.141 90.3126V93.3534L133.282 91.833L131.141 90.3126ZM131.141 65.6226L133.282 64.1023L131.141 62.6033V65.6226ZM133.839 63.674L136.409 61.8324H131.269L133.839 63.674ZM136.537 81.0833L134.396 82.5823L136.537 84.1027V81.0833ZM136.537 90.3126L134.396 91.833L136.537 93.3534V90.3126ZM133.839 92.2613L131.162 94.2099L133.839 96.8866L136.516 94.2099L133.839 92.2613ZM131.141 95.1735V98.9852H131.741L133.347 97.3792L131.141 95.1735ZM132.833 98.9852H134.974L133.882 97.8931L132.833 98.9852ZM136.623 95.1735L134.481 97.3149L136.088 98.9209H136.687L136.623 95.1735ZM165.06 93.3962L158.636 101.79L152.212 93.3962V104.853H165.06V93.3962ZM141.612 118.707H148.722V117.893L141.205 110.399L134.974 104.189H134.781V118.707H141.612Z" fill="#514260"/>
<path d="M119.818 77.9092H117.655H115.514L113.565 117.653H117.655H121.767L119.818 77.9092Z" fill="#F7B23F"/>
<path d="M131.766 77.9092H129.604H127.462L125.514 117.653H129.604H133.715L131.766 77.9092Z" fill="#F7B23F"/>
<path d="M143.459 77.9092H141.296H139.155L137.206 117.653H141.296H145.408L143.459 77.9092Z" fill="#F7B23F"/>
<path d="M124.251 84.8047L112.345 102.942V137.033H124.251V84.8047Z" fill="#2C3A48"/>
<path d="M136.157 84.8047L124.251 102.942V137.033H136.157V84.8047Z" fill="#4D5A68"/>
<path d="M148.062 84.8047L136.156 102.942V137.033H148.062V84.8047Z" fill="#2C3A48"/>
<path d="M115.621 74.3761C115.621 74.7192 115.52 75.0545 115.329 75.3398C115.138 75.625 114.868 75.8473 114.551 75.9786C114.234 76.1099 113.885 76.1442 113.548 76.0773C113.212 76.0104 112.903 75.8452 112.66 75.6026C112.418 75.36 112.253 75.051 112.186 74.7145C112.119 74.378 112.153 74.0293 112.284 73.7123C112.416 73.3954 112.638 73.1245 112.923 72.9339C113.208 72.7433 113.544 72.6416 113.887 72.6416C114.115 72.6416 114.34 72.6865 114.551 72.7736C114.761 72.8608 114.952 72.9886 115.113 73.1496C115.274 73.3107 115.402 73.5019 115.489 73.7123C115.576 73.9228 115.621 74.1483 115.621 74.3761Z" fill="#9CAAB8"/>
<path d="M118.105 73.3053C118.105 73.7653 117.922 74.2065 117.597 74.5318C117.271 74.8571 116.83 75.0398 116.37 75.0398C115.91 75.0398 115.469 74.8571 115.144 74.5318C114.818 74.2065 114.636 73.7653 114.636 73.3053C114.636 72.8453 114.818 72.4041 115.144 72.0788C115.469 71.7535 115.91 71.5708 116.37 71.5708C116.83 71.5708 117.271 71.7535 117.597 72.0788C117.922 72.4041 118.105 72.8453 118.105 73.3053Z" fill="#9CAAB8"/>
<path d="M116.991 74.8474C116.991 75.1618 116.868 75.4636 116.647 75.6879C116.427 75.9121 116.128 76.041 115.813 76.0466C115.575 76.0508 115.341 75.9841 115.141 75.855C114.941 75.7258 114.784 75.5401 114.69 75.3213C114.596 75.1026 114.569 74.8609 114.613 74.6269C114.657 74.3929 114.77 74.1772 114.936 74.0073C115.103 73.8375 115.317 73.7211 115.55 73.6731C115.783 73.6251 116.025 73.6475 116.246 73.7376C116.466 73.8277 116.655 73.9814 116.787 74.179C116.92 74.3767 116.991 74.6093 116.991 74.8474Z" fill="#9CAAB8"/>
<path d="M114.465 71.5499C114.465 71.7777 114.42 72.0033 114.333 72.2137C114.246 72.4242 114.118 72.6154 113.957 72.7764C113.796 72.9375 113.605 73.0652 113.394 73.1524C113.184 73.2396 112.958 73.2845 112.731 73.2845C112.503 73.2845 112.277 73.2396 112.067 73.1524C111.856 73.0652 111.665 72.9375 111.504 72.7764C111.343 72.6154 111.215 72.4242 111.128 72.2137C111.041 72.0033 110.996 71.7777 110.996 71.5499C110.996 71.0899 111.179 70.6487 111.504 70.3235C111.829 69.9982 112.271 69.8154 112.731 69.8154C113.191 69.8154 113.632 69.9982 113.957 70.3235C114.282 70.6487 114.465 71.0899 114.465 71.5499Z" fill="#9CAAB8"/>
<path d="M116.863 71.9347C116.863 72.3947 116.68 72.8359 116.355 73.1612C116.029 73.4865 115.588 73.6692 115.128 73.6692C114.668 73.6692 114.227 73.4865 113.902 73.1612C113.576 72.8359 113.394 72.3947 113.394 71.9347C113.394 71.7069 113.438 71.4814 113.526 71.2709C113.613 71.0605 113.741 70.8693 113.902 70.7082C114.063 70.5472 114.254 70.4194 114.464 70.3322C114.675 70.2451 114.9 70.2002 115.128 70.2002C115.356 70.2002 115.581 70.2451 115.792 70.3322C116.002 70.4194 116.193 70.5472 116.355 70.7082C116.516 70.8693 116.643 71.0605 116.731 71.2709C116.818 71.4814 116.863 71.7069 116.863 71.9347Z" fill="#9CAAB8"/>
<path d="M112.666 69.8146C112.666 70.1156 112.547 70.4043 112.334 70.6171C112.121 70.83 111.832 70.9495 111.531 70.9495C111.23 70.9495 110.942 70.83 110.729 70.6171C110.516 70.4043 110.396 70.1156 110.396 69.8146C110.396 69.5136 110.516 69.2249 110.729 69.0121C110.942 68.7993 111.23 68.6797 111.531 68.6797C111.832 68.6797 112.121 68.7993 112.334 69.0121C112.547 69.2249 112.666 69.5136 112.666 69.8146Z" fill="#9CAAB8"/>
<path d="M118.298 75.5962C118.318 75.7216 118.31 75.8497 118.276 75.9717C118.241 76.0938 118.181 76.207 118.098 76.3034C118.016 76.3998 117.913 76.4772 117.798 76.5303C117.683 76.5834 117.558 76.6109 117.431 76.6109C117.304 76.6109 117.178 76.5834 117.063 76.5303C116.948 76.4772 116.846 76.3998 116.763 76.3034C116.681 76.207 116.62 76.0938 116.586 75.9717C116.551 75.8497 116.544 75.7216 116.563 75.5962C116.596 75.3896 116.701 75.2014 116.86 75.0656C117.019 74.9297 117.222 74.855 117.431 74.855C117.64 74.855 117.842 74.9297 118.001 75.0656C118.16 75.2014 118.265 75.3896 118.298 75.5962Z" fill="#9CAAB8"/>
<path d="M127.528 74.5255C127.528 74.7533 127.483 74.9789 127.396 75.1893C127.308 75.3997 127.181 75.5909 127.02 75.752C126.859 75.9131 126.667 76.0408 126.457 76.128C126.246 76.2152 126.021 76.26 125.793 76.26C125.333 76.26 124.892 76.0773 124.567 75.752C124.241 75.4267 124.059 74.9855 124.059 74.5255C124.059 74.0655 124.241 73.6243 124.567 73.299C124.892 72.9738 125.333 72.791 125.793 72.791C126.253 72.791 126.694 72.9738 127.02 73.299C127.345 73.6243 127.528 74.0655 127.528 74.5255Z" fill="#9CAAB8"/>
<path d="M130.011 73.4127C130.007 73.7548 129.901 74.088 129.708 74.3704C129.515 74.6528 129.243 74.8718 128.925 74.9998C128.608 75.1278 128.26 75.1591 127.925 75.0898C127.59 75.0205 127.283 74.8536 127.043 74.6102C126.802 74.3668 126.639 74.0577 126.574 73.7218C126.509 73.386 126.544 73.0383 126.676 72.7226C126.808 72.4069 127.03 72.1373 127.315 71.9476C127.6 71.758 127.934 71.6568 128.276 71.6567C128.506 71.6567 128.733 71.7023 128.945 71.7908C129.157 71.8793 129.349 72.009 129.51 72.1723C129.672 72.3357 129.799 72.5294 129.885 72.7423C129.971 72.9552 130.014 73.1831 130.011 73.4127Z" fill="#9CAAB8"/>
<path d="M128.898 74.9546C128.898 75.267 128.773 75.5665 128.553 75.7874C128.332 76.0083 128.032 76.1324 127.72 76.1324C127.407 76.1324 127.108 76.0083 126.887 75.7874C126.666 75.5665 126.542 75.267 126.542 74.9546C126.542 74.6422 126.666 74.3427 126.887 74.1218C127.108 73.9009 127.407 73.7769 127.72 73.7769C128.032 73.7769 128.332 73.9009 128.553 74.1218C128.773 74.3427 128.898 74.6422 128.898 74.9546Z" fill="#9CAAB8"/>
<path d="M126.37 71.6564C126.37 72.1164 126.188 72.5576 125.862 72.8829C125.537 73.2082 125.096 73.3909 124.636 73.3909C124.176 73.3909 123.735 73.2082 123.409 72.8829C123.084 72.5576 122.901 72.1164 122.901 71.6564C122.901 71.1964 123.084 70.7552 123.409 70.4299C123.735 70.1046 124.176 69.9219 124.636 69.9219C125.096 69.9219 125.537 70.1046 125.862 70.4299C126.188 70.7552 126.37 71.1964 126.37 71.6564Z" fill="#9CAAB8"/>
<path d="M127.034 73.7766C127.992 73.7766 128.769 73.0001 128.769 72.0421C128.769 71.0842 127.992 70.3076 127.034 70.3076C126.076 70.3076 125.3 71.0842 125.3 72.0421C125.3 73.0001 126.076 73.7766 127.034 73.7766Z" fill="#9CAAB8"/>
<path d="M124.572 69.9225C124.572 70.2235 124.452 70.5122 124.239 70.725C124.026 70.9379 123.738 71.0575 123.437 71.0575C123.136 71.0575 122.847 70.9379 122.634 70.725C122.421 70.5122 122.302 70.2235 122.302 69.9225C122.302 69.6215 122.421 69.3329 122.634 69.12C122.847 68.9072 123.136 68.7876 123.437 68.7876C123.586 68.7876 123.733 68.817 123.871 68.874C124.009 68.931 124.134 69.0146 124.239 69.12C124.345 69.2254 124.428 69.3505 124.485 69.4882C124.542 69.6259 124.572 69.7735 124.572 69.9225Z" fill="#9CAAB8"/>
<path d="M130.204 75.7036C130.224 75.8289 130.216 75.957 130.182 76.0791C130.147 76.2012 130.087 76.3143 130.004 76.4108C129.922 76.5072 129.82 76.5846 129.704 76.6377C129.589 76.6908 129.464 76.7183 129.337 76.7183C129.21 76.7183 129.085 76.6908 128.97 76.6377C128.854 76.5846 128.752 76.5072 128.67 76.4108C128.587 76.3143 128.527 76.2012 128.492 76.0791C128.458 75.957 128.45 75.8289 128.47 75.7036C128.45 75.5783 128.458 75.4502 128.492 75.3281C128.527 75.2061 128.587 75.0929 128.67 74.9965C128.752 74.9001 128.854 74.8226 128.97 74.7695C129.085 74.7165 129.21 74.689 129.337 74.689C129.464 74.689 129.589 74.7165 129.704 74.7695C129.82 74.8226 129.922 74.9001 130.004 74.9965C130.087 75.0929 130.147 75.2061 130.182 75.3281C130.216 75.4502 130.224 75.5783 130.204 75.7036Z" fill="#9CAAB8"/>
<path d="M139.026 74.6334C139.026 75.0935 138.843 75.5346 138.518 75.8599C138.192 76.1852 137.751 76.3679 137.291 76.3679C136.831 76.3679 136.39 76.1852 136.065 75.8599C135.739 75.5346 135.557 75.0935 135.557 74.6334C135.557 74.1734 135.739 73.7322 136.065 73.407C136.39 73.0817 136.831 72.8989 137.291 72.8989C137.751 72.8989 138.192 73.0817 138.518 73.407C138.843 73.7322 139.026 74.1734 139.026 74.6334Z" fill="#9CAAB8"/>
<path d="M141.446 73.4986C141.446 73.9643 141.261 74.4109 140.932 74.7402C140.603 75.0695 140.156 75.2545 139.69 75.2545C139.343 75.2545 139.004 75.1515 138.715 74.9586C138.426 74.7657 138.201 74.4914 138.068 74.1706C137.935 73.8497 137.901 73.4967 137.968 73.156C138.036 72.8154 138.203 72.5025 138.449 72.257C138.694 72.0114 139.007 71.8442 139.348 71.7764C139.689 71.7087 140.042 71.7434 140.362 71.8763C140.683 72.0092 140.958 72.2343 141.15 72.5231C141.343 72.8118 141.446 73.1513 141.446 73.4986Z" fill="#9CAAB8"/>
<path d="M140.311 75.062C140.313 75.2175 140.285 75.3719 140.227 75.5162C140.169 75.6604 140.082 75.7914 139.972 75.9013C139.862 76.0113 139.731 76.0979 139.587 76.1561C139.443 76.2142 139.288 76.2427 139.133 76.2398C138.82 76.2398 138.521 76.1157 138.3 75.8948C138.079 75.674 137.955 75.3744 137.955 75.062C137.955 74.7497 138.079 74.4501 138.3 74.2292C138.521 74.0084 138.82 73.8843 139.133 73.8843C139.445 73.8843 139.745 74.0084 139.966 74.2292C140.187 74.4501 140.311 74.7497 140.311 75.062Z" fill="#9CAAB8"/>
<path d="M137.806 71.7643C137.8 72.2263 137.613 72.6674 137.284 72.9921C136.955 73.3168 136.512 73.4988 136.05 73.4988C135.59 73.4988 135.149 73.3161 134.823 72.9908C134.498 72.6655 134.315 72.2243 134.315 71.7643C134.315 71.3043 134.498 70.8631 134.823 70.5378C135.149 70.2125 135.59 70.0298 136.05 70.0298C136.512 70.0298 136.955 70.2118 137.284 70.5365C137.613 70.8612 137.8 71.3023 137.806 71.7643Z" fill="#9CAAB8"/>
<path d="M140.183 72.235C140.183 72.5781 140.081 72.9134 139.891 73.1986C139.7 73.4839 139.429 73.7062 139.112 73.8375C138.795 73.9688 138.446 74.0031 138.11 73.9362C137.774 73.8693 137.464 73.7041 137.222 73.4615C136.979 73.2189 136.814 72.9098 136.747 72.5734C136.68 72.2369 136.715 71.8882 136.846 71.5712C136.977 71.2543 137.199 70.9834 137.485 70.7928C137.77 70.6022 138.105 70.5005 138.448 70.5005C138.907 70.506 139.345 70.6906 139.669 71.0147C139.993 71.3387 140.177 71.7767 140.183 72.235Z" fill="#9CAAB8"/>
<path d="M135.986 70.0944C135.986 70.3954 135.866 70.6841 135.653 70.8969C135.44 71.1098 135.152 71.2293 134.851 71.2293C134.55 71.2293 134.261 71.1098 134.048 70.8969C133.835 70.6841 133.716 70.3954 133.716 70.0944C133.716 69.7934 133.835 69.5047 134.048 69.2919C134.261 69.079 134.55 68.9595 134.851 68.9595C135.152 68.9595 135.44 69.079 135.653 69.2919C135.866 69.5047 135.986 69.7934 135.986 70.0944Z" fill="#9CAAB8"/>
<path d="M141.617 75.811C141.585 76.0177 141.479 76.2058 141.32 76.3417C141.161 76.4776 140.959 76.5523 140.75 76.5523C140.541 76.5523 140.339 76.4776 140.18 76.3417C140.021 76.2058 139.915 76.0177 139.883 75.811C139.863 75.6857 139.871 75.5576 139.905 75.4356C139.94 75.3135 140 75.2003 140.083 75.1039C140.165 75.0075 140.267 74.9301 140.383 74.877C140.498 74.8239 140.623 74.7964 140.75 74.7964C140.877 74.7964 141.002 74.8239 141.117 74.877C141.233 74.9301 141.335 75.0075 141.417 75.1039C141.5 75.2003 141.56 75.3135 141.595 75.4356C141.629 75.5576 141.637 75.6857 141.617 75.811Z" fill="#9CAAB8"/>
<path d="M63.179 100.737H62.3867V133.307H63.179V100.737Z" fill="#F19B2C"/>
<path d="M65.6847 129.945H62.7725V130.737H65.6847V129.945Z" fill="#F19B2C"/>
<path d="M65.6847 126.947H62.7725V127.739H65.6847V126.947Z" fill="#F19B2C"/>
<path d="M65.6847 123.949H62.7725V124.742H65.6847V123.949Z" fill="#F19B2C"/>
<path d="M65.6847 120.951H62.7725V121.743H65.6847V120.951Z" fill="#F19B2C"/>
<path d="M65.6847 117.974H62.7725V118.766H65.6847V117.974Z" fill="#F19B2C"/>
<path d="M65.6847 114.977H62.7725V115.769H65.6847V114.977Z" fill="#F19B2C"/>
<path d="M65.6847 111.979H62.7725V112.771H65.6847V111.979Z" fill="#F19B2C"/>
<path d="M65.6847 108.981H62.7725V109.773H65.6847V108.981Z" fill="#F19B2C"/>
<path d="M65.6847 105.982H62.7725V106.775H65.6847V105.982Z" fill="#F19B2C"/>
<path d="M65.6847 102.985H62.7725V103.777H65.6847V102.985Z" fill="#F19B2C"/>
<path d="M41.8294 91.4644H41.0371V124.035H41.8294V91.4644Z" fill="#F19B2C"/>
<path d="M44.3566 120.673H41.4443V121.465H44.3566V120.673Z" fill="#F19B2C"/>
<path d="M44.3566 117.675H41.4443V118.468H44.3566V117.675Z" fill="#F19B2C"/>
<path d="M44.3566 114.676H41.4443V115.469H44.3566V114.676Z" fill="#F19B2C"/>
<path d="M44.3566 111.679H41.4443V112.471H44.3566V111.679Z" fill="#F19B2C"/>
<path d="M44.3566 108.681H41.4443V109.473H44.3566V108.681Z" fill="#F19B2C"/>
<path d="M44.3566 105.684H41.4443V106.476H44.3566V105.684Z" fill="#F19B2C"/>
<path d="M44.3566 102.685H41.4443V103.477H44.3566V102.685Z" fill="#F19B2C"/>
<path d="M44.3566 99.687H41.4443V100.501H44.3566V99.687Z" fill="#F19B2C"/>
<path d="M44.3566 96.7109H41.4443V97.5032H44.3566V96.7109Z" fill="#F19B2C"/>
<path d="M44.3566 93.7124H41.4443V94.5047H44.3566V93.7124Z" fill="#F19B2C"/>
<path d="M57.1398 122.214H54.2275V123.071H57.1398V122.214Z" fill="#F19B2C"/>
<path d="M57.1398 119.045H54.2275V119.901H57.1398V119.045Z" fill="#F19B2C"/>
<path d="M57.1398 115.855H54.2275V116.712H57.1398V115.855Z" fill="#F19B2C"/>
<path d="M57.1398 112.685H54.2275V113.542H57.1398V112.685Z" fill="#F19B2C"/>
<path d="M57.1398 109.495H54.2275V110.351H57.1398V109.495Z" fill="#F19B2C"/>
<path d="M57.1398 106.326H54.2275V107.182H57.1398V106.326Z" fill="#F19B2C"/>
<path d="M57.1398 103.135H54.2275V103.992H57.1398V103.135Z" fill="#F19B2C"/>
<path d="M57.1398 99.9658H54.2275V100.822H57.1398V99.9658Z" fill="#F19B2C"/>
<path d="M57.1398 96.7749H54.2275V97.6315H57.1398V96.7749Z" fill="#F19B2C"/>
<path d="M57.1398 93.606H54.2275V94.4625H57.1398V93.606Z" fill="#F19B2C"/>
<path d="M99.9439 60.8623L99.3418 61.6953L108.661 68.4316L109.263 67.5986L99.9439 60.8623Z" fill="#F19B2C"/>
<path d="M108.655 67.5886L99.334 74.3232L99.936 75.1564L109.257 68.4217L108.655 67.5886Z" fill="#F19B2C"/>
<path d="M99.939 74.3203L99.3369 75.1533L108.656 81.8896L109.259 81.0566L99.939 74.3203Z" fill="#F19B2C"/>
<path d="M99.9248 88.6381L99.3252 87.8029L108.64 81.0576L109.24 81.8927L99.9248 88.6381Z" fill="#F19B2C"/>
<path d="M99.9301 87.7743L99.3281 88.6074L108.649 95.3421L109.251 94.5089L99.9301 87.7743Z" fill="#F19B2C"/>
<path d="M108.65 94.5193L99.3291 101.254L99.9311 102.087L109.252 95.3524L108.65 94.5193Z" fill="#F19B2C"/>
<path d="M99.9293 101.258L99.3271 102.091L108.647 108.827L109.249 107.994L99.9293 101.258Z" fill="#F19B2C"/>
<path d="M108.576 108.066L99.0957 117.543L99.8224 118.27L109.303 108.793L108.576 108.066Z" fill="#F19B2C"/>
<path d="M108.572 60.8593L99.2471 67.5874L99.8485 68.421L109.174 61.6928L108.572 60.8593Z" fill="#F19B2C"/>
<path d="M99.8334 67.5682L99.2314 68.4014L108.552 75.136L109.154 74.3029L99.8334 67.5682Z" fill="#F19B2C"/>
<path d="M108.561 74.3129L99.2422 81.0508L99.8445 81.8837L109.163 75.1458L108.561 74.3129Z" fill="#F19B2C"/>
<path d="M99.8456 81.0519L99.2432 81.8848L108.56 88.6243L109.163 87.7915L99.8456 81.0519Z" fill="#F19B2C"/>
<path d="M108.573 87.8007L99.248 94.5288L99.8494 95.3624L109.175 88.6342L108.573 87.8007Z" fill="#F19B2C"/>
<path d="M99.8471 94.5238L99.2451 95.3569L108.566 102.092L109.168 101.258L99.8471 94.5238Z" fill="#F19B2C"/>
<path d="M108.563 101.237L99.249 107.981L99.8519 108.814L109.165 102.07L108.563 101.237Z" fill="#F19B2C"/>
<path d="M108.662 118.253L99.1758 108.767L99.9038 108.06L109.39 117.525L108.662 118.253Z" fill="#F19B2C"/>
<path d="M128.833 143.988H125.535V149.62H128.833V143.988Z" fill="#F19B2C"/>
<path d="M139.026 145.68H113.523C110.396 145.68 107.934 143.775 107.934 141.398C107.934 139.021 110.289 137.308 113.523 137.308V140.477C111.959 140.477 111.103 141.098 111.103 141.398C111.103 141.697 112.024 142.554 113.523 142.554H139.026V145.68Z" fill="#F19B2C"/>
<path d="M98.0836 145.68H51.2305V142.511H98.0836C99.5826 142.511 100.525 141.761 100.525 141.354C100.525 140.948 99.5826 140.22 98.0836 140.22V137.05C101.231 137.05 103.673 138.935 103.673 141.333C103.673 143.731 101.231 145.68 98.0836 145.68Z" fill="#F19B2C"/>
<path d="M139.027 151.119H92.3232V147.949H139.027C140.525 147.949 141.446 147.221 141.446 146.814C141.446 146.408 140.525 145.679 139.027 145.679V142.51C142.174 142.51 144.615 144.395 144.615 146.793C144.615 149.191 142.239 151.119 139.027 151.119Z" fill="#F19B2C"/>
<path d="M98.3399 151.119H51.5938C48.446 151.119 45.9834 149.234 45.9834 146.836C45.9834 144.438 48.446 142.553 51.5938 142.553V145.68C50.0734 145.68 49.174 146.408 49.174 146.815C49.174 147.221 50.0734 147.949 51.5938 147.949H98.3399V151.119Z" fill="#F19B2C"/>
<path d="M150.226 118.639C153.352 118.639 155.815 116.755 155.815 114.356C155.648 113.081 154.992 111.921 153.985 111.121C152.977 110.322 151.698 109.946 150.418 110.074C148.919 110.074 147.999 109.345 147.999 108.939C147.999 108.532 148.919 107.782 150.418 107.782C153.545 107.782 156.007 105.898 156.007 103.5C156.007 101.101 153.545 99.2168 150.418 99.2168H137.035C135.984 99.2168 134.976 99.6342 134.233 100.377C133.491 101.12 133.073 102.128 133.073 103.178V105.705H129.411C128.361 105.705 127.353 106.123 126.61 106.865C125.867 107.608 125.45 108.616 125.45 109.667V112.75H120.461C119.414 112.75 118.409 113.165 117.667 113.903C116.924 114.641 116.505 115.643 116.499 116.69V120.609H119.754V116.605C119.754 116.395 119.837 116.193 119.986 116.044C120.134 115.896 120.336 115.812 120.546 115.812H133.459C133.669 115.812 133.87 115.896 134.019 116.044C134.167 116.193 134.251 116.395 134.251 116.605V120.523H137.42V116.605C137.414 115.558 136.995 114.556 136.252 113.817C135.51 113.079 134.506 112.665 133.459 112.665H128.619V109.581C128.625 109.373 128.71 109.174 128.857 109.027C129.005 108.879 129.203 108.794 129.411 108.789H136.221V107.011V103.093C136.221 102.883 136.304 102.681 136.453 102.532C136.602 102.384 136.803 102.3 137.013 102.3H150.397C151.896 102.3 152.817 103.05 152.817 103.435C152.817 103.821 151.896 104.57 150.397 104.57C147.249 104.57 144.786 106.476 144.786 108.853C144.786 111.23 147.163 113.136 150.204 113.136C151.703 113.136 152.624 113.864 152.624 114.271C152.624 114.677 151.703 115.406 150.204 115.406C147.056 115.406 144.594 117.311 144.594 119.688C144.594 122.065 147.056 123.971 150.204 123.971C151.703 123.971 152.624 124.699 152.624 125.106C152.624 125.513 151.703 126.241 150.204 126.241C147.056 126.241 144.594 128.147 144.594 130.524C144.594 132.901 147.056 134.806 150.204 134.806C151.703 134.806 152.624 135.534 152.624 135.941C152.624 136.348 151.703 137.076 150.204 137.076H113.522V140.245H150.226C153.352 140.245 155.815 138.361 155.815 135.963C155.815 133.564 153.352 131.68 150.226 131.68C148.705 131.68 147.784 130.93 147.784 130.545C147.784 130.16 148.705 129.389 150.226 129.389C153.352 129.389 155.815 127.504 155.815 125.106C155.815 122.708 153.352 120.823 150.226 120.823C148.705 120.823 147.784 120.074 147.784 119.688C147.784 119.303 148.705 118.639 150.226 118.639Z" fill="#F19B2C"/>
<path d="M65.1278 138.55H61.8301V144.182H65.1278V138.55Z" fill="#F19B2C"/>
<path d="M98.083 137.05L152.838 137.028L151.06 140.219H98.083V137.05Z" fill="#F19B2C"/>
<path d="M94.9999 143.003H91.7021V148.635H94.9999V143.003Z" fill="#F19B2C"/>
<path d="M38.6602 137.054C37.1398 137.054 36.219 136.326 36.219 135.919C36.219 135.513 37.1398 134.784 38.6602 134.784H43.414V131.615H38.6602C35.5124 131.615 33.0498 133.5 33.0498 135.898C33.0498 138.296 35.5124 140.181 38.6602 140.181H85.4919V137.054H38.6602Z" fill="#F19B2C"/>
<path d="M98.0832 137.05H85.4062V140.22H98.0832V137.05Z" fill="#F19B2C"/>
<path d="M54.442 80.8001C54.442 79.3349 53.86 77.9296 52.8239 76.8935C51.7878 75.8575 50.3826 75.2754 48.9173 75.2754C47.4521 75.2754 46.0468 75.8575 45.0107 76.8935C43.9746 77.9296 43.3926 79.3349 43.3926 80.8001V137.032H54.442V80.8001Z" fill="#F8BE49"/>
<path d="M82.9655 100.222C82.9655 97.9337 82.0563 95.7387 80.4379 94.1204C78.8195 92.502 76.6245 91.5928 74.3358 91.5928C72.047 91.5928 69.852 92.502 68.2336 94.1204C66.6153 95.7387 65.7061 97.9337 65.7061 100.222V137.054H82.9655V100.222Z" fill="#F8BE49"/>
<path d="M58.5959 137.054L56.3047 137.268V72.6414C56.4025 71.6652 56.118 70.6891 55.511 69.9183C54.9039 69.1476 54.0217 68.6422 53.0498 68.5085C52.07 68.6321 51.1772 69.1331 50.5613 69.905C49.9454 70.6769 49.655 71.6587 49.7521 72.6414V76.0676H47.4822V72.6414C47.376 71.0529 47.9014 69.4868 48.9441 68.2837C49.9867 67.0806 51.4623 66.3379 53.0498 66.2173C54.6334 66.3433 56.1036 67.0883 57.1417 68.2907C58.1798 69.4932 58.7023 71.0563 58.5959 72.6414V137.054Z" fill="#F8BE49"/>
<path d="M93.3077 105.769H82.9648V107.118H93.3077V105.769Z" fill="#F19B2C"/>
<path d="M93.3077 110.159H82.9648V111.508H93.3077V110.159Z" fill="#F19B2C"/>
<path d="M93.3077 114.527H82.9648V115.876H93.3077V114.527Z" fill="#F19B2C"/>
<path d="M93.3077 118.917H82.9648V120.287H93.3077V118.917Z" fill="#F19B2C"/>
<path d="M93.3077 123.307H82.9648V124.677H93.3077V123.307Z" fill="#F19B2C"/>
<path d="M109.539 60.2646H108.19V117.975H109.539V60.2646Z" fill="#F19B2C"/>
<path d="M93.3077 127.696H82.9648V129.045H93.3077V127.696Z" fill="#F19B2C"/>
<path d="M109.539 59.8794H98.9609V61.2713H109.539V59.8794Z" fill="#F19B2C"/>
<path d="M100.31 60.2646H98.9609V117.975H100.31V60.2646Z" fill="#F19B2C"/>
<path d="M105.835 53.7549H102.772V60.8H105.835V53.7549Z" fill="#F19B2C"/>
<path d="M106.905 51.0996H101.595V55.0611H106.905V51.0996Z" fill="#F19B2C"/>
<path d="M121.167 120.522H115.086V137.054H121.167V120.522Z" fill="white"/>
<path d="M122.281 122.128H113.801V124.227H122.281V122.128Z" fill="#F19B2C"/>
<path d="M122.281 127.953H113.801V130.052H122.281V127.953Z" fill="#F19B2C"/>
<path d="M122.281 133.756H113.801V135.876H122.281V133.756Z" fill="#F19B2C"/>
<path d="M90.2248 137.076H86.6058V88.2524C86.6058 84.6121 84.2503 81.657 81.3809 81.657C78.5115 81.657 76.1345 84.6121 76.1345 88.2524V93.6487H72.5156V88.2524C72.5156 82.6206 76.4772 78.0381 81.3809 78.0381C86.2846 78.0381 90.2248 82.6206 90.2248 88.2524V137.076Z" fill="#F8BE49"/>
<path d="M54.442 88.6812H43.3926V91.4649H54.442V88.6812Z" fill="#F19B2C"/>
<path d="M54.442 97.7388H43.3926V100.523H54.442V97.7388Z" fill="#F19B2C"/>
<path d="M54.442 107.161H43.3926V109.944H54.442V107.161Z" fill="#F19B2C"/>
<path d="M54.442 118.36H43.3926V121.144H54.442V118.36Z" fill="#F19B2C"/>
<path d="M139.626 134.334C140.87 133.772 141.931 132.872 142.689 131.736C143.446 130.6 143.869 129.275 143.908 127.91C143.852 126.256 143.247 124.669 142.188 123.397C141.13 122.125 139.678 121.242 138.062 120.886V118.959H133.673V120.929C132.088 121.305 130.671 122.192 129.642 123.454C128.612 124.716 128.027 126.282 127.977 127.91C127.991 129.258 128.384 130.576 129.111 131.712C129.838 132.847 130.87 133.756 132.088 134.334L129.947 135.126L129.69 137.268H130.675L131.082 135.662L133.501 134.976C134.086 135.158 134.689 135.273 135.3 135.319V135.426L135.471 137.268H136.028L136.199 135.426C136.922 135.426 137.642 135.332 138.341 135.148L140.482 135.747L140.868 137.353H141.874L141.617 135.212L139.626 134.334Z" fill="white"/>
<path d="M134.786 123.393H133.994V131.594H134.786V123.393Z" fill="#F19B2C"/>
<path d="M137.955 123.393H137.163V131.594H137.955V123.393Z" fill="#F19B2C"/>
<path d="M137.57 125.084H134.251V125.684H137.57V125.084Z" fill="#F19B2C"/>
<path d="M137.57 127.226H134.251V127.825H137.57V127.226Z" fill="#F19B2C"/>
<path d="M137.57 129.345H134.251V129.945H137.57V129.345Z" fill="#F19B2C"/>
<path d="M111.531 117.033H97.4619V137.055H111.531V117.033Z" fill="#4D5A68"/>
<path d="M72.815 95.7686H71.8086V106.218H72.815V95.7686Z" fill="#F19B2C"/>
<path d="M76.8404 95.7686H75.834V106.218H76.8404V95.7686Z" fill="#F19B2C"/>
<path d="M76.3484 97.9312H72.1299V98.6806H76.3484V97.9312Z" fill="#F19B2C"/>
<path d="M76.3484 100.651H72.1299V101.4H76.3484V100.651Z" fill="#F19B2C"/>
<path d="M76.3484 103.349H72.1299V104.098H76.3484V103.349Z" fill="#F19B2C"/>
<path d="M72.815 106.197H71.8086V116.647H72.815V106.197Z" fill="#F19B2C"/>
<path d="M76.8404 106.197H75.834V116.647H76.8404V106.197Z" fill="#F19B2C"/>
<path d="M76.3484 108.36H72.1299V109.109H76.3484V108.36Z" fill="#F19B2C"/>
<path d="M76.3484 111.08H72.1299V111.829H76.3484V111.08Z" fill="#F19B2C"/>
<path d="M76.3484 113.799H72.1299V114.549H76.3484V113.799Z" fill="#F19B2C"/>
<path d="M76.8622 105.769H71.8086V106.668H76.8622V105.769Z" fill="#F19B2C"/>
<path d="M72.815 116.154H71.8086V126.604H72.815V116.154Z" fill="#F19B2C"/>
<path d="M76.8404 116.154H75.834V126.604H76.8404V116.154Z" fill="#F19B2C"/>
<path d="M76.3484 118.317H72.1299V119.067H76.3484V118.317Z" fill="#F19B2C"/>
<path d="M76.3484 121.037H72.1299V121.786H76.3484V121.037Z" fill="#F19B2C"/>
<path d="M76.3484 123.756H72.1299V124.506H76.3484V123.756Z" fill="#F19B2C"/>
<path d="M72.815 126.604H71.8086V137.054H72.815V126.604Z" fill="#F19B2C"/>
<path d="M76.8404 126.604H75.834V137.054H76.8404V126.604Z" fill="#F19B2C"/>
<path d="M76.3484 128.767H72.1299V129.516H76.3484V128.767Z" fill="#F19B2C"/>
<path d="M76.3484 131.486H72.1299V132.236H76.3484V131.486Z" fill="#F19B2C"/>
<path d="M76.3484 134.203H72.1299V134.952H76.3484V134.203Z" fill="#F19B2C"/>
<path d="M76.8622 126.155H71.8086V127.076H76.8622V126.155Z" fill="#F19B2C"/>
<path d="M76.4771 115.898H72.2158V116.755H76.4771V115.898Z" fill="#F19B2C"/>
<path d="M38.3821 205.103C33.5431 205.097 28.9036 203.174 25.48 199.754C22.0563 196.334 20.1275 191.697 20.1162 186.858V185.252C20.1275 180.413 22.0563 175.776 25.48 172.356C28.9036 168.937 33.5431 167.013 38.3821 167.008H59.0677L58.2326 172.233H38.3821C34.9626 172.233 31.6813 173.582 29.2513 175.988C26.8214 178.394 25.4392 181.662 25.4054 185.081V186.687C25.4392 190.106 26.8214 193.374 29.2513 195.78C31.6813 198.186 34.9626 199.535 38.3821 199.535H53.3717V204.846L38.3821 205.103Z" fill="#F19B2C"/>
<path d="M71.4872 149.792C71.7104 150.718 71.8253 151.667 71.8299 152.619V154.204C71.8299 157.611 70.4762 160.879 68.0667 163.289C65.6572 165.698 62.3892 167.052 58.9816 167.052H44.249V172.213H58.9816C63.7431 172.201 68.3062 170.305 71.6731 166.938C75.0399 163.571 76.9364 159.008 76.9477 154.247V152.662C76.9456 151.715 76.8668 150.77 76.7122 149.835L71.4872 149.792Z" fill="#F19B2C"/>
<path d="M83.1152 34.5683C83.0594 34.0945 83.1312 33.6144 83.3232 33.1776C83.5152 32.7409 83.8204 32.3634 84.2073 32.0843C84.7532 31.7316 85.4019 31.5732 86.0489 31.6346C86.2223 30.9453 86.6208 30.3336 87.1814 29.8965C87.742 29.4595 88.4324 29.2222 89.1432 29.2222C89.854 29.2222 90.5444 29.4595 91.105 29.8965C91.6655 30.3336 92.0641 30.9453 92.2375 31.6346C92.8912 31.5734 93.5467 31.7316 94.1004 32.0843C94.4851 32.3644 94.7874 32.7427 94.9758 33.1797C95.1642 33.6167 95.2316 34.0963 95.1711 34.5683C96.2418 34.9537 96.9485 35.6818 96.9485 36.5383V36.7739C96.9485 38.0159 95.4067 38.9152 93.5223 38.9152H84.7855C82.8797 38.9152 81.3379 37.9088 81.3379 36.7739V36.5383C81.3379 35.6818 82.0445 34.9537 83.1152 34.5683Z" fill="#8C9AA8"/>
<path d="M75.2348 35.3388C75.1777 34.9382 75.2268 34.5295 75.3771 34.1538C75.5274 33.778 75.7737 33.4482 76.0914 33.1975C76.5041 32.8942 77.0187 32.7637 77.5261 32.8334C77.6192 32.2674 77.9104 31.7529 78.3478 31.3817C78.7851 31.0104 79.3401 30.8066 79.9137 30.8066C80.4873 30.8066 81.0423 31.0104 81.4796 31.3817C81.9169 31.7529 82.2082 32.2674 82.3013 32.8334C82.8086 32.7659 83.3223 32.8963 83.736 33.1975C84.0515 33.4492 84.2949 33.7798 84.4415 34.1559C84.5882 34.5319 84.6329 34.94 84.5712 35.3388C84.9384 35.4378 85.2666 35.6467 85.5116 35.9377C85.7566 36.2286 85.9067 36.5875 85.9416 36.9663V37.159C85.9416 38.1869 84.7639 39.022 83.2864 39.022H76.541C75.0635 39.022 73.8857 38.1869 73.8857 37.159V36.9663C73.9163 36.5893 74.0621 36.2309 74.3035 35.9397C74.5449 35.6485 74.87 35.4387 75.2348 35.3388Z" fill="#514260"/>
<path d="M107.975 22.2688C107.945 21.9817 107.988 21.6914 108.099 21.4274C108.209 21.1634 108.384 20.9352 108.605 20.766C108.921 20.5439 109.302 20.4467 109.679 20.4916C109.763 20.0618 109.987 19.677 110.312 19.4046C110.637 19.1323 111.042 18.9897 111.457 19.0018C111.878 18.9823 112.293 19.1211 112.627 19.3937C112.962 19.6663 113.194 20.0551 113.284 20.4916C113.661 20.4467 114.042 20.5439 114.358 20.766C114.579 20.9352 114.754 21.1634 114.864 21.4274C114.975 21.6914 115.018 21.9817 114.988 22.2688C115.253 22.3385 115.492 22.4921 115.673 22.7093C115.854 22.9264 115.968 23.1967 116 23.4841V23.6148C116 24.3858 115.123 25 114.025 25H108.988C107.889 25 107 24.3858 107 23.6148V23.4841C107.031 23.2023 107.14 22.9365 107.314 22.7202C107.487 22.5039 107.718 22.3469 107.975 22.2688Z" fill="#8C9AA8"/>
<path d="M103.763 22.7512C103.725 22.509 103.751 22.2609 103.836 22.0323C103.922 21.8038 104.065 21.6033 104.25 21.4513C104.495 21.2765 104.792 21.1981 105.087 21.2303C105.142 20.8867 105.312 20.5744 105.567 20.3491C105.822 20.1237 106.146 20 106.481 20C106.816 20 107.14 20.1237 107.395 20.3491C107.651 20.5744 107.821 20.8867 107.875 21.2303C108.171 21.1981 108.467 21.2765 108.713 21.4513C108.897 21.6044 109.04 21.8047 109.128 22.0325C109.215 22.2604 109.245 22.5081 109.213 22.7512C109.426 22.8159 109.615 22.9462 109.755 23.1248C109.896 23.3035 109.981 23.5221 110 23.7521V23.8561C110 24.493 109.313 25 108.45 25H104.55C103.687 25 103 24.493 103 23.8561V23.7521C103.017 23.5253 103.099 23.309 103.234 23.1307C103.37 22.9524 103.554 22.8203 103.763 22.7512Z" fill="#514260"/>
<path d="M128.59 40.081C128.524 39.5554 128.581 39.0217 128.756 38.5212C128.93 38.0208 129.218 37.5669 129.597 37.1946C129.975 36.8222 130.435 36.5414 130.94 36.3738C131.445 36.2062 131.982 36.1563 132.51 36.2279C132.715 35.2971 133.24 34.4662 133.993 33.8776C134.747 33.2891 135.682 32.9793 136.64 33.0015C137.596 32.9758 138.531 33.2847 139.281 33.8743C140.032 34.4639 140.55 35.2969 140.747 36.2279C141.615 36.1174 142.493 36.3235 143.22 36.8082C143.738 37.1709 144.146 37.6674 144.401 38.2442C144.656 38.821 144.748 39.4562 144.667 40.081C145.275 40.2346 145.824 40.5669 146.24 41.0347C146.656 41.5026 146.921 42.0842 147 42.7039V43.0057C147 44.6537 144.947 46 142.333 46H130.667C128.123 46 126 44.6537 126 43.0057V42.7039C126.095 42.0497 126.398 41.4427 126.864 40.971C127.329 40.4994 127.934 40.1877 128.59 40.081Z" fill="#8C9AA8"/>
<path d="M118.817 40.9735C118.753 40.4521 118.82 39.9227 119.011 39.4351C119.203 38.9475 119.513 38.5178 119.911 38.1863C120.457 37.7853 121.13 37.607 121.798 37.6861C121.94 36.9302 122.335 36.2486 122.915 35.7584C123.495 35.2682 124.224 35 124.977 35C125.729 35 126.458 35.2682 127.038 35.7584C127.619 36.2486 128.014 36.9302 128.156 37.6861C128.831 37.6055 129.511 37.7837 130.065 38.1863C130.465 38.5181 130.777 38.9471 130.972 39.4341C131.167 39.9211 131.24 40.4504 131.183 40.9735C131.673 41.1126 132.11 41.4017 132.435 41.802C132.76 42.2023 132.957 42.6946 133 43.2128V43.451C133 44.8565 131.416 46 129.483 46H120.54C118.584 46 117 44.8565 117 43.451V43.2128C117.046 42.6956 117.245 42.2049 117.569 41.8053C117.893 41.4056 118.328 41.1156 118.817 40.9735Z" fill="#514260"/>
</g>
</svg>
