<svg width="200" height="200" viewBox="0 0 200 200" fill="none" xmlns="http://www.w3.org/2000/svg">
<circle opacity="0.2" cx="100" cy="100" r="100" fill="#4B0731"/>
<circle cx="100" cy="100" r="90" fill="#936A83"/>
<g clip-path="url(#clip0)">
<path d="M85.7965 85.466C85.7965 85.466 17.8455 85.4656 11.1584 85.466C10.2865 90.1056 10.1393 93.175 10.0439 96.9831C15.4185 96.9831 85.7965 96.9831 85.7965 96.9831C87.33 96.9831 88.8008 96.3764 89.8851 95.2965C90.9695 94.2165 91.5787 92.7518 91.5787 91.2246C91.5787 89.6973 90.9695 88.2326 89.8851 87.1526C88.8008 86.0727 87.33 85.466 85.7965 85.466Z" fill="#FFAC42"/>
<path d="M158 77.4941L159.049 78.1275H160.436L160.279 75.9064V75.6431V75.5279L160.114 73.1176V72.9448V72.6733V72.4512L159.957 70.2876V69.8681V69.4074L159.321 60.0949C159.321 59.9858 159.278 59.8812 159.2 59.8041C159.123 59.7269 159.018 59.6836 158.908 59.6836C158.799 59.6836 158.694 59.7269 158.616 59.8041C158.539 59.8812 158.495 59.9858 158.495 60.0949L157.942 68.2392V68.6505L157.768 71.2255V71.4805V71.719L157.322 78.2509H158.148L158 77.4941ZM159.28 73.0517L158.264 73.6687L158.388 71.826L159.214 72.3443L159.28 73.0517ZM159.445 75.421V75.8817L158.049 76.729L158.198 74.6477L159.445 75.4045V75.421ZM159.619 78.0041L158.19 77.1815L159.503 76.3588L159.619 78.0041ZM159.412 74.9274L158.223 74.2035L159.296 73.5453L159.412 74.9274ZM159.197 71.8507L158.421 71.3735V71.0774L159.098 70.6743L159.197 71.8507ZM158.793 65.9276L158.983 68.7739L158.611 68.5436L158.793 65.9276ZM159.024 69.2593L159.09 70.2218L158.47 70.592L158.578 68.9961L159.024 69.2593Z" fill="#FFAC42"/>
<path d="M187.893 62.4147C187.806 62.3331 187.691 62.2877 187.571 62.2877C187.452 62.2877 187.336 62.3331 187.249 62.4147L173.744 76.9757H173.141L171.968 68.7491L171.901 68.5023L171.34 64.4878L171.274 64.0682L170.762 60.4321H171.108C171.233 60.43 171.351 60.3799 171.439 60.2924C171.527 60.2049 171.577 60.0869 171.579 59.9632V59.1405C171.577 59.0168 171.527 58.8988 171.439 58.8113C171.351 58.7238 171.233 58.6737 171.108 58.6716H170.134L169.523 56.2612H169.746C169.806 56.2592 169.864 56.2342 169.907 56.1915C169.95 56.1487 169.975 56.0913 169.977 56.0309V55.6196C169.977 55.5585 169.952 55.4999 169.909 55.4567C169.866 55.4135 169.807 55.3892 169.746 55.3892H169.308L168.853 53.5711C168.826 53.4727 168.762 53.3882 168.675 53.3347C168.588 53.2813 168.483 53.2629 168.383 53.2832C168.281 53.2626 168.175 53.2807 168.087 53.3341C167.998 53.3874 167.932 53.472 167.903 53.5711L167.474 55.3398H167.036C166.975 55.3398 166.916 55.3641 166.873 55.4073C166.829 55.4505 166.805 55.5091 166.805 55.5702V55.9815C166.807 56.042 166.832 56.0994 166.875 56.1421C166.918 56.1849 166.975 56.2098 167.036 56.2119H167.251L166.648 58.6305H165.673C165.549 58.6326 165.43 58.6827 165.343 58.7702C165.255 58.8576 165.204 58.9757 165.202 59.0994V59.922C165.204 60.0457 165.255 60.1638 165.343 60.2513C165.43 60.3388 165.549 60.3888 165.673 60.391H166.02L163.897 75.3715H161.989C161.77 75.3715 161.56 75.4582 161.405 75.6125C161.25 75.7668 161.163 75.976 161.163 76.1942V78.1274H178.303V77.7819C178.306 77.5871 178.24 77.3975 178.116 77.2469C177.992 77.0962 177.818 76.9943 177.626 76.9592L187.976 63.0152C188.038 62.9221 188.063 62.8099 188.048 62.6995C188.033 62.5891 187.978 62.4879 187.893 62.4147ZM165.591 71.6778L167.945 70.6248V73.0928L165.533 72.0233L165.591 71.6449V71.6778ZM166.02 68.6175L167.945 67.7949V69.6705L166.004 68.7985L166.02 68.6175ZM166.284 66.7419L166.557 66.6185L167.837 67.1943L166.111 67.9594L166.284 66.7419ZM171.323 72.0562L168.903 73.1339V70.6659L171.274 71.7189L171.323 72.0562ZM168.878 67.6797L170.795 68.5023V68.6998L168.845 69.5636L168.878 67.6797ZM170.53 66.7254L170.695 67.8771L169.192 67.2108L170.406 66.6678L170.53 66.7254ZM168.878 66.7254V65.9768L169.704 66.347L168.878 66.7254ZM167.92 66.6267L167.226 66.3223L167.92 66.0097V66.6267ZM165.442 72.6403L167.73 73.6604L165.136 74.8121L165.442 72.6403ZM171.398 72.6403L171.703 74.8121L169.109 73.6604L171.398 72.6403ZM171.175 71.0855L169.035 70.1477L170.91 69.325L171.175 71.0855ZM170.439 66.0344L169.159 65.4667L170.315 64.9485L170.439 66.0344ZM168.878 64.9731V64.5536H169.82L168.878 64.9731ZM167.92 64.9731L167.094 64.5865H167.92V64.9731ZM167.747 65.5161L166.532 66.0344L166.375 65.9686L166.524 64.9485L167.747 65.5161ZM167.647 70.1477L165.657 71.0361L165.896 69.3908L167.647 70.1477ZM167.309 75.388H165.235L167.92 74.1951V75.388H167.309ZM168.878 74.1869L171.571 75.388H168.878V74.1869ZM170.15 63.9942H168.878V60.391H169.646L170.15 63.9942ZM168.407 54.9943L168.498 55.3728H168.308L168.407 54.9943ZM168.085 56.2448H168.721L169.324 58.6552H167.482L168.085 56.2448ZM167.92 60.4074V63.9777H166.656L167.16 60.391L167.92 60.4074ZM168.878 76.9922V75.9062H171.852L171.992 76.9428L168.878 76.9922ZM176.461 76.9922H175.016L182.177 69.325L176.461 76.9922Z" fill="#FFAC42"/>
<path d="M160.536 82.4712H155.844V84.3798H160.536V82.4712Z" fill="#FFAC42"/>
<path d="M160.536 85.6465H155.844V87.3412H160.536V85.6465Z" fill="#FFAC42"/>
<path d="M181.979 82.4712H177.287V84.3798H181.979V82.4712Z" fill="#FFAC42"/>
<path d="M181.979 85.6465H177.287V87.3412H181.979V85.6465Z" fill="#FFAC42"/>
<path d="M154.431 82.0021H183.466C183.623 82.0021 183.775 81.9397 183.886 81.8286C183.998 81.7175 184.06 81.5668 184.06 81.4097V79.1968C184.06 79.0397 183.998 78.8891 183.886 78.778C183.775 78.6669 183.623 78.6045 183.466 78.6045H154.431C154.273 78.6045 154.122 78.6669 154.01 78.778C153.899 78.8891 153.836 79.0397 153.836 79.1968V81.418C153.838 81.5736 153.902 81.7222 154.013 81.8315C154.124 81.9408 154.274 82.0021 154.431 82.0021Z" fill="#FFAC42"/>
<path d="M181.97 89.2171C181.97 89.2171 181.97 89.2171 181.97 89.1678V88.6084H179.624L179.153 88.4932C178.831 88.4109 178.501 88.3451 178.171 88.2793C177.84 88.2135 177.584 88.1723 177.278 88.1312V87.5224L170.992 82.4878H167.242L160.535 87.868V88.3451L160.089 88.2464C159.453 88.1148 158.908 88.0078 158.503 87.9585C157.618 87.8636 156.724 87.8802 155.843 88.0078C154.018 88.275 152.247 88.8304 150.598 89.6531C151.98 89.3523 153.398 89.2471 154.81 89.3405C155.133 89.2747 155.479 89.2253 155.859 89.1842C157.183 89.0497 158.52 89.167 159.8 89.5297L160.221 89.6449C162.311 90.2213 164.493 90.3916 166.647 90.1467C166.743 90.1303 166.837 90.1055 166.928 90.0727H167.003H166.928C166.859 90.1083 166.787 90.1386 166.713 90.1632C164.481 90.858 162.116 91.0215 159.808 90.6403C159.089 90.5251 158.404 90.4346 157.751 90.3606C166.78 92.3679 171.694 92.0717 174.338 91.3478C176.028 91.4455 177.724 91.4152 179.41 91.2573C178.623 91.2295 177.841 91.1331 177.072 90.9694L175.932 90.739C174.817 90.5416 173.793 90.3935 172.884 90.303C171.851 90.1961 170.976 90.1467 170.315 90.1303C169.862 90.0826 169.405 90.1076 168.96 90.2043C168.96 90.2043 169.043 90.0891 169.175 89.9904C170.346 89.2735 171.669 88.8385 173.038 88.72C174.408 88.6015 175.786 88.8027 177.064 89.3076L177.369 89.4146C177.691 89.5297 178.005 89.6367 178.311 89.7272C180.24 90.3301 182.272 90.5372 184.283 90.3359C184.919 90.1567 185.541 89.9284 186.142 89.6531C184.736 89.7885 183.317 89.6402 181.97 89.2171ZM163.112 88.8963L161.559 88.5508L169.117 82.4878L175.957 87.9749C171.653 87.7093 167.333 88.0192 163.112 88.8963Z" fill="#FFAC42"/>
<path d="M104.373 65.327L105.777 65.6726L113.881 65.7384H115.227V64.6278C115.243 64.5068 115.302 64.3956 115.394 64.3151C115.486 64.2345 115.604 64.1901 115.727 64.1901C115.849 64.1901 115.968 64.2345 116.06 64.3151C116.152 64.3956 116.211 64.5068 116.227 64.6278V65.7548H117.16V64.6278C117.16 64.563 117.173 64.4988 117.198 64.4389C117.223 64.379 117.259 64.3246 117.305 64.2788C117.351 64.2329 117.406 64.1966 117.466 64.1718C117.526 64.147 117.591 64.1342 117.656 64.1342C117.721 64.1342 117.785 64.147 117.845 64.1718C117.905 64.1966 117.96 64.2329 118.006 64.2788C118.052 64.3246 118.089 64.379 118.113 64.4389C118.138 64.4988 118.151 64.563 118.151 64.6278V65.7713H119.093V64.6196C119.093 64.4887 119.145 64.3631 119.238 64.2705C119.331 64.178 119.457 64.126 119.589 64.126C119.72 64.126 119.846 64.178 119.939 64.2705C120.032 64.3631 120.084 64.4887 120.084 64.6196V65.7877H121.018V64.6278C121.033 64.5068 121.093 64.3956 121.185 64.3151C121.277 64.2345 121.395 64.1901 121.517 64.1901C121.64 64.1901 121.758 64.2345 121.85 64.3151C121.942 64.3956 122.001 64.5068 122.017 64.6278V65.3353L122.711 64.8499C122.881 64.7329 123.082 64.6698 123.289 64.6689L132.375 64.7265V63.69C132.609 63.6424 132.82 63.5156 132.97 63.3311C133.121 63.1466 133.202 62.9159 133.201 62.6781V62.2914C133.202 62.0324 133.105 61.7826 132.929 61.5919C132.753 61.4013 132.511 61.2838 132.252 61.2631H122.794V60.8189C122.794 60.5476 122.686 60.2873 122.494 60.0947C122.302 59.902 122.042 59.7927 121.769 59.7906H114.079C113.816 59.7881 113.563 59.887 113.372 60.0664C113.181 60.2459 113.067 60.4919 113.055 60.7531H120.687C120.777 60.7531 120.863 60.7886 120.927 60.8519C120.99 60.9151 121.026 61.0009 121.026 61.0904C121.027 61.1516 121.01 61.2118 120.976 61.2631C120.947 61.3136 120.905 61.3554 120.854 61.3843C120.803 61.4132 120.746 61.4282 120.687 61.4277H113.046V62.0364C113.046 62.0858 113.046 62.1269 113.046 62.168C113.042 62.2035 113.042 62.2395 113.046 62.275V62.6616C113.046 62.8984 113.128 63.128 113.278 63.3111C113.429 63.4943 113.639 63.6195 113.872 63.6653V65.3106L104.373 65.327Z" fill="#FFAC42"/>
<path d="M133.714 68.4036C133.885 67.6874 133.955 66.9508 133.92 66.2153C133.92 66.0508 133.92 65.8862 133.92 65.7217C133.921 65.6533 133.909 65.5853 133.883 65.5218C133.858 65.4583 133.82 65.4004 133.772 65.3515C133.724 65.3042 133.667 65.2668 133.605 65.2414C133.542 65.216 133.475 65.2031 133.408 65.2034H132.4L123.273 65.1458C123.165 65.1458 123.061 65.1805 122.975 65.2446L122.009 65.9191L121.489 66.2729H113.873L105.711 66.2071L102.407 65.3844L97.1454 64.1011H97.0215L89.1329 64.1504C89.027 64.1518 88.924 64.1853 88.8377 64.2465C88.7514 64.3077 88.6859 64.3937 88.65 64.493C88.614 64.5922 88.6094 64.7001 88.6367 64.802C88.6639 64.904 88.7218 64.9952 88.8025 65.0636L94.3782 69.7445C94.345 69.8679 94.3283 69.9951 94.3287 70.1229C94.3333 70.3072 94.3639 70.49 94.4195 70.6659C95.6957 70.3157 97.0251 70.1986 98.3432 70.3204C99.1692 70.4273 100.722 70.7893 102.539 71.1841C105.794 70.5425 112.212 69.5964 117.135 70.8139C119.836 71.4803 120.596 71.76 121.431 71.8587H133.202C133.619 71.8631 134.024 71.7173 134.343 71.448C134.661 71.1788 134.871 70.8042 134.935 70.393C134.998 69.9818 134.91 69.5617 134.687 69.2099C134.465 68.858 134.122 68.598 133.722 68.4776L133.714 68.4036ZM92.3462 65.7382H91.165C91.0554 65.7382 90.9504 65.6948 90.8729 65.6177C90.7955 65.5405 90.752 65.4359 90.752 65.3268C90.752 65.2177 90.7955 65.1131 90.8729 65.036C90.9504 64.9588 91.0554 64.9155 91.165 64.9155H92.3462C92.4557 64.9155 92.5608 64.9588 92.6382 65.036C92.7157 65.1131 92.7592 65.2177 92.7592 65.3268C92.7592 65.4359 92.7157 65.5405 92.6382 65.6177C92.5608 65.6948 92.4557 65.7382 92.3462 65.7382ZM95.3034 65.7382H94.1304C94.0209 65.7382 93.9158 65.6948 93.8384 65.6177C93.7609 65.5405 93.7174 65.4359 93.7174 65.3268C93.7174 65.2177 93.7609 65.1131 93.8384 65.036C93.9158 64.9588 94.0209 64.9155 94.1304 64.9155H95.3034C95.4129 64.9155 95.518 64.9588 95.5954 65.036C95.6729 65.1131 95.7164 65.2177 95.7164 65.3268C95.7164 65.4359 95.6729 65.5405 95.5954 65.6177C95.518 65.6948 95.4129 65.7382 95.3034 65.7382ZM128.006 70.8222C127.413 70.8139 126.843 70.5945 126.399 70.2035C125.955 69.8126 125.667 69.2762 125.586 68.6915C125.586 68.5845 125.586 68.4858 125.586 68.3871C125.527 68.0338 125.546 67.672 125.642 67.3269C125.738 66.9818 125.909 66.6617 126.141 66.3886C126.374 66.1156 126.663 65.8963 126.99 65.7458C127.316 65.5954 127.671 65.5175 128.031 65.5175C128.39 65.5175 128.745 65.5954 129.072 65.7458C129.398 65.8963 129.688 66.1156 129.92 66.3886C130.153 66.6617 130.323 66.9818 130.419 67.3269C130.515 67.672 130.534 68.0338 130.476 68.3871C130.483 68.4884 130.483 68.5902 130.476 68.6915C130.404 69.289 130.111 69.8384 129.654 70.2324C129.198 70.6264 128.61 70.8367 128.006 70.8222Z" fill="#FFAC42"/>
<path d="M128.006 66.6597C127.631 67.2975 127.34 67.9804 127.139 68.6916C127.135 68.7519 127.135 68.8124 127.139 68.8726C127.139 69.5554 127.535 70.1066 128.023 70.1066C128.51 70.1066 128.898 69.5554 128.898 68.8726C128.902 68.8124 128.902 68.7519 128.898 68.6916C128.692 67.9781 128.392 67.2949 128.006 66.6597ZM128.303 69.3086C128.138 69.3086 128.006 69.1194 128.006 68.8891C127.997 68.8236 127.997 68.7571 128.006 68.6916C128.076 68.5037 128.162 68.3221 128.262 68.1487C128.359 68.3231 128.441 68.5046 128.51 68.6916C128.539 68.7536 128.556 68.8207 128.56 68.8891C128.601 69.1194 128.469 69.3251 128.303 69.3251V69.3086Z" fill="#FFAC42"/>
<path d="M105.744 72.2784C104.563 72.4352 103.366 72.4352 102.184 72.2784C101.73 72.2291 101.251 72.1468 100.755 72.0481C100.433 71.9823 100.111 71.9 99.7723 71.8095L99.5162 71.7437C98.0895 71.3403 96.5885 71.2699 95.13 71.538H94.9731H94.8244L94.5353 71.6039C93.9715 71.6966 93.4354 71.913 92.9658 72.2373C94.5321 72.1395 96.1044 72.2029 97.6577 72.4265C98.2441 72.5005 98.8719 72.5828 99.5245 72.6815C101.624 73.0477 103.782 72.9124 105.819 72.2867H105.91L106.009 72.2455C105.959 72.2661 105.906 72.2799 105.852 72.2867L105.744 72.2784Z" fill="#FFAC42"/>
<path d="M117.83 72.2537C117.499 72.1879 117.152 72.1138 116.806 72.0233C116.459 71.9328 116.269 71.8752 115.98 71.7848L115.211 71.5133C114.15 71.1027 113.016 70.9149 111.879 70.9616C110.742 71.0083 109.626 71.2885 108.603 71.7848C108.446 71.867 108.297 71.9493 108.182 72.0233L108.017 72.1385L107.868 72.2537C107.868 72.2537 107.818 72.3113 107.818 72.3277C108.223 72.2425 108.638 72.2203 109.049 72.2619C109.652 72.2619 110.453 72.3195 111.387 72.4182C112.32 72.5169 113.155 72.6321 114.162 72.8213C114.501 72.8789 114.848 72.9447 115.203 73.027C115.901 73.1764 116.612 73.2618 117.326 73.282C119.107 73.3845 120.885 73.0393 122.497 72.2783C122.261 72.3679 122.013 72.426 121.762 72.4511C120.449 72.592 119.122 72.5254 117.83 72.2537Z" fill="#FFAC42"/>
<path d="M93.4287 142.237C93.4287 142.237 134.532 127.429 163.377 137.392C181.591 143.677 178.758 144.055 190.008 143.776C190.008 143.776 162.41 162.943 115.393 146.293C115.385 146.293 105.299 144.327 93.4287 142.237Z" fill="#C5D3E1"/>
<path d="M54.4316 143.776C54.4316 143.776 69.8453 132.036 84.59 134.513C96.4187 136.503 138.026 154.684 156.124 143.776C156.124 143.776 147.385 167.945 81.7154 147.527C81.7154 147.527 75.7102 137.91 54.4316 143.776Z" fill="#ACBAC8"/>
<path d="M117.012 145.75C117.012 146.227 104.968 152.463 89.5709 149.04C74.1737 145.618 62.0559 145.922 62.0889 146.408C62.0889 145.478 74.5455 137.161 89.5379 143.117C104.53 149.073 116.987 146.655 117.012 145.75Z" fill="#5C6A78"/>
<path d="M186.323 145.98C186.323 146.704 172.768 156 155.43 150.776C138.092 145.552 124.437 145.997 124.479 146.712C124.479 145.322 138.521 132.908 155.372 141.933C172.223 150.957 186.29 147.379 186.323 145.98Z" fill="#6C7A88"/>
<path d="M34.4336 110.121C34.4336 110.121 60.2635 102.281 78.3866 107.554C89.8354 110.845 88.0594 111.083 95.122 110.935C95.122 110.935 77.7753 121.079 48.2283 112.268C48.2283 112.268 41.8926 111.223 34.4336 110.121Z" fill="#FFAC42"/>
<path d="M182.979 123.045C182.979 123.341 175.404 127.257 165.731 125.093C156.059 122.93 148.434 123.135 148.459 123.448C148.459 122.864 156.29 117.64 165.707 121.399C175.123 125.159 182.954 123.621 182.979 123.045Z" fill="#FFAC42"/>
<path d="M127.445 105.464C127.445 105.917 118.928 111.758 108.033 108.475C97.1378 105.193 88.5554 105.473 88.5801 105.925C88.5801 105.045 97.3856 97.2461 108 102.914C118.615 108.582 127.428 106.345 127.445 105.464Z" fill="#FFAC42"/>
<path d="M22.283 82.8988C22.283 82.9577 22.2595 83.0142 22.2176 83.0559C22.1758 83.0975 22.1191 83.1209 22.0599 83.1209C22.0008 83.1209 21.9441 83.0975 21.9022 83.0559C21.8604 83.0142 21.8369 82.9577 21.8369 82.8988V62.2666C21.8391 62.2092 21.8635 62.1547 21.9051 62.1149C21.9467 62.075 22.0022 62.0527 22.0599 62.0527C22.1177 62.0527 22.1732 62.075 22.2148 62.1149C22.2564 62.1547 22.2808 62.2092 22.283 62.2666V82.8988Z" fill="#1D2A38"/>
<path d="M23.5711 82.8988C23.5711 82.9577 23.5476 83.0142 23.5057 83.0559C23.4639 83.0975 23.4072 83.1209 23.348 83.1209C23.2889 83.1209 23.2321 83.0975 23.1903 83.0559C23.1485 83.0142 23.125 82.9577 23.125 82.8988V62.2666C23.1271 62.2092 23.1516 62.1547 23.1932 62.1149C23.2348 62.075 23.2903 62.0527 23.348 62.0527C23.4058 62.0527 23.4613 62.075 23.5029 62.1149C23.5445 62.1547 23.5689 62.2092 23.5711 62.2666V82.8988Z" fill="#1D2A38"/>
<path d="M23.8997 61.8304L20.4541 63.0079C20.2815 63.0669 20.1896 63.2541 20.2488 63.426L20.6135 64.4842C20.6727 64.6561 20.8606 64.7477 21.0332 64.6887L24.4788 63.5111C24.6514 63.4521 24.7433 63.265 24.6841 63.0931L24.3195 62.0348C24.2602 61.8629 24.0723 61.7714 23.8997 61.8304Z" fill="#2C3A48"/>
<path d="M57.7439 82.7756C57.7439 82.8048 57.7381 82.8336 57.7269 82.8606C57.7157 82.8875 57.6993 82.912 57.6786 82.9327C57.6579 82.9533 57.6333 82.9696 57.6062 82.9808C57.5792 82.992 57.5502 82.9977 57.5209 82.9977C57.4916 82.9977 57.4626 82.992 57.4355 82.9808C57.4085 82.9696 57.3839 82.9533 57.3632 82.9327C57.3425 82.912 57.326 82.8875 57.3148 82.8606C57.3036 82.8336 57.2979 82.8048 57.2979 82.7756V59.7412C57.3 59.6838 57.3244 59.6294 57.366 59.5895C57.4076 59.5496 57.4631 59.5273 57.5209 59.5273C57.5786 59.5273 57.6341 59.5496 57.6757 59.5895C57.7173 59.6294 57.7418 59.6838 57.7439 59.7412V82.7756Z" fill="#1D2A38"/>
<path d="M58.0167 79.3779H57.0255C56.8156 79.3779 56.6455 79.5474 56.6455 79.7564V83.7627C56.6455 83.9717 56.8156 84.1411 57.0255 84.1411H58.0167C58.2266 84.1411 58.3967 83.9717 58.3967 83.7627V79.7564C58.3967 79.5474 58.2266 79.3779 58.0167 79.3779Z" fill="#2C3A48"/>
<path d="M58.8096 67.4332C58.808 67.6866 58.731 67.9339 58.5884 68.1439C58.4459 68.3539 58.244 68.5171 58.0084 68.6129C57.7728 68.7088 57.514 68.7331 57.2646 68.6826C57.0152 68.6322 56.7863 68.5093 56.6069 68.3295C56.4276 68.1497 56.3056 67.921 56.2566 67.6723C56.2075 67.4236 56.2335 67.166 56.3313 66.932C56.4291 66.6979 56.5942 66.498 56.806 66.3573C57.0177 66.2167 57.2665 66.1416 57.521 66.1416C57.6909 66.1416 57.8592 66.1751 58.016 66.2401C58.1729 66.3051 58.3153 66.4003 58.4351 66.5204C58.5549 66.6404 58.6496 66.7829 58.7139 66.9395C58.7782 67.0962 58.8107 67.264 58.8096 67.4332Z" fill="#2C3A48"/>
<path d="M57.0832 59.5108C57.057 59.4288 57.0494 59.342 57.0608 59.2567C57.0722 59.1714 57.1024 59.0896 57.1493 59.0173C58.2727 57.3226 58.3057 53.9991 57.2401 50.7413C56.1746 47.4836 54.1756 44.8182 52.284 44.1107C52.1419 44.0554 52.0271 43.9471 51.9639 43.8089C51.9007 43.6707 51.894 43.5134 51.9453 43.3703C52.0009 43.2289 52.1096 43.1145 52.2483 43.0516C52.3871 42.9886 52.5451 42.982 52.6887 43.033C54.9355 43.8557 57.1575 46.7597 58.347 50.3876C59.5365 54.0155 59.4539 57.6434 58.1323 59.6425C58.0914 59.7101 58.0368 59.7685 57.9719 59.814C57.9071 59.8594 57.8335 59.8909 57.7557 59.9063C57.678 59.9218 57.5978 59.921 57.5204 59.9039C57.4431 59.8868 57.3701 59.8538 57.3062 59.807C57.2036 59.733 57.1258 59.6297 57.0832 59.5108Z" fill="#FFAC42"/>
<path d="M53.7792 51.8767L52.1271 43.6501C52.11 43.5576 52.1297 43.462 52.1821 43.3836C52.2346 43.3053 52.3156 43.2504 52.408 43.2306C52.4541 43.221 52.5017 43.2207 52.548 43.2296C52.5942 43.2385 52.6382 43.2565 52.6774 43.2826C52.7166 43.3086 52.7503 43.3421 52.7763 43.3812C52.8024 43.4203 52.8204 43.4642 52.8293 43.5103L54.4813 51.6628L58.0002 59.1901C58.0399 59.2764 58.0439 59.3748 58.0115 59.464C57.979 59.5533 57.9127 59.6262 57.8267 59.6672C57.7401 59.7068 57.6413 59.7108 57.5517 59.6785C57.4621 59.6462 57.3888 59.5801 57.3476 59.4945L53.7792 51.9096C53.7764 51.8988 53.7764 51.8875 53.7792 51.8767Z" fill="#FFAC42"/>
<path d="M54.3751 49.1887L53.103 49.6021C52.9512 49.6514 52.8683 49.814 52.9178 49.9651L54.2066 53.899C54.2561 54.0502 54.4193 54.1327 54.5711 54.0834L55.8433 53.67C55.9951 53.6207 56.078 53.4582 56.0284 53.307L54.7397 49.3731C54.6901 49.222 54.5269 49.1394 54.3751 49.1887Z" fill="#FFAC42"/>
<path d="M54.2172 50.6919C54.0685 50.7413 53.7712 50.2477 53.7216 50.0996L53.606 49.7376C53.582 49.6667 53.5866 49.5892 53.619 49.5216C53.6514 49.454 53.7089 49.4017 53.7794 49.3757L56.7614 48.4131C56.8337 48.3896 56.9124 48.3954 56.9804 48.4293C57.0485 48.4632 57.1004 48.5224 57.1249 48.5941L57.2405 48.9561C57.2641 49.0281 57.2583 49.1065 57.2243 49.1742C57.1902 49.242 57.1308 49.2937 57.0588 49.3181L54.2172 50.6919Z" fill="#FFAC42"/>
<path d="M55.2574 53.8674C55.184 53.8864 55.1062 53.8775 55.039 53.8425C54.9719 53.8076 54.9202 53.749 54.8939 53.6782L54.7783 53.3162C54.7287 53.1682 54.6709 52.6005 54.8278 52.5512L57.9089 51.9918C57.9812 51.9682 58.0599 51.9741 58.128 52.0079C58.196 52.0418 58.2479 52.101 58.2724 52.1727L58.388 52.5347C58.4116 52.6067 58.4058 52.6851 58.3718 52.7529C58.3378 52.8206 58.2783 52.8723 58.2063 52.8967L55.2574 53.8674Z" fill="#FFAC42"/>
<path d="M54.6052 52.3453C54.634 52.4413 54.6243 52.5447 54.5781 52.6337C54.5318 52.7228 54.4527 52.7904 54.3574 52.8225L19.5733 64.134C19.5257 64.1519 19.4749 64.16 19.424 64.1576C19.3731 64.1552 19.3233 64.1424 19.2776 64.12C19.2319 64.0977 19.1913 64.0662 19.1583 64.0275C19.1254 63.9889 19.1007 63.9439 19.0859 63.8954L18.6316 62.5216C18.6162 62.474 18.6104 62.4239 18.6146 62.3742C18.6187 62.3244 18.6327 62.276 18.6558 62.2316C18.6788 62.1873 18.7104 62.1479 18.7488 62.1158C18.7872 62.0836 18.8316 62.0594 18.8794 62.0444L53.6965 50.7329C53.7918 50.7016 53.8957 50.7091 53.9855 50.7538C54.0752 50.7985 54.1436 50.8768 54.1756 50.9715L54.6052 52.3453Z" fill="#4D5A68"/>
<path d="M42.3634 57.9558C42.3634 58.3467 42.2469 58.7287 42.0287 59.0536C41.8105 59.3785 41.5004 59.6315 41.1376 59.7807C40.7749 59.9299 40.3759 59.9685 39.9911 59.8917C39.6063 59.8148 39.2531 59.6259 38.9762 59.349C38.6992 59.0721 38.5111 58.7195 38.4355 58.336C38.36 57.9524 38.4004 57.5552 38.5517 57.1946C38.703 56.8339 38.9584 56.5262 39.2855 56.3102C39.6126 56.0942 39.9967 55.9798 40.3892 55.9815C40.6491 55.9815 40.9065 56.0326 41.1466 56.1319C41.3866 56.2312 41.6046 56.3768 41.7881 56.5602C41.9715 56.7437 42.1168 56.9614 42.2155 57.2009C42.3142 57.4404 42.3645 57.6969 42.3634 57.9558Z" fill="#2C3A48"/>
<path d="M44.775 79.8635H35.7795C35.7344 79.8646 35.6895 79.8566 35.6474 79.8402C35.6054 79.8237 35.567 79.7991 35.5347 79.7676C35.5024 79.7362 35.4767 79.6986 35.4592 79.6572C35.4416 79.6157 35.4326 79.5712 35.4326 79.5262C35.4326 79.4345 35.4692 79.3467 35.5342 79.2819C35.5993 79.2171 35.6875 79.1807 35.7795 79.1807H44.775C44.8202 79.1807 44.8649 79.1896 44.9065 79.2071C44.9482 79.2246 44.9859 79.2501 45.0175 79.2823C45.049 79.3145 45.0738 79.3527 45.0903 79.3946C45.1068 79.4365 45.1148 79.4812 45.1137 79.5262C45.1137 79.6156 45.078 79.7014 45.0145 79.7647C44.951 79.8279 44.8648 79.8635 44.775 79.8635Z" fill="#ACBAC8"/>
<path d="M43.0406 66.0344H37.5227C37.4775 66.0355 37.4326 66.0276 37.3906 66.0111C37.3485 65.9946 37.3102 65.97 37.2779 65.9385C37.2455 65.9071 37.2199 65.8695 37.2023 65.8281C37.1848 65.7866 37.1758 65.7421 37.1758 65.6971C37.1758 65.6054 37.2123 65.5176 37.2774 65.4528C37.3425 65.388 37.4307 65.3516 37.5227 65.3516H43.0406C43.0858 65.3515 43.1305 65.3605 43.1721 65.378C43.2138 65.3955 43.2515 65.421 43.283 65.4532C43.3146 65.4854 43.3394 65.5236 43.3559 65.5655C43.3724 65.6074 43.3804 65.6521 43.3793 65.6971C43.3793 65.7865 43.3436 65.8723 43.2801 65.9356C43.2165 65.9988 43.1304 66.0344 43.0406 66.0344Z" fill="#ACBAC8"/>
<path d="M35.9454 79.3618C35.8656 79.365 35.7873 79.3401 35.7241 79.2915C35.661 79.2428 35.6172 79.1734 35.6004 79.0957C35.5836 79.018 35.5949 78.9368 35.6323 78.8666C35.6698 78.7963 35.7309 78.7415 35.805 78.7119L44.4618 74.8536C44.5451 74.8173 44.6394 74.8151 44.7244 74.8474C44.8094 74.8797 44.8782 74.944 44.9161 75.0264C44.9353 75.0673 44.946 75.1117 44.9476 75.1568C44.9492 75.2019 44.9417 75.247 44.9255 75.2892C44.9093 75.3314 44.8848 75.3699 44.8534 75.4025C44.822 75.435 44.7843 75.461 44.7426 75.4788L36.0858 79.3371C36.041 79.3539 35.9934 79.3622 35.9454 79.3618Z" fill="#ACBAC8"/>
<path d="M44.61 71.1269C44.5746 71.2099 44.51 71.2772 44.4283 71.3161L43.3214 71.8097L36.8288 74.6972L36.4075 74.8864H36.2671C36.2002 74.8868 36.1348 74.8675 36.0789 74.8309C36.023 74.7943 35.9793 74.7421 35.9532 74.6808C35.9342 74.6404 35.9236 74.5967 35.9221 74.5521C35.9205 74.5076 35.9281 74.4632 35.9443 74.4216C35.9606 74.3801 35.9851 74.3423 36.0164 74.3104C36.0478 74.2786 36.0853 74.2535 36.1267 74.2365L36.9527 73.8746L43.2305 71.0775L44.1639 70.6662C44.2344 70.6325 44.3145 70.6248 44.3901 70.6444C44.4657 70.664 44.5319 70.7096 44.577 70.7732L44.61 71.1269Z" fill="#ACBAC8"/>
<path d="M36.8458 71.176C36.766 71.1793 36.6877 71.1544 36.6245 71.1057C36.5614 71.057 36.5175 70.9877 36.5007 70.91C36.4839 70.8322 36.4953 70.7511 36.5327 70.6808C36.5702 70.6106 36.6313 70.5558 36.7054 70.5261L43.5697 67.4576C43.653 67.4213 43.7473 67.4191 43.8323 67.4514C43.9173 67.4838 43.9861 67.548 44.024 67.6304C44.0432 67.6713 44.0539 67.7157 44.0555 67.7608C44.0571 67.806 44.0496 67.851 44.0334 67.8932C44.0172 67.9354 43.9927 67.9739 43.9613 68.0065C43.9299 68.0391 43.8922 68.065 43.8505 68.0828L36.978 71.1513C36.9358 71.1675 36.891 71.1759 36.8458 71.176Z" fill="#ACBAC8"/>
<path d="M43.8666 65.9113C43.8334 65.9477 43.7943 65.9783 43.751 66.0018L42.5697 66.5283L37.6796 68.7001L37.0849 68.9633C37.0389 68.9755 36.9905 68.9755 36.9445 68.9633C36.8776 68.9637 36.8121 68.9444 36.7563 68.9078C36.7004 68.8712 36.6567 68.819 36.6306 68.7577C36.5942 68.6746 36.5919 68.5807 36.6244 68.4961C36.6568 68.4115 36.7213 68.3429 36.804 68.3052L37.787 67.8692L42.4706 65.7879L43.4701 65.3436C43.5206 65.3155 43.5775 65.3008 43.6353 65.3008C43.6931 65.3008 43.75 65.3155 43.8005 65.3436L43.8666 65.9113Z" fill="#ACBAC8"/>
<path d="M44.6024 79.3617H44.4619L35.8052 75.4788C35.7337 75.4348 35.6806 75.3664 35.6559 75.2864C35.6312 75.2064 35.6366 75.1202 35.6709 75.0438C35.7052 74.9674 35.7662 74.906 35.8425 74.871C35.9189 74.836 36.0054 74.8298 36.086 74.8536L44.7428 78.7118C44.7845 78.7296 44.8221 78.7556 44.8536 78.7882C44.885 78.8207 44.9095 78.8593 44.9257 78.9015C44.9419 78.9437 44.9494 78.9887 44.9477 79.0338C44.9461 79.079 44.9354 79.1233 44.9163 79.1643C44.8881 79.2234 44.8436 79.2734 44.7881 79.3083C44.7325 79.3433 44.6681 79.3618 44.6024 79.3617Z" fill="#ACBAC8"/>
<path d="M44.1391 74.911C44.0927 74.9195 44.0451 74.9195 43.9987 74.911L36.2753 71.4723C36.2278 71.4543 36.1849 71.4261 36.1495 71.3897C36.1141 71.3533 36.0872 71.3097 36.0707 71.2618C36.0541 71.2139 36.0483 71.163 36.0537 71.1127C36.0591 71.0623 36.0756 71.0138 36.1019 70.9704C36.1198 70.9289 36.1458 70.8914 36.1785 70.8601C36.2113 70.8288 36.2499 70.8044 36.2923 70.7883C36.3347 70.7722 36.3799 70.7647 36.4252 70.7663C36.4705 70.7679 36.5151 70.7786 36.5562 70.7977L44.2796 74.2611C44.3536 74.2908 44.4148 74.3456 44.4522 74.4158C44.4897 74.486 44.501 74.5672 44.4842 74.6449C44.4674 74.7227 44.4236 74.792 44.3604 74.8407C44.2973 74.8894 44.2189 74.9143 44.1391 74.911Z" fill="#ACBAC8"/>
<path d="M43.6111 71.02C43.5646 71.0285 43.5171 71.0285 43.4706 71.02L36.8046 68.0503C36.7225 68.0142 36.6581 67.9472 36.6256 67.8639C36.593 67.7806 36.595 67.6878 36.6311 67.606C36.6675 67.5222 36.7356 67.4561 36.8208 67.4222C36.9059 67.3883 37.0011 67.3893 37.0854 67.425L43.7515 70.3948C43.8342 70.4325 43.8987 70.5011 43.9311 70.5857C43.9636 70.6703 43.9614 70.7643 43.925 70.8473C43.8927 70.9012 43.8467 70.9456 43.7915 70.976C43.7363 71.0064 43.6741 71.0216 43.6111 71.02Z" fill="#ACBAC8"/>
<path d="M43.3799 68.8565C43.3334 68.864 43.286 68.864 43.2395 68.8565L37.036 66.0348C36.9948 66.0169 36.9575 65.9912 36.9262 65.959C36.895 65.9268 36.8704 65.8889 36.854 65.8472C36.8375 65.8056 36.8294 65.7611 36.8301 65.7164C36.8309 65.6716 36.8405 65.6275 36.8584 65.5864C36.8763 65.5454 36.9021 65.5082 36.9344 65.4771C36.9668 65.446 37.0049 65.4215 37.0467 65.4051C37.0885 65.3887 37.1331 65.3806 37.1781 65.3814C37.223 65.3822 37.2674 65.3917 37.3086 65.4095L43.5203 68.1737C43.603 68.2114 43.6675 68.2799 43.7 68.3646C43.7324 68.4492 43.7302 68.5431 43.6938 68.6261C43.6717 68.6921 43.6296 68.7496 43.5735 68.7908C43.5173 68.832 43.4497 68.855 43.3799 68.8565Z" fill="#ACBAC8"/>
<path d="M34.8882 84.1331H34.7808C34.6914 84.1211 34.6054 84.0914 34.5277 84.0458C34.45 84.0002 34.3823 83.9396 34.3284 83.8676C34.2746 83.7955 34.2357 83.7135 34.2141 83.6263C34.1925 83.5392 34.1886 83.4485 34.2026 83.3598L37.5645 59.6427C37.5911 59.4633 37.6875 59.3016 37.8327 59.1924C37.9779 59.0831 38.1605 59.0351 38.341 59.0586C38.5217 59.0871 38.6841 59.1847 38.7937 59.3306C38.9032 59.4766 38.9512 59.6594 38.9274 59.8401L35.6068 83.5573C35.5804 83.7251 35.4921 83.8771 35.3593 83.9836C35.2264 84.09 35.0584 84.1434 34.8882 84.1331Z" fill="#8C9AA8"/>
<path d="M45.7589 84.1329H45.668C45.5014 84.1326 45.3404 84.0726 45.2145 83.9638C45.0886 83.8551 45.0062 83.7048 44.9824 83.5406L43.3221 71.793L43.2147 71.0855L42.5704 66.5116L42.4713 65.8041L41.6453 59.8316C41.6201 59.6516 41.6677 59.469 41.7777 59.324C41.8877 59.179 42.051 59.0834 42.2317 59.0583C42.4125 59.0332 42.5958 59.0807 42.7414 59.1902C42.8871 59.2997 42.983 59.4624 43.0082 59.6424L43.8342 65.401L43.9003 65.911L44.5942 70.7976L44.6437 71.1267L46.3454 83.3678C46.3689 83.5466 46.3204 83.7274 46.2105 83.8708C46.1006 84.0141 45.9383 84.1083 45.7589 84.1329Z" fill="#8C9AA8"/>
<path d="M40.274 84.133C39.9518 84.133 39.6875 83.9767 39.6875 83.7875V60.095C39.6875 59.9058 39.9518 59.7495 40.274 59.7495C40.5961 59.7495 40.8522 59.9058 40.8522 60.095V83.804C40.8522 83.9932 40.5631 84.133 40.274 84.133Z" fill="#8C9AA8"/>
<path d="M43.5863 58.8608H36.9616C36.6468 58.8608 36.3916 59.115 36.3916 59.4285V60.4157C36.3916 60.7292 36.6468 60.9833 36.9616 60.9833H43.5863C43.9011 60.9833 44.1563 60.7292 44.1563 60.4157V59.4285C44.1563 59.115 43.9011 58.8608 43.5863 58.8608Z" fill="#EF893A"/>
<path d="M25.9751 76.3506H18.5739C18.2591 76.3506 18.0039 76.6047 18.0039 76.9182V81.4511C18.0039 81.7645 18.2591 82.0187 18.5739 82.0187H25.9751C26.2899 82.0187 26.545 81.7645 26.545 81.4511V76.9182C26.545 76.6047 26.2899 76.3506 25.9751 76.3506Z" fill="#2C3A48"/>
<path d="M57.8267 81.7637H17.1861C16.6432 81.7637 16.2031 82.202 16.2031 82.7426V84.9473C16.2031 85.488 16.6432 85.9263 17.1861 85.9263H57.8267C58.3696 85.9263 58.8097 85.488 58.8097 84.9473V82.7426C58.8097 82.202 58.3696 81.7637 57.8267 81.7637Z" fill="#1D2A38"/>
<path d="M53.6851 50.2352L52.7607 50.5432C52.566 50.6081 52.461 50.8178 52.5261 51.0117L53.2496 53.1649C53.3147 53.3588 53.5253 53.4634 53.72 53.3985L54.6443 53.0905C54.839 53.0256 54.944 52.8158 54.8789 52.622L54.1555 50.4688C54.0904 50.2749 53.8797 50.1703 53.6851 50.2352Z" fill="#5C6A78"/>
<path d="M65.3438 82.9155C65.3438 83.317 65.5039 83.702 65.7889 83.9858C66.074 84.2697 66.4605 84.4292 66.8636 84.4292C67.0632 84.4292 67.2609 84.39 67.4453 84.314C67.6297 84.2379 67.7972 84.1264 67.9384 83.9858C68.0795 83.8453 68.1915 83.6784 68.2678 83.4948C68.3442 83.3111 68.3835 83.1143 68.3835 82.9155V77.7163C68.3835 77.5175 68.3442 77.3207 68.2678 77.1371C68.1915 76.9534 68.0795 76.7865 67.9384 76.646C67.7972 76.5054 67.6297 76.3939 67.4453 76.3179C67.2609 76.2418 67.0632 76.2026 66.8636 76.2026C66.4605 76.2026 66.074 76.3621 65.7889 76.646C65.5039 76.9299 65.3438 77.3149 65.3438 77.7163V82.9155Z" fill="#3C4A58"/>
<path d="M83.2514 86.6008C83.2514 86.7477 83.3094 86.8888 83.413 86.9935C83.5166 87.0981 83.6573 87.158 83.8048 87.1602C83.9495 87.1538 84.0861 87.0921 84.1861 86.9879C84.2861 86.8836 84.3419 86.745 84.3418 86.6008V84.9555C84.3429 84.8817 84.3291 84.8085 84.3013 84.7401C84.2735 84.6717 84.2321 84.6096 84.1797 84.5574C84.1274 84.5053 84.065 84.4641 83.9963 84.4364C83.9277 84.4087 83.8541 84.3949 83.7801 84.3961C83.7067 84.3961 83.634 84.4106 83.5663 84.4388C83.4987 84.467 83.4373 84.5083 83.3858 84.5604C83.3343 84.6124 83.2937 84.6742 83.2664 84.742C83.239 84.8098 83.2255 84.8824 83.2266 84.9555L83.2514 86.6008Z" fill="#D6741D"/>
<path d="M73.439 83.3677H42.942C42.5178 83.3677 42.1738 83.7102 42.1738 84.1327V87.1766C42.1738 87.5991 42.5178 87.9416 42.942 87.9416H73.439C73.8633 87.9416 74.2072 87.5991 74.2072 87.1766V84.1327C74.2072 83.7102 73.8633 83.3677 73.439 83.3677Z" fill="#2C3A48"/>
<path d="M73.439 83.3677H42.942C42.5178 83.3677 42.1738 83.7102 42.1738 84.1327V87.1766C42.1738 87.5991 42.5178 87.9416 42.942 87.9416H73.439C73.8633 87.9416 74.2072 87.5991 74.2072 87.1766V84.1327C74.2072 83.7102 73.8633 83.3677 73.439 83.3677Z" fill="#8C9AA8"/>
<path d="M67.3341 84.2482V73.3891C67.3168 73.2479 67.3293 73.1046 67.3709 72.9685C67.4125 72.8324 67.4822 72.7065 67.5755 72.5988C67.6688 72.4911 67.7838 72.404 67.9129 72.3432C68.0421 72.2824 68.1825 72.2491 68.3253 72.2456H74.7188C74.9501 72.2456 83.516 80.9082 83.516 80.9082C83.5971 80.979 83.6619 81.0663 83.7061 81.1642C83.7503 81.2622 83.7728 81.3684 83.7721 81.4758V87.1768C83.7721 87.2773 83.7522 87.3768 83.7136 87.4696C83.675 87.5624 83.6184 87.6468 83.5471 87.7178C83.4758 87.7888 83.3911 87.8452 83.2979 87.8836C83.2047 87.9221 83.1048 87.9419 83.0039 87.9419H76.7261C76.5216 87.9419 76.3253 87.8616 76.1799 87.7183C76.0345 87.5751 75.9518 87.3805 75.9496 87.1768V86.6997H68.0362C67.8317 86.6997 67.6355 86.6193 67.4901 86.4761C67.3447 86.3328 67.2619 86.1383 67.2598 85.9346V84.569C67.2626 84.4581 67.2879 84.349 67.3341 84.2482Z" fill="#ACBAC8"/>
<path d="M68.4079 74.615V77.7905C68.4079 78.0087 68.4949 78.2179 68.6499 78.3722C68.8048 78.5265 69.0149 78.6131 69.2339 78.6131H78.2046H78.6011C79.3528 78.5391 79.4271 78.2429 79.0637 77.7905L75.0987 73.7595H69.267C69.1529 73.7548 69.0391 73.7738 68.9328 73.8151C68.8265 73.8565 68.7299 73.9193 68.6492 73.9997C68.5684 74.0801 68.5053 74.1763 68.4638 74.2822C68.4223 74.3881 68.4033 74.5014 68.4079 74.615Z" fill="#5C6A78"/>
<path d="M82.7889 80.9165H80.7321C80.3078 80.9165 79.9639 81.259 79.9639 81.6816V82.7181C79.9639 83.1407 80.3078 83.4832 80.7321 83.4832H82.7889C83.2132 83.4832 83.5571 83.1407 83.5571 82.7181V81.6816C83.5571 81.259 83.2132 80.9165 82.7889 80.9165Z" fill="#D9E5F2"/>
<path d="M71.0758 79.8389H69.3741C69.2236 79.8389 69.1016 79.9604 69.1016 80.1103V80.4312C69.1016 80.5811 69.2236 80.7027 69.3741 80.7027H71.0758C71.2263 80.7027 71.3484 80.5811 71.3484 80.4312V80.1103C71.3484 79.9604 71.2263 79.8389 71.0758 79.8389Z" fill="#6C7A88"/>
<path d="M73.5293 86.7241C73.5293 86.7457 73.5336 86.7671 73.5419 86.7871C73.5502 86.807 73.5623 86.8252 73.5777 86.8404C73.593 86.8557 73.6112 86.8678 73.6313 86.8761C73.6513 86.8844 73.6728 86.8886 73.6945 86.8886H74.1901C74.2339 86.8886 74.276 86.8713 74.3069 86.8404C74.3379 86.8096 74.3553 86.7677 74.3553 86.7241C74.3553 86.6805 74.3379 86.6386 74.3069 86.6078C74.276 86.5769 74.2339 86.5596 74.1901 86.5596H73.6945C73.6728 86.5596 73.6513 86.5638 73.6313 86.5721C73.6112 86.5804 73.593 86.5925 73.5777 86.6078C73.5623 86.623 73.5502 86.6412 73.5419 86.6611C73.5336 86.6811 73.5293 86.7025 73.5293 86.7241Z" fill="#4D4D4D"/>
<path d="M81.5176 81.8129C81.5165 81.8996 81.5329 81.9857 81.5657 82.0661C81.5985 82.1464 81.6471 82.2194 81.7087 82.2807C81.7703 82.3421 81.8436 82.3905 81.9243 82.4232C82.0049 82.4559 82.0914 82.4721 82.1784 82.471H82.6906C82.8658 82.471 83.0339 82.4017 83.1579 82.2783C83.2818 82.1549 83.3514 81.9875 83.3514 81.8129C83.3514 81.6384 83.2818 81.471 83.1579 81.3475C83.0339 81.2241 82.8658 81.1548 82.6906 81.1548H82.1784C82.0032 81.1548 81.8351 81.2241 81.7112 81.3475C81.5873 81.471 81.5176 81.6384 81.5176 81.8129Z" fill="white"/>
<path d="M70.8701 87.9417C70.8701 88.5551 71.0528 89.1548 71.3949 89.6648C71.7371 90.1748 72.2235 90.5723 72.7925 90.8071C73.3615 91.0418 73.9877 91.1032 74.5918 90.9836C75.1959 90.8639 75.7507 90.5685 76.1863 90.1348C76.6218 89.701 76.9184 89.1484 77.0385 88.5468C77.1587 87.9452 77.097 87.3216 76.8613 86.7549C76.6256 86.1882 76.2265 85.7038 75.7144 85.363C75.2022 85.0222 74.6002 84.8403 73.9842 84.8403C73.1583 84.8403 72.3662 85.1671 71.7822 85.7487C71.1982 86.3303 70.8701 87.1192 70.8701 87.9417Z" fill="#3C4A58"/>
<path d="M70.4153 88.4273C70.5336 88.4273 70.6471 88.3805 70.7307 88.2972C70.8144 88.2139 70.8614 88.1009 70.8614 87.983C70.8614 87.1583 71.1904 86.3674 71.7759 85.7842C72.3615 85.201 73.1557 84.8734 73.9838 84.8734C74.8119 84.8734 75.6061 85.201 76.1916 85.7842C76.7772 86.3674 77.1062 87.1583 77.1062 87.983C77.0975 88.0459 77.1025 88.1099 77.1207 88.1706C77.139 88.2314 77.1701 88.2876 77.212 88.3354C77.2538 88.3832 77.3055 88.4215 77.3635 88.4478C77.4214 88.474 77.4844 88.4876 77.5481 88.4876C77.6118 88.4876 77.6747 88.474 77.7327 88.4478C77.7907 88.4215 77.8424 88.3832 77.8842 88.3354C77.9261 88.2876 77.9572 88.2314 77.9755 88.1706C77.9937 88.1099 77.9987 88.0459 77.99 87.983C77.99 86.9249 77.5679 85.91 76.8166 85.1618C76.0653 84.4135 75.0463 83.9932 73.9838 83.9932C72.9213 83.9932 71.9023 84.4135 71.1509 85.1618C70.3996 85.91 69.9775 86.9249 69.9775 87.983C69.9775 88.0995 70.0234 88.2112 70.1053 88.2943C70.1871 88.3774 70.2985 88.4251 70.4153 88.4273Z" fill="#7C8A98"/>
<path d="M72.043 87.8761C72.043 88.2585 72.1568 88.6322 72.3701 88.9502C72.5834 89.2681 72.8866 89.5159 73.2413 89.6622C73.596 89.8085 73.9863 89.8468 74.3628 89.7722C74.7394 89.6976 75.0853 89.5135 75.3568 89.2431C75.6282 88.9728 75.8131 88.6283 75.888 88.2533C75.9629 87.8783 75.9245 87.4895 75.7775 87.1363C75.6306 86.783 75.3818 86.4811 75.0626 86.2687C74.7434 86.0563 74.3681 85.9429 73.9841 85.9429C73.7292 85.9429 73.4768 85.9929 73.2413 86.09C73.0058 86.1872 72.7918 86.3296 72.6115 86.5091C72.4313 86.6886 72.2883 86.9017 72.1907 87.1363C72.0932 87.3708 72.043 87.6222 72.043 87.8761Z" fill="#5C6A78"/>
<path d="M46.5264 87.9418C46.5264 88.5548 46.7088 89.1541 47.0506 89.664C47.3925 90.1738 47.8783 90.5713 48.4469 90.8063C49.0154 91.0413 49.6412 91.1032 50.245 90.9842C50.8489 90.8652 51.4038 90.5706 51.8396 90.1377C52.2755 89.7048 52.5727 89.1529 52.6938 88.5519C52.8149 87.9508 52.7544 87.3275 52.5199 86.7606C52.2855 86.1938 51.8877 85.7088 51.3766 85.3671C50.8656 85.0253 50.2643 84.842 49.6488 84.8404C49.2388 84.8382 48.8325 84.9169 48.4532 85.0719C48.0739 85.2269 47.7292 85.4551 47.439 85.7434C47.1487 86.0317 46.9186 86.3744 46.762 86.7517C46.6054 87.129 46.5253 87.5335 46.5264 87.9418Z" fill="#3C4A58"/>
<path d="M47.6992 87.8761C47.6992 88.2581 47.8129 88.6316 48.0258 88.9493C48.2387 89.2671 48.5414 89.5148 48.8956 89.6614C49.2499 89.808 49.6397 89.8467 50.0161 89.7728C50.3924 89.6989 50.7383 89.5156 51.0101 89.246C51.2819 88.9765 51.4674 88.6328 51.5432 88.2583C51.6191 87.8838 51.5818 87.4954 51.4362 87.142C51.2905 86.7886 51.043 86.4861 50.7248 86.2727C50.4067 86.0593 50.0322 85.9445 49.6486 85.9429C49.393 85.9418 49.1397 85.991 48.9033 86.0877C48.6668 86.1843 48.4518 86.3266 48.2707 86.5062C48.0896 86.6858 47.9458 86.8993 47.8478 87.1344C47.7497 87.3695 47.6992 87.6216 47.6992 87.8761Z" fill="#5C6A78"/>
<path d="M55.5469 71.8422C55.5469 72.0604 55.6339 72.2696 55.7888 72.4239C55.9437 72.5782 56.1538 72.6648 56.3729 72.6648H61.866C62.0851 72.6648 62.2952 72.5782 62.4501 72.4239C62.605 72.2696 62.692 72.0604 62.692 71.8422C62.692 71.624 62.605 71.4148 62.4501 71.2605C62.2952 71.1062 62.0851 71.0195 61.866 71.0195H56.3977C56.1786 71.0195 55.9685 71.1062 55.8136 71.2605C55.6587 71.4148 55.5717 71.624 55.5717 71.8422H55.5469Z" fill="#1D2A38"/>
<path d="M64.7162 72.0151H42.2978C41.3534 72.0151 40.5879 72.7775 40.5879 73.718V82.6685C40.5879 83.609 41.3534 84.3714 42.2978 84.3714H64.7162C65.6605 84.3714 66.4261 83.609 66.4261 82.6685V73.718C66.4261 72.7775 65.6605 72.0151 64.7162 72.0151Z" fill="#5C6A78"/>
<path d="M59.57 72.0151H58.8018V84.3714H59.57V72.0151Z" fill="#2C3A48"/>
<path d="M48.2038 72.0151H47.4355V84.3714H48.2038V72.0151Z" fill="#2C3A48"/>
<path d="M49.7568 77.7078C49.7552 78.4322 49.9694 79.1407 50.3723 79.7438C50.7752 80.3469 51.3487 80.8174 52.0203 81.0958C52.6918 81.3741 53.4311 81.4478 54.1447 81.3075C54.8583 81.1671 55.514 80.8191 56.0289 80.3075C56.5438 79.7958 56.8948 79.1436 57.0373 78.4332C57.1798 77.7229 57.1074 76.9864 56.8295 76.317C56.5515 75.6476 56.0804 75.0753 55.4757 74.6727C54.871 74.2701 54.16 74.0552 53.4327 74.0552C52.4592 74.0552 51.5255 74.4397 50.8364 75.1245C50.1473 75.8093 49.759 76.7383 49.7568 77.7078Z" fill="#E9EFF7"/>
<path d="M52.127 78.44C52.127 79.4684 52.7217 80.2992 53.4486 80.2992C54.1755 80.2992 54.7702 79.4766 54.7702 78.44C54.7702 77.4035 53.4486 75.1494 53.4486 75.1494C53.4486 75.1494 52.127 77.4117 52.127 78.44Z" fill="#2C3A48"/>
<path d="M52.54 78.4733C52.54 78.8188 52.7383 79.0985 52.9861 79.0985C53.2339 79.0985 53.4322 78.8188 53.4322 78.4733C53.3362 78.0764 53.1743 77.6982 52.9531 77.3545C52.7549 77.7025 52.6154 78.0804 52.54 78.4733Z" fill="white"/>
<path d="M46.0313 83.6474C46.0883 83.6474 46.1429 83.6249 46.1832 83.5847C46.2235 83.5446 46.2461 83.4902 46.2461 83.4335V71.3322C46.2461 71.2755 46.2235 71.2211 46.1832 71.181C46.1429 71.1409 46.0883 71.1183 46.0313 71.1183C46.0028 71.1172 45.9744 71.1219 45.9478 71.1323C45.9212 71.1426 45.8971 71.1583 45.8769 71.1784C45.8567 71.1985 45.8409 71.2225 45.8306 71.249C45.8202 71.2755 45.8154 71.3038 45.8166 71.3322V83.4335C45.8166 83.4902 45.8392 83.5446 45.8795 83.5847C45.9198 83.6249 45.9744 83.6474 46.0313 83.6474Z" fill="#3C4A58"/>
<path d="M43.5038 83.6474C43.5608 83.6474 43.6154 83.6249 43.6557 83.5847C43.696 83.5446 43.7186 83.4902 43.7186 83.4335V71.3322C43.7198 71.3038 43.715 71.2755 43.7046 71.249C43.6943 71.2225 43.6785 71.1985 43.6583 71.1784C43.6381 71.1583 43.614 71.1426 43.5874 71.1323C43.5608 71.1219 43.5324 71.1172 43.5038 71.1183C43.4469 71.1183 43.3922 71.1409 43.352 71.181C43.3117 71.2211 43.2891 71.2755 43.2891 71.3322V83.4335C43.2891 83.4902 43.3117 83.5446 43.352 83.5847C43.3922 83.6249 43.4469 83.6474 43.5038 83.6474Z" fill="#3C4A58"/>
<path d="M43.5038 72.9122H46.0315C46.0884 72.9122 46.1431 72.8896 46.1833 72.8495C46.2236 72.8094 46.2463 72.755 46.2463 72.6983C46.2463 72.6415 46.2236 72.5871 46.1833 72.547C46.1431 72.5069 46.0884 72.4844 46.0315 72.4844H43.5038C43.4469 72.4844 43.3922 72.5069 43.352 72.547C43.3117 72.5871 43.2891 72.6415 43.2891 72.6983C43.2891 72.755 43.3117 72.8094 43.352 72.8495C43.3922 72.8896 43.4469 72.9122 43.5038 72.9122Z" fill="#3C4A58"/>
<path d="M43.5038 74.7793H46.0315C46.0884 74.7793 46.1431 74.7568 46.1833 74.7167C46.2236 74.6766 46.2463 74.6222 46.2463 74.5655C46.2463 74.5087 46.2236 74.4543 46.1833 74.4142C46.1431 74.3741 46.0884 74.3516 46.0315 74.3516H43.5038C43.4469 74.3516 43.3922 74.3741 43.352 74.4142C43.3117 74.4543 43.2891 74.5087 43.2891 74.5655C43.2891 74.6222 43.3117 74.6766 43.352 74.7167C43.3922 74.7568 43.4469 74.7793 43.5038 74.7793Z" fill="#3C4A58"/>
<path d="M43.5038 76.6548H46.0315C46.0884 76.6548 46.1431 76.6323 46.1833 76.5922C46.2236 76.5521 46.2463 76.4977 46.2463 76.4409C46.2463 76.3842 46.2236 76.3298 46.1833 76.2897C46.1431 76.2496 46.0884 76.2271 46.0315 76.2271H43.5038C43.4469 76.2271 43.3922 76.2496 43.352 76.2897C43.3117 76.3298 43.2891 76.3842 43.2891 76.4409C43.2891 76.4977 43.3117 76.5521 43.352 76.5922C43.3922 76.6323 43.4469 76.6548 43.5038 76.6548Z" fill="#3C4A58"/>
<path d="M43.5038 78.5308H46.0315C46.0884 78.5308 46.1431 78.5083 46.1833 78.4682C46.2236 78.4281 46.2463 78.3736 46.2463 78.3169C46.2463 78.2602 46.2236 78.2058 46.1833 78.1657C46.1431 78.1256 46.0884 78.103 46.0315 78.103H43.5038C43.4469 78.103 43.3922 78.1256 43.352 78.1657C43.3117 78.2058 43.2891 78.2602 43.2891 78.3169C43.2891 78.3736 43.3117 78.4281 43.352 78.4682C43.3922 78.5083 43.4469 78.5308 43.5038 78.5308Z" fill="#3C4A58"/>
<path d="M43.5038 80.4063H46.0315C46.0884 80.4063 46.1431 80.3838 46.1833 80.3436C46.2236 80.3035 46.2463 80.2491 46.2463 80.1924C46.2463 80.1357 46.2236 80.0813 46.1833 80.0412C46.1431 80.0011 46.0884 79.9785 46.0315 79.9785H43.5038C43.4469 79.9785 43.3922 80.0011 43.352 80.0412C43.3117 80.0813 43.2891 80.1357 43.2891 80.1924C43.2891 80.2491 43.3117 80.3035 43.352 80.3436C43.3922 80.3838 43.4469 80.4063 43.5038 80.4063Z" fill="#3C4A58"/>
<path d="M69.1016 78.6458V75.6595C69.1016 75.4261 69.1947 75.2022 69.3604 75.0371C69.5262 74.872 69.751 74.7793 69.9854 74.7793C70.2198 74.7793 70.4446 74.872 70.6104 75.0371C70.7762 75.2022 70.8693 75.4261 70.8693 75.6595V78.6458H69.1016Z" fill="#3C4A58"/>
<path d="M76.5194 78.4812H76.5854C76.6413 78.4732 76.6951 78.4542 76.7436 78.4255C76.7921 78.3967 76.8345 78.3587 76.8682 78.3136C76.902 78.2685 76.9265 78.2172 76.9403 78.1627C76.9542 78.1082 76.9571 78.0515 76.9489 77.9959C76.9448 77.9521 76.9448 77.908 76.9489 77.8642C76.9438 77.7059 76.9848 77.5495 77.0669 77.4137C77.1489 77.278 77.2686 77.1688 77.4115 77.0992C77.5122 77.0457 77.5876 76.9546 77.6209 76.8458C77.6542 76.737 77.6427 76.6196 77.5891 76.5192C77.5354 76.4188 77.4439 76.3438 77.3347 76.3106C77.2255 76.2775 77.1075 76.2889 77.0067 76.3423C76.7279 76.4858 76.4941 76.7029 76.3309 76.9699C76.1677 77.2369 76.0814 77.5434 76.0816 77.856C76.0731 77.9408 76.0731 78.0262 76.0816 78.111C76.0958 78.2157 76.1484 78.3114 76.2292 78.3797C76.31 78.4481 76.4134 78.4842 76.5194 78.4812Z" fill="#3C4A58"/>
<path d="M52.6645 131.238H102.292C102.66 131.238 103.024 131.31 103.364 131.45C103.704 131.591 104.012 131.796 104.272 132.055C104.532 132.314 104.739 132.621 104.879 132.96C105.02 133.298 105.093 133.661 105.093 134.027V137.605C105.093 137.972 105.02 138.334 104.879 138.673C104.739 139.011 104.532 139.319 104.272 139.577C104.012 139.836 103.704 140.042 103.364 140.182C103.024 140.322 102.66 140.394 102.292 140.394H52.6645C52.2965 140.395 51.9318 140.324 51.5916 140.184C51.2514 140.044 50.9423 139.839 50.682 139.58C50.4218 139.321 50.2155 139.013 50.0752 138.674C49.9349 138.335 49.8632 137.972 49.8643 137.605V134.01C49.8643 133.271 50.1593 132.562 50.6844 132.039C51.2096 131.516 51.9218 131.222 52.6645 131.222V131.238Z" fill="#D6741D"/>
<path d="M136.225 124.336H90.6857C89.3809 124.336 88.3232 125.389 88.3232 126.689V137.992C88.3232 139.291 89.3809 140.345 90.6857 140.345H136.225C137.529 140.345 138.587 139.291 138.587 137.992V126.689C138.587 125.389 137.529 124.336 136.225 124.336Z" fill="#D6741D"/>
<path d="M88.8359 120.207H138.117C138.86 120.207 139.572 120.5 140.097 121.023C140.622 121.546 140.917 122.256 140.917 122.995V124.04C140.917 124.78 140.622 125.489 140.097 126.012C139.572 126.535 138.86 126.829 138.117 126.829H88.8359C88.0955 126.829 87.3853 126.536 86.8617 126.015C86.3381 125.493 86.044 124.786 86.044 124.048V122.995C86.0429 122.63 86.1143 122.267 86.2541 121.929C86.3939 121.59 86.5994 121.283 86.8588 121.024C87.1182 120.765 87.4263 120.559 87.7656 120.419C88.1049 120.279 88.4686 120.207 88.8359 120.207Z" fill="#FFAC42"/>
<path d="M112.518 118.98V122.271C112.516 123.01 112.22 123.718 111.696 124.241C111.171 124.763 110.46 125.058 109.718 125.06H88.8277C88.1438 125.055 87.4854 124.801 86.9759 124.347C86.4665 123.892 86.141 123.268 86.0605 122.592C86.0605 122.477 86.0605 122.362 86.0605 122.238V118.948C86.0527 118.893 86.0527 118.838 86.0605 118.783C86.1125 118.087 86.4264 117.436 86.9394 116.96C87.4524 116.484 88.1267 116.219 88.8277 116.216H109.718C110.456 116.216 111.165 116.507 111.689 117.024C112.214 117.542 112.512 118.245 112.518 118.98Z" fill="#FFAC42"/>
<path d="M94.6845 133.821C94.6845 134.178 94.5429 134.52 94.2907 134.773C94.0384 135.025 93.6959 135.168 93.3381 135.171C92.9788 135.171 92.6342 135.028 92.3802 134.775C92.1261 134.522 91.9834 134.179 91.9834 133.821V129.33C91.9834 129.153 92.0185 128.978 92.0867 128.815C92.1549 128.651 92.2548 128.503 92.3807 128.379C92.5066 128.254 92.656 128.155 92.8203 128.089C92.9846 128.022 93.1606 127.988 93.3381 127.989C93.6952 127.989 94.0377 128.13 94.2902 128.382C94.5427 128.633 94.6845 128.974 94.6845 129.33V133.821Z" fill="#C5D3E1"/>
<path d="M99.9208 133.821C99.9208 134.179 99.7781 134.522 99.5241 134.775C99.27 135.028 98.9254 135.171 98.5662 135.171C98.2083 135.168 97.8659 135.025 97.6136 134.773C97.3613 134.52 97.2197 134.178 97.2197 133.821V129.33C97.2197 128.974 97.3616 128.633 97.6141 128.382C97.8666 128.13 98.2091 127.989 98.5662 127.989C98.7437 127.988 98.9196 128.022 99.084 128.089C99.2483 128.155 99.3977 128.254 99.5236 128.379C99.6495 128.503 99.7494 128.651 99.8176 128.815C99.8858 128.978 99.9208 129.153 99.9208 129.33V133.821Z" fill="#C5D3E1"/>
<path d="M105.158 133.821C105.156 134.179 105.013 134.52 104.759 134.773C104.505 135.026 104.162 135.168 103.803 135.171C103.446 135.168 103.103 135.025 102.851 134.773C102.599 134.52 102.457 134.178 102.457 133.821V129.33C102.457 128.974 102.599 128.633 102.851 128.382C103.104 128.13 103.446 127.989 103.803 127.989C104.161 127.989 104.505 128.13 104.758 128.381C105.012 128.632 105.156 128.973 105.158 129.33V133.821Z" fill="#C5D3E1"/>
<path d="M110.387 133.821C110.379 134.172 110.233 134.505 109.982 134.751C109.731 134.997 109.393 135.135 109.041 135.137C108.683 135.135 108.34 134.992 108.088 134.739C107.836 134.487 107.694 134.145 107.694 133.788V129.296C107.694 128.941 107.836 128.6 108.089 128.348C108.341 128.097 108.684 127.956 109.041 127.956C109.398 127.956 109.74 128.097 109.993 128.348C110.245 128.6 110.387 128.941 110.387 129.296V133.821Z" fill="#C5D3E1"/>
<path d="M142.164 139.58C142.626 137.635 142.817 135.637 142.734 133.64C142.734 133.196 142.734 132.752 142.734 132.299C142.737 132.115 142.704 131.931 142.635 131.76C142.566 131.588 142.464 131.432 142.334 131.3C142.204 131.168 142.049 131.064 141.878 130.992C141.707 130.921 141.524 130.884 141.338 130.884L113.848 130.728C113.553 130.72 113.263 130.806 113.022 130.975L108.974 133.78L66.1694 133.443L42.9002 127.734C42.7919 127.708 42.6811 127.694 42.5698 127.692L21.1591 127.84C20.8701 127.838 20.5875 127.926 20.3504 128.09C20.1133 128.255 19.9334 128.489 19.8355 128.76C19.7375 129.031 19.7265 129.325 19.8038 129.603C19.8811 129.88 20.0429 130.127 20.267 130.308L35.3916 143.01C35.313 143.353 35.2715 143.703 35.2677 144.055C35.2677 145.303 35.7655 146.5 36.6516 147.382C37.5377 148.265 38.7395 148.761 39.9926 148.761H130.393C130.454 148.765 130.514 148.765 130.575 148.761C130.674 148.761 130.757 148.761 130.856 148.761H140.727C141.865 148.782 142.972 148.392 143.844 147.663C144.715 146.934 145.292 145.915 145.467 144.795C145.643 143.675 145.405 142.529 144.797 141.571C144.19 140.612 143.255 139.905 142.164 139.58Z" fill="#2C3A48"/>
<path d="M133.285 139.522C133.285 140.824 132.897 142.096 132.171 143.179C131.445 144.261 130.413 145.104 129.205 145.602C127.998 146.101 126.669 146.231 125.387 145.977C124.106 145.723 122.928 145.096 122.004 144.176C121.08 143.255 120.45 142.083 120.195 140.806C119.94 139.529 120.071 138.206 120.571 137.004C121.072 135.801 121.919 134.773 123.005 134.05C124.092 133.327 125.37 132.941 126.677 132.941C128.429 132.941 130.11 133.634 131.349 134.869C132.589 136.103 133.285 137.777 133.285 139.522Z" fill="#E9EFF7"/>
<path d="M129.03 140.838C129.03 142.698 127.965 144.203 126.643 144.203C125.321 144.203 124.256 142.698 124.256 140.838C124.256 138.979 126.643 134.841 126.643 134.841C126.643 134.841 129.03 138.979 129.03 140.838Z" fill="#2C3A48"/>
<path d="M128.254 140.896C128.254 141.522 127.89 142.032 127.428 142.032C126.965 142.032 126.602 141.522 126.602 140.896C126.762 140.181 127.041 139.497 127.428 138.873C127.813 139.497 128.092 140.181 128.254 140.896Z" fill="white"/>
<path d="M30.9891 131.238C30.9891 131.53 30.8724 131.811 30.6649 132.018C30.4573 132.224 30.1757 132.34 29.8822 132.34H26.6855C26.3911 132.34 26.1087 132.225 25.8998 132.018C25.6909 131.812 25.5725 131.531 25.5703 131.238C25.5703 130.943 25.6878 130.661 25.8969 130.453C26.1061 130.244 26.3897 130.127 26.6855 130.127H29.8822C30.0282 130.127 30.1729 130.156 30.3077 130.212C30.4425 130.268 30.5649 130.35 30.6678 130.453C30.7707 130.556 30.8521 130.679 30.9072 130.814C30.9623 130.948 30.9902 131.093 30.9891 131.238Z" fill="#BCCAD8"/>
<path d="M39.035 131.238C39.0328 131.531 38.9144 131.812 38.7055 132.018C38.4966 132.225 38.2142 132.34 37.9199 132.34H34.7231C34.4296 132.34 34.148 132.224 33.9404 132.018C33.7329 131.811 33.6162 131.53 33.6162 131.238C33.6152 131.093 33.643 130.948 33.6981 130.814C33.7533 130.679 33.8346 130.556 33.9375 130.453C34.0404 130.35 34.1628 130.268 34.2976 130.212C34.4325 130.156 34.5771 130.127 34.7231 130.127H37.9199C38.2156 130.127 38.4992 130.244 38.7084 130.453C38.9175 130.661 39.035 130.943 39.035 131.238Z" fill="#BCCAD8"/>
<path d="M107.694 119.737C107.687 119.978 107.587 120.207 107.415 120.376C107.242 120.545 107.01 120.64 106.768 120.642H86.0351V118.997C86.0273 118.942 86.0273 118.887 86.0351 118.832H106.752C106.874 118.829 106.995 118.85 107.109 118.894C107.222 118.938 107.326 119.004 107.413 119.088C107.501 119.172 107.571 119.273 107.619 119.385C107.667 119.496 107.693 119.616 107.694 119.737Z" fill="#E9EFF7"/>
<path d="M127.105 84.9554L127.188 86.1647L128.13 85.5806L127.105 84.9554ZM127.461 90.171L127.518 90.9526L128.13 90.5741L127.461 90.171ZM127.816 95.3785V95.7404L128.097 95.5677L127.816 95.3785ZM127.105 84.9554L127.188 86.1647L128.13 85.5806L127.105 84.9554ZM127.461 90.171L127.518 90.9526L128.13 90.5741L127.461 90.171ZM127.816 95.3785V95.7404L128.097 95.5677L127.816 95.3785ZM127.105 84.9554L127.188 86.1647L128.13 85.5806L127.105 84.9554ZM127.518 90.9526L128.13 90.5741L127.461 90.171L127.518 90.9526ZM127.841 95.7404L128.121 95.5677L127.816 95.3785L127.841 95.7404ZM129.36 97.9534L129.212 95.6499L128.89 90.9361V90.5001V90.3027V90.2286L128.617 86.1153V85.8192V85.3503V84.9801L128.369 81.3193L128.32 80.6118V80.5542L128.262 79.7809L127.188 64.0188C127.188 63.8399 127.117 63.6683 126.99 63.5418C126.863 63.4153 126.69 63.3442 126.511 63.3442C126.331 63.3442 126.159 63.4153 126.032 63.5418C125.905 63.6683 125.833 63.8399 125.833 64.0188L124.892 77.7983L124.842 78.4893L124.536 82.8576V82.9481V83.2772V83.6885L123.545 98.0768C123.54 98.2673 123.608 98.4527 123.735 98.595C123.8 98.6615 123.876 98.7146 123.962 98.7513C124.047 98.7881 124.138 98.8076 124.231 98.8089H128.906C128.996 98.8089 129.085 98.7913 129.168 98.757C129.252 98.7226 129.327 98.6723 129.391 98.6089C129.455 98.5455 129.505 98.4703 129.54 98.3874C129.574 98.3046 129.592 98.2158 129.592 98.1261C129.533 98.0414 129.453 97.9734 129.36 97.9287V97.9534ZM124.768 97.4515L125.024 93.6756V93.2478V92.9023V92.4169L125.272 88.8877L125.321 88.1226V88.0486L125.371 87.2259L125.585 84.1081L125.635 83.3512L125.676 82.8494L125.726 82.0267L125.916 79.3284L125.965 78.5716L126.271 74.1375L126.602 78.95L126.659 79.7727L126.767 81.418L126.816 82.1831L126.948 84.1739L127.015 84.9965L127.097 86.2058L127.147 86.9709L127.312 89.3731L127.37 90.1957L127.428 90.9772L127.477 91.7423L127.667 94.564L127.725 95.3867V95.7486L127.783 96.5137L127.841 97.4598L124.768 97.4515ZM127.816 95.3785V95.7404L128.097 95.5677L127.816 95.3785ZM127.461 90.171L127.518 90.9526L128.13 90.5741L127.461 90.171ZM127.105 84.9554L127.188 86.1647L128.13 85.5806L127.105 84.9554ZM127.816 95.3785V95.7404L128.097 95.5677L127.816 95.3785ZM127.461 90.171L127.518 90.9526L128.13 90.5741L127.461 90.171ZM127.105 84.9554L127.188 86.1647L128.13 85.5806L127.105 84.9554ZM127.816 95.3785V95.7404L128.097 95.5677L127.816 95.3785ZM127.461 90.171L127.518 90.9526L128.13 90.5741L127.461 90.171ZM127.105 84.9554L127.188 86.1647L128.13 85.5806L127.105 84.9554Z" fill="#2C3A48"/>
<path d="M124.22 92.3652L123.862 92.9478L128.33 95.6683L128.688 95.0857L124.22 92.3652Z" fill="#2C3A48"/>
<path d="M124.405 87.4784L124.048 88.061L128.516 90.7808L128.874 90.1982L124.405 87.4784Z" fill="#2C3A48"/>
<path d="M128.535 85.8032L128.13 85.5564L127.106 84.9311L125.677 84.0591L124.685 83.4586L124.363 83.2612L124.38 82.9321L124.471 82.7922L124.586 82.603L124.685 82.6688L125.338 83.0637L125.726 83.2941L127.04 84.1003L128.477 84.9723L128.502 85.3342L128.535 85.8032Z" fill="#2C3A48"/>
<path d="M128.179 80.5957L128.13 80.571L126.75 79.7237L126.007 79.2712L124.693 78.4732L124.743 77.7822L124.776 77.7246L126.056 78.5144L126.684 78.8928L128.121 79.7648L128.171 80.5381L128.179 80.5957Z" fill="#2C3A48"/>
<path d="M128.883 95.0681L124.415 97.7886L124.773 98.3711L129.241 95.6506L128.883 95.0681Z" fill="#C5D3E1"/>
<path d="M128.882 90.8951L127.569 91.6931L125.347 93.0423L125.057 93.2232L124.686 93.4454L124.587 93.5029L124.471 93.3137L124.231 92.9189L124.686 92.6392L125.107 92.3924L127.519 90.928L128.13 90.5496L128.7 90.2041L128.783 90.344L128.849 90.4509V90.4591L128.882 90.8951Z" fill="#2C3A48"/>
<path d="M128.56 86.0991L127.238 86.9053L125.413 88.0158L125.347 88.057L124.694 88.4519L124.405 88.6328L124.066 88.0817L124.058 88.057L124.05 88.0488L124.066 88.0323L124.694 87.6539L125.462 87.1767L127.189 86.1402L128.13 85.5561L128.502 85.334L128.535 85.8029L128.56 86.0991Z" fill="#2C3A48"/>
<path d="M128.229 81.3032L126.908 82.1094L125.768 82.8004L125.338 83.0636L124.686 83.4585L124.339 83.6724L124.364 83.2611L124.38 82.932L124.388 82.8415L124.471 82.7922L124.686 82.6688L125.817 81.9695L126.858 81.3443L128.13 80.571L128.172 80.5381L128.18 80.5957L128.229 81.3032Z" fill="#2C3A48"/>
<path d="M155.893 95.3867C155.835 95.3947 155.777 95.3947 155.719 95.3867L151.705 94.49C151.569 94.4605 151.444 94.3953 151.342 94.3013C151.241 94.2072 151.166 94.0878 151.127 93.9553C151.088 93.8223 151.083 93.6817 151.114 93.5465C151.144 93.4113 151.208 93.2859 151.3 93.182L174.511 68.2309C174.646 68.0803 174.835 67.9883 175.037 67.9745C175.24 67.9606 175.439 68.0261 175.594 68.1568C175.743 68.2898 175.839 68.4726 175.863 68.6709C175.888 68.8692 175.839 69.0695 175.726 69.2345L156.529 95.0659C156.454 95.1633 156.357 95.2426 156.247 95.2982C156.137 95.3537 156.016 95.3839 155.893 95.3867ZM153.415 93.2231L155.579 93.7085L165.937 79.7234L153.415 93.2231Z" fill="#2C3A48"/>
<path d="M148.888 91.0104H136.382C136.32 91.0104 136.257 90.9981 136.199 90.9741C136.141 90.9501 136.088 90.915 136.044 90.8707C135.999 90.8264 135.964 90.7738 135.94 90.7159C135.916 90.658 135.903 90.596 135.903 90.5333C135.903 90.4706 135.916 90.4086 135.94 90.3507C135.964 90.2928 135.999 90.2402 136.044 90.1959C136.088 90.1516 136.141 90.1164 136.199 90.0925C136.257 90.0685 136.32 90.0562 136.382 90.0562H148.913C149.04 90.0562 149.162 90.1064 149.252 90.1959C149.342 90.2854 149.392 90.4067 149.392 90.5333C149.392 90.6598 149.342 90.7812 149.252 90.8707C149.162 90.9602 149.04 91.0104 148.913 91.0104H148.888Z" fill="#1D2A38"/>
<path d="M146.46 71.7355H138.786C138.659 71.7355 138.537 71.6853 138.447 71.5958C138.357 71.5063 138.307 71.3849 138.307 71.2584C138.307 71.1318 138.357 71.0105 138.447 70.921C138.537 70.8315 138.659 70.7813 138.786 70.7812H146.46C146.587 70.7813 146.708 70.8315 146.798 70.921C146.888 71.0105 146.939 71.1318 146.939 71.2584C146.939 71.3849 146.888 71.5063 146.798 71.5958C146.708 71.6853 146.587 71.7355 146.46 71.7355Z" fill="#1D2A38"/>
<path d="M136.597 90.311C136.505 90.3124 136.414 90.2866 136.336 90.2369C136.258 90.1871 136.197 90.1156 136.159 90.0313C136.133 89.9741 136.119 89.9123 136.116 89.8494C136.114 89.7865 136.125 89.7239 136.147 89.665C136.169 89.6061 136.203 89.5522 136.246 89.5064C136.289 89.4605 136.341 89.4237 136.399 89.3979L148.459 84.0342C148.574 83.984 148.705 83.9809 148.822 84.0255C148.939 84.0701 149.035 84.1589 149.087 84.2728C149.113 84.33 149.128 84.3918 149.13 84.4547C149.132 84.5176 149.122 84.5802 149.099 84.6391C149.077 84.698 149.043 84.7519 149 84.7977C148.957 84.8436 148.905 84.8804 148.847 84.9062L136.787 90.2699C136.727 90.2962 136.663 90.3102 136.597 90.311Z" fill="#1D2A38"/>
<path d="M148.657 78.8351C148.612 78.9513 148.523 79.0456 148.41 79.0984L146.865 79.7812L137.82 83.804L137.233 84.0672C137.168 84.0826 137.1 84.0826 137.035 84.0672C136.943 84.0665 136.853 84.0399 136.776 83.9904C136.698 83.9409 136.636 83.8705 136.597 83.7875C136.547 83.6716 136.543 83.5406 136.588 83.4223C136.633 83.304 136.722 83.2078 136.837 83.1541L137.977 82.6522L146.724 78.7611L148.013 78.1852C148.112 78.1411 148.223 78.1317 148.328 78.1586C148.433 78.1855 148.526 78.2471 148.591 78.3333L148.657 78.8351Z" fill="#1D2A38"/>
<path d="M137.836 78.9089C137.743 78.9075 137.652 78.8797 137.575 78.8287C137.497 78.7776 137.436 78.7056 137.398 78.621C137.372 78.5639 137.358 78.5022 137.357 78.4395C137.355 78.3769 137.366 78.3146 137.389 78.2563C137.412 78.198 137.447 78.1449 137.491 78.1002C137.535 78.0554 137.588 78.0199 137.646 77.9958L147.211 73.7262C147.327 73.6738 147.46 73.6696 147.579 73.7143C147.698 73.759 147.795 73.8491 147.847 73.9648C147.9 74.0804 147.904 74.2121 147.859 74.3309C147.814 74.4497 147.724 74.5459 147.608 74.5982L138.034 78.8678C137.971 78.8932 137.904 78.9071 137.836 78.9089Z" fill="#1D2A38"/>
<path d="M147.624 71.571C147.578 71.6228 147.522 71.6648 147.459 71.6944L145.807 72.4265L138.992 75.4621L138.166 75.8241C138.103 75.8495 138.036 75.8634 137.968 75.8652C137.858 75.8661 137.751 75.8291 137.665 75.7606C137.579 75.692 137.519 75.5961 137.496 75.4889C137.473 75.3817 137.487 75.2699 137.537 75.1721C137.587 75.0743 137.669 74.9966 137.77 74.9521L139.141 74.3433L145.658 71.4393L147.054 70.8223C147.124 70.7842 147.202 70.7642 147.282 70.7642C147.361 70.7642 147.439 70.7842 147.509 70.8223L147.624 71.571Z" fill="#1D2A38"/>
<path d="M148.648 90.311C148.585 90.3218 148.521 90.3218 148.458 90.311L136.382 84.9062C136.267 84.8525 136.178 84.7562 136.133 84.6379C136.088 84.5196 136.091 84.3886 136.142 84.2728C136.195 84.1589 136.29 84.0701 136.407 84.0255C136.525 83.9809 136.655 83.984 136.77 84.0342L148.83 89.3979C148.931 89.4424 149.013 89.5201 149.063 89.6179C149.113 89.7157 149.127 89.8276 149.104 89.9348C149.08 90.0419 149.021 90.1379 148.935 90.2064C148.849 90.2749 148.742 90.3119 148.632 90.311H148.648Z" fill="#1D2A38"/>
<path d="M148.004 84.1328C147.939 84.1482 147.871 84.1482 147.806 84.1328L137.068 79.3449C137.01 79.3208 136.957 79.2853 136.913 79.2405C136.869 79.1958 136.834 79.1427 136.811 79.0844C136.788 79.0261 136.777 78.9638 136.778 78.9012C136.78 78.8385 136.794 78.7768 136.82 78.7197C136.845 78.6616 136.881 78.609 136.927 78.5651C136.973 78.5211 137.027 78.4867 137.086 78.4637C137.145 78.4407 137.208 78.4297 137.272 78.4313C137.335 78.4329 137.398 78.447 137.456 78.4729L148.194 83.2607C148.311 83.313 148.402 83.4086 148.448 83.527C148.494 83.6455 148.492 83.7773 148.442 83.8942C148.398 83.9702 148.334 84.0326 148.257 84.0747C148.18 84.1168 148.092 84.1369 148.004 84.1328Z" fill="#1D2A38"/>
<path d="M147.261 78.6788C147.198 78.6941 147.133 78.6941 147.071 78.6788L137.786 74.5655C137.67 74.5131 137.58 74.417 137.535 74.2982C137.49 74.1794 137.494 74.0477 137.547 73.9321C137.599 73.8164 137.696 73.7263 137.815 73.6816C137.934 73.6369 138.067 73.6411 138.183 73.6935L147.459 77.8068C147.574 77.8605 147.663 77.9568 147.708 78.0751C147.753 78.1933 147.749 78.3244 147.699 78.4402C147.656 78.5175 147.592 78.5811 147.515 78.6233C147.437 78.6656 147.349 78.6849 147.261 78.6788Z" fill="#1D2A38"/>
<path d="M146.946 75.6678C146.881 75.6707 146.815 75.6565 146.757 75.6266L138.1 71.7931C137.984 71.7407 137.893 71.6445 137.848 71.5257C137.803 71.4069 137.808 71.2752 137.86 71.1596C137.913 71.044 138.009 70.9539 138.129 70.9091C138.248 70.8644 138.38 70.8687 138.496 70.921L147.12 74.7546C147.235 74.8083 147.324 74.9046 147.369 75.0229C147.414 75.1412 147.41 75.2722 147.36 75.3881C147.322 75.4674 147.264 75.5354 147.192 75.5846C147.119 75.6338 147.034 75.6626 146.946 75.6678Z" fill="#1D2A38"/>
<path d="M135.119 96.9745H134.987C134.861 96.9583 134.74 96.9175 134.63 96.8545C134.521 96.7914 134.425 96.7074 134.348 96.6072C134.271 96.507 134.215 96.3926 134.183 96.2707C134.151 96.1488 134.143 96.0217 134.16 95.8969L138.861 62.8508C138.878 62.7265 138.921 62.607 138.985 62.4991C139.049 62.3911 139.134 62.2968 139.235 62.2216C139.336 62.1463 139.451 62.0916 139.573 62.0605C139.695 62.0294 139.822 62.0226 139.947 62.0405C140.072 62.0583 140.192 62.1004 140.3 62.1644C140.408 62.2284 140.503 62.3131 140.579 62.4135C140.654 62.514 140.709 62.6283 140.74 62.7499C140.771 62.8715 140.778 62.998 140.76 63.1222L136.077 96.1519C136.043 96.3808 135.928 96.59 135.752 96.741C135.576 96.8921 135.351 96.975 135.119 96.9745Z" fill="#2C3A48"/>
<path d="M150.26 96.9662H150.128C149.897 96.9631 149.675 96.8787 149.501 96.7281C149.328 96.5775 149.213 96.3704 149.178 96.1436L146.865 79.7727L146.724 78.7938L145.816 72.4182L145.675 71.431L144.494 63.1139C144.458 62.863 144.523 62.6081 144.676 62.4052C144.829 62.2024 145.056 62.0682 145.308 62.0322C145.56 61.9962 145.816 62.0613 146.019 62.2133C146.223 62.3652 146.358 62.5916 146.394 62.8425L147.526 70.8551L147.625 71.5626L148.591 78.3742L148.657 78.8349L151.078 95.8886C151.095 96.0128 151.088 96.1393 151.056 96.2607C151.024 96.3822 150.969 96.4962 150.893 96.5963C150.817 96.6964 150.722 96.7806 150.613 96.8441C150.505 96.9075 150.385 96.9491 150.26 96.9662Z" fill="#2C3A48"/>
<path d="M142.619 96.4728C142.173 96.4728 141.793 96.2589 141.793 95.9957V62.9825C141.793 62.7193 142.156 62.5054 142.619 62.5054C143.082 62.5054 143.445 62.7193 143.445 62.9825V96.0204C143.428 96.2836 143.065 96.4728 142.619 96.4728Z" fill="#2C3A48"/>
<path d="M145.625 61.872L143.42 53.1189C143.345 52.9718 143.232 52.8481 143.091 52.7616C142.95 52.6752 142.788 52.6294 142.623 52.6294C142.457 52.6294 142.295 52.6752 142.154 52.7616C142.014 52.8481 141.9 52.9718 141.825 53.1189L139.62 61.872C139.577 62.0465 139.606 62.2306 139.698 62.3846C139.791 62.5386 139.941 62.65 140.116 62.6946C140.17 62.7024 140.226 62.7024 140.281 62.6946C140.433 62.6945 140.581 62.6445 140.702 62.5523C140.823 62.4602 140.91 62.3309 140.95 62.1846L142.602 55.5293L144.254 62.1846C144.291 62.331 144.376 62.4608 144.496 62.5533C144.616 62.6457 144.763 62.6955 144.915 62.6946C144.97 62.7027 145.025 62.7027 145.08 62.6946C145.171 62.6781 145.258 62.6433 145.335 62.5925C145.412 62.5417 145.478 62.476 145.529 62.3991C145.58 62.3223 145.615 62.2359 145.631 62.1454C145.648 62.0548 145.646 61.9618 145.625 61.872Z" fill="#2C3A48"/>
<path d="M147.245 61.7485H138.01C137.572 61.7485 137.217 62.1021 137.217 62.5383V63.9121C137.217 64.3483 137.572 64.7019 138.01 64.7019H147.245C147.683 64.7019 148.038 64.3483 148.038 63.9121V62.5383C148.038 62.1021 147.683 61.7485 147.245 61.7485Z" fill="#ACBAC8"/>
<path d="M144.931 56.1875H140.313C140.095 56.1875 139.917 56.3643 139.917 56.5824V57.2734C139.917 57.4915 140.095 57.6683 140.313 57.6683H144.931C145.15 57.6683 145.327 57.4915 145.327 57.2734V56.5824C145.327 56.3643 145.15 56.1875 144.931 56.1875Z" fill="#ACBAC8"/>
<path d="M140.768 90.0562H131.732C130.974 90.0562 130.36 90.6676 130.36 91.4218V95.9299C130.36 96.6841 130.974 97.2955 131.732 97.2955H140.768C141.526 97.2955 142.14 96.6841 142.14 95.9299V91.4218C142.14 90.6676 141.526 90.0562 140.768 90.0562Z" fill="#1D2A38"/>
<path d="M157.982 92.7793H141.288C140.531 92.7793 139.917 93.3907 139.917 94.1449V95.6092C139.917 96.3634 140.531 96.9748 141.288 96.9748H157.982C158.74 96.9748 159.353 96.3634 159.353 95.6092V94.1449C159.353 93.3907 158.74 92.7793 157.982 92.7793Z" fill="#3C4A58"/>
<path d="M129.311 113.461C129.103 113.46 128.9 113.395 128.731 113.274C128.561 113.154 128.433 112.985 128.364 112.789C128.295 112.593 128.289 112.381 128.346 112.182C128.403 111.983 128.521 111.806 128.683 111.676L142.61 100.496C142.82 100.33 143.087 100.254 143.353 100.283C143.619 100.312 143.862 100.445 144.031 100.652C144.114 100.754 144.176 100.872 144.213 100.998C144.25 101.125 144.262 101.257 144.247 101.388C144.232 101.519 144.192 101.646 144.128 101.761C144.064 101.876 143.977 101.977 143.874 102.059L129.947 113.239C129.768 113.385 129.543 113.464 129.311 113.461Z" fill="#C5D3E1"/>
<path d="M158.346 113.46C158.117 113.465 157.893 113.386 157.718 113.238L143.816 102.058C143.614 101.889 143.487 101.649 143.462 101.387C143.436 101.126 143.515 100.865 143.68 100.661C143.845 100.456 144.084 100.325 144.346 100.294C144.608 100.263 144.871 100.335 145.08 100.495L159.015 111.675C159.222 111.844 159.353 112.087 159.381 112.352C159.409 112.617 159.331 112.882 159.164 113.09C159.066 113.212 158.942 113.309 158.799 113.373C158.657 113.437 158.502 113.467 158.346 113.46Z" fill="#C5D3E1"/>
<path d="M128.312 98.0688H122.39C121.833 98.0688 121.382 98.5182 121.382 99.0725V113.403C121.382 113.957 121.833 114.407 122.39 114.407H128.312C128.869 114.407 129.32 113.957 129.32 113.403V99.0725C129.32 98.5182 128.869 98.0688 128.312 98.0688Z" fill="#C5D3E1"/>
<path d="M164.582 98.0688H158.668C158.111 98.0688 157.66 98.5182 157.66 99.0725V113.403C157.66 113.957 158.111 114.407 158.668 114.407H164.582C165.139 114.407 165.59 113.957 165.59 113.403V99.0725C165.59 98.5182 165.139 98.0688 164.582 98.0688Z" fill="#C5D3E1"/>
<path d="M168.052 95.5186H118.986C118.43 95.5186 117.979 95.9679 117.979 96.5222V100.282C117.979 100.836 118.43 101.285 118.986 101.285H168.052C168.609 101.285 169.06 100.836 169.06 100.282V96.5222C169.06 95.9679 168.609 95.5186 168.052 95.5186Z" fill="#ACBAC8"/>
<path d="M129.32 105.292H121.382V107.439H129.32V105.292Z" fill="#ACBAC8"/>
<path d="M129.32 110.31H121.382V112.465H129.32V110.31Z" fill="#ACBAC8"/>
<path d="M165.59 105.292H157.66V107.439H165.59V105.292Z" fill="#ACBAC8"/>
<path d="M165.59 110.31H157.66V112.465H165.59V110.31Z" fill="#ACBAC8"/>
<path d="M169.06 96.522H117.979V98.0686H169.06V96.522Z" fill="#C5D3E1"/>
<path d="M59.4951 149.016C59.4951 149.016 89.2735 141.341 110.164 146.507C123.38 149.797 121.307 149.962 129.46 149.797C129.46 149.797 109.47 159.727 75.4044 151.097C75.4044 151.114 68.1023 150.102 59.4951 149.016Z" fill="#C5D3E1"/>
<path d="M31.2529 149.814C31.2529 149.814 42.4126 143.726 53.0931 145.009C61.6673 146.046 91.8091 155.465 104.918 149.814C104.918 149.814 98.5826 162.334 51.0116 151.755C51.0116 151.755 46.6666 146.77 31.2529 149.814Z" fill="#ACBAC8"/>
<path d="M76.5854 150.834C76.5854 151.081 67.8625 154.314 56.7028 152.529C45.5432 150.744 36.7708 150.883 36.8038 151.171C36.8038 150.686 45.824 146.375 56.6863 149.477C67.5486 152.578 76.5606 151.319 76.5854 150.834Z" fill="#5C6A78"/>
<path d="M126.792 150.957C126.792 151.327 116.979 156.148 104.415 153.425C91.8507 150.702 81.9631 150.957 81.9962 151.319C81.9962 150.595 92.1398 144.17 104.373 148.851C116.607 153.532 126.767 151.681 126.792 150.957Z" fill="#6C7A88"/>
<path d="M129.08 113.354C129.08 113.354 147.253 108.673 160.007 111.815C168.06 113.806 166.805 113.93 171.778 113.839C171.778 113.839 159.577 119.894 138.786 114.662C138.786 114.637 134.334 114.012 129.08 113.354Z" fill="#1D2A38"/>
<path d="M111.841 113.839C111.841 113.839 118.656 110.121 125.173 110.91C130.402 111.536 148.797 117.286 156.802 113.839C156.802 113.839 152.936 121.482 123.901 115.024C123.901 115.024 121.249 111.98 111.841 113.839Z" fill="#2C3A48"/>
<path d="M139.505 114.464C139.505 114.612 134.185 116.587 127.378 115.492C120.572 114.398 115.211 114.513 115.228 114.67C115.228 114.382 120.737 111.749 127.362 113.641C133.987 115.534 139.496 114.76 139.505 114.464Z" fill="#5C6A78"/>
<path d="M170.15 114.571C170.15 114.793 164.161 117.738 156.496 116.085C148.83 114.431 142.792 114.571 142.809 114.769C142.809 114.324 149.004 110.4 156.471 113.255C163.938 116.11 170.142 114.974 170.15 114.571Z" fill="#2C3A48"/>
</g>
<defs>
<clipPath id="clip0">
<rect width="180" height="113" fill="white" transform="translate(10 43)"/>
</clipPath>
</defs>
</svg>
