<svg width="320" height="370" viewBox="0 0 320 370" fill="none" xmlns="http://www.w3.org/2000/svg">
<g clip-path="url(#clip0)">
<g opacity="0.1">
<path d="M17.886 342.881C17.886 344.323 18.4609 345.705 19.4843 346.724C20.5078 347.743 21.8958 348.316 23.3431 348.316C24.0597 348.316 24.7694 348.175 25.4315 347.902C26.0935 347.629 26.6951 347.229 27.2019 346.724C27.7086 346.22 28.1106 345.62 28.3848 344.961C28.6591 344.302 28.8002 343.595 28.8002 342.881V324.214C28.8002 323.5 28.6591 322.793 28.3848 322.134C28.1106 321.474 27.7086 320.875 27.2019 320.371C26.6951 319.866 26.0935 319.466 25.4315 319.193C24.7694 318.919 24.0597 318.779 23.3431 318.779C21.8958 318.779 20.5078 319.351 19.4843 320.371C18.4609 321.39 17.886 322.772 17.886 324.214V342.881Z" fill="#404040"/>
<path d="M82.1851 356.113C82.1851 356.641 82.3935 357.148 82.7653 357.523C83.1371 357.899 83.6425 358.114 84.1723 358.122C84.6916 358.099 85.182 357.878 85.5412 357.503C85.9003 357.129 86.1006 356.631 86.1001 356.113V350.206C86.1041 349.941 86.0546 349.678 85.9547 349.433C85.8548 349.187 85.7064 348.964 85.5183 348.777C85.3302 348.59 85.1063 348.442 84.8598 348.342C84.6133 348.243 84.3492 348.194 84.0833 348.197C83.8198 348.197 83.559 348.25 83.3159 348.351C83.0729 348.452 82.8525 348.601 82.6676 348.788C82.4827 348.974 82.3369 349.196 82.2388 349.44C82.1407 349.683 82.0922 349.944 82.0962 350.206L82.1851 356.113Z" fill="#404040"/>
<path d="M46.9512 344.506H-62.5474C-64.0708 344.506 -65.3057 345.736 -65.3057 347.253V358.182C-65.3057 359.699 -64.0708 360.929 -62.5474 360.929H46.9512C48.4745 360.929 49.7094 359.699 49.7094 358.182V347.253C49.7094 345.736 48.4745 344.506 46.9512 344.506Z" fill="#404040"/>
<path d="M25.0335 347.667V308.677C24.9713 308.17 25.0163 307.656 25.1656 307.167C25.3148 306.679 25.5651 306.226 25.9002 305.84C26.2354 305.453 26.6481 305.141 27.1117 304.922C27.5754 304.704 28.0798 304.584 28.5925 304.572H51.5481C52.3785 304.572 83.1342 335.674 83.1342 335.674C83.4252 335.929 83.658 336.242 83.8166 336.594C83.9753 336.946 84.0561 337.327 84.0536 337.713V358.182C84.0536 358.543 83.9822 358.9 83.8436 359.233C83.705 359.566 83.5019 359.869 83.2457 360.124C82.9896 360.379 82.6855 360.582 82.3509 360.72C82.0163 360.858 81.6576 360.929 81.2954 360.929H58.755C58.0208 360.929 57.3161 360.64 56.7941 360.126C56.2721 359.612 55.975 358.913 55.9672 358.182V356.469H27.5545C26.8202 356.469 26.1156 356.18 25.5936 355.666C25.0716 355.152 24.7744 354.453 24.7666 353.722V348.819C24.7767 348.421 24.8675 348.029 25.0335 347.667Z" fill="#404040"/>
<path d="M28.8892 313.079V324.48C28.8892 325.263 29.2017 326.015 29.7579 326.569C30.3141 327.123 31.0684 327.434 31.855 327.434H64.064H65.4876C68.1865 327.168 68.4534 326.105 67.1485 324.48L52.9124 310.007H31.9737C31.5641 309.99 31.1556 310.058 30.7738 310.207C30.392 310.355 30.0452 310.581 29.7554 310.87C29.4656 311.158 29.239 311.503 29.0899 311.884C28.9408 312.264 28.8725 312.671 28.8892 313.079Z" fill="white"/>
<path d="M80.5245 335.704H73.1396C71.6162 335.704 70.3813 336.934 70.3813 338.451V342.173C70.3813 343.69 71.6162 344.92 73.1396 344.92H80.5245C82.0478 344.92 83.2827 343.69 83.2827 342.173V338.451C83.2827 336.934 82.0478 335.704 80.5245 335.704Z" fill="#404040"/>
<path d="M38.469 331.834H32.3593C31.8188 331.834 31.3806 332.271 31.3806 332.809V333.961C31.3806 334.499 31.8188 334.936 32.3593 334.936H38.469C39.0095 334.936 39.4477 334.499 39.4477 333.961V332.809C39.4477 332.271 39.0095 331.834 38.469 331.834Z" fill="#404040"/>
<path d="M75.9572 338.923C75.9532 339.234 76.0119 339.543 76.1297 339.831C76.2475 340.12 76.4222 340.382 76.6433 340.602C76.8644 340.822 77.1275 340.996 77.4172 341.114C77.7069 341.231 78.0172 341.289 78.3299 341.286H80.1687C80.798 341.286 81.4015 341.037 81.8464 340.593C82.2914 340.15 82.5414 339.549 82.5414 338.923C82.5414 338.296 82.2914 337.695 81.8464 337.252C81.4015 336.809 80.798 336.56 80.1687 336.56H78.3299C77.7006 336.56 77.0971 336.809 76.6522 337.252C76.2072 337.695 75.9572 338.296 75.9572 338.923Z" fill="#404040"/>
<path d="M37.7273 360.929C37.7273 363.131 38.3831 365.284 39.6117 367.115C40.8403 368.946 42.5865 370.374 44.6296 371.216C46.6727 372.059 48.9209 372.28 51.0898 371.85C53.2587 371.42 55.251 370.36 56.8147 368.803C58.3785 367.245 59.4434 365.261 59.8748 363.101C60.3062 360.941 60.0848 358.702 59.2385 356.667C58.3922 354.632 56.9591 352.893 55.1204 351.67C53.2816 350.446 51.1199 349.793 48.9085 349.793C45.943 349.793 43.099 350.966 41.0022 353.054C38.9053 355.143 37.7273 357.975 37.7273 360.929Z" fill="#404040"/>
<path d="M36.0961 362.671C36.5208 362.671 36.9282 362.503 37.2285 362.204C37.5289 361.905 37.6976 361.499 37.6976 361.076C37.6976 358.115 38.8788 355.275 40.9812 353.181C43.0836 351.087 45.9352 349.911 48.9085 349.911C51.8818 349.911 54.7333 351.087 56.8357 353.181C58.9382 355.275 60.1193 358.115 60.1193 361.076C60.0883 361.302 60.1061 361.531 60.1716 361.75C60.2371 361.968 60.3488 362.169 60.4991 362.341C60.6495 362.513 60.835 362.65 61.0431 362.745C61.2513 362.839 61.4774 362.888 61.706 362.888C61.9347 362.888 62.1608 362.839 62.3689 362.745C62.5771 362.65 62.7626 362.513 62.9129 362.341C63.0632 362.169 63.1749 361.968 63.2405 361.75C63.306 361.531 63.3238 361.302 63.2927 361.076C63.2927 357.277 61.7773 353.633 59.0797 350.946C56.3821 348.26 52.7234 346.75 48.9085 346.75C45.0935 346.75 41.4348 348.26 38.7372 350.946C36.0397 353.633 34.5242 357.277 34.5242 361.076C34.5241 361.494 34.6888 361.895 34.9827 362.194C35.2767 362.492 35.6765 362.663 36.0961 362.671Z" fill="#404040"/>
<path d="M41.939 360.693C41.939 362.066 42.3477 363.408 43.1136 364.549C43.8794 365.691 44.9679 366.58 46.2415 367.106C47.515 367.631 48.9164 367.768 50.2684 367.501C51.6204 367.233 52.8623 366.572 53.837 365.601C54.8118 364.63 55.4756 363.393 55.7445 362.047C56.0134 360.7 55.8754 359.305 55.3479 358.036C54.8203 356.768 53.927 355.684 52.7808 354.921C51.6347 354.159 50.2872 353.751 48.9087 353.751C47.9934 353.751 47.0871 353.931 46.2415 354.28C45.3959 354.629 44.6276 355.14 43.9804 355.785C43.3332 356.429 42.8198 357.194 42.4695 358.036C42.1192 358.879 41.939 359.781 41.939 360.693Z" fill="#404040"/>
<path d="M-17.2886 303.124C-17.2886 303.907 -16.9761 304.658 -16.4199 305.212C-15.8637 305.766 -15.1093 306.077 -14.3227 306.077H5.40006C6.18665 306.077 6.94103 305.766 7.49723 305.212C8.05343 304.658 8.3659 303.907 8.3659 303.124C8.3659 302.34 8.05343 301.589 7.49723 301.035C6.94103 300.481 6.18665 300.17 5.40006 300.17H-14.2338C-15.0204 300.17 -15.7747 300.481 -16.3309 301.035C-16.8871 301.589 -17.1996 302.34 -17.1996 303.124H-17.2886Z" fill="#404040"/>
<path d="M15.632 303.745H-64.8607C-68.2514 303.745 -71 306.482 -71 309.859V341.995C-71 345.372 -68.2514 348.11 -64.8607 348.11H15.632C19.0226 348.11 21.7712 345.372 21.7712 341.995V309.859C21.7712 306.482 19.0226 303.745 15.632 303.745Z" fill="#404040"/>
<path d="M31.3806 327.551V316.829C31.3806 315.991 31.715 315.187 32.3101 314.594C32.9052 314.001 33.7124 313.668 34.5541 313.668C35.3957 313.668 36.2029 314.001 36.798 314.594C37.3932 315.187 37.7275 315.991 37.7275 316.829V327.551H31.3806Z" fill="#404040"/>
<path d="M58.0137 326.96H58.251C58.4516 326.932 58.6446 326.863 58.8188 326.76C58.993 326.657 59.1451 326.52 59.2663 326.359C59.3875 326.197 59.4755 326.013 59.5252 325.817C59.5749 325.621 59.5853 325.418 59.556 325.218C59.5412 325.061 59.5412 324.902 59.556 324.745C59.5378 324.177 59.6849 323.615 59.9795 323.128C60.2741 322.64 60.7038 322.248 61.2168 321.998C61.5786 321.806 61.8491 321.479 61.9687 321.089C62.0883 320.698 62.0472 320.276 61.8544 319.916C61.6617 319.555 61.3332 319.286 60.9411 319.167C60.549 319.048 60.1254 319.089 59.7636 319.281C58.7624 319.796 57.9229 320.575 57.337 321.534C56.7511 322.493 56.4414 323.593 56.4418 324.716C56.4113 325.02 56.4113 325.327 56.4418 325.631C56.4929 326.007 56.6817 326.351 56.9719 326.596C57.2621 326.841 57.6332 326.971 58.0137 326.96Z" fill="#404040"/>
</g>
<g opacity="0.1">
<path d="M125.753 185.182C125.753 185.182 177.875 166.333 214.453 179.014C237.549 187.015 233.957 187.496 248.223 187.14C248.223 187.14 213.227 211.539 153.606 190.345C153.595 190.345 140.806 187.842 125.753 185.182Z" fill="#404040"/>
<path d="M24 161.465C24 161.465 60.8247 150.153 86.662 157.762C102.984 162.509 100.452 162.853 110.521 162.64C110.521 162.64 85.7906 177.275 43.6665 164.563C43.6665 164.563 34.6341 163.055 24 161.465Z" fill="#404040"/>
<path opacity="0.7" d="M220.929 109.486C220.929 109.973 208.468 116.415 192.555 112.856C176.642 109.296 164.099 109.635 164.14 110.149C164.14 109.188 177.022 100.594 192.514 106.779C208.006 112.964 220.888 110.433 220.929 109.486Z" fill="#404040"/>
<path opacity="0.5" d="M135.502 78.4111C135.502 78.8983 147.964 85.3404 163.877 81.781C179.789 78.2217 192.332 78.56 192.291 79.0743C192.291 78.1134 179.409 69.5195 163.917 75.7044C148.426 81.8893 135.543 79.3585 135.502 78.4111Z" fill="#404040"/>
<path opacity="0.7" d="M130.588 108.468C130.588 109.212 116.578 118.821 98.6536 113.421C80.7296 108.021 66.6104 108.481 66.6512 109.226C66.6512 107.778 81.1372 94.9477 98.5993 104.272C116.061 113.597 130.561 109.916 130.588 108.468Z" fill="#404040"/>
<path d="M348.726 179.661C348.726 180.27 332.583 188.201 311.914 183.721C291.244 179.242 274.978 179.661 275.033 180.257C275.033 179.066 291.72 168.496 311.846 176.197C331.971 183.897 348.686 180.852 348.726 179.661Z" fill="#404040"/>
<path opacity="0.7" d="M110.521 132.028C110.521 132.028 140.417 124.328 161.399 129.498C174.648 132.773 172.582 132.976 180.763 132.827C180.763 132.827 160.692 142.788 126.488 134.18C126.488 134.14 119.163 133.111 110.521 132.028Z" fill="#404040"/>
<path opacity="0.7" d="M250.051 115.041C250.051 115.041 261.262 108.924 271.984 110.223C280.586 111.252 310.849 120.712 324.017 115.041C324.017 115.041 317.657 127.614 269.891 116.99C269.891 116.99 265.529 111.982 250.051 115.041Z" fill="#404040"/>
<path opacity="0.5" d="M93.7945 71.6891C93.7945 71.9327 85.0431 75.1808 73.8456 73.3808C62.6482 71.5809 53.8288 71.7703 53.856 72.0275C53.856 71.5538 62.92 67.223 73.8185 70.3358C84.717 73.4485 93.7809 72.1763 93.7945 71.6891Z" fill="#404040"/>
<path opacity="0.5" d="M277.971 71.8636C277.971 72.229 268.119 77.0741 255.508 74.3538C242.897 71.6335 232.964 71.8636 232.991 72.1884C232.991 71.4576 243.183 65.0021 255.467 69.6982C267.752 74.3944 277.957 72.5268 277.971 71.8636Z" fill="#404040"/>
<path d="M217.758 142.243L221.794 143.226L245.087 143.413H248.957V140.254C249.002 139.91 249.173 139.593 249.437 139.364C249.702 139.135 250.042 139.009 250.394 139.009C250.746 139.009 251.086 139.135 251.35 139.364C251.614 139.593 251.785 139.91 251.83 140.254V143.46H254.513V140.254C254.513 140.069 254.55 139.887 254.622 139.717C254.693 139.546 254.798 139.391 254.93 139.261C255.063 139.131 255.22 139.027 255.393 138.957C255.565 138.886 255.751 138.85 255.938 138.85C256.125 138.85 256.31 138.886 256.483 138.957C256.656 139.027 256.813 139.131 256.945 139.261C257.077 139.391 257.182 139.546 257.254 139.717C257.325 139.887 257.362 140.069 257.362 140.254V143.507H260.069V140.23C260.069 139.858 260.219 139.501 260.486 139.238C260.754 138.974 261.116 138.826 261.494 138.826C261.872 138.826 262.234 138.974 262.501 139.238C262.768 139.501 262.918 139.858 262.918 140.23V143.554H265.601V140.254C265.646 139.91 265.817 139.593 266.081 139.364C266.346 139.135 266.686 139.009 267.038 139.009C267.39 139.009 267.73 139.135 267.994 139.364C268.259 139.593 268.429 139.91 268.474 140.254V142.266L270.469 140.886C270.957 140.553 271.537 140.373 272.131 140.371L298.249 140.535V137.586C298.921 137.451 299.525 137.09 299.958 136.565C300.391 136.04 300.626 135.384 300.623 134.708V133.608C300.626 132.871 300.346 132.16 299.839 131.618C299.333 131.075 298.638 130.741 297.893 130.682H270.706V129.419C270.706 128.647 270.397 127.906 269.845 127.358C269.294 126.81 268.545 126.499 267.762 126.493H245.657C244.902 126.486 244.174 126.768 243.625 127.278C243.076 127.788 242.749 128.488 242.713 129.231H264.652C264.91 129.231 265.157 129.332 265.34 129.512C265.523 129.692 265.625 129.936 265.625 130.191C265.629 130.365 265.579 130.536 265.483 130.682C265.399 130.826 265.277 130.945 265.131 131.027C264.985 131.109 264.82 131.152 264.652 131.15H242.689V132.882C242.689 133.023 242.689 133.14 242.689 133.257C242.676 133.358 242.676 133.46 242.689 133.561V134.661C242.687 135.334 242.923 135.987 243.356 136.508C243.789 137.029 244.393 137.385 245.063 137.516V142.196L217.758 142.243Z" fill="#404040"/>
<path d="M301.924 151.182C302.418 149.101 302.619 146.96 302.519 144.823C302.519 144.345 302.519 143.867 302.519 143.389C302.522 143.19 302.485 142.993 302.412 142.808C302.338 142.623 302.229 142.455 302.091 142.313C301.953 142.176 301.79 142.067 301.61 141.993C301.431 141.919 301.238 141.882 301.044 141.883H298.142L271.856 141.715C271.547 141.715 271.247 141.816 271 142.002L268.217 143.963L266.718 144.991H244.785L221.283 144.799L211.768 142.409L196.615 138.679H196.258L173.54 138.823C173.235 138.827 172.938 138.924 172.69 139.102C172.441 139.28 172.253 139.53 172.149 139.818C172.046 140.107 172.032 140.42 172.111 140.716C172.19 141.013 172.356 141.278 172.589 141.476L188.646 155.079C188.55 155.438 188.502 155.808 188.503 156.179C188.516 156.714 188.604 157.246 188.765 157.757C192.44 156.739 196.268 156.399 200.064 156.753C202.443 157.063 206.915 158.115 212.148 159.263C221.521 157.398 240.004 154.649 254.182 158.187C261.96 160.123 264.149 160.936 266.551 161.223H300.449C301.652 161.236 302.819 160.812 303.736 160.03C304.653 159.247 305.258 158.159 305.44 156.964C305.622 155.769 305.369 154.548 304.728 153.525C304.086 152.503 303.099 151.747 301.948 151.397L301.924 151.182ZM182.794 143.437H179.392C179.077 143.437 178.774 143.311 178.551 143.087C178.328 142.862 178.203 142.558 178.203 142.241C178.203 141.924 178.328 141.62 178.551 141.396C178.774 141.172 179.077 141.046 179.392 141.046H182.794C183.109 141.046 183.412 141.172 183.635 141.396C183.858 141.62 183.983 141.924 183.983 142.241C183.983 142.558 183.858 142.862 183.635 143.087C183.412 143.311 183.109 143.437 182.794 143.437ZM191.31 143.437H187.932C187.617 143.437 187.314 143.311 187.091 143.087C186.868 142.862 186.743 142.558 186.743 142.241C186.743 141.924 186.868 141.62 187.091 141.396C187.314 141.172 187.617 141.046 187.932 141.046H191.31C191.625 141.046 191.928 141.172 192.151 141.396C192.374 141.62 192.499 141.924 192.499 142.241C192.499 142.558 192.374 142.862 192.151 143.087C191.928 143.311 191.625 143.437 191.31 143.437ZM285.487 158.211C283.78 158.187 282.139 157.549 280.86 156.413C279.581 155.277 278.75 153.718 278.517 152.019C278.517 151.708 278.517 151.421 278.517 151.135C278.348 150.108 278.404 149.057 278.68 148.054C278.957 147.051 279.447 146.12 280.117 145.327C280.787 144.533 281.62 143.896 282.56 143.459C283.5 143.022 284.523 142.795 285.558 142.795C286.594 142.795 287.617 143.022 288.556 143.459C289.496 143.896 290.33 144.533 291 145.327C291.669 146.12 292.16 147.051 292.436 148.054C292.712 149.057 292.768 150.108 292.599 151.135C292.621 151.429 292.621 151.725 292.599 152.019C292.393 153.755 291.549 155.352 290.234 156.497C288.919 157.642 287.226 158.253 285.487 158.211Z" fill="#404040"/>
<path d="M285.657 145.991C284.493 147.908 283.588 149.959 282.963 152.097C282.95 152.278 282.95 152.46 282.963 152.641C282.963 154.693 284.195 156.349 285.708 156.349C287.222 156.349 288.428 154.693 288.428 152.641C288.44 152.46 288.44 152.278 288.428 152.097C287.787 149.953 286.856 147.9 285.657 145.991ZM286.581 153.951C286.067 153.951 285.657 153.382 285.657 152.69C285.628 152.493 285.628 152.294 285.657 152.097C285.874 151.532 286.14 150.986 286.452 150.465C286.752 150.989 287.009 151.535 287.222 152.097C287.313 152.283 287.365 152.485 287.376 152.69C287.504 153.382 287.094 154 286.581 154V153.951Z" fill="#404040"/>
<path d="M221.27 162.557C217.903 163.001 214.492 163.001 211.125 162.557C209.83 162.417 208.465 162.184 207.053 161.904C206.135 161.717 205.217 161.484 204.252 161.227L203.522 161.041C199.456 159.897 195.179 159.697 191.023 160.457H190.576H190.152L189.328 160.644C187.722 160.907 186.194 161.521 184.856 162.44C189.319 162.163 193.8 162.343 198.226 162.977C199.897 163.187 201.686 163.42 203.546 163.7C209.53 164.738 215.677 164.354 221.482 162.58H221.741L222.023 162.464C221.88 162.522 221.73 162.561 221.576 162.58L221.27 162.557Z" fill="#404040"/>
<path d="M256.182 162.499C255.235 162.311 254.242 162.099 253.248 161.841C252.254 161.582 251.71 161.417 250.882 161.159L248.682 160.383C245.643 159.209 242.394 158.673 239.137 158.806C235.88 158.94 232.686 159.741 229.755 161.159C229.305 161.394 228.879 161.629 228.548 161.841L228.075 162.17L227.649 162.499C227.649 162.499 227.507 162.664 227.507 162.711C228.665 162.467 229.854 162.404 231.032 162.523C232.759 162.523 235.054 162.687 237.728 162.969C240.401 163.251 242.791 163.581 245.677 164.121C246.647 164.286 247.641 164.474 248.658 164.709C250.658 165.136 252.694 165.38 254.738 165.438C259.839 165.731 264.932 164.744 269.549 162.57C268.872 162.825 268.164 162.991 267.443 163.063C263.683 163.466 259.882 163.276 256.182 162.499Z" fill="#404040"/>
</g>
<circle opacity="0.2" cx="160" cy="250" r="100" fill="#4B0731"/>
<circle cx="160" cy="250" r="90" fill="#936A83"/>
<g clip-path="url(#clip1)">
<path d="M145.797 235.466C145.797 235.466 77.8455 235.466 71.1584 235.466C70.2865 240.106 70.1393 243.175 70.0439 246.983C75.4185 246.983 145.797 246.983 145.797 246.983C147.33 246.983 148.801 246.376 149.885 245.296C150.97 244.217 151.579 242.752 151.579 241.225C151.579 239.697 150.97 238.233 149.885 237.153C148.801 236.073 147.33 235.466 145.797 235.466Z" fill="#FFAC42"/>
<path d="M218 227.494L219.049 228.128H220.436L220.279 225.906V225.643V225.528L220.114 223.118V222.945V222.673V222.451L219.957 220.288V219.868V219.407L219.321 210.095C219.321 209.986 219.278 209.881 219.2 209.804C219.123 209.727 219.018 209.684 218.908 209.684C218.799 209.684 218.694 209.727 218.616 209.804C218.539 209.881 218.495 209.986 218.495 210.095L217.942 218.239V218.651L217.768 221.225V221.48V221.719L217.322 228.251H218.148L218 227.494ZM219.28 223.052L218.264 223.669L218.388 221.826L219.214 222.344L219.28 223.052ZM219.445 225.421V225.882L218.049 226.729L218.198 224.648L219.445 225.405V225.421ZM219.619 228.004L218.19 227.181L219.503 226.359L219.619 228.004ZM219.412 224.927L218.223 224.203L219.296 223.545L219.412 224.927ZM219.197 221.851L218.421 221.374V221.077L219.098 220.674L219.197 221.851ZM218.793 215.928L218.983 218.774L218.611 218.544L218.793 215.928ZM219.024 219.259L219.09 220.222L218.47 220.592L218.578 218.996L219.024 219.259Z" fill="#FFAC42"/>
<path d="M247.894 212.415C247.807 212.333 247.691 212.288 247.572 212.288C247.452 212.288 247.337 212.333 247.25 212.415L233.744 226.976H233.141L231.968 218.749L231.902 218.502L231.34 214.488L231.274 214.068L230.762 210.432H231.109C231.233 210.43 231.352 210.38 231.44 210.292C231.527 210.205 231.578 210.087 231.58 209.963V209.141C231.578 209.017 231.527 208.899 231.44 208.811C231.352 208.724 231.233 208.674 231.109 208.672H230.134L229.523 206.261H229.746C229.807 206.259 229.864 206.234 229.907 206.191C229.95 206.149 229.975 206.091 229.977 206.031V205.62C229.977 205.558 229.953 205.5 229.91 205.457C229.866 205.413 229.807 205.389 229.746 205.389H229.308L228.854 203.571C228.827 203.473 228.763 203.388 228.675 203.335C228.588 203.281 228.484 203.263 228.383 203.283C228.282 203.263 228.176 203.281 228.087 203.334C227.998 203.387 227.933 203.472 227.904 203.571L227.474 205.34H227.037C226.975 205.34 226.916 205.364 226.873 205.407C226.83 205.451 226.805 205.509 226.805 205.57V205.982C226.807 206.042 226.832 206.099 226.875 206.142C226.918 206.185 226.976 206.21 227.037 206.212H227.251L226.648 208.63H225.674C225.549 208.633 225.431 208.683 225.343 208.77C225.255 208.858 225.205 208.976 225.203 209.099V209.922C225.205 210.046 225.255 210.164 225.343 210.251C225.431 210.339 225.549 210.389 225.674 210.391H226.021L223.898 225.372H221.99C221.771 225.372 221.56 225.458 221.406 225.612C221.251 225.767 221.164 225.976 221.164 226.194V228.127H238.304V227.782C238.307 227.587 238.241 227.398 238.117 227.247C237.992 227.096 237.819 226.994 237.626 226.959L247.976 213.015C248.038 212.922 248.064 212.81 248.048 212.7C248.033 212.589 247.978 212.488 247.894 212.415ZM225.591 221.678L227.945 220.625V223.093L225.533 222.023L225.591 221.645V221.678ZM226.021 218.618L227.945 217.795V219.671L226.004 218.799L226.021 218.618ZM226.285 216.742L226.558 216.618L227.838 217.194L226.111 217.959L226.285 216.742ZM231.324 222.056L228.903 223.134V220.666L231.274 221.719L231.324 222.056ZM228.879 217.68L230.795 218.502V218.7L228.846 219.564L228.879 217.68ZM230.531 216.725L230.696 217.877L229.193 217.211L230.407 216.668L230.531 216.725ZM228.879 216.725V215.977L229.705 216.347L228.879 216.725ZM227.92 216.627L227.227 216.322L227.92 216.01V216.627ZM225.442 222.64L227.731 223.66L225.137 224.812L225.442 222.64ZM231.398 222.64L231.704 224.812L229.11 223.66L231.398 222.64ZM231.175 221.085L229.036 220.148L230.911 219.325L231.175 221.085ZM230.44 216.034L229.16 215.467L230.316 214.948L230.44 216.034ZM228.879 214.973V214.554H229.82L228.879 214.973ZM227.92 214.973L227.094 214.587H227.92V214.973ZM227.747 215.516L226.533 216.034L226.376 215.969L226.525 214.948L227.747 215.516ZM227.648 220.148L225.657 221.036L225.897 219.391L227.648 220.148ZM227.309 225.388H225.236L227.92 224.195V225.388H227.309ZM228.879 224.187L231.572 225.388H228.879V224.187ZM230.151 213.994H228.879V210.391H229.647L230.151 213.994ZM228.408 204.994L228.499 205.373H228.309L228.408 204.994ZM228.086 206.245H228.722L229.325 208.655H227.483L228.086 206.245ZM227.92 210.407V213.978H226.657L227.161 210.391L227.92 210.407ZM228.879 226.992V225.906H231.852L231.993 226.943L228.879 226.992ZM236.462 226.992H235.016L242.178 219.325L236.462 226.992Z" fill="#FFAC42"/>
<path d="M220.536 232.471H215.844V234.38H220.536V232.471Z" fill="#FFAC42"/>
<path d="M220.536 235.646H215.844V237.341H220.536V235.646Z" fill="#FFAC42"/>
<path d="M241.979 232.471H237.288V234.38H241.979V232.471Z" fill="#FFAC42"/>
<path d="M241.979 235.646H237.288V237.341H241.979V235.646Z" fill="#FFAC42"/>
<path d="M214.431 232.002H243.466C243.624 232.002 243.775 231.94 243.887 231.829C243.998 231.717 244.061 231.567 244.061 231.41V229.197C244.061 229.04 243.998 228.889 243.887 228.778C243.775 228.667 243.624 228.604 243.466 228.604H214.431C214.274 228.604 214.122 228.667 214.011 228.778C213.899 228.889 213.837 229.04 213.837 229.197V231.418C213.839 231.574 213.902 231.722 214.014 231.831C214.125 231.941 214.275 232.002 214.431 232.002Z" fill="#FFAC42"/>
<path d="M241.971 239.217C241.971 239.217 241.971 239.217 241.971 239.168V238.608H239.625L239.154 238.493C238.832 238.411 238.502 238.345 238.171 238.279C237.841 238.213 237.585 238.172 237.279 238.131V237.522L230.993 232.488H227.243L220.536 237.868V238.345L220.09 238.246C219.454 238.115 218.908 238.008 218.504 237.958C217.619 237.864 216.725 237.88 215.844 238.008C214.019 238.275 212.248 238.83 210.599 239.653C211.981 239.352 213.399 239.247 214.811 239.341C215.134 239.275 215.48 239.225 215.86 239.184C217.184 239.05 218.521 239.167 219.801 239.53L220.222 239.645C222.312 240.221 224.494 240.392 226.648 240.147C226.744 240.13 226.838 240.106 226.929 240.073H227.004H226.929C226.86 240.108 226.788 240.139 226.714 240.163C224.482 240.858 222.117 241.021 219.809 240.64C219.09 240.525 218.405 240.435 217.752 240.361C226.781 242.368 231.695 242.072 234.339 241.348C236.029 241.445 237.725 241.415 239.411 241.257C238.624 241.229 237.842 241.133 237.073 240.969L235.933 240.739C234.818 240.542 233.794 240.394 232.885 240.303C231.852 240.196 230.977 240.147 230.316 240.13C229.863 240.083 229.406 240.108 228.961 240.204C228.961 240.204 229.044 240.089 229.176 239.99C230.347 239.274 231.67 238.839 233.039 238.72C234.409 238.601 235.787 238.803 237.065 239.308L237.37 239.415C237.692 239.53 238.006 239.637 238.312 239.727C240.241 240.33 242.273 240.537 244.284 240.336C244.92 240.157 245.542 239.928 246.143 239.653C244.737 239.788 243.318 239.64 241.971 239.217ZM223.113 238.896L221.56 238.551L229.118 232.488L235.958 237.975C231.654 237.709 227.334 238.019 223.113 238.896Z" fill="#FFAC42"/>
<path d="M164.374 215.327L165.778 215.673L173.882 215.738H175.228V214.628C175.244 214.507 175.303 214.396 175.395 214.315C175.487 214.235 175.605 214.19 175.728 214.19C175.85 214.19 175.969 214.235 176.061 214.315C176.153 214.396 176.212 214.507 176.228 214.628V215.755H177.161V214.628C177.161 214.563 177.174 214.499 177.199 214.439C177.224 214.379 177.26 214.325 177.306 214.279C177.352 214.233 177.407 214.197 177.467 214.172C177.527 214.147 177.591 214.134 177.657 214.134C177.722 214.134 177.786 214.147 177.846 214.172C177.906 214.197 177.961 214.233 178.007 214.279C178.053 214.325 178.09 214.379 178.114 214.439C178.139 214.499 178.152 214.563 178.152 214.628V215.771H179.094V214.62C179.094 214.489 179.146 214.363 179.239 214.271C179.332 214.178 179.458 214.126 179.589 214.126C179.721 214.126 179.847 214.178 179.94 214.271C180.033 214.363 180.085 214.489 180.085 214.62V215.788H181.019V214.628C181.034 214.507 181.094 214.396 181.185 214.315C181.277 214.235 181.396 214.19 181.518 214.19C181.641 214.19 181.759 214.235 181.851 214.315C181.943 214.396 182.002 214.507 182.018 214.628V215.335L182.712 214.85C182.882 214.733 183.083 214.67 183.29 214.669L192.376 214.727V213.69C192.61 213.642 192.82 213.516 192.971 213.331C193.122 213.147 193.203 212.916 193.202 212.678V212.291C193.203 212.032 193.106 211.783 192.93 211.592C192.754 211.401 192.512 211.284 192.253 211.263H182.794V210.819C182.794 210.548 182.687 210.287 182.495 210.095C182.303 209.902 182.043 209.793 181.77 209.791H174.08C173.817 209.788 173.564 209.887 173.373 210.066C173.182 210.246 173.068 210.492 173.056 210.753H180.688C180.778 210.753 180.864 210.789 180.928 210.852C180.991 210.915 181.027 211.001 181.027 211.09C181.028 211.152 181.011 211.212 180.977 211.263C180.948 211.314 180.906 211.355 180.855 211.384C180.804 211.413 180.747 211.428 180.688 211.428H173.047V212.036C173.047 212.086 173.047 212.127 173.047 212.168C173.043 212.204 173.043 212.239 173.047 212.275V212.662C173.047 212.898 173.129 213.128 173.279 213.311C173.43 213.494 173.64 213.619 173.873 213.665V215.311L164.374 215.327Z" fill="#FFAC42"/>
<path d="M193.714 218.404C193.886 217.687 193.956 216.951 193.921 216.215C193.921 216.051 193.921 215.886 193.921 215.722C193.922 215.653 193.909 215.585 193.884 215.522C193.858 215.458 193.82 215.4 193.772 215.352C193.724 215.304 193.668 215.267 193.605 215.241C193.543 215.216 193.476 215.203 193.409 215.203H192.401L183.273 215.146C183.166 215.146 183.062 215.18 182.976 215.245L182.01 215.919L181.489 216.273H173.873L165.712 216.207L162.408 215.384L157.146 214.101H157.022L149.134 214.15C149.028 214.152 148.925 214.185 148.838 214.246C148.752 214.308 148.687 214.394 148.651 214.493C148.615 214.592 148.61 214.7 148.637 214.802C148.665 214.904 148.723 214.995 148.803 215.064L154.379 219.744C154.346 219.868 154.329 219.995 154.329 220.123C154.334 220.307 154.365 220.49 154.42 220.666C155.696 220.316 157.026 220.199 158.344 220.32C159.17 220.427 160.723 220.789 162.54 221.184C165.795 220.542 172.213 219.596 177.136 220.814C179.837 221.48 180.597 221.76 181.431 221.859H193.202C193.62 221.863 194.025 221.717 194.344 221.448C194.662 221.179 194.872 220.804 194.935 220.393C194.999 219.982 194.911 219.562 194.688 219.21C194.465 218.858 194.123 218.598 193.723 218.478L193.714 218.404ZM152.347 215.738H151.166C151.056 215.738 150.951 215.695 150.874 215.618C150.796 215.541 150.753 215.436 150.753 215.327C150.753 215.218 150.796 215.113 150.874 215.036C150.951 214.959 151.056 214.916 151.166 214.916H152.347C152.456 214.916 152.562 214.959 152.639 215.036C152.716 215.113 152.76 215.218 152.76 215.327C152.76 215.436 152.716 215.541 152.639 215.618C152.562 215.695 152.456 215.738 152.347 215.738ZM155.304 215.738H154.131C154.022 215.738 153.917 215.695 153.839 215.618C153.762 215.541 153.718 215.436 153.718 215.327C153.718 215.218 153.762 215.113 153.839 215.036C153.917 214.959 154.022 214.916 154.131 214.916H155.304C155.414 214.916 155.519 214.959 155.596 215.036C155.674 215.113 155.717 215.218 155.717 215.327C155.717 215.436 155.674 215.541 155.596 215.618C155.519 215.695 155.414 215.738 155.304 215.738ZM188.007 220.822C187.414 220.814 186.844 220.594 186.4 220.204C185.956 219.813 185.667 219.276 185.586 218.691C185.586 218.585 185.586 218.486 185.586 218.387C185.528 218.034 185.547 217.672 185.643 217.327C185.739 216.982 185.909 216.662 186.142 216.389C186.375 216.116 186.664 215.896 186.99 215.746C187.317 215.595 187.672 215.517 188.031 215.517C188.391 215.517 188.746 215.595 189.072 215.746C189.399 215.896 189.688 216.116 189.921 216.389C190.154 216.662 190.324 216.982 190.42 217.327C190.516 217.672 190.535 218.034 190.476 218.387C190.484 218.488 190.484 218.59 190.476 218.691C190.405 219.289 190.112 219.838 189.655 220.232C189.198 220.626 188.611 220.837 188.007 220.822Z" fill="#FFAC42"/>
<path d="M188.007 216.66C187.632 217.298 187.341 217.98 187.139 218.692C187.135 218.752 187.135 218.812 187.139 218.873C187.139 219.555 187.536 220.107 188.023 220.107C188.511 220.107 188.899 219.555 188.899 218.873C188.903 218.812 188.903 218.752 188.899 218.692C188.692 217.978 188.393 217.295 188.007 216.66ZM188.304 219.309C188.139 219.309 188.007 219.119 188.007 218.889C187.997 218.824 187.997 218.757 188.007 218.692C188.076 218.504 188.162 218.322 188.263 218.149C188.359 218.323 188.442 218.505 188.511 218.692C188.54 218.754 188.557 218.821 188.56 218.889C188.601 219.119 188.469 219.325 188.304 219.325V219.309Z" fill="#FFAC42"/>
<path d="M165.745 222.278C164.563 222.435 163.366 222.435 162.185 222.278C161.73 222.229 161.251 222.147 160.756 222.048C160.434 221.982 160.111 221.9 159.773 221.81L159.517 221.744C158.09 221.34 156.589 221.27 155.131 221.538H154.974H154.825L154.536 221.604C153.972 221.697 153.436 221.913 152.966 222.237C154.533 222.14 156.105 222.203 157.658 222.427C158.245 222.501 158.872 222.583 159.525 222.682C161.625 223.048 163.782 222.912 165.819 222.287H165.91L166.009 222.246C165.959 222.266 165.906 222.28 165.852 222.287L165.745 222.278Z" fill="#FFAC42"/>
<path d="M177.83 222.254C177.5 222.188 177.153 222.114 176.806 222.023C176.459 221.933 176.269 221.875 175.98 221.785L175.212 221.513C174.151 221.103 173.016 220.915 171.879 220.962C170.742 221.008 169.627 221.289 168.603 221.785C168.446 221.867 168.298 221.949 168.182 222.023L168.017 222.138L167.868 222.254C167.868 222.254 167.819 222.311 167.819 222.328C168.223 222.243 168.638 222.22 169.049 222.262C169.652 222.262 170.454 222.319 171.387 222.418C172.32 222.517 173.155 222.632 174.163 222.821C174.501 222.879 174.848 222.945 175.203 223.027C175.902 223.176 176.612 223.262 177.326 223.282C179.107 223.384 180.885 223.039 182.497 222.278C182.261 222.368 182.014 222.426 181.762 222.451C180.449 222.592 179.122 222.525 177.83 222.254Z" fill="#FFAC42"/>
<path d="M153.429 292.237C153.429 292.237 194.532 277.429 223.377 287.392C241.591 293.677 238.758 294.055 250.008 293.776C250.008 293.776 222.411 312.943 175.393 296.293C175.385 296.293 165.299 294.327 153.429 292.237Z" fill="#C5D3E1"/>
<path d="M114.432 293.776C114.432 293.776 129.846 282.036 144.59 284.513C156.419 286.503 198.026 304.684 216.125 293.776C216.125 293.776 207.385 317.945 141.716 297.527C141.716 297.527 135.711 287.91 114.432 293.776Z" fill="#ACBAC8"/>
<path d="M177.012 295.75C177.012 296.227 164.969 302.463 149.571 299.04C134.174 295.618 122.056 295.922 122.089 296.408C122.089 295.478 134.546 287.161 149.538 293.117C164.531 299.073 176.987 296.655 177.012 295.75Z" fill="#5C6A78"/>
<path d="M246.324 295.98C246.324 296.704 232.769 306 215.431 300.776C198.093 295.552 184.438 295.997 184.48 296.712C184.48 295.322 198.522 282.908 215.373 291.933C232.224 300.957 246.291 297.379 246.324 295.98Z" fill="#6C7A88"/>
<path d="M94.4341 260.121C94.4341 260.121 120.264 252.281 138.387 257.554C149.836 260.845 148.06 261.083 155.122 260.935C155.122 260.935 137.776 271.079 108.229 262.268C108.229 262.268 101.893 261.223 94.4341 260.121Z" fill="#FFAC42"/>
<path d="M242.979 273.045C242.979 273.341 235.404 277.257 225.731 275.093C216.059 272.93 208.434 273.135 208.459 273.448C208.459 272.864 216.29 267.64 225.707 271.399C235.123 275.159 242.954 273.621 242.979 273.045Z" fill="#FFAC42"/>
<path d="M187.445 255.464C187.445 255.917 178.929 261.758 168.033 258.475C157.138 255.193 148.556 255.473 148.58 255.925C148.58 255.045 157.386 247.246 168 252.914C178.615 258.582 187.429 256.345 187.445 255.464Z" fill="#FFAC42"/>
<path d="M82.2832 232.899C82.2832 232.958 82.2597 233.014 82.2179 233.056C82.1761 233.098 82.1193 233.121 82.0602 233.121C82.001 233.121 81.9443 233.098 81.9025 233.056C81.8607 233.014 81.8372 232.958 81.8372 232.899V212.267C81.8393 212.209 81.8637 212.155 81.9053 212.115C81.9469 212.075 82.0024 212.053 82.0602 212.053C82.1179 212.053 82.1734 212.075 82.215 212.115C82.2566 212.155 82.2811 212.209 82.2832 212.267V232.899Z" fill="#1D2A38"/>
<path d="M83.5718 232.899C83.5718 232.958 83.5483 233.014 83.5065 233.056C83.4646 233.098 83.4079 233.121 83.3488 233.121C83.2896 233.121 83.2329 233.098 83.1911 233.056C83.1492 233.014 83.1257 232.958 83.1257 232.899V212.267C83.1279 212.209 83.1523 212.155 83.1939 212.115C83.2355 212.075 83.291 212.053 83.3488 212.053C83.4065 212.053 83.462 212.075 83.5036 212.115C83.5452 212.155 83.5696 212.209 83.5718 212.267V232.899Z" fill="#1D2A38"/>
<path d="M83.8999 211.83L80.4544 213.008C80.2818 213.067 80.1899 213.254 80.2491 213.426L80.6137 214.484C80.673 214.656 80.8609 214.748 81.0335 214.689L84.4791 213.511C84.6517 213.452 84.7436 213.265 84.6843 213.093L84.3197 212.035C84.2605 211.863 84.0725 211.771 83.8999 211.83Z" fill="#2C3A48"/>
<path d="M117.745 232.776C117.745 232.805 117.739 232.834 117.728 232.861C117.716 232.888 117.7 232.912 117.679 232.933C117.659 232.953 117.634 232.97 117.607 232.981C117.58 232.992 117.551 232.998 117.522 232.998C117.492 232.998 117.463 232.992 117.436 232.981C117.409 232.97 117.385 232.953 117.364 232.933C117.343 232.912 117.327 232.888 117.316 232.861C117.304 232.834 117.299 232.805 117.299 232.776V209.741C117.301 209.684 117.325 209.629 117.367 209.589C117.408 209.55 117.464 209.527 117.522 209.527C117.579 209.527 117.635 209.55 117.676 209.589C117.718 209.629 117.743 209.684 117.745 209.741V232.776Z" fill="#1D2A38"/>
<path d="M118.017 229.378H117.026C116.816 229.378 116.646 229.547 116.646 229.756V233.763C116.646 233.972 116.816 234.141 117.026 234.141H118.017C118.227 234.141 118.397 233.972 118.397 233.763V229.756C118.397 229.547 118.227 229.378 118.017 229.378Z" fill="#2C3A48"/>
<path d="M118.81 217.433C118.808 217.687 118.732 217.934 118.589 218.144C118.446 218.354 118.245 218.517 118.009 218.613C117.773 218.709 117.514 218.733 117.265 218.683C117.016 218.632 116.787 218.509 116.607 218.33C116.428 218.15 116.306 217.921 116.257 217.672C116.208 217.424 116.234 217.166 116.332 216.932C116.43 216.698 116.595 216.498 116.806 216.357C117.018 216.217 117.267 216.142 117.521 216.142C117.691 216.142 117.86 216.175 118.017 216.24C118.173 216.305 118.316 216.4 118.436 216.52C118.555 216.64 118.65 216.783 118.714 216.94C118.779 217.096 118.811 217.264 118.81 217.433Z" fill="#2C3A48"/>
<path d="M117.084 209.511C117.057 209.429 117.05 209.342 117.061 209.257C117.073 209.171 117.103 209.09 117.15 209.017C118.273 207.323 118.306 203.999 117.241 200.741C116.175 197.484 114.176 194.818 112.284 194.111C112.142 194.055 112.028 193.947 111.964 193.809C111.901 193.671 111.894 193.513 111.946 193.37C112.001 193.229 112.11 193.115 112.249 193.052C112.388 192.989 112.546 192.982 112.689 193.033C114.936 193.856 117.158 196.76 118.348 200.388C119.537 204.016 119.454 207.643 118.133 209.642C118.092 209.71 118.037 209.769 117.972 209.814C117.908 209.859 117.834 209.891 117.756 209.906C117.678 209.922 117.598 209.921 117.521 209.904C117.444 209.887 117.371 209.854 117.307 209.807C117.204 209.733 117.126 209.63 117.084 209.511Z" fill="#FFAC42"/>
<path d="M113.78 201.877L112.128 193.65C112.11 193.558 112.13 193.462 112.183 193.384C112.235 193.305 112.316 193.25 112.408 193.231C112.455 193.221 112.502 193.221 112.548 193.23C112.595 193.239 112.639 193.257 112.678 193.283C112.717 193.309 112.751 193.342 112.777 193.381C112.803 193.42 112.821 193.464 112.83 193.51L114.482 201.663L118.001 209.19C118.04 209.276 118.044 209.375 118.012 209.464C117.98 209.553 117.913 209.626 117.827 209.667C117.741 209.707 117.642 209.711 117.552 209.678C117.463 209.646 117.389 209.58 117.348 209.494L113.78 201.91C113.777 201.899 113.777 201.887 113.78 201.877Z" fill="#FFAC42"/>
<path d="M114.375 199.189L113.103 199.602C112.951 199.651 112.869 199.814 112.918 199.965L114.207 203.899C114.256 204.05 114.42 204.133 114.571 204.083L115.844 203.67C115.995 203.621 116.078 203.458 116.029 203.307L114.74 199.373C114.69 199.222 114.527 199.139 114.375 199.189Z" fill="#FFAC42"/>
<path d="M114.217 200.692C114.069 200.741 113.771 200.248 113.722 200.1L113.606 199.738C113.582 199.667 113.587 199.589 113.619 199.522C113.652 199.454 113.709 199.402 113.78 199.376L116.762 198.413C116.834 198.39 116.913 198.395 116.981 198.429C117.049 198.463 117.101 198.522 117.125 198.594L117.241 198.956C117.264 199.028 117.259 199.106 117.225 199.174C117.19 199.242 117.131 199.294 117.059 199.318L114.217 200.692Z" fill="#FFAC42"/>
<path d="M115.258 203.867C115.185 203.886 115.107 203.878 115.04 203.843C114.973 203.808 114.921 203.749 114.895 203.678L114.779 203.316C114.73 203.168 114.672 202.601 114.829 202.551L117.91 201.992C117.982 201.968 118.061 201.974 118.129 202.008C118.197 202.042 118.249 202.101 118.273 202.173L118.389 202.535C118.413 202.607 118.407 202.685 118.373 202.753C118.339 202.821 118.279 202.872 118.207 202.897L115.258 203.867Z" fill="#FFAC42"/>
<path d="M114.606 202.345C114.634 202.441 114.625 202.545 114.579 202.634C114.532 202.723 114.453 202.79 114.358 202.822L79.5738 214.134C79.5262 214.152 79.4753 214.16 79.4245 214.158C79.3736 214.155 79.3238 214.142 79.2781 214.12C79.2324 214.098 79.1918 214.066 79.1588 214.028C79.1259 213.989 79.1012 213.944 79.0864 213.895L78.6321 212.522C78.6167 212.474 78.6109 212.424 78.6151 212.374C78.6192 212.324 78.6332 212.276 78.6562 212.232C78.6793 212.187 78.7109 212.148 78.7493 212.116C78.7877 212.084 78.8321 212.059 78.8799 212.044L113.697 200.733C113.792 200.702 113.896 200.709 113.986 200.754C114.076 200.799 114.144 200.877 114.176 200.971L114.606 202.345Z" fill="#4D5A68"/>
<path d="M102.364 207.956C102.364 208.347 102.247 208.729 102.029 209.054C101.811 209.378 101.501 209.632 101.138 209.781C100.775 209.93 100.376 209.969 99.9916 209.892C99.6068 209.815 99.2536 209.626 98.9767 209.349C98.6997 209.072 98.5116 208.719 98.436 208.336C98.3605 207.952 98.4009 207.555 98.5522 207.195C98.7035 206.834 98.9589 206.526 99.286 206.31C99.6131 206.094 99.9972 205.98 100.39 205.981C100.65 205.981 100.907 206.033 101.147 206.132C101.387 206.231 101.605 206.377 101.789 206.56C101.972 206.744 102.117 206.961 102.216 207.201C102.315 207.44 102.365 207.697 102.364 207.956Z" fill="#2C3A48"/>
<path d="M104.776 229.863H95.7805C95.7354 229.865 95.6904 229.857 95.6484 229.84C95.6063 229.824 95.568 229.799 95.5357 229.768C95.5034 229.736 95.4777 229.699 95.4601 229.657C95.4426 229.616 95.4336 229.571 95.4336 229.526C95.4336 229.435 95.4701 229.347 95.5352 229.282C95.6003 229.217 95.6885 229.181 95.7805 229.181H104.776C104.821 229.181 104.866 229.19 104.908 229.207C104.949 229.225 104.987 229.25 105.018 229.282C105.05 229.315 105.075 229.353 105.091 229.395C105.108 229.436 105.116 229.481 105.115 229.526C105.115 229.616 105.079 229.701 105.015 229.765C104.952 229.828 104.866 229.863 104.776 229.863Z" fill="#ACBAC8"/>
<path d="M103.041 216.034H97.5234C97.4783 216.035 97.4333 216.028 97.3913 216.011C97.3493 215.995 97.3109 215.97 97.2786 215.939C97.2463 215.907 97.2206 215.87 97.2031 215.828C97.1855 215.787 97.1765 215.742 97.1765 215.697C97.1765 215.605 97.2131 215.518 97.2781 215.453C97.3432 215.388 97.4314 215.352 97.5234 215.352H103.041C103.086 215.352 103.131 215.361 103.173 215.378C103.214 215.395 103.252 215.421 103.284 215.453C103.315 215.485 103.34 215.524 103.357 215.565C103.373 215.607 103.381 215.652 103.38 215.697C103.38 215.787 103.344 215.872 103.281 215.936C103.217 215.999 103.131 216.034 103.041 216.034Z" fill="#ACBAC8"/>
<path d="M95.9457 229.362C95.8659 229.365 95.7875 229.34 95.7244 229.291C95.6612 229.243 95.6174 229.173 95.6006 229.096C95.5838 229.018 95.5951 228.937 95.6326 228.867C95.67 228.796 95.7312 228.742 95.8052 228.712L104.462 224.854C104.545 224.817 104.64 224.815 104.725 224.847C104.81 224.88 104.878 224.944 104.916 225.026C104.936 225.067 104.946 225.112 104.948 225.157C104.949 225.202 104.942 225.247 104.926 225.289C104.91 225.331 104.885 225.37 104.854 225.402C104.822 225.435 104.785 225.461 104.743 225.479L96.0861 229.337C96.0412 229.354 95.9936 229.362 95.9457 229.362Z" fill="#ACBAC8"/>
<path d="M104.611 221.127C104.575 221.21 104.511 221.277 104.429 221.316L103.322 221.81L96.8295 224.697L96.4083 224.886H96.2678C96.201 224.887 96.1355 224.868 96.0796 224.831C96.0238 224.794 95.98 224.742 95.9539 224.681C95.9349 224.64 95.9243 224.597 95.9228 224.552C95.9213 224.508 95.9289 224.463 95.9451 224.422C95.9613 224.38 95.9858 224.342 96.0172 224.31C96.0485 224.279 96.086 224.253 96.1274 224.237L96.9534 223.875L103.231 221.078L104.165 220.666C104.235 220.633 104.315 220.625 104.391 220.644C104.466 220.664 104.533 220.71 104.578 220.773L104.611 221.127Z" fill="#ACBAC8"/>
<path d="M96.8461 221.176C96.7663 221.179 96.6879 221.154 96.6248 221.106C96.5616 221.057 96.5178 220.988 96.501 220.91C96.4842 220.832 96.4955 220.751 96.533 220.681C96.5704 220.611 96.6316 220.556 96.7056 220.526L103.57 217.458C103.653 217.421 103.748 217.419 103.833 217.451C103.918 217.484 103.986 217.548 104.024 217.63C104.043 217.671 104.054 217.716 104.056 217.761C104.057 217.806 104.05 217.851 104.034 217.893C104.017 217.935 103.993 217.974 103.962 218.006C103.93 218.039 103.892 218.065 103.851 218.083L96.9782 221.151C96.936 221.167 96.8912 221.176 96.8461 221.176Z" fill="#ACBAC8"/>
<path d="M103.867 215.911C103.834 215.948 103.795 215.978 103.752 216.002L102.57 216.528L97.6804 218.7L97.0856 218.963C97.0396 218.976 96.9912 218.976 96.9452 218.963C96.8783 218.964 96.8128 218.944 96.757 218.908C96.7011 218.871 96.6574 218.819 96.6313 218.758C96.5949 218.675 96.5927 218.581 96.6251 218.496C96.6576 218.411 96.7221 218.343 96.8048 218.305L97.7877 217.869L102.471 215.788L103.471 215.344C103.521 215.316 103.578 215.301 103.636 215.301C103.694 215.301 103.751 215.316 103.801 215.344L103.867 215.911Z" fill="#ACBAC8"/>
<path d="M104.603 229.362H104.462L95.8054 225.479C95.7339 225.435 95.6809 225.366 95.6562 225.286C95.6315 225.206 95.6368 225.12 95.6711 225.044C95.7054 224.967 95.7664 224.906 95.8428 224.871C95.9191 224.836 96.0057 224.83 96.0862 224.854L104.743 228.712C104.785 228.73 104.822 228.756 104.854 228.788C104.885 228.821 104.91 228.859 104.926 228.901C104.942 228.944 104.95 228.989 104.948 229.034C104.946 229.079 104.936 229.123 104.916 229.164C104.888 229.223 104.844 229.273 104.788 229.308C104.733 229.343 104.668 229.362 104.603 229.362Z" fill="#ACBAC8"/>
<path d="M104.14 224.911C104.093 224.919 104.046 224.919 103.999 224.911L96.2761 221.472C96.2286 221.454 96.1856 221.426 96.1502 221.39C96.1148 221.353 96.0879 221.31 96.0714 221.262C96.0548 221.214 96.0491 221.163 96.0544 221.113C96.0598 221.062 96.0763 221.014 96.1026 220.97C96.1205 220.929 96.1466 220.891 96.1793 220.86C96.212 220.829 96.2507 220.804 96.293 220.788C96.3354 220.772 96.3806 220.765 96.4259 220.766C96.4713 220.768 96.5158 220.779 96.5569 220.798L104.28 224.261C104.354 224.291 104.416 224.346 104.453 224.416C104.49 224.486 104.502 224.567 104.485 224.645C104.468 224.723 104.424 224.792 104.361 224.841C104.298 224.889 104.22 224.914 104.14 224.911Z" fill="#ACBAC8"/>
<path d="M103.611 221.02C103.565 221.029 103.517 221.029 103.471 221.02L96.8048 218.05C96.7227 218.014 96.6583 217.947 96.6258 217.864C96.5933 217.781 96.5953 217.688 96.6314 217.606C96.6677 217.522 96.7359 217.456 96.821 217.422C96.9062 217.388 97.0013 217.389 97.0857 217.425L103.752 220.395C103.834 220.433 103.899 220.501 103.931 220.586C103.964 220.67 103.962 220.764 103.925 220.847C103.893 220.901 103.847 220.946 103.792 220.976C103.737 221.006 103.674 221.022 103.611 221.02Z" fill="#ACBAC8"/>
<path d="M103.38 218.856C103.333 218.864 103.286 218.864 103.239 218.856L97.036 216.035C96.9948 216.017 96.9575 215.991 96.9262 215.959C96.895 215.927 96.8704 215.889 96.854 215.847C96.8375 215.806 96.8294 215.761 96.8301 215.716C96.8309 215.672 96.8405 215.627 96.8584 215.586C96.8763 215.545 96.9021 215.508 96.9344 215.477C96.9668 215.446 97.0049 215.422 97.0467 215.405C97.0885 215.389 97.1331 215.381 97.1781 215.381C97.223 215.382 97.2674 215.392 97.3086 215.41L103.52 218.174C103.603 218.211 103.668 218.28 103.7 218.365C103.732 218.449 103.73 218.543 103.694 218.626C103.672 218.692 103.63 218.75 103.573 218.791C103.517 218.832 103.45 218.855 103.38 218.856Z" fill="#ACBAC8"/>
<path d="M94.8884 234.133H94.781C94.6917 234.121 94.6056 234.091 94.528 234.046C94.4503 234 94.3825 233.94 94.3287 233.868C94.2748 233.796 94.2359 233.714 94.2143 233.626C94.1927 233.539 94.1888 233.449 94.2028 233.36L97.5647 209.643C97.5914 209.463 97.6877 209.302 97.8329 209.192C97.9782 209.083 98.1607 209.035 98.3412 209.059C98.522 209.087 98.6844 209.185 98.7939 209.331C98.9035 209.477 98.9515 209.659 98.9277 209.84L95.6071 233.557C95.5807 233.725 95.4924 233.877 95.3595 233.984C95.2266 234.09 95.0587 234.143 94.8884 234.133Z" fill="#8C9AA8"/>
<path d="M105.759 234.133H105.668C105.501 234.133 105.34 234.073 105.214 233.964C105.089 233.855 105.006 233.705 104.982 233.541L103.322 221.793L103.215 221.086L102.57 216.512L102.471 215.804L101.645 209.832C101.62 209.652 101.668 209.469 101.778 209.324C101.888 209.179 102.051 209.083 102.232 209.058C102.412 209.033 102.596 209.081 102.741 209.19C102.887 209.3 102.983 209.462 103.008 209.642L103.834 215.401L103.9 215.911L104.594 220.798L104.644 221.127L106.345 233.368C106.369 233.547 106.32 233.727 106.211 233.871C106.101 234.014 105.938 234.108 105.759 234.133Z" fill="#8C9AA8"/>
<path d="M100.274 234.133C99.9518 234.133 99.6875 233.977 99.6875 233.788V210.095C99.6875 209.906 99.9518 209.75 100.274 209.75C100.596 209.75 100.852 209.906 100.852 210.095V233.804C100.852 233.993 100.563 234.133 100.274 234.133Z" fill="#8C9AA8"/>
<path d="M103.586 208.861H96.9616C96.6468 208.861 96.3916 209.115 96.3916 209.428V210.416C96.3916 210.729 96.6468 210.983 96.9616 210.983H103.586C103.901 210.983 104.156 210.729 104.156 210.416V209.428C104.156 209.115 103.901 208.861 103.586 208.861Z" fill="#EF893A"/>
<path d="M85.9756 226.351H78.5744C78.2596 226.351 78.0044 226.605 78.0044 226.918V231.451C78.0044 231.765 78.2596 232.019 78.5744 232.019H85.9756C86.2904 232.019 86.5455 231.765 86.5455 231.451V226.918C86.5455 226.605 86.2904 226.351 85.9756 226.351Z" fill="#2C3A48"/>
<path d="M117.827 231.764H77.1866C76.6437 231.764 76.2036 232.202 76.2036 232.743V234.947C76.2036 235.488 76.6437 235.926 77.1866 235.926H117.827C118.37 235.926 118.81 235.488 118.81 234.947V232.743C118.81 232.202 118.37 231.764 117.827 231.764Z" fill="#1D2A38"/>
<path d="M113.686 200.235L112.761 200.543C112.567 200.608 112.461 200.818 112.527 201.012L113.25 203.165C113.315 203.359 113.526 203.463 113.72 203.399L114.645 203.09C114.84 203.026 114.945 202.816 114.879 202.622L114.156 200.469C114.091 200.275 113.88 200.17 113.686 200.235Z" fill="#5C6A78"/>
<path d="M125.344 232.916C125.344 233.317 125.504 233.702 125.789 233.986C126.074 234.27 126.461 234.429 126.864 234.429C127.063 234.429 127.261 234.39 127.446 234.314C127.63 234.238 127.797 234.126 127.939 233.986C128.08 233.845 128.192 233.678 128.268 233.495C128.344 233.311 128.384 233.114 128.384 232.916V227.716C128.384 227.518 128.344 227.321 128.268 227.137C128.192 226.953 128.08 226.787 127.939 226.646C127.797 226.505 127.63 226.394 127.446 226.318C127.261 226.242 127.063 226.203 126.864 226.203C126.461 226.203 126.074 226.362 125.789 226.646C125.504 226.93 125.344 227.315 125.344 227.716V232.916Z" fill="#3C4A58"/>
<path d="M143.252 236.601C143.252 236.748 143.31 236.889 143.414 236.993C143.518 237.098 143.658 237.158 143.806 237.16C143.95 237.154 144.087 237.092 144.187 236.988C144.287 236.884 144.343 236.745 144.343 236.601V234.955C144.344 234.882 144.33 234.808 144.302 234.74C144.274 234.672 144.233 234.61 144.181 234.557C144.128 234.505 144.066 234.464 143.997 234.436C143.929 234.409 143.855 234.395 143.781 234.396C143.708 234.396 143.635 234.411 143.567 234.439C143.5 234.467 143.438 234.508 143.387 234.56C143.335 234.612 143.295 234.674 143.267 234.742C143.24 234.81 143.227 234.882 143.228 234.955L143.252 236.601Z" fill="#D6741D"/>
<path d="M133.439 233.368H102.942C102.518 233.368 102.174 233.71 102.174 234.133V237.177C102.174 237.599 102.518 237.942 102.942 237.942H133.439C133.863 237.942 134.207 237.599 134.207 237.177V234.133C134.207 233.71 133.863 233.368 133.439 233.368Z" fill="#2C3A48"/>
<path d="M133.439 233.368H102.942C102.518 233.368 102.174 233.71 102.174 234.133V237.177C102.174 237.599 102.518 237.942 102.942 237.942H133.439C133.863 237.942 134.207 237.599 134.207 237.177V234.133C134.207 233.71 133.863 233.368 133.439 233.368Z" fill="#8C9AA8"/>
<path d="M127.335 234.248V223.389C127.318 223.248 127.33 223.105 127.372 222.969C127.413 222.832 127.483 222.706 127.576 222.599C127.67 222.491 127.785 222.404 127.914 222.343C128.043 222.282 128.183 222.249 128.326 222.246H134.72C134.951 222.246 143.517 230.908 143.517 230.908C143.598 230.979 143.663 231.066 143.707 231.164C143.751 231.262 143.773 231.368 143.773 231.476V237.177C143.773 237.277 143.753 237.377 143.714 237.47C143.676 237.562 143.619 237.647 143.548 237.718C143.476 237.789 143.392 237.845 143.299 237.884C143.205 237.922 143.105 237.942 143.005 237.942H136.727C136.522 237.942 136.326 237.862 136.181 237.718C136.035 237.575 135.952 237.38 135.95 237.177V236.7H128.037C127.832 236.7 127.636 236.619 127.491 236.476C127.345 236.333 127.263 236.138 127.26 235.935V234.569C127.263 234.458 127.289 234.349 127.335 234.248Z" fill="#ACBAC8"/>
<path d="M128.409 224.615V227.79C128.409 228.009 128.496 228.218 128.651 228.372C128.805 228.526 129.016 228.613 129.235 228.613H138.205H138.602C139.354 228.539 139.428 228.243 139.064 227.79L135.099 223.759H129.268C129.154 223.755 129.04 223.774 128.934 223.815C128.827 223.856 128.731 223.919 128.65 224C128.569 224.08 128.506 224.176 128.465 224.282C128.423 224.388 128.404 224.501 128.409 224.615Z" fill="#5C6A78"/>
<path d="M142.79 230.917H140.733C140.309 230.917 139.965 231.259 139.965 231.682V232.718C139.965 233.141 140.309 233.483 140.733 233.483H142.79C143.214 233.483 143.558 233.141 143.558 232.718V231.682C143.558 231.259 143.214 230.917 142.79 230.917Z" fill="#D9E5F2"/>
<path d="M131.077 229.839H129.375C129.225 229.839 129.103 229.96 129.103 230.11V230.431C129.103 230.581 129.225 230.703 129.375 230.703H131.077C131.227 230.703 131.349 230.581 131.349 230.431V230.11C131.349 229.96 131.227 229.839 131.077 229.839Z" fill="#6C7A88"/>
<path d="M133.53 236.724C133.53 236.746 133.534 236.767 133.543 236.787C133.551 236.807 133.563 236.825 133.578 236.84C133.594 236.856 133.612 236.868 133.632 236.876C133.652 236.884 133.674 236.889 133.695 236.889H134.191C134.235 236.889 134.277 236.871 134.308 236.84C134.339 236.81 134.356 236.768 134.356 236.724C134.356 236.68 134.339 236.639 134.308 236.608C134.277 236.577 134.235 236.56 134.191 236.56H133.695C133.674 236.56 133.652 236.564 133.632 236.572C133.612 236.58 133.594 236.592 133.578 236.608C133.563 236.623 133.551 236.641 133.543 236.661C133.534 236.681 133.53 236.702 133.53 236.724Z" fill="#4D4D4D"/>
<path d="M141.518 231.813C141.517 231.9 141.533 231.986 141.566 232.066C141.598 232.146 141.647 232.219 141.709 232.281C141.77 232.342 141.844 232.391 141.924 232.423C142.005 232.456 142.091 232.472 142.178 232.471H142.691C142.866 232.471 143.034 232.402 143.158 232.278C143.282 232.155 143.351 231.987 143.351 231.813C143.351 231.638 143.282 231.471 143.158 231.348C143.034 231.224 142.866 231.155 142.691 231.155H142.178C142.003 231.155 141.835 231.224 141.711 231.348C141.587 231.471 141.518 231.638 141.518 231.813Z" fill="white"/>
<path d="M130.87 237.942C130.87 238.555 131.053 239.155 131.395 239.665C131.737 240.175 132.223 240.572 132.793 240.807C133.362 241.042 133.988 241.103 134.592 240.984C135.196 240.864 135.751 240.569 136.186 240.135C136.622 239.701 136.918 239.148 137.039 238.547C137.159 237.945 137.097 237.322 136.861 236.755C136.626 236.188 136.226 235.704 135.714 235.363C135.202 235.022 134.6 234.84 133.984 234.84C133.158 234.84 132.366 235.167 131.782 235.749C131.198 236.33 130.87 237.119 130.87 237.942Z" fill="#3C4A58"/>
<path d="M130.416 238.427C130.534 238.427 130.648 238.38 130.731 238.297C130.815 238.214 130.862 238.101 130.862 237.983C130.862 237.158 131.191 236.367 131.776 235.784C132.362 235.201 133.156 234.873 133.984 234.873C134.812 234.873 135.607 235.201 136.192 235.784C136.778 236.367 137.107 237.158 137.107 237.983C137.098 238.046 137.103 238.11 137.121 238.171C137.139 238.231 137.171 238.288 137.212 238.335C137.254 238.383 137.306 238.421 137.364 238.448C137.422 238.474 137.485 238.488 137.549 238.488C137.612 238.488 137.675 238.474 137.733 238.448C137.791 238.421 137.843 238.383 137.885 238.335C137.927 238.288 137.958 238.231 137.976 238.171C137.994 238.11 137.999 238.046 137.99 237.983C137.99 236.925 137.568 235.91 136.817 235.162C136.066 234.414 135.047 233.993 133.984 233.993C132.922 233.993 131.903 234.414 131.151 235.162C130.4 235.91 129.978 236.925 129.978 237.983C129.978 238.099 130.024 238.211 130.106 238.294C130.188 238.377 130.299 238.425 130.416 238.427Z" fill="#7C8A98"/>
<path d="M132.043 237.876C132.043 238.258 132.157 238.632 132.37 238.95C132.584 239.268 132.887 239.516 133.242 239.662C133.596 239.809 133.987 239.847 134.363 239.772C134.74 239.698 135.086 239.513 135.357 239.243C135.628 238.973 135.813 238.628 135.888 238.253C135.963 237.878 135.925 237.49 135.778 237.136C135.631 236.783 135.382 236.481 135.063 236.269C134.744 236.056 134.368 235.943 133.984 235.943C133.729 235.943 133.477 235.993 133.242 236.09C133.006 236.187 132.792 236.33 132.612 236.509C132.432 236.689 132.289 236.902 132.191 237.136C132.093 237.371 132.043 237.622 132.043 237.876Z" fill="#5C6A78"/>
<path d="M106.527 237.942C106.527 238.555 106.71 239.154 107.051 239.664C107.393 240.174 107.879 240.571 108.448 240.806C109.016 241.041 109.642 241.103 110.246 240.984C110.85 240.865 111.404 240.571 111.84 240.138C112.276 239.705 112.573 239.153 112.695 238.552C112.816 237.951 112.755 237.327 112.521 236.761C112.286 236.194 111.888 235.709 111.377 235.367C110.866 235.025 110.265 234.842 109.649 234.84C109.24 234.838 108.833 234.917 108.454 235.072C108.075 235.227 107.73 235.455 107.44 235.743C107.149 236.032 106.919 236.374 106.763 236.752C106.606 237.129 106.526 237.534 106.527 237.942Z" fill="#3C4A58"/>
<path d="M107.7 237.876C107.7 238.258 107.814 238.632 108.027 238.949C108.24 239.267 108.542 239.515 108.897 239.661C109.251 239.808 109.641 239.847 110.017 239.773C110.393 239.699 110.739 239.516 111.011 239.246C111.283 238.976 111.468 238.633 111.544 238.258C111.62 237.884 111.583 237.495 111.437 237.142C111.291 236.789 111.044 236.486 110.726 236.273C110.408 236.059 110.033 235.945 109.65 235.943C109.394 235.942 109.141 235.991 108.904 236.088C108.668 236.184 108.453 236.327 108.272 236.506C108.091 236.686 107.947 236.899 107.849 237.134C107.751 237.369 107.7 237.622 107.7 237.876Z" fill="#5C6A78"/>
<path d="M115.547 221.842C115.547 222.06 115.634 222.27 115.789 222.424C115.944 222.578 116.154 222.665 116.373 222.665H121.866C122.086 222.665 122.296 222.578 122.451 222.424C122.605 222.27 122.693 222.06 122.693 221.842C122.693 221.624 122.605 221.415 122.451 221.26C122.296 221.106 122.086 221.02 121.866 221.02H116.398C116.179 221.02 115.969 221.106 115.814 221.26C115.659 221.415 115.572 221.624 115.572 221.842H115.547Z" fill="#1D2A38"/>
<path d="M124.716 222.015H102.298C101.353 222.015 100.588 222.778 100.588 223.718V232.669C100.588 233.609 101.353 234.371 102.298 234.371H124.716C125.661 234.371 126.426 233.609 126.426 232.669V223.718C126.426 222.778 125.661 222.015 124.716 222.015Z" fill="#5C6A78"/>
<path d="M119.57 222.015H118.802V234.371H119.57V222.015Z" fill="#2C3A48"/>
<path d="M108.204 222.015H107.436V234.371H108.204V222.015Z" fill="#2C3A48"/>
<path d="M109.757 227.708C109.755 228.432 109.969 229.141 110.372 229.744C110.775 230.347 111.349 230.817 112.02 231.096C112.692 231.374 113.431 231.448 114.145 231.307C114.858 231.167 115.514 230.819 116.029 230.307C116.544 229.796 116.895 229.144 117.037 228.433C117.18 227.723 117.107 226.986 116.829 226.317C116.552 225.648 116.08 225.075 115.476 224.673C114.871 224.27 114.16 224.055 113.433 224.055C112.459 224.055 111.526 224.44 110.836 225.124C110.147 225.809 109.759 226.738 109.757 227.708Z" fill="#E9EFF7"/>
<path d="M112.128 228.44C112.128 229.468 112.722 230.299 113.449 230.299C114.176 230.299 114.771 229.477 114.771 228.44C114.771 227.403 113.449 225.149 113.449 225.149C113.449 225.149 112.128 227.412 112.128 228.44Z" fill="#2C3A48"/>
<path d="M112.541 228.473C112.541 228.819 112.739 229.099 112.987 229.099C113.234 229.099 113.433 228.819 113.433 228.473C113.337 228.076 113.175 227.698 112.954 227.354C112.755 227.702 112.616 228.08 112.541 228.473Z" fill="white"/>
<path d="M106.032 233.647C106.089 233.647 106.143 233.625 106.183 233.585C106.224 233.545 106.246 233.49 106.246 233.433V221.332C106.246 221.275 106.224 221.221 106.183 221.181C106.143 221.141 106.089 221.118 106.032 221.118C106.003 221.117 105.975 221.122 105.948 221.132C105.921 221.143 105.897 221.158 105.877 221.178C105.857 221.198 105.841 221.223 105.831 221.249C105.82 221.275 105.816 221.304 105.817 221.332V233.433C105.817 233.49 105.839 233.545 105.88 233.585C105.92 233.625 105.975 233.647 106.032 233.647Z" fill="#3C4A58"/>
<path d="M103.504 233.647C103.561 233.647 103.615 233.625 103.656 233.585C103.696 233.545 103.719 233.49 103.719 233.433V221.332C103.72 221.304 103.715 221.275 103.705 221.249C103.694 221.223 103.678 221.198 103.658 221.178C103.638 221.158 103.614 221.143 103.587 221.132C103.561 221.122 103.532 221.117 103.504 221.118C103.447 221.118 103.392 221.141 103.352 221.181C103.312 221.221 103.289 221.275 103.289 221.332V233.433C103.289 233.49 103.312 233.545 103.352 233.585C103.392 233.625 103.447 233.647 103.504 233.647Z" fill="#3C4A58"/>
<path d="M103.504 222.912H106.031C106.088 222.912 106.143 222.89 106.183 222.85C106.224 222.809 106.246 222.755 106.246 222.698C106.246 222.642 106.224 222.587 106.183 222.547C106.143 222.507 106.088 222.484 106.031 222.484H103.504C103.447 222.484 103.392 222.507 103.352 222.547C103.312 222.587 103.289 222.642 103.289 222.698C103.289 222.755 103.312 222.809 103.352 222.85C103.392 222.89 103.447 222.912 103.504 222.912Z" fill="#3C4A58"/>
<path d="M103.504 224.779H106.031C106.088 224.779 106.143 224.757 106.183 224.717C106.224 224.677 106.246 224.622 106.246 224.565C106.246 224.509 106.224 224.454 106.183 224.414C106.143 224.374 106.088 224.352 106.031 224.352H103.504C103.447 224.352 103.392 224.374 103.352 224.414C103.312 224.454 103.289 224.509 103.289 224.565C103.289 224.622 103.312 224.677 103.352 224.717C103.392 224.757 103.447 224.779 103.504 224.779Z" fill="#3C4A58"/>
<path d="M103.504 226.655H106.031C106.088 226.655 106.143 226.632 106.183 226.592C106.224 226.552 106.246 226.498 106.246 226.441C106.246 226.384 106.224 226.33 106.183 226.29C106.143 226.25 106.088 226.227 106.031 226.227H103.504C103.447 226.227 103.392 226.25 103.352 226.29C103.312 226.33 103.289 226.384 103.289 226.441C103.289 226.498 103.312 226.552 103.352 226.592C103.392 226.632 103.447 226.655 103.504 226.655Z" fill="#3C4A58"/>
<path d="M103.504 228.531H106.031C106.088 228.531 106.143 228.508 106.183 228.468C106.224 228.428 106.246 228.374 106.246 228.317C106.246 228.26 106.224 228.206 106.183 228.166C106.143 228.126 106.088 228.103 106.031 228.103H103.504C103.447 228.103 103.392 228.126 103.352 228.166C103.312 228.206 103.289 228.26 103.289 228.317C103.289 228.374 103.312 228.428 103.352 228.468C103.392 228.508 103.447 228.531 103.504 228.531Z" fill="#3C4A58"/>
<path d="M103.504 230.406H106.031C106.088 230.406 106.143 230.384 106.183 230.344C106.224 230.304 106.246 230.249 106.246 230.192C106.246 230.136 106.224 230.081 106.183 230.041C106.143 230.001 106.088 229.979 106.031 229.979H103.504C103.447 229.979 103.392 230.001 103.352 230.041C103.312 230.081 103.289 230.136 103.289 230.192C103.289 230.249 103.312 230.304 103.352 230.344C103.392 230.384 103.447 230.406 103.504 230.406Z" fill="#3C4A58"/>
<path d="M129.103 228.646V225.66C129.103 225.426 129.196 225.202 129.361 225.037C129.527 224.872 129.752 224.779 129.986 224.779C130.221 224.779 130.446 224.872 130.611 225.037C130.777 225.202 130.87 225.426 130.87 225.66V228.646H129.103Z" fill="#3C4A58"/>
<path d="M136.52 228.481H136.586C136.642 228.473 136.696 228.454 136.745 228.425C136.793 228.397 136.835 228.359 136.869 228.314C136.903 228.269 136.927 228.217 136.941 228.163C136.955 228.108 136.958 228.051 136.95 227.996C136.946 227.952 136.946 227.908 136.95 227.864C136.945 227.706 136.986 227.549 137.068 227.414C137.15 227.278 137.27 227.169 137.412 227.099C137.513 227.046 137.589 226.955 137.622 226.846C137.655 226.737 137.644 226.62 137.59 226.519C137.536 226.419 137.445 226.344 137.336 226.311C137.226 226.277 137.108 226.289 137.008 226.342C136.729 226.486 136.495 226.703 136.332 226.97C136.169 227.237 136.082 227.543 136.083 227.856C136.074 227.941 136.074 228.026 136.083 228.111C136.097 228.216 136.149 228.311 136.23 228.38C136.311 228.448 136.414 228.484 136.52 228.481Z" fill="#3C4A58"/>
<path d="M112.665 281.238H162.292C162.66 281.238 163.024 281.31 163.364 281.45C163.704 281.591 164.012 281.796 164.272 282.055C164.532 282.314 164.739 282.621 164.879 282.96C165.02 283.298 165.093 283.661 165.093 284.027V287.605C165.093 287.972 165.02 288.334 164.879 288.673C164.739 289.011 164.532 289.319 164.272 289.577C164.012 289.836 163.704 290.042 163.364 290.182C163.024 290.322 162.66 290.394 162.292 290.394H112.665C112.296 290.395 111.932 290.324 111.592 290.184C111.251 290.044 110.942 289.839 110.682 289.58C110.422 289.321 110.216 289.013 110.075 288.674C109.935 288.335 109.863 287.972 109.864 287.605V284.01C109.864 283.271 110.159 282.562 110.684 282.039C111.21 281.516 111.922 281.222 112.665 281.222V281.238Z" fill="#D6741D"/>
<path d="M196.226 274.336H150.687C149.382 274.336 148.324 275.389 148.324 276.689V287.992C148.324 289.291 149.382 290.345 150.687 290.345H196.226C197.53 290.345 198.588 289.291 198.588 287.992V276.689C198.588 275.389 197.53 274.336 196.226 274.336Z" fill="#D6741D"/>
<path d="M148.836 270.207H198.117C198.86 270.207 199.572 270.5 200.097 271.023C200.623 271.546 200.918 272.256 200.918 272.995V274.04C200.918 274.78 200.623 275.489 200.097 276.012C199.572 276.535 198.86 276.829 198.117 276.829H148.836C148.096 276.829 147.386 276.536 146.862 276.015C146.339 275.493 146.044 274.786 146.044 274.048V272.995C146.043 272.63 146.115 272.267 146.255 271.929C146.394 271.59 146.6 271.283 146.859 271.024C147.119 270.765 147.427 270.559 147.766 270.419C148.105 270.279 148.469 270.207 148.836 270.207Z" fill="#FFAC42"/>
<path d="M172.518 268.98V272.271C172.516 273.01 172.221 273.718 171.696 274.241C171.171 274.763 170.46 275.058 169.718 275.06H148.828C148.144 275.055 147.486 274.801 146.976 274.347C146.467 273.892 146.141 273.268 146.061 272.592C146.061 272.477 146.061 272.362 146.061 272.238V268.948C146.053 268.893 146.053 268.838 146.061 268.783C146.113 268.087 146.427 267.436 146.94 266.96C147.453 266.484 148.127 266.219 148.828 266.216H169.718C170.457 266.216 171.165 266.507 171.69 267.024C172.214 267.542 172.512 268.245 172.518 268.98Z" fill="#FFAC42"/>
<path d="M154.685 283.821C154.685 284.178 154.543 284.52 154.291 284.773C154.039 285.025 153.696 285.168 153.338 285.171C152.979 285.171 152.634 285.028 152.38 284.775C152.126 284.522 151.984 284.179 151.984 283.821V279.33C151.984 279.153 152.019 278.978 152.087 278.815C152.155 278.651 152.255 278.503 152.381 278.379C152.507 278.254 152.656 278.155 152.821 278.089C152.985 278.022 153.161 277.988 153.338 277.989C153.695 277.989 154.038 278.13 154.29 278.382C154.543 278.633 154.685 278.974 154.685 279.33V283.821Z" fill="#C5D3E1"/>
<path d="M159.922 283.821C159.922 284.179 159.779 284.522 159.525 284.775C159.271 285.028 158.926 285.171 158.567 285.171C158.209 285.168 157.867 285.025 157.614 284.773C157.362 284.52 157.22 284.178 157.22 283.821V279.33C157.22 278.974 157.362 278.633 157.615 278.382C157.867 278.13 158.21 277.989 158.567 277.989C158.744 277.988 158.92 278.022 159.085 278.089C159.249 278.155 159.398 278.254 159.524 278.379C159.65 278.503 159.75 278.651 159.818 278.815C159.886 278.978 159.922 279.153 159.922 279.33V283.821Z" fill="#C5D3E1"/>
<path d="M165.159 283.821C165.156 284.179 165.013 284.52 164.759 284.773C164.506 285.026 164.163 285.168 163.804 285.171C163.446 285.168 163.104 285.025 162.851 284.773C162.599 284.52 162.458 284.178 162.458 283.821V279.33C162.458 278.974 162.599 278.633 162.852 278.382C163.104 278.13 163.447 277.989 163.804 277.989C164.162 277.989 164.505 278.13 164.759 278.381C165.013 278.632 165.156 278.973 165.159 279.33V283.821Z" fill="#C5D3E1"/>
<path d="M170.387 283.821C170.379 284.172 170.233 284.505 169.982 284.751C169.731 284.997 169.393 285.135 169.041 285.137C168.683 285.135 168.341 284.992 168.088 284.739C167.836 284.487 167.695 284.145 167.695 283.788V279.296C167.695 278.941 167.836 278.6 168.089 278.348C168.341 278.097 168.684 277.956 169.041 277.956C169.398 277.956 169.741 278.097 169.993 278.348C170.246 278.6 170.387 278.941 170.387 279.296V283.821Z" fill="#C5D3E1"/>
<path d="M202.165 289.58C202.626 287.635 202.818 285.637 202.735 283.64C202.735 283.196 202.735 282.752 202.735 282.299C202.738 282.115 202.704 281.931 202.636 281.76C202.567 281.588 202.465 281.432 202.335 281.3C202.205 281.168 202.05 281.064 201.879 280.992C201.708 280.921 201.524 280.884 201.339 280.884L173.849 280.728C173.554 280.72 173.264 280.806 173.023 280.975L168.975 283.78L126.17 283.443L102.901 277.734C102.793 277.708 102.682 277.694 102.571 277.692L81.1599 277.84C80.8708 277.838 80.5882 277.926 80.3511 278.09C80.114 278.255 79.9341 278.489 79.8362 278.76C79.7383 279.031 79.7272 279.325 79.8045 279.603C79.8818 279.88 80.0437 280.127 80.2677 280.308L95.3923 293.01C95.3138 293.353 95.2722 293.703 95.2684 294.055C95.2684 295.303 95.7662 296.5 96.6523 297.382C97.5384 298.265 98.7402 298.761 99.9933 298.761H190.394C190.454 298.765 190.515 298.765 190.576 298.761C190.675 298.761 190.757 298.761 190.857 298.761H200.728C201.866 298.782 202.973 298.392 203.844 297.663C204.716 296.934 205.293 295.915 205.468 294.795C205.643 293.675 205.405 292.529 204.798 291.571C204.191 290.612 203.255 289.905 202.165 289.58Z" fill="#2C3A48"/>
<path d="M193.285 289.522C193.285 290.824 192.898 292.096 192.171 293.179C191.445 294.261 190.413 295.104 189.206 295.602C187.998 296.101 186.669 296.231 185.388 295.977C184.106 295.723 182.928 295.096 182.004 294.176C181.08 293.255 180.451 292.083 180.196 290.806C179.941 289.529 180.071 288.206 180.572 287.004C181.072 285.801 181.919 284.773 183.005 284.05C184.092 283.327 185.37 282.941 186.677 282.941C188.429 282.941 190.11 283.634 191.35 284.869C192.589 286.103 193.285 287.777 193.285 289.522Z" fill="#E9EFF7"/>
<path d="M189.031 290.838C189.031 292.698 187.965 294.203 186.644 294.203C185.322 294.203 184.256 292.698 184.256 290.838C184.256 288.979 186.644 284.841 186.644 284.841C186.644 284.841 189.031 288.979 189.031 290.838Z" fill="#2C3A48"/>
<path d="M188.254 290.896C188.254 291.522 187.891 292.032 187.428 292.032C186.966 292.032 186.602 291.522 186.602 290.896C186.763 290.181 187.042 289.497 187.428 288.873C187.814 289.497 188.093 290.181 188.254 290.896Z" fill="white"/>
<path d="M90.9896 281.238C90.9896 281.53 90.8729 281.811 90.6654 282.018C90.4578 282.224 90.1762 282.34 89.8827 282.34H86.6859C86.3916 282.34 86.1092 282.225 85.9003 282.018C85.6914 281.812 85.573 281.531 85.5708 281.238C85.5708 280.943 85.6883 280.661 85.8974 280.453C86.1065 280.244 86.3902 280.127 86.6859 280.127H89.8827C90.0287 280.127 90.1733 280.156 90.3082 280.212C90.443 280.268 90.5654 280.35 90.6683 280.453C90.7712 280.556 90.8525 280.679 90.9077 280.814C90.9628 280.948 90.9906 281.093 90.9896 281.238Z" fill="#BCCAD8"/>
<path d="M99.035 281.238C99.0328 281.531 98.9144 281.812 98.7055 282.018C98.4966 282.225 98.2142 282.34 97.9199 282.34H94.7231C94.4296 282.34 94.148 282.224 93.9404 282.018C93.7329 281.811 93.6162 281.53 93.6162 281.238C93.6152 281.093 93.643 280.948 93.6981 280.814C93.7533 280.679 93.8346 280.556 93.9375 280.453C94.0404 280.35 94.1628 280.268 94.2976 280.212C94.4325 280.156 94.5771 280.127 94.7231 280.127H97.9199C98.2156 280.127 98.4992 280.244 98.7084 280.453C98.9175 280.661 99.035 280.943 99.035 281.238Z" fill="#BCCAD8"/>
<path d="M167.695 269.737C167.688 269.978 167.588 270.207 167.416 270.376C167.243 270.545 167.011 270.64 166.769 270.642H146.036V268.997C146.028 268.942 146.028 268.887 146.036 268.832H166.753C166.875 268.829 166.996 268.85 167.11 268.894C167.223 268.938 167.327 269.004 167.414 269.088C167.502 269.172 167.572 269.273 167.62 269.385C167.668 269.496 167.694 269.616 167.695 269.737Z" fill="#E9EFF7"/>
<path d="M187.106 234.955L187.189 236.165L188.131 235.581L187.106 234.955ZM187.462 240.171L187.519 240.953L188.131 240.574L187.462 240.171ZM187.817 245.378V245.74L188.098 245.568L187.817 245.378ZM187.106 234.955L187.189 236.165L188.131 235.581L187.106 234.955ZM187.462 240.171L187.519 240.953L188.131 240.574L187.462 240.171ZM187.817 245.378V245.74L188.098 245.568L187.817 245.378ZM187.106 234.955L187.189 236.165L188.131 235.581L187.106 234.955ZM187.519 240.953L188.131 240.574L187.462 240.171L187.519 240.953ZM187.842 245.74L188.122 245.568L187.817 245.378L187.842 245.74ZM189.361 247.953L189.213 245.65L188.891 240.936V240.5V240.303V240.229L188.618 236.115V235.819V235.35V234.98L188.37 231.319L188.321 230.612V230.554L188.263 229.781L187.189 214.019C187.189 213.84 187.118 213.668 186.991 213.542C186.864 213.415 186.691 213.344 186.512 213.344C186.332 213.344 186.16 213.415 186.033 213.542C185.906 213.668 185.834 213.84 185.834 214.019L184.893 227.798L184.843 228.489L184.537 232.858V232.948V233.277V233.689L183.546 248.077C183.541 248.267 183.609 248.453 183.736 248.595C183.801 248.662 183.877 248.715 183.962 248.751C184.048 248.788 184.139 248.808 184.232 248.809H188.907C188.997 248.809 189.086 248.791 189.169 248.757C189.253 248.723 189.328 248.672 189.392 248.609C189.456 248.546 189.506 248.47 189.541 248.387C189.575 248.305 189.593 248.216 189.593 248.126C189.534 248.041 189.454 247.973 189.361 247.929V247.953ZM184.769 247.452L185.025 243.676V243.248V242.902V242.417L185.273 238.888L185.322 238.123V238.049L185.372 237.226L185.586 234.108L185.636 233.351L185.677 232.849L185.727 232.027L185.917 229.328L185.966 228.572L186.272 224.137L186.602 228.95L186.66 229.773L186.768 231.418L186.817 232.183L186.949 234.174L187.015 234.997L187.098 236.206L187.148 236.971L187.313 239.373L187.371 240.196L187.429 240.977L187.478 241.742L187.668 244.564L187.726 245.387V245.749L187.784 246.514L187.842 247.46L184.769 247.452ZM187.817 245.378V245.74L188.098 245.568L187.817 245.378ZM187.462 240.171L187.519 240.953L188.131 240.574L187.462 240.171ZM187.106 234.955L187.189 236.165L188.131 235.581L187.106 234.955ZM187.817 245.378V245.74L188.098 245.568L187.817 245.378ZM187.462 240.171L187.519 240.953L188.131 240.574L187.462 240.171ZM187.106 234.955L187.189 236.165L188.131 235.581L187.106 234.955ZM187.817 245.378V245.74L188.098 245.568L187.817 245.378ZM187.462 240.171L187.519 240.953L188.131 240.574L187.462 240.171ZM187.106 234.955L187.189 236.165L188.131 235.581L187.106 234.955Z" fill="#2C3A48"/>
<path d="M184.221 242.365L183.863 242.948L188.331 245.668L188.689 245.086L184.221 242.365Z" fill="#2C3A48"/>
<path d="M184.406 237.478L184.048 238.061L188.517 240.781L188.874 240.198L184.406 237.478Z" fill="#2C3A48"/>
<path d="M188.535 235.803L188.13 235.556L187.106 234.931L185.677 234.059L184.686 233.459L184.364 233.261L184.38 232.932L184.471 232.792L184.587 232.603L184.686 232.669L185.338 233.064L185.727 233.294L187.04 234.1L188.477 234.972L188.502 235.334L188.535 235.803Z" fill="#2C3A48"/>
<path d="M188.18 230.596L188.131 230.571L186.751 229.724L186.008 229.271L184.694 228.473L184.744 227.782L184.777 227.725L186.057 228.514L186.685 228.893L188.122 229.765L188.172 230.538L188.18 230.596Z" fill="#2C3A48"/>
<path d="M188.883 245.068L184.415 247.789L184.773 248.371L189.241 245.651L188.883 245.068Z" fill="#C5D3E1"/>
<path d="M188.882 240.895L187.569 241.693L185.347 243.042L185.058 243.223L184.686 243.445L184.587 243.503L184.471 243.314L184.232 242.919L184.686 242.639L185.107 242.392L187.519 240.928L188.131 240.55L188.701 240.204L188.783 240.344L188.849 240.451V240.459L188.882 240.895Z" fill="#2C3A48"/>
<path d="M188.56 236.099L187.238 236.905L185.413 238.016L185.347 238.057L184.694 238.452L184.405 238.633L184.066 238.082L184.058 238.057L184.05 238.049L184.066 238.032L184.694 237.654L185.462 237.177L187.189 236.14L188.13 235.556L188.502 235.334L188.535 235.803L188.56 236.099Z" fill="#2C3A48"/>
<path d="M188.23 231.303L186.908 232.109L185.768 232.8L185.339 233.064L184.686 233.459L184.339 233.672L184.364 233.261L184.38 232.932L184.389 232.842L184.471 232.792L184.686 232.669L185.818 231.97L186.859 231.344L188.131 230.571L188.172 230.538L188.18 230.596L188.23 231.303Z" fill="#2C3A48"/>
<path d="M215.893 245.387C215.836 245.395 215.778 245.395 215.72 245.387L211.705 244.49C211.57 244.46 211.445 244.395 211.343 244.301C211.241 244.207 211.167 244.088 211.127 243.955C211.088 243.822 211.084 243.682 211.114 243.546C211.145 243.411 211.209 243.286 211.301 243.182L234.512 218.231C234.647 218.08 234.836 217.988 235.038 217.974C235.24 217.961 235.44 218.026 235.594 218.157C235.744 218.29 235.84 218.473 235.864 218.671C235.889 218.869 235.84 219.07 235.726 219.234L216.529 245.066C216.454 245.163 216.358 245.243 216.248 245.298C216.138 245.354 216.017 245.384 215.893 245.387ZM213.415 243.223L215.58 243.708L225.938 229.723L213.415 243.223Z" fill="#2C3A48"/>
<path d="M208.889 241.01H196.383C196.32 241.01 196.257 240.998 196.199 240.974C196.141 240.95 196.088 240.915 196.044 240.871C195.999 240.826 195.964 240.774 195.94 240.716C195.916 240.658 195.904 240.596 195.904 240.533C195.904 240.471 195.916 240.409 195.94 240.351C195.964 240.293 195.999 240.24 196.044 240.196C196.088 240.152 196.141 240.116 196.199 240.092C196.257 240.068 196.32 240.056 196.383 240.056H208.914C209.041 240.056 209.162 240.106 209.252 240.196C209.342 240.285 209.393 240.407 209.393 240.533C209.393 240.66 209.342 240.781 209.252 240.871C209.162 240.96 209.041 241.01 208.914 241.01H208.889Z" fill="#1D2A38"/>
<path d="M206.46 221.736H198.786C198.659 221.736 198.537 221.685 198.447 221.596C198.358 221.506 198.307 221.385 198.307 221.258C198.307 221.132 198.358 221.01 198.447 220.921C198.537 220.832 198.659 220.781 198.786 220.781H206.46C206.587 220.781 206.709 220.832 206.799 220.921C206.889 221.01 206.939 221.132 206.939 221.258C206.939 221.385 206.889 221.506 206.799 221.596C206.709 221.685 206.587 221.736 206.46 221.736Z" fill="#1D2A38"/>
<path d="M196.597 240.311C196.505 240.312 196.414 240.287 196.336 240.237C196.258 240.187 196.197 240.116 196.159 240.031C196.133 239.974 196.119 239.912 196.116 239.849C196.114 239.787 196.125 239.724 196.147 239.665C196.169 239.606 196.203 239.552 196.246 239.506C196.289 239.461 196.341 239.424 196.399 239.398L208.459 234.034C208.574 233.984 208.705 233.981 208.822 234.025C208.939 234.07 209.035 234.159 209.087 234.273C209.113 234.33 209.128 234.392 209.13 234.455C209.132 234.518 209.122 234.58 209.099 234.639C209.077 234.698 209.043 234.752 209 234.798C208.957 234.844 208.905 234.88 208.847 234.906L196.787 240.27C196.727 240.296 196.663 240.31 196.597 240.311Z" fill="#1D2A38"/>
<path d="M208.657 228.835C208.612 228.951 208.523 229.046 208.41 229.098L206.865 229.781L197.82 233.804L197.233 234.067C197.168 234.083 197.1 234.083 197.035 234.067C196.943 234.067 196.853 234.04 196.776 233.99C196.698 233.941 196.636 233.871 196.597 233.788C196.547 233.672 196.543 233.541 196.588 233.422C196.633 233.304 196.722 233.208 196.837 233.154L197.977 232.652L206.724 228.761L208.013 228.185C208.112 228.141 208.223 228.132 208.328 228.159C208.433 228.185 208.526 228.247 208.591 228.333L208.657 228.835Z" fill="#1D2A38"/>
<path d="M197.836 228.909C197.744 228.908 197.653 228.88 197.575 228.829C197.498 228.778 197.437 228.706 197.399 228.621C197.373 228.564 197.359 228.502 197.357 228.44C197.356 228.377 197.367 228.315 197.39 228.256C197.413 228.198 197.448 228.145 197.492 228.1C197.536 228.055 197.588 228.02 197.647 227.996L207.212 223.726C207.328 223.674 207.46 223.67 207.58 223.714C207.699 223.759 207.795 223.849 207.848 223.965C207.901 224.08 207.905 224.212 207.86 224.331C207.815 224.45 207.724 224.546 207.608 224.598L198.035 228.868C197.972 228.893 197.905 228.907 197.836 228.909Z" fill="#1D2A38"/>
<path d="M207.625 221.571C207.579 221.623 207.523 221.665 207.46 221.694L205.808 222.427L198.993 225.462L198.167 225.824C198.104 225.849 198.037 225.863 197.969 225.865C197.859 225.866 197.751 225.829 197.666 225.761C197.58 225.692 197.52 225.596 197.497 225.489C197.473 225.382 197.488 225.27 197.538 225.172C197.588 225.074 197.67 224.997 197.77 224.952L199.142 224.343L205.659 221.439L207.055 220.822C207.124 220.784 207.203 220.764 207.282 220.764C207.362 220.764 207.44 220.784 207.509 220.822L207.625 221.571Z" fill="#1D2A38"/>
<path d="M208.649 240.311C208.586 240.322 208.522 240.322 208.459 240.311L196.383 234.906C196.268 234.852 196.178 234.756 196.134 234.638C196.089 234.52 196.092 234.389 196.143 234.273C196.195 234.159 196.29 234.07 196.408 234.025C196.525 233.981 196.656 233.984 196.771 234.034L208.831 239.398C208.931 239.442 209.014 239.52 209.063 239.618C209.113 239.716 209.128 239.828 209.104 239.935C209.081 240.042 209.022 240.138 208.936 240.206C208.85 240.275 208.743 240.312 208.632 240.311H208.649Z" fill="#1D2A38"/>
<path d="M208.005 234.133C207.94 234.148 207.872 234.148 207.807 234.133L197.068 229.345C197.01 229.321 196.957 229.285 196.913 229.241C196.869 229.196 196.835 229.143 196.812 229.084C196.789 229.026 196.777 228.964 196.779 228.901C196.78 228.839 196.794 228.777 196.82 228.72C196.845 228.662 196.882 228.609 196.928 228.565C196.973 228.521 197.027 228.487 197.086 228.464C197.146 228.441 197.209 228.43 197.272 228.431C197.336 228.433 197.398 228.447 197.456 228.473L208.195 233.261C208.311 233.313 208.402 233.409 208.449 233.527C208.495 233.645 208.493 233.777 208.443 233.894C208.399 233.97 208.335 234.033 208.257 234.075C208.18 234.117 208.093 234.137 208.005 234.133Z" fill="#1D2A38"/>
<path d="M207.261 228.679C207.199 228.694 207.134 228.694 207.071 228.679L197.787 224.566C197.671 224.513 197.58 224.417 197.535 224.298C197.49 224.179 197.495 224.048 197.547 223.932C197.6 223.816 197.696 223.726 197.816 223.682C197.935 223.637 198.067 223.641 198.183 223.693L207.46 227.807C207.574 227.86 207.664 227.957 207.708 228.075C207.753 228.193 207.75 228.324 207.699 228.44C207.657 228.518 207.593 228.581 207.515 228.623C207.438 228.666 207.35 228.685 207.261 228.679Z" fill="#1D2A38"/>
<path d="M206.947 225.668C206.882 225.671 206.816 225.657 206.757 225.627L198.101 221.793C197.985 221.741 197.894 221.645 197.849 221.526C197.804 221.407 197.809 221.275 197.861 221.16C197.914 221.044 198.01 220.954 198.13 220.909C198.249 220.864 198.381 220.869 198.497 220.921L207.121 224.755C207.236 224.808 207.325 224.905 207.37 225.023C207.415 225.141 207.411 225.272 207.36 225.388C207.323 225.467 207.265 225.535 207.193 225.585C207.12 225.634 207.035 225.663 206.947 225.668Z" fill="#1D2A38"/>
<path d="M195.119 246.975H194.987C194.861 246.958 194.74 246.918 194.631 246.854C194.521 246.791 194.425 246.707 194.348 246.607C194.271 246.507 194.215 246.393 194.183 246.271C194.151 246.149 194.143 246.022 194.161 245.897L198.861 212.851C198.879 212.727 198.921 212.607 198.985 212.499C199.05 212.391 199.135 212.297 199.235 212.222C199.336 212.146 199.451 212.092 199.573 212.061C199.695 212.029 199.822 212.023 199.947 212.04C200.072 212.058 200.192 212.1 200.3 212.164C200.409 212.228 200.503 212.313 200.579 212.414C200.654 212.514 200.709 212.628 200.741 212.75C200.772 212.871 200.779 212.998 200.761 213.122L196.077 246.152C196.043 246.381 195.928 246.59 195.752 246.741C195.576 246.892 195.351 246.975 195.119 246.975Z" fill="#2C3A48"/>
<path d="M210.26 246.966H210.128C209.897 246.963 209.675 246.879 209.501 246.728C209.328 246.578 209.213 246.37 209.178 246.144L206.865 229.773L206.724 228.794L205.816 222.418L205.675 221.431L204.494 213.114C204.458 212.863 204.523 212.608 204.676 212.405C204.829 212.202 205.056 212.068 205.308 212.032C205.56 211.996 205.816 212.061 206.019 212.213C206.223 212.365 206.358 212.592 206.394 212.842L207.526 220.855L207.625 221.563L208.591 228.374L208.657 228.835L211.078 245.889C211.095 246.013 211.088 246.139 211.056 246.261C211.024 246.382 210.969 246.496 210.893 246.596C210.817 246.696 210.722 246.781 210.613 246.844C210.505 246.908 210.385 246.949 210.26 246.966Z" fill="#2C3A48"/>
<path d="M202.619 246.473C202.173 246.473 201.793 246.259 201.793 245.996V212.983C201.793 212.719 202.157 212.505 202.619 212.505C203.082 212.505 203.445 212.719 203.445 212.983V246.02C203.429 246.284 203.065 246.473 202.619 246.473Z" fill="#2C3A48"/>
<path d="M205.626 211.872L203.42 203.119C203.346 202.972 203.232 202.848 203.091 202.762C202.951 202.675 202.788 202.629 202.623 202.629C202.458 202.629 202.296 202.675 202.155 202.762C202.014 202.848 201.9 202.972 201.826 203.119L199.62 211.872C199.578 212.046 199.606 212.231 199.699 212.385C199.792 212.539 199.941 212.65 200.116 212.695C200.171 212.702 200.227 212.702 200.281 212.695C200.434 212.695 200.582 212.645 200.702 212.552C200.823 212.46 200.911 212.331 200.95 212.185L202.602 205.529L204.255 212.185C204.291 212.331 204.377 212.461 204.496 212.553C204.616 212.646 204.764 212.696 204.915 212.695C204.97 212.703 205.026 212.703 205.081 212.695C205.171 212.678 205.258 212.643 205.335 212.593C205.412 212.542 205.478 212.476 205.529 212.399C205.58 212.322 205.615 212.236 205.632 212.145C205.648 212.055 205.646 211.962 205.626 211.872Z" fill="#2C3A48"/>
<path d="M207.245 211.749H198.01C197.572 211.749 197.217 212.102 197.217 212.538V213.912C197.217 214.348 197.572 214.702 198.01 214.702H207.245C207.683 214.702 208.038 214.348 208.038 213.912V212.538C208.038 212.102 207.683 211.749 207.245 211.749Z" fill="#ACBAC8"/>
<path d="M204.932 206.188H200.314C200.095 206.188 199.918 206.364 199.918 206.582V207.273C199.918 207.491 200.095 207.668 200.314 207.668H204.932C205.151 207.668 205.328 207.491 205.328 207.273V206.582C205.328 206.364 205.151 206.188 204.932 206.188Z" fill="#ACBAC8"/>
<path d="M200.769 240.056H191.732C190.975 240.056 190.361 240.668 190.361 241.422V245.93C190.361 246.684 190.975 247.296 191.732 247.296H200.769C201.526 247.296 202.14 246.684 202.14 245.93V241.422C202.14 240.668 201.526 240.056 200.769 240.056Z" fill="#1D2A38"/>
<path d="M217.983 242.779H201.289C200.532 242.779 199.918 243.391 199.918 244.145V245.609C199.918 246.363 200.532 246.975 201.289 246.975H217.983C218.74 246.975 219.354 246.363 219.354 245.609V244.145C219.354 243.391 218.74 242.779 217.983 242.779Z" fill="#3C4A58"/>
<path d="M189.312 263.461C189.103 263.46 188.901 263.395 188.731 263.274C188.562 263.154 188.434 262.985 188.365 262.789C188.296 262.593 188.29 262.381 188.347 262.182C188.404 261.983 188.522 261.806 188.684 261.676L202.611 250.496C202.82 250.33 203.087 250.254 203.353 250.283C203.619 250.312 203.863 250.445 204.031 250.652C204.115 250.754 204.177 250.872 204.214 250.998C204.251 251.125 204.262 251.257 204.248 251.388C204.233 251.519 204.193 251.646 204.129 251.761C204.065 251.876 203.978 251.977 203.875 252.059L189.948 263.239C189.769 263.385 189.543 263.464 189.312 263.461Z" fill="#C5D3E1"/>
<path d="M218.347 263.46C218.117 263.465 217.894 263.386 217.719 263.238L203.817 252.058C203.615 251.889 203.488 251.649 203.462 251.387C203.437 251.126 203.515 250.865 203.681 250.661C203.846 250.456 204.085 250.325 204.347 250.294C204.608 250.263 204.872 250.335 205.081 250.495L219.016 261.675C219.223 261.844 219.354 262.087 219.382 262.352C219.41 262.617 219.332 262.882 219.165 263.09C219.067 263.212 218.942 263.309 218.8 263.373C218.658 263.437 218.503 263.467 218.347 263.46Z" fill="#C5D3E1"/>
<path d="M188.312 248.069H182.39C181.833 248.069 181.382 248.518 181.382 249.072V263.403C181.382 263.957 181.833 264.407 182.39 264.407H188.312C188.869 264.407 189.32 263.957 189.32 263.403V249.072C189.32 248.518 188.869 248.069 188.312 248.069Z" fill="#C5D3E1"/>
<path d="M224.583 248.069H218.669C218.112 248.069 217.661 248.518 217.661 249.072V263.403C217.661 263.957 218.112 264.407 218.669 264.407H224.583C225.14 264.407 225.591 263.957 225.591 263.403V249.072C225.591 248.518 225.14 248.069 224.583 248.069Z" fill="#C5D3E1"/>
<path d="M228.053 245.519H178.987C178.43 245.519 177.979 245.968 177.979 246.522V250.282C177.979 250.836 178.43 251.285 178.987 251.285H228.053C228.609 251.285 229.06 250.836 229.06 250.282V246.522C229.06 245.968 228.609 245.519 228.053 245.519Z" fill="#ACBAC8"/>
<path d="M189.32 255.292H181.382V257.439H189.32V255.292Z" fill="#ACBAC8"/>
<path d="M189.32 260.31H181.382V262.465H189.32V260.31Z" fill="#ACBAC8"/>
<path d="M225.591 255.292H217.661V257.439H225.591V255.292Z" fill="#ACBAC8"/>
<path d="M225.591 260.31H217.661V262.465H225.591V260.31Z" fill="#ACBAC8"/>
<path d="M229.06 246.522H177.979V248.069H229.06V246.522Z" fill="#C5D3E1"/>
<path d="M119.496 299.016C119.496 299.016 149.274 291.341 170.164 296.507C183.381 299.797 181.308 299.962 189.461 299.797C189.461 299.797 169.471 309.727 135.405 301.097C135.405 301.114 128.103 300.102 119.496 299.016Z" fill="#C5D3E1"/>
<path d="M91.2539 299.814C91.2539 299.814 102.414 293.726 113.094 295.009C121.668 296.046 151.81 305.465 164.919 299.814C164.919 299.814 158.584 312.334 111.013 301.755C111.013 301.755 106.668 296.77 91.2539 299.814Z" fill="#ACBAC8"/>
<path d="M136.586 300.834C136.586 301.081 127.863 304.314 116.704 302.529C105.544 300.744 96.7717 300.883 96.8048 301.171C96.8048 300.686 105.825 296.375 116.687 299.477C127.55 302.578 136.562 301.319 136.586 300.834Z" fill="#5C6A78"/>
<path d="M186.792 300.957C186.792 301.327 176.979 306.148 164.415 303.425C151.851 300.702 141.964 300.957 141.997 301.319C141.997 300.595 152.14 294.17 164.374 298.851C176.607 303.532 186.767 301.681 186.792 300.957Z" fill="#6C7A88"/>
<path d="M189.08 263.354C189.08 263.354 207.253 258.673 220.007 261.815C228.061 263.806 226.805 263.93 231.778 263.839C231.778 263.839 219.577 269.894 198.786 264.662C198.786 264.637 194.334 264.012 189.08 263.354Z" fill="#1D2A38"/>
<path d="M171.841 263.839C171.841 263.839 178.656 260.121 185.173 260.91C190.402 261.536 208.798 267.286 216.802 263.839C216.802 263.839 212.936 271.482 183.901 265.024C183.901 265.024 181.25 261.98 171.841 263.839Z" fill="#2C3A48"/>
<path d="M199.505 264.464C199.505 264.612 194.185 266.587 187.379 265.492C180.572 264.398 175.212 264.513 175.228 264.67C175.228 264.382 180.738 261.749 187.362 263.641C193.987 265.534 199.497 264.76 199.505 264.464Z" fill="#5C6A78"/>
<path d="M230.151 264.571C230.151 264.793 224.162 267.738 216.496 266.085C208.831 264.431 202.793 264.571 202.809 264.769C202.809 264.324 209.004 260.4 216.472 263.255C223.939 266.11 230.142 264.974 230.151 264.571Z" fill="#2C3A48"/>
</g>
</g>
<defs>
<clipPath id="clip0">
<rect width="320" height="370" fill="white"/>
</clipPath>
<clipPath id="clip1">
<rect width="180" height="113" fill="white" transform="translate(70 193)"/>
</clipPath>
</defs>
</svg>
