<svg width="1134" height="603" viewBox="0 0 1134 603" fill="none" xmlns="http://www.w3.org/2000/svg">
<g opacity="0.1">
<path d="M362.822 542.368C362.822 545.317 363.998 548.145 366.092 550.229C368.185 552.314 371.024 553.486 373.985 553.486C375.451 553.486 376.902 553.198 378.257 552.639C379.611 552.081 380.842 551.262 381.878 550.229C382.915 549.197 383.737 547.972 384.298 546.623C384.859 545.274 385.148 543.828 385.148 542.368V504.183C385.148 502.723 384.859 501.277 384.298 499.928C383.737 498.58 382.915 497.354 381.878 496.322C380.842 495.289 379.611 494.47 378.257 493.912C376.902 493.353 375.451 493.065 373.985 493.065C371.024 493.065 368.185 494.237 366.092 496.322C363.998 498.407 362.822 501.234 362.822 504.183V542.368Z" fill="#404040"/>
<path d="M494.349 569.436C494.349 570.516 494.776 571.552 495.536 572.32C496.297 573.089 497.331 573.529 498.414 573.545C499.476 573.498 500.48 573.045 501.214 572.279C501.949 571.514 502.359 570.495 502.358 569.436V557.352C502.366 556.81 502.265 556.272 502.06 555.77C501.856 555.268 501.552 554.812 501.168 554.429C500.783 554.046 500.325 553.743 499.821 553.54C499.316 553.336 498.776 553.235 498.232 553.244C497.693 553.244 497.16 553.35 496.663 553.557C496.165 553.765 495.715 554.068 495.336 554.451C494.958 554.833 494.66 555.286 494.459 555.784C494.259 556.283 494.159 556.816 494.167 557.352L494.349 569.436Z" fill="#404040"/>
<path d="M422.276 545.691H198.29C195.174 545.691 192.648 548.207 192.648 551.31V573.665C192.648 576.769 195.174 579.285 198.29 579.285H422.276C425.392 579.285 427.918 576.769 427.918 573.665V551.31C427.918 548.207 425.392 545.691 422.276 545.691Z" fill="#404040"/>
<path d="M377.442 552.157V472.402C377.315 471.365 377.407 470.313 377.713 469.313C378.018 468.314 378.53 467.389 379.215 466.598C379.901 465.807 380.745 465.168 381.694 464.721C382.642 464.274 383.674 464.03 384.723 464.004H431.68C433.378 464.004 496.291 527.626 496.291 527.626C496.886 528.146 497.362 528.788 497.687 529.507C498.011 530.226 498.177 531.007 498.172 531.795V573.667C498.172 574.404 498.026 575.135 497.742 575.817C497.459 576.499 497.043 577.118 496.519 577.64C495.995 578.162 495.373 578.576 494.689 578.858C494.004 579.14 493.27 579.286 492.529 579.286H446.422C444.92 579.286 443.478 578.696 442.411 577.644C441.343 576.591 440.735 575.162 440.719 573.667V570.162H382.599C381.097 570.162 379.656 569.572 378.588 568.52C377.52 567.468 376.912 566.039 376.896 564.543V554.513C376.917 553.699 377.103 552.898 377.442 552.157Z" fill="#404040"/>
<path d="M385.33 481.406V504.728C385.33 506.331 385.969 507.867 387.107 509C388.244 510.134 389.787 510.77 391.396 510.77H457.282H460.194C465.715 510.226 466.261 508.051 463.591 504.728L434.471 475.122H391.639C390.801 475.088 389.966 475.227 389.185 475.531C388.404 475.835 387.694 476.296 387.102 476.887C386.509 477.477 386.045 478.184 385.74 478.961C385.435 479.739 385.295 480.572 385.33 481.406Z" fill="white"/>
<path d="M490.953 527.687H475.846C472.73 527.687 470.204 530.203 470.204 533.306V540.919C470.204 544.022 472.73 546.538 475.846 546.538H490.953C494.069 546.538 496.595 544.022 496.595 540.919V533.306C496.595 530.203 494.069 527.687 490.953 527.687Z" fill="#404040"/>
<path d="M404.926 519.772H392.428C391.322 519.772 390.426 520.665 390.426 521.766V524.122C390.426 525.223 391.322 526.116 392.428 526.116H404.926C406.031 526.116 406.928 525.223 406.928 524.122V521.766C406.928 520.665 406.031 519.772 404.926 519.772Z" fill="#404040"/>
<path d="M481.61 534.271C481.602 534.908 481.722 535.54 481.963 536.13C482.204 536.721 482.561 537.257 483.013 537.707C483.465 538.158 484.004 538.513 484.596 538.753C485.189 538.993 485.824 539.113 486.463 539.105H490.225C491.512 539.105 492.746 538.595 493.656 537.689C494.567 536.783 495.078 535.553 495.078 534.271C495.078 532.989 494.567 531.76 493.656 530.853C492.746 529.947 491.512 529.438 490.225 529.438H486.463C485.176 529.438 483.941 529.947 483.031 530.853C482.121 531.76 481.61 532.989 481.61 534.271Z" fill="#404040"/>
<path d="M403.409 579.285C403.409 583.79 404.75 588.194 407.263 591.94C409.776 595.686 413.349 598.606 417.528 600.33C421.707 602.054 426.306 602.505 430.742 601.626C435.179 600.747 439.255 598.578 442.453 595.392C445.652 592.206 447.83 588.148 448.713 583.729C449.595 579.311 449.142 574.731 447.411 570.568C445.68 566.406 442.749 562.849 438.987 560.346C435.226 557.843 430.804 556.507 426.28 556.507C420.214 556.507 414.397 558.907 410.108 563.178C405.818 567.45 403.409 573.244 403.409 579.285Z" fill="#404040"/>
<path d="M400.072 582.85C400.941 582.85 401.774 582.506 402.388 581.895C403.003 581.283 403.348 580.453 403.348 579.587C403.348 573.53 405.764 567.721 410.065 563.438C414.366 559.155 420.198 556.749 426.281 556.749C432.363 556.749 438.196 559.155 442.496 563.438C446.797 567.721 449.213 573.53 449.213 579.587C449.149 580.049 449.186 580.519 449.32 580.965C449.454 581.412 449.682 581.824 449.99 582.175C450.297 582.526 450.677 582.808 451.103 583.001C451.529 583.193 451.991 583.293 452.459 583.293C452.927 583.293 453.389 583.193 453.815 583.001C454.241 582.808 454.62 582.526 454.928 582.175C455.235 581.824 455.463 581.412 455.598 580.965C455.732 580.519 455.768 580.049 455.704 579.587C455.704 571.816 452.604 564.362 447.086 558.867C441.568 553.371 434.084 550.284 426.281 550.284C418.477 550.284 410.993 553.371 405.475 558.867C399.957 564.362 396.857 571.816 396.857 579.587C396.856 580.442 397.193 581.263 397.795 581.873C398.396 582.484 399.214 582.834 400.072 582.85Z" fill="#404040"/>
<path d="M412.024 578.802C412.024 581.611 412.86 584.356 414.426 586.691C415.993 589.026 418.219 590.846 420.825 591.92C423.43 592.995 426.296 593.276 429.062 592.728C431.828 592.18 434.368 590.828 436.362 588.842C438.356 586.857 439.713 584.327 440.264 581.572C440.814 578.818 440.531 575.963 439.452 573.369C438.373 570.774 436.546 568.557 434.201 566.996C431.857 565.436 429.1 564.604 426.281 564.604C424.408 564.604 422.554 564.971 420.825 565.684C419.095 566.398 417.523 567.444 416.199 568.762C414.875 570.081 413.825 571.646 413.109 573.369C412.392 575.091 412.024 576.938 412.024 578.802Z" fill="#404040"/>
<path d="M224.62 579.286C224.62 583.788 225.96 588.19 228.471 591.934C230.981 595.679 234.55 598.598 238.725 600.324C242.901 602.05 247.497 602.505 251.932 601.631C256.367 600.757 260.442 598.593 263.643 595.414C266.845 592.234 269.028 588.181 269.917 583.766C270.806 579.352 270.362 574.774 268.64 570.61C266.918 566.447 263.996 562.886 260.243 560.375C256.49 557.865 252.074 556.519 247.553 556.507C244.542 556.491 241.558 557.069 238.772 558.207C235.986 559.346 233.455 561.022 231.323 563.14C229.191 565.257 227.501 567.774 226.351 570.545C225.2 573.316 224.612 576.287 224.62 579.286Z" fill="#404040"/>
<path d="M233.235 578.802C233.235 581.608 234.07 584.351 235.634 586.684C237.198 589.018 239.421 590.838 242.022 591.914C244.624 592.991 247.487 593.276 250.251 592.733C253.015 592.19 255.556 590.843 257.552 588.864C259.548 586.884 260.911 584.36 261.468 581.609C262.025 578.859 261.751 576.006 260.681 573.41C259.611 570.815 257.793 568.593 255.457 567.026C253.12 565.458 250.37 564.616 247.553 564.604C245.675 564.596 243.815 564.957 242.078 565.667C240.341 566.377 238.763 567.422 237.432 568.741C236.102 570.06 235.046 571.628 234.326 573.355C233.606 575.081 233.235 576.933 233.235 578.802Z" fill="#404040"/>
<path d="M290.87 461.042C290.87 462.644 291.509 464.181 292.646 465.314C293.784 466.447 295.327 467.084 296.936 467.084H337.281C338.89 467.084 340.433 466.447 341.57 465.314C342.708 464.181 343.347 462.644 343.347 461.042C343.347 459.44 342.708 457.903 341.57 456.77C340.433 455.637 338.89 455 337.281 455H297.118C295.509 455 293.966 455.637 292.829 456.77C291.691 457.903 291.052 459.44 291.052 461.042H290.87Z" fill="#404040"/>
<path d="M358.211 462.312H193.558C186.623 462.312 181 467.912 181 474.819V540.556C181 547.464 186.623 553.063 193.558 553.063H358.211C365.147 553.063 370.769 547.464 370.769 540.556V474.819C370.769 467.912 365.147 462.312 358.211 462.312Z" fill="#404040"/>
<path d="M320.415 462.312H314.773V553.063H320.415V462.312Z" fill="#404040"/>
<path d="M236.936 462.312H231.294V553.063H236.936V462.312Z" fill="#404040"/>
<path d="M248.342 504.122C248.33 509.442 249.903 514.646 252.862 519.076C255.821 523.505 260.033 526.961 264.965 529.005C269.897 531.05 275.328 531.591 280.569 530.56C285.809 529.529 290.626 526.974 294.407 523.216C298.189 519.458 300.766 514.667 301.813 509.45C302.859 504.233 302.328 498.824 300.287 493.907C298.245 488.991 294.785 484.788 290.344 481.831C285.903 478.874 280.681 477.295 275.339 477.295C268.189 477.295 261.332 480.12 256.27 485.149C251.209 490.178 248.358 497.002 248.342 504.122Z" fill="#404040"/>
<path d="M265.753 509.499C265.753 517.052 270.121 523.154 275.46 523.154C280.799 523.154 285.167 517.112 285.167 509.499C285.167 501.886 275.46 485.331 275.46 485.331C275.46 485.331 265.753 501.947 265.753 509.499Z" fill="white"/>
<path d="M268.786 509.744C268.786 512.281 270.242 514.335 272.062 514.335C273.882 514.335 275.338 512.281 275.338 509.744C274.634 506.828 273.444 504.051 271.82 501.526C270.365 504.082 269.34 506.858 268.786 509.744Z" fill="white"/>
<path d="M220.981 547.745C221.399 547.745 221.8 547.58 222.096 547.285C222.392 546.991 222.558 546.591 222.558 546.174V457.296C222.558 456.88 222.392 456.48 222.096 456.185C221.8 455.891 221.399 455.725 220.981 455.725C220.771 455.717 220.562 455.752 220.367 455.828C220.172 455.904 219.994 456.019 219.846 456.167C219.698 456.314 219.582 456.491 219.506 456.685C219.43 456.88 219.395 457.088 219.403 457.296V546.174C219.403 546.591 219.569 546.991 219.865 547.285C220.161 547.58 220.562 547.745 220.981 547.745Z" fill="#404040"/>
<path d="M202.416 547.745C202.834 547.745 203.235 547.58 203.531 547.285C203.827 546.991 203.993 546.591 203.993 546.174V457.296C204.002 457.088 203.967 456.88 203.891 456.685C203.814 456.491 203.698 456.314 203.55 456.167C203.402 456.019 203.225 455.904 203.029 455.828C202.834 455.752 202.625 455.717 202.416 455.725C201.998 455.725 201.596 455.891 201.3 456.185C201.005 456.48 200.838 456.88 200.838 457.296V546.174C200.838 546.591 201.005 546.991 201.3 547.285C201.596 547.58 201.998 547.745 202.416 547.745Z" fill="#404040"/>
<path d="M202.416 468.899H220.98C221.399 468.899 221.8 468.734 222.096 468.439C222.391 468.144 222.558 467.745 222.558 467.328C222.558 466.912 222.391 466.512 222.096 466.217C221.8 465.923 221.399 465.757 220.98 465.757H202.416C201.998 465.757 201.596 465.923 201.3 466.217C201.005 466.512 200.838 466.912 200.838 467.328C200.838 467.745 201.005 468.144 201.3 468.439C201.596 468.734 201.998 468.899 202.416 468.899Z" fill="#404040"/>
<path d="M202.416 482.613H220.98C221.399 482.613 221.8 482.448 222.096 482.153C222.391 481.858 222.558 481.459 222.558 481.042C222.558 480.625 222.391 480.226 222.096 479.931C221.8 479.637 221.399 479.471 220.98 479.471H202.416C201.998 479.471 201.596 479.637 201.3 479.931C201.005 480.226 200.838 480.625 200.838 481.042C200.838 481.459 201.005 481.858 201.3 482.153C201.596 482.448 201.998 482.613 202.416 482.613Z" fill="#404040"/>
<path d="M202.416 496.388H220.98C221.399 496.388 221.8 496.222 222.096 495.928C222.391 495.633 222.558 495.234 222.558 494.817C222.558 494.4 222.391 494.001 222.096 493.706C221.8 493.412 221.399 493.246 220.98 493.246H202.416C201.998 493.246 201.596 493.412 201.3 493.706C201.005 494.001 200.838 494.4 200.838 494.817C200.838 495.234 201.005 495.633 201.3 495.928C201.596 496.222 201.998 496.388 202.416 496.388Z" fill="#404040"/>
<path d="M202.416 510.166H220.98C221.399 510.166 221.8 510 222.096 509.706C222.391 509.411 222.558 509.011 222.558 508.595C222.558 508.178 222.391 507.779 222.096 507.484C221.8 507.189 221.399 507.024 220.98 507.024H202.416C201.998 507.024 201.596 507.189 201.3 507.484C201.005 507.779 200.838 508.178 200.838 508.595C200.838 509.011 201.005 509.411 201.3 509.706C201.596 510 201.998 510.166 202.416 510.166Z" fill="#404040"/>
<path d="M202.416 523.941H220.98C221.399 523.941 221.8 523.775 222.096 523.481C222.391 523.186 222.558 522.786 222.558 522.37C222.558 521.953 222.391 521.554 222.096 521.259C221.8 520.964 221.399 520.799 220.98 520.799H202.416C201.998 520.799 201.596 520.964 201.3 521.259C201.005 521.554 200.838 521.953 200.838 522.37C200.838 522.786 201.005 523.186 201.3 523.481C201.596 523.775 201.998 523.941 202.416 523.941Z" fill="#404040"/>
<path d="M390.426 511.01V489.077C390.426 487.363 391.11 485.718 392.327 484.506C393.545 483.293 395.196 482.612 396.917 482.612C398.639 482.612 400.29 483.293 401.508 484.506C402.725 485.718 403.409 487.363 403.409 489.077V511.01H390.426Z" fill="#404040"/>
<path d="M444.906 509.802H445.391C445.801 509.743 446.196 509.604 446.552 509.392C446.909 509.181 447.22 508.902 447.468 508.571C447.716 508.24 447.896 507.863 447.997 507.463C448.099 507.062 448.12 506.646 448.06 506.237C448.03 505.916 448.03 505.592 448.06 505.271C448.023 504.108 448.324 502.959 448.927 501.962C449.529 500.965 450.408 500.163 451.458 499.651C452.198 499.259 452.751 498.59 452.996 497.791C453.24 496.992 453.156 496.129 452.762 495.392C452.368 494.655 451.696 494.104 450.894 493.86C450.092 493.616 449.225 493.7 448.485 494.093C446.437 495.146 444.72 496.741 443.521 498.702C442.323 500.663 441.689 502.914 441.69 505.21C441.628 505.833 441.628 506.46 441.69 507.083C441.795 507.852 442.181 508.554 442.775 509.056C443.368 509.558 444.127 509.824 444.906 509.802Z" fill="#404040"/>
</g>
<g opacity="0.1">
<path d="M167 360.322C167 360.322 252.544 329.386 312.575 350.199C350.482 363.329 344.586 364.12 368 363.536C368 363.536 310.564 403.58 212.712 368.795C212.694 368.795 191.704 364.687 167 360.322Z" fill="#404040"/>
<path d="M0 321.396C0 321.396 60.4375 302.832 102.842 315.318C129.63 323.11 125.475 323.675 142 323.325C142 323.325 101.412 347.344 32.2771 326.48C32.2771 326.48 17.4528 324.006 0 321.396Z" fill="#404040"/>
<path opacity="0.7" d="M323.204 236.088C323.204 236.887 302.752 247.46 276.635 241.618C250.519 235.777 229.933 236.332 230 237.176C230 235.599 251.143 221.494 276.568 231.645C301.994 241.796 323.137 237.642 323.204 236.088Z" fill="#404040"/>
<path opacity="0.5" d="M183 185.088C183 185.887 203.452 196.46 229.568 190.618C255.685 184.777 276.27 185.332 276.203 186.176C276.203 184.599 255.06 170.494 229.635 180.645C204.21 190.796 183.067 186.642 183 185.088Z" fill="#404040"/>
<path opacity="0.7" d="M174.935 234.417C174.935 235.638 151.941 251.409 122.523 242.546C93.1058 233.684 69.9332 234.439 70.0001 235.66C70.0001 233.284 93.7749 212.227 122.434 227.531C151.093 242.835 174.89 236.793 174.935 234.417Z" fill="#404040"/>
<path d="M532.948 351.261C532.948 352.261 506.452 365.277 472.53 357.925C438.607 350.573 411.911 351.261 412 352.238C412 350.284 439.388 332.937 472.418 345.575C505.449 358.213 532.881 353.216 532.948 351.261Z" fill="#404040"/>
<path opacity="0.7" d="M142 273.084C142 273.084 191.066 260.446 225.502 268.931C247.247 274.306 243.857 274.639 257.283 274.395C257.283 274.395 224.342 290.742 168.206 276.616C168.206 276.549 156.185 274.861 142 273.084Z" fill="#404040"/>
<path opacity="0.7" d="M371 245.205C371 245.205 389.4 235.165 406.997 237.297C421.114 238.985 470.783 254.511 492.394 245.205C492.394 245.205 481.956 265.839 403.562 248.403C403.562 248.403 396.403 240.185 371 245.205Z" fill="#404040"/>
<path opacity="0.5" d="M114.548 174.054C114.548 174.454 100.185 179.785 81.8075 176.831C63.43 173.877 48.9555 174.188 49.0001 174.61C49.0001 173.832 63.8761 166.725 81.7629 171.833C99.6497 176.942 114.526 174.854 114.548 174.054Z" fill="#404040"/>
<path opacity="0.5" d="M416.822 174.341C416.822 174.941 400.653 182.893 379.956 178.428C359.259 173.963 342.955 174.341 343 174.874C343 173.675 359.727 163.08 379.889 170.787C400.051 178.495 416.8 175.429 416.822 174.341Z" fill="#404040"/>
<path d="M318 289.849L324.625 291.462L362.853 291.77H369.205V286.584C369.278 286.02 369.558 285.501 369.992 285.124C370.426 284.748 370.984 284.541 371.562 284.541C372.14 284.541 372.698 284.748 373.132 285.124C373.566 285.501 373.846 286.02 373.92 286.584V291.846H378.323V286.584C378.323 286.282 378.384 285.982 378.501 285.703C378.619 285.423 378.791 285.169 379.008 284.955C379.225 284.741 379.483 284.571 379.767 284.455C380.05 284.339 380.354 284.28 380.661 284.28C380.968 284.28 381.272 284.339 381.556 284.455C381.84 284.571 382.097 284.741 382.315 284.955C382.532 285.169 382.704 285.423 382.821 285.703C382.939 285.982 382.999 286.282 382.999 286.584V291.923H387.442V286.546C387.442 285.935 387.688 285.349 388.127 284.916C388.565 284.484 389.16 284.241 389.78 284.241C390.4 284.241 390.995 284.484 391.433 284.916C391.872 285.349 392.118 285.935 392.118 286.546V292H396.521V286.584C396.595 286.02 396.875 285.501 397.309 285.124C397.743 284.748 398.301 284.541 398.879 284.541C399.457 284.541 400.015 284.748 400.449 285.124C400.883 285.501 401.163 286.02 401.237 286.584V289.888L404.51 287.621C405.312 287.075 406.263 286.78 407.238 286.776L450.103 287.045V282.206C451.207 281.984 452.198 281.392 452.909 280.53C453.619 279.669 454.005 278.592 454 277.482V275.676C454.004 274.467 453.545 273.301 452.714 272.41C451.883 271.52 450.742 270.972 449.519 270.875H404.9V268.801C404.9 267.535 404.392 266.319 403.487 265.42C402.582 264.521 401.353 264.01 400.068 264H363.788C362.55 263.989 361.355 264.45 360.454 265.288C359.553 266.126 359.016 267.275 358.956 268.494H394.963C395.386 268.494 395.793 268.66 396.092 268.955C396.392 269.251 396.56 269.651 396.56 270.069C396.567 270.355 396.485 270.636 396.327 270.875C396.189 271.111 395.99 271.306 395.75 271.441C395.51 271.576 395.239 271.646 394.963 271.643H358.917V274.486C358.917 274.716 358.917 274.908 358.917 275.1C358.895 275.266 358.895 275.434 358.917 275.6V277.405C358.914 278.51 359.301 279.582 360.012 280.437C360.723 281.292 361.713 281.877 362.814 282.091V289.772L318 289.849Z" fill="#404040"/>
<path d="M456.135 304.52C456.946 301.105 457.275 297.591 457.111 294.084C457.111 293.299 457.111 292.514 457.111 291.729C457.116 291.403 457.056 291.079 456.936 290.776C456.815 290.473 456.636 290.197 456.408 289.964C456.182 289.738 455.914 289.56 455.62 289.439C455.325 289.318 455.009 289.256 454.691 289.258H449.928L406.787 288.983C406.28 288.983 405.787 289.148 405.381 289.454L400.813 292.671L398.354 294.358H362.358L323.785 294.044L308.168 290.121L283.299 284H282.713L245.428 284.235C244.928 284.242 244.441 284.402 244.033 284.694C243.625 284.985 243.315 285.396 243.146 285.869C242.976 286.343 242.954 286.857 243.083 287.343C243.212 287.829 243.485 288.265 243.867 288.591L270.22 310.916C270.063 311.504 269.984 312.111 269.986 312.721C270.008 313.6 270.152 314.472 270.415 315.31C276.447 313.64 282.73 313.082 288.96 313.662C292.864 314.172 300.204 315.899 308.793 317.782C324.175 314.722 354.51 310.21 377.779 316.017C390.546 319.195 394.137 320.529 398.081 321H453.715C455.689 321.021 457.604 320.325 459.108 319.041C460.613 317.757 461.606 315.97 461.905 314.009C462.204 312.048 461.789 310.044 460.737 308.366C459.684 306.688 458.064 305.448 456.174 304.874L456.135 304.52ZM260.616 291.808H255.033C254.515 291.808 254.018 291.601 253.652 291.233C253.286 290.865 253.081 290.366 253.081 289.846C253.081 289.326 253.286 288.827 253.652 288.459C254.018 288.091 254.515 287.884 255.033 287.884H260.616C261.133 287.884 261.63 288.091 261.996 288.459C262.362 288.827 262.568 289.326 262.568 289.846C262.568 290.366 262.362 290.865 261.996 291.233C261.63 291.601 261.133 291.808 260.616 291.808ZM274.592 291.808H269.049C268.531 291.808 268.034 291.601 267.668 291.233C267.302 290.865 267.096 290.366 267.096 289.846C267.096 289.326 267.302 288.827 267.668 288.459C268.034 288.091 268.531 287.884 269.049 287.884H274.592C275.11 287.884 275.607 288.091 275.973 288.459C276.339 288.827 276.544 289.326 276.544 289.846C276.544 290.366 276.339 290.865 275.973 291.233C275.607 291.601 275.11 291.808 274.592 291.808ZM429.158 316.056C426.357 316.016 423.663 314.97 421.564 313.105C419.465 311.241 418.101 308.682 417.718 305.894C417.718 305.384 417.718 304.913 417.718 304.442C417.442 302.757 417.533 301.031 417.987 299.386C418.44 297.74 419.245 296.213 420.344 294.91C421.444 293.608 422.812 292.562 424.354 291.845C425.896 291.127 427.575 290.755 429.275 290.755C430.974 290.755 432.653 291.127 434.195 291.845C435.737 292.562 437.106 293.608 438.205 294.91C439.305 296.213 440.109 297.74 440.562 299.386C441.016 301.031 441.108 302.757 440.831 304.442C440.867 304.925 440.867 305.41 440.831 305.894C440.492 308.743 439.108 311.364 436.949 313.243C434.791 315.122 432.013 316.125 429.158 316.056Z" fill="#404040"/>
<path d="M429.437 296C427.527 299.146 426.041 302.514 425.016 306.021C424.995 306.319 424.995 306.617 425.016 306.914C425.016 310.282 427.037 313 429.521 313C432.005 313 433.984 310.282 433.984 306.914C434.005 306.617 434.005 306.319 433.984 306.021C432.933 302.503 431.404 299.133 429.437 296ZM430.953 309.064C430.111 309.064 429.437 308.131 429.437 306.995C429.39 306.672 429.39 306.344 429.437 306.021C429.792 305.095 430.229 304.199 430.742 303.344C431.234 304.204 431.656 305.099 432.005 306.021C432.155 306.327 432.24 306.658 432.258 306.995C432.469 308.131 431.795 309.146 430.953 309.146V309.064Z" fill="#404040"/>
<path d="M323.764 323.188C318.238 323.918 312.639 323.918 307.113 323.188C304.989 322.959 302.748 322.576 300.43 322.116C298.923 321.81 297.417 321.427 295.833 321.006L294.635 320.7C287.962 318.823 280.943 318.495 274.122 319.743H273.388H272.692L271.34 320.049C268.703 320.481 266.196 321.488 264 322.997C271.325 322.542 278.679 322.837 285.943 323.877C288.686 324.222 291.622 324.605 294.674 325.064C304.495 326.768 314.584 326.139 324.111 323.227H324.536L325 323.035C324.765 323.131 324.518 323.195 324.266 323.227L323.764 323.188Z" fill="#404040"/>
<path d="M381.061 323.094C379.508 322.785 377.877 322.438 376.246 322.013C374.616 321.589 373.723 321.319 372.364 320.894L368.752 319.621C363.766 317.695 358.432 316.814 353.087 317.033C347.741 317.252 342.499 318.567 337.689 320.894C336.951 321.28 336.252 321.666 335.709 322.013L334.932 322.553L334.233 323.094C334.233 323.094 334 323.364 334 323.441C335.901 323.041 337.853 322.937 339.786 323.132C342.62 323.132 346.387 323.402 350.774 323.865C355.162 324.328 359.084 324.869 363.821 325.756C365.413 326.026 367.044 326.335 368.714 326.721C371.996 327.422 375.337 327.822 378.693 327.917C387.064 328.398 395.423 326.779 403 323.209C401.889 323.629 400.727 323.902 399.544 324.02C393.373 324.681 387.135 324.368 381.061 323.094Z" fill="#404040"/>
</g>
<circle opacity="0.2" cx="864" cy="270" r="270" fill="#4B0731"/>
<circle cx="864" cy="270" r="243" fill="#936A83"/>
<g clip-path="url(#clip0)">
<path d="M825.65 230.758C825.65 230.758 642.183 230.757 624.128 230.758C621.773 243.285 621.376 251.572 621.118 261.854C635.63 261.854 825.65 261.854 825.65 261.854C829.791 261.854 833.762 260.216 836.69 257.3C839.618 254.384 841.262 250.43 841.262 246.306C841.262 242.182 839.618 238.228 836.69 235.312C833.762 232.396 829.791 230.758 825.65 230.758Z" fill="#FFAC42"/>
<path d="M1020.6 209.234L1023.43 210.944H1027.18L1026.75 204.947V204.236V203.925L1026.31 197.417V196.951V196.218V195.618L1025.88 189.776V188.644V187.4L1024.17 162.256C1024.17 161.962 1024.05 161.679 1023.84 161.471C1023.63 161.263 1023.35 161.146 1023.05 161.146C1022.76 161.146 1022.47 161.263 1022.26 161.471C1022.05 161.679 1021.94 161.962 1021.94 162.256L1020.44 184.246V185.356L1019.97 192.309V192.997V193.641L1018.77 211.277H1021L1020.6 209.234ZM1024.06 197.24L1021.31 198.905L1021.65 193.93L1023.88 195.329L1024.06 197.24ZM1024.5 203.636V204.88L1020.73 207.168L1021.13 201.549L1024.5 203.592V203.636ZM1024.97 210.611L1021.11 208.39L1024.66 206.169L1024.97 210.611ZM1024.41 202.304L1021.2 200.349L1024.1 198.572L1024.41 202.304ZM1023.83 193.997L1021.74 192.708V191.909L1023.57 190.82L1023.83 193.997ZM1022.74 178.004L1023.25 185.689L1022.25 185.068L1022.74 178.004ZM1023.36 187L1023.54 189.599L1021.87 190.598L1022.16 186.289L1023.36 187Z" fill="#FFAC42"/>
<path d="M1101.31 168.52C1101.08 168.3 1100.77 168.177 1100.44 168.177C1100.12 168.177 1099.81 168.3 1099.57 168.52L1063.11 207.834H1061.48L1058.31 185.623L1058.13 184.956L1056.62 174.117L1056.44 172.984L1055.06 163.167H1055.99C1056.33 163.161 1056.65 163.026 1056.89 162.79C1057.12 162.553 1057.26 162.235 1057.26 161.901V159.679C1057.26 159.345 1057.12 159.027 1056.89 158.791C1056.65 158.554 1056.33 158.419 1055.99 158.413H1053.36L1051.71 151.905H1052.31C1052.48 151.9 1052.63 151.833 1052.75 151.717C1052.86 151.602 1052.93 151.447 1052.94 151.283V150.173C1052.94 150.008 1052.87 149.85 1052.76 149.733C1052.64 149.616 1052.48 149.551 1052.31 149.551H1051.13L1049.9 144.642C1049.83 144.376 1049.66 144.148 1049.42 144.004C1049.19 143.859 1048.91 143.81 1048.63 143.865C1048.36 143.809 1048.07 143.858 1047.83 144.002C1047.59 144.146 1047.42 144.375 1047.34 144.642L1046.18 149.418H1045C1044.83 149.418 1044.67 149.483 1044.56 149.6C1044.44 149.716 1044.37 149.875 1044.37 150.04V151.15C1044.38 151.313 1044.45 151.468 1044.56 151.584C1044.68 151.699 1044.83 151.767 1045 151.772H1045.58L1043.95 158.302H1041.32C1040.98 158.308 1040.66 158.443 1040.43 158.679C1040.19 158.916 1040.05 159.234 1040.05 159.568V161.79C1040.05 162.124 1040.19 162.442 1040.43 162.678C1040.66 162.915 1040.98 163.05 1041.32 163.056H1042.26L1036.52 203.503H1031.37C1030.78 203.503 1030.21 203.737 1029.79 204.154C1029.38 204.57 1029.14 205.135 1029.14 205.724V210.944H1075.42V210.011C1075.43 209.485 1075.25 208.973 1074.91 208.567C1074.58 208.16 1074.11 207.885 1073.59 207.79L1101.54 170.141C1101.7 169.89 1101.77 169.587 1101.73 169.289C1101.69 168.991 1101.54 168.717 1101.31 168.52ZM1041.1 193.53L1047.45 190.687V197.351L1040.94 194.463L1041.1 193.441V193.53ZM1042.26 185.267L1047.45 183.046V188.11L1042.21 185.756L1042.26 185.267ZM1042.97 180.203L1043.7 179.87L1047.16 181.425L1042.5 183.49L1042.97 180.203ZM1056.57 194.552L1050.04 197.462V190.798L1056.44 193.641L1056.57 194.552ZM1049.97 182.735L1055.15 184.956V185.489L1049.88 187.822L1049.97 182.735ZM1054.43 180.159L1054.88 183.268L1050.82 181.469L1054.1 180.003L1054.43 180.159ZM1049.97 180.159V178.137L1052.2 179.137L1049.97 180.159ZM1047.38 179.892L1045.51 179.07L1047.38 178.226V179.892ZM1040.69 196.129L1046.87 198.883L1039.87 201.993L1040.69 196.129ZM1056.77 196.129L1057.6 201.993L1050.6 198.883L1056.77 196.129ZM1056.17 191.931L1050.4 189.399L1055.46 187.178L1056.17 191.931ZM1054.19 178.293L1050.73 176.76L1053.85 175.361L1054.19 178.293ZM1049.97 175.428V174.295H1052.51L1049.97 175.428ZM1047.38 175.428L1045.15 174.384H1047.38V175.428ZM1046.92 176.894L1043.64 178.293L1043.21 178.115L1043.62 175.361L1046.92 176.894ZM1046.65 189.399L1041.27 191.798L1041.92 187.355L1046.65 189.399ZM1045.73 203.548H1040.14L1047.38 200.327V203.548H1045.73ZM1049.97 200.305L1057.24 203.548H1049.97V200.305ZM1053.41 172.784H1049.97V163.056H1052.05L1053.41 172.784ZM1048.7 148.485L1048.95 149.506H1048.43L1048.7 148.485ZM1047.83 151.861H1049.55L1051.18 158.369H1046.2L1047.83 151.861ZM1047.38 163.1V172.74H1043.97L1045.33 163.056L1047.38 163.1ZM1049.97 207.879V204.947H1058L1058.38 207.746L1049.97 207.879ZM1070.45 207.879H1066.54L1085.88 187.178L1070.45 207.879Z" fill="#FFAC42"/>
<path d="M1027.45 222.672H1014.78V227.825H1027.45V222.672Z" fill="#FFAC42"/>
<path d="M1027.45 231.246H1014.78V235.821H1027.45V231.246Z" fill="#FFAC42"/>
<path d="M1085.34 222.672H1072.68V227.825H1085.34V222.672Z" fill="#FFAC42"/>
<path d="M1085.34 231.246H1072.68V235.821H1085.34V231.246Z" fill="#FFAC42"/>
<path d="M1010.96 221.405H1089.36C1089.78 221.405 1090.19 221.237 1090.49 220.937C1090.8 220.637 1090.96 220.23 1090.96 219.806V213.831C1090.96 213.407 1090.8 213 1090.49 212.7C1090.19 212.4 1089.78 212.232 1089.36 212.232H1010.96C1010.54 212.232 1010.13 212.4 1009.83 212.7C1009.53 213 1009.36 213.407 1009.36 213.831V219.828C1009.36 220.249 1009.54 220.65 1009.84 220.945C1010.14 221.24 1010.54 221.405 1010.96 221.405Z" fill="#FFAC42"/>
<path d="M1085.32 240.886C1085.32 240.886 1085.32 240.886 1085.32 240.753V239.242H1078.99L1077.72 238.931C1076.85 238.709 1075.95 238.532 1075.06 238.354C1074.17 238.176 1073.48 238.065 1072.65 237.954V236.31L1055.68 222.717H1045.56L1027.45 237.243V238.532L1026.24 238.265C1024.52 237.91 1023.05 237.621 1021.96 237.488C1019.57 237.231 1017.16 237.276 1014.78 237.621C1009.85 238.342 1005.07 239.842 1000.62 242.063C1004.35 241.251 1008.18 240.967 1011.99 241.219C1012.86 241.041 1013.8 240.908 1014.82 240.797C1018.4 240.434 1022.01 240.751 1025.46 241.73L1026.6 242.041C1032.24 243.597 1038.13 244.057 1043.95 243.396C1044.21 243.352 1044.46 243.285 1044.71 243.196H1044.91H1044.71C1044.52 243.292 1044.33 243.374 1044.13 243.44C1038.1 245.316 1031.71 245.758 1025.48 244.729C1023.54 244.418 1021.69 244.173 1019.93 243.973C1044.31 249.393 1057.58 248.593 1064.71 246.639C1069.28 246.903 1073.86 246.821 1078.41 246.394C1076.29 246.319 1074.17 246.059 1072.1 245.617L1069.02 244.995C1066.01 244.462 1063.24 244.062 1060.79 243.818C1058 243.529 1055.64 243.396 1053.85 243.351C1052.63 243.223 1051.4 243.29 1050.19 243.551C1050.19 243.551 1050.42 243.24 1050.77 242.974C1053.94 241.038 1057.51 239.864 1061.21 239.544C1064.9 239.224 1068.62 239.767 1072.07 241.13L1072.9 241.419C1073.77 241.73 1074.62 242.019 1075.44 242.263C1080.65 243.891 1086.14 244.45 1091.57 243.907C1093.28 243.423 1094.96 242.806 1096.58 242.063C1092.79 242.429 1088.96 242.028 1085.32 240.886ZM1034.4 240.02L1030.21 239.087L1050.62 222.717L1069.09 237.532C1057.47 236.815 1045.8 237.652 1034.4 240.02Z" fill="#FFAC42"/>
<path d="M875.809 176.383L879.601 177.316L901.48 177.493H905.115V174.495C905.157 174.168 905.318 173.868 905.566 173.65C905.814 173.433 906.134 173.313 906.464 173.313C906.795 173.313 907.115 173.433 907.363 173.65C907.611 173.868 907.771 174.168 907.814 174.495V177.538H910.334V174.495C910.334 174.32 910.369 174.146 910.436 173.985C910.503 173.823 910.602 173.676 910.726 173.552C910.85 173.429 910.998 173.33 911.16 173.263C911.322 173.196 911.496 173.162 911.672 173.162C911.848 173.162 912.022 173.196 912.184 173.263C912.347 173.33 912.494 173.429 912.618 173.552C912.743 173.676 912.841 173.823 912.908 173.985C912.976 174.146 913.01 174.32 913.01 174.495V177.582H915.553V174.472C915.553 174.119 915.694 173.78 915.945 173.53C916.196 173.28 916.536 173.14 916.891 173.14C917.246 173.14 917.586 173.28 917.837 173.53C918.088 173.78 918.229 174.119 918.229 174.472V177.627H920.749V174.495C920.792 174.168 920.952 173.868 921.2 173.65C921.449 173.433 921.768 173.313 922.099 173.313C922.429 173.313 922.749 173.433 922.997 173.65C923.245 173.868 923.406 174.168 923.448 174.495V176.405L925.321 175.094C925.78 174.778 926.325 174.608 926.883 174.606L951.416 174.761V171.963C952.047 171.834 952.615 171.492 953.021 170.994C953.428 170.496 953.649 169.872 953.646 169.231V168.187C953.648 167.487 953.385 166.813 952.91 166.298C952.434 165.783 951.781 165.466 951.081 165.41H925.544V164.211C925.544 163.478 925.254 162.775 924.736 162.255C924.218 161.735 923.514 161.44 922.779 161.434H902.015C901.306 161.428 900.622 161.695 900.107 162.179C899.591 162.663 899.284 163.328 899.249 164.033H919.857C920.1 164.033 920.332 164.129 920.504 164.3C920.675 164.47 920.772 164.702 920.772 164.944C920.775 165.109 920.729 165.272 920.638 165.41C920.559 165.546 920.445 165.659 920.308 165.737C920.171 165.815 920.015 165.856 919.857 165.854H899.227V167.498C899.227 167.631 899.227 167.742 899.227 167.853C899.215 167.949 899.215 168.046 899.227 168.142V169.186C899.225 169.825 899.447 170.445 899.854 170.94C900.261 171.434 900.828 171.772 901.457 171.896V176.338L875.809 176.383Z" fill="#FFAC42"/>
<path d="M955.029 184.689C955.492 182.756 955.68 180.767 955.586 178.781C955.586 178.337 955.586 177.893 955.586 177.448C955.589 177.264 955.555 177.08 955.486 176.909C955.417 176.737 955.315 176.581 955.185 176.449C955.056 176.321 954.903 176.22 954.734 176.152C954.566 176.083 954.385 176.048 954.204 176.049H951.483L926.838 175.894C926.549 175.894 926.267 175.987 926.035 176.16L923.426 177.982L922.021 178.937H901.457L879.422 178.759L870.501 176.538L856.294 173.073H855.96L834.661 173.206C834.375 173.21 834.096 173.3 833.863 173.465C833.63 173.631 833.454 173.863 833.357 174.131C833.26 174.399 833.247 174.69 833.321 174.965C833.394 175.241 833.551 175.487 833.769 175.672L848.823 188.31C848.733 188.643 848.688 188.987 848.689 189.332C848.702 189.829 848.784 190.323 848.934 190.798C852.38 189.852 855.969 189.536 859.528 189.865C861.759 190.154 865.951 191.131 870.858 192.197C879.645 190.465 896.975 187.91 910.267 191.198C917.56 192.997 919.612 193.752 921.865 194.018H953.646C954.774 194.03 955.868 193.637 956.727 192.91C957.587 192.183 958.154 191.171 958.325 190.061C958.496 188.951 958.259 187.817 957.657 186.867C957.056 185.916 956.131 185.214 955.051 184.889L955.029 184.689ZM843.336 177.493H840.147C839.851 177.493 839.568 177.376 839.359 177.168C839.149 176.959 839.032 176.677 839.032 176.382C839.032 176.088 839.149 175.805 839.359 175.597C839.568 175.389 839.851 175.272 840.147 175.272H843.336C843.632 175.272 843.916 175.389 844.125 175.597C844.334 175.805 844.452 176.088 844.452 176.382C844.452 176.677 844.334 176.959 844.125 177.168C843.916 177.376 843.632 177.493 843.336 177.493ZM851.321 177.493H848.154C847.858 177.493 847.574 177.376 847.365 177.168C847.156 176.959 847.039 176.677 847.039 176.382C847.039 176.088 847.156 175.805 847.365 175.597C847.574 175.389 847.858 175.272 848.154 175.272H851.321C851.617 175.272 851.9 175.389 852.109 175.597C852.318 175.805 852.436 176.088 852.436 176.382C852.436 176.677 852.318 176.959 852.109 177.168C851.9 177.376 851.617 177.493 851.321 177.493ZM939.618 191.22C938.018 191.197 936.479 190.605 935.28 189.549C934.081 188.494 933.301 187.046 933.083 185.467C933.083 185.178 933.083 184.912 933.083 184.645C932.925 183.691 932.977 182.714 933.236 181.783C933.495 180.851 933.955 179.986 934.583 179.249C935.211 178.512 935.993 177.92 936.874 177.514C937.755 177.107 938.714 176.897 939.684 176.897C940.655 176.897 941.614 177.107 942.495 177.514C943.376 177.92 944.158 178.512 944.786 179.249C945.414 179.986 945.874 180.851 946.133 181.783C946.392 182.714 946.444 183.691 946.286 184.645C946.307 184.919 946.307 185.193 946.286 185.467C946.092 187.08 945.302 188.564 944.069 189.627C942.835 190.691 941.248 191.259 939.618 191.22Z" fill="#FFAC42"/>
<path d="M939.618 179.981C938.606 181.703 937.819 183.547 937.276 185.467C937.265 185.63 937.265 185.793 937.276 185.956C937.276 187.799 938.346 189.288 939.662 189.288C940.978 189.288 942.026 187.799 942.026 185.956C942.037 185.793 942.037 185.63 942.026 185.467C941.47 183.541 940.66 181.696 939.618 179.981ZM940.421 187.133C939.975 187.133 939.618 186.622 939.618 186C939.593 185.824 939.593 185.644 939.618 185.467C939.806 184.96 940.037 184.47 940.309 184.001C940.569 184.472 940.793 184.962 940.978 185.467C941.057 185.635 941.103 185.816 941.112 186C941.223 186.622 940.867 187.178 940.421 187.178V187.133Z" fill="#FFAC42"/>
<path d="M879.512 195.152C876.322 195.575 873.089 195.575 869.899 195.152C868.672 195.018 867.379 194.796 866.041 194.53C865.171 194.352 864.301 194.13 863.387 193.886L862.695 193.708C858.843 192.619 854.79 192.429 850.853 193.153H850.429H850.027L849.247 193.33C847.724 193.581 846.277 194.165 845.009 195.041C849.238 194.777 853.483 194.948 857.677 195.552C859.261 195.751 860.956 195.974 862.718 196.24C868.387 197.229 874.212 196.863 879.712 195.174H879.958L880.225 195.063C880.09 195.118 879.947 195.156 879.802 195.174L879.512 195.152Z" fill="#FFAC42"/>
<path d="M912.141 195.085C911.248 194.907 910.312 194.707 909.375 194.463C908.438 194.218 907.925 194.063 907.145 193.819L905.071 193.086C902.206 191.977 899.143 191.47 896.073 191.596C893.002 191.722 889.991 192.479 887.228 193.819C886.805 194.041 886.403 194.263 886.091 194.463L885.645 194.774L885.243 195.085C885.243 195.085 885.11 195.24 885.11 195.285C886.201 195.055 887.323 194.995 888.433 195.107C890.061 195.107 892.224 195.262 894.744 195.529C897.265 195.795 899.517 196.106 902.238 196.617C903.153 196.773 904.089 196.95 905.048 197.173C906.934 197.576 908.852 197.806 910.78 197.861C915.588 198.138 920.39 197.206 924.742 195.151C924.104 195.393 923.436 195.55 922.757 195.618C919.212 195.998 915.629 195.818 912.141 195.085Z" fill="#FFAC42"/>
<path d="M846.258 384.04C846.258 384.04 957.237 344.059 1035.12 370.957C1084.3 387.927 1076.65 388.949 1107.02 388.194C1107.02 388.194 1032.51 439.947 905.561 394.99C905.539 394.99 878.307 389.682 846.258 384.04Z" fill="#C5D3E1"/>
<path d="M740.967 388.194C740.967 388.194 782.584 356.498 822.394 363.184C854.332 368.559 966.671 417.647 1015.54 388.194C1015.54 388.194 991.94 453.452 814.633 398.323C814.633 398.323 798.419 372.357 740.967 388.194Z" fill="#ACBAC8"/>
<path d="M909.933 393.524C909.933 394.812 877.415 411.649 835.843 402.409C794.27 393.168 761.552 393.99 761.641 395.301C761.641 392.791 795.274 370.335 835.754 386.416C876.233 402.497 909.866 395.967 909.933 393.524Z" fill="#5C6A78"/>
<path d="M1097.08 394.146C1097.08 396.101 1060.48 421.2 1013.66 407.096C966.849 392.991 929.983 394.191 930.094 396.123C930.094 392.37 968.009 358.852 1013.51 383.218C1059 407.585 1096.99 397.922 1097.08 394.146Z" fill="#6C7A88"/>
<path d="M686.972 297.326C686.972 297.326 756.713 276.158 805.645 290.396C836.557 299.28 831.761 299.924 850.83 299.525C850.83 299.525 803.994 326.912 724.217 303.123C724.217 303.123 707.111 300.302 686.972 297.326Z" fill="#FFAC42"/>
<path d="M1088.04 332.22C1088.04 333.02 1067.59 343.593 1041.47 337.751C1015.36 331.909 994.772 332.465 994.839 333.309C994.839 331.732 1015.98 317.627 1041.41 327.778C1066.83 337.929 1087.98 333.775 1088.04 332.22Z" fill="#FFAC42"/>
<path d="M938.101 284.754C938.101 285.976 915.107 301.746 885.689 292.883C856.272 284.021 833.099 284.776 833.166 285.998C833.166 283.621 856.941 262.564 885.6 277.868C914.259 293.172 938.056 287.131 938.101 284.754Z" fill="#FFAC42"/>
<path d="M654.164 223.827C654.164 223.986 654.101 224.139 653.988 224.251C653.875 224.363 653.722 224.427 653.562 224.427C653.402 224.427 653.249 224.363 653.136 224.251C653.023 224.139 652.96 223.986 652.96 223.827V168.12C652.966 167.965 653.032 167.818 653.144 167.71C653.256 167.603 653.406 167.542 653.562 167.542C653.718 167.542 653.868 167.603 653.98 167.71C654.092 167.818 654.158 167.965 654.164 168.12V223.827Z" fill="#1D2A38"/>
<path d="M657.644 223.827C657.644 223.986 657.58 224.139 657.467 224.251C657.354 224.363 657.201 224.427 657.041 224.427C656.882 224.427 656.729 224.363 656.616 224.251C656.503 224.139 656.439 223.986 656.439 223.827V168.12C656.445 167.965 656.511 167.818 656.623 167.71C656.736 167.603 656.886 167.542 657.041 167.542C657.197 167.542 657.347 167.603 657.46 167.71C657.572 167.818 657.638 167.965 657.644 168.12V223.827Z" fill="#1D2A38"/>
<path d="M658.529 166.942L649.226 170.121C648.76 170.281 648.512 170.786 648.672 171.25L649.657 174.107C649.817 174.571 650.324 174.819 650.79 174.659L660.093 171.48C660.559 171.321 660.807 170.815 660.647 170.351L659.663 167.494C659.503 167.03 658.995 166.783 658.529 166.942Z" fill="#2C3A48"/>
<path d="M749.91 223.494C749.91 223.573 749.895 223.651 749.864 223.723C749.834 223.796 749.79 223.862 749.734 223.918C749.678 223.974 749.612 224.018 749.538 224.048C749.465 224.078 749.387 224.094 749.308 224.094C749.229 224.094 749.151 224.078 749.078 224.048C749.005 224.018 748.938 223.974 748.882 223.918C748.826 223.862 748.782 223.796 748.752 223.723C748.721 223.651 748.706 223.573 748.706 223.494V161.301C748.712 161.146 748.778 160.999 748.89 160.891C749.002 160.784 749.152 160.724 749.308 160.724C749.464 160.724 749.614 160.784 749.726 160.891C749.838 160.999 749.904 161.146 749.91 161.301V223.494Z" fill="#1D2A38"/>
<path d="M750.646 214.32H747.97C747.403 214.32 746.944 214.778 746.944 215.342V226.159C746.944 226.723 747.403 227.181 747.97 227.181H750.646C751.213 227.181 751.672 226.723 751.672 226.159V215.342C751.672 214.778 751.213 214.32 750.646 214.32Z" fill="#2C3A48"/>
<path d="M752.787 182.069C752.783 182.754 752.575 183.421 752.19 183.988C751.805 184.555 751.26 184.996 750.624 185.255C749.988 185.514 749.289 185.579 748.616 185.443C747.942 185.307 747.324 184.975 746.84 184.489C746.356 184.004 746.026 183.386 745.894 182.715C745.762 182.043 745.832 181.348 746.096 180.716C746.36 180.084 746.806 179.544 747.377 179.164C747.949 178.785 748.621 178.582 749.308 178.582C749.767 178.582 750.221 178.672 750.645 178.848C751.068 179.023 751.453 179.281 751.776 179.605C752.099 179.929 752.355 180.313 752.529 180.736C752.702 181.159 752.79 181.612 752.787 182.069Z" fill="#2C3A48"/>
<path d="M748.126 160.679C748.055 160.458 748.034 160.223 748.065 159.993C748.096 159.762 748.178 159.542 748.304 159.346C751.337 154.771 751.427 145.797 748.55 137.001C745.673 128.206 740.275 121.009 735.168 119.099C734.784 118.949 734.474 118.657 734.304 118.284C734.133 117.911 734.115 117.486 734.254 117.1C734.404 116.718 734.697 116.409 735.072 116.239C735.447 116.069 735.873 116.051 736.261 116.189C742.327 118.41 748.327 126.251 751.538 136.046C754.75 145.842 754.527 155.637 750.958 161.034C750.848 161.217 750.701 161.375 750.525 161.497C750.35 161.62 750.152 161.705 749.942 161.747C749.732 161.789 749.515 161.786 749.306 161.74C749.097 161.694 748.9 161.605 748.728 161.479C748.451 161.279 748.241 161 748.126 160.679Z" fill="#FFAC42"/>
<path d="M739.205 140.067L734.744 117.855C734.698 117.605 734.751 117.347 734.893 117.135C735.034 116.924 735.253 116.776 735.502 116.722C735.627 116.696 735.755 116.695 735.88 116.72C736.005 116.744 736.124 116.792 736.23 116.863C736.336 116.933 736.427 117.023 736.497 117.129C736.567 117.235 736.616 117.353 736.64 117.477L741.1 139.489L750.601 159.813C750.709 160.046 750.719 160.312 750.632 160.552C750.544 160.793 750.365 160.991 750.133 161.101C749.899 161.208 749.632 161.219 749.39 161.132C749.149 161.044 748.951 160.866 748.84 160.635L739.205 140.156C739.197 140.126 739.197 140.096 739.205 140.067Z" fill="#FFAC42"/>
<path d="M740.813 132.809L737.379 133.925C736.969 134.059 736.745 134.497 736.879 134.906L740.358 145.527C740.492 145.935 740.933 146.158 741.342 146.025L744.777 144.909C745.187 144.776 745.411 144.337 745.277 143.929L741.798 133.307C741.664 132.899 741.223 132.676 740.813 132.809Z" fill="#FFAC42"/>
<path d="M740.387 136.868C739.985 137.001 739.182 135.668 739.049 135.269L738.736 134.291C738.672 134.1 738.684 133.89 738.772 133.708C738.859 133.526 739.014 133.384 739.205 133.314L747.256 130.715C747.451 130.652 747.664 130.667 747.847 130.759C748.031 130.85 748.171 131.01 748.237 131.204L748.55 132.181C748.613 132.376 748.598 132.587 748.506 132.77C748.414 132.953 748.253 133.093 748.059 133.158L740.387 136.868Z" fill="#FFAC42"/>
<path d="M743.197 145.442C742.999 145.493 742.789 145.469 742.607 145.375C742.426 145.28 742.287 145.122 742.216 144.931L741.903 143.954C741.77 143.554 741.613 142.021 742.037 141.888L750.356 140.378C750.551 140.314 750.764 140.33 750.948 140.421C751.131 140.513 751.271 140.673 751.337 140.866L751.65 141.844C751.713 142.038 751.698 142.25 751.606 142.433C751.514 142.616 751.353 142.755 751.159 142.821L743.197 145.442Z" fill="#FFAC42"/>
<path d="M741.435 141.332C741.513 141.591 741.487 141.871 741.362 142.111C741.237 142.351 741.024 142.534 740.766 142.62L646.849 173.162C646.721 173.21 646.583 173.232 646.446 173.225C646.309 173.219 646.174 173.184 646.051 173.124C645.927 173.063 645.818 172.978 645.729 172.874C645.64 172.77 645.573 172.648 645.533 172.517L644.307 168.808C644.265 168.68 644.249 168.544 644.261 168.41C644.272 168.276 644.31 168.145 644.372 168.025C644.434 167.905 644.519 167.799 644.623 167.712C644.727 167.626 644.846 167.56 644.976 167.52L738.982 136.979C739.239 136.894 739.52 136.914 739.762 137.035C740.004 137.156 740.189 137.367 740.275 137.623L741.435 141.332Z" fill="#4D5A68"/>
<path d="M708.382 156.481C708.382 157.536 708.068 158.568 707.479 159.445C706.89 160.322 706.052 161.005 705.073 161.408C704.094 161.811 703.016 161.915 701.977 161.707C700.938 161.5 699.985 160.99 699.237 160.242C698.489 159.495 697.981 158.543 697.777 157.507C697.573 156.472 697.682 155.399 698.091 154.425C698.499 153.452 699.189 152.621 700.072 152.038C700.955 151.454 701.992 151.146 703.052 151.15C703.754 151.15 704.449 151.288 705.097 151.556C705.745 151.824 706.334 152.217 706.829 152.713C707.324 153.208 707.716 153.796 707.983 154.442C708.25 155.089 708.385 155.782 708.382 156.481Z" fill="#2C3A48"/>
<path d="M714.895 215.631H690.607C690.485 215.634 690.364 215.613 690.25 215.568C690.137 215.524 690.033 215.457 689.946 215.372C689.859 215.288 689.789 215.186 689.742 215.074C689.695 214.962 689.67 214.842 689.67 214.72C689.67 214.473 689.769 214.236 689.945 214.061C690.12 213.886 690.359 213.788 690.607 213.788H714.895C715.017 213.788 715.137 213.812 715.25 213.859C715.362 213.906 715.464 213.975 715.549 214.062C715.634 214.149 715.701 214.252 715.746 214.365C715.791 214.478 715.812 214.599 715.809 214.72C715.809 214.962 715.713 215.194 715.541 215.364C715.37 215.535 715.137 215.631 714.895 215.631Z" fill="#ACBAC8"/>
<path d="M710.211 178.293H695.313C695.191 178.296 695.07 178.274 694.956 178.23C694.842 178.186 694.739 178.119 694.652 178.034C694.564 177.949 694.495 177.848 694.448 177.736C694.4 177.624 694.376 177.504 694.376 177.382C694.376 177.135 694.475 176.897 694.65 176.722C694.826 176.548 695.064 176.449 695.313 176.449H710.211C710.333 176.449 710.454 176.473 710.566 176.521C710.679 176.568 710.78 176.637 710.866 176.724C710.951 176.811 711.018 176.914 711.062 177.027C711.107 177.14 711.128 177.261 711.125 177.382C711.125 177.624 711.029 177.855 710.858 178.026C710.686 178.197 710.454 178.293 710.211 178.293Z" fill="#ACBAC8"/>
<path d="M691.053 214.276C690.838 214.285 690.626 214.218 690.456 214.087C690.285 213.955 690.167 213.768 690.121 213.558C690.076 213.348 690.107 213.129 690.208 212.939C690.309 212.75 690.474 212.602 690.674 212.522L714.047 202.104C714.272 202.006 714.527 202 714.756 202.088C714.986 202.175 715.172 202.348 715.274 202.571C715.326 202.681 715.355 202.801 715.359 202.923C715.363 203.045 715.343 203.166 715.299 203.28C715.256 203.394 715.189 203.498 715.105 203.586C715.02 203.674 714.918 203.744 714.806 203.792L691.432 214.21C691.311 214.255 691.183 214.278 691.053 214.276Z" fill="#ACBAC8"/>
<path d="M714.449 192.042C714.353 192.266 714.179 192.448 713.958 192.553L710.969 193.886L693.439 201.682L692.302 202.193H691.923C691.742 202.194 691.565 202.142 691.415 202.043C691.264 201.944 691.146 201.803 691.075 201.638C691.024 201.529 690.995 201.411 690.991 201.29C690.987 201.17 691.008 201.05 691.051 200.938C691.095 200.826 691.161 200.724 691.246 200.638C691.331 200.552 691.432 200.484 691.544 200.438L693.774 199.461L710.724 191.909L713.244 190.798C713.434 190.708 713.651 190.687 713.855 190.74C714.059 190.792 714.238 190.916 714.359 191.087L714.449 192.042Z" fill="#ACBAC8"/>
<path d="M693.484 192.175C693.269 192.184 693.057 192.117 692.886 191.986C692.716 191.854 692.598 191.667 692.552 191.457C692.507 191.247 692.537 191.028 692.639 190.838C692.74 190.649 692.905 190.501 693.105 190.421L711.638 182.136C711.863 182.038 712.118 182.032 712.348 182.119C712.577 182.206 712.763 182.38 712.865 182.602C712.917 182.713 712.946 182.832 712.95 182.954C712.954 183.076 712.934 183.198 712.89 183.312C712.847 183.426 712.781 183.53 712.696 183.618C712.611 183.706 712.509 183.776 712.397 183.824L693.841 192.109C693.727 192.152 693.606 192.175 693.484 192.175Z" fill="#ACBAC8"/>
<path d="M712.441 177.96C712.352 178.058 712.246 178.141 712.129 178.204L708.94 179.626L695.737 185.49L694.131 186.2C694.007 186.233 693.876 186.233 693.752 186.2C693.571 186.201 693.394 186.149 693.243 186.051C693.093 185.952 692.975 185.811 692.904 185.645C692.806 185.421 692.8 185.167 692.887 184.939C692.975 184.71 693.149 184.525 693.372 184.423L696.027 183.246L708.672 177.627L711.371 176.427C711.507 176.351 711.661 176.312 711.817 176.312C711.973 176.312 712.127 176.351 712.263 176.427L712.441 177.96Z" fill="#ACBAC8"/>
<path d="M714.426 214.276H714.047L690.674 203.792C690.481 203.674 690.338 203.489 690.271 203.273C690.204 203.057 690.219 202.824 690.311 202.618C690.404 202.412 690.569 202.246 690.775 202.151C690.981 202.057 691.215 202.04 691.432 202.104L714.806 212.522C714.918 212.57 715.02 212.64 715.105 212.728C715.19 212.816 715.256 212.92 715.299 213.034C715.343 213.148 715.363 213.269 715.359 213.391C715.355 213.513 715.326 213.633 715.274 213.743C715.198 213.903 715.078 214.038 714.928 214.132C714.778 214.227 714.604 214.276 714.426 214.276Z" fill="#ACBAC8"/>
<path d="M713.177 202.259C713.052 202.282 712.924 202.282 712.798 202.259L691.945 192.975C691.817 192.926 691.701 192.85 691.605 192.752C691.51 192.654 691.437 192.536 691.392 192.407C691.348 192.277 691.332 192.14 691.347 192.004C691.361 191.868 691.406 191.737 691.477 191.62C691.525 191.508 691.595 191.407 691.684 191.322C691.772 191.238 691.877 191.172 691.991 191.128C692.105 191.085 692.227 191.065 692.35 191.069C692.472 191.073 692.592 191.102 692.703 191.154L713.557 200.505C713.757 200.585 713.922 200.733 714.023 200.923C714.124 201.112 714.154 201.331 714.109 201.541C714.064 201.751 713.945 201.938 713.775 202.07C713.604 202.201 713.393 202.268 713.177 202.259Z" fill="#ACBAC8"/>
<path d="M711.75 191.754C711.625 191.777 711.496 191.777 711.371 191.754L693.372 183.735C693.151 183.638 692.977 183.457 692.889 183.232C692.801 183.007 692.807 182.757 692.904 182.536C693.002 182.309 693.186 182.131 693.416 182.039C693.646 181.948 693.903 181.951 694.131 182.047L712.129 190.066C712.352 190.167 712.527 190.352 712.614 190.581C712.702 190.809 712.696 191.063 712.597 191.287C712.51 191.433 712.386 191.553 712.237 191.635C712.088 191.717 711.92 191.758 711.75 191.754Z" fill="#ACBAC8"/>
<path d="M711.126 185.912C711 185.932 710.872 185.932 710.746 185.912L693.997 178.294C693.886 178.245 693.785 178.176 693.701 178.089C693.616 178.002 693.55 177.9 693.506 177.787C693.461 177.675 693.439 177.555 693.441 177.434C693.443 177.313 693.469 177.194 693.518 177.083C693.566 176.972 693.636 176.872 693.723 176.788C693.81 176.704 693.913 176.638 694.026 176.593C694.139 176.549 694.259 176.527 694.381 176.529C694.502 176.531 694.622 176.557 694.733 176.605L711.505 184.069C711.728 184.17 711.902 184.355 711.99 184.584C712.077 184.812 712.071 185.066 711.973 185.29C711.913 185.468 711.8 185.623 711.648 185.735C711.497 185.846 711.314 185.908 711.126 185.912Z" fill="#ACBAC8"/>
<path d="M688.198 227.159H687.908C687.667 227.126 687.435 227.046 687.225 226.923C687.015 226.8 686.832 226.636 686.687 226.442C686.542 226.247 686.437 226.026 686.378 225.791C686.32 225.555 686.309 225.311 686.347 225.071L695.424 161.035C695.496 160.551 695.756 160.114 696.149 159.819C696.541 159.524 697.034 159.394 697.521 159.458C698.009 159.535 698.447 159.798 698.743 160.192C699.039 160.586 699.169 161.08 699.104 161.568L690.139 225.604C690.067 226.057 689.829 226.468 689.47 226.755C689.112 227.043 688.658 227.187 688.198 227.159Z" fill="#8C9AA8"/>
<path d="M717.549 227.158H717.303C716.853 227.158 716.419 226.996 716.079 226.702C715.739 226.408 715.517 226.003 715.452 225.559L710.969 193.841L710.679 191.931L708.94 179.581L708.672 177.671L706.442 161.545C706.374 161.059 706.503 160.566 706.8 160.175C707.096 159.783 707.537 159.525 708.025 159.457C708.513 159.389 709.008 159.518 709.402 159.813C709.795 160.109 710.054 160.548 710.122 161.034L712.352 176.582L712.531 177.96L714.404 191.153L714.538 192.042L719.132 225.093C719.196 225.576 719.065 226.064 718.768 226.451C718.471 226.838 718.033 227.092 717.549 227.158Z" fill="#8C9AA8"/>
<path d="M702.74 227.159C701.87 227.159 701.156 226.737 701.156 226.226V162.256C701.156 161.745 701.87 161.323 702.74 161.323C703.609 161.323 704.301 161.745 704.301 162.256V226.27C704.301 226.781 703.52 227.159 702.74 227.159Z" fill="#8C9AA8"/>
<path d="M711.683 158.924H693.796C692.946 158.924 692.257 159.61 692.257 160.457V163.122C692.257 163.969 692.946 164.655 693.796 164.655H711.683C712.533 164.655 713.222 163.969 713.222 163.122V160.457C713.222 159.61 712.533 158.924 711.683 158.924Z" fill="#EF893A"/>
<path d="M664.134 206.146H644.15C643.3 206.146 642.611 206.833 642.611 207.679V219.918C642.611 220.764 643.3 221.45 644.15 221.45H664.134C664.984 221.45 665.673 220.764 665.673 219.918V207.679C665.673 206.833 664.984 206.146 664.134 206.146Z" fill="#2C3A48"/>
<path d="M750.133 220.762H640.403C638.938 220.762 637.749 221.945 637.749 223.405V229.358C637.749 230.817 638.938 232.001 640.403 232.001H750.133C751.599 232.001 752.787 230.817 752.787 229.358V223.405C752.787 221.945 751.599 220.762 750.133 220.762Z" fill="#1D2A38"/>
<path d="M738.951 135.635L736.455 136.467C735.93 136.642 735.646 137.208 735.822 137.732L737.775 143.545C737.951 144.069 738.52 144.351 739.045 144.176L741.541 143.344C742.067 143.169 742.35 142.603 742.174 142.079L740.221 136.266C740.045 135.742 739.477 135.46 738.951 135.635Z" fill="#5C6A78"/>
<path d="M770.429 223.871C770.429 224.955 770.861 225.995 771.631 226.761C772.4 227.528 773.444 227.958 774.532 227.958C775.071 227.958 775.605 227.853 776.103 227.647C776.601 227.442 777.053 227.141 777.434 226.761C777.815 226.382 778.118 225.931 778.324 225.435C778.53 224.939 778.636 224.408 778.636 223.871V209.834C778.636 209.297 778.53 208.765 778.324 208.27C778.118 207.774 777.815 207.323 777.434 206.944C777.053 206.564 776.601 206.263 776.103 206.058C775.605 205.852 775.071 205.747 774.532 205.747C773.444 205.747 772.4 206.177 771.631 206.944C770.861 207.71 770.429 208.75 770.429 209.834V223.871Z" fill="#3C4A58"/>
<path d="M818.781 233.822C818.781 234.219 818.938 234.6 819.217 234.882C819.497 235.165 819.877 235.327 820.275 235.332C820.666 235.315 821.035 235.149 821.305 234.867C821.575 234.586 821.725 234.211 821.725 233.822V229.38C821.728 229.181 821.691 228.983 821.616 228.798C821.54 228.614 821.429 228.446 821.287 228.305C821.146 228.164 820.978 228.053 820.792 227.978C820.607 227.903 820.408 227.866 820.208 227.869C820.01 227.869 819.814 227.909 819.631 227.985C819.449 228.061 819.283 228.172 819.144 228.313C819.005 228.454 818.895 228.62 818.821 228.803C818.748 228.987 818.711 229.182 818.714 229.38L818.781 233.822Z" fill="#D6741D"/>
<path d="M792.285 225.093H709.943C708.798 225.093 707.869 226.018 707.869 227.158V235.377C707.869 236.518 708.798 237.442 709.943 237.442H792.285C793.431 237.442 794.359 236.518 794.359 235.377V227.158C794.359 226.018 793.431 225.093 792.285 225.093Z" fill="#2C3A48"/>
<path d="M792.285 225.093H709.943C708.798 225.093 707.869 226.018 707.869 227.158V235.377C707.869 236.518 708.798 237.442 709.943 237.442H792.285C793.431 237.442 794.359 236.518 794.359 235.377V227.158C794.359 226.018 793.431 225.093 792.285 225.093Z" fill="#8C9AA8"/>
<path d="M775.804 227.47V198.15C775.757 197.769 775.791 197.382 775.903 197.015C776.015 196.647 776.203 196.307 776.455 196.017C776.707 195.726 777.018 195.491 777.366 195.327C777.715 195.162 778.094 195.073 778.48 195.063H795.742C796.367 195.063 819.495 218.452 819.495 218.452C819.714 218.643 819.889 218.879 820.008 219.143C820.127 219.408 820.188 219.695 820.186 219.985V235.377C820.186 235.649 820.132 235.917 820.028 236.168C819.924 236.418 819.771 236.646 819.579 236.838C819.386 237.03 819.157 237.182 818.906 237.286C818.654 237.389 818.384 237.443 818.112 237.443H801.162C800.61 237.443 800.08 237.226 799.687 236.839C799.295 236.453 799.071 235.927 799.065 235.377V234.089H777.699C777.147 234.089 776.617 233.872 776.225 233.485C775.832 233.099 775.609 232.573 775.603 232.023V228.336C775.61 228.037 775.679 227.742 775.804 227.47Z" fill="#ACBAC8"/>
<path d="M778.703 201.46V210.034C778.703 210.623 778.938 211.188 779.356 211.605C779.774 212.021 780.342 212.255 780.933 212.255H805.154H806.225C808.254 212.055 808.455 211.256 807.474 210.034L796.768 199.15H781.022C780.715 199.138 780.407 199.189 780.12 199.301C779.833 199.412 779.572 199.582 779.354 199.799C779.136 200.016 778.966 200.276 778.854 200.562C778.742 200.848 778.69 201.154 778.703 201.46Z" fill="#5C6A78"/>
<path d="M817.532 218.474H811.979C810.833 218.474 809.905 219.399 809.905 220.54V223.338C809.905 224.479 810.833 225.404 811.979 225.404H817.532C818.678 225.404 819.606 224.479 819.606 223.338V220.54C819.606 219.399 818.678 218.474 817.532 218.474Z" fill="#D9E5F2"/>
<path d="M785.907 215.564H781.313C780.906 215.564 780.577 215.893 780.577 216.297V217.164C780.577 217.569 780.906 217.897 781.313 217.897H785.907C786.313 217.897 786.643 217.569 786.643 217.164V216.297C786.643 215.893 786.313 215.564 785.907 215.564Z" fill="#6C7A88"/>
<path d="M792.531 234.155C792.531 234.214 792.542 234.271 792.565 234.325C792.587 234.379 792.62 234.428 792.661 234.469C792.703 234.511 792.752 234.543 792.806 234.566C792.86 234.588 792.918 234.599 792.977 234.599H794.315C794.433 234.599 794.547 234.553 794.63 234.469C794.714 234.386 794.761 234.273 794.761 234.155C794.761 234.037 794.714 233.924 794.63 233.841C794.547 233.758 794.433 233.711 794.315 233.711H792.977C792.918 233.711 792.86 233.722 792.806 233.745C792.752 233.767 792.703 233.8 792.661 233.841C792.62 233.882 792.587 233.931 792.565 233.985C792.542 234.039 792.531 234.097 792.531 234.155Z" fill="#4D4D4D"/>
<path d="M814.098 220.895C814.095 221.129 814.139 221.361 814.227 221.578C814.316 221.795 814.447 221.992 814.613 222.158C814.78 222.323 814.978 222.454 815.195 222.542C815.413 222.631 815.647 222.675 815.882 222.672H817.265C817.738 222.672 818.192 222.484 818.526 222.151C818.861 221.818 819.049 221.366 819.049 220.895C819.049 220.423 818.861 219.971 818.526 219.638C818.192 219.305 817.738 219.118 817.265 219.118H815.882C815.409 219.118 814.955 219.305 814.62 219.638C814.286 219.971 814.098 220.423 814.098 220.895Z" fill="white"/>
<path d="M785.349 237.443C785.349 239.099 785.842 240.718 786.766 242.095C787.69 243.472 789.003 244.545 790.54 245.179C792.076 245.813 793.767 245.979 795.398 245.656C797.029 245.332 798.527 244.535 799.703 243.364C800.879 242.193 801.68 240.701 802.004 239.076C802.328 237.452 802.162 235.768 801.525 234.238C800.889 232.708 799.811 231.4 798.429 230.48C797.046 229.56 795.42 229.069 793.757 229.069C791.527 229.069 789.389 229.951 787.812 231.521C786.235 233.092 785.349 235.222 785.349 237.443Z" fill="#3C4A58"/>
<path d="M784.123 238.753C784.442 238.753 784.748 238.627 784.974 238.402C785.2 238.177 785.327 237.872 785.327 237.554C785.327 235.327 786.215 233.192 787.796 231.617C789.377 230.042 791.521 229.158 793.757 229.158C795.993 229.158 798.138 230.042 799.719 231.617C801.3 233.192 802.188 235.327 802.188 237.554C802.164 237.724 802.178 237.896 802.227 238.06C802.276 238.224 802.36 238.376 802.473 238.505C802.586 238.634 802.726 238.738 802.883 238.809C803.039 238.88 803.209 238.916 803.381 238.916C803.553 238.916 803.723 238.88 803.88 238.809C804.036 238.738 804.176 238.634 804.289 238.505C804.402 238.376 804.486 238.224 804.535 238.06C804.584 237.896 804.598 237.724 804.574 237.554C804.574 234.697 803.435 231.957 801.406 229.936C799.377 227.916 796.626 226.781 793.757 226.781C790.889 226.781 788.137 227.916 786.109 229.936C784.08 231.957 782.941 234.697 782.941 237.554C782.94 237.868 783.064 238.17 783.285 238.394C783.506 238.619 783.807 238.748 784.123 238.753Z" fill="#7C8A98"/>
<path d="M788.516 237.265C788.516 238.298 788.824 239.307 789.4 240.165C789.975 241.023 790.794 241.693 791.752 242.088C792.709 242.483 793.763 242.586 794.78 242.385C795.797 242.183 796.73 241.686 797.463 240.956C798.196 240.226 798.696 239.296 798.898 238.283C799.1 237.271 798.996 236.221 798.6 235.268C798.203 234.314 797.531 233.499 796.669 232.925C795.807 232.352 794.794 232.045 793.757 232.045C793.069 232.045 792.388 232.18 791.752 232.443C791.116 232.705 790.538 233.09 790.051 233.574C789.565 234.059 789.179 234.634 788.915 235.268C788.652 235.901 788.516 236.58 788.516 237.265Z" fill="#5C6A78"/>
<path d="M719.623 237.443C719.623 239.098 720.116 240.716 721.038 242.093C721.961 243.469 723.273 244.543 724.808 245.177C726.343 245.811 728.033 245.979 729.663 245.657C731.294 245.336 732.792 244.541 733.969 243.372C735.145 242.203 735.948 240.713 736.275 239.09C736.602 237.467 736.439 235.784 735.806 234.254C735.173 232.723 734.098 231.414 732.719 230.491C731.339 229.568 729.715 229.073 728.053 229.069C726.947 229.063 725.849 229.276 724.825 229.694C723.801 230.112 722.871 230.729 722.087 231.507C721.303 232.286 720.682 233.211 720.259 234.23C719.836 235.248 719.62 236.34 719.623 237.443Z" fill="#3C4A58"/>
<path d="M722.79 237.265C722.79 238.297 723.097 239.305 723.672 240.163C724.247 241.021 725.064 241.69 726.02 242.085C726.977 242.481 728.029 242.586 729.045 242.386C730.061 242.187 730.995 241.692 731.729 240.964C732.463 240.236 732.964 239.308 733.169 238.297C733.374 237.286 733.273 236.237 732.88 235.283C732.486 234.329 731.818 233.512 730.959 232.936C730.1 232.36 729.089 232.05 728.053 232.045C727.363 232.043 726.679 232.175 726.041 232.436C725.402 232.697 724.822 233.081 724.333 233.566C723.844 234.051 723.456 234.628 723.191 235.263C722.926 235.897 722.79 236.578 722.79 237.265Z" fill="#5C6A78"/>
<path d="M743.978 193.974C743.978 194.563 744.213 195.128 744.631 195.545C745.049 195.961 745.616 196.195 746.208 196.195H761.039C761.631 196.195 762.198 195.961 762.616 195.545C763.034 195.128 763.269 194.563 763.269 193.974C763.269 193.385 763.034 192.82 762.616 192.403C762.198 191.987 761.631 191.753 761.039 191.753H746.275C745.683 191.753 745.116 191.987 744.698 192.403C744.279 192.82 744.044 193.385 744.044 193.974H743.978Z" fill="#1D2A38"/>
<path d="M768.734 194.441H708.204C705.654 194.441 703.587 196.499 703.587 199.039V223.205C703.587 225.744 705.654 227.803 708.204 227.803H768.734C771.283 227.803 773.35 225.744 773.35 223.205V199.039C773.35 196.499 771.283 194.441 768.734 194.441Z" fill="#5C6A78"/>
<path d="M754.839 194.441H752.765V227.803H754.839V194.441Z" fill="#2C3A48"/>
<path d="M724.15 194.441H722.076V227.803H724.15V194.441Z" fill="#2C3A48"/>
<path d="M728.343 209.811C728.339 211.767 728.917 213.68 730.005 215.309C731.093 216.937 732.641 218.207 734.455 218.959C736.268 219.71 738.264 219.909 740.191 219.53C742.117 219.152 743.888 218.212 745.278 216.83C746.668 215.449 747.616 213.688 748.001 211.77C748.385 209.852 748.19 207.863 747.44 206.056C746.689 204.249 745.417 202.704 743.784 201.617C742.152 200.529 740.232 199.949 738.268 199.949C735.64 199.949 733.119 200.988 731.258 202.836C729.398 204.685 728.349 207.194 728.343 209.811Z" fill="#E9EFF7"/>
<path d="M734.744 211.788C734.744 214.564 736.35 216.808 738.313 216.808C740.275 216.808 741.881 214.587 741.881 211.788C741.881 208.989 738.313 202.903 738.313 202.903C738.313 202.903 734.744 209.012 734.744 211.788Z" fill="#2C3A48"/>
<path d="M735.859 211.878C735.859 212.811 736.395 213.566 737.064 213.566C737.733 213.566 738.268 212.811 738.268 211.878C738.009 210.806 737.572 209.785 736.974 208.857C736.439 209.796 736.063 210.817 735.859 211.878Z" fill="white"/>
<path d="M718.285 225.848C718.439 225.848 718.586 225.787 718.695 225.679C718.804 225.57 718.865 225.424 718.865 225.27V192.597C718.865 192.444 718.804 192.297 718.695 192.189C718.586 192.08 718.439 192.02 718.285 192.02C718.208 192.016 718.131 192.029 718.059 192.057C717.988 192.085 717.922 192.127 717.868 192.182C717.813 192.236 717.771 192.301 717.743 192.372C717.715 192.444 717.702 192.52 717.705 192.597V225.27C717.705 225.424 717.766 225.57 717.875 225.679C717.984 225.787 718.131 225.848 718.285 225.848Z" fill="#3C4A58"/>
<path d="M711.46 225.848C711.614 225.848 711.761 225.787 711.87 225.679C711.979 225.57 712.04 225.424 712.04 225.27V192.597C712.043 192.52 712.03 192.444 712.002 192.372C711.974 192.301 711.932 192.236 711.877 192.182C711.823 192.127 711.758 192.085 711.686 192.057C711.614 192.029 711.537 192.016 711.46 192.02C711.306 192.02 711.159 192.08 711.05 192.189C710.941 192.297 710.88 192.444 710.88 192.597V225.27C710.88 225.424 710.941 225.57 711.05 225.679C711.159 225.787 711.306 225.848 711.46 225.848Z" fill="#3C4A58"/>
<path d="M711.46 196.863H718.285C718.439 196.863 718.586 196.802 718.695 196.693C718.804 196.585 718.865 196.438 718.865 196.285C718.865 196.132 718.804 195.985 718.695 195.877C718.586 195.768 718.439 195.708 718.285 195.708H711.46C711.306 195.708 711.159 195.768 711.05 195.877C710.941 195.985 710.88 196.132 710.88 196.285C710.88 196.438 710.941 196.585 711.05 196.693C711.159 196.802 711.306 196.863 711.46 196.863Z" fill="#3C4A58"/>
<path d="M711.46 201.904H718.285C718.439 201.904 718.586 201.843 718.695 201.735C718.804 201.627 718.865 201.48 718.865 201.327C718.865 201.173 718.804 201.026 718.695 200.918C718.586 200.81 718.439 200.749 718.285 200.749H711.46C711.306 200.749 711.159 200.81 711.05 200.918C710.941 201.026 710.88 201.173 710.88 201.327C710.88 201.48 710.941 201.627 711.05 201.735C711.159 201.843 711.306 201.904 711.46 201.904Z" fill="#3C4A58"/>
<path d="M711.46 206.968H718.285C718.439 206.968 718.586 206.907 718.695 206.799C718.804 206.691 718.865 206.544 718.865 206.39C718.865 206.237 718.804 206.09 718.695 205.982C718.586 205.874 718.439 205.813 718.285 205.813H711.46C711.306 205.813 711.159 205.874 711.05 205.982C710.941 206.09 710.88 206.237 710.88 206.39C710.88 206.544 710.941 206.691 711.05 206.799C711.159 206.907 711.306 206.968 711.46 206.968Z" fill="#3C4A58"/>
<path d="M711.46 212.033H718.285C718.439 212.033 718.586 211.972 718.695 211.864C718.804 211.755 718.865 211.609 718.865 211.455C718.865 211.302 718.804 211.155 718.695 211.047C718.586 210.939 718.439 210.878 718.285 210.878H711.46C711.306 210.878 711.159 210.939 711.05 211.047C710.941 211.155 710.88 211.302 710.88 211.455C710.88 211.609 710.941 211.755 711.05 211.864C711.159 211.972 711.306 212.033 711.46 212.033Z" fill="#3C4A58"/>
<path d="M711.46 217.097H718.285C718.439 217.097 718.586 217.036 718.695 216.928C718.804 216.819 718.865 216.673 718.865 216.519C718.865 216.366 718.804 216.219 718.695 216.111C718.586 216.003 718.439 215.942 718.285 215.942H711.46C711.306 215.942 711.159 216.003 711.05 216.111C710.941 216.219 710.88 216.366 710.88 216.519C710.88 216.673 710.941 216.819 711.05 216.928C711.159 217.036 711.306 217.097 711.46 217.097Z" fill="#3C4A58"/>
<path d="M780.577 212.343V204.28C780.577 203.65 780.828 203.046 781.275 202.6C781.723 202.154 782.33 201.904 782.963 201.904C783.596 201.904 784.203 202.154 784.65 202.6C785.098 203.046 785.349 203.65 785.349 204.28V212.343H780.577Z" fill="#3C4A58"/>
<path d="M800.604 211.899H800.783C800.934 211.877 801.079 211.826 801.21 211.749C801.341 211.671 801.455 211.568 801.546 211.447C801.637 211.325 801.704 211.186 801.741 211.039C801.778 210.892 801.786 210.739 801.764 210.589C801.753 210.471 801.753 210.352 801.764 210.233C801.75 209.806 801.861 209.383 802.083 209.017C802.304 208.651 802.627 208.356 803.013 208.168C803.285 208.023 803.489 207.777 803.578 207.484C803.668 207.19 803.637 206.873 803.493 206.602C803.348 206.331 803.101 206.128 802.806 206.039C802.511 205.949 802.192 205.98 801.92 206.124C801.167 206.511 800.536 207.098 800.095 207.819C799.655 208.539 799.422 209.367 799.422 210.211C799.399 210.44 799.399 210.671 799.422 210.9C799.461 211.182 799.603 211.441 799.821 211.625C800.039 211.81 800.318 211.907 800.604 211.899Z" fill="#3C4A58"/>
<path d="M736.194 354.343H870.189C871.182 354.343 872.165 354.538 873.082 354.916C874 355.294 874.833 355.849 875.535 356.548C876.237 357.247 876.794 358.077 877.174 358.991C877.554 359.905 877.75 360.884 877.75 361.873V371.535C877.75 372.523 877.554 373.503 877.174 374.416C876.794 375.33 876.237 376.16 875.535 376.859C874.833 377.558 874 378.113 873.082 378.491C872.165 378.87 871.182 379.064 870.189 379.064H736.194C735.2 379.067 734.216 378.875 733.297 378.497C732.378 378.12 731.544 377.565 730.841 376.866C730.138 376.166 729.582 375.334 729.203 374.42C728.824 373.505 728.63 372.524 728.633 371.535V361.828C728.633 359.831 729.43 357.916 730.848 356.504C732.266 355.092 734.189 354.298 736.194 354.298V354.343Z" fill="#D6741D"/>
<path d="M961.809 335.707H838.853C835.331 335.707 832.475 338.551 832.475 342.06V372.578C832.475 376.087 835.331 378.931 838.853 378.931H961.809C965.332 378.931 968.187 376.087 968.187 372.578V342.06C968.187 338.551 965.332 335.707 961.809 335.707Z" fill="#D6741D"/>
<path d="M833.858 324.557H966.916C968.921 324.557 970.845 325.35 972.262 326.763C973.68 328.175 974.477 330.09 974.477 332.087V334.908C974.477 336.905 973.68 338.82 972.262 340.232C970.845 341.644 968.921 342.438 966.916 342.438H833.858C831.859 342.438 829.941 341.647 828.527 340.239C827.114 338.831 826.319 336.921 826.319 334.93V332.087C826.317 331.099 826.509 330.12 826.887 329.207C827.264 328.294 827.819 327.463 828.52 326.764C829.22 326.064 830.052 325.509 830.968 325.131C831.884 324.752 832.866 324.557 833.858 324.557Z" fill="#FFAC42"/>
<path d="M897.8 321.247V330.132C897.794 332.127 896.995 334.039 895.579 335.45C894.162 336.861 892.243 337.656 890.239 337.662H833.835C831.989 337.648 830.211 336.963 828.836 335.736C827.46 334.509 826.581 332.825 826.364 330.998C826.364 330.687 826.364 330.376 826.364 330.043V321.158C826.343 321.011 826.343 320.862 826.364 320.714C826.504 318.834 827.352 317.077 828.737 315.792C830.122 314.507 831.943 313.79 833.835 313.784H890.239C892.233 313.784 894.146 314.568 895.562 315.966C896.978 317.364 897.782 319.262 897.8 321.247Z" fill="#FFAC42"/>
<path d="M849.648 361.318C849.648 362.28 849.266 363.203 848.585 363.885C847.904 364.568 846.979 364.954 846.013 364.96C845.043 364.96 844.113 364.576 843.427 363.893C842.741 363.21 842.355 362.284 842.355 361.318V349.19C842.355 348.713 842.45 348.24 842.634 347.799C842.818 347.359 843.088 346.958 843.428 346.622C843.768 346.285 844.171 346.019 844.615 345.839C845.059 345.658 845.534 345.566 846.013 345.569C846.977 345.569 847.902 345.951 848.583 346.63C849.265 347.309 849.648 348.23 849.648 349.19V361.318Z" fill="#C5D3E1"/>
<path d="M863.788 361.318C863.788 362.284 863.403 363.21 862.717 363.893C862.031 364.576 861.101 364.96 860.131 364.96C859.164 364.954 858.24 364.568 857.559 363.885C856.878 363.203 856.495 362.28 856.495 361.318V349.19C856.495 348.23 856.878 347.309 857.56 346.63C858.242 345.951 859.166 345.569 860.131 345.569C860.61 345.566 861.085 345.658 861.529 345.839C861.972 346.019 862.376 346.285 862.716 346.622C863.056 346.958 863.325 347.359 863.509 347.799C863.694 348.24 863.788 348.713 863.788 349.19V361.318Z" fill="#C5D3E1"/>
<path d="M877.928 361.317C877.922 362.282 877.535 363.205 876.85 363.887C876.166 364.569 875.239 364.954 874.271 364.96C873.304 364.954 872.38 364.568 871.699 363.885C871.017 363.203 870.635 362.28 870.635 361.317V349.19C870.635 348.23 871.018 347.309 871.7 346.63C872.382 345.951 873.306 345.569 874.271 345.569C875.237 345.569 876.164 345.95 876.849 346.628C877.534 347.307 877.922 348.228 877.928 349.19V361.317Z" fill="#C5D3E1"/>
<path d="M892.046 361.317C892.023 362.264 891.63 363.164 890.951 363.828C890.273 364.491 889.361 364.865 888.41 364.871C887.444 364.865 886.52 364.479 885.839 363.796C885.157 363.114 884.775 362.19 884.775 361.228V349.1C884.775 348.14 885.158 347.219 885.84 346.54C886.522 345.861 887.446 345.48 888.41 345.48C889.375 345.48 890.299 345.861 890.981 346.54C891.663 347.219 892.046 348.14 892.046 349.1V361.317Z" fill="#C5D3E1"/>
<path d="M977.845 376.865C979.091 371.615 979.609 366.219 979.383 360.829C979.383 359.629 979.383 358.43 979.383 357.208C979.392 356.71 979.301 356.214 979.116 355.751C978.93 355.288 978.654 354.866 978.303 354.511C977.952 354.155 977.534 353.872 977.072 353.68C976.611 353.487 976.115 353.388 975.614 353.388L901.391 352.966C900.595 352.943 899.812 353.177 899.16 353.632L888.232 361.206L772.659 360.296L709.832 344.881C709.54 344.811 709.24 344.774 708.94 344.77L651.131 345.169C650.351 345.164 649.588 345.399 648.947 345.844C648.307 346.289 647.821 346.92 647.557 347.652C647.293 348.383 647.263 349.178 647.472 349.927C647.68 350.676 648.117 351.342 648.722 351.833L689.559 386.128C689.347 387.053 689.234 387.999 689.224 388.949C689.224 392.318 690.568 395.55 692.961 397.932C695.353 400.315 698.598 401.654 701.981 401.654H946.063C946.226 401.666 946.39 401.666 946.554 401.654C946.821 401.654 947.044 401.654 947.312 401.654H973.964C977.036 401.711 980.026 400.658 982.379 398.689C984.732 396.721 986.289 393.97 986.763 390.946C987.236 387.922 986.594 384.829 984.954 382.241C983.314 379.652 980.789 377.742 977.845 376.865Z" fill="#2C3A48"/>
<path d="M953.869 376.71C953.869 380.224 952.823 383.66 950.862 386.582C948.902 389.504 946.115 391.782 942.855 393.127C939.595 394.471 936.007 394.823 932.546 394.138C929.085 393.452 925.906 391.76 923.411 389.275C920.915 386.79 919.216 383.623 918.528 380.176C917.839 376.73 918.192 373.157 919.543 369.91C920.893 366.663 923.18 363.888 926.114 361.935C929.048 359.983 932.498 358.94 936.027 358.94C940.759 358.94 945.297 360.813 948.643 364.145C951.989 367.477 953.869 371.997 953.869 376.71Z" fill="#E9EFF7"/>
<path d="M942.383 380.264C942.383 385.283 939.506 389.348 935.938 389.348C932.369 389.348 929.492 385.283 929.492 380.264C929.492 375.244 935.938 364.071 935.938 364.071C935.938 364.071 942.383 375.244 942.383 380.264Z" fill="#2C3A48"/>
<path d="M940.287 380.42C940.287 382.108 939.305 383.485 938.056 383.485C936.807 383.485 935.826 382.108 935.826 380.42C936.259 378.487 937.013 376.64 938.056 374.956C939.097 376.642 939.851 378.488 940.287 380.42Z" fill="white"/>
<path d="M677.672 354.343C677.672 355.132 677.357 355.889 676.796 356.447C676.236 357.006 675.476 357.319 674.683 357.319H666.052C665.257 357.319 664.495 357.006 663.931 356.449C663.367 355.891 663.047 355.134 663.041 354.343C663.041 353.548 663.358 352.785 663.923 352.222C664.487 351.66 665.253 351.344 666.052 351.344H674.683C675.077 351.344 675.468 351.422 675.832 351.573C676.196 351.724 676.526 351.945 676.804 352.224C677.082 352.503 677.302 352.833 677.45 353.197C677.599 353.561 677.674 353.95 677.672 354.343Z" fill="#BCCAD8"/>
<path d="M699.394 354.343C699.388 355.134 699.069 355.891 698.505 356.449C697.941 357.006 697.178 357.319 696.383 357.319H687.752C686.96 357.319 686.199 357.006 685.639 356.447C685.078 355.889 684.764 355.132 684.764 354.343C684.761 353.95 684.836 353.561 684.985 353.197C685.134 352.833 685.353 352.503 685.631 352.224C685.909 351.945 686.239 351.724 686.603 351.573C686.967 351.422 687.358 351.344 687.752 351.344H696.383C697.182 351.344 697.948 351.66 698.512 352.222C699.077 352.785 699.394 353.548 699.394 354.343Z" fill="#BCCAD8"/>
<path d="M884.775 323.291C884.758 323.941 884.488 324.559 884.022 325.015C883.556 325.471 882.93 325.729 882.277 325.734H826.297V321.292C826.276 321.144 826.276 320.995 826.297 320.848H882.232C882.561 320.839 882.889 320.895 883.195 321.014C883.502 321.132 883.782 321.31 884.018 321.538C884.255 321.765 884.444 322.038 884.574 322.339C884.704 322.64 884.772 322.963 884.775 323.291Z" fill="#E9EFF7"/>
<path d="M937.186 229.379L937.41 232.645L939.952 231.068L937.186 229.379ZM938.145 243.462L938.302 245.572L939.952 244.55L938.145 243.462ZM939.105 257.522V258.499L939.863 258.033L939.105 257.522ZM937.186 229.379L937.41 232.645L939.952 231.068L937.186 229.379ZM938.145 243.462L938.302 245.572L939.952 244.55L938.145 243.462ZM939.105 257.522V258.499L939.863 258.033L939.105 257.522ZM937.186 229.379L937.41 232.645L939.952 231.068L937.186 229.379ZM938.302 245.572L939.952 244.55L938.145 243.462L938.302 245.572ZM939.171 258.499L939.93 258.033L939.105 257.522L939.171 258.499ZM943.275 264.474L942.874 258.255L942.004 245.527V244.35V243.817V243.617L941.268 232.511V231.712V230.446V229.446L940.599 219.562L940.465 217.652V217.496L940.309 215.408L937.41 172.851C937.41 172.368 937.217 171.904 936.874 171.563C936.531 171.221 936.066 171.029 935.581 171.029C935.096 171.029 934.63 171.221 934.288 171.563C933.945 171.904 933.752 172.368 933.752 172.851L931.209 210.055L931.076 211.921L930.25 223.715V223.96V224.848V225.959L927.574 264.807C927.56 265.322 927.743 265.822 928.087 266.206C928.261 266.386 928.468 266.529 928.698 266.628C928.928 266.728 929.175 266.78 929.425 266.784H942.048C942.292 266.784 942.532 266.736 942.757 266.644C942.981 266.551 943.186 266.415 943.357 266.244C943.529 266.073 943.666 265.87 943.759 265.646C943.852 265.422 943.9 265.182 943.9 264.94C943.741 264.712 943.526 264.528 943.275 264.407V264.474ZM930.875 263.119L931.566 252.924V251.769V250.836V249.525L932.235 239.997L932.369 237.931V237.731L932.503 235.51L933.083 227.092L933.217 225.048L933.328 223.693L933.462 221.472L933.975 214.187L934.109 212.143L934.934 200.171L935.826 213.165L935.982 215.386L936.272 219.828L936.406 221.894L936.763 227.269L936.941 229.491L937.164 232.756L937.298 234.821L937.744 241.307L937.9 243.528L938.056 245.638L938.19 247.704L938.703 255.323L938.859 257.544V258.521L939.015 260.587L939.171 263.141L930.875 263.119ZM939.105 257.522V258.499L939.863 258.033L939.105 257.522ZM938.145 243.462L938.302 245.572L939.952 244.55L938.145 243.462ZM937.186 229.379L937.41 232.645L939.952 231.068L937.186 229.379ZM939.105 257.522V258.499L939.863 258.033L939.105 257.522ZM938.145 243.462L938.302 245.572L939.952 244.55L938.145 243.462ZM937.186 229.379L937.41 232.645L939.952 231.068L937.186 229.379ZM939.105 257.522V258.499L939.863 258.033L939.105 257.522ZM938.145 243.462L938.302 245.572L939.952 244.55L938.145 243.462ZM937.186 229.379L937.41 232.645L939.952 231.068L937.186 229.379Z" fill="#2C3A48"/>
<path d="M929.395 249.386L928.43 250.958L940.494 258.304L941.459 256.731L929.395 249.386Z" fill="#2C3A48"/>
<path d="M929.895 236.192L928.93 237.765L940.995 245.108L941.961 243.535L929.895 236.192Z" fill="#2C3A48"/>
<path d="M941.045 231.668L939.952 231.002L937.187 229.314L933.328 226.959L930.652 225.338L929.782 224.805L929.827 223.916L930.072 223.539L930.384 223.028L930.652 223.206L932.414 224.272L933.462 224.894L937.008 227.07L940.889 229.425L940.956 230.402L941.045 231.668Z" fill="#2C3A48"/>
<path d="M940.086 217.608L939.952 217.541L936.228 215.253L934.22 214.032L930.674 211.877L930.808 210.011L930.897 209.856L934.354 211.988L936.049 213.01L939.93 215.364L940.064 217.452L940.086 217.608Z" fill="#2C3A48"/>
<path d="M941.985 256.683L929.921 264.029L930.887 265.602L942.951 258.256L941.985 256.683Z" fill="#C5D3E1"/>
<path d="M941.982 245.417L938.436 247.571L932.436 251.214L931.656 251.702L930.652 252.302L930.384 252.458L930.072 251.947L929.425 250.881L930.652 250.125L931.789 249.459L938.302 245.505L939.952 244.484L941.491 243.551L941.714 243.928L941.893 244.217V244.239L941.982 245.417Z" fill="#2C3A48"/>
<path d="M941.112 232.467L937.543 234.644L932.614 237.642L932.436 237.753L930.674 238.82L929.893 239.308L928.979 237.82L928.957 237.753L928.934 237.731L928.979 237.687L930.674 236.665L932.748 235.377L937.409 232.578L939.952 231.001L940.956 230.401L941.045 231.667L941.112 232.467Z" fill="#2C3A48"/>
<path d="M940.22 219.518L936.651 221.695L933.574 223.561L932.414 224.272L930.652 225.338L929.715 225.915L929.782 224.805L929.827 223.916L929.849 223.672L930.072 223.539L930.652 223.205L933.707 221.317L936.518 219.629L939.952 217.541L940.064 217.453L940.086 217.608L940.22 219.518Z" fill="#2C3A48"/>
<path d="M1014.91 257.544C1014.76 257.565 1014.6 257.565 1014.44 257.544L1003.6 255.123C1003.24 255.043 1002.9 254.867 1002.63 254.613C1002.35 254.359 1002.15 254.037 1002.04 253.679C1001.94 253.32 1001.93 252.94 1002.01 252.575C1002.09 252.21 1002.26 251.872 1002.51 251.591L1065.18 184.223C1065.55 183.817 1066.06 183.568 1066.6 183.531C1067.15 183.493 1067.69 183.67 1068.1 184.023C1068.51 184.382 1068.77 184.876 1068.83 185.411C1068.9 185.946 1068.77 186.487 1068.46 186.933L1016.63 256.678C1016.43 256.941 1016.17 257.155 1015.87 257.305C1015.57 257.455 1015.24 257.536 1014.91 257.544ZM1008.22 251.702L1014.06 253.013L1042.03 215.253L1008.22 251.702Z" fill="#2C3A48"/>
<path d="M995.999 245.728H962.233C962.063 245.728 961.895 245.695 961.738 245.63C961.581 245.565 961.438 245.47 961.318 245.351C961.198 245.231 961.103 245.089 961.038 244.933C960.973 244.776 960.939 244.609 960.939 244.44C960.939 244.27 960.973 244.103 961.038 243.947C961.103 243.79 961.198 243.648 961.318 243.529C961.438 243.409 961.581 243.314 961.738 243.249C961.895 243.185 962.063 243.151 962.233 243.151H996.066C996.409 243.151 996.738 243.287 996.981 243.529C997.223 243.77 997.359 244.098 997.359 244.44C997.359 244.781 997.223 245.109 996.981 245.351C996.738 245.592 996.409 245.728 996.066 245.728H995.999Z" fill="#1D2A38"/>
<path d="M989.442 193.686H968.723C968.38 193.686 968.051 193.55 967.808 193.309C967.565 193.067 967.429 192.739 967.429 192.398C967.429 192.056 967.565 191.728 967.808 191.487C968.051 191.245 968.38 191.109 968.723 191.109H989.442C989.785 191.109 990.114 191.245 990.357 191.487C990.599 191.728 990.736 192.056 990.736 192.398C990.736 192.739 990.599 193.067 990.357 193.309C990.114 193.55 989.785 193.686 989.442 193.686Z" fill="#1D2A38"/>
<path d="M962.812 243.84C962.563 243.844 962.317 243.774 962.107 243.64C961.897 243.505 961.731 243.312 961.63 243.085C961.559 242.93 961.52 242.763 961.514 242.593C961.508 242.424 961.536 242.254 961.596 242.095C961.657 241.937 961.748 241.791 961.864 241.667C961.981 241.543 962.122 241.444 962.277 241.374L994.839 226.892C995.15 226.757 995.502 226.748 995.819 226.869C996.136 226.989 996.393 227.229 996.534 227.536C996.605 227.691 996.644 227.858 996.65 228.028C996.656 228.197 996.628 228.367 996.568 228.526C996.508 228.685 996.417 228.83 996.3 228.954C996.183 229.078 996.043 229.177 995.887 229.247L963.325 243.729C963.164 243.8 962.989 243.837 962.812 243.84Z" fill="#1D2A38"/>
<path d="M995.375 212.855C995.252 213.168 995.012 213.423 994.706 213.565L990.535 215.409L966.113 226.27L964.53 226.981C964.354 227.023 964.171 227.023 963.995 226.981C963.746 226.979 963.503 226.907 963.294 226.774C963.085 226.64 962.918 226.45 962.813 226.226C962.675 225.913 962.666 225.559 962.787 225.24C962.908 224.921 963.149 224.661 963.459 224.516L966.537 223.161L990.156 212.655L993.635 211.1C993.902 210.981 994.202 210.955 994.486 211.028C994.769 211.101 995.02 211.267 995.196 211.5L995.375 212.855Z" fill="#1D2A38"/>
<path d="M966.158 213.054C965.907 213.05 965.662 212.975 965.453 212.837C965.244 212.7 965.078 212.505 964.976 212.277C964.906 212.123 964.868 211.956 964.864 211.787C964.86 211.618 964.89 211.449 964.953 211.292C965.015 211.135 965.108 210.991 965.227 210.871C965.346 210.75 965.488 210.654 965.645 210.589L991.472 199.061C991.785 198.919 992.142 198.908 992.464 199.029C992.786 199.15 993.047 199.393 993.189 199.705C993.331 200.017 993.343 200.373 993.221 200.694C993.1 201.014 992.856 201.274 992.542 201.415L966.693 212.943C966.523 213.012 966.342 213.049 966.158 213.054Z" fill="#1D2A38"/>
<path d="M992.587 193.241C992.462 193.381 992.31 193.495 992.141 193.575L987.68 195.551L969.28 203.747L967.05 204.725C966.88 204.793 966.698 204.831 966.515 204.836C966.217 204.838 965.928 204.738 965.696 204.553C965.464 204.368 965.303 204.109 965.24 203.82C965.178 203.53 965.217 203.228 965.351 202.964C965.486 202.7 965.708 202.491 965.979 202.37L969.682 200.727L987.279 192.886L991.048 191.22C991.236 191.117 991.447 191.063 991.661 191.063C991.876 191.063 992.087 191.117 992.274 191.22L992.587 193.241Z" fill="#1D2A38"/>
<path d="M995.352 243.84C995.182 243.869 995.009 243.869 994.839 243.84L962.233 229.247C961.922 229.102 961.681 228.842 961.56 228.522C961.44 228.203 961.449 227.849 961.586 227.536C961.727 227.229 961.984 226.989 962.301 226.869C962.618 226.748 962.97 226.757 963.281 226.892L995.843 241.374C996.115 241.495 996.336 241.704 996.471 241.968C996.605 242.232 996.645 242.534 996.582 242.824C996.519 243.113 996.358 243.372 996.126 243.557C995.894 243.742 995.605 243.842 995.308 243.84H995.352Z" fill="#1D2A38"/>
<path d="M993.613 227.158C993.437 227.2 993.253 227.2 993.077 227.158L964.084 214.231C963.927 214.166 963.785 214.07 963.666 213.949C963.547 213.829 963.454 213.685 963.391 213.528C963.329 213.371 963.299 213.202 963.303 213.033C963.307 212.864 963.345 212.697 963.415 212.543C963.482 212.386 963.581 212.244 963.704 212.126C963.828 212.007 963.973 211.914 964.133 211.852C964.293 211.79 964.464 211.76 964.635 211.765C964.807 211.769 964.975 211.807 965.132 211.877L994.126 224.804C994.44 224.945 994.686 225.203 994.811 225.523C994.936 225.843 994.93 226.199 994.795 226.514C994.676 226.72 994.503 226.888 994.295 227.002C994.086 227.115 993.85 227.17 993.613 227.158Z" fill="#1D2A38"/>
<path d="M991.605 212.432C991.437 212.474 991.261 212.474 991.092 212.432L966.024 201.326C965.711 201.185 965.466 200.925 965.345 200.605C965.224 200.284 965.235 199.928 965.377 199.616C965.519 199.304 965.78 199.061 966.102 198.94C966.424 198.819 966.781 198.831 967.095 198.972L992.141 210.078C992.451 210.223 992.692 210.483 992.813 210.802C992.934 211.122 992.924 211.475 992.787 211.788C992.673 211.997 992.501 212.168 992.291 212.283C992.082 212.397 991.844 212.449 991.605 212.432Z" fill="#1D2A38"/>
<path d="M990.758 204.303C990.58 204.311 990.403 204.272 990.245 204.192L966.871 193.841C966.558 193.7 966.314 193.44 966.192 193.119C966.071 192.799 966.083 192.443 966.225 192.131C966.367 191.819 966.627 191.575 966.949 191.455C967.271 191.334 967.629 191.345 967.942 191.487L991.226 201.837C991.536 201.982 991.778 202.242 991.898 202.562C992.019 202.881 992.01 203.235 991.873 203.548C991.773 203.762 991.616 203.945 991.42 204.078C991.224 204.211 990.995 204.289 990.758 204.303Z" fill="#1D2A38"/>
<path d="M958.82 261.831H958.464C958.125 261.787 957.798 261.677 957.502 261.507C957.206 261.337 956.947 261.11 956.739 260.839C956.532 260.569 956.381 260.26 956.294 259.931C956.207 259.602 956.186 259.258 956.233 258.921L968.924 169.697C968.972 169.361 969.086 169.039 969.26 168.747C969.433 168.456 969.663 168.201 969.935 167.998C970.207 167.795 970.517 167.647 970.847 167.563C971.176 167.479 971.52 167.461 971.856 167.509C972.193 167.557 972.517 167.671 972.81 167.844C973.103 168.017 973.358 168.245 973.562 168.516C973.766 168.788 973.915 169.096 973.999 169.425C974.083 169.753 974.101 170.094 974.053 170.43L961.408 259.61C961.316 260.228 961.005 260.793 960.53 261.201C960.054 261.609 959.448 261.832 958.82 261.831Z" fill="#2C3A48"/>
<path d="M999.701 261.809H999.344C998.722 261.8 998.123 261.572 997.654 261.166C997.184 260.759 996.874 260.2 996.78 259.587L990.535 215.386L990.156 212.743L987.702 195.529L987.323 192.863L984.134 170.407C984.036 169.73 984.213 169.042 984.625 168.494C985.037 167.946 985.651 167.584 986.331 167.487C987.011 167.389 987.702 167.565 988.252 167.976C988.802 168.386 989.166 168.997 989.264 169.674L992.319 191.309L992.587 193.219L995.196 211.61L995.375 212.854L1001.91 258.899C1001.96 259.234 1001.94 259.576 1001.85 259.904C1001.77 260.232 1001.62 260.54 1001.41 260.81C1001.21 261.08 1000.95 261.307 1000.66 261.479C1000.36 261.65 1000.04 261.762 999.701 261.809Z" fill="#2C3A48"/>
<path d="M979.071 260.476C977.867 260.476 976.841 259.899 976.841 259.188V170.052C976.841 169.342 977.822 168.764 979.071 168.764C980.32 168.764 981.302 169.342 981.302 170.052V259.255C981.257 259.965 980.276 260.476 979.071 260.476Z" fill="#2C3A48"/>
<path d="M987.189 167.054L981.235 143.421C981.034 143.024 980.727 142.69 980.347 142.456C979.967 142.223 979.529 142.099 979.082 142.099C978.636 142.099 978.198 142.223 977.818 142.456C977.438 142.69 977.131 143.024 976.93 143.421L970.975 167.054C970.86 167.525 970.936 168.022 971.187 168.438C971.437 168.854 971.842 169.155 972.314 169.275C972.461 169.296 972.612 169.296 972.76 169.275C973.171 169.275 973.57 169.14 973.897 168.891C974.223 168.642 974.458 168.293 974.566 167.898L979.027 149.929L983.487 167.898C983.587 168.293 983.817 168.644 984.14 168.894C984.464 169.143 984.862 169.278 985.271 169.275C985.419 169.297 985.57 169.297 985.717 169.275C985.963 169.23 986.197 169.137 986.405 169C986.613 168.862 986.792 168.685 986.929 168.477C987.067 168.27 987.161 168.037 987.205 167.792C987.25 167.548 987.245 167.297 987.189 167.054Z" fill="#2C3A48"/>
<path d="M991.561 166.721H966.626C965.444 166.721 964.485 167.675 964.485 168.853V172.562C964.485 173.74 965.444 174.695 966.626 174.695H991.561C992.743 174.695 993.702 173.74 993.702 172.562V168.853C993.702 167.675 992.743 166.721 991.561 166.721Z" fill="#ACBAC8"/>
<path d="M985.316 151.706H972.849C972.257 151.706 971.778 152.183 971.778 152.772V154.638C971.778 155.227 972.257 155.704 972.849 155.704H985.316C985.907 155.704 986.386 155.227 986.386 154.638V152.772C986.386 152.183 985.907 151.706 985.316 151.706Z" fill="#ACBAC8"/>
<path d="M974.075 243.151H949.676C947.631 243.151 945.974 244.802 945.974 246.839V259.011C945.974 261.047 947.631 262.698 949.676 262.698H974.075C976.12 262.698 977.778 261.047 977.778 259.011V246.839C977.778 244.802 976.12 243.151 974.075 243.151Z" fill="#1D2A38"/>
<path d="M1020.55 250.504H975.48C973.436 250.504 971.778 252.155 971.778 254.191V258.145C971.778 260.181 973.436 261.832 975.48 261.832H1020.55C1022.6 261.832 1024.26 260.181 1024.26 258.145V254.191C1024.26 252.155 1022.6 250.504 1020.55 250.504Z" fill="#3C4A58"/>
<path d="M943.141 306.344C942.579 306.341 942.032 306.165 941.574 305.841C941.117 305.516 940.771 305.058 940.585 304.53C940.4 304.001 940.383 303.429 940.537 302.891C940.691 302.352 941.009 301.875 941.446 301.524L979.049 271.338C979.615 270.891 980.336 270.685 981.054 270.764C981.772 270.843 982.43 271.201 982.885 271.76C983.109 272.036 983.277 272.354 983.377 272.695C983.477 273.036 983.508 273.394 983.469 273.747C983.43 274.1 983.32 274.442 983.147 274.753C982.974 275.064 982.741 275.338 982.461 275.558L944.859 305.744C944.375 306.139 943.767 306.352 943.141 306.344Z" fill="#C5D3E1"/>
<path d="M1021.54 306.343C1020.92 306.356 1020.31 306.142 1019.84 305.743L982.305 275.558C981.76 275.102 981.417 274.451 981.348 273.746C981.279 273.04 981.491 272.336 981.937 271.784C982.383 271.232 983.029 270.876 983.736 270.793C984.442 270.709 985.154 270.905 985.717 271.337L1023.34 301.523C1023.9 301.979 1024.26 302.636 1024.33 303.351C1024.41 304.066 1024.2 304.782 1023.74 305.344C1023.48 305.672 1023.14 305.933 1022.76 306.107C1022.38 306.28 1021.96 306.361 1021.54 306.343Z" fill="#C5D3E1"/>
<path d="M940.443 264.786H924.452C922.949 264.786 921.731 265.999 921.731 267.495V306.188C921.731 307.685 922.949 308.898 924.452 308.898H940.443C941.946 308.898 943.164 307.685 943.164 306.188V267.495C943.164 265.999 941.946 264.786 940.443 264.786Z" fill="#C5D3E1"/>
<path d="M1038.37 264.786H1022.41C1020.9 264.786 1019.68 265.999 1019.68 267.495V306.188C1019.68 307.685 1020.9 308.898 1022.41 308.898H1038.37C1039.88 308.898 1041.1 307.685 1041.1 306.188V267.495C1041.1 265.999 1039.88 264.786 1038.37 264.786Z" fill="#C5D3E1"/>
<path d="M1047.74 257.9H915.263C913.76 257.9 912.542 259.113 912.542 260.61V270.76C912.542 272.257 913.76 273.47 915.263 273.47H1047.74C1049.24 273.47 1050.46 272.257 1050.46 270.76V260.61C1050.46 259.113 1049.24 257.9 1047.74 257.9Z" fill="#ACBAC8"/>
<path d="M943.164 284.287H921.731V290.084H943.164V284.287Z" fill="#ACBAC8"/>
<path d="M943.164 297.837H921.731V303.656H943.164V297.837Z" fill="#ACBAC8"/>
<path d="M1041.1 284.287H1019.68V290.084H1041.1V284.287Z" fill="#ACBAC8"/>
<path d="M1041.1 297.837H1019.68V303.656H1041.1V297.837Z" fill="#ACBAC8"/>
<path d="M1050.46 260.609H912.542V264.785H1050.46V260.609Z" fill="#C5D3E1"/>
<path d="M754.638 402.343C754.638 402.343 835.04 381.619 891.444 395.568C927.128 404.453 921.53 404.897 943.543 404.453C943.543 404.453 889.57 431.262 797.594 407.962C797.594 408.007 777.878 405.275 754.638 402.343Z" fill="#C5D3E1"/>
<path d="M678.385 404.496C678.385 404.496 708.516 388.06 737.354 391.525C760.504 394.323 841.887 419.756 877.281 404.496C877.281 404.496 860.175 438.303 731.733 409.738C731.733 409.738 720.002 396.278 678.385 404.496Z" fill="#ACBAC8"/>
<path d="M800.783 407.252C800.783 407.918 777.231 416.647 747.1 411.827C716.969 407.007 693.283 407.385 693.373 408.162C693.373 406.852 717.727 395.213 747.055 403.587C776.383 411.961 800.716 408.562 800.783 407.252Z" fill="#5C6A78"/>
<path d="M936.339 407.584C936.339 408.584 909.843 421.6 875.921 414.248C841.998 406.896 815.302 407.584 815.391 408.562C815.391 406.607 842.779 389.26 875.809 401.898C908.84 414.537 936.272 409.539 936.339 407.584Z" fill="#6C7A88"/>
<path d="M942.517 306.055C942.517 306.055 991.583 293.416 1026.02 301.901C1047.76 307.277 1044.37 307.61 1057.8 307.365C1057.8 307.365 1024.86 323.713 968.723 309.587C968.723 309.52 956.701 307.832 942.517 306.055Z" fill="#1D2A38"/>
<path d="M895.971 307.365C895.971 307.365 914.371 297.326 931.968 299.458C946.085 301.146 995.754 316.672 1017.37 307.365C1017.37 307.365 1006.93 328 928.533 310.564C928.533 310.564 921.374 302.345 895.971 307.365Z" fill="#2C3A48"/>
<path d="M970.663 309.053C970.663 309.453 956.3 314.784 937.923 311.829C919.545 308.875 905.071 309.186 905.115 309.608C905.115 308.831 919.991 301.723 937.878 306.832C955.765 311.94 970.641 309.853 970.663 309.053Z" fill="#5C6A78"/>
<path d="M1053.41 309.342C1053.41 309.942 1037.24 317.894 1016.54 313.429C995.843 308.964 979.54 309.342 979.584 309.875C979.584 308.676 996.311 298.081 1016.47 305.788C1036.63 313.496 1053.38 310.43 1053.41 309.342Z" fill="#2C3A48"/>
</g>
<defs>
<clipPath id="clip0">
<rect width="486" height="305.1" fill="white" transform="translate(621 116.1)"/>
</clipPath>
</defs>
</svg>
