<svg width="768" height="695" viewBox="0 0 768 695" fill="none" xmlns="http://www.w3.org/2000/svg">
<g clip-path="url(#clip0)">
<g opacity="0.1">
<path d="M193.75 647.645C193.75 650.333 194.822 652.911 196.73 654.812C198.639 656.712 201.227 657.78 203.926 657.78C205.262 657.78 206.585 657.518 207.82 657.008C209.055 656.499 210.176 655.753 211.121 654.812C212.066 653.87 212.816 652.753 213.327 651.524C213.839 650.294 214.102 648.976 214.102 647.645V612.835C214.102 611.504 213.839 610.186 213.327 608.957C212.816 607.727 212.066 606.61 211.121 605.669C210.176 604.728 209.055 603.981 207.82 603.472C206.585 602.963 205.262 602.701 203.926 602.701C201.227 602.701 198.639 603.768 196.73 605.669C194.822 607.57 193.75 610.147 193.75 612.835V647.645Z" fill="#404040"/>
<path d="M313.65 672.32C313.65 673.304 314.039 674.249 314.732 674.949C315.425 675.65 316.368 676.051 317.356 676.066C318.324 676.023 319.239 675.61 319.908 674.912C320.578 674.214 320.951 673.286 320.951 672.32V661.304C320.958 660.81 320.866 660.32 320.679 659.862C320.493 659.405 320.216 658.989 319.866 658.639C319.515 658.29 319.097 658.015 318.638 657.829C318.178 657.643 317.686 657.552 317.19 657.559C316.698 657.559 316.212 657.656 315.759 657.845C315.306 658.034 314.895 658.311 314.55 658.659C314.205 659.008 313.933 659.421 313.75 659.875C313.567 660.329 313.477 660.815 313.484 661.304L313.65 672.32Z" fill="#404040"/>
<path d="M247.948 650.674H43.7617C40.9211 650.674 38.6183 652.968 38.6183 655.797V676.176C38.6183 679.005 40.9211 681.298 43.7617 681.298H247.948C250.789 681.298 253.091 679.005 253.091 676.176V655.797C253.091 652.968 250.789 650.674 247.948 650.674Z" fill="#404040"/>
<path d="M207.077 656.569V583.864C206.961 582.919 207.045 581.959 207.324 581.048C207.602 580.137 208.069 579.294 208.694 578.573C209.319 577.852 210.088 577.269 210.953 576.862C211.817 576.454 212.758 576.232 213.714 576.208H256.52C258.069 576.208 315.42 634.206 315.42 634.206C315.963 634.68 316.397 635.265 316.693 635.921C316.988 636.577 317.139 637.288 317.135 638.007V676.177C317.135 676.849 317.001 677.516 316.743 678.137C316.485 678.759 316.106 679.323 315.628 679.799C315.15 680.275 314.583 680.652 313.959 680.909C313.335 681.167 312.667 681.299 311.991 681.299H269.959C268.59 681.299 267.276 680.761 266.303 679.802C265.329 678.843 264.775 677.54 264.761 676.177V672.982H211.778C210.409 672.982 209.095 672.444 208.122 671.485C207.148 670.526 206.594 669.223 206.58 667.86V658.717C206.599 657.975 206.768 657.244 207.077 656.569Z" fill="#404040"/>
<path d="M214.268 592.072V613.332C214.268 614.793 214.85 616.194 215.887 617.227C216.925 618.26 218.331 618.84 219.798 618.84H279.859H282.514C287.547 618.344 288.045 616.362 285.611 613.332L259.065 586.343H220.019C219.256 586.312 218.494 586.439 217.782 586.716C217.07 586.993 216.423 587.414 215.883 587.952C215.342 588.49 214.92 589.134 214.642 589.843C214.364 590.552 214.236 591.311 214.268 592.072Z" fill="white"/>
<path d="M310.554 634.262H296.783C293.942 634.262 291.639 636.555 291.639 639.384V646.324C291.639 649.153 293.942 651.446 296.783 651.446H310.554C313.394 651.446 315.697 649.153 315.697 646.324V639.384C315.697 636.555 313.394 634.262 310.554 634.262Z" fill="#404040"/>
<path d="M232.131 627.046H220.738C219.73 627.046 218.913 627.86 218.913 628.864V631.012C218.913 632.016 219.73 632.83 220.738 632.83H232.131C233.139 632.83 233.956 632.016 233.956 631.012V628.864C233.956 627.86 233.139 627.046 232.131 627.046Z" fill="#404040"/>
<path d="M302.037 640.264C302.029 640.844 302.139 641.421 302.358 641.959C302.578 642.497 302.904 642.985 303.316 643.396C303.728 643.807 304.219 644.131 304.759 644.35C305.299 644.569 305.878 644.677 306.461 644.67H309.89C311.063 644.67 312.189 644.206 313.019 643.38C313.848 642.553 314.314 641.432 314.314 640.264C314.314 639.095 313.848 637.974 313.019 637.148C312.189 636.322 311.063 635.857 309.89 635.857H306.461C305.288 635.857 304.162 636.322 303.333 637.148C302.503 637.974 302.037 639.095 302.037 640.264Z" fill="#404040"/>
<path d="M230.748 681.299C230.748 685.405 231.971 689.42 234.262 692.835C236.553 696.25 239.81 698.911 243.619 700.483C247.429 702.054 251.621 702.466 255.666 701.664C259.71 700.863 263.426 698.886 266.342 695.982C269.257 693.078 271.243 689.378 272.048 685.35C272.852 681.322 272.439 677.146 270.861 673.352C269.283 669.558 266.611 666.315 263.182 664.033C259.753 661.752 255.722 660.534 251.598 660.534C246.069 660.534 240.765 662.721 236.855 666.616C232.945 670.51 230.748 675.791 230.748 681.299Z" fill="#404040"/>
<path d="M227.707 684.549C228.499 684.549 229.258 684.235 229.818 683.677C230.378 683.12 230.693 682.363 230.693 681.574C230.693 676.052 232.896 670.757 236.816 666.852C240.737 662.948 246.054 660.754 251.598 660.754C257.143 660.754 262.46 662.948 266.381 666.852C270.301 670.757 272.504 676.052 272.504 681.574C272.446 681.995 272.479 682.423 272.601 682.83C272.723 683.237 272.932 683.613 273.212 683.933C273.492 684.253 273.838 684.51 274.226 684.686C274.615 684.861 275.036 684.952 275.463 684.952C275.889 684.952 276.311 684.861 276.699 684.686C277.087 684.51 277.433 684.253 277.713 683.933C277.993 683.613 278.202 683.237 278.324 682.83C278.446 682.423 278.479 681.995 278.421 681.574C278.421 674.489 275.595 667.695 270.565 662.685C265.535 657.675 258.712 654.861 251.598 654.861C244.485 654.861 237.662 657.675 232.632 662.685C227.601 667.695 224.776 674.489 224.776 681.574C224.775 682.354 225.082 683.102 225.631 683.658C226.179 684.214 226.924 684.534 227.707 684.549Z" fill="#404040"/>
<path d="M238.602 680.859C238.602 683.419 239.364 685.921 240.792 688.05C242.22 690.178 244.25 691.837 246.625 692.817C249 693.797 251.613 694.053 254.134 693.554C256.655 693.054 258.971 691.821 260.789 690.011C262.606 688.201 263.844 685.895 264.346 683.384C264.847 680.873 264.59 678.27 263.606 675.905C262.622 673.54 260.956 671.519 258.819 670.096C256.682 668.674 254.169 667.915 251.599 667.915C249.892 667.915 248.202 668.25 246.625 668.9C245.048 669.551 243.615 670.504 242.408 671.706C241.202 672.908 240.244 674.335 239.591 675.905C238.938 677.476 238.602 679.159 238.602 680.859Z" fill="#404040"/>
<path d="M67.7644 681.299C67.7644 685.403 68.9858 689.416 71.2744 692.829C73.563 696.243 76.8161 698.904 80.6227 700.478C84.4293 702.051 88.6187 702.465 92.6617 701.669C96.7047 700.872 100.42 698.9 103.338 696.001C106.256 693.103 108.246 689.408 109.057 685.384C109.868 681.359 109.463 677.186 107.893 673.391C106.323 669.595 103.66 666.349 100.238 664.06C96.8167 661.772 92.791 660.545 88.6697 660.534C85.9249 660.519 83.2044 661.046 80.6651 662.084C78.1257 663.122 75.8178 664.65 73.8744 666.58C71.931 668.51 70.3905 670.805 69.3418 673.331C68.2931 675.857 67.757 678.565 67.7644 681.299Z" fill="#404040"/>
<path d="M75.6177 680.859C75.6177 683.416 76.3786 685.917 77.8042 688.044C79.2299 690.171 81.2564 691.83 83.6281 692.812C85.9997 693.793 88.6101 694.053 91.1297 693.558C93.6492 693.063 95.9651 691.835 97.7849 690.031C99.6047 688.226 100.847 685.925 101.355 683.418C101.862 680.91 101.613 678.31 100.638 675.943C99.6624 673.577 98.0051 671.552 95.8751 670.123C93.7451 668.694 91.2378 667.926 88.6697 667.915C86.9583 667.908 85.2623 668.237 83.6791 668.885C82.0959 669.532 80.6566 670.484 79.4438 671.687C78.2311 672.889 77.2689 674.319 76.6123 675.893C75.9557 677.467 75.6177 679.154 75.6177 680.859Z" fill="#404040"/>
<path d="M128.157 573.508C128.157 574.969 128.74 576.37 129.777 577.403C130.814 578.436 132.221 579.016 133.688 579.016H170.466C171.933 579.016 173.339 578.436 174.377 577.403C175.414 576.37 175.996 574.969 175.996 573.508C175.996 572.047 175.414 570.646 174.377 569.613C173.339 568.58 171.933 568 170.466 568H133.854C132.387 568 130.98 568.58 129.943 569.613C128.906 570.646 128.323 572.047 128.323 573.508H128.157Z" fill="#404040"/>
<path d="M189.546 574.666H39.4481C33.1255 574.666 28 579.77 28 586.067V645.993C28 652.29 33.1255 657.395 39.4481 657.395H189.546C195.869 657.395 200.994 652.29 200.994 645.993V586.067C200.994 579.77 195.869 574.666 189.546 574.666Z" fill="#404040"/>
<path d="M155.091 574.666H149.948V657.395H155.091V574.666Z" fill="#404040"/>
<path d="M78.9915 574.666H73.8481V657.395H78.9915V574.666Z" fill="#404040"/>
<path d="M89.3889 612.78C89.3779 617.63 90.812 622.374 93.5096 626.412C96.2072 630.45 100.047 633.6 104.543 635.464C109.039 637.327 113.989 637.82 118.767 636.881C123.545 635.941 127.935 633.611 131.382 630.186C134.83 626.76 137.179 622.393 138.133 617.637C139.087 612.881 138.603 607.95 136.742 603.468C134.881 598.986 131.727 595.155 127.678 592.459C123.63 589.764 118.87 588.325 114 588.325C107.482 588.325 101.231 590.899 96.6167 595.484C92.0029 600.069 89.4035 606.289 89.3889 612.78Z" fill="#404040"/>
<path d="M105.261 617.682C105.261 624.567 109.243 630.13 114.11 630.13C118.977 630.13 122.959 624.622 122.959 617.682C122.959 610.742 114.11 595.65 114.11 595.65C114.11 595.65 105.261 610.797 105.261 617.682Z" fill="white"/>
<path d="M108.026 617.904C108.026 620.218 109.354 622.09 111.013 622.09C112.672 622.09 113.999 620.218 113.999 617.904C113.357 615.247 112.273 612.715 110.792 610.414C109.465 612.743 108.531 615.274 108.026 617.904Z" fill="white"/>
<path d="M64.4464 652.547C64.8278 652.547 65.1935 652.396 65.4632 652.128C65.7328 651.859 65.8843 651.495 65.8843 651.115V570.093C65.8843 569.714 65.7328 569.349 65.4632 569.081C65.1935 568.812 64.8278 568.661 64.4464 568.661C64.2555 568.654 64.065 568.685 63.887 568.754C63.709 568.824 63.5474 568.929 63.4123 569.063C63.2772 569.198 63.1715 569.359 63.102 569.536C63.0325 569.714 63.0007 569.903 63.0085 570.093V651.115C63.0085 651.495 63.16 651.859 63.4296 652.128C63.6993 652.396 64.065 652.547 64.4464 652.547Z" fill="#404040"/>
<path d="M47.5228 652.547C47.9042 652.547 48.2699 652.396 48.5396 652.128C48.8092 651.859 48.9607 651.495 48.9607 651.115V570.093C48.9685 569.903 48.9367 569.714 48.8672 569.536C48.7977 569.359 48.692 569.198 48.5569 569.063C48.4218 568.929 48.2602 568.824 48.0822 568.754C47.9042 568.685 47.7137 568.654 47.5228 568.661C47.1414 568.661 46.7757 568.812 46.506 569.081C46.2363 569.349 46.0848 569.714 46.0848 570.093V651.115C46.0848 651.495 46.2363 651.859 46.506 652.128C46.7757 652.396 47.1414 652.547 47.5228 652.547Z" fill="#404040"/>
<path d="M47.5228 580.671H64.4462C64.8275 580.671 65.1933 580.52 65.4629 580.251C65.7326 579.983 65.8841 579.618 65.8841 579.239C65.8841 578.859 65.7326 578.495 65.4629 578.226C65.1933 577.958 64.8275 577.807 64.4462 577.807H47.5228C47.1414 577.807 46.7757 577.958 46.506 578.226C46.2363 578.495 46.0848 578.859 46.0848 579.239C46.0848 579.618 46.2363 579.983 46.506 580.251C46.7757 580.52 47.1414 580.671 47.5228 580.671Z" fill="#404040"/>
<path d="M47.5228 593.172H64.4462C64.8275 593.172 65.1933 593.021 65.4629 592.753C65.7326 592.484 65.8841 592.12 65.8841 591.74C65.8841 591.36 65.7326 590.996 65.4629 590.728C65.1933 590.459 64.8275 590.308 64.4462 590.308H47.5228C47.1414 590.308 46.7757 590.459 46.506 590.728C46.2363 590.996 46.0848 591.36 46.0848 591.74C46.0848 592.12 46.2363 592.484 46.506 592.753C46.7757 593.021 47.1414 593.172 47.5228 593.172Z" fill="#404040"/>
<path d="M47.5228 605.729H64.4462C64.8275 605.729 65.1933 605.578 65.4629 605.31C65.7326 605.041 65.8841 604.677 65.8841 604.297C65.8841 603.917 65.7326 603.553 65.4629 603.285C65.1933 603.016 64.8275 602.865 64.4462 602.865H47.5228C47.1414 602.865 46.7757 603.016 46.506 603.285C46.2363 603.553 46.0848 603.917 46.0848 604.297C46.0848 604.677 46.2363 605.041 46.506 605.31C46.7757 605.578 47.1414 605.729 47.5228 605.729Z" fill="#404040"/>
<path d="M47.5228 618.289H64.4462C64.8275 618.289 65.1933 618.139 65.4629 617.87C65.7326 617.601 65.8841 617.237 65.8841 616.857C65.8841 616.478 65.7326 616.113 65.4629 615.845C65.1933 615.576 64.8275 615.425 64.4462 615.425H47.5228C47.1414 615.425 46.7757 615.576 46.506 615.845C46.2363 616.113 46.0848 616.478 46.0848 616.857C46.0848 617.237 46.2363 617.601 46.506 617.87C46.7757 618.139 47.1414 618.289 47.5228 618.289Z" fill="#404040"/>
<path d="M47.5228 630.847H64.4462C64.8275 630.847 65.1933 630.696 65.4629 630.427C65.7326 630.159 65.8841 629.794 65.8841 629.414C65.8841 629.035 65.7326 628.67 65.4629 628.402C65.1933 628.133 64.8275 627.982 64.4462 627.982H47.5228C47.1414 627.982 46.7757 628.133 46.506 628.402C46.2363 628.67 46.0848 629.035 46.0848 629.414C46.0848 629.794 46.2363 630.159 46.506 630.427C46.7757 630.696 47.1414 630.847 47.5228 630.847Z" fill="#404040"/>
<path d="M218.913 619.059V599.065C218.913 597.502 219.537 596.003 220.647 594.898C221.756 593.792 223.262 593.171 224.831 593.171C226.4 593.171 227.906 593.792 229.015 594.898C230.125 596.003 230.749 597.502 230.749 599.065V619.059H218.913Z" fill="#404040"/>
<path d="M268.577 617.958H269.019C269.394 617.904 269.753 617.777 270.078 617.584C270.403 617.392 270.687 617.137 270.913 616.836C271.139 616.534 271.303 616.19 271.395 615.825C271.488 615.46 271.508 615.081 271.453 614.708C271.425 614.415 271.425 614.12 271.453 613.827C271.419 612.767 271.693 611.719 272.243 610.811C272.792 609.902 273.593 609.171 274.55 608.705C275.225 608.347 275.729 607.736 275.952 607.008C276.175 606.28 276.098 605.493 275.739 604.821C275.38 604.149 274.767 603.647 274.036 603.425C273.305 603.203 272.515 603.279 271.84 603.637C269.973 604.598 268.408 606.051 267.315 607.839C266.222 609.627 265.645 611.679 265.646 613.772C265.589 614.34 265.589 614.912 265.646 615.479C265.741 616.18 266.093 616.821 266.634 617.278C267.175 617.736 267.867 617.978 268.577 617.958Z" fill="#404040"/>
</g>
<g opacity="0.1">
<path d="M465.278 322.183C465.278 322.183 532.523 297.865 579.714 314.226C609.512 324.548 604.877 325.169 623.283 324.71C623.283 324.71 578.133 356.189 501.212 328.844C501.198 328.844 484.698 325.615 465.278 322.183Z" fill="#404040"/>
<path d="M334 291.584C334 291.584 381.51 276.99 414.844 286.806C435.902 292.932 432.635 293.376 445.626 293.1C445.626 293.1 413.72 311.981 359.373 295.581C359.373 295.581 347.72 293.636 334 291.584Z" fill="#404040"/>
<path opacity="0.7" d="M588.069 224.523C588.069 225.152 571.992 233.463 551.462 228.871C530.932 224.279 514.75 224.715 514.802 225.379C514.802 224.139 531.423 213.052 551.409 221.031C571.396 229.01 588.016 225.745 588.069 224.523Z" fill="#404040"/>
<path opacity="0.5" d="M477.856 184.432C477.856 185.061 493.933 193.372 514.463 188.78C534.993 184.188 551.175 184.624 551.122 185.288C551.122 184.048 534.502 172.961 514.515 180.94C494.529 188.92 477.908 185.654 477.856 184.432Z" fill="#404040"/>
<path opacity="0.7" d="M471.515 223.21C471.515 224.17 453.44 236.567 430.315 229.6C407.19 222.634 388.974 223.227 389.027 224.188C389.027 222.319 407.716 205.767 430.245 217.797C452.774 229.827 471.48 225.078 471.515 223.21Z" fill="#404040"/>
<path d="M752.948 315.061C752.948 315.847 732.12 326.078 705.454 320.299C678.787 314.52 657.801 315.061 657.872 315.829C657.872 314.293 679.401 300.656 705.366 310.591C731.331 320.526 752.896 316.597 752.948 315.061Z" fill="#404040"/>
<path opacity="0.7" d="M445.626 253.606C445.626 253.606 484.196 243.671 511.266 250.341C528.36 254.567 525.695 254.829 536.249 254.637C536.249 254.637 510.354 267.488 466.226 256.383C466.226 256.33 456.776 255.003 445.626 253.606Z" fill="#404040"/>
<path opacity="0.7" d="M625.641 231.69C625.641 231.69 640.105 223.798 653.938 225.474C665.036 226.801 704.08 239.006 721.069 231.69C721.069 231.69 712.864 247.911 651.238 234.205C651.238 234.205 645.61 227.744 625.641 231.69Z" fill="#404040"/>
<path opacity="0.5" d="M424.046 175.759C424.046 176.074 412.755 180.264 398.309 177.942C383.862 175.62 372.484 175.864 372.519 176.196C372.519 175.585 384.213 169.997 398.273 174.013C412.334 178.029 424.028 176.388 424.046 175.759Z" fill="#404040"/>
<path opacity="0.5" d="M661.662 175.985C661.662 176.456 648.951 182.707 632.682 179.197C616.412 175.688 603.596 175.985 603.631 176.404C603.631 175.461 616.78 167.132 632.629 173.191C648.478 179.25 661.645 176.84 661.662 175.985Z" fill="#404040"/>
<path d="M583.978 266.785L589.186 268.053L619.237 268.295H624.23V264.219C624.288 263.775 624.508 263.367 624.849 263.071C625.19 262.775 625.629 262.612 626.083 262.612C626.538 262.612 626.976 262.775 627.317 263.071C627.658 263.367 627.879 263.775 627.937 264.219V268.355H631.398V264.219C631.398 263.981 631.446 263.745 631.538 263.526C631.63 263.306 631.766 263.106 631.937 262.938C632.107 262.77 632.31 262.636 632.533 262.545C632.756 262.454 632.995 262.407 633.236 262.407C633.478 262.407 633.717 262.454 633.94 262.545C634.163 262.636 634.365 262.77 634.536 262.938C634.706 263.106 634.842 263.306 634.934 263.526C635.027 263.745 635.074 263.981 635.074 264.219V268.416H638.566V264.189C638.566 263.708 638.76 263.247 639.105 262.908C639.449 262.568 639.917 262.377 640.404 262.377C640.892 262.377 641.359 262.568 641.704 262.908C642.049 263.247 642.242 263.708 642.242 264.189V268.476H645.704V264.219C645.762 263.775 645.982 263.367 646.323 263.071C646.664 262.775 647.103 262.612 647.557 262.612C648.011 262.612 648.45 262.775 648.791 263.071C649.132 263.367 649.352 263.775 649.41 264.219V266.815L651.984 265.034C652.614 264.604 653.361 264.373 654.128 264.37L687.824 264.581V260.777C688.692 260.602 689.471 260.137 690.029 259.46C690.588 258.783 690.891 257.936 690.887 257.063V255.644C690.89 254.693 690.529 253.776 689.876 253.077C689.223 252.377 688.326 251.946 687.365 251.87H652.29V250.24C652.29 249.244 651.891 248.288 651.179 247.582C650.468 246.875 649.502 246.473 648.491 246.465H619.972C618.999 246.457 618.059 246.819 617.351 247.478C616.643 248.136 616.221 249.04 616.174 249.998H644.478C644.812 249.998 645.131 250.128 645.367 250.361C645.602 250.593 645.734 250.908 645.734 251.236C645.739 251.461 645.675 251.682 645.551 251.87C645.442 252.055 645.286 252.209 645.097 252.315C644.909 252.421 644.695 252.476 644.478 252.474H616.143V254.708C616.143 254.889 616.143 255.04 616.143 255.191C616.126 255.321 616.126 255.453 616.143 255.584V257.003C616.141 257.872 616.445 258.714 617.004 259.387C617.563 260.059 618.341 260.518 619.206 260.686V266.725L583.978 266.785Z" fill="#404040"/>
<path d="M692.566 278.318C693.203 275.633 693.462 272.871 693.333 270.114C693.333 269.497 693.333 268.88 693.333 268.263C693.337 268.007 693.29 267.752 693.195 267.514C693.1 267.275 692.959 267.058 692.781 266.875C692.603 266.698 692.392 266.558 692.161 266.462C691.929 266.367 691.681 266.319 691.43 266.32H687.686L653.773 266.104C653.375 266.104 652.987 266.234 652.668 266.474L649.078 269.003L647.144 270.33H618.848L588.526 270.083L576.25 266.999L556.7 262.187H556.239L526.93 262.372C526.537 262.377 526.154 262.503 525.833 262.732C525.513 262.962 525.269 263.284 525.136 263.656C525.002 264.028 524.985 264.433 525.086 264.815C525.188 265.197 525.403 265.539 525.703 265.796L546.419 283.345C546.295 283.808 546.233 284.285 546.234 284.764C546.252 285.455 546.365 286.141 546.572 286.8C551.314 285.487 556.253 285.048 561.15 285.504C564.219 285.905 569.989 287.263 576.741 288.743C588.833 286.337 612.679 282.79 630.97 287.355C641.006 289.853 643.83 290.902 646.929 291.272H690.663C692.215 291.289 693.72 290.742 694.903 289.732C696.086 288.723 696.867 287.318 697.102 285.777C697.337 284.235 697.011 282.66 696.183 281.341C695.355 280.022 694.082 279.047 692.597 278.596L692.566 278.318ZM538.869 268.325H534.48C534.073 268.325 533.683 268.162 533.395 267.873C533.107 267.584 532.946 267.192 532.946 266.783C532.946 266.374 533.107 265.981 533.395 265.692C533.683 265.403 534.073 265.24 534.48 265.24H538.869C539.276 265.24 539.666 265.403 539.954 265.692C540.242 265.981 540.403 266.374 540.403 266.783C540.403 267.192 540.242 267.584 539.954 267.873C539.666 268.162 539.276 268.325 538.869 268.325ZM549.856 268.325H545.498C545.091 268.325 544.701 268.162 544.413 267.873C544.125 267.584 543.963 267.192 543.963 266.783C543.963 266.374 544.125 265.981 544.413 265.692C544.701 265.403 545.091 265.24 545.498 265.24H549.856C550.263 265.24 550.653 265.403 550.941 265.692C551.229 265.981 551.39 266.374 551.39 266.783C551.39 267.192 551.229 267.584 550.941 267.873C550.653 268.162 550.263 268.325 549.856 268.325ZM671.359 287.386C669.157 287.355 667.039 286.532 665.39 285.067C663.74 283.601 662.667 281.59 662.367 279.398C662.367 278.997 662.367 278.626 662.367 278.256C662.149 276.932 662.221 275.575 662.578 274.282C662.934 272.988 663.566 271.787 664.431 270.764C665.295 269.74 666.371 268.918 667.583 268.354C668.795 267.79 670.115 267.497 671.451 267.497C672.787 267.497 674.107 267.79 675.319 268.354C676.531 268.918 677.607 269.74 678.471 270.764C679.335 271.787 679.968 272.988 680.324 274.282C680.681 275.575 680.753 276.932 680.535 278.256C680.564 278.636 680.564 279.018 680.535 279.398C680.269 281.638 679.181 283.698 677.484 285.175C675.787 286.652 673.603 287.44 671.359 287.386Z" fill="#404040"/>
<path d="M671.578 271.62C670.077 274.093 668.909 276.74 668.103 279.498C668.087 279.732 668.087 279.966 668.103 280.2C668.103 282.847 669.692 284.984 671.645 284.984C673.597 284.984 675.153 282.847 675.153 280.2C675.17 279.966 675.17 279.732 675.153 279.498C674.327 276.732 673.125 274.083 671.578 271.62ZM672.77 281.89C672.108 281.89 671.578 281.156 671.578 280.263C671.541 280.01 671.541 279.752 671.578 279.498C671.858 278.77 672.201 278.065 672.604 277.393C672.991 278.069 673.323 278.773 673.597 279.498C673.715 279.738 673.782 279.998 673.796 280.263C673.962 281.156 673.432 281.954 672.77 281.954V281.89Z" fill="#404040"/>
<path d="M588.509 292.993C584.165 293.567 579.764 293.567 575.42 292.993C573.75 292.813 571.989 292.512 570.167 292.15C568.982 291.91 567.798 291.609 566.553 291.278L565.611 291.037C560.366 289.561 554.848 289.304 549.486 290.285H548.909H548.362L547.299 290.525C545.226 290.865 543.256 291.656 541.529 292.843C547.288 292.485 553.068 292.717 558.778 293.535C560.935 293.806 563.243 294.107 565.642 294.468C573.362 295.807 581.293 295.312 588.783 293.023H589.117L589.481 292.873C589.296 292.948 589.102 292.999 588.904 293.023L588.509 292.993Z" fill="#404040"/>
<path d="M633.551 292.919C632.33 292.676 631.048 292.403 629.766 292.069C628.484 291.736 627.782 291.523 626.713 291.19L623.875 290.188C619.955 288.675 615.762 287.982 611.56 288.154C607.358 288.326 603.237 289.36 599.456 291.19C598.876 291.493 598.326 291.796 597.899 292.069L597.288 292.494L596.739 292.919C596.739 292.919 596.556 293.131 596.556 293.192C598.05 292.878 599.584 292.796 601.104 292.949C603.332 292.949 606.293 293.161 609.742 293.525C613.191 293.889 616.274 294.314 619.998 295.012C621.25 295.224 622.532 295.467 623.844 295.77C626.425 296.321 629.05 296.636 631.689 296.71C638.269 297.088 644.84 295.816 650.797 293.01C649.923 293.34 649.01 293.554 648.08 293.647C643.228 294.166 638.325 293.921 633.551 292.919Z" fill="#404040"/>
</g>
<circle opacity="0.2" cx="384" cy="435" r="200" fill="#4B0731"/>
<circle cx="384" cy="435" r="180" fill="#936A83"/>
<g clip-path="url(#clip1)">
<path d="M355.593 405.932C355.593 405.932 219.691 405.931 206.317 405.932C204.573 415.211 204.278 421.35 204.088 428.966C214.837 428.966 355.593 428.966 355.593 428.966C358.66 428.966 361.601 427.753 363.77 425.593C365.939 423.433 367.157 420.504 367.157 417.449C367.157 414.395 365.939 411.465 363.77 409.305C361.601 407.145 358.66 405.932 355.593 405.932Z" fill="#FFAC42"/>
<path d="M499.999 389.988L502.097 391.255H504.873L504.559 386.813V386.286V386.056L504.229 381.235V380.89V380.347V379.902L503.915 375.575V374.736V373.815L502.643 355.19C502.643 354.972 502.556 354.762 502.401 354.608C502.246 354.454 502.036 354.367 501.817 354.367C501.597 354.367 501.387 354.454 501.232 354.608C501.078 354.762 500.991 354.972 500.991 355.19L499.884 371.478V372.301L499.537 377.451V377.961V378.438L498.645 391.502H500.297L499.999 389.988ZM502.56 381.104L500.528 382.337L500.776 378.652L502.428 379.689L502.56 381.104ZM502.89 385.842V386.763L500.098 388.458L500.396 384.295L502.89 385.809V385.842ZM503.237 391.008L500.379 389.363L503.006 387.718L503.237 391.008ZM502.824 384.855L500.445 383.407L502.593 382.091L502.824 384.855ZM502.395 378.701L500.842 377.747V377.155L502.197 376.349L502.395 378.701ZM501.585 366.855L501.965 372.548L501.222 372.087L501.585 366.855ZM502.048 373.519L502.18 375.444L500.941 376.184L501.156 372.992L502.048 373.519Z" fill="#FFAC42"/>
<path d="M559.787 359.829C559.613 359.666 559.382 359.575 559.143 359.575C558.904 359.575 558.673 359.666 558.499 359.829L531.488 388.951H530.282L527.936 372.498L527.803 372.005L526.68 363.976L526.548 363.136L525.524 355.864H526.217C526.466 355.86 526.703 355.76 526.879 355.585C527.054 355.41 527.155 355.174 527.159 354.926V353.281C527.155 353.034 527.054 352.798 526.879 352.623C526.703 352.448 526.466 352.347 526.217 352.343H524.268L523.045 347.522H523.492C523.613 347.518 523.728 347.468 523.814 347.383C523.9 347.297 523.95 347.183 523.954 347.062V346.239C523.954 346.117 523.905 346 523.819 345.913C523.732 345.827 523.614 345.778 523.492 345.778H522.616L521.707 342.142C521.653 341.945 521.525 341.776 521.351 341.669C521.176 341.563 520.967 341.526 520.766 341.566C520.563 341.525 520.351 341.561 520.174 341.668C519.996 341.775 519.865 341.944 519.807 342.142L518.948 345.68H518.073C517.95 345.68 517.832 345.728 517.746 345.815C517.659 345.901 517.61 346.018 517.61 346.14V346.963C517.614 347.084 517.664 347.199 517.75 347.284C517.836 347.37 517.951 347.42 518.073 347.424H518.502L517.296 352.261H515.347C515.098 352.265 514.861 352.365 514.686 352.54C514.51 352.715 514.409 352.951 514.405 353.199V354.844C514.409 355.091 514.51 355.328 514.686 355.503C514.861 355.678 515.098 355.778 515.347 355.782H516.041L511.795 385.743H507.979C507.541 385.743 507.12 385.916 506.811 386.225C506.501 386.534 506.327 386.952 506.327 387.388V391.255H540.607V390.564C540.613 390.174 540.481 389.795 540.233 389.494C539.984 389.192 539.637 388.989 539.252 388.918L559.953 361.03C560.076 360.844 560.127 360.62 560.096 360.399C560.066 360.178 559.956 359.976 559.787 359.829ZM515.182 378.356L519.89 376.25V381.186L515.066 379.047L515.182 378.29V378.356ZM516.041 372.235L519.89 370.59V374.341L516.008 372.597L516.041 372.235ZM516.569 368.484L517.115 368.237L519.675 369.389L516.223 370.919L516.569 368.484ZM526.647 379.112L521.806 381.268V376.332L526.548 378.438L526.647 379.112ZM521.757 370.359L525.59 372.005V372.4L521.691 374.127L521.757 370.359ZM525.061 368.451L525.391 370.754L522.385 369.422L524.813 368.336L525.061 368.451ZM521.757 368.451V366.954L523.409 367.694L521.757 368.451ZM519.84 368.253L518.453 367.645L519.84 367.019V368.253ZM514.884 380.281L519.461 382.321L514.273 384.624L514.884 380.281ZM526.796 380.281L527.407 384.624L522.219 382.321L526.796 380.281ZM526.35 377.171L522.071 375.295L525.821 373.65L526.35 377.171ZM524.879 367.069L522.319 365.933L524.631 364.897L524.879 367.069ZM521.757 364.946V364.107H523.64L521.757 364.946ZM519.84 364.946L518.188 364.173H519.84V364.946ZM519.494 366.032L517.065 367.069L516.751 366.937L517.049 364.897L519.494 366.032ZM519.295 375.295L515.314 377.072L515.793 373.782L519.295 375.295ZM518.618 385.776H514.471L519.84 383.39V385.776H518.618ZM521.757 383.374L527.143 385.776H521.757V383.374ZM524.301 362.988H521.757V355.782H523.293L524.301 362.988ZM520.815 344.989L520.997 345.746H520.617L520.815 344.989ZM520.171 347.49H521.443L522.649 352.31H518.965L520.171 347.49ZM519.84 355.815V362.955H517.313L518.321 355.782L519.84 355.815ZM521.757 388.984V386.812H527.704L527.985 388.886L521.757 388.984ZM536.923 388.984H534.032L548.355 373.65L536.923 388.984Z" fill="#FFAC42"/>
<path d="M505.071 399.942H495.688V403.76H505.071V399.942Z" fill="#FFAC42"/>
<path d="M505.071 406.293H495.688V409.682H505.071V406.293Z" fill="#FFAC42"/>
<path d="M547.959 399.942H538.575V403.76H547.959V399.942Z" fill="#FFAC42"/>
<path d="M547.959 406.293H538.575V409.682H547.959V406.293Z" fill="#FFAC42"/>
<path d="M492.862 399.004H550.932C551.248 399.004 551.55 398.879 551.773 398.657C551.996 398.435 552.122 398.134 552.122 397.819V393.394C552.122 393.079 551.996 392.778 551.773 392.556C551.55 392.334 551.248 392.209 550.932 392.209H492.862C492.547 392.209 492.244 392.334 492.021 392.556C491.798 392.778 491.673 393.079 491.673 393.394V397.836C491.677 398.147 491.804 398.444 492.027 398.663C492.25 398.882 492.55 399.004 492.862 399.004Z" fill="#FFAC42"/>
<path d="M547.942 413.434C547.942 413.434 547.942 413.434 547.942 413.336V412.217H543.25L542.308 411.986C541.664 411.822 541.003 411.69 540.342 411.559C539.682 411.427 539.169 411.345 538.558 411.262V410.045L525.986 399.976H518.486L505.071 410.736V411.69L504.179 411.493C502.907 411.23 501.816 411.016 501.007 410.917C499.237 410.727 497.449 410.76 495.687 411.016C492.037 411.55 488.496 412.661 485.197 414.306C487.962 413.705 490.798 413.494 493.622 413.681C494.267 413.549 494.96 413.451 495.72 413.368C498.367 413.099 501.042 413.334 503.601 414.059L504.443 414.29C508.623 415.443 512.987 415.783 517.296 415.293C517.487 415.261 517.675 415.211 517.858 415.145H518.007H517.858C517.72 415.217 517.576 415.277 517.428 415.326C512.963 416.716 508.233 417.043 503.617 416.281C502.18 416.05 500.809 415.869 499.504 415.721C517.561 419.736 527.39 419.143 532.677 417.696C536.058 417.891 539.449 417.83 542.821 417.515C541.248 417.459 539.684 417.266 538.145 416.939L535.865 416.478C533.635 416.083 531.587 415.787 529.769 415.606C527.704 415.392 525.953 415.293 524.631 415.261C523.726 415.165 522.811 415.215 521.922 415.409C521.922 415.409 522.087 415.178 522.352 414.981C524.694 413.547 527.339 412.677 530.078 412.44C532.817 412.203 535.573 412.605 538.129 413.615L538.74 413.829C539.384 414.059 540.012 414.273 540.623 414.454C544.481 415.66 548.545 416.074 552.568 415.672C553.84 415.313 555.083 414.857 556.285 414.306C553.473 414.577 550.636 414.28 547.942 413.434ZM510.225 412.793L507.12 412.102L522.236 399.976L535.915 410.95C527.308 410.419 518.668 411.038 510.225 412.793Z" fill="#FFAC42"/>
<path d="M392.748 365.654L395.556 366.345L411.763 366.477H414.456V364.256C414.487 364.014 414.606 363.791 414.79 363.63C414.974 363.469 415.21 363.38 415.455 363.38C415.7 363.38 415.937 363.469 416.121 363.63C416.305 363.791 416.423 364.014 416.455 364.256V366.51H418.321V364.256C418.321 364.126 418.347 363.998 418.397 363.878C418.447 363.758 418.52 363.649 418.612 363.558C418.704 363.466 418.813 363.393 418.933 363.344C419.054 363.294 419.182 363.268 419.313 363.268C419.443 363.268 419.572 363.294 419.692 363.344C419.812 363.393 419.922 363.466 420.014 363.558C420.106 363.649 420.179 363.758 420.228 363.878C420.278 363.998 420.304 364.126 420.304 364.256V366.543H422.187V364.239C422.187 363.977 422.292 363.726 422.478 363.541C422.663 363.356 422.916 363.252 423.178 363.252C423.441 363.252 423.693 363.356 423.879 363.541C424.065 363.726 424.17 363.977 424.17 364.239V366.575H426.037V364.256C426.068 364.014 426.187 363.791 426.371 363.63C426.554 363.469 426.791 363.38 427.036 363.38C427.281 363.38 427.518 363.469 427.702 363.63C427.885 363.791 428.004 364.014 428.036 364.256V365.671L429.423 364.7C429.763 364.466 430.166 364.34 430.58 364.338L448.752 364.453V362.38C449.22 362.285 449.64 362.031 449.942 361.662C450.243 361.293 450.406 360.832 450.404 360.356V359.583C450.406 359.065 450.211 358.565 449.859 358.184C449.507 357.803 449.023 357.568 448.505 357.526H429.588V356.638C429.588 356.095 429.373 355.575 428.989 355.189C428.606 354.804 428.085 354.585 427.54 354.581H412.159C411.634 354.576 411.128 354.774 410.746 355.133C410.364 355.492 410.136 355.984 410.111 356.506H425.376C425.555 356.506 425.728 356.577 425.855 356.704C425.982 356.83 426.053 357.002 426.053 357.181C426.056 357.303 426.021 357.424 425.954 357.526C425.895 357.627 425.811 357.711 425.709 357.769C425.608 357.826 425.493 357.856 425.376 357.855H410.094V359.073C410.094 359.172 410.094 359.254 410.094 359.336C410.085 359.407 410.085 359.479 410.094 359.55V360.323C410.093 360.797 410.257 361.256 410.558 361.622C410.86 361.989 411.28 362.239 411.746 362.331V365.621L392.748 365.654Z" fill="#FFAC42"/>
<path d="M451.429 371.807C451.772 370.375 451.911 368.902 451.842 367.431C451.842 367.102 451.842 366.772 451.842 366.443C451.844 366.307 451.818 366.171 451.767 366.044C451.716 365.917 451.641 365.801 451.544 365.703C451.449 365.608 451.335 365.534 451.211 365.483C451.086 365.432 450.952 365.406 450.817 365.407H448.802L430.547 365.292C430.332 365.292 430.124 365.361 429.952 365.489L428.019 366.838L426.978 367.546H411.746L395.424 367.414L388.816 365.769L378.292 363.202H378.044L362.267 363.301C362.055 363.304 361.849 363.371 361.677 363.493C361.504 363.615 361.373 363.787 361.301 363.986C361.229 364.184 361.22 364.4 361.275 364.604C361.329 364.808 361.445 364.99 361.606 365.127L372.758 374.489C372.691 374.736 372.658 374.99 372.659 375.246C372.668 375.614 372.729 375.98 372.84 376.332C375.393 375.631 378.051 375.397 380.688 375.641C382.34 375.855 385.445 376.579 389.08 377.368C395.589 376.085 408.426 374.193 418.272 376.628C423.674 377.961 425.194 378.52 426.863 378.717H450.404C451.24 378.726 452.05 378.435 452.687 377.896C453.324 377.358 453.744 376.608 453.87 375.786C453.997 374.964 453.821 374.123 453.376 373.42C452.93 372.716 452.245 372.196 451.445 371.955L451.429 371.807ZM368.694 366.476H366.331C366.112 366.476 365.902 366.39 365.747 366.235C365.592 366.081 365.505 365.872 365.505 365.654C365.505 365.435 365.592 365.226 365.747 365.072C365.902 364.918 366.112 364.831 366.331 364.831H368.694C368.913 364.831 369.123 364.918 369.278 365.072C369.433 365.226 369.52 365.435 369.52 365.654C369.52 365.872 369.433 366.081 369.278 366.235C369.123 366.39 368.913 366.476 368.694 366.476ZM374.608 366.476H372.262C372.043 366.476 371.833 366.39 371.678 366.235C371.523 366.081 371.436 365.872 371.436 365.654C371.436 365.435 371.523 365.226 371.678 365.072C371.833 364.918 372.043 364.831 372.262 364.831H374.608C374.827 364.831 375.037 364.918 375.192 365.072C375.347 365.226 375.434 365.435 375.434 365.654C375.434 365.872 375.347 366.081 375.192 366.235C375.037 366.39 374.827 366.476 374.608 366.476ZM440.013 376.644C438.828 376.628 437.688 376.189 436.8 375.407C435.912 374.625 435.334 373.552 435.172 372.383C435.172 372.169 435.172 371.972 435.172 371.774C435.055 371.068 435.094 370.344 435.286 369.654C435.478 368.964 435.818 368.323 436.284 367.777C436.749 367.231 437.328 366.793 437.98 366.492C438.633 366.191 439.343 366.035 440.063 366.035C440.782 366.035 441.492 366.191 442.145 366.492C442.797 366.793 443.376 367.231 443.842 367.777C444.307 368.323 444.647 368.964 444.839 369.654C445.031 370.344 445.07 371.068 444.953 371.774C444.968 371.977 444.968 372.18 444.953 372.383C444.809 373.578 444.223 374.677 443.31 375.465C442.397 376.253 441.221 376.673 440.013 376.644Z" fill="#FFAC42"/>
<path d="M440.013 368.319C439.264 369.595 438.681 370.961 438.278 372.383C438.27 372.504 438.27 372.625 438.278 372.745C438.278 374.111 439.071 375.213 440.046 375.213C441.021 375.213 441.797 374.111 441.797 372.745C441.805 372.625 441.805 372.504 441.797 372.383C441.385 370.956 440.785 369.59 440.013 368.319ZM440.608 373.617C440.277 373.617 440.013 373.239 440.013 372.778C439.995 372.647 439.995 372.514 440.013 372.383C440.153 372.007 440.324 371.644 440.525 371.297C440.718 371.646 440.884 372.009 441.021 372.383C441.079 372.507 441.113 372.641 441.12 372.778C441.203 373.239 440.938 373.65 440.608 373.65V373.617Z" fill="#FFAC42"/>
<path d="M395.49 379.557C393.127 379.87 390.733 379.87 388.37 379.557C387.461 379.458 386.503 379.294 385.512 379.096C384.867 378.965 384.223 378.8 383.546 378.619L383.034 378.487C380.18 377.681 377.178 377.54 374.261 378.076H373.947H373.65L373.072 378.208C371.944 378.393 370.872 378.826 369.933 379.475C373.065 379.279 376.21 379.406 379.316 379.853C380.489 380.001 381.745 380.166 383.05 380.363C387.25 381.095 391.564 380.825 395.639 379.573H395.82L396.019 379.491C395.918 379.532 395.813 379.56 395.705 379.573L395.49 379.557Z" fill="#FFAC42"/>
<path d="M419.66 379.507C418.999 379.376 418.305 379.228 417.611 379.047C416.917 378.866 416.537 378.75 415.959 378.57L414.423 378.027C412.301 377.205 410.032 376.83 407.757 376.923C405.483 377.017 403.253 377.577 401.206 378.57C400.892 378.734 400.595 378.899 400.364 379.047L400.033 379.277L399.736 379.507C399.736 379.507 399.637 379.623 399.637 379.655C400.445 379.485 401.276 379.441 402.098 379.524C403.304 379.524 404.907 379.639 406.774 379.836C408.64 380.034 410.309 380.264 412.325 380.643C413.002 380.758 413.696 380.889 414.406 381.054C415.803 381.353 417.224 381.524 418.652 381.564C422.214 381.769 425.77 381.079 428.994 379.557C428.521 379.736 428.027 379.852 427.523 379.902C424.898 380.184 422.244 380.051 419.66 379.507Z" fill="#FFAC42"/>
<path d="M370.858 519.474C370.858 519.474 453.064 489.859 510.754 509.783C547.182 522.354 541.515 523.11 564.016 522.551C564.016 522.551 508.821 560.887 414.786 527.586C414.769 527.586 394.598 523.653 370.858 519.474Z" fill="#C5D3E1"/>
<path d="M292.864 522.551C292.864 522.551 323.692 499.073 353.181 504.025C376.838 508.007 460.053 544.368 496.249 522.551C496.249 522.551 478.77 570.891 347.432 530.054C347.432 530.054 335.421 510.82 292.864 522.551Z" fill="#ACBAC8"/>
<path d="M418.024 526.499C418.024 527.454 393.937 539.925 363.143 533.081C332.348 526.236 308.113 526.845 308.179 527.816C308.179 525.956 333.092 509.322 363.077 521.234C393.062 533.146 417.975 528.309 418.024 526.499Z" fill="#5C6A78"/>
<path d="M556.648 526.96C556.648 528.408 529.538 547 494.861 536.552C460.185 526.105 432.876 526.993 432.959 528.425C432.959 525.644 461.044 500.816 494.746 518.865C528.448 536.914 556.582 529.757 556.648 526.96Z" fill="#6C7A88"/>
<path d="M252.868 455.242C252.868 455.242 304.528 439.562 340.774 450.108C363.671 456.69 360.12 457.167 374.245 456.87C374.245 456.87 339.551 477.157 280.457 459.536C280.457 459.536 267.786 457.446 252.868 455.242Z" fill="#FFAC42"/>
<path d="M549.957 481.089C549.957 481.682 534.808 489.513 515.463 485.186C496.117 480.859 480.868 481.27 480.918 481.896C480.918 480.727 496.579 470.28 515.413 477.799C534.246 485.318 549.908 482.241 549.957 481.089Z" fill="#FFAC42"/>
<path d="M438.89 445.929C438.89 446.834 421.857 458.516 400.066 451.951C378.276 445.386 361.111 445.945 361.16 446.85C361.16 445.09 378.771 429.492 400 440.828C421.229 452.165 438.857 447.689 438.89 445.929Z" fill="#FFAC42"/>
<path d="M228.566 400.798C228.566 400.915 228.519 401.028 228.435 401.112C228.352 401.195 228.238 401.242 228.12 401.242C228.002 401.242 227.888 401.195 227.805 401.112C227.721 401.028 227.674 400.915 227.674 400.798V359.533C227.678 359.418 227.727 359.309 227.81 359.23C227.893 359.15 228.005 359.105 228.12 359.105C228.236 359.105 228.347 359.15 228.43 359.23C228.513 359.309 228.562 359.418 228.566 359.533V400.798Z" fill="#1D2A38"/>
<path d="M231.143 400.798C231.143 400.915 231.096 401.028 231.013 401.112C230.929 401.195 230.816 401.242 230.697 401.242C230.579 401.242 230.466 401.195 230.382 401.112C230.298 401.028 230.251 400.915 230.251 400.798V359.533C230.256 359.418 230.304 359.309 230.388 359.23C230.471 359.15 230.582 359.105 230.697 359.105C230.813 359.105 230.924 359.15 231.007 359.23C231.09 359.309 231.139 359.418 231.143 359.533V400.798Z" fill="#1D2A38"/>
<path d="M231.799 358.661L224.908 361.016C224.563 361.134 224.379 361.508 224.498 361.852L225.227 363.968C225.346 364.312 225.721 364.495 226.067 364.377L232.958 362.022C233.303 361.904 233.487 361.53 233.368 361.186L232.639 359.07C232.521 358.726 232.145 358.543 231.799 358.661Z" fill="#2C3A48"/>
<path d="M299.489 400.551C299.489 400.61 299.478 400.667 299.455 400.721C299.433 400.775 299.4 400.824 299.358 400.865C299.317 400.907 299.268 400.939 299.214 400.962C299.16 400.984 299.102 400.995 299.043 400.995C298.984 400.995 298.926 400.984 298.872 400.962C298.818 400.939 298.769 400.907 298.728 400.865C298.686 400.824 298.653 400.775 298.631 400.721C298.608 400.667 298.597 400.61 298.597 400.551V354.482C298.601 354.368 298.65 354.259 298.733 354.179C298.816 354.099 298.927 354.055 299.043 354.055C299.158 354.055 299.27 354.099 299.353 354.179C299.436 354.259 299.485 354.368 299.489 354.482V400.551Z" fill="#1D2A38"/>
<path d="M300.034 393.756H298.052C297.632 393.756 297.292 394.095 297.292 394.513V402.525C297.292 402.943 297.632 403.282 298.052 403.282H300.034C300.454 403.282 300.794 402.943 300.794 402.525V394.513C300.794 394.095 300.454 393.756 300.034 393.756Z" fill="#2C3A48"/>
<path d="M301.62 369.866C301.617 370.373 301.463 370.868 301.178 371.288C300.893 371.708 300.489 372.034 300.018 372.226C299.547 372.418 299.029 372.466 298.53 372.365C298.031 372.264 297.574 372.019 297.215 371.659C296.856 371.299 296.612 370.842 296.514 370.345C296.416 369.847 296.468 369.332 296.663 368.864C296.859 368.396 297.189 367.996 297.613 367.715C298.036 367.433 298.534 367.283 299.043 367.283C299.383 367.283 299.719 367.35 300.033 367.48C300.347 367.61 300.632 367.801 300.871 368.041C301.111 368.281 301.3 368.566 301.429 368.879C301.557 369.192 301.622 369.528 301.62 369.866Z" fill="#2C3A48"/>
<path d="M298.167 354.022C298.115 353.858 298.1 353.684 298.123 353.513C298.145 353.343 298.206 353.179 298.3 353.035C300.546 349.645 300.612 342.998 298.481 336.483C296.35 329.967 292.352 324.636 288.569 323.221C288.285 323.111 288.055 322.894 287.929 322.618C287.802 322.341 287.789 322.027 287.892 321.741C288.003 321.458 288.22 321.229 288.498 321.103C288.775 320.977 289.091 320.964 289.378 321.066C293.872 322.711 298.316 328.519 300.695 335.775C303.074 343.031 302.909 350.287 300.265 354.285C300.184 354.42 300.075 354.537 299.945 354.628C299.815 354.719 299.668 354.782 299.512 354.813C299.357 354.844 299.197 354.842 299.042 354.808C298.887 354.774 298.741 354.708 298.613 354.614C298.408 354.466 298.253 354.259 298.167 354.022Z" fill="#FFAC42"/>
<path d="M291.559 338.753L288.255 322.3C288.221 322.115 288.26 321.924 288.365 321.767C288.47 321.611 288.632 321.501 288.817 321.461C288.909 321.442 289.004 321.441 289.097 321.459C289.189 321.477 289.277 321.513 289.355 321.565C289.434 321.617 289.501 321.684 289.553 321.762C289.605 321.841 289.641 321.928 289.659 322.021L292.963 338.326L300.001 353.38C300.08 353.553 300.088 353.75 300.024 353.928C299.959 354.107 299.826 354.252 299.654 354.334C299.481 354.414 299.283 354.422 299.104 354.357C298.925 354.292 298.778 354.16 298.696 353.989L291.559 338.819C291.553 338.798 291.553 338.775 291.559 338.753Z" fill="#FFAC42"/>
<path d="M292.751 333.377L290.206 334.204C289.903 334.303 289.737 334.628 289.836 334.93L292.414 342.798C292.513 343.1 292.839 343.265 293.143 343.167L295.687 342.34C295.99 342.241 296.156 341.916 296.057 341.614L293.48 333.746C293.381 333.444 293.054 333.279 292.751 333.377Z" fill="#FFAC42"/>
<path d="M292.435 336.384C292.137 336.483 291.543 335.495 291.443 335.199L291.212 334.475C291.164 334.333 291.174 334.178 291.238 334.043C291.303 333.908 291.418 333.803 291.559 333.751L297.523 331.826C297.668 331.779 297.825 331.791 297.961 331.859C298.097 331.926 298.201 332.045 298.25 332.188L298.481 332.912C298.528 333.056 298.517 333.213 298.449 333.348C298.381 333.484 298.262 333.587 298.118 333.636L292.435 336.384Z" fill="#FFAC42"/>
<path d="M294.516 342.735C294.37 342.773 294.214 342.755 294.08 342.685C293.945 342.615 293.842 342.498 293.789 342.356L293.558 341.632C293.459 341.336 293.343 340.201 293.657 340.102L299.819 338.984C299.964 338.936 300.121 338.948 300.257 339.016C300.393 339.084 300.497 339.202 300.546 339.345L300.778 340.069C300.825 340.213 300.813 340.37 300.745 340.506C300.677 340.641 300.558 340.745 300.414 340.793L294.516 342.735Z" fill="#FFAC42"/>
<path d="M293.211 339.691C293.269 339.883 293.249 340.089 293.157 340.267C293.065 340.445 292.906 340.581 292.716 340.645L223.147 363.268C223.052 363.304 222.951 363.32 222.849 363.315C222.747 363.31 222.647 363.285 222.556 363.24C222.465 363.195 222.384 363.132 222.318 363.055C222.252 362.978 222.202 362.888 222.173 362.791L221.264 360.043C221.233 359.948 221.222 359.848 221.23 359.748C221.238 359.649 221.266 359.552 221.312 359.463C221.358 359.375 221.422 359.296 221.498 359.232C221.575 359.167 221.664 359.119 221.76 359.089L291.394 336.466C291.585 336.403 291.792 336.418 291.972 336.508C292.151 336.597 292.288 336.754 292.352 336.943L293.211 339.691Z" fill="#4D5A68"/>
<path d="M268.728 350.912C268.728 351.693 268.495 352.457 268.058 353.107C267.622 353.757 267.002 354.263 266.276 354.561C265.551 354.86 264.753 354.937 263.983 354.783C263.213 354.63 262.507 354.252 261.953 353.698C261.399 353.144 261.023 352.439 260.872 351.672C260.721 350.905 260.802 350.11 261.104 349.389C261.407 348.668 261.918 348.052 262.572 347.62C263.226 347.188 263.994 346.96 264.779 346.963C265.299 346.963 265.814 347.065 266.294 347.264C266.774 347.462 267.21 347.754 267.577 348.12C267.944 348.487 268.234 348.923 268.432 349.402C268.629 349.881 268.73 350.394 268.728 350.912Z" fill="#2C3A48"/>
<path d="M273.552 394.727H255.561C255.47 394.729 255.38 394.713 255.296 394.68C255.212 394.647 255.136 394.598 255.071 394.535C255.006 394.472 254.955 394.397 254.92 394.314C254.885 394.231 254.867 394.142 254.867 394.052C254.867 393.869 254.94 393.693 255.07 393.564C255.2 393.434 255.377 393.361 255.561 393.361H273.552C273.642 393.361 273.731 393.379 273.815 393.414C273.898 393.449 273.973 393.5 274.036 393.565C274.1 393.629 274.149 393.705 274.182 393.789C274.215 393.873 274.231 393.962 274.229 394.052C274.229 394.231 274.158 394.403 274.031 394.529C273.904 394.656 273.731 394.727 273.552 394.727Z" fill="#ACBAC8"/>
<path d="M270.082 367.069H259.047C258.956 367.071 258.866 367.055 258.782 367.022C258.698 366.989 258.622 366.94 258.557 366.877C258.492 366.814 258.441 366.739 258.406 366.656C258.371 366.573 258.353 366.484 258.353 366.394C258.353 366.211 258.426 366.035 258.556 365.906C258.686 365.776 258.862 365.703 259.047 365.703H270.082C270.173 365.703 270.262 365.721 270.345 365.756C270.429 365.791 270.504 365.842 270.567 365.906C270.63 365.971 270.68 366.047 270.713 366.131C270.746 366.215 270.762 366.304 270.76 366.394C270.76 366.573 270.688 366.745 270.561 366.871C270.434 366.998 270.262 367.069 270.082 367.069Z" fill="#ACBAC8"/>
<path d="M255.891 393.724C255.732 393.73 255.575 393.68 255.449 393.583C255.322 393.486 255.235 393.347 255.201 393.191C255.167 393.036 255.19 392.874 255.265 392.733C255.34 392.593 255.462 392.483 255.61 392.424L272.924 384.707C273.091 384.635 273.279 384.63 273.449 384.695C273.619 384.759 273.757 384.888 273.833 385.053C273.871 385.135 273.892 385.223 273.896 385.314C273.899 385.404 273.884 385.494 273.851 385.578C273.819 385.663 273.77 385.74 273.707 385.805C273.644 385.87 273.569 385.922 273.486 385.958L256.172 393.674C256.082 393.708 255.987 393.724 255.891 393.724Z" fill="#ACBAC8"/>
<path d="M273.221 377.254C273.15 377.42 273.021 377.554 272.858 377.632L270.644 378.619L257.659 384.394L256.816 384.773H256.535C256.402 384.774 256.271 384.735 256.159 384.662C256.047 384.589 255.96 384.484 255.908 384.362C255.87 384.281 255.848 384.193 255.845 384.104C255.842 384.015 255.857 383.926 255.89 383.843C255.922 383.76 255.971 383.685 256.034 383.621C256.097 383.557 256.172 383.507 256.255 383.473L257.907 382.749L270.462 377.155L272.329 376.332C272.47 376.265 272.63 376.25 272.781 376.289C272.933 376.328 273.065 376.419 273.155 376.546L273.221 377.254Z" fill="#ACBAC8"/>
<path d="M257.692 377.352C257.532 377.359 257.376 377.309 257.249 377.211C257.123 377.114 257.035 376.975 257.002 376.82C256.968 376.664 256.991 376.502 257.066 376.362C257.141 376.221 257.263 376.112 257.411 376.052L271.14 369.915C271.306 369.843 271.495 369.838 271.665 369.903C271.835 369.968 271.973 370.096 272.048 370.261C272.087 370.343 272.108 370.431 272.111 370.522C272.114 370.612 272.099 370.702 272.067 370.786C272.035 370.871 271.986 370.948 271.923 371.013C271.86 371.078 271.785 371.13 271.701 371.166L257.956 377.303C257.872 377.335 257.782 377.352 257.692 377.352Z" fill="#ACBAC8"/>
<path d="M271.734 366.823C271.668 366.895 271.59 366.957 271.503 367.004L269.141 368.057L259.36 372.4L258.171 372.927C258.079 372.951 257.982 372.951 257.89 372.927C257.756 372.927 257.625 372.889 257.514 372.816C257.402 372.742 257.314 372.638 257.262 372.515C257.189 372.349 257.185 372.161 257.25 371.992C257.315 371.823 257.444 371.686 257.609 371.61L259.575 370.738L268.942 366.576L270.941 365.687C271.042 365.631 271.156 365.602 271.272 365.602C271.387 365.602 271.501 365.631 271.602 365.687L271.734 366.823Z" fill="#ACBAC8"/>
<path d="M273.205 393.723H272.924L255.61 385.958C255.467 385.87 255.361 385.733 255.312 385.573C255.262 385.413 255.273 385.24 255.342 385.088C255.41 384.935 255.532 384.812 255.685 384.742C255.838 384.672 256.011 384.66 256.172 384.707L273.486 392.424C273.569 392.459 273.644 392.511 273.707 392.576C273.77 392.641 273.819 392.719 273.851 392.803C273.884 392.887 273.899 392.977 273.895 393.068C273.892 393.158 273.871 393.247 273.833 393.329C273.776 393.447 273.687 393.547 273.576 393.617C273.465 393.687 273.336 393.724 273.205 393.723Z" fill="#ACBAC8"/>
<path d="M272.28 384.822C272.187 384.839 272.091 384.839 271.999 384.822L256.552 377.945C256.457 377.909 256.371 377.852 256.3 377.779C256.229 377.707 256.176 377.619 256.143 377.524C256.109 377.428 256.098 377.326 256.109 377.225C256.119 377.125 256.152 377.028 256.205 376.941C256.241 376.858 256.293 376.783 256.358 376.72C256.424 376.658 256.501 376.609 256.586 376.577C256.671 376.544 256.761 376.529 256.852 376.533C256.942 376.536 257.031 376.557 257.114 376.595L272.56 383.522C272.709 383.582 272.831 383.691 272.906 383.832C272.981 383.972 273.003 384.134 272.97 384.29C272.936 384.445 272.848 384.584 272.722 384.681C272.596 384.779 272.439 384.829 272.28 384.822Z" fill="#ACBAC8"/>
<path d="M271.222 377.04C271.129 377.057 271.034 377.057 270.941 377.04L257.609 371.101C257.445 371.028 257.316 370.894 257.251 370.728C257.186 370.561 257.19 370.376 257.262 370.212C257.335 370.044 257.471 369.912 257.642 369.844C257.812 369.777 258.002 369.779 258.171 369.85L271.503 375.79C271.668 375.865 271.798 376.002 271.862 376.171C271.927 376.341 271.923 376.529 271.85 376.695C271.786 376.802 271.693 376.891 271.583 376.952C271.473 377.013 271.348 377.043 271.222 377.04Z" fill="#ACBAC8"/>
<path d="M270.76 372.713C270.667 372.728 270.572 372.728 270.479 372.713L258.072 367.07C257.99 367.034 257.915 366.982 257.852 366.918C257.79 366.854 257.741 366.778 257.708 366.694C257.675 366.611 257.659 366.522 257.66 366.433C257.662 366.343 257.681 366.255 257.717 366.173C257.753 366.091 257.804 366.016 257.869 365.954C257.934 365.892 258.01 365.843 258.093 365.81C258.177 365.777 258.266 365.761 258.356 365.763C258.446 365.764 258.535 365.783 258.617 365.819L271.041 371.347C271.206 371.423 271.335 371.56 271.4 371.729C271.465 371.898 271.46 372.086 271.388 372.252C271.343 372.384 271.259 372.499 271.147 372.582C271.035 372.664 270.899 372.71 270.76 372.713Z" fill="#ACBAC8"/>
<path d="M253.777 403.266H253.562C253.383 403.242 253.211 403.183 253.056 403.092C252.9 403 252.765 402.879 252.657 402.735C252.549 402.591 252.472 402.427 252.428 402.253C252.385 402.078 252.377 401.897 252.405 401.72L259.129 354.285C259.183 353.927 259.375 353.603 259.666 353.385C259.956 353.166 260.321 353.07 260.682 353.117C261.044 353.174 261.369 353.369 261.588 353.661C261.807 353.953 261.903 354.319 261.855 354.68L255.214 402.115C255.161 402.45 254.985 402.754 254.719 402.967C254.453 403.18 254.117 403.287 253.777 403.266Z" fill="#8C9AA8"/>
<path d="M275.518 403.266H275.336C275.003 403.265 274.681 403.145 274.429 402.928C274.177 402.71 274.012 402.41 273.965 402.081L270.644 378.586L270.429 377.171L269.141 368.023L268.942 366.608L267.29 354.663C267.24 354.303 267.335 353.938 267.555 353.648C267.775 353.358 268.102 353.167 268.463 353.117C268.825 353.066 269.192 353.161 269.483 353.38C269.774 353.599 269.966 353.925 270.016 354.285L271.668 365.802L271.801 366.822L273.188 376.595L273.287 377.253L276.691 401.736C276.738 402.093 276.641 402.455 276.421 402.742C276.201 403.028 275.876 403.217 275.518 403.266Z" fill="#8C9AA8"/>
<path d="M264.548 403.266C263.904 403.266 263.375 402.953 263.375 402.575V355.19C263.375 354.812 263.904 354.499 264.548 354.499C265.192 354.499 265.704 354.812 265.704 355.19V402.608C265.704 402.986 265.126 403.266 264.548 403.266Z" fill="#8C9AA8"/>
<path d="M271.173 352.722H257.923C257.294 352.722 256.783 353.23 256.783 353.857V355.831C256.783 356.458 257.294 356.967 257.923 356.967H271.173C271.802 356.967 272.313 356.458 272.313 355.831V353.857C272.313 353.23 271.802 352.722 271.173 352.722Z" fill="#EF893A"/>
<path d="M235.951 387.701H221.148C220.519 387.701 220.008 388.209 220.008 388.836V397.902C220.008 398.529 220.519 399.037 221.148 399.037H235.951C236.58 399.037 237.091 398.529 237.091 397.902V388.836C237.091 388.209 236.58 387.701 235.951 387.701Z" fill="#2C3A48"/>
<path d="M299.654 398.527H218.373C217.287 398.527 216.407 399.404 216.407 400.485V404.895C216.407 405.976 217.287 406.853 218.373 406.853H299.654C300.74 406.853 301.62 405.976 301.62 404.895V400.485C301.62 399.404 300.74 398.527 299.654 398.527Z" fill="#1D2A38"/>
<path d="M291.371 335.47L289.522 336.086C289.133 336.216 288.923 336.636 289.053 337.023L290.5 341.33C290.63 341.718 291.052 341.927 291.441 341.797L293.29 341.181C293.679 341.051 293.889 340.632 293.759 340.244L292.312 335.938C292.182 335.55 291.76 335.341 291.371 335.47Z" fill="#5C6A78"/>
<path d="M314.688 400.831C314.688 401.634 315.008 402.404 315.578 402.972C316.148 403.539 316.922 403.858 317.728 403.858C318.127 403.858 318.522 403.78 318.891 403.628C319.26 403.476 319.595 403.253 319.877 402.972C320.159 402.691 320.383 402.357 320.536 401.99C320.689 401.622 320.768 401.229 320.768 400.831V390.433C320.768 390.035 320.689 389.641 320.536 389.274C320.383 388.907 320.159 388.573 319.877 388.292C319.595 388.011 319.26 387.788 318.891 387.636C318.522 387.484 318.127 387.405 317.728 387.405C316.922 387.405 316.148 387.724 315.578 388.292C315.008 388.86 314.688 389.63 314.688 390.433V400.831Z" fill="#3C4A58"/>
<path d="M350.504 408.202C350.504 408.495 350.62 408.778 350.828 408.987C351.035 409.196 351.316 409.316 351.611 409.32C351.901 409.308 352.174 409.184 352.374 408.976C352.574 408.767 352.685 408.49 352.685 408.202V404.911C352.687 404.763 352.66 404.617 352.604 404.48C352.548 404.343 352.466 404.219 352.361 404.115C352.256 404.011 352.132 403.928 351.994 403.873C351.857 403.817 351.71 403.79 351.562 403.792C351.415 403.792 351.27 403.821 351.134 403.878C350.999 403.934 350.876 404.017 350.773 404.121C350.67 404.225 350.589 404.348 350.534 404.484C350.48 404.62 350.453 404.765 350.455 404.911L350.504 408.202Z" fill="#D6741D"/>
<path d="M330.878 401.735H269.884C269.035 401.735 268.348 402.42 268.348 403.265V409.353C268.348 410.198 269.035 410.883 269.884 410.883H330.878C331.726 410.883 332.414 410.198 332.414 409.353V403.265C332.414 402.42 331.726 401.735 330.878 401.735Z" fill="#2C3A48"/>
<path d="M330.878 401.735H269.884C269.035 401.735 268.348 402.42 268.348 403.265V409.353C268.348 410.198 269.035 410.883 269.884 410.883H330.878C331.726 410.883 332.414 410.198 332.414 409.353V403.265C332.414 402.42 331.726 401.735 330.878 401.735Z" fill="#8C9AA8"/>
<path d="M318.669 403.496V381.778C318.635 381.496 318.66 381.209 318.743 380.937C318.826 380.665 318.965 380.413 319.152 380.198C319.339 379.982 319.569 379.808 319.827 379.686C320.085 379.565 320.366 379.498 320.652 379.491H333.439C333.901 379.491 351.033 396.816 351.033 396.816C351.195 396.958 351.325 397.133 351.413 397.328C351.502 397.524 351.547 397.737 351.545 397.952V409.354C351.545 409.555 351.506 409.754 351.428 409.939C351.351 410.125 351.238 410.294 351.095 410.436C350.953 410.578 350.783 410.69 350.597 410.767C350.41 410.844 350.211 410.884 350.009 410.884H337.453C337.044 410.884 336.652 410.723 336.361 410.437C336.07 410.15 335.905 409.761 335.9 409.354V408.399H320.074C319.665 408.399 319.272 408.239 318.981 407.952C318.691 407.666 318.525 407.277 318.521 406.869V404.138C318.526 403.916 318.577 403.698 318.669 403.496Z" fill="#ACBAC8"/>
<path d="M320.817 384.23V390.581C320.817 391.017 320.991 391.436 321.301 391.744C321.611 392.053 322.031 392.226 322.469 392.226H340.41H341.203C342.707 392.078 342.856 391.486 342.129 390.581L334.199 382.519H322.535C322.307 382.51 322.079 382.548 321.867 382.63C321.654 382.713 321.461 382.839 321.3 382.999C321.138 383.16 321.012 383.353 320.929 383.564C320.846 383.776 320.808 384.003 320.817 384.23Z" fill="#5C6A78"/>
<path d="M349.579 396.833H345.466C344.617 396.833 343.929 397.518 343.929 398.363V400.436C343.929 401.281 344.617 401.966 345.466 401.966H349.579C350.428 401.966 351.116 401.281 351.116 400.436V398.363C351.116 397.518 350.428 396.833 349.579 396.833Z" fill="#D9E5F2"/>
<path d="M326.153 394.678H322.75C322.449 394.678 322.205 394.921 322.205 395.221V395.862C322.205 396.162 322.449 396.405 322.75 396.405H326.153C326.454 396.405 326.698 396.162 326.698 395.862V395.221C326.698 394.921 326.454 394.678 326.153 394.678Z" fill="#6C7A88"/>
<path d="M331.06 408.448C331.06 408.491 331.068 408.534 331.085 408.574C331.102 408.614 331.126 408.65 331.157 408.681C331.187 408.711 331.224 408.736 331.264 408.752C331.304 408.769 331.347 408.777 331.39 408.777H332.381C332.469 408.777 332.553 408.743 332.615 408.681C332.677 408.619 332.712 408.535 332.712 408.448C332.712 408.361 332.677 408.277 332.615 408.216C332.553 408.154 332.469 408.119 332.381 408.119H331.39C331.347 408.119 331.304 408.128 331.264 408.144C331.224 408.161 331.187 408.185 331.157 408.216C331.126 408.246 331.102 408.282 331.085 408.322C331.068 408.362 331.06 408.405 331.06 408.448Z" fill="#4D4D4D"/>
<path d="M347.035 398.626C347.033 398.799 347.066 398.971 347.131 399.132C347.197 399.293 347.294 399.439 347.417 399.561C347.541 399.684 347.687 399.781 347.849 399.846C348.01 399.912 348.183 399.944 348.357 399.942H349.381C349.732 399.942 350.068 399.803 350.316 399.557C350.564 399.31 350.703 398.975 350.703 398.626C350.703 398.277 350.564 397.942 350.316 397.695C350.068 397.448 349.732 397.31 349.381 397.31H348.357C348.006 397.31 347.67 397.448 347.422 397.695C347.175 397.942 347.035 398.277 347.035 398.626Z" fill="white"/>
<path d="M325.74 410.883C325.74 412.11 326.106 413.31 326.79 414.33C327.474 415.35 328.447 416.145 329.585 416.614C330.723 417.084 331.975 417.206 333.184 416.967C334.392 416.728 335.501 416.137 336.373 415.27C337.244 414.402 337.837 413.297 338.077 412.094C338.317 410.89 338.194 409.643 337.723 408.51C337.251 407.376 336.453 406.408 335.429 405.726C334.404 405.044 333.2 404.681 331.968 404.681C330.317 404.681 328.732 405.334 327.564 406.497C326.396 407.661 325.74 409.238 325.74 410.883Z" fill="#3C4A58"/>
<path d="M324.832 411.855C325.068 411.855 325.295 411.761 325.462 411.594C325.63 411.428 325.724 411.202 325.724 410.966C325.724 409.317 326.382 407.735 327.553 406.568C328.724 405.402 330.312 404.747 331.968 404.747C333.625 404.747 335.213 405.402 336.384 406.568C337.555 407.735 338.213 409.317 338.213 410.966C338.196 411.092 338.206 411.22 338.242 411.341C338.279 411.463 338.341 411.575 338.425 411.671C338.508 411.766 338.612 411.843 338.728 411.896C338.844 411.948 338.97 411.975 339.097 411.975C339.224 411.975 339.35 411.948 339.466 411.896C339.582 411.843 339.686 411.766 339.769 411.671C339.853 411.575 339.915 411.463 339.952 411.341C339.988 411.22 339.998 411.092 339.981 410.966C339.981 408.85 339.137 406.82 337.634 405.324C336.131 403.827 334.093 402.986 331.968 402.986C329.843 402.986 327.805 403.827 326.303 405.324C324.8 406.82 323.956 408.85 323.956 410.966C323.956 411.199 324.048 411.422 324.211 411.589C324.375 411.755 324.598 411.85 324.832 411.855Z" fill="#7C8A98"/>
<path d="M328.086 410.752C328.086 411.517 328.314 412.264 328.74 412.9C329.167 413.536 329.773 414.032 330.483 414.324C331.192 414.617 331.973 414.694 332.726 414.544C333.479 414.395 334.171 414.027 334.714 413.486C335.257 412.946 335.626 412.257 335.776 411.507C335.926 410.757 335.849 409.979 335.555 409.273C335.261 408.566 334.764 407.962 334.125 407.537C333.487 407.113 332.736 406.886 331.968 406.886C331.459 406.886 330.954 406.986 330.483 407.18C330.012 407.374 329.584 407.659 329.223 408.018C328.863 408.377 328.577 408.803 328.382 409.273C328.186 409.742 328.086 410.244 328.086 410.752Z" fill="#5C6A78"/>
<path d="M277.054 410.884C277.054 412.11 277.419 413.308 278.102 414.328C278.786 415.348 279.758 416.143 280.895 416.613C282.032 417.083 283.284 417.206 284.491 416.968C285.699 416.73 286.809 416.141 287.68 415.275C288.552 414.41 289.147 413.306 289.389 412.104C289.631 410.902 289.51 409.655 289.041 408.521C288.572 407.388 287.777 406.418 286.754 405.734C285.732 405.051 284.53 404.684 283.299 404.681C282.479 404.676 281.666 404.834 280.908 405.144C280.149 405.454 279.46 405.91 278.879 406.487C278.299 407.063 277.838 407.749 277.525 408.503C277.212 409.258 277.052 410.067 277.054 410.884Z" fill="#3C4A58"/>
<path d="M279.4 410.752C279.4 411.516 279.627 412.263 280.053 412.899C280.479 413.534 281.084 414.03 281.793 414.323C282.501 414.616 283.281 414.693 284.034 414.546C284.786 414.398 285.478 414.031 286.022 413.492C286.565 412.953 286.936 412.266 287.088 411.517C287.24 410.768 287.165 409.991 286.874 409.284C286.582 408.577 286.087 407.972 285.451 407.545C284.815 407.119 284.066 406.889 283.299 406.886C282.788 406.884 282.281 406.982 281.808 407.175C281.335 407.369 280.905 407.653 280.543 408.012C280.181 408.372 279.893 408.799 279.697 409.269C279.501 409.739 279.4 410.243 279.4 410.752Z" fill="#5C6A78"/>
<path d="M295.094 378.684C295.094 379.121 295.269 379.539 295.578 379.848C295.888 380.156 296.308 380.33 296.747 380.33H307.733C308.171 380.33 308.591 380.156 308.901 379.848C309.211 379.539 309.385 379.121 309.385 378.684C309.385 378.248 309.211 377.83 308.901 377.521C308.591 377.212 308.171 377.039 307.733 377.039H296.796C296.358 377.039 295.938 377.212 295.628 377.521C295.318 377.83 295.144 378.248 295.144 378.684H295.094Z" fill="#1D2A38"/>
<path d="M313.432 379.03H268.596C266.707 379.03 265.176 380.555 265.176 382.436V400.337C265.176 402.218 266.707 403.743 268.596 403.743H313.432C315.321 403.743 316.852 402.218 316.852 400.337V382.436C316.852 380.555 315.321 379.03 313.432 379.03Z" fill="#5C6A78"/>
<path d="M303.14 379.03H301.604V403.743H303.14V379.03Z" fill="#2C3A48"/>
<path d="M280.408 379.03H278.871V403.743H280.408V379.03Z" fill="#2C3A48"/>
<path d="M283.514 390.416C283.51 391.864 283.939 393.281 284.745 394.488C285.55 395.694 286.697 396.635 288.04 397.192C289.383 397.748 290.862 397.896 292.289 397.615C293.716 397.334 295.028 396.638 296.058 395.615C297.088 394.592 297.789 393.287 298.074 391.866C298.359 390.446 298.215 388.973 297.659 387.634C297.103 386.295 296.161 385.151 294.951 384.345C293.742 383.54 292.32 383.11 290.865 383.11C288.918 383.11 287.051 383.879 285.673 385.249C284.294 386.619 283.518 388.477 283.514 390.416Z" fill="#E9EFF7"/>
<path d="M288.255 391.88C288.255 393.937 289.444 395.598 290.898 395.598C292.352 395.598 293.542 393.953 293.542 391.88C293.542 389.807 290.898 385.299 290.898 385.299C290.898 385.299 288.255 389.823 288.255 391.88Z" fill="#2C3A48"/>
<path d="M289.081 391.947C289.081 392.638 289.477 393.197 289.973 393.197C290.469 393.197 290.865 392.638 290.865 391.947C290.673 391.153 290.349 390.396 289.907 389.709C289.511 390.405 289.232 391.161 289.081 391.947Z" fill="white"/>
<path d="M276.063 402.295C276.177 402.295 276.286 402.25 276.367 402.169C276.447 402.089 276.492 401.98 276.492 401.867V377.664C276.492 377.551 276.447 377.442 276.367 377.362C276.286 377.282 276.177 377.237 276.063 377.237C276.006 377.234 275.949 377.244 275.896 377.265C275.843 377.285 275.794 377.317 275.754 377.357C275.714 377.397 275.682 377.445 275.661 377.498C275.641 377.551 275.631 377.608 275.633 377.664V401.867C275.633 401.98 275.679 402.089 275.759 402.169C275.84 402.25 275.949 402.295 276.063 402.295Z" fill="#3C4A58"/>
<path d="M271.008 402.295C271.121 402.295 271.231 402.25 271.311 402.169C271.392 402.089 271.437 401.98 271.437 401.867V377.664C271.439 377.608 271.43 377.551 271.409 377.498C271.388 377.445 271.357 377.397 271.316 377.357C271.276 377.317 271.228 377.285 271.175 377.265C271.121 377.244 271.065 377.234 271.008 377.237C270.894 377.237 270.784 377.282 270.704 377.362C270.623 377.442 270.578 377.551 270.578 377.664V401.867C270.578 401.98 270.623 402.089 270.704 402.169C270.784 402.25 270.894 402.295 271.008 402.295Z" fill="#3C4A58"/>
<path d="M271.008 380.824H276.063C276.177 380.824 276.286 380.779 276.367 380.699C276.447 380.619 276.492 380.51 276.492 380.397C276.492 380.283 276.447 380.174 276.367 380.094C276.286 380.014 276.177 379.969 276.063 379.969H271.008C270.894 379.969 270.784 380.014 270.704 380.094C270.623 380.174 270.578 380.283 270.578 380.397C270.578 380.51 270.623 380.619 270.704 380.699C270.784 380.779 270.894 380.824 271.008 380.824Z" fill="#3C4A58"/>
<path d="M271.008 384.559H276.063C276.177 384.559 276.286 384.514 276.367 384.433C276.447 384.353 276.492 384.244 276.492 384.131C276.492 384.017 276.447 383.909 276.367 383.828C276.286 383.748 276.177 383.703 276.063 383.703H271.008C270.894 383.703 270.784 383.748 270.704 383.828C270.623 383.909 270.578 384.017 270.578 384.131C270.578 384.244 270.623 384.353 270.704 384.433C270.784 384.514 270.894 384.559 271.008 384.559Z" fill="#3C4A58"/>
<path d="M271.008 388.31H276.063C276.177 388.31 276.286 388.265 276.367 388.184C276.447 388.104 276.492 387.995 276.492 387.882C276.492 387.768 276.447 387.66 276.367 387.579C276.286 387.499 276.177 387.454 276.063 387.454H271.008C270.894 387.454 270.784 387.499 270.704 387.579C270.623 387.66 270.578 387.768 270.578 387.882C270.578 387.995 270.623 388.104 270.704 388.184C270.784 388.265 270.894 388.31 271.008 388.31Z" fill="#3C4A58"/>
<path d="M271.008 392.062H276.063C276.177 392.062 276.286 392.017 276.367 391.936C276.447 391.856 276.492 391.747 276.492 391.634C276.492 391.52 276.447 391.412 276.367 391.331C276.286 391.251 276.177 391.206 276.063 391.206H271.008C270.894 391.206 270.784 391.251 270.704 391.331C270.623 391.412 270.578 391.52 270.578 391.634C270.578 391.747 270.623 391.856 270.704 391.936C270.784 392.017 270.894 392.062 271.008 392.062Z" fill="#3C4A58"/>
<path d="M271.008 395.813H276.063C276.177 395.813 276.286 395.768 276.367 395.687C276.447 395.607 276.492 395.498 276.492 395.385C276.492 395.271 276.447 395.163 276.367 395.082C276.286 395.002 276.177 394.957 276.063 394.957H271.008C270.894 394.957 270.784 395.002 270.704 395.082C270.623 395.163 270.578 395.271 270.578 395.385C270.578 395.498 270.623 395.607 270.704 395.687C270.784 395.768 270.894 395.813 271.008 395.813Z" fill="#3C4A58"/>
<path d="M322.205 392.292V386.319C322.205 385.852 322.391 385.404 322.723 385.074C323.054 384.744 323.504 384.559 323.973 384.559C324.441 384.559 324.891 384.744 325.222 385.074C325.554 385.404 325.74 385.852 325.74 386.319V392.292H322.205Z" fill="#3C4A58"/>
<path d="M337.04 391.962H337.172C337.284 391.946 337.392 391.908 337.489 391.851C337.586 391.793 337.67 391.717 337.738 391.627C337.805 391.537 337.854 391.434 337.882 391.325C337.91 391.216 337.916 391.103 337.899 390.992C337.891 390.904 337.891 390.816 337.899 390.728C337.889 390.412 337.971 390.099 338.135 389.827C338.299 389.556 338.539 389.338 338.824 389.198C339.026 389.091 339.177 388.909 339.243 388.692C339.31 388.474 339.287 388.239 339.18 388.038C339.072 387.838 338.889 387.688 338.671 387.621C338.452 387.555 338.216 387.578 338.015 387.685C337.457 387.972 336.99 388.406 336.663 388.94C336.337 389.474 336.164 390.087 336.165 390.712C336.148 390.882 336.148 391.052 336.165 391.222C336.193 391.431 336.298 391.623 336.46 391.759C336.622 391.896 336.828 391.968 337.04 391.962Z" fill="#3C4A58"/>
<path d="M289.329 497.476H388.584C389.32 497.476 390.048 497.621 390.728 497.901C391.407 498.181 392.025 498.592 392.545 499.11C393.065 499.628 393.477 500.243 393.759 500.919C394.04 501.596 394.185 502.321 394.185 503.054V510.211C394.185 510.943 394.04 511.669 393.759 512.345C393.477 513.022 393.065 513.637 392.545 514.155C392.025 514.673 391.407 515.084 390.728 515.364C390.048 515.644 389.32 515.789 388.584 515.789H289.329C288.593 515.791 287.863 515.648 287.183 515.368C286.503 515.089 285.884 514.678 285.364 514.16C284.843 513.641 284.431 513.026 284.15 512.348C283.869 511.67 283.726 510.944 283.728 510.211V503.021C283.728 501.542 284.318 500.123 285.369 499.077C286.419 498.031 287.843 497.443 289.329 497.443V497.476Z" fill="#D6741D"/>
<path d="M456.451 483.672H365.373C362.763 483.672 360.648 485.779 360.648 488.377V510.984C360.648 513.583 362.763 515.69 365.373 515.69H456.451C459.06 515.69 461.176 513.583 461.176 510.984V488.377C461.176 485.779 459.06 483.672 456.451 483.672Z" fill="#D6741D"/>
<path d="M361.672 475.413H460.234C461.72 475.413 463.144 476.001 464.194 477.047C465.245 478.093 465.835 479.511 465.835 480.991V483.08C465.835 484.56 465.245 485.978 464.194 487.024C463.144 488.07 461.72 488.658 460.234 488.658H361.672C360.192 488.658 358.771 488.072 357.724 487.029C356.677 485.986 356.089 484.572 356.089 483.097V480.991C356.086 480.259 356.229 479.534 356.509 478.857C356.788 478.181 357.199 477.566 357.718 477.048C358.237 476.53 358.853 476.118 359.532 475.838C360.21 475.557 360.938 475.413 361.672 475.413Z" fill="#FFAC42"/>
<path d="M409.037 472.961V479.542C409.032 481.02 408.441 482.436 407.392 483.481C406.342 484.526 404.92 485.115 403.436 485.12H361.656C360.288 485.109 358.971 484.602 357.952 483.693C356.933 482.784 356.282 481.537 356.121 480.184C356.121 479.953 356.121 479.723 356.121 479.476V472.895C356.106 472.786 356.106 472.675 356.121 472.566C356.225 471.174 356.853 469.871 357.879 468.92C358.905 467.968 360.254 467.437 361.656 467.433H403.436C404.913 467.433 406.33 468.013 407.379 469.049C408.428 470.084 409.024 471.49 409.037 472.961Z" fill="#FFAC42"/>
<path d="M373.369 502.643C373.369 503.356 373.086 504.04 372.581 504.545C372.077 505.051 371.392 505.337 370.676 505.341C369.958 505.341 369.268 505.057 368.76 504.551C368.252 504.045 367.967 503.358 367.967 502.643V493.659C367.967 493.306 368.037 492.956 368.173 492.629C368.31 492.303 368.51 492.007 368.761 491.757C369.013 491.508 369.312 491.311 369.641 491.177C369.969 491.043 370.321 490.975 370.676 490.978C371.39 490.978 372.075 491.26 372.58 491.763C373.085 492.266 373.369 492.948 373.369 493.659V502.643Z" fill="#C5D3E1"/>
<path d="M383.843 502.643C383.843 503.358 383.558 504.045 383.05 504.551C382.541 505.057 381.852 505.341 381.134 505.341C380.418 505.337 379.733 505.051 379.229 504.545C378.724 504.04 378.441 503.356 378.441 502.643V493.659C378.441 492.948 378.725 492.266 379.23 491.763C379.735 491.26 380.42 490.978 381.134 490.978C381.489 490.975 381.841 491.043 382.169 491.177C382.498 491.311 382.797 491.508 383.049 491.757C383.3 492.007 383.5 492.303 383.637 492.629C383.773 492.956 383.843 493.306 383.843 493.659V502.643Z" fill="#C5D3E1"/>
<path d="M394.317 502.643C394.313 503.357 394.026 504.041 393.519 504.546C393.012 505.051 392.325 505.337 391.608 505.341C390.892 505.337 390.207 505.051 389.703 504.545C389.198 504.039 388.915 503.356 388.915 502.643V493.659C388.915 492.948 389.199 492.266 389.704 491.763C390.209 491.26 390.894 490.978 391.608 490.978C392.324 490.978 393.01 491.26 393.518 491.762C394.025 492.265 394.313 492.947 394.317 493.659V502.643Z" fill="#C5D3E1"/>
<path d="M404.775 502.642C404.758 503.344 404.467 504.011 403.964 504.502C403.461 504.993 402.786 505.271 402.082 505.275C401.366 505.27 400.681 504.984 400.177 504.479C399.672 503.973 399.389 503.289 399.389 502.576V493.593C399.389 492.882 399.673 492.2 400.178 491.697C400.683 491.194 401.368 490.911 402.082 490.911C402.796 490.911 403.481 491.194 403.986 491.697C404.491 492.2 404.775 492.882 404.775 493.593V502.642Z" fill="#C5D3E1"/>
<path d="M468.329 514.16C469.253 510.27 469.636 506.273 469.469 502.28C469.469 501.392 469.469 500.503 469.469 499.599C469.476 499.229 469.408 498.862 469.271 498.519C469.134 498.176 468.929 497.864 468.669 497.6C468.409 497.337 468.099 497.128 467.757 496.985C467.415 496.842 467.048 496.769 466.677 496.769L411.697 496.456C411.107 496.439 410.528 496.612 410.045 496.95L401.95 502.56L316.34 501.886L269.802 490.467C269.585 490.415 269.363 490.388 269.141 490.385L226.319 490.681C225.741 490.677 225.176 490.851 224.702 491.181C224.228 491.51 223.868 491.978 223.672 492.52C223.476 493.061 223.454 493.65 223.609 494.205C223.763 494.76 224.087 495.253 224.535 495.617L254.784 521.02C254.627 521.706 254.544 522.407 254.536 523.11C254.536 525.606 255.532 528 257.304 529.765C259.076 531.53 261.48 532.521 263.986 532.521H444.788C444.908 532.53 445.03 532.53 445.151 532.521C445.349 532.521 445.514 532.521 445.713 532.521H465.455C467.731 532.564 469.945 531.784 471.688 530.325C473.431 528.867 474.585 526.829 474.935 524.589C475.286 522.349 474.81 520.059 473.596 518.141C472.381 516.224 470.51 514.809 468.329 514.16Z" fill="#2C3A48"/>
<path d="M450.57 514.044C450.57 516.648 449.795 519.192 448.342 521.357C446.89 523.522 444.826 525.209 442.411 526.205C439.996 527.201 437.339 527.462 434.775 526.954C432.211 526.446 429.856 525.192 428.008 523.352C426.159 521.511 424.901 519.165 424.391 516.612C423.881 514.059 424.142 511.412 425.143 509.007C426.143 506.602 427.837 504.546 430.011 503.1C432.184 501.654 434.739 500.882 437.353 500.882C440.858 500.882 444.22 502.269 446.699 504.737C449.177 507.205 450.57 510.553 450.57 514.044Z" fill="#E9EFF7"/>
<path d="M442.062 516.677C442.062 520.395 439.93 523.406 437.287 523.406C434.644 523.406 432.513 520.395 432.513 516.677C432.513 512.959 437.287 504.683 437.287 504.683C437.287 504.683 442.062 512.959 442.062 516.677Z" fill="#2C3A48"/>
<path d="M440.509 516.793C440.509 518.043 439.782 519.063 438.857 519.063C437.931 519.063 437.205 518.043 437.205 516.793C437.525 515.361 438.083 513.993 438.857 512.745C439.628 513.994 440.186 515.362 440.509 516.793Z" fill="white"/>
<path d="M245.979 497.476C245.979 498.061 245.746 498.622 245.33 499.035C244.915 499.448 244.352 499.681 243.765 499.681H237.372C236.783 499.681 236.218 499.449 235.8 499.036C235.383 498.623 235.146 498.062 235.141 497.476C235.141 496.887 235.376 496.322 235.795 495.905C236.213 495.489 236.78 495.255 237.372 495.255H243.765C244.057 495.255 244.346 495.312 244.616 495.424C244.886 495.536 245.131 495.7 245.336 495.906C245.542 496.113 245.705 496.358 245.815 496.627C245.925 496.897 245.981 497.185 245.979 497.476Z" fill="#BCCAD8"/>
<path d="M262.07 497.476C262.066 498.062 261.829 498.623 261.411 499.036C260.993 499.449 260.428 499.681 259.84 499.681H253.446C252.859 499.681 252.296 499.448 251.881 499.035C251.466 498.622 251.232 498.061 251.232 497.476C251.23 497.185 251.286 496.897 251.396 496.627C251.506 496.358 251.669 496.113 251.875 495.906C252.081 495.7 252.325 495.536 252.595 495.424C252.865 495.312 253.154 495.255 253.446 495.255H259.84C260.431 495.255 260.998 495.489 261.417 495.905C261.835 496.322 262.07 496.887 262.07 497.476Z" fill="#BCCAD8"/>
<path d="M399.389 474.475C399.376 474.956 399.176 475.414 398.831 475.752C398.486 476.089 398.022 476.28 397.539 476.284H356.072V472.994C356.056 472.885 356.056 472.774 356.072 472.665H397.505C397.749 472.658 397.991 472.7 398.219 472.788C398.446 472.876 398.653 473.008 398.828 473.176C399.004 473.345 399.144 473.546 399.24 473.769C399.336 473.992 399.387 474.232 399.389 474.475Z" fill="#E9EFF7"/>
<path d="M438.212 404.911L438.377 407.329L440.261 406.161L438.212 404.911ZM438.923 415.342L439.038 416.905L440.261 416.148L438.923 415.342ZM439.633 425.757V426.481L440.195 426.135L439.633 425.757ZM438.212 404.911L438.377 407.329L440.261 406.161L438.212 404.911ZM438.923 415.342L439.038 416.905L440.261 416.148L438.923 415.342ZM439.633 425.757V426.481L440.195 426.135L439.633 425.757ZM438.212 404.911L438.377 407.329L440.261 406.161L438.212 404.911ZM439.038 416.905L440.261 416.148L438.923 415.342L439.038 416.905ZM439.683 426.481L440.244 426.135L439.633 425.757L439.683 426.481ZM442.722 430.907L442.425 426.3L441.781 416.872V416V415.605V415.457L441.235 407.231V406.638V405.701V404.96L440.74 397.639L440.641 396.224V396.108L440.525 394.562L438.377 363.038C438.377 362.68 438.235 362.337 437.981 362.084C437.727 361.831 437.382 361.688 437.023 361.688C436.663 361.688 436.319 361.831 436.065 362.084C435.811 362.337 435.668 362.68 435.668 363.038L433.785 390.597L433.686 391.979L433.074 400.715V400.896V401.554V402.377L431.092 431.154C431.081 431.535 431.217 431.905 431.472 432.19C431.601 432.323 431.754 432.429 431.925 432.503C432.095 432.576 432.278 432.615 432.463 432.618H441.814C441.994 432.618 442.172 432.583 442.338 432.514C442.505 432.445 442.656 432.345 442.783 432.218C442.911 432.091 443.012 431.941 443.081 431.775C443.149 431.609 443.185 431.432 443.185 431.252C443.068 431.083 442.908 430.947 442.722 430.857V430.907ZM433.537 429.903L434.049 422.351V421.496V420.805V419.834L434.545 412.775L434.644 411.245V411.097L434.743 409.452L435.172 403.216L435.272 401.702L435.354 400.699L435.453 399.053L435.833 393.657L435.932 392.143L436.544 383.275L437.204 392.9L437.32 394.545L437.535 397.836L437.634 399.366L437.898 403.348L438.03 404.993L438.196 407.412L438.295 408.942L438.625 413.746L438.741 415.391L438.857 416.954L438.956 418.485L439.336 424.128L439.451 425.773V426.497L439.567 428.027L439.683 429.92L433.537 429.903ZM439.633 425.757V426.481L440.195 426.135L439.633 425.757ZM438.923 415.342L439.038 416.905L440.261 416.148L438.923 415.342ZM438.212 404.911L438.377 407.329L440.261 406.161L438.212 404.911ZM439.633 425.757V426.481L440.195 426.135L439.633 425.757ZM438.923 415.342L439.038 416.905L440.261 416.148L438.923 415.342ZM438.212 404.911L438.377 407.329L440.261 406.161L438.212 404.911ZM439.633 425.757V426.481L440.195 426.135L439.633 425.757ZM438.923 415.342L439.038 416.905L440.261 416.148L438.923 415.342ZM438.212 404.911L438.377 407.329L440.261 406.161L438.212 404.911Z" fill="#2C3A48"/>
<path d="M432.441 419.73L431.726 420.896L440.662 426.337L441.377 425.171L432.441 419.73Z" fill="#2C3A48"/>
<path d="M432.811 409.957L432.096 411.122L441.034 416.562L441.749 415.396L432.811 409.957Z" fill="#2C3A48"/>
<path d="M441.07 406.606L440.261 406.113L438.212 404.862L435.354 403.118L433.372 401.917L432.727 401.522L432.76 400.864L432.942 400.584L433.173 400.206L433.372 400.338L434.677 401.127L435.453 401.588L438.08 403.201L440.955 404.945L441.004 405.668L441.07 406.606Z" fill="#2C3A48"/>
<path d="M440.36 396.191L440.261 396.142L437.502 394.447L436.015 393.542L433.388 391.946L433.487 390.564L433.553 390.449L436.114 392.029L437.37 392.786L440.244 394.53L440.343 396.076L440.36 396.191Z" fill="#2C3A48"/>
<path d="M441.767 425.136L432.83 430.577L433.546 431.742L442.482 426.301L441.767 425.136Z" fill="#C5D3E1"/>
<path d="M441.764 416.79L439.137 418.386L434.693 421.085L434.115 421.446L433.372 421.891L433.174 422.006L432.942 421.627L432.463 420.838L433.372 420.278L434.214 419.785L439.038 416.856L440.261 416.099L441.401 415.408L441.566 415.688L441.698 415.902V415.918L441.764 416.79Z" fill="#2C3A48"/>
<path d="M441.12 407.198L438.476 408.811L434.825 411.032L434.693 411.114L433.388 411.904L432.81 412.266L432.133 411.163L432.116 411.114L432.099 411.098L432.133 411.065L433.388 410.308L434.924 409.353L438.377 407.28L440.261 406.112L441.004 405.668L441.07 406.606L441.12 407.198Z" fill="#2C3A48"/>
<path d="M440.459 397.606L437.816 399.219L435.536 400.601L434.677 401.127L433.372 401.917L432.678 402.345L432.727 401.522L432.76 400.864L432.777 400.683L432.942 400.584L433.372 400.338L435.635 398.939L437.717 397.689L440.261 396.142L440.343 396.076L440.36 396.191L440.459 397.606Z" fill="#2C3A48"/>
<path d="M495.787 425.773C495.671 425.789 495.555 425.789 495.44 425.773L487.411 423.98C487.139 423.921 486.889 423.791 486.686 423.603C486.482 423.414 486.333 423.176 486.254 422.911C486.177 422.645 486.168 422.363 486.228 422.093C486.289 421.823 486.417 421.572 486.601 421.364L533.024 371.462C533.294 371.161 533.671 370.977 534.076 370.949C534.48 370.921 534.879 371.052 535.188 371.314C535.487 371.58 535.679 371.945 535.728 372.342C535.777 372.738 535.679 373.139 535.452 373.469L497.059 425.132C496.908 425.327 496.716 425.485 496.496 425.596C496.276 425.707 496.033 425.768 495.787 425.773ZM490.83 421.446L495.159 422.417L515.876 394.447L490.83 421.446Z" fill="#2C3A48"/>
<path d="M481.777 417.021H456.765C456.639 417.021 456.514 416.996 456.398 416.948C456.282 416.9 456.176 416.83 456.087 416.741C455.998 416.653 455.928 416.548 455.88 416.432C455.831 416.316 455.807 416.192 455.807 416.067C455.807 415.941 455.831 415.817 455.88 415.701C455.928 415.586 455.998 415.48 456.087 415.392C456.176 415.303 456.282 415.233 456.398 415.185C456.514 415.137 456.639 415.112 456.765 415.112H481.827C482.081 415.112 482.324 415.213 482.504 415.392C482.684 415.571 482.785 415.813 482.785 416.067C482.785 416.32 482.684 416.562 482.504 416.741C482.324 416.92 482.081 417.021 481.827 417.021H481.777Z" fill="#1D2A38"/>
<path d="M476.92 378.471H461.572C461.318 378.471 461.075 378.371 460.895 378.192C460.715 378.013 460.614 377.77 460.614 377.517C460.614 377.264 460.715 377.021 460.895 376.842C461.075 376.663 461.318 376.563 461.572 376.562H476.92C477.174 376.563 477.418 376.663 477.598 376.842C477.777 377.021 477.878 377.264 477.878 377.517C477.878 377.77 477.777 378.013 477.598 378.192C477.418 378.371 477.174 378.471 476.92 378.471Z" fill="#1D2A38"/>
<path d="M457.194 415.622C457.009 415.625 456.828 415.573 456.672 415.474C456.516 415.374 456.393 415.231 456.319 415.063C456.266 414.948 456.237 414.825 456.233 414.699C456.228 414.573 456.249 414.448 456.294 414.33C456.338 414.212 456.406 414.104 456.492 414.013C456.579 413.921 456.683 413.847 456.798 413.796L480.918 403.068C481.148 402.968 481.409 402.962 481.644 403.051C481.879 403.14 482.069 403.318 482.173 403.546C482.226 403.66 482.255 403.784 482.259 403.909C482.264 404.035 482.243 404.16 482.199 404.278C482.154 404.396 482.087 404.504 482 404.595C481.913 404.687 481.81 404.761 481.694 404.812L457.574 415.54C457.454 415.592 457.325 415.62 457.194 415.622Z" fill="#1D2A38"/>
<path d="M481.315 392.67C481.223 392.903 481.046 393.091 480.819 393.197L477.73 394.562L459.64 402.608L458.467 403.134C458.336 403.165 458.2 403.165 458.07 403.134C457.886 403.133 457.706 403.08 457.551 402.981C457.396 402.882 457.272 402.741 457.194 402.575C457.093 402.343 457.086 402.081 457.176 401.845C457.265 401.608 457.444 401.416 457.674 401.308L459.953 400.304L477.449 392.522L480.026 391.37C480.224 391.282 480.446 391.263 480.656 391.317C480.866 391.371 481.052 391.494 481.182 391.667L481.315 392.67Z" fill="#1D2A38"/>
<path d="M459.673 392.818C459.487 392.815 459.306 392.759 459.15 392.657C458.995 392.555 458.873 392.411 458.797 392.242C458.745 392.128 458.717 392.004 458.714 391.879C458.711 391.754 458.734 391.629 458.78 391.513C458.826 391.396 458.895 391.29 458.983 391.2C459.071 391.111 459.177 391.04 459.293 390.992L478.423 382.452C478.656 382.348 478.92 382.339 479.159 382.429C479.397 382.518 479.59 382.698 479.696 382.93C479.801 383.161 479.809 383.424 479.719 383.662C479.63 383.899 479.449 384.092 479.216 384.196L460.069 392.736C459.943 392.786 459.809 392.814 459.673 392.818Z" fill="#1D2A38"/>
<path d="M479.249 378.142C479.157 378.246 479.045 378.33 478.919 378.389L475.615 379.853L461.985 385.924L460.333 386.648C460.207 386.699 460.073 386.727 459.937 386.73C459.717 386.732 459.502 386.658 459.331 386.521C459.159 386.384 459.039 386.192 458.993 385.978C458.946 385.763 458.975 385.54 459.075 385.344C459.175 385.149 459.339 384.993 459.54 384.904L462.283 383.687L475.317 377.879L478.109 376.645C478.249 376.568 478.405 376.528 478.564 376.528C478.723 376.528 478.879 376.568 479.018 376.645L479.249 378.142Z" fill="#1D2A38"/>
<path d="M481.298 415.622C481.172 415.644 481.044 415.644 480.918 415.622L456.765 404.812C456.535 404.705 456.356 404.512 456.267 404.276C456.178 404.039 456.184 403.777 456.286 403.546C456.39 403.318 456.581 403.14 456.816 403.051C457.05 402.962 457.311 402.968 457.541 403.068L481.661 413.796C481.863 413.885 482.027 414.04 482.127 414.236C482.226 414.431 482.255 414.655 482.209 414.87C482.162 415.084 482.043 415.276 481.871 415.413C481.699 415.55 481.485 415.624 481.265 415.622H481.298Z" fill="#1D2A38"/>
<path d="M480.009 403.266C479.879 403.296 479.743 403.296 479.613 403.266L458.136 393.69C458.02 393.642 457.915 393.571 457.827 393.481C457.739 393.392 457.669 393.285 457.623 393.169C457.577 393.052 457.555 392.928 457.558 392.802C457.561 392.677 457.589 392.554 457.64 392.439C457.691 392.323 457.764 392.218 457.855 392.13C457.946 392.042 458.054 391.973 458.173 391.927C458.291 391.881 458.417 391.859 458.544 391.863C458.671 391.866 458.797 391.894 458.913 391.946L480.389 401.521C480.622 401.626 480.804 401.817 480.897 402.054C480.99 402.291 480.985 402.555 480.885 402.788C480.797 402.94 480.669 403.065 480.514 403.149C480.36 403.234 480.185 403.274 480.009 403.266Z" fill="#1D2A38"/>
<path d="M478.522 392.358C478.398 392.388 478.267 392.388 478.142 392.358L459.573 384.131C459.341 384.026 459.16 383.834 459.07 383.596C458.98 383.359 458.989 383.095 459.094 382.864C459.199 382.633 459.393 382.453 459.631 382.363C459.87 382.274 460.134 382.282 460.366 382.387L478.919 390.614C479.149 390.721 479.327 390.914 479.417 391.15C479.506 391.387 479.5 391.649 479.398 391.88C479.313 392.035 479.186 392.162 479.03 392.247C478.875 392.331 478.699 392.37 478.522 392.358Z" fill="#1D2A38"/>
<path d="M477.895 386.336C477.763 386.341 477.632 386.313 477.515 386.253L460.201 378.586C459.969 378.481 459.788 378.289 459.698 378.051C459.608 377.814 459.617 377.55 459.722 377.319C459.827 377.088 460.02 376.908 460.259 376.818C460.497 376.729 460.762 376.737 460.994 376.842L478.242 384.509C478.471 384.617 478.65 384.809 478.739 385.046C478.829 385.282 478.822 385.544 478.721 385.776C478.646 385.935 478.53 386.071 478.385 386.169C478.24 386.268 478.07 386.325 477.895 386.336Z" fill="#1D2A38"/>
<path d="M454.237 428.949H453.973C453.722 428.917 453.48 428.835 453.261 428.709C453.041 428.583 452.849 428.415 452.696 428.214C452.542 428.014 452.43 427.785 452.366 427.541C452.301 427.298 452.286 427.043 452.321 426.794L461.721 360.702C461.757 360.453 461.842 360.214 461.97 359.998C462.099 359.782 462.269 359.594 462.47 359.443C462.672 359.293 462.902 359.183 463.146 359.121C463.39 359.059 463.644 359.045 463.894 359.081C464.143 359.117 464.383 359.201 464.6 359.329C464.817 359.457 465.006 359.626 465.157 359.827C465.308 360.028 465.418 360.257 465.481 360.5C465.543 360.743 465.557 360.996 465.521 361.244L456.154 427.304C456.086 427.762 455.855 428.18 455.503 428.482C455.151 428.784 454.702 428.95 454.237 428.949Z" fill="#2C3A48"/>
<path d="M484.519 428.932H484.255C483.794 428.926 483.351 428.757 483.003 428.456C482.655 428.155 482.426 427.741 482.355 427.287L477.729 394.545L477.449 392.588L475.631 379.836L475.351 377.862L472.988 361.228C472.916 360.726 473.047 360.216 473.352 359.81C473.657 359.405 474.111 359.136 474.615 359.064C475.119 358.992 475.631 359.123 476.039 359.427C476.446 359.73 476.716 360.183 476.788 360.685L479.051 376.71L479.249 378.125L481.182 391.748L481.314 392.67L486.155 426.777C486.19 427.026 486.175 427.279 486.112 427.521C486.049 427.764 485.938 427.992 485.786 428.193C485.634 428.393 485.444 428.561 485.227 428.688C485.009 428.815 484.769 428.898 484.519 428.932Z" fill="#2C3A48"/>
<path d="M469.238 427.946C468.346 427.946 467.586 427.518 467.586 426.991V360.965C467.586 360.439 468.313 360.011 469.238 360.011C470.163 360.011 470.89 360.439 470.89 360.965V427.041C470.857 427.567 470.13 427.946 469.238 427.946Z" fill="#2C3A48"/>
<path d="M475.251 358.744L470.84 341.238C470.692 340.944 470.464 340.696 470.183 340.523C469.901 340.35 469.577 340.259 469.246 340.259C468.915 340.259 468.591 340.35 468.31 340.523C468.028 340.696 467.8 340.944 467.652 341.238L463.241 358.744C463.156 359.093 463.212 359.461 463.398 359.769C463.583 360.077 463.883 360.3 464.232 360.389C464.342 360.405 464.453 360.405 464.563 360.389C464.867 360.389 465.163 360.289 465.405 360.105C465.647 359.92 465.821 359.662 465.901 359.369L469.205 346.059L472.509 359.369C472.583 359.662 472.753 359.922 472.993 360.107C473.233 360.291 473.528 360.391 473.831 360.389C473.94 360.405 474.052 360.405 474.161 360.389C474.343 360.356 474.516 360.287 474.67 360.185C474.825 360.083 474.957 359.952 475.059 359.798C475.16 359.645 475.23 359.472 475.263 359.291C475.296 359.11 475.292 358.924 475.251 358.744Z" fill="#2C3A48"/>
<path d="M478.489 358.497H460.019C459.143 358.497 458.433 359.204 458.433 360.077V362.824C458.433 363.697 459.143 364.404 460.019 364.404H478.489C479.365 364.404 480.075 363.697 480.075 362.824V360.077C480.075 359.204 479.365 358.497 478.489 358.497Z" fill="#ACBAC8"/>
<path d="M473.864 347.375H464.629C464.191 347.375 463.836 347.729 463.836 348.165V349.547C463.836 349.983 464.191 350.337 464.629 350.337H473.864C474.302 350.337 474.657 349.983 474.657 349.547V348.165C474.657 347.729 474.302 347.375 473.864 347.375Z" fill="#ACBAC8"/>
<path d="M465.537 415.112H447.464C445.949 415.112 444.721 416.335 444.721 417.844V426.86C444.721 428.368 445.949 429.591 447.464 429.591H465.537C467.052 429.591 468.28 428.368 468.28 426.86V417.844C468.28 416.335 467.052 415.112 465.537 415.112Z" fill="#1D2A38"/>
<path d="M499.966 420.559H466.578C465.063 420.559 463.836 421.781 463.836 423.29V426.218C463.836 427.727 465.063 428.95 466.578 428.95H499.966C501.481 428.95 502.708 427.727 502.708 426.218V423.29C502.708 421.781 501.481 420.559 499.966 420.559Z" fill="#3C4A58"/>
<path d="M442.623 461.922C442.207 461.92 441.801 461.79 441.462 461.549C441.123 461.308 440.868 460.969 440.73 460.578C440.592 460.187 440.58 459.762 440.694 459.364C440.808 458.965 441.044 458.611 441.368 458.351L469.221 435.991C469.641 435.66 470.175 435.507 470.707 435.566C471.239 435.624 471.726 435.89 472.063 436.304C472.229 436.509 472.353 436.744 472.427 436.997C472.502 437.25 472.525 437.514 472.496 437.776C472.466 438.038 472.385 438.291 472.257 438.521C472.129 438.752 471.956 438.954 471.749 439.118L443.895 461.477C443.537 461.77 443.087 461.927 442.623 461.922Z" fill="#C5D3E1"/>
<path d="M500.693 461.921C500.234 461.93 499.788 461.772 499.437 461.477L471.633 439.117C471.23 438.779 470.975 438.297 470.924 437.775C470.874 437.252 471.03 436.73 471.361 436.322C471.691 435.913 472.17 435.649 472.693 435.587C473.216 435.525 473.743 435.67 474.161 435.991L502.031 458.35C502.445 458.688 502.708 459.175 502.764 459.705C502.819 460.234 502.663 460.765 502.329 461.18C502.134 461.423 501.884 461.617 501.6 461.746C501.316 461.874 501.005 461.934 500.693 461.921Z" fill="#C5D3E1"/>
<path d="M440.624 431.138H428.779C427.666 431.138 426.764 432.036 426.764 433.145V461.806C426.764 462.915 427.666 463.814 428.779 463.814H440.624C441.737 463.814 442.64 462.915 442.64 461.806V433.145C442.64 432.036 441.737 431.138 440.624 431.138Z" fill="#C5D3E1"/>
<path d="M513.166 431.138H501.338C500.224 431.138 499.322 432.036 499.322 433.145V461.806C499.322 462.915 500.224 463.814 501.338 463.814H513.166C514.279 463.814 515.182 462.915 515.182 461.806V433.145C515.182 432.036 514.279 431.138 513.166 431.138Z" fill="#C5D3E1"/>
<path d="M520.105 426.037H421.973C420.86 426.037 419.957 426.936 419.957 428.044V435.563C419.957 436.672 420.86 437.571 421.973 437.571H520.105C521.218 437.571 522.12 436.672 522.12 435.563V428.044C522.12 426.936 521.218 426.037 520.105 426.037Z" fill="#ACBAC8"/>
<path d="M442.64 445.583H426.764V449.877H442.64V445.583Z" fill="#ACBAC8"/>
<path d="M442.64 455.62H426.764V459.931H442.64V455.62Z" fill="#ACBAC8"/>
<path d="M515.182 445.583H499.322V449.877H515.182V445.583Z" fill="#ACBAC8"/>
<path d="M515.182 455.62H499.322V459.931H515.182V455.62Z" fill="#ACBAC8"/>
<path d="M522.12 428.044H419.957V431.137H522.12V428.044Z" fill="#C5D3E1"/>
<path d="M302.991 533.032C302.991 533.032 362.548 517.681 404.329 528.014C430.762 534.595 426.615 534.924 442.921 534.595C442.921 534.595 402.941 554.454 334.81 537.194C334.81 537.227 320.206 535.204 302.991 533.032Z" fill="#C5D3E1"/>
<path d="M246.507 534.627C246.507 534.627 268.827 522.452 290.188 525.019C307.336 527.092 367.62 545.93 393.838 534.627C393.838 534.627 381.167 559.669 286.025 538.51C286.025 538.51 277.335 528.539 246.507 534.627Z" fill="#ACBAC8"/>
<path d="M337.172 536.668C337.172 537.162 319.727 543.628 297.407 540.058C275.088 536.487 257.543 536.767 257.609 537.343C257.609 536.372 275.65 527.751 297.374 533.953C319.099 540.156 337.123 537.639 337.172 536.668Z" fill="#5C6A78"/>
<path d="M437.584 536.914C437.584 537.655 417.958 547.296 392.83 541.85C367.702 536.404 347.927 536.914 347.993 537.638C347.993 536.19 368.28 523.341 392.747 532.702C417.214 542.064 437.535 538.362 437.584 536.914Z" fill="#6C7A88"/>
<path d="M442.161 461.708C442.161 461.708 478.506 452.346 504.014 458.631C520.121 462.612 517.61 462.859 527.556 462.678C527.556 462.678 503.155 474.788 461.572 464.324C461.572 464.274 452.668 463.024 442.161 461.708Z" fill="#1D2A38"/>
<path d="M407.682 462.678C407.682 462.678 421.312 455.241 434.346 456.821C444.804 458.071 481.595 469.572 497.604 462.678C497.604 462.678 489.872 477.963 431.802 465.047C431.802 465.047 426.499 458.96 407.682 462.678Z" fill="#2C3A48"/>
<path d="M463.01 463.928C463.01 464.224 452.371 468.173 438.758 465.985C425.145 463.796 414.423 464.027 414.456 464.339C414.456 463.764 425.475 458.499 438.725 462.283C451.974 466.067 462.993 464.52 463.01 463.928Z" fill="#5C6A78"/>
<path d="M524.301 464.142C524.301 464.587 512.324 470.477 496.993 467.17C481.662 463.863 469.585 464.142 469.618 464.537C469.618 463.649 482.008 455.801 496.943 461.51C511.878 467.219 524.285 464.949 524.301 464.142Z" fill="#2C3A48"/>
</g>
</g>
<defs>
<clipPath id="clip0">
<rect width="768" height="695" fill="white"/>
</clipPath>
<clipPath id="clip1">
<rect width="360" height="226" fill="white" transform="translate(204 321)"/>
</clipPath>
</defs>
</svg>
