<svg width="768" height="695" viewBox="0 0 768 695" fill="none" xmlns="http://www.w3.org/2000/svg">
<g clip-path="url(#clip0)">
<path opacity="0.1" d="M100.91 389.465L96.9623 397.477L106.015 389.465H100.91ZM88.7392 414.149L86.6548 418.372L107.262 435.144L116.147 428.831L93.9651 409.499L88.7392 414.149ZM82.0526 499.24L126.888 541.321H135.636L122.864 463.167L82.0526 499.24ZM86.3962 513.656L94.7639 541.306H116.375L86.3962 513.656ZM94.9845 563.627L78.0209 607.667L129.208 563.627H94.9845ZM73.8523 598.946L87.4612 563.627H57.7027L73.8523 598.946ZM87.3927 541.306L76.2333 504.264L43.7363 533.065L47.5017 541.306H87.3927ZM72.232 490.992L66.6789 472.559L58.5395 478.345L72.232 490.992ZM89.614 396.386L93.0447 389.426H81.6342L89.614 396.386ZM71.0986 499.545L52.6745 482.538L28.4843 499.721L40.6935 526.402L71.0986 499.545ZM47.3952 477.659L33.7027 465.004L28.8647 490.855L47.3952 477.659ZM111.545 393.924L99.2824 404.78L115.653 419.051L111.545 393.924ZM38.2365 537.959L34.433 541.321H39.7578L38.2365 537.959ZM31.6032 563.642L64.0545 594.441L49.9816 563.642H31.6032ZM23.8517 541.321L35.1937 531.297L25.3046 509.738L19.4396 541.321H23.8517ZM310.444 318.011L342.797 374.325L352.001 372.038C358.125 365.093 358.939 307.239 356.626 300.287C354.314 293.334 352.77 286.389 352.77 286.389C352.77 286.389 332.786 284.865 325.848 287.152C318.911 289.439 310.444 318.011 310.444 318.011ZM328.161 237.76L307.364 243.165L315.838 267.095C315.838 267.095 350.465 270.19 348.92 265.57C347.376 260.95 346.638 244.728 344.356 241.633C342.074 238.538 328.161 237.76 328.161 237.76ZM294.242 178.359C288.917 182.217 276.57 193.842 281.956 206.924C287.342 220.005 307.341 226.18 307.341 226.18L325.826 220.006C325.826 220.006 320.432 197.662 305.797 183.764L294.242 178.359ZM129.261 656.281H154.433L139.371 564.13L83.3458 612.714L129.261 656.281ZM100.066 656.281H119.045L85.529 624.484L100.066 656.281ZM59.285 656.281H92.3448L75.5258 619.499L72.4222 622.19L59.285 656.281ZM33.0865 656.281H51.754L61.1182 631.993L33.0865 656.281ZM-1.4187 656.281H22.3303L66.4964 618.02L69.7674 609.527L21.387 563.619H15.3395C8.51601 600.631 2.42282 634.173 -1.4187 656.281ZM-156 656.281H-142.193V413.63H-153.756V397.423H-106.41L-131.414 387.383V341.88L262.726 239.285L285.068 139C285.068 139 328.929 166.002 357.379 244.713C363.891 262.719 367.428 281.495 369.003 299.746L372.707 299.669L379.858 656.281H420V695H-156V656.281ZM77.2146 342.2V339.616L67.3255 342.2H77.2146ZM57.6647 389.465V394.709L79.7249 412.693L83.0491 409.75L86.419 402.889L72.5743 390.837L73.799 389.426L57.6647 389.465ZM63.6209 462.382H41.1803L53.2526 473.535L64.5109 465.484L63.6209 462.382ZM113.211 462.382H81.1017L72.7341 468.335L79.8238 491.876L113.211 462.382ZM126.226 440.061H137.211V462.382H129.878L142.81 541.359H147.997V563.681H146.476L161.545 656.281H372.837L367.071 368.577C363.336 397.24 357.395 416.726 357.395 416.726L275.049 287.891L115.98 329.515V344.319H125.367V384.784H117.174L123.952 426.285L127.504 429.38L124.773 431.317L126.226 440.061ZM113.294 440.061H119.114L118.429 435.891L112.952 439.779L113.294 440.061ZM76.0203 440.061H100.423L83.5208 424.814L76.0203 440.061ZM59.5208 440.061H68.1851L74.8945 426.453L59.5208 440.061ZM38.4266 440.061H48.9166L74.4 417.412L57.6647 403.743V408.729H44.2688L38.4266 440.061ZM20.5274 440.061H31.2837L37.1715 408.805H33.4517V384.86H31.2989V351.752L-93.7141 384.365L-99.6019 397.446H-70.5965V413.653H-136.016V656.281H-83.6881V414.431H-76.7582V656.281H-8.51601C-4.71251 634.311 1.37306 600.753 8.21935 563.619H4.1344V541.321H12.3423L20.2764 498.631L19.6754 497.319L27.001 462.313H20.4894L20.5274 440.061Z" fill="black"/>
<path opacity="0.1" d="M769.431 513.766L771.899 518.78L766.241 513.766H769.431ZM777.038 529.215L778.341 531.859L765.461 542.356L759.908 538.405L773.772 526.305L777.038 529.215ZM781.217 582.474L753.195 608.813H747.727L755.71 559.896L781.217 582.474ZM778.502 591.497L773.273 608.803H759.765L778.502 591.497ZM773.135 622.774L783.737 650.338L751.745 622.774H773.135ZM786.342 644.88L777.837 622.774H796.436L786.342 644.88ZM777.88 608.803L784.854 585.619L805.165 603.645L802.811 608.803H777.88ZM787.355 577.312L790.826 565.774L795.913 569.396L787.355 577.312ZM776.491 518.098L774.347 513.742H781.479L776.491 518.098ZM788.063 582.665L799.578 572.02L814.697 582.775L807.067 599.475L788.063 582.665ZM802.878 568.966L811.436 561.046L814.46 577.226L802.878 568.966ZM762.784 516.557L770.448 523.351L760.217 532.284L762.784 516.557ZM808.602 606.708L810.979 608.813H807.651L808.602 606.708ZM812.748 622.783L792.466 642.06L801.261 622.783H812.748ZM817.593 608.813L810.504 602.538L816.685 589.045L820.35 608.813H817.593ZM638.472 469.043L618.252 504.289L612.499 502.858C608.672 498.511 608.163 462.301 609.609 457.949C611.054 453.598 612.019 449.251 612.019 449.251C612.019 449.251 624.509 448.297 628.845 449.728C633.181 451.16 638.472 469.043 638.472 469.043ZM627.399 418.814L640.398 422.197L635.101 437.174C635.101 437.174 613.46 439.112 614.425 436.22C615.39 433.329 615.851 423.175 617.277 421.238C618.704 419.301 627.399 418.814 627.399 418.814ZM648.599 381.635C651.927 384.049 659.643 391.326 656.277 399.513C652.911 407.701 640.412 411.566 640.412 411.566L628.859 407.701C628.859 407.701 632.23 393.716 641.377 385.018L648.599 381.635ZM751.712 680.766H735.979L745.393 623.089L780.409 653.497L751.712 680.766ZM769.959 680.766H758.097L779.044 660.864L769.959 680.766ZM795.447 680.766H774.784L785.296 657.744L787.236 659.428L795.447 680.766ZM811.821 680.766H800.154L794.301 665.564L811.821 680.766ZM833.387 680.766H818.544L790.94 656.818L788.895 651.503L819.133 622.769H822.913C827.177 645.934 830.986 666.929 833.387 680.766ZM930 680.766H921.371V528.891H928.597V518.747H899.006L914.634 512.463V483.982L668.296 419.768L654.333 357C654.333 357 626.919 373.9 609.138 423.166C605.068 434.436 602.857 446.188 601.873 457.611L599.558 457.563L595.089 680.766H570V705H930V680.766ZM784.241 484.183V482.565L790.422 484.183H784.241ZM796.46 513.766V517.048L782.672 528.304L780.594 526.462L778.488 522.168L787.141 514.624L786.376 513.742L796.46 513.766ZM792.737 559.404H806.762L799.217 566.385L792.181 561.346L792.737 559.404ZM761.743 559.404H781.811L787.041 563.131L782.61 577.865L761.743 559.404ZM753.609 545.434H746.743V559.404H751.326L743.244 608.836H740.002V622.807H740.952L731.534 680.766H599.477L603.081 500.692C605.415 518.632 609.128 530.828 609.128 530.828L660.594 450.191L760.013 476.243V485.509H754.146V510.836H759.266L755.03 536.812L752.81 538.749L754.517 539.961L753.609 545.434ZM761.691 545.434H758.054L758.482 542.824L761.905 545.257L761.691 545.434ZM784.987 545.434H769.735L780.3 535.891L784.987 545.434ZM795.3 545.434H789.884L785.691 536.917L795.3 545.434ZM808.483 545.434H801.927L786 531.258L796.46 522.702V525.823H804.832L808.483 545.434ZM819.67 545.434H812.948L809.268 525.871H811.593V510.884H812.938V490.161L891.071 510.574L894.751 518.761H876.623V528.905H917.51V680.766H884.805V529.392H880.474V680.766H837.823C835.445 667.015 831.642 646.011 827.363 622.769H829.916V608.813H824.786L819.827 582.093L820.203 581.272L815.624 559.361H819.694L819.67 545.434Z" fill="black"/>
<circle opacity="0.2" cx="384" cy="435" r="200" fill="#4B0731"/>
<ellipse cx="384" cy="435" rx="180" ry="180" fill="#936A83"/>
<g clip-path="url(#clip1)">
<path d="M450.299 405.801C450.299 402.747 448.54 400.271 446.368 400.271C444.196 400.271 442.458 402.747 442.458 405.801C442.458 408.856 446.368 415.625 446.368 415.625C446.368 415.625 450.299 408.835 450.299 405.801Z" fill="#C9C9C9"/>
<path d="M450.299 385.742C450.299 382.687 448.54 380.231 446.368 380.231C444.196 380.231 442.458 382.687 442.458 385.742C442.458 388.796 446.368 395.586 446.368 395.586C446.368 395.586 450.299 388.693 450.299 385.742Z" fill="#C9C9C9"/>
<path d="M450.299 365.393C450.299 362.339 448.54 359.862 446.368 359.862C444.196 359.862 442.458 362.339 442.458 365.393C442.458 368.448 446.368 375.217 446.368 375.217C446.368 375.217 450.299 368.427 450.299 365.393Z" fill="#C9C9C9"/>
<path d="M430.791 391.933C431.743 394.823 437.556 400.065 437.556 400.065C437.556 400.065 439.17 392.408 438.239 389.519C437.308 386.629 434.846 384.813 432.798 385.391C430.75 385.969 429.839 388.962 430.791 391.933Z" fill="#C9C9C9"/>
<path d="M431.307 380.851C431.307 380.851 432.921 373.173 431.99 370.284C431.059 367.395 428.535 365.579 426.466 366.239C424.397 366.9 423.508 369.789 424.397 372.699C425.287 375.609 431.307 380.851 431.307 380.851Z" fill="#C9C9C9"/>
<path d="M462.07 391.933C463.001 389.023 462.07 386.134 460.001 385.473C457.933 384.813 455.512 386.608 454.56 389.601C453.609 392.593 455.243 400.147 455.243 400.147C455.243 400.147 461.118 394.76 462.07 391.933Z" fill="#C9C9C9"/>
<path d="M468.318 372.699C469.249 369.789 468.318 366.92 466.249 366.239C464.181 365.558 461.76 367.395 460.808 370.367C459.857 373.339 461.491 380.933 461.491 380.933C461.491 380.933 467.366 375.588 468.318 372.699Z" fill="#C9C9C9"/>
<path d="M489.918 503.892H469.23L463.458 463.174L463.272 461.915L460.644 443.341L460.355 441.401L457.976 424.499H459.568C460.126 424.495 460.66 424.279 461.064 423.896C461.467 423.512 461.709 422.99 461.741 422.435V418.452C461.735 417.879 461.505 417.331 461.099 416.926C460.692 416.521 460.143 416.291 459.568 416.285H434.164C433.883 416.285 433.605 416.341 433.347 416.452C433.089 416.562 432.857 416.723 432.663 416.926C432.469 417.128 432.319 417.368 432.222 417.631C432.124 417.893 432.081 418.173 432.095 418.452V422.229C432.095 422.776 432.313 423.301 432.701 423.688C433.089 424.075 433.615 424.293 434.164 424.293H435.757L424.502 503.789H402.821C401.828 503.789 400.876 504.182 400.174 504.883C399.471 505.583 399.077 506.533 399.077 507.524V515.985C399.055 516.49 399.135 516.993 399.313 517.466C399.491 517.938 399.763 518.37 400.113 518.734C400.463 519.099 400.884 519.389 401.349 519.587C401.815 519.785 402.315 519.886 402.821 519.886H489.918C490.911 519.886 491.863 519.492 492.565 518.792C493.268 518.091 493.662 517.141 493.662 516.151V507.689C493.67 507.193 493.58 506.701 493.395 506.241C493.211 505.78 492.936 505.361 492.588 505.008C492.239 504.654 491.824 504.373 491.365 504.182C490.907 503.99 490.415 503.892 489.918 503.892ZM433.646 476.836L444.59 471.965V483.584L433.398 478.611L433.646 476.857V476.836ZM435.715 462.637L444.652 458.654V467.363L435.612 463.236L435.715 462.637ZM436.812 453.846L438.053 453.288L443.99 455.951L436.005 459.521L436.812 453.846ZM460.168 478.611L448.935 483.605V472.213L459.962 477.125L460.168 478.611ZM448.935 458.221L457.913 462.101L458.058 463.029L449.018 467.157L448.935 458.221ZM456.734 453.846L457.479 459.191L450.507 456.095L456.134 453.577L456.734 453.846ZM449.018 453.846V450.317L452.907 452.05L449.018 453.846ZM444.59 453.392L441.363 451.968L444.59 450.523V453.392ZM433.005 481.294L443.597 486.02L431.578 491.385L433.005 481.294ZM460.624 481.294L462.051 491.385L450.031 486.02L460.624 481.294ZM459.568 474.05L449.7 469.675L458.389 465.795L459.568 474.05ZM456.238 450.564H456.093L450.155 447.923L455.534 445.529L456.238 450.564ZM449.018 445.591V443.651H453.362L449.018 445.591ZM444.59 445.425L440.577 443.651H444.59V445.425ZM443.763 447.943L438.136 450.44L437.412 450.131L438.094 445.405L443.763 447.943ZM443.308 469.633L434.081 473.761L435.177 466.022L443.308 469.633ZM444.59 488.414V493.965H432.178L444.59 488.414ZM449.018 488.414L461.43 493.965H449.018V488.414ZM454.934 440.947H449.018V424.396H452.576L454.934 440.947ZM444.59 424.272V440.947H438.715L441.073 424.272H444.59ZM430.833 496.504H444.59V503.768H429.819L430.833 496.504ZM449.018 503.768V496.627H462.796L463.83 503.892L449.018 503.768Z" fill="#C9C9C9"/>
<path d="M338.192 383.017C338.192 379.963 336.454 377.507 334.282 377.507C332.11 377.507 330.372 379.963 330.372 383.017C330.372 386.071 334.282 392.861 334.282 392.861C334.282 392.861 338.192 386.051 338.192 383.017Z" fill="#C9C9C9"/>
<path d="M338.192 362.855C338.192 359.821 336.454 357.345 334.282 357.345C332.11 357.345 330.372 359.821 330.372 362.855C330.372 365.889 334.282 372.699 334.282 372.699C334.282 372.699 338.192 365.909 338.192 362.855Z" fill="#C9C9C9"/>
<path d="M338.192 342.609C338.192 339.555 336.454 337.099 334.282 337.099C332.11 337.099 330.372 339.555 330.372 342.609C330.372 345.663 334.282 352.453 334.282 352.453C334.282 352.453 338.192 345.663 338.192 342.609Z" fill="#C9C9C9"/>
<path d="M318.703 369.087C319.634 371.976 325.468 377.342 325.468 377.342C325.468 377.342 327.082 369.665 326.13 366.776C325.178 363.886 322.758 362.07 320.71 362.648C318.662 363.226 317.751 366.198 318.703 369.087Z" fill="#C9C9C9"/>
<path d="M319.221 358.067C319.221 358.067 320.835 350.41 319.883 347.501C318.932 344.591 316.511 342.795 314.463 343.476C312.415 344.157 311.505 347.026 312.394 349.915C313.284 352.804 319.221 358.067 319.221 358.067Z" fill="#C9C9C9"/>
<path d="M349.921 369.087C350.852 366.197 349.921 363.308 347.852 362.627C345.783 361.946 343.363 363.783 342.432 366.755C341.501 369.726 343.094 377.321 343.094 377.321C343.094 377.321 349.031 371.976 349.921 369.087Z" fill="#C9C9C9"/>
<path d="M356.128 349.914C357.079 347.025 356.128 344.136 354.059 343.476C351.99 342.815 349.57 344.611 348.639 347.5C347.708 350.389 349.301 358.066 349.301 358.066C349.301 358.066 355.279 352.721 356.128 349.914Z" fill="#C9C9C9"/>
<path d="M377.83 481.108H357.142L351.267 440.411L351.081 439.152L348.433 420.578L348.164 418.618L345.784 401.633H347.398C347.679 401.633 347.956 401.577 348.214 401.467C348.472 401.357 348.705 401.195 348.899 400.992C349.092 400.79 349.242 400.55 349.34 400.288C349.438 400.025 349.481 399.746 349.467 399.466V395.669C349.481 395.389 349.438 395.11 349.34 394.847C349.242 394.585 349.092 394.345 348.899 394.142C348.705 393.94 348.472 393.778 348.214 393.668C347.956 393.558 347.679 393.501 347.398 393.502H322.055C321.766 393.487 321.477 393.533 321.207 393.636C320.937 393.74 320.691 393.899 320.486 394.103C320.282 394.308 320.122 394.553 320.018 394.822C319.914 395.092 319.868 395.38 319.883 395.669V399.466C319.868 399.754 319.914 400.043 320.018 400.312C320.122 400.582 320.282 400.827 320.486 401.031C320.691 401.235 320.937 401.395 321.207 401.498C321.477 401.602 321.766 401.648 322.055 401.633H323.669L312.415 481.108H290.734C289.748 481.108 288.802 481.496 288.101 482.188C287.399 482.879 287 483.819 286.989 484.803V493.264C286.989 494.255 287.384 495.205 288.086 495.905C288.788 496.606 289.741 496.999 290.734 496.999H377.83C378.823 496.999 379.776 496.606 380.478 495.905C381.18 495.205 381.575 494.255 381.575 493.264V484.803C381.564 483.819 381.164 482.879 380.463 482.188C379.762 481.496 378.816 481.108 377.83 481.108ZM321.559 454.073L332.482 449.203V460.822L321.29 455.91L321.538 454.156L321.559 454.073ZM323.628 439.874L332.544 435.871V444.58L323.524 440.452L323.628 439.874ZM324.786 431.145L326.027 430.588L331.986 433.209L324 436.779L324.786 431.145ZM348.143 455.91L336.93 460.904V449.43L347.853 454.341L348.143 455.91ZM336.93 435.52L345.784 439.4L345.909 440.308L336.889 444.435L336.93 435.52ZM344.626 431.062L345.391 436.407L338.42 433.209L344.047 430.691L344.626 431.062ZM336.93 431.062V427.554L340.819 429.287L336.93 431.062ZM332.482 430.629L329.234 429.081L332.441 427.657L332.482 430.629ZM320.959 458.531L331.551 463.257L319.531 468.602L320.959 458.531ZM348.577 458.531L349.922 468.602L337.902 463.257L348.577 458.531ZM347.543 451.287L337.695 446.891L346.384 443.011L347.543 451.287ZM344.171 427.781H344.026L338.109 425.139L343.467 422.89L344.171 427.781ZM336.93 422.89V420.826H341.295L336.93 422.89ZM332.482 422.745L328.489 420.826H332.482V422.745ZM331.675 425.242L326.048 427.76L325.324 427.43L325.986 422.704L331.675 425.242ZM331.303 446.891L322.055 451.019L323.028 443.259L331.303 446.891ZM332.565 465.671V471.223H320.152L332.565 465.671ZM337.013 465.671L349.426 471.223H337.013V465.671ZM342.909 418.205H336.93V401.633H340.468L342.909 418.205ZM332.565 401.55V418.205H326.607L328.965 401.55H332.565ZM318.828 473.782H332.565V481.046H317.711L318.828 473.782ZM337.013 481.046V473.844H350.791L351.825 481.108L337.013 481.046Z" fill="#C9C9C9"/>
<path d="M316.055 423.075C316.055 423.208 316.107 423.336 316.199 423.432C316.292 423.529 316.418 423.585 316.552 423.591C316.689 423.591 316.82 423.536 316.917 423.44C317.014 423.343 317.069 423.212 317.069 423.075V375.98C317.064 375.846 317.007 375.72 316.91 375.628C316.814 375.536 316.685 375.484 316.552 375.484C316.42 375.484 316.294 375.537 316.201 375.629C316.107 375.722 316.055 375.848 316.055 375.98V423.075Z" fill="#514260"/>
<path d="M313.117 423.075C313.117 423.208 313.169 423.336 313.262 423.432C313.354 423.529 313.48 423.585 313.614 423.591C313.751 423.591 313.883 423.536 313.98 423.44C314.077 423.343 314.131 423.212 314.131 423.075V375.98C314.126 375.846 314.069 375.72 313.973 375.628C313.876 375.536 313.748 375.484 313.614 375.484C313.482 375.484 313.356 375.537 313.263 375.629C313.17 375.722 313.117 375.848 313.117 375.98V423.075Z" fill="#514260"/>
<path d="M311.406 375.47L310.574 377.891C310.44 378.279 310.648 378.702 311.037 378.835L318.904 381.526C319.293 381.659 319.716 381.453 319.85 381.064L320.682 378.644C320.815 378.256 320.608 377.833 320.219 377.7L312.352 375.009C311.963 374.875 311.54 375.082 311.406 375.47Z" fill="#2C3A48"/>
<path d="M235.227 422.89C235.227 423.021 235.28 423.147 235.373 423.24C235.466 423.333 235.592 423.385 235.724 423.385C235.857 423.385 235.986 423.334 236.082 423.241C236.179 423.149 236.236 423.023 236.241 422.89V370.14C236.241 370.003 236.187 369.872 236.09 369.775C235.993 369.678 235.861 369.624 235.724 369.624C235.59 369.629 235.464 369.686 235.371 369.782C235.279 369.878 235.227 370.007 235.227 370.14V422.89Z" fill="#514260"/>
<path d="M236.862 415.047H234.607C234.127 415.047 233.738 415.435 233.738 415.914V425.056C233.738 425.535 234.127 425.923 234.607 425.923H236.862C237.342 425.923 237.731 425.535 237.731 425.056V415.914C237.731 415.435 237.342 415.047 236.862 415.047Z" fill="#2C3A48"/>
<path d="M232.786 387.806C232.79 388.39 232.968 388.959 233.296 389.442C233.625 389.925 234.089 390.3 234.632 390.52C235.174 390.739 235.769 390.793 236.342 390.676C236.915 390.558 237.44 390.273 237.851 389.857C238.262 389.442 238.54 388.914 238.65 388.341C238.76 387.767 238.697 387.174 238.47 386.637C238.242 386.099 237.86 385.641 237.371 385.32C236.882 384.999 236.309 384.83 235.724 384.834C235.335 384.837 234.951 384.916 234.593 385.067C234.235 385.217 233.911 385.437 233.638 385.713C233.365 385.989 233.15 386.316 233.003 386.675C232.857 387.034 232.783 387.418 232.786 387.806Z" fill="#2C3A48"/>
<path d="M236.738 369.685C236.802 369.501 236.822 369.305 236.797 369.111C236.772 368.918 236.702 368.733 236.593 368.571C234.069 364.691 234.069 357.096 236.386 349.667C238.703 342.237 243.379 336.211 247.723 334.54C247.89 334.484 248.043 334.396 248.175 334.28C248.307 334.164 248.415 334.024 248.492 333.866C248.569 333.709 248.614 333.538 248.624 333.363C248.634 333.188 248.609 333.013 248.551 332.847C248.491 332.68 248.398 332.527 248.277 332.396C248.156 332.266 248.01 332.162 247.847 332.091C247.684 332.019 247.509 331.982 247.331 331.98C247.153 331.979 246.977 332.014 246.813 332.084C241.682 334.003 236.614 340.586 233.903 348.862C231.193 357.138 231.38 365.372 234.4 369.995C234.534 370.202 234.724 370.367 234.948 370.471C235.173 370.575 235.422 370.612 235.667 370.58C235.912 370.547 236.143 370.446 236.333 370.288C236.522 370.129 236.663 369.92 236.738 369.685Z" fill="#F19B2C"/>
<path d="M244.413 352.268V352.164L248.116 333.467C248.154 333.254 248.108 333.035 247.989 332.855C247.87 332.674 247.686 332.546 247.475 332.497C247.368 332.476 247.257 332.476 247.15 332.498C247.043 332.52 246.941 332.563 246.851 332.625C246.76 332.686 246.683 332.765 246.623 332.856C246.564 332.948 246.523 333.05 246.503 333.157L242.82 351.731L234.752 368.943C234.695 369.133 234.709 369.338 234.792 369.519C234.874 369.7 235.019 369.845 235.201 369.928C235.382 370.011 235.587 370.026 235.778 369.97C235.969 369.914 236.134 369.791 236.241 369.624L244.413 352.35C244.413 352.35 244.413 352.288 244.413 352.268Z" fill="#F19B2C"/>
<path d="M242.065 346.56L239.126 355.546C239.013 355.893 239.203 356.266 239.55 356.379L242.441 357.32C242.789 357.433 243.163 357.243 243.276 356.897L246.215 347.911C246.328 347.564 246.139 347.191 245.791 347.078L242.9 346.137C242.552 346.024 242.179 346.213 242.065 346.56Z" fill="#F19B2C"/>
<path d="M243.254 349.564C243.606 349.668 244.289 348.553 244.392 348.202L244.661 347.397C244.714 347.233 244.7 347.055 244.623 346.901C244.545 346.746 244.411 346.628 244.247 346.572L237.441 344.343C237.274 344.297 237.095 344.316 236.941 344.396C236.787 344.477 236.67 344.613 236.613 344.777L236.344 345.602C236.319 345.683 236.31 345.769 236.318 345.854C236.327 345.938 236.352 346.021 236.392 346.096C236.433 346.17 236.488 346.237 236.554 346.29C236.62 346.344 236.697 346.383 236.779 346.407L243.254 349.564Z" fill="#F19B2C"/>
<path d="M240.895 356.849C241.063 356.901 241.244 356.884 241.399 356.803C241.554 356.722 241.67 356.582 241.723 356.416L241.992 355.59C241.992 355.26 242.219 353.96 241.868 353.836L234.772 352.515C234.604 352.469 234.426 352.488 234.272 352.568C234.118 352.649 234.001 352.785 233.944 352.948L233.675 353.753C233.622 353.917 233.636 354.096 233.713 354.25C233.791 354.404 233.926 354.522 234.089 354.579L240.895 356.849Z" fill="#F19B2C"/>
<path d="M242.344 353.34C242.308 353.449 242.295 353.563 242.304 353.677C242.313 353.791 242.344 353.901 242.396 354.003C242.448 354.105 242.519 354.195 242.606 354.269C242.693 354.343 242.794 354.399 242.903 354.434L322.22 380.252C322.329 380.287 322.443 380.301 322.557 380.292C322.671 380.283 322.782 380.252 322.884 380.2C322.986 380.149 323.077 380.077 323.151 379.99C323.225 379.904 323.281 379.803 323.317 379.695L324.351 376.578C324.418 376.357 324.397 376.118 324.294 375.911C324.19 375.703 324.01 375.544 323.792 375.464L244.413 349.646C244.304 349.611 244.189 349.597 244.076 349.606C243.962 349.615 243.85 349.646 243.749 349.698C243.647 349.75 243.556 349.821 243.482 349.908C243.408 349.995 243.351 350.095 243.316 350.204L242.344 353.34Z" fill="#4D5A68"/>
<path d="M270.273 366.136C270.273 367.026 270.537 367.895 271.033 368.635C271.528 369.375 272.233 369.952 273.057 370.292C273.881 370.633 274.788 370.722 275.663 370.548C276.537 370.375 277.341 369.946 277.972 369.317C278.602 368.688 279.032 367.886 279.206 367.013C279.38 366.141 279.291 365.236 278.949 364.414C278.608 363.592 278.03 362.889 277.288 362.395C276.547 361.901 275.675 361.637 274.783 361.637C273.587 361.637 272.439 362.111 271.594 362.954C270.748 363.798 270.273 364.943 270.273 366.136Z" fill="#2C3A48"/>
<path d="M264.791 416.161H285.292C285.501 416.161 285.701 416.079 285.848 415.932C285.996 415.784 286.078 415.585 286.078 415.377C286.078 415.169 285.996 414.97 285.848 414.822C285.701 414.675 285.501 414.593 285.292 414.593H264.791C264.582 414.593 264.382 414.675 264.235 414.822C264.087 414.97 264.004 415.169 264.004 415.377C264.004 415.585 264.087 415.784 264.235 415.932C264.382 416.079 264.582 416.161 264.791 416.161Z" fill="#3C4A58"/>
<path d="M268.763 384.565H281.32C281.433 384.583 281.548 384.577 281.658 384.547C281.768 384.516 281.869 384.462 281.956 384.389C282.043 384.315 282.113 384.224 282.161 384.12C282.209 384.017 282.233 383.905 282.233 383.791C282.233 383.677 282.209 383.565 282.161 383.462C282.113 383.359 282.043 383.267 281.956 383.193C281.869 383.12 281.768 383.066 281.658 383.035C281.548 383.005 281.433 382.999 281.32 383.017H268.763C268.65 382.999 268.535 383.005 268.425 383.035C268.315 383.066 268.213 383.12 268.127 383.193C268.04 383.267 267.97 383.359 267.922 383.462C267.874 383.565 267.849 383.677 267.849 383.791C267.849 383.905 267.874 384.017 267.922 384.12C267.97 384.224 268.04 384.315 268.127 384.389C268.213 384.462 268.315 384.516 268.425 384.547C268.535 384.577 268.65 384.583 268.763 384.565Z" fill="#3C4A58"/>
<path d="M284.899 415.026C285.053 415.024 285.202 414.978 285.33 414.894C285.459 414.81 285.56 414.691 285.623 414.552C285.702 414.362 285.705 414.15 285.632 413.958C285.559 413.766 285.415 413.61 285.23 413.52L265.494 404.728C265.399 404.674 265.293 404.64 265.184 404.629C265.075 404.618 264.965 404.63 264.86 404.664C264.756 404.697 264.66 404.753 264.579 404.826C264.497 404.899 264.432 404.988 264.387 405.088C264.342 405.188 264.318 405.296 264.318 405.405C264.317 405.514 264.339 405.623 264.383 405.723C264.427 405.823 264.492 405.913 264.572 405.987C264.653 406.061 264.749 406.117 264.852 406.152L284.589 414.944C284.686 414.99 284.791 415.018 284.899 415.026Z" fill="#3C4A58"/>
<path d="M265.101 396.205C265.181 396.395 265.328 396.549 265.515 396.639L268.039 397.753L282.892 404.316L283.865 404.749C283.967 404.769 284.073 404.769 284.175 404.749C284.351 404.745 284.52 404.682 284.655 404.571C284.791 404.46 284.885 404.306 284.923 404.135C284.961 403.964 284.941 403.786 284.865 403.628C284.79 403.47 284.663 403.341 284.506 403.263L282.644 402.417L268.328 396.061L266.259 395.132C266.097 395.055 265.912 395.038 265.738 395.083C265.564 395.129 265.412 395.234 265.308 395.38L265.101 396.205Z" fill="#3C4A58"/>
<path d="M282.872 396.329C283.021 396.33 283.166 396.287 283.291 396.207C283.416 396.126 283.515 396.011 283.575 395.875C283.62 395.78 283.645 395.678 283.65 395.573C283.654 395.469 283.638 395.364 283.601 395.266C283.564 395.168 283.509 395.078 283.437 395.002C283.365 394.926 283.278 394.865 283.182 394.822L267.521 387.806C267.332 387.722 267.117 387.716 266.923 387.789C266.73 387.863 266.573 388.01 266.487 388.198C266.408 388.387 266.405 388.6 266.478 388.792C266.551 388.983 266.695 389.14 266.88 389.23L282.541 396.226C282.643 396.283 282.755 396.318 282.872 396.329Z" fill="#3C4A58"/>
<path d="M266.859 384.297C266.925 384.392 267.019 384.464 267.128 384.503L269.818 385.7L280.968 390.674L282.313 391.272C282.416 391.292 282.521 391.292 282.623 391.272C282.776 391.277 282.926 391.237 283.055 391.156C283.184 391.075 283.286 390.957 283.347 390.818C283.431 390.629 283.437 390.415 283.364 390.222C283.29 390.029 283.143 389.872 282.954 389.786L280.699 388.775L270.045 384.029L267.769 383.017C267.653 382.95 267.521 382.915 267.387 382.915C267.252 382.915 267.12 382.95 267.004 383.017L266.859 384.297Z" fill="#3C4A58"/>
<path d="M265.101 415.026C265.21 415.047 265.322 415.047 265.432 415.026L285.168 406.235C285.353 406.145 285.497 405.988 285.57 405.796C285.643 405.605 285.64 405.392 285.561 405.203C285.475 405.014 285.318 404.868 285.125 404.794C284.931 404.721 284.716 404.727 284.527 404.811L264.79 413.602C264.623 413.673 264.485 413.799 264.401 413.96C264.316 414.12 264.29 414.305 264.326 414.482C264.363 414.66 264.46 414.819 264.601 414.934C264.742 415.048 264.919 415.11 265.101 415.109V415.026Z" fill="#3C4A58"/>
<path d="M266.239 404.852C266.341 404.871 266.446 404.871 266.549 404.852L284.154 397.009C284.346 396.925 284.497 396.767 284.573 396.572C284.648 396.376 284.643 396.159 284.558 395.967C284.473 395.776 284.315 395.626 284.119 395.55C283.923 395.475 283.705 395.48 283.513 395.565L265.908 403.428C265.719 403.513 265.572 403.67 265.498 403.863C265.425 404.056 265.431 404.271 265.515 404.46C265.585 404.587 265.691 404.692 265.819 404.761C265.948 404.831 266.093 404.862 266.239 404.852Z" fill="#3C4A58"/>
<path d="M267.438 396.061C267.548 396.08 267.66 396.08 267.769 396.061L282.954 389.292C283.139 389.202 283.283 389.045 283.356 388.853C283.429 388.662 283.426 388.449 283.347 388.26C283.261 388.071 283.106 387.923 282.913 387.847C282.72 387.77 282.506 387.77 282.313 387.847L267.169 394.472C267.074 394.512 266.988 394.571 266.916 394.645C266.845 394.719 266.789 394.807 266.752 394.904C266.715 395 266.698 395.103 266.703 395.206C266.707 395.309 266.732 395.41 266.776 395.503C266.817 395.652 266.903 395.785 267.021 395.884C267.139 395.984 267.285 396.045 267.438 396.061Z" fill="#3C4A58"/>
<path d="M267.956 391.025C268.064 391.053 268.178 391.053 268.287 391.025L282.437 384.731C282.622 384.641 282.766 384.484 282.839 384.293C282.912 384.101 282.909 383.888 282.83 383.699C282.745 383.511 282.588 383.364 282.394 383.29C282.2 383.217 281.985 383.223 281.796 383.307L267.645 389.622C267.49 389.699 267.364 389.825 267.288 389.981C267.212 390.138 267.19 390.314 267.225 390.484C267.261 390.654 267.352 390.808 267.484 390.92C267.616 391.033 267.782 391.099 267.956 391.108V391.025Z" fill="#3C4A58"/>
<path d="M287.32 425.944H287.547C287.958 425.883 288.328 425.662 288.576 425.329C288.824 424.997 288.93 424.58 288.871 424.169L281.196 370.016C281.109 369.633 280.88 369.296 280.556 369.073C280.232 368.849 279.835 368.756 279.445 368.81C279.054 368.865 278.699 369.063 278.448 369.367C278.198 369.671 278.071 370.057 278.093 370.45L285.789 424.603C285.843 424.971 286.026 425.309 286.307 425.554C286.587 425.8 286.946 425.938 287.32 425.944Z" fill="#3C4A58"/>
<path d="M262.535 425.923H262.763C263.142 425.917 263.506 425.777 263.79 425.527C264.075 425.278 264.261 424.935 264.315 424.561L268.1 397.732L268.328 396.123L269.818 385.742L270.045 384.132L271.969 370.491C271.991 370.098 271.864 369.712 271.613 369.408C271.363 369.104 271.008 368.906 270.617 368.851C270.227 368.797 269.83 368.89 269.506 369.114C269.182 369.337 268.953 369.674 268.866 370.057L267.004 383.183L266.859 384.338L265.266 395.503V396.246L261.211 424.148C261.152 424.559 261.258 424.976 261.506 425.308C261.754 425.641 262.124 425.862 262.535 425.923Z" fill="#3C4A58"/>
<path d="M275.052 425.944C275.776 425.944 276.376 425.593 276.376 425.16V371.027C276.376 370.594 275.776 370.243 275.052 370.243C274.328 370.243 273.728 370.594 273.728 371.027V425.16C273.728 425.593 274.307 425.944 275.052 425.944Z" fill="#3C4A58"/>
<path d="M282.582 368.221H267.48C266.76 368.221 266.177 368.803 266.177 369.521V371.77C266.177 372.488 266.76 373.071 267.48 373.071H282.582C283.302 373.071 283.885 372.488 283.885 371.77V369.521C283.885 368.803 283.302 368.221 282.582 368.221Z" fill="#FFAC42"/>
<path d="M324.496 408.134H307.635C306.915 408.134 306.332 408.716 306.332 409.434V419.773C306.332 420.491 306.915 421.074 307.635 421.074H324.496C325.216 421.074 325.799 420.491 325.799 419.773V409.434C325.799 408.716 325.216 408.134 324.496 408.134Z" fill="#2C3A48"/>
<path d="M327.661 420.495H235.02C233.786 420.495 232.786 421.493 232.786 422.724V427.78C232.786 429.011 233.786 430.009 235.02 430.009H327.661C328.895 430.009 329.895 429.011 329.895 427.78V422.724C329.895 421.493 328.895 420.495 327.661 420.495Z" fill="#514260"/>
<path d="M243.404 349.043L241.757 353.955C241.608 354.399 241.848 354.878 242.292 355.026L244.392 355.726C244.836 355.875 245.316 355.636 245.465 355.192L247.112 350.28C247.26 349.837 247.021 349.357 246.576 349.209L244.477 348.509C244.033 348.36 243.552 348.6 243.404 349.043Z" fill="#5C6A78"/>
<path d="M381.988 373.937C381.988 368.84 384.905 364.691 388.525 364.691C392.146 364.691 395.083 368.819 395.083 373.937C395.083 379.055 388.525 390.447 388.525 390.447C388.525 390.447 381.988 379.035 381.988 373.937Z" fill="white"/>
<path d="M381.988 340.174C381.988 335.077 384.905 330.929 388.525 330.929C392.146 330.929 395.083 335.056 395.083 340.174C395.083 345.292 388.525 356.684 388.525 356.684C388.525 356.684 381.988 345.272 381.988 340.174Z" fill="white"/>
<path d="M381.988 306.246C381.988 301.128 384.905 297 388.525 297C392.146 297 395.083 301.128 395.083 306.246C395.083 311.364 388.525 322.756 388.525 322.756C388.525 322.756 381.988 311.446 381.988 306.246Z" fill="white"/>
<path d="M362.334 350.658C360.741 345.808 362.334 340.958 365.706 339.844C369.079 338.729 373.216 341.763 374.788 346.634C376.361 351.504 373.671 364.32 373.671 364.32C373.671 364.32 363.989 355.446 362.334 350.658Z" fill="white"/>
<path d="M351.99 318.484C350.418 313.634 351.99 308.805 355.362 307.67C358.734 306.535 362.872 309.589 364.465 314.439C366.058 319.289 363.286 332.084 363.286 332.084C363.286 332.084 353.521 323.334 351.99 318.484Z" fill="white"/>
<path d="M414.819 350.658C416.392 345.808 414.819 340.958 411.447 339.844C408.075 338.729 403.938 341.763 402.345 346.634C400.752 351.504 403.482 364.32 403.482 364.32C403.482 364.32 413.247 355.446 414.819 350.658Z" fill="white"/>
<path d="M425.288 318.484C426.86 313.634 425.288 308.805 421.915 307.67C418.543 306.535 414.406 309.589 412.813 314.439C411.22 319.289 414.054 332.084 414.054 332.084C414.054 332.084 423.695 323.334 425.288 318.484Z" fill="white"/>
<path d="M418.047 526.077H360.493C359.911 526.077 359.354 525.847 358.942 525.437C358.531 525.026 358.3 524.47 358.3 523.89C358.3 523.31 358.531 522.753 358.942 522.343C359.354 521.933 359.911 521.702 360.493 521.702H418.047C418.628 521.702 419.186 521.933 419.597 522.343C420.009 522.753 420.24 523.31 420.24 523.89C420.24 524.47 420.009 525.026 419.597 525.437C419.186 525.847 418.628 526.077 418.047 526.077Z" fill="#3C4A58"/>
<path d="M406.896 437.439H371.727C371.145 437.439 370.587 437.208 370.176 436.798C369.765 436.388 369.534 435.831 369.534 435.251C369.534 434.671 369.765 434.114 370.176 433.704C370.587 433.294 371.145 433.063 371.727 433.063H406.896C407.478 433.063 408.036 433.294 408.447 433.704C408.858 434.114 409.089 434.671 409.089 435.251C409.089 435.831 408.858 436.388 408.447 436.798C408.036 437.208 407.478 437.439 406.896 437.439Z" fill="#3C4A58"/>
<path d="M361.569 522.92C361.134 522.93 360.706 522.812 360.338 522.58C359.97 522.349 359.679 522.015 359.5 521.62C359.38 521.357 359.314 521.073 359.305 520.785C359.297 520.497 359.346 520.21 359.45 519.941C359.554 519.672 359.711 519.426 359.911 519.218C360.112 519.01 360.352 518.844 360.617 518.73L416.123 494.027C416.655 493.789 417.26 493.772 417.805 493.979C418.351 494.186 418.791 494.6 419.03 495.131C419.268 495.662 419.286 496.266 419.078 496.81C418.871 497.353 418.455 497.793 417.923 498.031L362.52 522.796C362.216 522.906 361.891 522.948 361.569 522.92Z" fill="#3C4A58"/>
<path d="M416.992 470.108C416.779 470.644 416.362 471.074 415.833 471.305L408.737 474.483L367.196 493.057L364.506 494.254C364.221 494.384 363.91 494.448 363.596 494.44C363.114 494.418 362.652 494.238 362.283 493.928C361.914 493.618 361.657 493.195 361.553 492.724C361.45 492.254 361.504 491.763 361.709 491.327C361.914 490.89 362.257 490.534 362.686 490.312L367.92 487.98L408.075 470.087L414.054 467.301C414.508 467.103 415.016 467.062 415.496 467.185C415.976 467.309 416.401 467.589 416.702 467.982L416.992 470.108Z" fill="#3C4A58"/>
<path d="M367.299 470.356C366.823 470.318 366.373 470.127 366.016 469.811C365.659 469.494 365.415 469.071 365.322 468.604C365.228 468.137 365.29 467.652 365.497 467.224C365.705 466.795 366.047 466.445 366.472 466.228L410.33 446.622C410.851 446.444 411.42 446.466 411.925 446.684C412.431 446.901 412.837 447.299 413.064 447.799C413.292 448.299 413.324 448.866 413.155 449.389C412.986 449.911 412.628 450.353 412.151 450.626L368.189 470.356C367.895 470.413 367.593 470.413 367.299 470.356Z" fill="#3C4A58"/>
<path d="M412.254 436.696C412.046 436.938 411.784 437.129 411.489 437.253L403.938 440.617L372.678 454.588L368.892 456.26C368.607 456.39 368.296 456.454 367.982 456.446C367.546 456.461 367.116 456.346 366.747 456.114C366.378 455.882 366.087 455.544 365.913 455.146C365.688 454.614 365.678 454.015 365.887 453.476C366.095 452.937 366.505 452.5 367.03 452.256L373.237 449.45L403.276 436.097L409.689 433.208C410.02 433.054 410.385 432.99 410.748 433.023C411.112 433.056 411.46 433.183 411.758 433.394L412.254 436.696Z" fill="#3C4A58"/>
<path d="M416.95 522.92C416.644 522.918 416.342 522.854 416.061 522.734L360.679 497.969C360.415 497.852 360.178 497.685 359.979 497.477C359.78 497.269 359.624 497.023 359.521 496.755C359.417 496.487 359.367 496.201 359.374 495.913C359.381 495.626 359.445 495.343 359.562 495.08C359.679 494.817 359.846 494.579 360.055 494.381C360.264 494.183 360.51 494.028 360.779 493.924C361.048 493.821 361.334 493.771 361.623 493.778C361.911 493.785 362.195 493.849 362.458 493.965L417.861 518.73C418.134 518.834 418.383 518.995 418.59 519.201C418.796 519.408 418.957 519.656 419.061 519.929C419.164 520.202 419.209 520.494 419.191 520.785C419.173 521.077 419.093 521.361 418.957 521.62C418.785 522.007 418.503 522.336 418.147 522.567C417.791 522.798 417.375 522.92 416.95 522.92Z" fill="#3C4A58"/>
<path d="M414.054 494.399C413.745 494.401 413.44 494.33 413.165 494.192L363.658 472.172C363.395 472.054 363.157 471.885 362.959 471.676C362.761 471.466 362.606 471.22 362.503 470.951C362.4 470.681 362.351 470.395 362.36 470.107C362.368 469.819 362.433 469.535 362.551 469.272C362.67 469.009 362.839 468.772 363.049 468.575C363.259 468.377 363.506 468.222 363.776 468.12C364.045 468.017 364.333 467.969 364.622 467.977C364.91 467.985 365.195 468.05 365.458 468.168L414.861 490.189C415.274 490.419 415.603 490.776 415.798 491.206C415.993 491.637 416.045 492.118 415.945 492.58C415.845 493.042 415.6 493.46 415.245 493.772C414.89 494.085 414.443 494.275 413.971 494.316L414.054 494.399Z" fill="#3C4A58"/>
<path d="M410.579 469.406C410.273 469.404 409.97 469.341 409.689 469.221L367.051 450.213C366.788 450.095 366.55 449.927 366.352 449.717C366.153 449.508 365.998 449.261 365.896 448.992C365.793 448.723 365.744 448.436 365.753 448.148C365.761 447.86 365.826 447.577 365.944 447.314C366.062 447.051 366.231 446.814 366.441 446.616C366.651 446.418 366.898 446.264 367.168 446.161C367.438 446.059 367.726 446.01 368.014 446.018C368.303 446.027 368.587 446.092 368.851 446.21L411.489 465.217C411.917 465.439 412.261 465.795 412.465 466.231C412.67 466.667 412.725 467.159 412.621 467.629C412.518 468.099 412.261 468.523 411.892 468.833C411.522 469.143 411.061 469.323 410.579 469.344V469.406Z" fill="#3C4A58"/>
<path d="M409.13 455.558C408.824 455.556 408.522 455.493 408.241 455.373L368.541 437.645C368.008 437.407 367.593 436.968 367.385 436.424C367.178 435.88 367.195 435.276 367.434 434.745C367.672 434.214 368.113 433.8 368.658 433.593C369.203 433.386 369.808 433.403 370.34 433.641L410.061 451.369C410.489 451.59 410.832 451.944 411.037 452.379C411.243 452.813 411.299 453.302 411.198 453.772C411.097 454.241 410.843 454.665 410.477 454.976C410.111 455.288 409.652 455.471 409.172 455.497L409.13 455.558Z" fill="#3C4A58"/>
<path d="M354.783 553.587H354.163C353.007 553.418 351.965 552.801 351.264 551.869C350.562 550.938 350.258 549.767 350.418 548.613L371.954 396.576C372.004 395.979 372.175 395.398 372.458 394.87C372.74 394.341 373.128 393.875 373.598 393.502C374.067 393.128 374.608 392.854 375.188 392.697C375.767 392.539 376.373 392.501 376.968 392.586C377.562 392.671 378.133 392.875 378.646 393.188C379.158 393.501 379.601 393.915 379.947 394.404C380.293 394.894 380.535 395.449 380.658 396.035C380.782 396.622 380.784 397.227 380.664 397.814L359.148 549.81C358.995 550.857 358.47 551.814 357.669 552.507C356.867 553.2 355.844 553.583 354.783 553.587Z" fill="#514260"/>
<path d="M424.398 553.546H423.777C422.721 553.547 421.7 553.167 420.902 552.477C420.104 551.787 419.582 550.833 419.433 549.79L408.737 474.483L408.075 469.964L403.938 440.617L403.276 436.097L397.855 397.815C397.733 397.226 397.734 396.618 397.857 396.03C397.979 395.441 398.222 394.884 398.569 394.393C398.916 393.901 399.36 393.486 399.875 393.173C400.389 392.86 400.962 392.655 401.559 392.572C402.156 392.488 402.763 392.528 403.344 392.688C403.925 392.848 404.467 393.125 404.936 393.503C405.405 393.88 405.792 394.349 406.072 394.881C406.352 395.414 406.52 395.997 406.565 396.597L411.799 433.435L412.254 436.696L416.681 467.982L416.992 470.046L428.101 548.469C428.198 549.046 428.179 549.636 428.045 550.205C427.91 550.774 427.663 551.311 427.319 551.783C426.974 552.256 426.538 552.656 426.036 552.958C425.535 553.261 424.978 553.461 424.398 553.546Z" fill="#514260"/>
<path d="M389.228 553.587C387.16 553.587 385.505 552.596 385.505 551.4V399.383C385.505 398.186 387.16 397.195 389.228 397.195C391.297 397.195 392.952 398.186 392.952 399.383V551.4C392.973 552.596 391.297 553.587 389.228 553.587Z" fill="#514260"/>
<path d="M410.475 391.521H368.065C366.054 391.521 364.424 393.147 364.424 395.153V401.488C364.424 403.495 366.054 405.121 368.065 405.121H410.475C412.486 405.121 414.116 403.495 414.116 401.488V395.153C414.116 393.147 412.486 391.521 410.475 391.521Z" fill="#F19B2C"/>
<path d="M461.492 538.295H315.559C312.085 538.295 309.27 541.104 309.27 544.569V558.726C309.27 562.191 312.085 565 315.559 565H461.492C464.965 565 467.781 562.191 467.781 558.726V544.569C467.781 541.104 464.965 538.295 461.492 538.295Z" fill="#FFAC42"/>
<path d="M480.504 416.492L480.649 418.721L482.386 417.648L480.504 416.492ZM481.166 426.068V427.513L482.304 426.832L481.166 426.068ZM481.807 435.644V436.304L482.304 435.995L481.807 435.644ZM480.504 416.492L480.649 418.721L482.386 417.648L480.504 416.492ZM481.166 426.068V427.513L482.304 426.832L481.166 426.068ZM481.807 435.644V436.304L482.304 435.995L481.807 435.644ZM480.504 416.492L480.649 418.721L482.386 417.648L480.504 416.492ZM481.249 427.513L482.386 426.832L481.166 426.068L481.249 427.513ZM481.869 436.304L482.366 435.995L481.807 435.644L481.869 436.304ZM484.641 440.432L484.372 436.304V436.18L483.793 427.513V426.708V426.192L483.276 418.7V418.164V417.297V416.616L482.821 409.888L482.717 408.588V407.164L480.649 378.271C480.633 377.95 480.492 377.648 480.256 377.428C480.021 377.209 479.709 377.089 479.387 377.095C479.068 377.095 478.761 377.216 478.53 377.435C478.299 377.654 478.161 377.954 478.145 378.271L476.118 403.367V404.625L475.518 412.571V412.736V413.355V414.098L473.697 440.556C473.687 440.726 473.713 440.897 473.774 441.057C473.835 441.217 473.928 441.363 474.049 441.484C474.165 441.611 474.305 441.713 474.462 441.784C474.618 441.855 474.787 441.894 474.959 441.897H483.524C483.857 441.892 484.175 441.757 484.411 441.522C484.646 441.287 484.781 440.97 484.786 440.638C484.747 440.551 484.698 440.468 484.641 440.39V440.432ZM476.221 439.4L476.697 432.466V431.661V431.042V430.134L477.152 423.653V422.229V422.106V420.558L477.525 414.841L477.628 413.438V412.509V410.982L477.959 406.029V404.625L478.518 396.494L479.118 405.327L479.242 406.854L479.428 409.847V411.25L479.697 414.903L479.8 416.43L479.945 418.659V420.062L480.256 424.479V426.006V427.451V428.875L480.607 434.055V435.582V436.242V437.666L480.731 439.4H476.221ZM481.807 435.582V436.242L482.304 435.933L481.807 435.582ZM481.166 426.006V427.451L482.304 426.77L481.166 426.006ZM480.504 416.43L480.649 418.659L482.386 417.586L480.504 416.43ZM481.807 435.582V436.242L482.304 435.933L481.807 435.582ZM481.166 426.006V427.451L482.304 426.77L481.166 426.006ZM480.504 416.43L480.649 418.659L482.386 417.586L480.504 416.43ZM481.807 435.582V436.242L482.304 435.933L481.807 435.582ZM481.166 426.006V427.451L482.304 426.77L481.166 426.006ZM480.504 416.43L480.649 418.659L482.386 417.586L480.504 416.43Z" fill="#2C3A48"/>
<path d="M475.197 430.128L474.539 431.202L482.729 436.197L483.387 435.123L475.197 430.128Z" fill="#2C3A48"/>
<path d="M475.54 421.151L474.882 422.226L483.074 427.218L483.732 426.143L475.54 421.151Z" fill="#2C3A48"/>
<path d="M483.131 418.101L482.386 417.647L480.504 416.492L477.876 414.903L476.056 413.788L475.477 413.437L475.518 412.818L475.663 412.571L475.89 412.22L476.056 412.323L477.276 413.066L477.98 413.499L480.4 414.965L483.028 416.554L483.069 417.235L483.131 418.101Z" fill="#2C3A48"/>
<path d="M482.469 408.525L482.386 408.484L479.863 406.916L478.476 406.09L476.077 404.625L476.159 403.345L476.221 403.263L478.58 404.687L479.738 405.388L482.366 406.998L482.469 408.422V408.525Z" fill="#2C3A48"/>
<path d="M483.781 435.152L475.593 440.149L476.251 441.223L484.439 436.226L483.781 435.152Z" fill="#C5D3E1"/>
<path d="M483.772 427.45L481.352 428.936L477.276 431.413L476.739 431.722L476.056 432.135L475.89 432.259L475.663 431.908L475.228 431.186L476.056 430.67L476.842 430.195L481.248 427.512L482.386 426.831L483.421 426.191L483.586 426.439L483.71 426.645L483.772 427.45Z" fill="#2C3A48"/>
<path d="M483.173 418.638L480.752 420.124L477.401 422.167L477.277 422.229L476.077 422.972L475.559 423.302L474.939 422.291L474.918 422.249L474.897 422.208L474.939 422.187L476.077 421.506L477.504 420.619L480.649 418.72L482.386 417.647L483.069 417.234L483.131 418.101L483.173 418.638Z" fill="#2C3A48"/>
<path d="M482.573 409.826L480.132 411.312L478.042 412.592L477.277 413.066L476.056 413.789L475.435 414.181L475.477 413.438L475.518 412.819V412.654L475.663 412.571L476.056 412.323L478.145 411.044L480.049 409.909L482.386 408.485L482.469 408.423V408.526L482.573 409.826Z" fill="#2C3A48"/>
<path d="M533.32 435.705H533.01L525.645 434.054C525.398 433.996 525.171 433.876 524.983 433.707C524.795 433.537 524.653 433.323 524.569 433.084C524.497 432.839 524.489 432.578 524.547 432.329C524.605 432.079 524.727 431.849 524.9 431.66L567.476 385.742C567.723 385.446 568.077 385.261 568.462 385.226C568.846 385.191 569.228 385.31 569.524 385.556C569.82 385.802 570.006 386.156 570.041 386.539C570.076 386.922 569.957 387.304 569.71 387.599L534.541 435.066C534.404 435.262 534.222 435.423 534.009 435.535C533.797 435.646 533.56 435.705 533.32 435.705ZM528.748 431.743L532.72 432.63L551.733 406.978L528.748 431.743Z" fill="#2C3A48"/>
<path d="M520.473 427.678H497.489C497.362 427.697 497.232 427.689 497.109 427.654C496.986 427.619 496.872 427.557 496.774 427.474C496.677 427.391 496.599 427.287 496.545 427.171C496.492 427.055 496.464 426.928 496.464 426.801C496.464 426.673 496.492 426.546 496.545 426.43C496.599 426.314 496.677 426.21 496.774 426.127C496.872 426.044 496.986 425.982 497.109 425.947C497.232 425.912 497.362 425.904 497.489 425.923H520.473C520.683 425.956 520.875 426.062 521.013 426.223C521.151 426.384 521.227 426.589 521.227 426.801C521.227 427.012 521.151 427.217 521.013 427.378C520.875 427.539 520.683 427.645 520.473 427.678Z" fill="#514260"/>
<path d="M516.025 392.243H501.937C501.81 392.262 501.68 392.254 501.557 392.219C501.434 392.184 501.32 392.122 501.222 392.039C501.125 391.956 501.047 391.852 500.993 391.736C500.94 391.62 500.912 391.493 500.912 391.365C500.912 391.238 500.94 391.111 500.993 390.995C501.047 390.879 501.125 390.775 501.222 390.692C501.32 390.609 501.434 390.547 501.557 390.512C501.68 390.477 501.81 390.469 501.937 390.488H516.025C516.235 390.521 516.427 390.627 516.565 390.788C516.703 390.949 516.78 391.153 516.78 391.365C516.78 391.577 516.703 391.782 516.565 391.943C516.427 392.104 516.235 392.21 516.025 392.243Z" fill="#514260"/>
<path d="M497.923 426.377C497.752 426.382 497.584 426.336 497.44 426.243C497.296 426.151 497.183 426.018 497.116 425.861C497.068 425.757 497.041 425.644 497.036 425.529C497.032 425.414 497.051 425.3 497.091 425.192C497.132 425.085 497.193 424.986 497.272 424.903C497.351 424.819 497.446 424.752 497.551 424.705L519.687 414.84C519.793 414.793 519.907 414.767 520.023 414.764C520.139 414.761 520.254 414.781 520.362 414.824C520.47 414.866 520.568 414.929 520.651 415.01C520.734 415.091 520.8 415.188 520.845 415.294C520.936 415.508 520.939 415.749 520.854 415.965C520.769 416.181 520.603 416.355 520.39 416.45L498.275 426.315L497.923 426.377Z" fill="#514260"/>
<path d="M520.039 405.286C519.958 405.504 519.795 405.682 519.584 405.781L516.749 407.04L500.199 414.428L499.123 414.903C499.007 414.929 498.887 414.929 498.771 414.903C498.601 414.908 498.432 414.862 498.288 414.77C498.144 414.677 498.031 414.544 497.965 414.387C497.916 414.283 497.889 414.17 497.885 414.055C497.881 413.941 497.899 413.826 497.94 413.719C497.98 413.611 498.041 413.513 498.12 413.429C498.199 413.345 498.294 413.278 498.399 413.231L500.468 412.303L516.522 405.141L518.901 404.089C519.082 404.011 519.283 403.995 519.474 404.043C519.665 404.092 519.835 404.202 519.956 404.357L520.039 405.286Z" fill="#514260"/>
<path d="M500.199 405.43C500.029 405.428 499.864 405.378 499.722 405.287C499.579 405.196 499.465 405.067 499.392 404.914C499.344 404.809 499.318 404.695 499.315 404.579C499.312 404.464 499.333 404.348 499.375 404.241C499.418 404.133 499.481 404.035 499.562 403.952C499.643 403.869 499.74 403.803 499.847 403.759L517.494 395.896C517.702 395.828 517.929 395.84 518.129 395.929C518.329 396.018 518.49 396.177 518.58 396.377C518.669 396.576 518.682 396.802 518.615 397.01C518.549 397.218 518.407 397.395 518.218 397.505L500.654 405.348C500.511 405.411 500.355 405.44 500.199 405.43Z" fill="#514260"/>
<path d="M518.156 391.933C518.077 392.037 517.969 392.115 517.846 392.16L514.825 393.522L502.413 399.094L500.902 399.754C500.787 399.783 500.666 399.783 500.551 399.754C500.381 399.754 500.215 399.706 500.072 399.614C499.929 399.523 499.815 399.392 499.744 399.239C499.695 399.134 499.668 399.022 499.664 398.907C499.66 398.792 499.678 398.678 499.719 398.57C499.759 398.463 499.821 398.364 499.899 398.28C499.978 398.197 500.073 398.13 500.178 398.083L502.702 396.948L514.66 391.623L517.204 390.488C517.334 390.416 517.48 390.378 517.629 390.378C517.777 390.378 517.923 390.416 518.053 390.488L518.156 391.933Z" fill="#514260"/>
<path d="M520.039 426.377C519.922 426.398 519.803 426.398 519.687 426.377L497.551 416.512C497.446 416.465 497.351 416.398 497.272 416.315C497.193 416.231 497.132 416.132 497.091 416.025C497.051 415.917 497.032 415.803 497.036 415.688C497.041 415.573 497.068 415.461 497.116 415.356C497.159 415.248 497.223 415.149 497.306 415.067C497.389 414.984 497.487 414.92 497.596 414.877C497.705 414.834 497.821 414.815 497.938 414.819C498.055 414.823 498.17 414.852 498.275 414.902L520.39 424.767C520.58 424.843 520.738 424.983 520.835 425.163C520.932 425.343 520.962 425.551 520.92 425.751C520.877 425.95 520.766 426.129 520.605 426.255C520.444 426.381 520.243 426.446 520.039 426.439V426.377Z" fill="#514260"/>
<path d="M518.839 414.985C518.723 415.014 518.602 415.014 518.487 414.985L498.751 406.194C498.561 406.083 498.42 405.907 498.353 405.699C498.287 405.49 498.299 405.265 498.389 405.065C498.479 404.866 498.639 404.706 498.84 404.617C499.04 404.529 499.266 404.517 499.475 404.584L519.211 413.396C519.316 413.443 519.411 413.51 519.49 413.594C519.569 413.678 519.63 413.776 519.67 413.884C519.711 413.991 519.729 414.106 519.725 414.22C519.721 414.335 519.694 414.448 519.645 414.552C519.567 414.694 519.449 414.81 519.306 414.887C519.163 414.964 519.001 414.998 518.839 414.985Z" fill="#514260"/>
<path d="M517.494 405.017C517.372 405.046 517.244 405.046 517.122 405.017L500.095 397.422C499.991 397.375 499.897 397.307 499.818 397.224C499.74 397.14 499.679 397.041 499.638 396.934C499.598 396.827 499.579 396.713 499.583 396.598C499.587 396.484 499.613 396.371 499.661 396.266C499.709 396.162 499.776 396.068 499.86 395.99C499.944 395.912 500.043 395.851 500.15 395.81C500.258 395.77 500.372 395.751 500.487 395.755C500.602 395.759 500.715 395.786 500.819 395.833L517.846 403.407C518.06 403.506 518.226 403.684 518.311 403.904C518.396 404.123 518.392 404.367 518.301 404.583C518.217 404.72 518.098 404.833 517.956 404.909C517.814 404.985 517.655 405.022 517.494 405.017Z" fill="#514260"/>
<path d="M516.915 399.486C516.799 399.508 516.679 399.508 516.563 399.486L500.675 392.407C500.57 392.361 500.475 392.294 500.396 392.21C500.317 392.126 500.256 392.028 500.215 391.92C500.175 391.813 500.156 391.698 500.161 391.584C500.165 391.469 500.192 391.356 500.24 391.252C500.336 391.04 500.51 390.874 500.727 390.789C500.943 390.704 501.185 390.707 501.399 390.798L517.267 397.876C517.479 397.971 517.645 398.146 517.73 398.362C517.816 398.578 517.812 398.818 517.722 399.032C517.639 399.172 517.52 399.287 517.379 399.366C517.237 399.446 517.077 399.487 516.915 399.486Z" fill="#514260"/>
<path d="M495.213 438.636H494.965C494.728 438.603 494.5 438.524 494.295 438.401C494.09 438.279 493.911 438.117 493.77 437.924C493.629 437.731 493.529 437.512 493.474 437.28C493.42 437.048 493.413 436.807 493.455 436.572L502.061 375.856C502.093 375.621 502.173 375.394 502.296 375.19C502.419 374.986 502.582 374.809 502.775 374.67C502.969 374.531 503.189 374.433 503.422 374.382C503.654 374.33 503.895 374.326 504.129 374.37C504.367 374.4 504.596 374.478 504.802 374.599C505.008 374.721 505.186 374.884 505.326 375.078C505.466 375.272 505.564 375.492 505.614 375.725C505.665 375.959 505.666 376.2 505.619 376.434L496.951 437.129C496.887 437.545 496.677 437.925 496.359 438.201C496.041 438.477 495.635 438.631 495.213 438.636Z" fill="#2C3A48"/>
<path d="M522.997 438.615H522.749C522.326 438.615 521.917 438.462 521.598 438.185C521.279 437.909 521.071 437.526 521.011 437.109L516.749 407.019L516.501 405.203L514.825 393.502L514.577 391.686L512.405 376.393C512.363 376.16 512.369 375.92 512.422 375.689C512.475 375.458 512.574 375.24 512.713 375.048C512.852 374.855 513.028 374.693 513.231 374.569C513.434 374.446 513.659 374.364 513.894 374.329C514.129 374.282 514.371 374.284 514.605 374.334C514.839 374.384 515.06 374.482 515.254 374.622C515.448 374.761 515.611 374.939 515.733 375.145C515.855 375.35 515.934 375.578 515.963 375.815L518.032 390.53L518.218 391.83L519.997 404.336V405.182L524.445 436.531C524.493 436.763 524.493 437.003 524.445 437.235C524.397 437.467 524.303 437.687 524.168 437.882C524.032 438.077 523.859 438.242 523.658 438.368C523.456 438.494 523.232 438.578 522.997 438.615Z" fill="#2C3A48"/>
<path d="M508.97 437.748C508.143 437.748 507.481 437.356 507.481 436.881V376.166C507.481 375.691 508.143 375.299 508.97 375.299C509.798 375.299 510.46 375.691 510.46 376.166V436.881C510.46 437.336 509.798 437.748 508.97 437.748Z" fill="#2C3A48"/>
<path d="M514.494 374.123L510.357 358.046C510.226 357.77 510.019 357.538 509.761 357.375C509.503 357.212 509.204 357.125 508.898 357.125C508.593 357.125 508.293 357.212 508.035 357.375C507.777 357.538 507.57 357.77 507.44 358.046L503.302 374.123C503.22 374.446 503.27 374.788 503.441 375.074C503.612 375.36 503.889 375.567 504.212 375.65H504.523C504.802 375.646 505.072 375.551 505.293 375.38C505.513 375.208 505.671 374.97 505.743 374.701L508.805 362.462L511.887 374.701C511.96 374.97 512.118 375.208 512.338 375.38C512.558 375.551 512.829 375.646 513.108 375.65H513.418C513.592 375.625 513.759 375.565 513.908 375.474C514.058 375.383 514.187 375.262 514.288 375.119C514.389 374.976 514.459 374.813 514.494 374.642C514.53 374.471 514.53 374.294 514.494 374.123Z" fill="#2C3A48"/>
<path d="M517.453 373.896H500.488C499.689 373.896 499.04 374.542 499.04 375.34V377.879C499.04 378.676 499.689 379.323 500.488 379.323H517.453C518.252 379.323 518.901 378.676 518.901 377.879V375.34C518.901 374.542 518.252 373.896 517.453 373.896Z" fill="#FFAC42"/>
<path d="M513.212 363.68H504.729C504.33 363.68 504.005 364.003 504.005 364.402V365.682C504.005 366.08 504.33 366.404 504.729 366.404H513.212C513.611 366.404 513.936 366.08 513.936 365.682V364.402C513.936 364.003 513.611 363.68 513.212 363.68Z" fill="#FFAC42"/>
<path d="M505.598 425.923H488.986C487.603 425.923 486.483 427.041 486.483 428.42V436.716C486.483 438.095 487.603 439.213 488.986 439.213H505.598C506.981 439.213 508.102 438.095 508.102 436.716V428.42C508.102 427.041 506.981 425.923 505.598 425.923Z" fill="#514260"/>
<path d="M537.168 430.917H506.509C505.126 430.917 504.005 432.035 504.005 433.414V436.138C504.005 437.517 505.126 438.635 506.509 438.635H537.168C538.551 438.635 539.671 437.517 539.671 436.138V433.414C539.671 432.035 538.551 430.917 537.168 430.917Z" fill="#3C4A58"/>
<path d="M484.559 468.932C484.282 468.929 484.01 468.867 483.76 468.749C483.51 468.632 483.289 468.462 483.111 468.251C482.957 468.062 482.842 467.845 482.773 467.611C482.705 467.377 482.683 467.133 482.71 466.891C482.737 466.649 482.812 466.414 482.93 466.202C483.049 465.989 483.209 465.802 483.4 465.651L508.95 445.013C509.145 444.86 509.369 444.747 509.609 444.68C509.848 444.613 510.099 444.594 510.345 444.624C510.592 444.654 510.831 444.732 511.048 444.853C511.264 444.975 511.455 445.138 511.608 445.333C511.762 445.528 511.875 445.752 511.942 445.991C512.009 446.229 512.028 446.479 511.998 446.725C511.969 446.972 511.891 447.21 511.769 447.426C511.647 447.642 511.483 447.832 511.288 447.985L485.738 468.623C485.388 468.849 484.975 468.958 484.559 468.932Z" fill="#F19B2C"/>
<path d="M537.83 468.932C537.408 468.931 536.999 468.786 536.672 468.52L511.101 447.882C510.722 447.571 510.481 447.124 510.431 446.637C510.38 446.15 510.525 445.663 510.832 445.282C511.14 444.905 511.585 444.665 512.07 444.614C512.555 444.564 513.04 444.708 513.418 445.013L538.989 465.651C539.28 465.894 539.489 466.219 539.589 466.584C539.69 466.949 539.676 467.336 539.55 467.692C539.424 468.049 539.192 468.359 538.885 468.581C538.577 468.802 538.209 468.925 537.83 468.932Z" fill="#F19B2C"/>
<path d="M482.717 440.638H471.836C470.819 440.638 469.994 441.46 469.994 442.474V468.829C469.994 469.843 470.819 470.665 471.836 470.665H482.717C483.734 470.665 484.559 469.843 484.559 468.829V442.474C484.559 441.46 483.734 440.638 482.717 440.638Z" fill="#F19B2C"/>
<path d="M549.291 440.638H538.41C537.393 440.638 536.568 441.46 536.568 442.474V468.829C536.568 469.843 537.393 470.665 538.41 470.665H549.291C550.308 470.665 551.133 469.843 551.133 468.829V442.474C551.133 441.46 550.308 440.638 549.291 440.638Z" fill="#F19B2C"/>
<path d="M555.622 435.953H465.588C464.571 435.953 463.747 436.775 463.747 437.79V444.703C463.747 445.718 464.571 446.54 465.588 446.54H555.622C556.639 446.54 557.463 445.718 557.463 444.703V437.79C557.463 436.775 556.639 435.953 555.622 435.953Z" fill="#F7B23F"/>
<path d="M484.559 453.929H469.994V457.871H484.559V453.929Z" fill="#F7B23F"/>
<path d="M484.559 463.133H469.994V467.095H484.559V463.133Z" fill="#F7B23F"/>
<path d="M551.133 453.929H536.568V457.871H551.133V453.929Z" fill="#F7B23F"/>
<path d="M551.133 463.133H536.568V467.095H551.133V463.133Z" fill="#F7B23F"/>
<path d="M557.463 437.79H463.747V440.638H557.463V437.79Z" fill="#F19B2C"/>
<path d="M485.427 469.551C485.427 469.551 518.88 460.904 542.361 466.723C557.194 470.376 554.898 470.603 564.042 470.438C564.042 470.438 541.575 481.624 503.302 471.904C503.302 471.904 495.109 470.768 485.427 469.551Z" fill="#514260"/>
<path d="M453.692 470.356C453.692 470.356 466.25 463.504 478.249 464.949C487.869 466.125 521.694 476.713 536.465 470.356C536.465 470.356 529.348 484.452 475.911 472.544C475.911 472.626 471.008 467.013 453.692 470.356Z" fill="#2C3A48"/>
<path d="M504.647 471.595C504.647 471.883 494.841 475.516 482.304 473.493C469.767 471.471 459.899 471.677 459.94 471.966C459.94 471.429 470.077 466.58 482.283 470.067C494.489 473.555 504.605 472.131 504.647 471.595Z" fill="#5C6A78"/>
<path d="M561.042 471.739C561.042 472.152 550.015 477.559 535.906 474.525C521.797 471.491 510.688 471.739 510.708 472.152C510.708 471.347 522.107 464.103 535.865 469.366C549.622 474.628 560.939 472.544 561.042 471.739Z" fill="#2C3A48"/>
<path d="M304.966 518.689H266.694V529.05H304.966V518.689Z" fill="#3C4A58"/>
<path d="M334.281 559.263C334.279 559.938 334.143 560.605 333.881 561.228C333.62 561.85 333.238 562.415 332.758 562.89C332.278 563.366 331.708 563.742 331.082 563.998C330.456 564.253 329.786 564.384 329.109 564.381H242.696C242.019 564.384 241.349 564.253 240.723 563.998C240.097 563.742 239.527 563.366 239.047 562.89C238.567 562.415 238.185 561.85 237.924 561.228C237.662 560.605 237.526 559.938 237.524 559.263V555.362C237.526 554.687 237.662 554.02 237.924 553.397C238.185 552.775 238.567 552.21 239.047 551.735C239.527 551.259 240.097 550.883 240.723 550.627C241.349 550.372 242.019 550.241 242.696 550.244H329.109C329.786 550.241 330.456 550.372 331.082 550.627C331.708 550.883 332.278 551.259 332.758 551.735C333.238 552.21 333.62 552.775 333.881 553.397C334.143 554.02 334.279 554.687 334.281 555.362V559.263Z" fill="#2C3A48"/>
<path d="M321.765 562.358C321.121 562.681 320.42 562.874 319.701 562.927C318.983 562.979 318.261 562.89 317.577 562.664C316.892 562.437 316.26 562.079 315.715 561.609C315.17 561.138 314.723 560.565 314.4 559.923L302.546 536.396C301.89 535.101 301.777 533.6 302.231 532.222C302.685 530.845 303.669 529.703 304.966 529.049L314.462 524.282C315.106 523.959 315.807 523.765 316.526 523.713C317.245 523.66 317.967 523.75 318.651 523.976C319.335 524.202 319.967 524.561 320.513 525.031C321.058 525.501 321.504 526.074 321.827 526.717L333.702 550.244C334.353 551.537 334.467 553.034 334.017 554.41C333.568 555.786 332.592 556.929 331.302 557.591L321.765 562.358Z" fill="#2C3A48"/>
<path d="M305.815 476.217V510.847C305.817 511.844 305.622 512.832 305.24 513.754C304.858 514.675 304.297 515.512 303.59 516.216C302.882 516.92 302.041 517.478 301.117 517.856C300.192 518.235 299.201 518.427 298.201 518.421H274.824C273.821 518.432 272.826 518.244 271.896 517.868C270.967 517.492 270.121 516.936 269.409 516.231C268.697 515.526 268.132 514.688 267.748 513.763C267.363 512.839 267.167 511.848 267.169 510.847V476.217C267.175 474.218 267.975 472.302 269.394 470.89C270.814 469.478 272.737 468.685 274.741 468.685H298.201C299.198 468.679 300.185 468.87 301.107 469.246C302.029 469.622 302.868 470.175 303.575 470.875C304.282 471.575 304.844 472.407 305.228 473.324C305.613 474.24 305.812 475.224 305.815 476.217Z" fill="#FBD099"/>
<path d="M250.04 562.358C250.684 562.681 251.385 562.874 252.104 562.927C252.822 562.979 253.545 562.89 254.229 562.664C254.913 562.437 255.545 562.079 256.09 561.609C256.635 561.138 257.082 560.565 257.405 559.923L269.238 536.396C269.562 535.754 269.756 535.054 269.809 534.337C269.861 533.62 269.771 532.9 269.545 532.217C269.318 531.535 268.959 530.904 268.487 530.36C268.016 529.817 267.441 529.371 266.797 529.049L257.301 524.282C256.658 523.959 255.956 523.765 255.238 523.713C254.519 523.66 253.797 523.75 253.113 523.976C252.429 524.202 251.796 524.561 251.251 525.031C250.706 525.501 250.259 526.074 249.937 526.717L238.206 550.244C237.879 550.884 237.682 551.583 237.627 552.3C237.571 553.016 237.658 553.737 237.883 554.42C238.108 555.103 238.467 555.735 238.938 556.279C239.408 556.823 239.983 557.269 240.627 557.591L250.04 562.358Z" fill="#2C3A48"/>
<path d="M308.959 467.136V491.426C308.971 492.386 308.724 493.332 308.244 494.163C307.763 494.995 307.067 495.682 306.228 496.152C299.629 487.897 303.208 482.635 303.746 481.912L294.54 488.104L296.609 479.292C291.995 491.323 276.003 495.121 266.404 496.359C265.458 495.928 264.658 495.233 264.099 494.357C263.541 493.482 263.25 492.464 263.26 491.426V467.136C263.26 466.416 263.402 465.703 263.679 465.038C263.956 464.373 264.361 463.77 264.873 463.262C265.384 462.753 265.991 462.351 266.658 462.077C267.326 461.804 268.041 461.664 268.763 461.667H303.477C304.198 461.664 304.912 461.804 305.578 462.078C306.245 462.352 306.85 462.754 307.36 463.263C307.869 463.771 308.273 464.375 308.547 465.04C308.822 465.705 308.962 466.417 308.959 467.136Z" fill="#7D4C2E"/>
<path d="M305.96 522.26C306.043 522.534 306.085 522.819 306.084 523.106V560.068C306.078 560.831 305.771 561.56 305.228 562.098C304.685 562.635 303.952 562.936 303.187 562.936H269.238C268.859 562.939 268.483 562.867 268.132 562.724C267.78 562.581 267.461 562.37 267.192 562.104C266.922 561.837 266.709 561.52 266.563 561.17C266.417 560.821 266.342 560.446 266.342 560.068V523.106C266.341 522.819 266.383 522.534 266.466 522.26H305.96Z" fill="#F2F2F2"/>
<path d="M316.821 564.216L319.179 527.729C319.179 526.278 318.601 524.887 317.573 523.862C316.545 522.836 315.151 522.26 313.697 522.26H256.826C255.372 522.26 253.977 522.836 252.949 523.862C251.921 524.887 251.343 526.278 251.343 527.729L253.722 564.216H316.821Z" fill="#2C3A48"/>
<path d="M295.016 528.575C295.01 529.338 294.703 530.067 294.16 530.605C293.617 531.142 292.884 531.444 292.119 531.444H280.575C279.813 531.444 279.081 531.141 278.542 530.603C278.003 530.065 277.7 529.336 277.7 528.575V515.965C277.7 515.203 278.002 514.471 278.541 513.93C279.079 513.388 279.811 513.082 280.575 513.076H292.119C292.887 513.076 293.624 513.381 294.167 513.922C294.71 514.464 295.016 515.199 295.016 515.965V528.575Z" fill="#FBD099"/>
<path d="M312 475.351C312 460.471 300.105 447.407 285.334 447.407C270.562 447.407 258.439 460.533 258.439 475.433H258.605V476.775C258.605 477.229 258.786 477.665 259.108 477.986C259.43 478.307 259.866 478.487 260.322 478.487H310.304C310.759 478.487 311.196 478.307 311.518 477.986C311.84 477.665 312.021 477.229 312.021 476.775V475.371L312 475.351Z" fill="#FFAC42"/>
<path d="M300.792 452.635L290.202 463.173C289.531 463.841 289.53 464.926 290.2 465.596L291.558 466.954C292.228 467.624 293.315 467.625 293.987 466.957L304.576 456.419C305.247 455.751 305.249 454.667 304.579 453.997L303.22 452.638C302.55 451.968 301.463 451.967 300.792 452.635Z" fill="#FFAC42"/>
<path d="M306.084 473.121C306.084 473.379 305.981 473.625 305.799 473.807C305.616 473.989 305.369 474.091 305.111 474.091H264.687C264.429 474.091 264.182 473.989 263.999 473.807C263.817 473.625 263.715 473.379 263.715 473.121C263.715 472.864 263.817 472.617 263.999 472.435C264.182 472.254 264.429 472.151 264.687 472.151H305.111C305.369 472.151 305.616 472.254 305.799 472.435C305.981 472.617 306.084 472.864 306.084 473.121Z" fill="#FFAC42"/>
<path d="M285.768 446.127H283.844C282.896 446.127 282.127 446.894 282.127 447.84V462.761C282.127 463.707 282.896 464.474 283.844 464.474H285.768C286.716 464.474 287.485 463.707 287.485 462.761V447.84C287.485 446.894 286.716 446.127 285.768 446.127Z" fill="#FFAC42"/>
<path d="M279.789 463.174C280.109 463.495 280.288 463.929 280.288 464.381C280.288 464.833 280.109 465.267 279.789 465.588L278.424 466.95C278.102 467.269 277.667 467.448 277.214 467.448C276.76 467.448 276.325 467.269 276.003 466.95L265.411 456.384C265.091 456.063 264.912 455.629 264.912 455.177C264.912 454.724 265.091 454.29 265.411 453.969L266.777 452.607C267.098 452.288 267.533 452.109 267.987 452.109C268.44 452.109 268.875 452.288 269.197 452.607L279.789 463.174Z" fill="#FFAC42"/>
<path d="M279.789 465.61L278.858 466.497L265.887 453.516L266.777 452.629C266.934 452.468 267.123 452.341 267.331 452.254C267.538 452.167 267.761 452.122 267.987 452.122C268.212 452.122 268.435 452.167 268.643 452.254C268.851 452.341 269.039 452.468 269.197 452.629L279.789 463.174C279.951 463.334 280.079 463.523 280.166 463.732C280.254 463.941 280.299 464.165 280.299 464.392C280.299 464.618 280.254 464.843 280.166 465.052C280.079 465.261 279.951 465.45 279.789 465.61Z" fill="#F19B2C"/>
<path d="M286.078 464.474H284.796V446.127H286.058C286.284 446.124 286.508 446.167 286.718 446.252C286.928 446.337 287.118 446.463 287.278 446.623C287.438 446.782 287.564 446.972 287.65 447.181C287.735 447.39 287.777 447.614 287.775 447.84V462.761C287.777 462.985 287.736 463.207 287.652 463.415C287.568 463.623 287.443 463.812 287.285 463.971C287.127 464.13 286.939 464.257 286.732 464.343C286.525 464.429 286.303 464.474 286.078 464.474Z" fill="#F19B2C"/>
<path d="M291.581 466.93L290.692 466.022L303.704 453.082L304.594 453.969C304.755 454.127 304.882 454.315 304.97 454.522C305.057 454.729 305.102 454.952 305.102 455.177C305.102 455.402 305.057 455.624 304.97 455.831C304.882 456.039 304.755 456.227 304.594 456.384L294.064 466.93C293.908 467.106 293.717 467.246 293.503 467.343C293.289 467.439 293.057 467.489 292.823 467.489C292.588 467.489 292.356 467.439 292.142 467.343C291.928 467.246 291.737 467.106 291.581 466.93Z" fill="#F19B2C"/>
<path d="M287.382 536.417H282.21V564.071H287.382V536.417Z" fill="#3C4A58"/>
<path d="M262.308 520.416L258.776 528.426C258.036 530.106 258.8 532.067 260.484 532.805L279.497 541.147C281.181 541.886 283.147 541.123 283.887 539.443L287.419 531.433C288.159 529.754 287.394 527.793 285.711 527.054L266.697 518.713C265.014 517.974 263.048 518.737 262.308 520.416Z" fill="#4D5A68"/>
<path d="M303.837 518.7L284.824 527.041C283.14 527.78 282.375 529.741 283.116 531.42L286.647 539.43C287.388 541.11 289.353 541.873 291.037 541.134L310.05 532.792C311.734 532.054 312.499 530.093 311.758 528.413L308.227 520.403C307.486 518.724 305.521 517.961 303.837 518.7Z" fill="#4D5A68"/>
<path d="M315.083 547.396H293.63C292.647 547.396 291.85 548.191 291.85 549.171V559.882C291.85 560.862 292.647 561.657 293.63 561.657H315.083C316.066 561.657 316.862 560.862 316.862 559.882V549.171C316.862 548.191 316.066 547.396 315.083 547.396Z" fill="#3C4A58"/>
<path d="M311.193 550.492C311.193 551.844 310.791 553.166 310.038 554.289C309.285 555.413 308.214 556.289 306.961 556.805C305.709 557.322 304.331 557.456 303.002 557.19C301.673 556.925 300.453 556.272 299.496 555.315C298.54 554.358 297.889 553.139 297.627 551.812C297.365 550.486 297.504 549.112 298.025 547.864C298.547 546.616 299.428 545.55 300.556 544.802C301.685 544.054 303.011 543.657 304.366 543.661C305.265 543.661 306.154 543.838 306.984 544.182C307.813 544.525 308.567 545.029 309.201 545.663C309.835 546.298 310.338 547.051 310.68 547.88C311.022 548.708 311.196 549.596 311.193 550.492Z" fill="#D9E5F2"/>
<path d="M306.828 551.853C306.828 553.773 305.732 555.321 304.366 555.321C303.001 555.321 301.905 553.773 301.905 551.853C302.376 549.668 303.208 547.576 304.366 545.662C305.525 547.576 306.357 549.668 306.828 551.853Z" fill="#2C3A48"/>
<path d="M306.022 551.915C306.022 552.555 305.649 553.092 305.194 553.092C304.739 553.092 304.366 552.555 304.366 551.915C304.528 551.187 304.808 550.49 305.194 549.852C305.58 550.49 305.86 551.187 306.022 551.915Z" fill="white"/>
<path d="M293.319 467.425C293.319 467.639 293.277 467.851 293.195 468.049C293.113 468.247 292.992 468.427 292.84 468.578C292.689 468.73 292.508 468.85 292.31 468.932C292.112 469.014 291.899 469.056 291.685 469.056H280.12C279.906 469.056 279.693 469.014 279.495 468.932C279.296 468.85 279.116 468.73 278.965 468.578C278.813 468.427 278.692 468.247 278.61 468.049C278.528 467.851 278.486 467.639 278.486 467.425C278.486 466.993 278.658 466.578 278.965 466.272C279.271 465.967 279.687 465.795 280.12 465.795H291.685C292.118 465.795 292.534 465.967 292.84 466.272C293.147 466.578 293.319 466.993 293.319 467.425Z" fill="white"/>
<path d="M487.724 539.203C487.724 552.762 479.945 563.741 470.325 563.741C460.705 563.741 452.948 552.762 452.948 539.203C452.948 525.644 470.325 495.472 470.325 495.472C470.325 495.472 487.724 525.665 487.724 539.203Z" fill="#2C3A48"/>
<path d="M481.187 544.775C481.187 548.903 478.766 552.432 475.766 552.432C472.767 552.432 470.325 549.006 470.325 544.775C470.325 540.545 475.766 531.134 475.766 531.134C475.766 531.134 481.187 540.524 481.187 544.775Z" fill="#F5F5F5"/>
</g>
</g>
<defs>
<clipPath id="clip0">
<rect width="768" height="695" fill="white"/>
</clipPath>
<clipPath id="clip1">
<rect width="338" height="268" fill="white" transform="translate(232 297)"/>
</clipPath>
</defs>
</svg>
