<svg width="1107" height="603" viewBox="0 0 1107 603" fill="none" xmlns="http://www.w3.org/2000/svg">
<g opacity="0.1">
<path d="M203.323 413.011L205.839 418.13L200.071 413.011H203.323ZM211.079 428.78L212.407 431.478L199.276 442.192L193.615 438.16L207.749 425.81L211.079 428.78ZM215.34 483.138L186.77 510.02H181.196L189.335 460.094L215.34 483.138ZM212.572 492.347L207.24 510.011H193.469L212.572 492.347ZM207.099 524.27L217.909 552.403L185.292 524.27H207.099ZM220.565 546.832L211.893 524.27H230.855L220.565 546.832ZM211.937 510.011L219.048 486.348L239.755 504.746L237.355 510.011H211.937ZM221.597 477.869L225.136 466.094L230.322 469.79L221.597 477.869ZM210.521 417.433L208.335 412.987H215.606L210.521 417.433ZM222.319 483.333L234.059 472.468L249.473 483.445L241.693 500.49L222.319 483.333ZM237.423 469.351L246.148 461.267L249.231 477.781L237.423 469.351ZM196.547 415.86L204.361 422.795L193.93 431.912L196.547 415.86ZM243.259 507.873L245.683 510.02H242.29L243.259 507.873ZM247.486 524.279L226.808 543.954L235.775 524.279H247.486ZM252.425 510.02L245.198 503.616L251.499 489.844L255.236 510.02H252.425ZM69.8087 367.366L49.1937 403.34L43.3287 401.879C39.4267 397.442 38.9081 360.484 40.3816 356.043C41.8552 351.602 42.8391 347.165 42.8391 347.165C42.8391 347.165 55.5726 346.191 59.9932 347.652C64.4138 349.113 69.8087 367.366 69.8087 367.366ZM58.5196 316.1L71.7718 319.553L66.372 334.839C66.372 334.839 44.3078 336.817 45.2918 333.866C46.2758 330.914 46.7459 320.551 48.2001 318.574C49.6542 316.597 58.5196 316.1 58.5196 316.1ZM80.1331 278.154C83.5261 280.618 91.393 288.044 87.9613 296.401C84.5295 304.758 71.7863 308.703 71.7863 308.703L60.0077 304.758C60.0077 304.758 63.4444 290.484 72.7703 281.606L80.1331 278.154ZM185.258 583.459H169.219L178.816 524.591L214.516 555.627L185.258 583.459ZM203.861 583.459H191.768L213.124 563.146L203.861 583.459ZM229.847 583.459H208.781L219.498 559.961L221.476 561.68L229.847 583.459ZM246.541 583.459H234.646L228.679 567.943L246.541 583.459ZM268.527 583.459H253.394L225.252 559.016L223.168 553.591L253.996 524.265H257.849C262.197 547.908 266.079 569.336 268.527 583.459V583.459ZM367.026 583.459H358.229V428.449H365.596V418.096H335.428L351.36 411.682V382.613L100.215 317.074L85.9788 253.01C85.9788 253.01 58.0301 270.259 39.9018 320.541C35.7526 332.044 33.4987 344.039 32.4953 355.697L30.1347 355.649L25.5784 583.459H7.50603e-06V608.193H367.026V583.459ZM218.422 382.818V381.167L224.724 382.818H218.422ZM230.879 413.011V416.362L216.823 427.85L214.705 425.97L212.557 421.587L221.379 413.888L220.599 412.987L230.879 413.011ZM227.084 459.592H241.383L233.691 466.717L226.517 461.574L227.084 459.592ZM195.486 459.592H215.945L221.277 463.396L216.76 478.434L195.486 459.592ZM187.192 445.333H180.193V459.592H184.865L176.625 510.045H173.32V524.304H174.289L164.687 583.459H30.0523L33.7265 399.668C36.1064 417.979 39.892 430.426 39.892 430.426L92.3625 348.125L193.721 374.714V384.172H187.74V410.021H192.96L188.641 436.533L186.378 438.51L188.118 439.747L187.192 445.333ZM195.432 445.333H191.724L192.16 442.669L195.65 445.153L195.432 445.333ZM219.183 445.333H203.634L214.404 435.593L219.183 445.333ZM229.697 445.333H224.176L219.901 436.64L229.697 445.333ZM243.138 445.333H236.454L220.216 430.865L230.879 422.133V425.318H239.415L243.138 445.333ZM254.543 445.333H247.689L243.938 425.366H246.308V410.07H247.68V388.92L327.338 409.753L331.089 418.11H312.607V428.464H354.293V583.459H320.949V428.96H316.533V583.459H273.05C270.626 569.423 266.748 547.986 262.386 524.265H264.989V510.02H259.759L254.703 482.749L255.086 481.911L250.418 459.548H254.568L254.543 445.333Z" fill="#404040"/>
<path d="M441.527 344.674C441.527 337.275 445.759 331.254 451.012 331.254C456.265 331.254 460.527 337.245 460.527 344.674C460.527 352.103 451.012 368.638 451.012 368.638C451.012 368.638 441.527 352.073 441.527 344.674Z" fill="#404040"/>
<path d="M441.527 295.668C441.527 288.269 445.759 282.248 451.012 282.248C456.265 282.248 460.527 288.239 460.527 295.668C460.527 303.096 451.012 319.632 451.012 319.632C451.012 319.632 441.527 303.067 441.527 295.668Z" fill="#404040"/>
<path d="M441.527 246.42C441.527 238.991 445.759 233 451.012 233C456.265 233 460.527 238.991 460.527 246.42C460.527 253.849 451.012 270.384 451.012 270.384C451.012 270.384 441.527 253.969 441.527 246.42Z" fill="#404040"/>
<path d="M413.013 310.884C410.702 303.844 413.013 296.805 417.905 295.187C422.798 293.57 428.801 297.973 431.082 305.042C433.363 312.112 429.461 330.714 429.461 330.714C429.461 330.714 415.414 317.833 413.013 310.884Z" fill="#404040"/>
<path d="M398.005 264.183C395.724 257.144 398.005 250.134 402.898 248.487C407.79 246.839 413.793 251.272 416.104 258.312C418.416 265.351 414.394 283.924 414.394 283.924C414.394 283.924 400.226 271.223 398.005 264.183Z" fill="#404040"/>
<path d="M489.161 310.884C491.442 303.844 489.161 296.805 484.269 295.187C479.376 293.57 473.373 297.973 471.062 305.042C468.751 312.112 472.713 330.714 472.713 330.714C472.713 330.714 486.88 317.833 489.161 310.884Z" fill="#404040"/>
<path d="M504.349 264.183C506.63 257.144 504.349 250.134 499.456 248.487C494.564 246.839 488.561 251.272 486.25 258.312C483.939 265.351 488.051 283.924 488.051 283.924C488.051 283.924 502.038 271.223 504.349 264.183Z" fill="#404040"/>
<path d="M493.844 565.504H410.342C409.498 565.504 408.688 565.169 408.092 564.574C407.495 563.978 407.16 563.171 407.16 562.329C407.16 561.486 407.495 560.679 408.092 560.083C408.688 559.488 409.498 559.153 410.342 559.153H493.844C494.687 559.153 495.497 559.488 496.093 560.083C496.69 560.679 497.025 561.486 497.025 562.329C497.025 563.171 496.69 563.978 496.093 564.574C495.497 565.169 494.687 565.504 493.844 565.504V565.504Z" fill="#404040"/>
<path d="M477.665 436.846H426.64C425.796 436.846 424.987 436.512 424.39 435.916C423.793 435.321 423.458 434.513 423.458 433.671C423.458 432.829 423.793 432.021 424.39 431.426C424.987 430.83 425.796 430.496 426.64 430.496H477.665C478.509 430.496 479.318 430.83 479.915 431.426C480.512 432.021 480.847 432.829 480.847 433.671C480.847 434.513 480.512 435.321 479.915 435.916C479.318 436.512 478.509 436.846 477.665 436.846V436.846Z" fill="#404040"/>
<path d="M411.902 560.921C411.272 560.935 410.651 560.764 410.117 560.428C409.583 560.093 409.16 559.608 408.901 559.034C408.727 558.653 408.631 558.241 408.618 557.823C408.606 557.404 408.677 556.987 408.828 556.597C408.979 556.206 409.206 555.85 409.497 555.548C409.788 555.246 410.136 555.006 410.522 554.84L491.052 518.983C491.824 518.638 492.702 518.612 493.493 518.913C494.284 519.214 494.923 519.815 495.269 520.586C495.616 521.357 495.641 522.233 495.34 523.022C495.039 523.812 494.436 524.449 493.664 524.795L413.283 560.741C412.841 560.901 412.37 560.962 411.902 560.921V560.921Z" fill="#404040"/>
<path d="M492.313 484.265C492.004 485.042 491.4 485.667 490.632 486.002L480.337 490.615L420.066 517.575L416.164 519.313C415.75 519.501 415.299 519.594 414.844 519.582C414.144 519.551 413.474 519.29 412.938 518.839C412.403 518.389 412.03 517.775 411.88 517.093C411.729 516.41 411.809 515.697 412.106 515.064C412.403 514.43 412.901 513.913 413.523 513.591L421.117 510.206L479.376 484.235L488.051 480.191C488.709 479.903 489.446 479.843 490.143 480.022C490.84 480.202 491.456 480.609 491.893 481.18L492.313 484.265Z" fill="#404040"/>
<path d="M420.217 484.625C419.526 484.571 418.872 484.293 418.355 483.834C417.837 483.375 417.483 482.76 417.347 482.082C417.212 481.405 417.301 480.701 417.602 480.079C417.903 479.456 418.4 478.949 419.016 478.634L482.648 450.176C483.404 449.918 484.229 449.949 484.962 450.265C485.695 450.581 486.285 451.158 486.615 451.884C486.945 452.61 486.992 453.433 486.747 454.191C486.502 454.95 485.982 455.591 485.289 455.988L421.507 484.625C421.081 484.709 420.643 484.709 420.217 484.625V484.625Z" fill="#404040"/>
<path d="M485.439 435.768C485.137 436.119 484.757 436.396 484.329 436.577L473.373 441.459L428.02 461.739L422.528 464.165C422.114 464.354 421.662 464.446 421.207 464.435C420.575 464.457 419.95 464.289 419.415 463.953C418.88 463.616 418.458 463.127 418.205 462.548C417.878 461.775 417.865 460.906 418.167 460.124C418.469 459.342 419.064 458.707 419.826 458.354L428.831 454.28L472.413 434.899L481.717 430.705C482.197 430.482 482.727 430.39 483.255 430.437C483.782 430.484 484.287 430.67 484.719 430.975L485.439 435.768Z" fill="#404040"/>
<path d="M492.253 560.921C491.809 560.918 491.37 560.826 490.962 560.652L410.612 524.705C410.229 524.536 409.884 524.293 409.596 523.991C409.307 523.689 409.081 523.333 408.931 522.943C408.78 522.554 408.708 522.139 408.719 521.721C408.729 521.304 408.821 520.893 408.991 520.511C409.16 520.13 409.403 519.785 409.706 519.497C410.009 519.21 410.366 518.984 410.756 518.834C411.146 518.684 411.562 518.612 411.981 518.622C412.399 518.632 412.811 518.725 413.193 518.894L493.573 554.84C493.97 554.991 494.331 555.224 494.631 555.524C494.931 555.823 495.164 556.183 495.314 556.58C495.465 556.976 495.529 557.4 495.503 557.823C495.477 558.246 495.362 558.659 495.164 559.034C494.914 559.596 494.506 560.074 493.989 560.409C493.472 560.744 492.869 560.922 492.253 560.921V560.921Z" fill="#404040"/>
<path d="M488.051 519.523C487.603 519.527 487.16 519.424 486.76 519.223L414.934 487.261C414.552 487.09 414.207 486.845 413.919 486.541C413.631 486.237 413.407 485.879 413.258 485.489C413.108 485.098 413.038 484.681 413.05 484.263C413.062 483.845 413.157 483.434 413.328 483.052C413.5 482.671 413.745 482.327 414.049 482.04C414.354 481.753 414.712 481.528 415.104 481.379C415.496 481.231 415.913 481.16 416.332 481.172C416.75 481.184 417.163 481.279 417.545 481.45L489.221 513.412C489.821 513.747 490.297 514.264 490.581 514.889C490.864 515.514 490.938 516.213 490.794 516.884C490.65 517.554 490.294 518.161 489.778 518.614C489.263 519.068 488.615 519.344 487.931 519.403L488.051 519.523Z" fill="#404040"/>
<path d="M483.008 483.246C482.564 483.243 482.125 483.152 481.717 482.977L419.856 455.388C419.474 455.217 419.129 454.972 418.841 454.668C418.554 454.364 418.329 454.006 418.18 453.616C418.031 453.225 417.96 452.808 417.972 452.39C417.984 451.972 418.079 451.561 418.25 451.179C418.422 450.798 418.667 450.454 418.972 450.167C419.276 449.879 419.635 449.655 420.026 449.506C420.418 449.357 420.835 449.287 421.254 449.299C421.673 449.311 422.085 449.406 422.468 449.577L484.329 477.166C484.951 477.487 485.449 478.005 485.746 478.638C486.043 479.271 486.122 479.984 485.972 480.667C485.821 481.35 485.449 481.964 484.913 482.414C484.378 482.864 483.708 483.125 483.008 483.157V483.246Z" fill="#404040"/>
<path d="M480.907 463.147C480.463 463.143 480.024 463.052 479.616 462.877L422.017 437.145C421.245 436.8 420.642 436.162 420.341 435.373C420.04 434.584 420.065 433.707 420.411 432.937C420.758 432.166 421.397 431.564 422.188 431.264C422.978 430.963 423.856 430.988 424.629 431.334L482.258 457.066C482.878 457.386 483.375 457.901 483.673 458.531C483.971 459.161 484.053 459.872 483.907 460.553C483.76 461.235 483.392 461.849 482.861 462.301C482.33 462.754 481.664 463.019 480.967 463.057L480.907 463.147Z" fill="#404040"/>
<path d="M402.057 605.434H401.157C399.48 605.19 397.969 604.293 396.951 602.941C395.934 601.589 395.493 599.89 395.724 598.215L426.97 377.534C427.042 376.667 427.29 375.824 427.7 375.057C428.11 374.29 428.673 373.614 429.354 373.072C430.035 372.529 430.82 372.132 431.661 371.903C432.502 371.674 433.381 371.62 434.243 371.743C435.106 371.865 435.935 372.163 436.678 372.617C437.421 373.07 438.064 373.671 438.566 374.382C439.068 375.093 439.42 375.898 439.599 376.749C439.777 377.601 439.78 378.479 439.606 379.332L408.391 599.953C408.168 601.472 407.406 602.861 406.244 603.867C405.081 604.873 403.596 605.429 402.057 605.434Z" fill="#404040"/>
<path d="M503.058 605.375H502.158C500.625 605.376 499.144 604.825 497.986 603.824C496.828 602.822 496.071 601.437 495.855 599.923L480.337 490.616L479.376 484.056L473.373 441.459L472.413 434.899L464.549 379.332C464.372 378.478 464.373 377.596 464.551 376.742C464.729 375.887 465.08 375.079 465.584 374.366C466.088 373.652 466.732 373.05 467.479 372.595C468.225 372.141 469.057 371.843 469.922 371.722C470.788 371.601 471.67 371.659 472.513 371.891C473.355 372.123 474.141 372.526 474.822 373.073C475.503 373.621 476.064 374.302 476.47 375.075C476.876 375.847 477.12 376.695 477.185 377.565L484.779 431.035L485.439 435.768L491.863 481.18L492.313 484.176L508.431 598.006C508.572 598.843 508.544 599.7 508.349 600.526C508.154 601.352 507.796 602.131 507.295 602.817C506.795 603.503 506.163 604.083 505.435 604.522C504.708 604.961 503.899 605.251 503.058 605.375V605.375Z" fill="#404040"/>
<path d="M452.032 605.435C449.031 605.435 446.63 603.997 446.63 602.259V381.608C446.63 379.871 449.031 378.433 452.032 378.433C455.033 378.433 457.434 379.871 457.434 381.608V602.259C457.464 603.997 455.033 605.435 452.032 605.435Z" fill="#404040"/>
<path d="M482.858 370.196H421.327C418.409 370.196 416.044 372.556 416.044 375.468V384.664C416.044 387.576 418.409 389.936 421.327 389.936H482.858C485.776 389.936 488.141 387.576 488.141 384.664V375.468C488.141 372.556 485.776 370.196 482.858 370.196Z" fill="#404040"/>
<path d="M556.875 583.238H345.149C340.109 583.238 336.024 587.315 336.024 592.344V612.894C336.024 617.923 340.109 622 345.149 622H556.875C561.915 622 566 617.923 566 612.894V592.344C566 587.315 561.915 583.238 556.875 583.238Z" fill="#404040"/>
</g>
<circle opacity="0.2" cx="837" cy="270" r="270" fill="#4B0731"/>
<ellipse cx="837" cy="270" rx="243" ry="243" fill="#936A83"/>
<g clip-path="url(#clip0)">
<path d="M926.503 230.582C926.503 226.459 924.129 223.116 921.197 223.116C918.264 223.116 915.918 226.459 915.918 230.582C915.918 234.706 921.197 243.844 921.197 243.844C921.197 243.844 926.503 234.678 926.503 230.582Z" fill="#C9C9C9"/>
<path d="M926.503 203.502C926.503 199.378 924.129 196.063 921.197 196.063C918.264 196.063 915.918 199.378 915.918 203.502C915.918 207.625 921.197 216.791 921.197 216.791C921.197 216.791 926.503 207.486 926.503 203.502Z" fill="#C9C9C9"/>
<path d="M926.503 176.031C926.503 171.908 924.129 168.564 921.197 168.564C918.264 168.564 915.918 171.908 915.918 176.031C915.918 180.155 921.197 189.293 921.197 189.293C921.197 189.293 926.503 180.127 926.503 176.031Z" fill="#C9C9C9"/>
<path d="M900.168 211.86C901.453 215.761 909.301 222.837 909.301 222.837C909.301 222.837 911.479 212.501 910.222 208.6C908.965 204.7 905.642 202.248 902.877 203.028C900.112 203.808 898.883 207.848 900.168 211.86Z" fill="#C9C9C9"/>
<path d="M900.865 196.899C900.865 196.899 903.043 186.535 901.786 182.634C900.529 178.734 897.122 176.282 894.329 177.173C891.536 178.065 890.335 181.965 891.536 185.894C892.737 189.822 900.865 196.899 900.865 196.899Z" fill="#C9C9C9"/>
<path d="M942.395 211.86C943.651 207.931 942.395 204.031 939.602 203.139C936.809 202.248 933.541 204.672 932.257 208.711C930.972 212.751 933.178 222.948 933.178 222.948C933.178 222.948 941.11 215.677 942.395 211.86Z" fill="#C9C9C9"/>
<path d="M950.83 185.894C952.086 181.965 950.83 178.093 948.037 177.173C945.244 176.254 941.976 178.734 940.691 182.746C939.407 186.757 941.613 197.01 941.613 197.01C941.613 197.01 949.545 189.794 950.83 185.894Z" fill="#C9C9C9"/>
<path d="M979.989 363.004H952.06L944.268 308.035L944.017 306.336L940.47 281.261L940.079 278.642L936.867 255.824H939.018C939.77 255.818 940.491 255.527 941.036 255.009C941.581 254.492 941.907 253.787 941.95 253.038V247.661C941.943 246.887 941.631 246.147 941.083 245.6C940.535 245.053 939.793 244.743 939.018 244.735H904.721C904.342 244.735 903.967 244.811 903.619 244.96C903.271 245.109 902.956 245.326 902.695 245.6C902.434 245.874 902.231 246.197 902.099 246.552C901.967 246.906 901.909 247.283 901.928 247.661V252.759C901.928 253.498 902.222 254.207 902.746 254.729C903.27 255.252 903.98 255.545 904.721 255.545H906.872L891.678 362.865H862.409C861.068 362.865 859.782 363.396 858.834 364.342C857.886 365.288 857.354 366.57 857.354 367.908V379.331C857.324 380.011 857.432 380.691 857.673 381.329C857.913 381.967 858.281 382.549 858.753 383.042C859.226 383.534 859.793 383.925 860.421 384.192C861.05 384.46 861.726 384.597 862.409 384.596H979.989C981.33 384.596 982.615 384.065 983.563 383.119C984.511 382.174 985.044 380.891 985.044 379.554V368.131C985.055 367.461 984.933 366.797 984.684 366.175C984.435 365.554 984.064 364.988 983.593 364.511C983.123 364.034 982.562 363.655 981.943 363.396C981.324 363.137 980.66 363.004 979.989 363.004ZM904.023 326.479L918.797 319.904V335.589L903.688 328.875L904.023 326.507V326.479ZM906.816 307.311L918.881 301.934V313.691L906.676 308.119L906.816 307.311ZM908.296 295.442L909.972 294.69L917.987 298.284L907.207 303.104L908.296 295.442ZM939.827 328.875L924.662 335.617V320.238L939.548 326.869L939.827 328.875ZM924.662 301.348L936.783 306.586L936.979 307.84L924.774 313.412L924.662 301.348ZM935.191 295.442L936.197 302.658L926.785 298.479L934.381 295.08L935.191 295.442ZM924.774 295.442V290.678L930.024 293.018L924.774 295.442ZM918.797 294.829L914.44 292.907L918.797 290.956V294.829ZM903.157 332.497L917.457 338.877L901.23 346.121L903.157 332.497ZM940.442 332.497L942.369 346.121L926.142 338.877L940.442 332.497ZM939.018 322.718L925.696 316.811L937.426 311.573L939.018 322.718ZM934.521 291.012H934.325L926.31 287.446L933.571 284.214L934.521 291.012ZM924.774 284.298V281.679H930.639L924.774 284.298ZM918.797 284.075L913.379 281.679H918.797V284.075ZM917.68 287.474L910.083 290.845L909.106 290.427L910.027 284.047L917.68 287.474ZM917.066 316.755L904.609 322.328L906.09 311.88L917.066 316.755ZM918.797 342.109V349.603H902.04L918.797 342.109ZM924.774 342.109L941.531 349.603H924.774V342.109ZM932.761 278.029H924.774V255.685H929.578L932.761 278.029ZM918.797 255.517V278.029H910.865L914.049 255.517H918.797ZM900.224 353.03H918.797V362.837H898.856L900.224 353.03ZM924.774 362.837V353.197H943.374L944.771 363.004L924.774 362.837Z" fill="#C9C9C9"/>
<path d="M775.159 199.824C775.159 195.7 772.813 192.385 769.881 192.385C766.948 192.385 764.602 195.7 764.602 199.824C764.602 203.947 769.881 213.113 769.881 213.113C769.881 213.113 775.159 203.919 775.159 199.824Z" fill="#C9C9C9"/>
<path d="M775.159 172.604C775.159 168.509 772.813 165.166 769.881 165.166C766.948 165.166 764.602 168.509 764.602 172.604C764.602 176.7 769.881 185.894 769.881 185.894C769.881 185.894 775.159 176.728 775.159 172.604Z" fill="#C9C9C9"/>
<path d="M775.159 145.272C775.159 141.149 772.813 137.833 769.881 137.833C766.948 137.833 764.602 141.149 764.602 145.272C764.602 149.396 769.881 158.562 769.881 158.562C769.881 158.562 775.159 149.396 775.159 145.272Z" fill="#C9C9C9"/>
<path d="M748.849 181.018C750.106 184.918 757.982 192.162 757.982 192.162C757.982 192.162 760.16 181.798 758.876 177.897C757.591 173.997 754.323 171.545 751.558 172.325C748.793 173.105 747.564 177.117 748.849 181.018Z" fill="#C9C9C9"/>
<path d="M749.549 166.141C749.549 166.141 751.727 155.804 750.442 151.876C749.158 147.948 745.89 145.524 743.125 146.443C740.36 147.363 739.131 151.235 740.332 155.136C741.533 159.036 749.549 166.141 749.549 166.141Z" fill="#C9C9C9"/>
<path d="M790.993 181.017C792.25 177.117 790.993 173.216 788.2 172.297C785.407 171.377 782.139 173.857 780.883 177.869C779.626 181.881 781.776 192.134 781.776 192.134C781.776 192.134 789.792 184.918 790.993 181.017Z" fill="#C9C9C9"/>
<path d="M799.372 155.135C800.657 151.234 799.372 147.334 796.58 146.442C793.787 145.551 790.519 147.975 789.262 151.875C788.005 155.776 790.156 166.14 790.156 166.14C790.156 166.14 798.227 158.924 799.372 155.135Z" fill="#C9C9C9"/>
<path d="M828.671 332.247H800.742L792.81 277.305L792.559 275.606L788.984 250.531L788.621 247.884L785.409 224.955H787.587C787.966 224.955 788.341 224.879 788.69 224.73C789.038 224.582 789.352 224.364 789.613 224.09C789.875 223.817 790.077 223.493 790.209 223.139C790.341 222.784 790.399 222.407 790.38 222.03V216.903C790.399 216.526 790.341 216.148 790.209 215.794C790.077 215.44 789.875 215.116 789.613 214.842C789.352 214.569 789.038 214.351 788.69 214.202C788.341 214.054 787.966 213.977 787.587 213.978H753.375C752.984 213.958 752.594 214.02 752.229 214.16C751.864 214.3 751.533 214.514 751.257 214.79C750.98 215.066 750.765 215.396 750.625 215.76C750.484 216.124 750.422 216.514 750.442 216.903V222.03C750.422 222.419 750.484 222.808 750.625 223.172C750.765 223.536 750.98 223.867 751.257 224.143C751.533 224.418 751.864 224.633 752.229 224.773C752.594 224.913 752.984 224.975 753.375 224.955H755.553L740.36 332.247H711.091C709.76 332.247 708.482 332.77 707.536 333.704C706.589 334.638 706.05 335.906 706.036 337.234V348.657C706.036 349.994 706.568 351.277 707.516 352.223C708.464 353.168 709.75 353.7 711.091 353.7H828.671C830.011 353.7 831.297 353.168 832.245 352.223C833.193 351.277 833.726 349.994 833.726 348.657V337.234C833.711 335.906 833.172 334.638 832.226 333.704C831.279 332.77 830.002 332.247 828.671 332.247V332.247ZM752.704 295.749L767.451 289.174V304.86L752.341 298.229L752.677 295.861L752.704 295.749ZM755.497 276.581L767.535 271.176V282.933L755.358 277.361L755.497 276.581ZM757.061 264.796L758.737 264.044L766.781 267.582L756 272.402L757.061 264.796ZM788.593 298.229L773.456 304.971V289.48L788.202 296.111L788.593 298.229ZM773.456 270.702L785.409 275.94L785.577 277.166L773.4 282.738L773.456 270.702ZM783.845 264.684L784.878 271.9L775.466 267.582L783.063 264.183L783.845 264.684ZM773.456 264.684V259.948L778.706 262.288L773.456 264.684ZM767.451 264.099L763.066 262.01L767.395 260.087L767.451 264.099ZM751.895 301.767L766.194 308.147L749.967 315.363L751.895 301.767ZM789.179 301.767L790.995 315.363L774.768 308.147L789.179 301.767ZM787.783 291.988L774.489 286.054L786.219 280.816L787.783 291.988ZM783.231 260.255H783.035L775.047 256.688L782.281 253.652L783.231 260.255ZM773.456 253.652V250.865H779.349L773.456 253.652ZM767.451 253.457L762.061 250.865H767.451V253.457ZM766.362 256.828L758.765 260.227L757.788 259.781L758.681 253.401L766.362 256.828ZM765.859 286.054L753.375 291.626L754.687 281.15L765.859 286.054ZM767.563 311.407V318.901H750.805L767.563 311.407ZM773.567 311.407L790.325 318.901H773.567V311.407ZM781.527 247.327H773.456V224.955H778.231L781.527 247.327ZM767.563 224.843V247.327H759.519L762.703 224.843H767.563ZM749.018 322.356H767.563V332.163H747.51L749.018 322.356ZM773.567 332.163V322.44H792.168L793.564 332.247L773.567 332.163Z" fill="#C9C9C9"/>
<path d="M745.275 253.901C745.274 254.081 745.344 254.254 745.469 254.384C745.594 254.514 745.765 254.591 745.945 254.598C746.13 254.598 746.308 254.524 746.439 254.394C746.57 254.263 746.643 254.086 746.643 253.901V190.323C746.636 190.143 746.559 189.973 746.429 189.848C746.299 189.724 746.125 189.654 745.945 189.654C745.767 189.654 745.597 189.725 745.471 189.85C745.345 189.976 745.275 190.146 745.275 190.323V253.901Z" fill="#514260"/>
<path d="M741.309 253.901C741.309 254.081 741.378 254.254 741.503 254.384C741.628 254.514 741.799 254.591 741.979 254.598C742.164 254.598 742.342 254.524 742.473 254.394C742.604 254.263 742.677 254.086 742.677 253.901V190.323C742.67 190.143 742.593 189.973 742.463 189.848C742.333 189.724 742.159 189.654 741.979 189.654C741.801 189.654 741.631 189.725 741.505 189.85C741.379 189.976 741.309 190.146 741.309 190.323V253.901Z" fill="#514260"/>
<path d="M738.998 189.635L737.875 192.903C737.695 193.427 737.974 193.997 738.5 194.177L749.12 197.81C749.645 197.99 750.217 197.711 750.397 197.187L751.521 193.919C751.701 193.395 751.421 192.825 750.896 192.645L740.276 189.012C739.75 188.832 739.179 189.111 738.998 189.635Z" fill="#2C3A48"/>
<path d="M636.157 253.651C636.157 253.829 636.228 253.999 636.353 254.124C636.479 254.25 636.649 254.32 636.827 254.32C637.008 254.32 637.181 254.251 637.311 254.126C637.441 254.001 637.518 253.831 637.525 253.651V182.439C637.525 182.254 637.452 182.077 637.321 181.947C637.19 181.816 637.012 181.743 636.827 181.743C636.647 181.75 636.476 181.826 636.351 181.956C636.227 182.086 636.157 182.259 636.157 182.439V253.651Z" fill="#514260"/>
<path d="M638.363 243.063H635.319C634.671 243.063 634.146 243.587 634.146 244.234V256.576C634.146 257.222 634.671 257.746 635.319 257.746H638.363C639.011 257.746 639.536 257.222 639.536 256.576V244.234C639.536 243.587 639.011 243.063 638.363 243.063Z" fill="#2C3A48"/>
<path d="M632.861 206.288C632.867 207.076 633.107 207.844 633.55 208.497C633.993 209.149 634.621 209.655 635.353 209.951C636.084 210.248 636.888 210.321 637.662 210.162C638.435 210.003 639.144 209.618 639.699 209.057C640.253 208.496 640.629 207.784 640.778 207.01C640.926 206.236 640.841 205.436 640.534 204.71C640.227 203.984 639.711 203.365 639.051 202.932C638.391 202.499 637.617 202.27 636.827 202.276C636.303 202.28 635.784 202.386 635.301 202.59C634.818 202.793 634.38 203.09 634.011 203.463C633.643 203.835 633.352 204.276 633.155 204.761C632.957 205.246 632.858 205.765 632.861 206.288V206.288Z" fill="#2C3A48"/>
<path d="M638.196 181.826C638.282 181.577 638.31 181.311 638.276 181.05C638.242 180.789 638.148 180.54 638 180.321C634.593 175.083 634.593 164.83 637.721 154.801C640.849 144.771 647.161 136.635 653.026 134.379C653.251 134.303 653.459 134.184 653.637 134.028C653.815 133.872 653.96 133.682 654.064 133.47C654.168 133.257 654.229 133.026 654.242 132.79C654.256 132.554 654.222 132.317 654.143 132.094C654.063 131.868 653.938 131.661 653.774 131.485C653.611 131.31 653.413 131.169 653.194 131.073C652.974 130.976 652.737 130.926 652.496 130.924C652.256 130.922 652.018 130.97 651.797 131.063C644.871 133.654 638.028 142.542 634.37 153.714C630.711 164.886 630.962 176.003 635.04 182.243C635.221 182.523 635.477 182.746 635.78 182.886C636.083 183.026 636.42 183.077 636.751 183.033C637.082 182.989 637.393 182.852 637.649 182.639C637.905 182.425 638.095 182.143 638.196 181.826V181.826Z" fill="#F19B2C"/>
<path d="M648.558 158.311V158.172L653.557 132.93C653.608 132.643 653.546 132.347 653.385 132.104C653.224 131.86 652.976 131.687 652.691 131.621C652.546 131.593 652.397 131.593 652.253 131.623C652.108 131.652 651.971 131.71 651.849 131.793C651.726 131.876 651.622 131.982 651.541 132.106C651.461 132.229 651.405 132.367 651.379 132.512L646.407 157.587L635.515 180.823C635.439 181.08 635.458 181.356 635.569 181.601C635.68 181.845 635.876 182.041 636.121 182.153C636.365 182.265 636.642 182.285 636.9 182.209C637.158 182.134 637.381 181.968 637.526 181.742L648.558 158.423C648.558 158.423 648.558 158.339 648.558 158.311Z" fill="#F19B2C"/>
<path d="M645.388 150.607L641.42 162.737C641.267 163.205 641.524 163.709 641.993 163.862L645.896 165.132C646.365 165.285 646.87 165.029 647.023 164.561L650.99 152.43C651.143 151.962 650.887 151.459 650.418 151.306L646.515 150.035C646.046 149.883 645.541 150.138 645.388 150.607Z" fill="#F19B2C"/>
<path d="M646.993 154.662C647.468 154.802 648.39 153.297 648.529 152.823L648.892 151.737C648.964 151.515 648.945 151.274 648.841 151.066C648.736 150.858 648.554 150.699 648.334 150.622L639.145 147.614C638.919 147.551 638.678 147.577 638.471 147.685C638.263 147.794 638.105 147.978 638.028 148.199L637.665 149.313C637.631 149.423 637.619 149.538 637.63 149.653C637.641 149.767 637.675 149.878 637.729 149.979C637.784 150.08 637.858 150.17 637.948 150.242C638.038 150.314 638.141 150.368 638.251 150.4L646.993 154.662Z" fill="#F19B2C"/>
<path d="M643.809 164.496C644.034 164.566 644.279 164.543 644.488 164.434C644.698 164.324 644.855 164.136 644.926 163.911L645.289 162.796C645.289 162.351 645.596 160.596 645.121 160.428L635.542 158.645C635.316 158.583 635.075 158.608 634.867 158.717C634.659 158.826 634.501 159.009 634.424 159.23L634.061 160.317C633.99 160.539 634.009 160.779 634.113 160.988C634.218 161.196 634.399 161.355 634.62 161.431L643.809 164.496Z" fill="#F19B2C"/>
<path d="M645.764 159.76C645.716 159.906 645.698 160.06 645.71 160.214C645.722 160.367 645.764 160.517 645.834 160.654C645.904 160.791 646.001 160.913 646.118 161.013C646.236 161.113 646.372 161.189 646.518 161.236L753.597 196.09C753.744 196.138 753.899 196.156 754.053 196.144C754.206 196.132 754.356 196.09 754.494 196.02C754.631 195.951 754.754 195.854 754.854 195.737C754.954 195.62 755.03 195.484 755.078 195.338L756.474 191.131C756.564 190.832 756.537 190.509 756.396 190.229C756.256 189.95 756.014 189.734 755.72 189.626L648.557 154.773C648.411 154.725 648.256 154.706 648.102 154.718C647.948 154.73 647.798 154.772 647.661 154.842C647.523 154.912 647.401 155.008 647.301 155.126C647.201 155.243 647.125 155.378 647.077 155.525L645.764 159.76Z" fill="#4D5A68"/>
<path d="M683.468 177.034C683.468 178.235 683.825 179.409 684.494 180.408C685.163 181.407 686.114 182.185 687.227 182.645C688.339 183.105 689.563 183.225 690.744 182.991C691.926 182.756 693.01 182.178 693.862 181.328C694.713 180.479 695.293 179.397 695.528 178.219C695.763 177.04 695.642 175.819 695.182 174.709C694.721 173.6 693.94 172.651 692.939 171.984C691.938 171.316 690.761 170.96 689.557 170.96C687.942 170.96 686.393 171.6 685.251 172.739C684.11 173.878 683.468 175.423 683.468 177.034Z" fill="#2C3A48"/>
<path d="M676.067 244.568H703.745C704.026 244.568 704.296 244.457 704.495 244.258C704.694 244.059 704.806 243.79 704.806 243.509C704.806 243.229 704.694 242.959 704.495 242.761C704.296 242.562 704.026 242.451 703.745 242.451H676.067C675.786 242.451 675.516 242.562 675.317 242.761C675.118 242.959 675.006 243.229 675.006 243.509C675.006 243.79 675.118 244.059 675.317 244.258C675.516 244.457 675.786 244.568 676.067 244.568V244.568Z" fill="#3C4A58"/>
<path d="M681.429 201.913H698.382C698.534 201.938 698.69 201.929 698.838 201.888C698.986 201.847 699.124 201.775 699.241 201.675C699.358 201.576 699.452 201.452 699.517 201.313C699.582 201.173 699.615 201.022 699.615 200.868C699.615 200.715 699.582 200.563 699.517 200.424C699.452 200.284 699.358 200.161 699.241 200.061C699.124 199.962 698.986 199.889 698.838 199.848C698.69 199.807 698.534 199.799 698.382 199.824H681.429C681.278 199.799 681.122 199.807 680.974 199.848C680.826 199.889 680.688 199.962 680.571 200.061C680.453 200.161 680.359 200.284 680.295 200.424C680.23 200.563 680.197 200.715 680.197 200.868C680.197 201.022 680.23 201.173 680.295 201.313C680.359 201.452 680.453 201.576 680.571 201.675C680.688 201.775 680.826 201.847 680.974 201.888C681.122 201.929 681.278 201.938 681.429 201.913V201.913Z" fill="#3C4A58"/>
<path d="M703.214 243.036C703.421 243.033 703.623 242.971 703.796 242.858C703.969 242.744 704.106 242.584 704.191 242.395C704.298 242.139 704.302 241.853 704.203 241.594C704.105 241.335 703.911 241.123 703.661 241.002L677.017 229.134C676.888 229.06 676.746 229.015 676.598 229C676.451 228.985 676.302 229 676.162 229.046C676.021 229.092 675.891 229.166 675.781 229.265C675.671 229.364 675.583 229.484 675.522 229.619C675.461 229.754 675.43 229.9 675.429 230.047C675.428 230.195 675.458 230.341 675.518 230.476C675.577 230.612 675.664 230.733 675.773 230.833C675.882 230.933 676.011 231.009 676.151 231.056L702.795 242.925C702.926 242.987 703.069 243.025 703.214 243.036V243.036Z" fill="#3C4A58"/>
<path d="M676.486 217.627C676.595 217.884 676.793 218.092 677.045 218.212L680.452 219.717L700.505 228.576L701.817 229.161C701.956 229.188 702.098 229.188 702.236 229.161C702.473 229.156 702.701 229.071 702.884 228.921C703.067 228.77 703.194 228.564 703.246 228.333C703.297 228.102 703.27 227.861 703.168 227.647C703.066 227.434 702.895 227.261 702.683 227.156L700.17 226.013L680.843 217.432L678.05 216.178C677.831 216.075 677.582 216.051 677.347 216.112C677.112 216.174 676.906 216.315 676.765 216.513L676.486 217.627Z" fill="#3C4A58"/>
<path d="M700.477 217.794C700.678 217.795 700.875 217.738 701.043 217.629C701.212 217.52 701.345 217.364 701.426 217.181C701.487 217.054 701.521 216.915 701.527 216.774C701.533 216.633 701.511 216.492 701.461 216.359C701.412 216.227 701.336 216.106 701.239 216.003C701.142 215.9 701.025 215.818 700.896 215.76L679.754 206.288C679.498 206.175 679.208 206.167 678.946 206.266C678.685 206.365 678.473 206.563 678.357 206.817C678.251 207.073 678.247 207.36 678.345 207.619C678.444 207.878 678.638 208.089 678.888 208.21L700.03 217.655C700.168 217.732 700.32 217.779 700.477 217.794V217.794Z" fill="#3C4A58"/>
<path d="M678.86 201.551C678.949 201.679 679.076 201.777 679.223 201.83L682.854 203.446L697.907 210.16L699.723 210.968C699.861 210.994 700.003 210.994 700.142 210.968C700.347 210.974 700.55 210.92 700.724 210.81C700.898 210.701 701.036 210.543 701.119 210.355C701.233 210.1 701.241 209.81 701.141 209.55C701.042 209.289 700.843 209.078 700.589 208.962L697.544 207.597L683.161 201.189L680.089 199.824C679.932 199.733 679.754 199.686 679.572 199.686C679.391 199.686 679.213 199.733 679.056 199.824L678.86 201.551Z" fill="#3C4A58"/>
<path d="M676.486 243.036C676.634 243.064 676.785 243.064 676.933 243.036L703.577 231.167C703.827 231.046 704.021 230.835 704.119 230.576C704.218 230.317 704.214 230.03 704.108 229.774C703.992 229.52 703.78 229.322 703.519 229.223C703.257 229.124 702.967 229.132 702.711 229.245L676.067 241.113C675.841 241.209 675.655 241.379 675.541 241.596C675.427 241.813 675.391 242.062 675.441 242.302C675.49 242.541 675.621 242.757 675.812 242.911C676.002 243.065 676.241 243.149 676.486 243.147V243.036Z" fill="#3C4A58"/>
<path d="M678.022 229.3C678.161 229.326 678.303 229.326 678.441 229.3L702.208 218.713C702.468 218.598 702.671 218.386 702.773 218.122C702.875 217.858 702.868 217.565 702.753 217.306C702.638 217.047 702.425 216.845 702.161 216.743C701.896 216.641 701.602 216.648 701.343 216.763L677.575 227.378C677.321 227.493 677.122 227.704 677.023 227.965C676.923 228.226 676.931 228.516 677.045 228.771C677.14 228.943 677.283 229.084 677.456 229.178C677.629 229.272 677.826 229.314 678.022 229.3V229.3Z" fill="#3C4A58"/>
<path d="M679.642 217.432C679.79 217.459 679.941 217.459 680.089 217.432L700.589 208.294C700.838 208.173 701.032 207.961 701.131 207.702C701.23 207.443 701.225 207.156 701.119 206.9C701.003 206.646 700.793 206.447 700.533 206.343C700.273 206.239 699.983 206.239 699.723 206.343L679.279 215.287C679.15 215.341 679.034 215.42 678.937 215.521C678.84 215.621 678.765 215.74 678.715 215.87C678.666 216 678.643 216.139 678.649 216.278C678.654 216.417 678.688 216.554 678.748 216.68C678.804 216.88 678.919 217.06 679.078 217.194C679.238 217.328 679.434 217.411 679.642 217.432V217.432Z" fill="#3C4A58"/>
<path d="M680.34 210.634C680.487 210.672 680.641 210.672 680.787 210.634L699.89 202.136C700.14 202.015 700.334 201.804 700.433 201.545C700.531 201.286 700.527 200.999 700.421 200.743C700.305 200.489 700.093 200.291 699.832 200.192C699.57 200.093 699.28 200.101 699.025 200.214L679.921 208.739C679.711 208.843 679.541 209.014 679.438 209.225C679.336 209.436 679.306 209.674 679.354 209.904C679.402 210.133 679.524 210.34 679.703 210.493C679.882 210.645 680.106 210.734 680.34 210.745V210.634Z" fill="#3C4A58"/>
<path d="M706.482 257.774H706.789C707.344 257.692 707.843 257.393 708.178 256.944C708.513 256.495 708.656 255.932 708.576 255.378L698.215 182.272C698.097 181.754 697.788 181.3 697.351 180.998C696.913 180.696 696.377 180.57 695.85 180.644C695.323 180.717 694.843 180.985 694.505 181.395C694.167 181.805 693.996 182.327 694.025 182.857L704.415 255.964C704.488 256.461 704.736 256.916 705.114 257.248C705.493 257.58 705.978 257.767 706.482 257.774V257.774Z" fill="#3C4A58"/>
<path d="M673.023 257.747H673.33C673.841 257.739 674.333 257.549 674.717 257.212C675.101 256.875 675.352 256.413 675.425 255.908L680.536 219.689L680.843 217.516L682.854 203.502L683.161 201.329L685.758 182.913C685.788 182.383 685.616 181.861 685.278 181.451C684.94 181.041 684.46 180.773 683.933 180.699C683.406 180.626 682.871 180.752 682.433 181.054C681.995 181.355 681.687 181.81 681.569 182.327L679.055 200.047L678.86 201.607L676.709 216.68V217.683L671.235 255.351C671.155 255.904 671.299 256.468 671.634 256.916C671.968 257.365 672.468 257.664 673.023 257.747V257.747Z" fill="#3C4A58"/>
<path d="M689.92 257.774C690.897 257.774 691.707 257.301 691.707 256.716V183.637C691.707 183.052 690.897 182.578 689.92 182.578C688.942 182.578 688.132 183.052 688.132 183.637V256.716C688.132 257.301 688.914 257.774 689.92 257.774Z" fill="#3C4A58"/>
<path d="M700.086 179.848H679.698C678.726 179.848 677.938 180.634 677.938 181.603V184.64C677.938 185.61 678.726 186.395 679.698 186.395H700.086C701.058 186.395 701.845 185.61 701.845 184.64V181.603C701.845 180.634 701.058 179.848 700.086 179.848Z" fill="#FFAC42"/>
<path d="M756.67 233.73H733.908C732.936 233.73 732.148 234.516 732.148 235.486V249.444C732.148 250.413 732.936 251.199 733.908 251.199H756.67C757.641 251.199 758.429 250.413 758.429 249.444V235.486C758.429 234.516 757.641 233.73 756.67 233.73Z" fill="#2C3A48"/>
<path d="M760.943 250.419H635.878C634.212 250.419 632.861 251.766 632.861 253.428V260.254C632.861 261.916 634.212 263.263 635.878 263.263H760.943C762.608 263.263 763.959 261.916 763.959 260.254V253.428C763.959 251.766 762.608 250.419 760.943 250.419Z" fill="#514260"/>
<path d="M647.195 153.958L644.972 160.59C644.771 161.188 645.095 161.836 645.694 162.036L648.529 162.981C649.128 163.181 649.777 162.858 649.978 162.26L652.201 155.628C652.401 155.03 652.078 154.382 651.478 154.182L648.644 153.237C648.044 153.037 647.395 153.36 647.195 153.958Z" fill="#5C6A78"/>
<path d="M834.283 187.565C834.283 180.684 838.221 175.083 843.109 175.083C847.996 175.083 851.962 180.656 851.962 187.565C851.962 194.475 843.109 209.854 843.109 209.854C843.109 209.854 834.283 194.447 834.283 187.565Z" fill="white"/>
<path d="M834.283 141.986C834.283 135.104 838.221 129.504 843.109 129.504C847.996 129.504 851.962 135.076 851.962 141.986C851.962 148.895 843.109 164.274 843.109 164.274C843.109 164.274 834.283 148.867 834.283 141.986Z" fill="white"/>
<path d="M834.283 96.1818C834.283 89.2723 838.221 83.7002 843.109 83.7002C847.996 83.7002 851.962 89.2723 851.962 96.1818C851.962 103.091 843.109 118.47 843.109 118.47C843.109 118.47 834.283 103.203 834.283 96.1818Z" fill="white"/>
<path d="M807.751 156.138C805.601 149.591 807.751 143.044 812.304 141.539C816.856 140.035 822.442 144.13 824.564 150.705C826.687 157.281 823.056 174.582 823.056 174.582C823.056 174.582 809.986 162.602 807.751 156.138Z" fill="white"/>
<path d="M793.787 112.703C791.664 106.156 793.787 99.6364 798.339 98.1041C802.892 96.5718 808.477 100.695 810.628 107.242C812.778 113.79 809.036 131.063 809.036 131.063C809.036 131.063 795.854 119.25 793.787 112.703Z" fill="white"/>
<path d="M878.606 156.138C880.729 149.591 878.606 143.044 874.054 141.539C869.502 140.035 863.916 144.13 861.765 150.705C859.615 157.281 863.302 174.582 863.302 174.582C863.302 174.582 876.484 162.602 878.606 156.138Z" fill="white"/>
<path d="M892.738 112.703C894.861 106.156 892.738 99.6364 888.186 98.1041C883.634 96.5718 878.048 100.695 875.897 107.242C873.747 113.79 877.573 131.063 877.573 131.063C877.573 131.063 890.588 119.25 892.738 112.703Z" fill="white"/>
<path d="M882.963 392.954H805.266C804.48 392.954 803.727 392.643 803.172 392.089C802.617 391.536 802.305 390.784 802.305 390.001C802.305 389.218 802.617 388.467 803.172 387.913C803.727 387.359 804.48 387.048 805.266 387.048H882.963C883.748 387.048 884.501 387.359 885.057 387.913C885.612 388.467 885.924 389.218 885.924 390.001C885.924 390.784 885.612 391.536 885.057 392.089C884.501 392.643 883.748 392.954 882.963 392.954V392.954Z" fill="#3C4A58"/>
<path d="M867.91 273.293H820.431C819.646 273.293 818.893 272.982 818.337 272.428C817.782 271.874 817.47 271.123 817.47 270.339C817.47 269.556 817.782 268.805 818.337 268.251C818.893 267.697 819.646 267.386 820.431 267.386H867.91C868.695 267.386 869.448 267.697 870.003 268.251C870.558 268.805 870.87 269.556 870.87 270.339C870.87 271.123 870.558 271.874 870.003 272.428C869.448 272.982 868.695 273.293 867.91 273.293V273.293Z" fill="#3C4A58"/>
<path d="M806.718 388.692C806.131 388.706 805.553 388.546 805.056 388.234C804.56 387.922 804.166 387.471 803.925 386.937C803.763 386.583 803.674 386.2 803.662 385.81C803.65 385.421 803.717 385.034 803.857 384.67C803.998 384.307 804.209 383.975 804.48 383.695C804.751 383.414 805.075 383.19 805.433 383.036L880.366 349.687C881.084 349.366 881.902 349.342 882.637 349.622C883.373 349.901 883.968 350.461 884.29 351.178C884.612 351.894 884.636 352.709 884.356 353.444C884.075 354.178 883.514 354.771 882.796 355.092L808.003 388.525C807.592 388.674 807.153 388.731 806.718 388.692V388.692Z" fill="#3C4A58"/>
<path d="M881.539 317.396C881.251 318.119 880.689 318.7 879.975 319.012L870.395 323.303L814.314 348.377L810.684 349.993C810.298 350.169 809.878 350.255 809.455 350.244C808.804 350.215 808.181 349.972 807.682 349.553C807.183 349.135 806.837 348.563 806.697 347.928C806.557 347.293 806.631 346.63 806.907 346.041C807.184 345.453 807.647 344.971 808.226 344.672L815.292 341.524L869.502 317.368L877.573 313.607C878.186 313.339 878.872 313.284 879.52 313.45C880.168 313.617 880.741 313.996 881.148 314.527L881.539 317.396Z" fill="#3C4A58"/>
<path d="M814.454 317.73C813.812 317.68 813.203 317.421 812.722 316.995C812.24 316.568 811.911 315.996 811.784 315.366C811.658 314.735 811.741 314.081 812.021 313.502C812.302 312.923 812.764 312.452 813.337 312.158L872.546 285.691C873.249 285.45 874.017 285.479 874.699 285.773C875.382 286.067 875.93 286.604 876.237 287.279C876.544 287.954 876.588 288.719 876.36 289.425C876.132 290.131 875.648 290.726 875.004 291.096L815.655 317.73C815.259 317.809 814.851 317.809 814.454 317.73V317.73Z" fill="#3C4A58"/>
<path d="M875.143 272.29C874.862 272.617 874.508 272.874 874.11 273.042L863.916 277.583L821.716 296.445L816.605 298.702C816.219 298.877 815.799 298.963 815.376 298.952C814.787 298.973 814.206 298.817 813.708 298.504C813.21 298.191 812.818 297.736 812.583 297.197C812.279 296.479 812.266 295.671 812.547 294.943C812.828 294.215 813.382 293.625 814.091 293.297L822.47 289.508L863.022 271.482L871.68 267.581C872.126 267.374 872.62 267.287 873.11 267.332C873.601 267.376 874.071 267.548 874.473 267.832L875.143 272.29Z" fill="#3C4A58"/>
<path d="M881.483 388.692C881.07 388.689 880.662 388.604 880.282 388.441L805.517 355.008C805.161 354.851 804.84 354.625 804.572 354.344C804.303 354.063 804.093 353.732 803.953 353.37C803.813 353.007 803.746 352.621 803.755 352.233C803.765 351.845 803.851 351.463 804.009 351.108C804.166 350.753 804.393 350.432 804.675 350.165C804.956 349.897 805.288 349.687 805.651 349.548C806.014 349.408 806.402 349.341 806.791 349.351C807.18 349.36 807.563 349.446 807.919 349.603L882.712 383.036C883.081 383.176 883.417 383.393 883.696 383.672C883.975 383.951 884.192 384.285 884.332 384.654C884.472 385.023 884.532 385.417 884.508 385.81C884.484 386.204 884.376 386.588 884.192 386.937C883.96 387.46 883.58 387.904 883.099 388.215C882.618 388.527 882.057 388.693 881.483 388.692V388.692Z" fill="#3C4A58"/>
<path d="M877.573 350.189C877.156 350.193 876.745 350.097 876.372 349.91L809.539 320.183C809.183 320.024 808.862 319.796 808.594 319.513C808.327 319.231 808.118 318.898 807.979 318.534C807.84 318.171 807.775 317.784 807.786 317.395C807.797 317.006 807.885 316.623 808.044 316.268C808.204 315.914 808.432 315.593 808.716 315.326C808.999 315.06 809.333 314.851 809.697 314.712C810.061 314.574 810.45 314.509 810.839 314.52C811.229 314.531 811.613 314.619 811.968 314.778L878.662 344.505C879.22 344.817 879.664 345.298 879.927 345.879C880.19 346.46 880.26 347.111 880.126 347.734C879.991 348.358 879.66 348.922 879.18 349.344C878.701 349.765 878.098 350.023 877.461 350.078L877.573 350.189Z" fill="#3C4A58"/>
<path d="M872.881 316.449C872.468 316.446 872.06 316.361 871.68 316.198L814.119 290.538C813.763 290.379 813.442 290.152 813.175 289.869C812.907 289.586 812.698 289.253 812.559 288.89C812.42 288.526 812.355 288.139 812.366 287.75C812.377 287.362 812.465 286.979 812.625 286.624C812.784 286.269 813.012 285.949 813.296 285.682C813.579 285.415 813.913 285.206 814.277 285.068C814.642 284.929 815.03 284.864 815.42 284.875C815.809 284.886 816.193 284.974 816.549 285.133L874.11 310.793C874.689 311.092 875.152 311.574 875.428 312.162C875.705 312.751 875.779 313.415 875.639 314.05C875.499 314.685 875.153 315.256 874.654 315.674C874.155 316.093 873.532 316.336 872.881 316.365V316.449Z" fill="#3C4A58"/>
<path d="M870.926 297.754C870.513 297.751 870.105 297.666 869.725 297.503L816.13 273.571C815.411 273.25 814.85 272.657 814.57 271.923C814.29 271.188 814.313 270.373 814.636 269.657C814.958 268.94 815.552 268.38 816.288 268.101C817.024 267.821 817.841 267.845 818.56 268.166L872.183 292.098C872.76 292.396 873.223 292.875 873.5 293.461C873.777 294.048 873.854 294.709 873.717 295.342C873.581 295.976 873.239 296.547 872.744 296.968C872.25 297.389 871.631 297.636 870.982 297.671L870.926 297.754Z" fill="#3C4A58"/>
<path d="M797.557 430.093H796.719C795.159 429.865 793.753 429.032 792.806 427.774C791.859 426.516 791.449 424.937 791.664 423.378L820.738 218.128C820.805 217.322 821.036 216.538 821.418 215.824C821.799 215.111 822.323 214.482 822.957 213.978C823.59 213.473 824.321 213.103 825.103 212.891C825.886 212.678 826.703 212.627 827.506 212.741C828.309 212.856 829.08 213.132 829.771 213.554C830.463 213.977 831.061 214.535 831.528 215.196C831.996 215.857 832.322 216.607 832.489 217.398C832.655 218.19 832.658 219.007 832.496 219.8L803.45 424.994C803.243 426.407 802.534 427.699 801.452 428.635C800.371 429.571 798.989 430.088 797.557 430.093Z" fill="#514260"/>
<path d="M891.537 430.037H890.7C889.274 430.038 887.895 429.526 886.818 428.594C885.741 427.663 885.036 426.375 884.834 424.967L870.395 323.303L869.502 317.201L863.916 277.583L863.022 271.482L855.705 219.8C855.54 219.005 855.541 218.185 855.706 217.391C855.872 216.596 856.199 215.844 856.668 215.181C857.137 214.517 857.737 213.957 858.431 213.534C859.125 213.111 859.899 212.835 860.705 212.722C861.511 212.61 862.331 212.663 863.115 212.879C863.899 213.096 864.63 213.47 865.264 213.979C865.897 214.488 866.419 215.122 866.797 215.84C867.176 216.559 867.402 217.347 867.463 218.156L874.529 267.888L875.143 272.29L881.12 314.527L881.539 317.313L896.537 423.184C896.668 423.962 896.642 424.759 896.46 425.527C896.279 426.295 895.946 427.02 895.48 427.658C895.015 428.296 894.426 428.835 893.749 429.244C893.072 429.653 892.32 429.922 891.537 430.037V430.037Z" fill="#514260"/>
<path d="M844.059 430.093C841.266 430.093 839.031 428.755 839.031 427.14V221.917C839.031 220.301 841.266 218.964 844.059 218.964C846.851 218.964 849.086 220.301 849.086 221.917V427.14C849.114 428.755 846.851 430.093 844.059 430.093Z" fill="#514260"/>
<path d="M872.741 211.303H815.487C812.773 211.303 810.572 213.498 810.572 216.206V224.76C810.572 227.468 812.773 229.663 815.487 229.663H872.741C875.456 229.663 877.657 227.468 877.657 224.76V216.206C877.657 213.498 875.456 211.303 872.741 211.303Z" fill="#F19B2C"/>
<path d="M941.614 409.448H744.604C739.915 409.448 736.114 413.24 736.114 417.918V437.03C736.114 441.708 739.915 445.5 744.604 445.5H941.614C946.303 445.5 950.104 441.708 950.104 437.03V417.918C950.104 413.24 946.303 409.448 941.614 409.448Z" fill="#FFAC42"/>
<path d="M967.28 245.015L967.476 248.024L969.822 246.575L967.28 245.015ZM968.174 257.942V259.892L969.71 258.973L968.174 257.942ZM969.04 270.869V271.761L969.71 271.343L969.04 270.869ZM967.28 245.015L967.476 248.024L969.822 246.575L967.28 245.015ZM968.174 257.942V259.892L969.71 258.973L968.174 257.942ZM969.04 270.869V271.761L969.71 271.343L969.04 270.869ZM967.28 245.015L967.476 248.024L969.822 246.575L967.28 245.015ZM968.286 259.892L969.822 258.973L968.174 257.942L968.286 259.892ZM969.123 271.761L969.794 271.343L969.04 270.869L969.123 271.761ZM972.866 277.333L972.503 271.761V271.594L971.721 259.892V258.806V258.109L971.023 247.996V247.271V246.101V245.182L970.408 236.099L970.269 234.344V232.422L967.476 193.416C967.454 192.983 967.264 192.575 966.946 192.278C966.628 191.982 966.207 191.821 965.772 191.828C965.342 191.828 964.928 191.992 964.616 192.288C964.304 192.584 964.118 192.988 964.096 193.416L961.359 227.295V228.995L960.549 239.721V239.944V240.78V241.783L958.092 277.5C958.078 277.731 958.113 277.962 958.195 278.178C958.277 278.394 958.403 278.59 958.566 278.754C958.722 278.925 958.912 279.063 959.123 279.159C959.334 279.255 959.563 279.307 959.795 279.311H971.358C971.807 279.304 972.237 279.123 972.555 278.805C972.872 278.488 973.054 278.06 973.061 277.612C973.008 277.494 972.943 277.382 972.866 277.277V277.333ZM961.499 275.94L962.141 266.579V265.492V264.656V263.431L962.756 254.682V252.76V252.593V250.503L963.258 242.786L963.398 240.891V239.637V237.576L963.845 230.889V228.995L964.599 218.018L965.409 229.942L965.577 232.004L965.828 236.043V237.938L966.191 242.869L966.331 244.931L966.526 247.94V249.835L966.945 255.797V257.858V259.809V261.731L967.42 268.724V270.786V271.677V273.6L967.587 275.94H961.499ZM969.04 270.786V271.677L969.71 271.259L969.04 270.786ZM968.174 257.858V259.809L969.71 258.889L968.174 257.858ZM967.28 244.931L967.476 247.94L969.822 246.491L967.28 244.931ZM969.04 270.786V271.677L969.71 271.259L969.04 270.786ZM968.174 257.858V259.809L969.71 258.889L968.174 257.858ZM967.28 244.931L967.476 247.94L969.822 246.491L967.28 244.931ZM969.04 270.786V271.677L969.71 271.259L969.04 270.786ZM968.174 257.858V259.809L969.71 258.889L968.174 257.858ZM967.28 244.931L967.476 247.94L969.822 246.491L967.28 244.931Z" fill="#2C3A48"/>
<path d="M960.116 263.423L959.227 264.873L970.284 271.616L971.172 270.166L960.116 263.423Z" fill="#2C3A48"/>
<path d="M960.579 251.304L959.691 252.754L970.75 259.494L971.638 258.043L960.579 251.304Z" fill="#2C3A48"/>
<path d="M970.827 247.187L969.822 246.574L967.28 245.014L963.733 242.869L961.276 241.364L960.494 240.891L960.549 240.055L960.745 239.721L961.052 239.247L961.276 239.386L962.923 240.389L963.873 240.974L967.141 242.953L970.688 245.098L970.743 246.017L970.827 247.187Z" fill="#2C3A48"/>
<path d="M969.933 234.259L969.822 234.204L966.414 232.086L964.543 230.972L961.303 228.994L961.415 227.266L961.499 227.155L964.683 229.077L966.247 230.024L969.794 232.198L969.933 234.12V234.259Z" fill="#2C3A48"/>
<path d="M971.704 270.205L960.65 276.952L961.539 278.401L972.593 271.655L971.704 270.205Z" fill="#C5D3E1"/>
<path d="M971.693 259.808L968.425 261.814L962.923 265.157L962.197 265.575L961.276 266.132L961.052 266.299L960.745 265.826L960.158 264.851L961.276 264.154L962.337 263.513L968.286 259.891L969.822 258.972L971.218 258.108L971.442 258.443L971.609 258.721L971.693 259.808Z" fill="#2C3A48"/>
<path d="M970.883 247.911L967.615 249.917L963.091 252.675L962.923 252.759L961.303 253.762L960.605 254.208L959.767 252.843L959.739 252.787L959.712 252.731L959.767 252.703L961.303 251.784L963.231 250.586L967.476 248.023L969.822 246.574L970.743 246.017L970.827 247.187L970.883 247.911Z" fill="#2C3A48"/>
<path d="M970.073 236.016L966.778 238.022L963.957 239.749L962.923 240.39L961.276 241.365L960.438 241.894L960.494 240.891L960.549 240.055V239.833L960.745 239.721L961.276 239.387L964.096 237.659L966.666 236.127L969.822 234.205L969.934 234.121V234.26L970.073 236.016Z" fill="#2C3A48"/>
<path d="M1038.58 270.952H1038.16L1028.22 268.724C1027.89 268.644 1027.58 268.483 1027.33 268.254C1027.07 268.025 1026.88 267.736 1026.77 267.414C1026.67 267.082 1026.66 266.731 1026.74 266.394C1026.82 266.058 1026.98 265.747 1027.22 265.492L1084.69 203.502C1085.03 203.103 1085.5 202.852 1086.02 202.805C1086.54 202.758 1087.06 202.918 1087.46 203.251C1087.86 203.583 1088.11 204.061 1088.16 204.578C1088.2 205.095 1088.04 205.61 1087.71 206.009L1040.23 270.089C1040.05 270.355 1039.8 270.572 1039.51 270.722C1039.23 270.873 1038.91 270.952 1038.58 270.952V270.952ZM1032.41 265.603L1037.77 266.801L1063.44 232.17L1032.41 265.603Z" fill="#2C3A48"/>
<path d="M1021.24 260.115H990.21C990.039 260.141 989.864 260.13 989.697 260.083C989.531 260.035 989.377 259.953 989.245 259.84C989.114 259.728 989.008 259.588 988.936 259.431C988.864 259.274 988.826 259.104 988.826 258.931C988.826 258.758 988.864 258.588 988.936 258.431C989.008 258.274 989.114 258.134 989.245 258.022C989.377 257.909 989.531 257.826 989.697 257.779C989.864 257.732 990.039 257.721 990.21 257.747H1021.24C1021.52 257.79 1021.78 257.934 1021.97 258.151C1022.15 258.368 1022.26 258.645 1022.26 258.931C1022.26 259.217 1022.15 259.494 1021.97 259.711C1021.78 259.928 1021.52 260.071 1021.24 260.115V260.115Z" fill="#514260"/>
<path d="M1015.23 212.278H996.214C996.043 212.304 995.869 212.293 995.702 212.246C995.536 212.199 995.381 212.116 995.25 212.003C995.118 211.891 995.013 211.751 994.941 211.594C994.868 211.437 994.831 211.267 994.831 211.094C994.831 210.921 994.868 210.751 994.941 210.594C995.013 210.437 995.118 210.297 995.25 210.185C995.381 210.072 995.536 209.99 995.702 209.942C995.869 209.895 996.043 209.884 996.214 209.91H1015.23C1015.52 209.953 1015.78 210.097 1015.96 210.314C1016.15 210.531 1016.25 210.808 1016.25 211.094C1016.25 211.38 1016.15 211.657 1015.96 211.874C1015.78 212.091 1015.52 212.235 1015.23 212.278V212.278Z" fill="#514260"/>
<path d="M990.796 258.359C990.565 258.366 990.338 258.303 990.144 258.179C989.949 258.055 989.797 257.875 989.707 257.662C989.642 257.522 989.605 257.37 989.599 257.215C989.593 257.06 989.619 256.905 989.673 256.76C989.728 256.615 989.811 256.482 989.917 256.369C990.024 256.256 990.152 256.165 990.294 256.102L1020.18 242.785C1020.32 242.721 1020.47 242.685 1020.63 242.682C1020.79 242.678 1020.94 242.705 1021.09 242.762C1021.23 242.819 1021.37 242.905 1021.48 243.014C1021.59 243.123 1021.68 243.254 1021.74 243.398C1021.86 243.686 1021.87 244.011 1021.75 244.303C1021.64 244.595 1021.41 244.83 1021.13 244.958L991.271 258.275L990.796 258.359Z" fill="#514260"/>
<path d="M1020.65 229.886C1020.54 230.18 1020.32 230.42 1020.04 230.554L1016.21 232.254L993.868 242.228L992.416 242.869C992.26 242.905 992.098 242.905 991.941 242.869C991.711 242.876 991.483 242.813 991.289 242.689C991.094 242.564 990.942 242.384 990.852 242.172C990.787 242.032 990.75 241.879 990.744 241.724C990.739 241.569 990.764 241.415 990.818 241.27C990.873 241.125 990.956 240.992 991.062 240.879C991.169 240.766 991.297 240.675 991.439 240.612L994.232 239.358L1015.9 229.691L1019.12 228.27C1019.36 228.164 1019.63 228.142 1019.89 228.208C1020.15 228.274 1020.38 228.423 1020.54 228.632L1020.65 229.886Z" fill="#514260"/>
<path d="M993.868 230.081C993.64 230.077 993.417 230.01 993.224 229.887C993.032 229.764 992.878 229.59 992.779 229.384C992.715 229.242 992.679 229.088 992.676 228.932C992.672 228.776 992.699 228.62 992.756 228.475C992.814 228.329 992.9 228.197 993.009 228.085C993.118 227.973 993.249 227.885 993.394 227.824L1017.22 217.209C1017.5 217.118 1017.8 217.134 1018.07 217.254C1018.34 217.374 1018.56 217.589 1018.68 217.858C1018.8 218.128 1018.82 218.432 1018.73 218.714C1018.64 218.995 1018.45 219.233 1018.19 219.382L994.483 229.969C994.29 230.055 994.079 230.094 993.868 230.081V230.081Z" fill="#514260"/>
<path d="M1018.11 211.859C1018 211.999 1017.86 212.106 1017.69 212.166L1013.61 214.005L996.857 221.527L994.818 222.419C994.662 222.458 994.499 222.458 994.343 222.419C994.114 222.418 993.89 222.353 993.697 222.229C993.504 222.106 993.35 221.93 993.254 221.722C993.189 221.581 993.152 221.429 993.146 221.274C993.14 221.119 993.166 220.965 993.22 220.82C993.275 220.674 993.358 220.542 993.464 220.429C993.571 220.316 993.699 220.225 993.841 220.162L997.248 218.63L1013.39 211.441L1016.83 209.909C1017 209.812 1017.2 209.76 1017.4 209.76C1017.6 209.76 1017.8 209.812 1017.97 209.909L1018.11 211.859Z" fill="#514260"/>
<path d="M1020.65 258.359C1020.5 258.388 1020.33 258.388 1020.18 258.359L990.294 245.041C990.152 244.978 990.024 244.888 989.917 244.775C989.811 244.662 989.728 244.529 989.673 244.384C989.619 244.239 989.593 244.084 989.599 243.929C989.605 243.774 989.642 243.622 989.707 243.481C989.764 243.335 989.852 243.202 989.963 243.09C990.075 242.979 990.208 242.892 990.355 242.834C990.502 242.776 990.659 242.75 990.816 242.756C990.974 242.762 991.129 242.8 991.271 242.868L1021.13 256.186C1021.38 256.288 1021.6 256.477 1021.73 256.72C1021.86 256.963 1021.9 257.244 1021.84 257.513C1021.78 257.783 1021.63 258.024 1021.42 258.194C1021.2 258.364 1020.93 258.452 1020.65 258.443V258.359Z" fill="#514260"/>
<path d="M1019.03 242.98C1018.88 243.019 1018.71 243.019 1018.56 242.98L991.913 231.112C991.658 230.962 991.467 230.724 991.377 230.443C991.287 230.162 991.304 229.857 991.425 229.588C991.546 229.319 991.763 229.103 992.034 228.983C992.304 228.864 992.609 228.848 992.891 228.939L1019.54 240.835C1019.68 240.898 1019.8 240.989 1019.91 241.102C1020.02 241.215 1020.1 241.348 1020.16 241.493C1020.21 241.638 1020.24 241.793 1020.23 241.948C1020.22 242.102 1020.19 242.255 1020.12 242.395C1020.02 242.587 1019.86 242.744 1019.66 242.847C1019.47 242.951 1019.25 242.997 1019.03 242.98V242.98Z" fill="#514260"/>
<path d="M1017.22 229.523C1017.05 229.562 1016.88 229.562 1016.71 229.523L993.729 219.27C993.588 219.206 993.46 219.115 993.355 219.002C993.249 218.889 993.166 218.756 993.112 218.611C993.057 218.467 993.032 218.312 993.037 218.158C993.042 218.003 993.078 217.851 993.142 217.71C993.206 217.569 993.298 217.442 993.411 217.337C993.524 217.231 993.658 217.149 993.803 217.095C993.948 217.04 994.103 217.015 994.258 217.02C994.413 217.025 994.565 217.061 994.706 217.125L1017.69 227.35C1017.98 227.484 1018.21 227.724 1018.32 228.02C1018.43 228.317 1018.43 228.646 1018.31 228.938C1018.19 229.123 1018.03 229.275 1017.84 229.377C1017.65 229.48 1017.43 229.53 1017.22 229.523V229.523Z" fill="#514260"/>
<path d="M1016.43 222.057C1016.28 222.085 1016.12 222.085 1015.96 222.057L994.511 212.5C994.369 212.437 994.241 212.347 994.134 212.234C994.028 212.121 993.945 211.988 993.89 211.843C993.836 211.697 993.811 211.543 993.817 211.388C993.822 211.233 993.859 211.081 993.924 210.94C994.053 210.654 994.289 210.43 994.581 210.315C994.873 210.201 995.199 210.205 995.488 210.327L1016.91 219.883C1017.2 220.012 1017.42 220.247 1017.54 220.539C1017.65 220.83 1017.65 221.155 1017.52 221.444C1017.41 221.632 1017.25 221.787 1017.06 221.895C1016.87 222.002 1016.65 222.058 1016.43 222.057V222.057Z" fill="#514260"/>
<path d="M987.138 274.909H986.802C986.483 274.865 986.175 274.757 985.898 274.592C985.621 274.427 985.38 274.208 985.19 273.948C984.999 273.688 984.864 273.392 984.79 273.078C984.717 272.765 984.708 272.44 984.764 272.122L996.382 190.156C996.426 189.838 996.534 189.532 996.7 189.257C996.865 188.982 997.086 188.743 997.347 188.555C997.608 188.368 997.905 188.235 998.219 188.165C998.533 188.096 998.858 188.09 999.175 188.15C999.495 188.19 999.804 188.295 1000.08 188.459C1000.36 188.624 1000.6 188.844 1000.79 189.105C1000.98 189.367 1001.11 189.664 1001.18 189.979C1001.25 190.295 1001.25 190.62 1001.19 190.936L989.484 272.875C989.398 273.436 989.115 273.949 988.685 274.321C988.255 274.694 987.707 274.902 987.138 274.909V274.909Z" fill="#2C3A48"/>
<path d="M1024.65 274.881H1024.31C1023.74 274.88 1023.19 274.674 1022.76 274.3C1022.33 273.927 1022.05 273.411 1021.96 272.847L1016.21 232.226L1015.88 229.774L1013.61 213.977L1013.28 211.526L1010.35 190.881C1010.29 190.566 1010.3 190.243 1010.37 189.931C1010.44 189.619 1010.58 189.324 1010.76 189.064C1010.95 188.805 1011.19 188.585 1011.46 188.419C1011.74 188.252 1012.04 188.142 1012.36 188.095C1012.67 188.031 1013 188.033 1013.32 188.101C1013.63 188.169 1013.93 188.301 1014.19 188.489C1014.45 188.678 1014.68 188.918 1014.84 189.195C1015 189.473 1015.11 189.781 1015.15 190.101L1017.94 209.965L1018.19 211.721L1020.6 228.604V229.747L1026.6 272.067C1026.67 272.381 1026.67 272.704 1026.6 273.017C1026.54 273.331 1026.41 273.628 1026.23 273.891C1026.04 274.154 1025.81 274.377 1025.54 274.547C1025.27 274.718 1024.96 274.831 1024.65 274.881V274.881Z" fill="#2C3A48"/>
<path d="M1005.71 273.711C1004.59 273.711 1003.7 273.181 1003.7 272.54V190.574C1003.7 189.933 1004.59 189.404 1005.71 189.404C1006.83 189.404 1007.72 189.933 1007.72 190.574V272.54C1007.72 273.153 1006.83 273.711 1005.71 273.711Z" fill="#2C3A48"/>
<path d="M1013.17 187.816L1007.58 166.112C1007.4 165.741 1007.13 165.426 1006.78 165.206C1006.43 164.986 1006.02 164.869 1005.61 164.869C1005.2 164.869 1004.8 164.986 1004.45 165.206C1004.1 165.426 1003.82 165.741 1003.64 166.112L998.058 187.816C997.948 188.252 998.015 188.714 998.245 189.1C998.476 189.486 998.85 189.766 999.287 189.878H999.705C1000.08 189.872 1000.45 189.744 1000.75 189.513C1001.04 189.281 1001.26 188.96 1001.35 188.596L1005.49 172.075L1009.65 188.596C1009.75 188.96 1009.96 189.281 1010.26 189.513C1010.55 189.744 1010.92 189.872 1011.3 189.878H1011.71C1011.95 189.845 1012.17 189.764 1012.38 189.64C1012.58 189.517 1012.75 189.354 1012.89 189.161C1013.02 188.967 1013.12 188.748 1013.17 188.517C1013.22 188.286 1013.22 188.047 1013.17 187.816V187.816Z" fill="#2C3A48"/>
<path d="M1017.16 187.509H994.259C993.18 187.509 992.304 188.382 992.304 189.46V192.886C992.304 193.964 993.18 194.837 994.259 194.837H1017.16C1018.24 194.837 1019.12 193.964 1019.12 192.886V189.46C1019.12 188.382 1018.24 187.509 1017.16 187.509Z" fill="#FFAC42"/>
<path d="M1011.44 173.718H999.985C999.445 173.718 999.007 174.154 999.007 174.693V176.42C999.007 176.959 999.445 177.395 999.985 177.395H1011.44C1011.98 177.395 1012.41 176.959 1012.41 176.42V174.693C1012.41 174.154 1011.98 173.718 1011.44 173.718Z" fill="#FFAC42"/>
<path d="M1001.16 257.746H978.731C976.865 257.746 975.352 259.255 975.352 261.117V272.317C975.352 274.179 976.865 275.688 978.731 275.688H1001.16C1003.02 275.688 1004.54 274.179 1004.54 272.317V261.117C1004.54 259.255 1003.02 257.746 1001.16 257.746Z" fill="#514260"/>
<path d="M1043.78 264.488H1002.39C1000.52 264.488 999.007 265.998 999.007 267.859V271.537C999.007 273.399 1000.52 274.908 1002.39 274.908H1043.78C1045.64 274.908 1047.16 273.399 1047.16 271.537V267.859C1047.16 265.998 1045.64 264.488 1043.78 264.488Z" fill="#3C4A58"/>
<path d="M972.754 315.809C972.381 315.804 972.014 315.72 971.676 315.561C971.339 315.403 971.04 315.174 970.799 314.889C970.592 314.634 970.437 314.34 970.344 314.025C970.251 313.71 970.222 313.379 970.258 313.052C970.295 312.726 970.396 312.41 970.556 312.122C970.716 311.835 970.932 311.582 971.19 311.379L1005.68 283.518C1005.95 283.311 1006.25 283.159 1006.57 283.068C1006.9 282.978 1007.23 282.952 1007.57 282.992C1007.9 283.033 1008.22 283.138 1008.51 283.302C1008.81 283.466 1009.06 283.686 1009.27 283.95C1009.48 284.213 1009.63 284.515 1009.72 284.837C1009.81 285.16 1009.84 285.497 1009.8 285.829C1009.76 286.162 1009.65 286.483 1009.49 286.775C1009.32 287.067 1009.1 287.323 1008.84 287.53L974.346 315.391C973.874 315.697 973.316 315.843 972.754 315.809V315.809Z" fill="#F19B2C"/>
<path d="M1044.67 315.808C1044.1 315.807 1043.55 315.61 1043.11 315.251L1008.59 287.39C1008.07 286.971 1007.75 286.367 1007.68 285.71C1007.61 285.052 1007.81 284.395 1008.22 283.88C1008.64 283.371 1009.24 283.047 1009.89 282.979C1010.55 282.911 1011.2 283.105 1011.71 283.518L1046.23 311.379C1046.63 311.706 1046.91 312.146 1047.05 312.638C1047.18 313.131 1047.16 313.653 1046.99 314.134C1046.82 314.616 1046.51 315.034 1046.09 315.334C1045.68 315.633 1045.18 315.798 1044.67 315.808V315.808Z" fill="#F19B2C"/>
<path d="M970.269 277.611H955.578C954.205 277.611 953.092 278.721 953.092 280.091V315.669C953.092 317.039 954.205 318.149 955.578 318.149H970.269C971.641 318.149 972.754 317.039 972.754 315.669V280.091C972.754 278.721 971.641 277.611 970.269 277.611Z" fill="#F19B2C"/>
<path d="M1060.14 277.611H1045.45C1044.08 277.611 1042.97 278.721 1042.97 280.091V315.669C1042.97 317.039 1044.08 318.149 1045.45 318.149H1060.14C1061.52 318.149 1062.63 317.039 1062.63 315.669V280.091C1062.63 278.721 1061.52 277.611 1060.14 277.611Z" fill="#F19B2C"/>
<path d="M1068.69 271.287H947.144C945.771 271.287 944.658 272.397 944.658 273.766V283.1C944.658 284.469 945.771 285.579 947.144 285.579H1068.69C1070.06 285.579 1071.18 284.469 1071.18 283.1V273.766C1071.18 272.397 1070.06 271.287 1068.69 271.287Z" fill="#F7B23F"/>
<path d="M972.754 295.554H953.092V300.875H972.754V295.554Z" fill="#F7B23F"/>
<path d="M972.754 307.979H953.092V313.329H972.754V307.979Z" fill="#F7B23F"/>
<path d="M1062.63 295.554H1042.97V300.875H1062.63V295.554Z" fill="#F7B23F"/>
<path d="M1062.63 307.979H1042.97V313.329H1062.63V307.979Z" fill="#F7B23F"/>
<path d="M1071.18 273.767H944.658V277.611H1071.18V273.767Z" fill="#F19B2C"/>
<path d="M973.927 316.644C973.927 316.644 1019.09 304.97 1050.79 312.827C1070.81 317.759 1067.71 318.065 1080.06 317.842C1080.06 317.842 1049.73 332.943 998.058 319.82C998.058 319.82 986.998 318.288 973.927 316.644Z" fill="#514260"/>
<path d="M931.085 317.731C931.085 317.731 948.037 308.481 964.236 310.431C977.223 312.019 1022.89 326.312 1042.83 317.731C1042.83 317.731 1033.22 336.76 961.08 320.684C961.08 320.795 954.461 313.217 931.085 317.731Z" fill="#2C3A48"/>
<path d="M999.873 319.403C999.873 319.793 986.635 324.696 969.71 321.966C952.785 319.236 939.463 319.514 939.519 319.904C939.519 319.18 953.204 312.633 969.682 317.341C986.16 322.049 999.817 320.127 999.873 319.403Z" fill="#5C6A78"/>
<path d="M1076.01 319.597C1076.01 320.155 1061.12 327.454 1042.07 323.359C1023.03 319.263 1008.03 319.597 1008.06 320.155C1008.06 319.068 1023.45 309.289 1042.02 316.393C1060.59 323.498 1075.87 320.684 1076.01 319.597Z" fill="#2C3A48"/>
<path d="M730.305 382.981H678.637V396.967H730.305V382.981Z" fill="#3C4A58"/>
<path d="M769.88 437.755C769.876 438.666 769.693 439.567 769.34 440.407C768.987 441.248 768.472 442.01 767.823 442.652C767.175 443.294 766.406 443.802 765.561 444.147C764.716 444.492 763.811 444.668 762.898 444.664H646.239C645.326 444.668 644.421 444.492 643.576 444.147C642.731 443.802 641.962 443.294 641.314 442.652C640.665 442.01 640.15 441.248 639.797 440.407C639.444 439.567 639.261 438.666 639.257 437.755V432.489C639.261 431.578 639.444 430.677 639.797 429.836C640.15 428.996 640.665 428.233 641.314 427.592C641.962 426.95 642.731 426.442 643.576 426.097C644.421 425.752 645.326 425.576 646.239 425.58H762.898C763.811 425.576 764.716 425.752 765.561 426.097C766.406 426.442 767.175 426.95 767.823 427.592C768.472 428.233 768.987 428.996 769.34 429.836C769.693 430.677 769.876 431.578 769.88 432.489V437.755Z" fill="#2C3A48"/>
<path d="M752.983 441.934C752.114 442.37 751.167 442.631 750.197 442.702C749.226 442.772 748.252 442.652 747.328 442.346C746.405 442.041 745.551 441.557 744.815 440.922C744.079 440.287 743.476 439.514 743.04 438.646L727.037 406.885C726.152 405.137 725.999 403.111 726.612 401.251C727.225 399.391 728.553 397.85 730.305 396.967L743.124 390.531C743.993 390.095 744.94 389.834 745.91 389.763C746.88 389.692 747.855 389.813 748.779 390.118C749.702 390.423 750.556 390.907 751.292 391.542C752.028 392.177 752.631 392.951 753.067 393.818L769.098 425.58C769.977 427.325 770.13 429.346 769.523 431.204C768.917 433.061 767.599 434.604 765.858 435.498L752.983 441.934Z" fill="#2C3A48"/>
<path d="M731.45 325.643V372.394C731.454 373.74 731.19 375.074 730.674 376.318C730.159 377.562 729.402 378.691 728.446 379.642C727.491 380.593 726.356 381.345 725.107 381.856C723.859 382.367 722.521 382.626 721.172 382.619H689.613C688.258 382.634 686.915 382.38 685.66 381.872C684.405 381.365 683.264 380.613 682.302 379.662C681.341 378.711 680.578 377.578 680.059 376.331C679.54 375.083 679.275 373.745 679.279 372.394V325.643C679.286 322.944 680.366 320.357 682.283 318.451C684.199 316.545 686.795 315.474 689.501 315.474H721.172C722.517 315.467 723.85 315.724 725.094 316.232C726.339 316.739 727.472 317.487 728.426 318.431C729.381 319.376 730.14 320.499 730.658 321.737C731.177 322.974 731.446 324.302 731.45 325.643V325.643Z" fill="#FBD099"/>
<path d="M656.154 441.934C657.023 442.37 657.97 442.631 658.94 442.702C659.91 442.772 660.885 442.652 661.808 442.346C662.732 442.041 663.586 441.557 664.322 440.922C665.058 440.287 665.661 439.514 666.097 438.646L682.072 406.885C682.509 406.018 682.771 405.074 682.841 404.106C682.912 403.138 682.791 402.165 682.485 401.244C682.179 400.323 681.694 399.471 681.058 398.737C680.421 398.003 679.646 397.401 678.776 396.967L665.957 390.531C665.088 390.095 664.141 389.834 663.171 389.763C662.2 389.692 661.226 389.813 660.302 390.118C659.379 390.423 658.525 390.907 657.789 391.542C657.053 392.177 656.45 392.951 656.014 393.818L640.179 425.58C639.737 426.444 639.471 427.387 639.396 428.355C639.321 429.323 639.439 430.295 639.742 431.217C640.046 432.139 640.53 432.992 641.166 433.727C641.801 434.462 642.576 435.064 643.446 435.498L656.154 441.934Z" fill="#2C3A48"/>
<path d="M735.695 313.384V346.176C735.711 347.472 735.378 348.748 734.729 349.871C734.08 350.993 733.141 351.921 732.008 352.556C723.099 341.412 727.931 334.308 728.657 333.332L716.229 341.691L719.022 329.794C712.793 346.037 691.204 351.163 678.246 352.835C676.968 352.253 675.888 351.315 675.134 350.133C674.381 348.951 673.987 347.577 674 346.176V313.384C674 312.412 674.193 311.45 674.566 310.552C674.94 309.655 675.488 308.84 676.178 308.154C676.868 307.468 677.687 306.924 678.589 306.555C679.49 306.186 680.455 305.997 681.429 306.001H728.294C729.267 305.997 730.231 306.186 731.131 306.556C732.03 306.925 732.847 307.469 733.535 308.155C734.223 308.842 734.769 309.657 735.139 310.554C735.51 311.452 735.699 312.414 735.695 313.384V313.384Z" fill="#7D4C2E"/>
<path d="M731.645 387.801C731.758 388.171 731.814 388.556 731.813 388.943V438.842C731.806 439.871 731.39 440.856 730.658 441.582C729.925 442.307 728.935 442.714 727.903 442.714H682.072C681.56 442.718 681.052 442.621 680.578 442.428C680.103 442.235 679.672 441.95 679.309 441.59C678.945 441.23 678.657 440.802 678.46 440.33C678.263 439.858 678.162 439.353 678.162 438.842V388.943C678.161 388.556 678.217 388.171 678.329 387.801H731.645Z" fill="#F2F2F2"/>
<path d="M746.308 444.442L749.492 395.184C749.492 393.226 748.712 391.348 747.324 389.963C745.936 388.579 744.054 387.801 742.091 387.801H665.315C663.352 387.801 661.469 388.579 660.081 389.963C658.693 391.348 657.913 393.226 657.913 395.184L661.125 444.442H746.308Z" fill="#2C3A48"/>
<path d="M716.871 396.326C716.864 397.356 716.448 398.341 715.716 399.066C714.984 399.792 713.993 400.199 712.961 400.199H697.377C696.347 400.199 695.36 399.791 694.632 399.065C693.904 398.338 693.495 397.353 693.495 396.326V379.303C693.495 378.274 693.903 377.286 694.63 376.555C695.357 375.824 696.345 375.41 697.377 375.403H712.961C713.998 375.403 714.993 375.814 715.726 376.545C716.459 377.277 716.871 378.269 716.871 379.303V396.326Z" fill="#FBD099"/>
<path d="M739.801 324.473C739.801 304.386 723.741 286.75 703.8 286.75C683.859 286.75 667.493 304.469 667.493 324.585H667.716V326.396C667.716 327.009 667.961 327.597 668.395 328.031C668.83 328.465 669.42 328.708 670.034 328.708H737.51C738.125 328.708 738.715 328.465 739.149 328.031C739.584 327.597 739.828 327.009 739.828 326.396V324.501L739.801 324.473Z" fill="#FFAC42"/>
<path d="M724.669 293.808L710.373 308.034C709.467 308.936 709.465 310.4 710.369 311.304L712.204 313.139C713.108 314.043 714.575 314.044 715.482 313.143L729.778 298.916C730.684 298.014 730.686 296.55 729.782 295.646L727.947 293.812C727.043 292.908 725.575 292.906 724.669 293.808Z" fill="#FFAC42"/>
<path d="M731.813 321.464C731.813 321.811 731.675 322.144 731.428 322.39C731.182 322.635 730.848 322.773 730.5 322.773H675.927C675.579 322.773 675.245 322.635 674.999 322.39C674.753 322.144 674.615 321.811 674.615 321.464V321.464C674.615 321.116 674.753 320.783 674.999 320.538C675.245 320.292 675.579 320.154 675.927 320.154H730.5C730.848 320.154 731.182 320.292 731.428 320.538C731.675 320.783 731.813 321.116 731.813 321.464V321.464Z" fill="#FFAC42"/>
<path d="M704.387 285.022H701.789C700.509 285.022 699.471 286.057 699.471 287.334V307.478C699.471 308.755 700.509 309.79 701.789 309.79H704.387C705.667 309.79 706.705 308.755 706.705 307.478V287.334C706.705 286.057 705.667 285.022 704.387 285.022Z" fill="#FFAC42"/>
<path d="M696.315 308.035C696.747 308.468 696.989 309.054 696.989 309.665C696.989 310.275 696.747 310.861 696.315 311.295L694.472 313.133C694.038 313.564 693.451 313.805 692.838 313.805C692.226 313.805 691.639 313.564 691.204 313.133L676.905 298.869C676.473 298.435 676.231 297.85 676.231 297.239C676.231 296.628 676.473 296.042 676.905 295.609L678.748 293.77C679.183 293.34 679.77 293.098 680.382 293.098C680.994 293.098 681.582 293.34 682.016 293.77L696.315 308.035Z" fill="#FFAC42"/>
<path d="M696.315 311.323L695.059 312.521L677.547 294.996L678.748 293.798C678.961 293.582 679.216 293.41 679.496 293.293C679.777 293.175 680.078 293.115 680.382 293.115C680.686 293.115 680.988 293.175 681.268 293.293C681.549 293.41 681.803 293.582 682.016 293.798L696.315 308.035C696.533 308.25 696.706 308.506 696.824 308.788C696.942 309.071 697.003 309.373 697.003 309.679C697.003 309.985 696.942 310.288 696.824 310.57C696.706 310.852 696.533 311.108 696.315 311.323Z" fill="#F19B2C"/>
<path d="M704.806 309.79H703.074V285.022H704.778C705.083 285.018 705.386 285.075 705.669 285.19C705.952 285.305 706.209 285.475 706.425 285.691C706.641 285.906 706.812 286.163 706.927 286.445C707.042 286.727 707.1 287.029 707.096 287.334V307.477C707.1 307.78 707.043 308.08 706.93 308.36C706.816 308.641 706.648 308.896 706.435 309.111C706.222 309.326 705.968 309.497 705.689 309.613C705.409 309.73 705.109 309.79 704.806 309.79Z" fill="#F19B2C"/>
<path d="M712.235 313.106L711.034 311.88L728.601 294.411L729.802 295.609C730.019 295.822 730.191 296.075 730.309 296.355C730.427 296.635 730.487 296.936 730.487 297.239C730.487 297.542 730.427 297.843 730.309 298.123C730.191 298.403 730.019 298.656 729.802 298.869L715.586 313.106C715.377 313.343 715.119 313.533 714.83 313.663C714.541 313.793 714.228 313.86 713.911 313.86C713.594 313.86 713.28 313.793 712.991 313.663C712.702 313.533 712.444 313.343 712.235 313.106V313.106Z" fill="#F19B2C"/>
<path d="M706.565 406.913H699.583V444.247H706.565V406.913Z" fill="#3C4A58"/>
<path d="M672.715 385.312L667.948 396.125C666.948 398.393 667.98 401.04 670.254 402.037L695.921 413.299C698.195 414.296 700.848 413.266 701.848 410.998L706.615 400.185C707.615 397.917 706.583 395.27 704.309 394.273L678.642 383.012C676.368 382.015 673.715 383.044 672.715 385.312Z" fill="#4D5A68"/>
<path d="M728.78 382.994L703.112 394.256C700.839 395.253 699.806 397.9 700.806 400.168L705.573 410.981C706.573 413.249 709.226 414.278 711.5 413.281L737.167 402.02C739.441 401.023 740.473 398.376 739.473 396.108L734.706 385.295C733.706 383.027 731.053 381.997 728.78 382.994Z" fill="#4D5A68"/>
<path d="M743.962 421.735H715C713.673 421.735 712.598 422.808 712.598 424.131V438.591C712.598 439.914 713.673 440.987 715 440.987H743.962C745.288 440.987 746.364 439.914 746.364 438.591V424.131C746.364 422.808 745.288 421.735 743.962 421.735Z" fill="#3C4A58"/>
<path d="M738.711 425.914C738.711 427.739 738.168 429.523 737.151 431.041C736.134 432.558 734.689 433.74 732.998 434.437C731.307 435.134 729.447 435.315 727.653 434.957C725.859 434.599 724.212 433.718 722.92 432.425C721.628 431.133 720.75 429.487 720.397 427.696C720.043 425.906 720.23 424.05 720.934 422.366C721.638 420.681 722.827 419.243 724.351 418.233C725.875 417.223 727.665 416.687 729.495 416.692C730.707 416.692 731.908 416.931 733.028 417.395C734.148 417.859 735.166 418.538 736.022 419.395C736.878 420.252 737.556 421.269 738.018 422.387C738.479 423.506 738.715 424.705 738.711 425.914V425.914Z" fill="#D9E5F2"/>
<path d="M732.818 427.752C732.818 430.343 731.338 432.433 729.495 432.433C727.651 432.433 726.171 430.343 726.171 427.752C726.808 424.802 727.931 421.978 729.495 419.394C731.059 421.978 732.182 424.802 732.818 427.752V427.752Z" fill="#2C3A48"/>
<path d="M731.729 427.836C731.729 428.7 731.226 429.424 730.612 429.424C729.998 429.424 729.495 428.7 729.495 427.836C729.713 426.853 730.091 425.912 730.612 425.05C731.133 425.912 731.511 426.853 731.729 427.836V427.836Z" fill="white"/>
<path d="M714.581 313.774C714.581 314.063 714.524 314.349 714.413 314.617C714.302 314.884 714.14 315.126 713.935 315.331C713.73 315.535 713.487 315.697 713.219 315.808C712.951 315.918 712.664 315.975 712.375 315.975H696.762C696.473 315.975 696.186 315.918 695.918 315.808C695.65 315.697 695.407 315.535 695.202 315.331C694.997 315.126 694.835 314.884 694.724 314.617C694.613 314.349 694.556 314.063 694.556 313.774V313.774C694.556 313.191 694.788 312.631 695.202 312.218C695.616 311.805 696.177 311.573 696.762 311.573H712.375C712.96 311.573 713.521 311.805 713.935 312.218C714.348 312.631 714.581 313.191 714.581 313.774V313.774Z" fill="white"/>
<path d="M977.027 410.674C977.027 428.979 966.526 443.801 953.539 443.801C940.552 443.801 930.079 428.979 930.079 410.674C930.079 392.37 953.539 351.637 953.539 351.637C953.539 351.637 977.027 392.398 977.027 410.674Z" fill="#2C3A48"/>
<path d="M968.202 418.197C968.202 423.769 964.934 428.533 960.885 428.533C956.835 428.533 953.539 423.908 953.539 418.197C953.539 412.485 960.885 399.781 960.885 399.781C960.885 399.781 968.202 412.457 968.202 418.197Z" fill="#F5F5F5"/>
</g>
<defs>
<clipPath id="clip0">
<rect width="456.3" height="361.8" fill="white" transform="translate(631.8 83.7002)"/>
</clipPath>
</defs>
</svg>
