<svg width="320" height="301" viewBox="0 0 320 301" fill="none" xmlns="http://www.w3.org/2000/svg">
<g clip-path="url(#clip0)">
<path opacity="0.1" d="M-53.1783 134.242L-55.2963 138.536L-50.4401 134.242H-53.1783ZM-59.7076 147.472L-60.8258 149.735L-49.7708 158.724L-45.0044 155.341L-56.9041 144.979L-59.7076 147.472ZM-63.2947 193.079L-39.2423 215.633H-34.5494L-41.4011 173.744L-63.2947 193.079ZM-60.9645 200.805L-56.4756 215.624H-44.882L-60.9645 200.805ZM-56.3573 227.588L-65.4575 251.192L-37.9977 227.588H-56.3573ZM-67.6938 246.518L-60.3932 227.588H-76.3574L-67.6938 246.518ZM-60.43 215.624L-66.4165 195.771L-83.8498 211.208L-81.8298 215.624H-60.43ZM-68.563 188.658L-71.542 178.778L-75.9085 181.879L-68.563 188.658ZM-59.2384 137.952L-57.3979 134.221H-63.5191L-59.2384 137.952ZM-69.1711 193.242L-79.0548 184.126L-92.0319 193.336L-85.4821 207.637L-69.1711 193.242ZM-81.8869 181.511L-89.2324 174.729L-91.8278 188.584L-81.8869 181.511ZM-47.4733 136.632L-54.0516 142.45L-45.2697 150.099L-47.4733 136.632ZM-86.8002 213.831L-88.8406 215.633H-85.9841L-86.8002 213.831ZM-90.3587 227.596L-72.9499 244.103L-80.4994 227.596H-90.3587ZM-94.5171 215.633L-88.4326 210.26L-93.7376 198.705L-96.884 215.633H-94.5171ZM59.228 95.9448L76.5837 126.127L81.5215 124.901C84.8066 121.179 85.2432 90.1714 84.0027 86.4451C82.7621 82.7188 81.9337 78.9965 81.9337 78.9965C81.9337 78.9965 71.2133 78.1793 67.4916 79.4051C63.7699 80.6309 59.228 95.9448 59.228 95.9448ZM68.7322 52.9326L57.5752 55.8295L62.1213 68.6551C62.1213 68.6551 80.6972 70.314 79.8688 67.8379C79.0404 65.3619 78.6445 56.6671 77.4203 55.0083C76.196 53.3494 68.7322 52.9326 68.7322 52.9326ZM50.5358 21.0954C47.6792 23.1629 41.056 29.3939 43.9453 36.4052C46.8345 43.4166 57.563 46.7262 57.563 46.7262L67.4794 43.4166C67.4794 43.4166 64.5861 31.4409 56.7346 23.9923L50.5358 21.0954ZM-37.9691 277.248H-24.4657L-32.5457 227.858L-62.601 253.897L-37.9691 277.248ZM-53.6313 277.248H-43.4496L-61.4298 260.206L-53.6313 277.248ZM-75.5086 277.248H-57.7733L-66.796 257.533L-68.461 258.976L-75.5086 277.248ZM-89.563 277.248H-79.5486L-74.5251 264.23L-89.563 277.248ZM-108.074 277.248H-95.3332L-71.64 256.741L-69.8852 252.189L-95.8393 227.584H-99.0835C-102.744 247.421 -106.013 265.399 -108.074 277.248V277.248ZM-191 277.248H-183.593V147.194H-189.796V138.507H-164.397L-177.811 133.126V108.738L33.629 53.7498L45.6143 0C45.6143 0 69.1444 14.4722 84.4066 56.659C87.8998 66.3098 89.7974 76.3734 90.6422 86.155L92.6295 86.1141L96.4655 277.248H118V298H-191V277.248ZM-65.8901 108.909V107.524L-71.1952 108.909H-65.8901ZM-76.3778 134.242V137.053L-64.5434 146.691L-62.7601 145.114L-60.9523 141.437L-68.3794 134.977L-67.7224 134.221L-76.3778 134.242ZM-73.1825 173.323H-85.221L-78.7447 179.301L-72.7051 174.986L-73.1825 173.323ZM-46.5796 173.323H-63.8048L-68.2937 176.514L-64.4904 189.132L-46.5796 173.323ZM-39.5973 161.36H-33.7046V173.323H-37.6386L-30.7012 215.653H-27.918V227.617H-28.7342L-20.6501 277.248H92.6989L89.6056 123.046C87.6019 138.409 84.4148 148.853 84.4148 148.853L40.2399 79.8014L-45.0942 102.11V110.045H-40.0585V131.733H-44.4535L-40.8175 153.977L-38.9118 155.635L-40.3768 156.673L-39.5973 161.36ZM-46.5347 161.36H-43.4129L-43.7802 159.125L-46.7184 161.209L-46.5347 161.36ZM-66.5308 161.36H-53.4395L-62.5071 153.188L-66.5308 161.36ZM-75.3821 161.36H-70.734L-67.1348 154.066L-75.3821 161.36ZM-86.6982 161.36H-81.0708L-67.4 149.221L-76.3778 141.895V144.567H-83.5642L-86.6982 161.36ZM-96.3004 161.36H-90.5301L-87.3716 144.608H-89.3671V131.774H-90.522V114.029L-157.586 131.508L-160.745 138.52H-145.185V147.206H-180.28V277.248H-152.208V147.623H-148.49V277.248H-111.881C-109.841 265.472 -106.576 247.486 -102.903 227.584H-105.095V215.633H-100.691L-96.4351 192.752L-96.7575 192.049L-92.8276 173.287H-96.3208L-96.3004 161.36Z" fill="black"/>
<path opacity="0.1" d="M297.721 244.949L298.448 246.418L296.782 244.949H297.721ZM299.961 249.477L300.345 250.252L296.552 253.328L294.917 252.171L298.999 248.624L299.961 249.477ZM301.192 265.087L292.941 272.807H291.331L293.681 258.469L301.192 265.087ZM300.392 267.732L298.852 272.804H294.875L300.392 267.732ZM298.812 276.899L301.934 284.978L292.514 276.899H298.812ZM302.701 283.379L300.196 276.899H305.673L302.701 283.379ZM300.209 272.804L302.263 266.009L308.243 271.293L307.55 272.804H300.209ZM302.999 263.574L304.021 260.192L305.519 261.254L302.999 263.574ZM299.8 246.218L299.169 244.942H301.269L299.8 246.218ZM303.208 265.143L306.598 262.023L311.05 265.175L308.803 270.07L303.208 265.143ZM307.57 261.128L310.089 258.807L310.98 263.549L307.57 261.128ZM295.764 245.767L298.021 247.758L295.008 250.376L295.764 245.767ZM309.255 272.19L309.955 272.807H308.975L309.255 272.19ZM310.476 276.902L304.504 282.552L307.094 276.902H310.476ZM311.902 272.807L309.815 270.968L311.635 267.013L312.714 272.807H311.902ZM259.161 231.84L253.208 242.171L251.514 241.752C250.387 240.477 250.237 229.864 250.663 228.589C251.088 227.313 251.372 226.039 251.372 226.039C251.372 226.039 255.05 225.759 256.326 226.179C257.603 226.598 259.161 231.84 259.161 231.84ZM255.901 217.118L259.728 218.109L258.169 222.499C258.169 222.499 251.796 223.067 252.081 222.22C252.365 221.372 252.501 218.396 252.921 217.828C253.341 217.261 255.901 217.118 255.901 217.118ZM262.143 206.221C263.123 206.928 265.395 209.061 264.404 211.461C263.413 213.861 259.732 214.994 259.732 214.994L256.331 213.861C256.331 213.861 257.323 209.762 260.017 207.212L262.143 206.221ZM292.504 293.897H287.872L290.644 276.992L300.954 285.904L292.504 293.897ZM297.877 293.897H294.384L300.552 288.064L297.877 293.897ZM305.382 293.897H299.298L302.393 287.149L302.964 287.643L305.382 293.897ZM310.203 293.897H306.767L305.044 289.441L310.203 293.897ZM316.553 293.897H312.182L304.054 286.878L303.453 285.32L312.356 276.898H313.469C314.724 283.688 315.846 289.841 316.553 293.897V293.897ZM345 293.897H342.459V249.382H344.587V246.409H335.874L340.476 244.567V236.219L267.943 217.398L263.831 199C263.831 199 255.76 203.954 250.524 218.393C249.326 221.697 248.675 225.141 248.385 228.489L247.703 228.475L246.387 293.897H239V301H345V293.897ZM302.082 236.278V235.804L303.902 236.278H302.082ZM305.68 244.949V245.911L301.62 249.21L301.008 248.67L300.388 247.411L302.936 245.2L302.711 244.942L305.68 244.949ZM304.584 258.325H308.713L306.492 260.371L304.42 258.895L304.584 258.325ZM295.458 258.325H301.367L302.907 259.418L301.602 263.736L295.458 258.325ZM293.063 254.231H291.041V258.325H292.391L290.011 272.814H289.056V276.909H289.336L286.563 293.897H247.679L248.74 241.117C249.428 246.375 250.521 249.95 250.521 249.95L265.675 226.315L294.948 233.951V236.666H293.221V244.09H294.728L293.481 251.703L292.827 252.271L293.33 252.626L293.063 254.231ZM295.442 254.231H294.371L294.497 253.466L295.505 254.179L295.442 254.231ZM302.302 254.231H297.811L300.922 251.433L302.302 254.231ZM305.338 254.231H303.744L302.509 251.734L305.338 254.231ZM309.22 254.231H307.29L302.6 250.076L305.68 247.568V248.483H308.145L309.22 254.231ZM312.514 254.231H310.535L309.451 248.497H310.136V244.104H310.532V238.03L333.538 244.013L334.621 246.413H329.283V249.386H341.322V293.897H331.693V249.529H330.417V293.897H317.859C317.159 289.866 316.039 283.71 314.779 276.898H315.531V272.807H314.02L312.56 264.975L312.671 264.735L311.323 258.313H312.521L312.514 254.231Z" fill="black"/>
<circle opacity="0.2" cx="152" cy="178" r="100" fill="#4B0731"/>
<circle cx="152" cy="178" r="90" fill="#936A83"/>
<g clip-path="url(#clip1)">
<path d="M185.149 163.401C185.149 161.874 184.27 160.635 183.184 160.635C182.098 160.635 181.229 161.874 181.229 163.401C181.229 164.928 183.184 168.312 183.184 168.312C183.184 168.312 185.149 164.918 185.149 163.401Z" fill="#C9C9C9"/>
<path d="M185.149 153.371C185.149 151.844 184.27 150.616 183.184 150.616C182.098 150.616 181.229 151.844 181.229 153.371C181.229 154.898 183.184 158.293 183.184 158.293C183.184 158.293 185.149 154.846 185.149 153.371Z" fill="#C9C9C9"/>
<path d="M185.149 143.197C185.149 141.669 184.27 140.431 183.184 140.431C182.098 140.431 181.229 141.669 181.229 143.197C181.229 144.724 183.184 148.108 183.184 148.108C183.184 148.108 185.149 144.713 185.149 143.197Z" fill="#C9C9C9"/>
<path d="M175.395 156.467C175.871 157.911 178.778 160.532 178.778 160.532C178.778 160.532 179.585 156.704 179.119 155.259C178.654 153.815 177.423 152.907 176.399 153.196C175.375 153.485 174.92 154.981 175.395 156.467Z" fill="#C9C9C9"/>
<path d="M175.654 150.925C175.654 150.925 176.46 147.087 175.995 145.642C175.529 144.197 174.267 143.289 173.233 143.62C172.199 143.95 171.754 145.394 172.199 146.849C172.643 148.304 175.654 150.925 175.654 150.925Z" fill="#C9C9C9"/>
<path d="M191.035 156.466C191.501 155.012 191.035 153.567 190.001 153.237C188.966 152.906 187.756 153.804 187.28 155.3C186.804 156.797 187.622 160.573 187.622 160.573C187.622 160.573 190.559 157.88 191.035 156.466Z" fill="#C9C9C9"/>
<path d="M194.159 146.85C194.625 145.395 194.159 143.96 193.125 143.62C192.09 143.279 190.88 144.198 190.404 145.683C189.928 147.169 190.746 150.967 190.746 150.967C190.746 150.967 193.683 148.294 194.159 146.85Z" fill="#C9C9C9"/>
<path d="M204.959 212.446H194.615L191.729 192.087L191.636 191.457L190.322 182.171L190.177 181.201L188.988 172.749H189.784C190.063 172.747 190.33 172.639 190.532 172.448C190.734 172.256 190.855 171.995 190.87 171.718V169.726C190.868 169.44 190.752 169.166 190.549 168.963C190.346 168.76 190.071 168.645 189.784 168.643H177.082C176.942 168.642 176.803 168.671 176.674 168.726C176.545 168.781 176.428 168.861 176.331 168.963C176.235 169.064 176.16 169.184 176.111 169.315C176.062 169.447 176.04 169.586 176.047 169.726V171.614C176.047 171.888 176.156 172.151 176.35 172.344C176.544 172.538 176.807 172.646 177.082 172.646H177.878L172.251 212.394H161.411C160.914 212.394 160.438 212.591 160.087 212.941C159.736 213.292 159.538 213.767 159.538 214.262V218.493C159.527 218.745 159.567 218.997 159.656 219.233C159.746 219.469 159.882 219.685 160.057 219.867C160.232 220.049 160.442 220.194 160.675 220.293C160.907 220.392 161.158 220.443 161.411 220.443H204.959C205.455 220.443 205.932 220.246 206.283 219.896C206.634 219.546 206.831 219.071 206.831 218.575V214.345C206.835 214.097 206.79 213.85 206.698 213.62C206.605 213.39 206.468 213.181 206.294 213.004C206.12 212.827 205.912 212.687 205.683 212.591C205.453 212.495 205.207 212.446 204.959 212.446ZM176.823 198.918L182.295 196.483V202.292L176.699 199.805L176.823 198.928V198.918ZM177.858 191.819L182.326 189.827V194.182L177.806 192.118L177.858 191.819ZM178.406 187.423L179.026 187.144L181.995 188.475L178.002 190.26L178.406 187.423ZM190.084 199.805L184.467 202.303V196.607L189.981 199.062L190.084 199.805ZM184.467 189.61L188.957 191.55L189.029 192.015L184.509 194.078L184.467 189.61ZM188.367 187.423L188.739 190.095L185.254 188.548L188.067 187.289L188.367 187.423ZM184.509 187.423V185.658L186.453 186.525L184.509 187.423ZM182.295 187.196L180.682 186.484L182.295 185.761V187.196ZM176.503 201.147L181.799 203.51L175.789 206.193L176.503 201.147ZM190.312 201.147L191.026 206.193L185.016 203.51L190.312 201.147ZM189.784 197.525L184.85 195.337L189.195 193.397L189.784 197.525ZM188.119 185.782H188.046L185.078 184.461L187.767 183.264L188.119 185.782ZM184.509 183.295V182.325H186.681L184.509 183.295ZM182.295 183.213L180.288 182.325H182.295V183.213ZM181.881 184.472L179.068 185.72L178.706 185.565L179.047 183.202L181.881 184.472ZM181.654 195.317L177.04 197.38L177.589 193.511L181.654 195.317ZM182.295 204.707V207.483H176.089L182.295 204.707ZM184.509 204.707L190.715 207.483H184.509V204.707ZM187.467 180.974H184.509V172.698H186.288L187.467 180.974ZM182.295 172.636V180.974H179.358L180.537 172.636H182.295ZM175.416 208.752H182.295V212.384H174.91L175.416 208.752ZM184.509 212.384V208.814H191.398L191.915 212.446L184.509 212.384Z" fill="#C9C9C9"/>
<path d="M129.096 152.009C129.096 150.481 128.227 149.253 127.141 149.253C126.055 149.253 125.186 150.481 125.186 152.009C125.186 153.536 127.141 156.931 127.141 156.931C127.141 156.931 129.096 153.525 129.096 152.009Z" fill="#C9C9C9"/>
<path d="M129.096 141.927C129.096 140.411 128.227 139.172 127.141 139.172C126.055 139.172 125.186 140.411 125.186 141.927C125.186 143.444 127.141 146.85 127.141 146.85C127.141 146.85 129.096 143.455 129.096 141.927Z" fill="#C9C9C9"/>
<path d="M129.096 131.804C129.096 130.277 128.227 129.049 127.141 129.049C126.055 129.049 125.186 130.277 125.186 131.804C125.186 133.332 127.141 136.727 127.141 136.727C127.141 136.727 129.096 133.332 129.096 131.804Z" fill="#C9C9C9"/>
<path d="M119.352 145.044C119.817 146.488 122.734 149.171 122.734 149.171C122.734 149.171 123.541 145.332 123.065 143.888C122.589 142.443 121.379 141.535 120.355 141.824C119.331 142.113 118.876 143.599 119.352 145.044Z" fill="#C9C9C9"/>
<path d="M119.611 139.534C119.611 139.534 120.417 135.705 119.942 134.25C119.466 132.795 118.256 131.898 117.232 132.238C116.207 132.579 115.752 134.013 116.197 135.458C116.642 136.902 119.611 139.534 119.611 139.534Z" fill="#C9C9C9"/>
<path d="M134.96 145.043C135.426 143.599 134.96 142.154 133.926 141.814C132.892 141.473 131.681 142.391 131.216 143.877C130.75 145.363 131.547 149.161 131.547 149.161C131.547 149.161 134.516 146.488 134.96 145.043Z" fill="#C9C9C9"/>
<path d="M138.064 135.457C138.54 134.013 138.064 132.568 137.029 132.238C135.995 131.908 134.785 132.805 134.319 134.25C133.854 135.695 134.65 139.533 134.65 139.533C134.65 139.533 137.64 136.861 138.064 135.457Z" fill="#C9C9C9"/>
<path d="M148.915 201.054H138.571L135.633 180.706L135.54 180.076L134.216 170.789L134.082 169.809L132.892 161.316H133.699C133.839 161.317 133.978 161.288 134.107 161.233C134.236 161.178 134.353 161.098 134.449 160.996C134.546 160.895 134.621 160.775 134.67 160.644C134.719 160.513 134.74 160.373 134.733 160.233V158.334C134.74 158.195 134.719 158.055 134.67 157.924C134.621 157.792 134.546 157.672 134.449 157.571C134.353 157.47 134.236 157.389 134.107 157.334C133.978 157.279 133.839 157.251 133.699 157.251H121.028C120.883 157.243 120.739 157.266 120.603 157.318C120.468 157.37 120.346 157.45 120.243 157.552C120.141 157.654 120.061 157.776 120.009 157.911C119.957 158.046 119.934 158.19 119.942 158.334V160.233C119.934 160.377 119.957 160.521 120.009 160.656C120.061 160.791 120.141 160.913 120.243 161.016C120.346 161.118 120.468 161.197 120.603 161.249C120.739 161.301 120.883 161.324 121.028 161.316H121.835L116.207 201.054H105.367C104.874 201.054 104.401 201.248 104.05 201.594C103.7 201.94 103.5 202.41 103.495 202.901V207.132C103.495 207.627 103.692 208.102 104.043 208.453C104.394 208.803 104.87 209 105.367 209H148.915C149.412 209 149.888 208.803 150.239 208.453C150.59 208.102 150.787 207.627 150.787 207.132V202.901C150.782 202.41 150.582 201.94 150.232 201.594C149.881 201.248 149.408 201.054 148.915 201.054V201.054ZM120.779 187.537L126.241 185.101V190.911L120.645 188.455L120.769 187.578L120.779 187.537ZM121.814 180.437L126.272 178.435V182.79L121.762 180.726L121.814 180.437ZM122.393 176.072L123.014 175.794L125.993 177.104L122 178.889L122.393 176.072ZM134.071 188.455L128.465 190.952V185.215L133.927 187.671L134.071 188.455ZM128.465 178.26L132.892 180.2L132.954 180.654L128.444 182.718L128.465 178.26ZM132.313 176.031L132.696 178.704L129.21 177.104L132.023 175.845L132.313 176.031ZM128.465 176.031V174.277L130.41 175.144L128.465 176.031ZM126.241 175.814L124.617 175.04L126.22 174.328L126.241 175.814ZM120.479 189.765L125.776 192.128L119.766 194.801L120.479 189.765ZM134.289 189.765L134.961 194.801L128.951 192.128L134.289 189.765ZM133.771 186.144L128.848 183.946L133.192 182.006L133.771 186.144ZM132.085 174.39H132.013L129.055 173.07L131.734 171.945L132.085 174.39ZM128.465 171.945V170.913H130.648L128.465 171.945ZM126.241 171.873L124.245 170.913H126.241V171.873ZM125.838 173.121L123.024 174.38L122.662 174.215L122.993 171.852L125.838 173.121ZM125.651 183.946L121.028 186.009L121.514 182.13L125.651 183.946ZM126.282 193.336V196.111H120.076L126.282 193.336ZM128.506 193.336L134.713 196.111H128.506V193.336ZM131.454 169.602H128.465V161.316H130.234L131.454 169.602ZM126.282 161.275V169.602H123.303L124.483 161.275H126.282ZM119.414 197.391H126.282V201.023H118.855L119.414 197.391ZM128.506 201.023V197.422H135.395L135.913 201.054L128.506 201.023Z" fill="#C9C9C9"/>
<path d="M118.028 172.037C118.028 172.104 118.053 172.168 118.1 172.216C118.146 172.264 118.209 172.293 118.276 172.295C118.344 172.295 118.41 172.268 118.459 172.22C118.507 172.171 118.534 172.106 118.534 172.037V148.49C118.532 148.423 118.503 148.36 118.455 148.314C118.407 148.268 118.343 148.242 118.276 148.242C118.21 148.242 118.147 148.268 118.1 148.315C118.054 148.361 118.028 148.424 118.028 148.49V172.037Z" fill="#514260"/>
<path d="M116.559 172.037C116.559 172.104 116.585 172.168 116.631 172.216C116.677 172.264 116.74 172.293 116.807 172.295C116.876 172.295 116.941 172.268 116.99 172.22C117.038 172.171 117.066 172.106 117.066 172.037V148.49C117.063 148.423 117.035 148.36 116.986 148.314C116.938 148.268 116.874 148.242 116.807 148.242C116.741 148.242 116.678 148.268 116.632 148.315C116.585 148.361 116.559 148.424 116.559 148.49V172.037Z" fill="#514260"/>
<path d="M115.703 148.235L115.287 149.445C115.22 149.64 115.324 149.851 115.519 149.917L119.452 151.263C119.646 151.33 119.858 151.226 119.925 151.032L120.341 149.822C120.408 149.628 120.304 149.417 120.11 149.35L116.176 148.004C115.982 147.938 115.77 148.041 115.703 148.235Z" fill="#2C3A48"/>
<path d="M77.6138 171.945C77.6138 172.011 77.6399 172.074 77.6865 172.12C77.733 172.166 77.7962 172.192 77.862 172.192C77.9289 172.193 77.9931 172.167 78.0413 172.121C78.0895 172.074 78.118 172.011 78.1206 171.945V145.57C78.1206 145.502 78.0934 145.436 78.0449 145.388C77.9964 145.339 77.9306 145.312 77.862 145.312C77.7952 145.315 77.7321 145.343 77.6858 145.391C77.6395 145.439 77.6137 145.503 77.6138 145.57V171.945Z" fill="#514260"/>
<path d="M78.4308 168.023H77.3033C77.0634 168.023 76.8689 168.217 76.8689 168.457V173.028C76.8689 173.267 77.0634 173.461 77.3033 173.461H78.4308C78.6708 173.461 78.8653 173.267 78.8653 173.028V168.457C78.8653 168.217 78.6708 168.023 78.4308 168.023Z" fill="#2C3A48"/>
<path d="M76.3931 154.403C76.3952 154.695 76.4839 154.979 76.6481 155.221C76.8124 155.462 77.0447 155.65 77.3158 155.76C77.5868 155.87 77.8845 155.897 78.171 155.838C78.4575 155.779 78.7201 155.636 78.9255 155.429C79.1309 155.221 79.2699 154.957 79.325 154.67C79.3801 154.384 79.3487 154.087 79.2349 153.818C79.121 153.55 78.9298 153.32 78.6855 153.16C78.4411 153 78.1545 152.915 77.8619 152.917C77.6677 152.918 77.4756 152.958 77.2967 153.033C77.1177 153.109 76.9554 153.219 76.819 153.357C76.6826 153.494 76.5748 153.658 76.5017 153.837C76.4287 154.017 76.3917 154.209 76.3931 154.403V154.403Z" fill="#2C3A48"/>
<path d="M78.3688 145.343C78.4009 145.251 78.411 145.152 78.3984 145.056C78.3859 144.959 78.351 144.866 78.2964 144.785C77.0345 142.846 77.0345 139.048 78.193 135.333C79.3515 131.619 81.6893 128.606 83.8615 127.77C83.9448 127.742 84.0217 127.698 84.0877 127.64C84.1537 127.582 84.2075 127.512 84.2461 127.433C84.2846 127.354 84.307 127.269 84.312 127.181C84.317 127.094 84.3045 127.006 84.2753 126.924C84.2456 126.84 84.1991 126.763 84.1386 126.698C84.0781 126.633 84.0049 126.581 83.9235 126.545C83.8421 126.51 83.7543 126.491 83.6653 126.49C83.5764 126.49 83.4883 126.507 83.4064 126.542C80.8411 127.502 78.3068 130.793 76.9517 134.931C75.5967 139.069 75.6898 143.186 77.2 145.497C77.2669 145.601 77.362 145.684 77.4742 145.736C77.5864 145.787 77.7111 145.806 77.8336 145.79C77.9562 145.774 78.0716 145.723 78.1663 145.644C78.2611 145.565 78.3314 145.46 78.3688 145.343V145.343Z" fill="#F19B2C"/>
<path d="M82.2066 136.634V136.582L84.0582 127.233C84.0769 127.127 84.0541 127.017 83.9945 126.927C83.9349 126.837 83.8429 126.773 83.7375 126.748C83.6838 126.738 83.6286 126.738 83.575 126.749C83.5215 126.76 83.4706 126.782 83.4254 126.812C83.3802 126.843 83.3415 126.882 83.3116 126.928C83.2818 126.974 83.2613 127.025 83.2514 127.079L81.4101 136.365L77.376 144.971C77.3476 145.067 77.3547 145.169 77.3959 145.259C77.4371 145.35 77.5097 145.423 77.6003 145.464C77.6908 145.505 77.7933 145.513 77.889 145.485C77.9846 145.457 78.0669 145.396 78.1207 145.312L82.2066 136.675C82.2066 136.675 82.2066 136.644 82.2066 136.634Z" fill="#F19B2C"/>
<path d="M81.0326 133.78L79.5631 138.273C79.5064 138.446 79.6013 138.633 79.7751 138.689L81.2207 139.16C81.3945 139.216 81.5814 139.122 81.6381 138.948L83.1075 134.455C83.1642 134.282 83.0693 134.096 82.8955 134.039L81.45 133.569C81.2762 133.512 81.0893 133.607 81.0326 133.78Z" fill="#F19B2C"/>
<path d="M81.6271 135.282C81.803 135.334 82.1443 134.777 82.196 134.601L82.3305 134.199C82.3569 134.117 82.35 134.027 82.3113 133.95C82.2727 133.873 82.2053 133.814 82.1236 133.786L78.7204 132.672C78.6368 132.648 78.5474 132.658 78.4706 132.698C78.3937 132.738 78.3351 132.806 78.3067 132.888L78.1722 133.301C78.1595 133.342 78.1551 133.384 78.1592 133.427C78.1633 133.469 78.1758 133.51 78.196 133.548C78.2163 133.585 78.2438 133.618 78.277 133.645C78.3102 133.672 78.3484 133.692 78.3894 133.703L81.6271 135.282Z" fill="#F19B2C"/>
<path d="M80.4476 138.924C80.5313 138.95 80.6218 138.942 80.6994 138.901C80.7769 138.861 80.8352 138.791 80.8614 138.708L80.9958 138.295C80.9958 138.13 81.1096 137.48 80.9338 137.418L77.3858 136.757C77.3021 136.734 77.2128 136.744 77.1359 136.784C77.059 136.824 77.0004 136.892 76.972 136.974L76.8376 137.377C76.8112 137.459 76.8181 137.548 76.8567 137.625C76.8954 137.702 76.9628 137.761 77.0444 137.789L80.4476 138.924Z" fill="#F19B2C"/>
<path d="M81.1719 137.17C81.1541 137.224 81.1473 137.282 81.1517 137.338C81.1561 137.395 81.1718 137.451 81.1977 137.501C81.2237 137.552 81.2594 137.598 81.3029 137.635C81.3464 137.672 81.3968 137.7 81.4511 137.717L121.11 150.626C121.164 150.644 121.222 150.65 121.279 150.646C121.336 150.642 121.391 150.626 121.442 150.6C121.493 150.574 121.538 150.539 121.575 150.495C121.612 150.452 121.641 150.402 121.658 150.347L122.175 148.789C122.209 148.678 122.199 148.559 122.147 148.455C122.095 148.352 122.005 148.272 121.896 148.232L82.2063 135.323C82.1519 135.305 82.0946 135.299 82.0376 135.303C81.9807 135.307 81.9251 135.323 81.8742 135.349C81.8233 135.375 81.7779 135.411 81.7409 135.454C81.7038 135.497 81.6756 135.548 81.658 135.602L81.1719 137.17Z" fill="#4D5A68"/>
<path d="M95.1362 143.568C95.1362 144.013 95.2685 144.448 95.5163 144.818C95.764 145.188 96.1162 145.476 96.5283 145.646C96.9403 145.816 97.3937 145.861 97.8311 145.774C98.2686 145.687 98.6704 145.473 98.9857 145.158C99.3011 144.844 99.5159 144.443 99.6029 144.007C99.6899 143.57 99.6452 143.118 99.4746 142.707C99.3039 142.296 99.0149 141.945 98.644 141.697C98.2732 141.45 97.8372 141.318 97.3912 141.318C96.7932 141.318 96.2196 141.555 95.7967 141.977C95.3738 142.399 95.1362 142.971 95.1362 143.568Z" fill="#2C3A48"/>
<path d="M92.3953 168.581H102.646C102.75 168.581 102.85 168.539 102.924 168.466C102.998 168.392 103.039 168.292 103.039 168.189C103.039 168.085 102.998 167.985 102.924 167.911C102.85 167.838 102.75 167.796 102.646 167.796H92.3953C92.291 167.796 92.191 167.838 92.1173 167.911C92.0436 167.985 92.0022 168.085 92.0022 168.189C92.0022 168.292 92.0436 168.392 92.1173 168.466C92.191 168.539 92.291 168.581 92.3953 168.581V168.581Z" fill="#3C4A58"/>
<path d="M94.3812 152.782H100.66C100.716 152.792 100.774 152.789 100.829 152.773C100.884 152.758 100.935 152.731 100.978 152.694C101.021 152.658 101.056 152.612 101.08 152.56C101.104 152.509 101.117 152.452 101.117 152.396C101.117 152.339 101.104 152.282 101.08 152.231C101.056 152.179 101.021 152.133 100.978 152.097C100.935 152.06 100.884 152.033 100.829 152.018C100.774 152.003 100.716 151.999 100.66 152.009H94.3812C94.3249 151.999 94.2674 152.003 94.2124 152.018C94.1575 152.033 94.1066 152.06 94.0631 152.097C94.0197 152.133 93.9848 152.179 93.9609 152.231C93.937 152.282 93.9246 152.339 93.9246 152.396C93.9246 152.452 93.937 152.509 93.9609 152.56C93.9848 152.612 94.0197 152.658 94.0631 152.694C94.1066 152.731 94.1575 152.758 94.2124 152.773C94.2674 152.789 94.3249 152.792 94.3812 152.782V152.782Z" fill="#3C4A58"/>
<path d="M102.45 168.013C102.526 168.012 102.601 167.989 102.665 167.947C102.729 167.905 102.78 167.846 102.812 167.776C102.851 167.681 102.853 167.575 102.816 167.479C102.78 167.383 102.708 167.305 102.615 167.26L92.747 162.864C92.6994 162.837 92.6466 162.82 92.5921 162.815C92.5376 162.809 92.4825 162.815 92.4303 162.832C92.3782 162.849 92.3302 162.876 92.2894 162.913C92.2486 162.949 92.2159 162.994 92.1935 163.044C92.171 163.094 92.1592 163.148 92.1589 163.203C92.1586 163.257 92.1698 163.311 92.1918 163.361C92.2137 163.412 92.2459 163.457 92.2863 163.494C92.3267 163.531 92.3744 163.559 92.4263 163.576L102.295 167.972C102.343 167.995 102.396 168.009 102.45 168.013V168.013Z" fill="#3C4A58"/>
<path d="M92.5503 158.603C92.5905 158.698 92.6641 158.775 92.7572 158.819L94.0191 159.377L101.446 162.658L101.932 162.875C101.984 162.884 102.036 162.884 102.087 162.875C102.175 162.872 102.26 162.841 102.327 162.785C102.395 162.73 102.442 162.653 102.461 162.568C102.48 162.482 102.47 162.393 102.432 162.314C102.395 162.235 102.331 162.171 102.253 162.132L101.322 161.709L94.164 158.53L93.1296 158.066C93.0483 158.028 92.9561 158.019 92.8691 158.042C92.7821 158.064 92.7058 158.117 92.6537 158.19L92.5503 158.603Z" fill="#3C4A58"/>
<path d="M101.436 158.665C101.51 158.665 101.583 158.644 101.646 158.603C101.708 158.563 101.757 158.505 101.787 158.437C101.81 158.39 101.823 158.339 101.825 158.287C101.827 158.234 101.819 158.182 101.8 158.133C101.782 158.084 101.754 158.039 101.718 158.001C101.682 157.963 101.639 157.932 101.591 157.911L93.7605 154.403C93.6658 154.361 93.5583 154.358 93.4615 154.395C93.3646 154.431 93.2862 154.505 93.2433 154.599C93.204 154.694 93.2024 154.8 93.239 154.896C93.2755 154.992 93.3473 155.07 93.4399 155.115L101.27 158.613C101.321 158.641 101.378 158.659 101.436 158.665V158.665Z" fill="#3C4A58"/>
<path d="M93.4297 152.648C93.4627 152.696 93.5097 152.732 93.5642 152.752L94.9089 153.35L100.484 155.837L101.157 156.136C101.208 156.146 101.261 156.146 101.312 156.136C101.388 156.139 101.463 156.118 101.528 156.078C101.592 156.037 101.643 155.979 101.674 155.909C101.716 155.815 101.719 155.707 101.682 155.611C101.645 155.514 101.572 155.436 101.477 155.393L100.35 154.888L95.0227 152.514L93.8848 152.009C93.8266 151.975 93.7606 151.958 93.6935 151.958C93.6263 151.958 93.5603 151.975 93.5021 152.009L93.4297 152.648Z" fill="#3C4A58"/>
<path d="M92.5504 168.013C92.6051 168.024 92.6613 168.024 92.7159 168.013L102.584 163.617C102.677 163.572 102.748 163.494 102.785 163.398C102.822 163.302 102.82 163.196 102.781 163.101C102.738 163.007 102.659 162.934 102.562 162.897C102.466 162.86 102.358 162.863 102.263 162.905L92.3953 167.301C92.3116 167.336 92.2427 167.4 92.2004 167.48C92.1581 167.56 92.145 167.652 92.1633 167.741C92.1816 167.83 92.2302 167.91 92.3008 167.967C92.3713 168.024 92.4596 168.055 92.5504 168.054V168.013Z" fill="#3C4A58"/>
<path d="M93.1192 162.926C93.1705 162.936 93.2231 162.936 93.2744 162.926L102.077 159.005C102.173 158.962 102.248 158.884 102.286 158.786C102.324 158.688 102.321 158.579 102.279 158.484C102.236 158.388 102.157 158.313 102.059 158.275C101.961 158.237 101.852 158.24 101.756 158.282L92.9537 162.214C92.8594 162.257 92.7858 162.335 92.749 162.431C92.7122 162.528 92.7151 162.635 92.7572 162.73C92.7925 162.793 92.8453 162.846 92.9095 162.881C92.9736 162.915 93.0464 162.931 93.1192 162.926V162.926Z" fill="#3C4A58"/>
<path d="M93.7193 158.53C93.774 158.54 93.8301 158.54 93.8848 158.53L101.477 155.146C101.57 155.101 101.642 155.023 101.678 154.927C101.715 154.831 101.713 154.725 101.674 154.63C101.631 154.536 101.553 154.462 101.457 154.423C101.36 154.385 101.253 154.385 101.157 154.423L93.5848 157.736C93.5372 157.756 93.4941 157.785 93.4583 157.823C93.4224 157.86 93.3944 157.904 93.376 157.952C93.3577 158 93.3493 158.052 93.3514 158.103C93.3535 158.155 93.3661 158.205 93.3883 158.252C93.4088 158.326 93.4514 158.393 93.5105 158.442C93.5696 158.492 93.6424 158.523 93.7193 158.53V158.53Z" fill="#3C4A58"/>
<path d="M93.9779 156.013C94.0322 156.027 94.0891 156.027 94.1434 156.013L101.219 152.865C101.311 152.821 101.383 152.742 101.42 152.646C101.456 152.55 101.455 152.444 101.415 152.349C101.372 152.255 101.294 152.182 101.197 152.145C101.1 152.108 100.993 152.111 100.898 152.153L93.8227 155.311C93.7448 155.349 93.6819 155.413 93.6438 155.491C93.6058 155.569 93.5948 155.657 93.6125 155.742C93.6303 155.827 93.6758 155.904 93.7419 155.96C93.808 156.017 93.891 156.05 93.9779 156.054V156.013Z" fill="#3C4A58"/>
<path d="M103.66 173.472H103.774C103.979 173.441 104.164 173.331 104.288 173.165C104.412 172.998 104.465 172.79 104.436 172.585L100.598 145.508C100.554 145.316 100.44 145.148 100.278 145.036C100.116 144.925 99.9175 144.878 99.7223 144.905C99.5271 144.932 99.3494 145.032 99.2242 145.184C99.099 145.335 99.0355 145.529 99.0464 145.725L102.894 172.801C102.921 172.986 103.013 173.154 103.153 173.277C103.294 173.4 103.473 173.469 103.66 173.472V173.472Z" fill="#3C4A58"/>
<path d="M91.2677 173.462H91.3815C91.5709 173.459 91.753 173.388 91.8951 173.264C92.0373 173.139 92.1303 172.968 92.1573 172.781L94.0502 159.366L94.164 158.561L94.9088 153.371L95.0226 152.566L95.9846 145.745C95.9954 145.549 95.9319 145.356 95.8067 145.204C95.6816 145.052 95.5038 144.953 95.3086 144.926C95.1134 144.898 94.9151 144.945 94.753 145.057C94.5908 145.169 94.4766 145.337 94.433 145.529L93.502 152.091L93.4296 152.669L92.6331 158.252V158.623L90.6057 172.574C90.5761 172.779 90.6291 172.988 90.7531 173.154C90.8772 173.32 91.0622 173.431 91.2677 173.462V173.462Z" fill="#3C4A58"/>
<path d="M97.5258 173.472C97.8878 173.472 98.1878 173.297 98.1878 173.08V146.014C98.1878 145.797 97.8878 145.622 97.5258 145.622C97.1637 145.622 96.8638 145.797 96.8638 146.014V173.08C96.8638 173.297 97.1534 173.472 97.5258 173.472Z" fill="#3C4A58"/>
<path d="M101.291 144.61H93.7398C93.3799 144.61 93.0881 144.901 93.0881 145.26V146.385C93.0881 146.744 93.3799 147.035 93.7398 147.035H101.291C101.651 147.035 101.943 146.744 101.943 146.385V145.26C101.943 144.901 101.651 144.61 101.291 144.61Z" fill="#FFAC42"/>
<path d="M122.248 164.567H113.818C113.458 164.567 113.166 164.858 113.166 165.217V170.387C113.166 170.746 113.458 171.037 113.818 171.037H122.248C122.608 171.037 122.9 170.746 122.9 170.387V165.217C122.9 164.858 122.608 164.567 122.248 164.567Z" fill="#2C3A48"/>
<path d="M123.831 170.748H77.5102C76.8932 170.748 76.3931 171.247 76.3931 171.862V174.39C76.3931 175.006 76.8932 175.505 77.5102 175.505H123.831C124.448 175.505 124.948 175.006 124.948 174.39V171.862C124.948 171.247 124.448 170.748 123.831 170.748Z" fill="#514260"/>
<path d="M81.7018 135.021L80.8784 137.478C80.8041 137.699 80.924 137.939 81.1461 138.013L82.1958 138.363C82.4179 138.437 82.6582 138.318 82.7325 138.096L83.5559 135.64C83.6302 135.418 83.5103 135.179 83.2882 135.104L82.2385 134.754C82.0164 134.68 81.7761 134.8 81.7018 135.021Z" fill="#5C6A78"/>
<path d="M150.994 147.469C150.994 144.92 152.452 142.846 154.263 142.846C156.073 142.846 157.542 144.909 157.542 147.469C157.542 150.028 154.263 155.724 154.263 155.724C154.263 155.724 150.994 150.017 150.994 147.469Z" fill="white"/>
<path d="M150.994 130.587C150.994 128.038 152.452 125.964 154.263 125.964C156.073 125.964 157.542 128.028 157.542 130.587C157.542 133.146 154.263 138.842 154.263 138.842C154.263 138.842 150.994 133.136 150.994 130.587Z" fill="white"/>
<path d="M150.994 113.623C150.994 111.064 152.452 109 154.263 109C156.073 109 157.542 111.064 157.542 113.623C157.542 116.182 154.263 121.878 154.263 121.878C154.263 121.878 150.994 116.223 150.994 113.623Z" fill="white"/>
<path d="M141.167 135.829C140.371 133.404 141.167 130.979 142.853 130.422C144.539 129.865 146.608 131.382 147.394 133.817C148.18 136.252 146.836 142.66 146.836 142.66C146.836 142.66 141.995 138.223 141.167 135.829Z" fill="white"/>
<path d="M135.995 119.742C135.209 117.317 135.995 114.902 137.681 114.335C139.367 113.767 141.436 115.294 142.232 117.719C143.029 120.144 141.643 126.542 141.643 126.542C141.643 126.542 136.76 122.167 135.995 119.742Z" fill="white"/>
<path d="M167.41 135.829C168.196 133.404 167.41 130.979 165.724 130.422C164.038 129.865 161.969 131.382 161.172 133.817C160.376 136.252 161.741 142.66 161.741 142.66C161.741 142.66 166.624 138.223 167.41 135.829Z" fill="white"/>
<path d="M172.644 119.742C173.43 117.317 172.644 114.902 170.958 114.335C169.272 113.767 167.203 115.294 166.407 117.719C165.61 120.144 167.027 126.542 167.027 126.542C167.027 126.542 171.847 122.167 172.644 119.742Z" fill="white"/>
<path d="M169.023 223.539H140.246C139.956 223.539 139.677 223.423 139.471 223.218C139.265 223.013 139.15 222.735 139.15 222.445C139.15 222.155 139.265 221.877 139.471 221.671C139.677 221.466 139.956 221.351 140.246 221.351H169.023C169.314 221.351 169.593 221.466 169.799 221.671C170.004 221.877 170.12 222.155 170.12 222.445C170.12 222.735 170.004 223.013 169.799 223.218C169.593 223.423 169.314 223.539 169.023 223.539V223.539Z" fill="#3C4A58"/>
<path d="M163.448 179.219H145.863C145.573 179.219 145.294 179.104 145.088 178.899C144.882 178.694 144.767 178.416 144.767 178.126C144.767 177.835 144.882 177.557 145.088 177.352C145.294 177.147 145.573 177.032 145.863 177.032H163.448C163.739 177.032 164.018 177.147 164.223 177.352C164.429 177.557 164.545 177.835 164.545 178.126C164.545 178.416 164.429 178.694 164.223 178.899C164.018 179.104 163.739 179.219 163.448 179.219V179.219Z" fill="#3C4A58"/>
<path d="M140.784 221.96C140.567 221.965 140.353 221.906 140.169 221.79C139.985 221.675 139.839 221.507 139.75 221.31C139.69 221.179 139.657 221.037 139.653 220.893C139.648 220.748 139.673 220.605 139.725 220.47C139.777 220.336 139.855 220.213 139.956 220.109C140.056 220.005 140.176 219.922 140.309 219.865L168.061 207.514C168.328 207.394 168.63 207.386 168.903 207.489C169.175 207.593 169.395 207.8 169.515 208.066C169.634 208.331 169.643 208.633 169.539 208.905C169.435 209.177 169.228 209.396 168.961 209.515L141.26 221.898C141.108 221.953 140.946 221.974 140.784 221.96V221.96Z" fill="#3C4A58"/>
<path d="M168.496 195.554C168.389 195.822 168.181 196.037 167.917 196.153L164.369 197.742L143.598 207.029L142.253 207.627C142.11 207.692 141.955 207.724 141.798 207.72C141.557 207.709 141.326 207.619 141.141 207.464C140.957 207.309 140.828 207.097 140.777 206.862C140.725 206.627 140.752 206.381 140.854 206.163C140.957 205.945 141.129 205.767 141.343 205.656L143.96 204.49L164.038 195.544L167.027 194.151C167.254 194.051 167.508 194.031 167.748 194.093C167.988 194.154 168.2 194.295 168.351 194.491L168.496 195.554Z" fill="#3C4A58"/>
<path d="M143.65 195.678C143.412 195.659 143.187 195.563 143.008 195.405C142.83 195.247 142.708 195.035 142.661 194.802C142.614 194.568 142.645 194.326 142.749 194.112C142.853 193.897 143.024 193.723 143.236 193.614L165.165 183.811C165.426 183.722 165.71 183.733 165.963 183.842C166.215 183.951 166.418 184.149 166.532 184.399C166.646 184.65 166.662 184.933 166.578 185.194C166.493 185.456 166.314 185.676 166.075 185.813L144.095 195.678C143.948 195.707 143.797 195.707 143.65 195.678V195.678Z" fill="#3C4A58"/>
<path d="M166.127 178.848C166.023 178.969 165.892 179.064 165.744 179.126L161.969 180.808L146.339 187.794L144.446 188.63C144.303 188.695 144.148 188.727 143.991 188.723C143.773 188.731 143.558 188.673 143.373 188.557C143.189 188.441 143.044 188.272 142.957 188.073C142.844 187.807 142.839 187.507 142.943 187.238C143.047 186.968 143.252 186.75 143.515 186.628L146.618 185.225L161.638 178.549L164.844 177.104C165.01 177.027 165.192 176.995 165.374 177.011C165.556 177.028 165.73 177.092 165.879 177.197L166.127 178.848Z" fill="#3C4A58"/>
<path d="M168.475 221.96C168.322 221.959 168.171 221.927 168.03 221.867L140.34 209.484C140.208 209.426 140.089 209.343 139.989 209.238C139.89 209.134 139.812 209.012 139.76 208.878C139.708 208.743 139.684 208.6 139.687 208.457C139.691 208.313 139.723 208.171 139.781 208.04C139.839 207.908 139.923 207.79 140.028 207.691C140.132 207.591 140.255 207.514 140.389 207.462C140.524 207.41 140.667 207.385 140.811 207.389C140.955 207.393 141.097 207.424 141.229 207.483L168.93 219.865C169.067 219.917 169.191 219.997 169.295 220.101C169.398 220.204 169.478 220.328 169.53 220.464C169.582 220.601 169.604 220.747 169.595 220.893C169.586 221.038 169.547 221.181 169.479 221.31C169.392 221.503 169.252 221.668 169.074 221.783C168.895 221.899 168.688 221.96 168.475 221.96V221.96Z" fill="#3C4A58"/>
<path d="M167.027 207.7C166.873 207.701 166.72 207.665 166.582 207.596L141.829 196.586C141.697 196.527 141.579 196.443 141.479 196.338C141.38 196.233 141.303 196.11 141.251 195.976C141.2 195.841 141.176 195.698 141.18 195.554C141.184 195.41 141.217 195.268 141.276 195.136C141.335 195.005 141.419 194.886 141.524 194.788C141.629 194.689 141.753 194.611 141.888 194.56C142.023 194.509 142.166 194.485 142.311 194.489C142.455 194.493 142.597 194.525 142.729 194.584L167.43 205.594C167.637 205.71 167.801 205.888 167.899 206.103C167.996 206.319 168.022 206.559 167.972 206.79C167.923 207.021 167.8 207.23 167.622 207.386C167.445 207.543 167.222 207.638 166.986 207.658L167.027 207.7Z" fill="#3C4A58"/>
<path d="M165.289 195.203C165.136 195.202 164.985 195.171 164.844 195.11L143.525 185.607C143.394 185.548 143.275 185.463 143.176 185.359C143.077 185.254 142.999 185.131 142.948 184.996C142.896 184.861 142.872 184.718 142.876 184.574C142.88 184.43 142.913 184.288 142.972 184.157C143.031 184.025 143.116 183.907 143.221 183.808C143.326 183.709 143.449 183.632 143.584 183.581C143.719 183.529 143.863 183.505 144.007 183.509C144.151 183.513 144.294 183.546 144.425 183.605L165.744 193.108C165.959 193.219 166.13 193.398 166.233 193.616C166.335 193.834 166.362 194.079 166.311 194.315C166.259 194.55 166.13 194.761 165.946 194.916C165.761 195.071 165.53 195.161 165.289 195.172V195.203Z" fill="#3C4A58"/>
<path d="M164.565 188.279C164.412 188.278 164.261 188.247 164.12 188.186L144.27 179.322C144.004 179.203 143.796 178.984 143.693 178.712C143.589 178.44 143.598 178.138 143.717 177.873C143.836 177.607 144.056 177.4 144.329 177.296C144.601 177.193 144.904 177.202 145.17 177.321L165.031 186.185C165.244 186.295 165.416 186.472 165.519 186.689C165.621 186.906 165.65 187.151 165.599 187.386C165.548 187.621 165.422 187.832 165.239 187.988C165.056 188.144 164.826 188.235 164.586 188.248L164.565 188.279Z" fill="#3C4A58"/>
<path d="M137.392 237.294H137.081C136.503 237.209 135.983 236.9 135.632 236.435C135.281 235.969 135.129 235.384 135.209 234.807L145.977 158.788C146.002 158.489 146.087 158.199 146.229 157.935C146.37 157.67 146.564 157.438 146.799 157.251C147.034 157.064 147.304 156.927 147.594 156.848C147.884 156.77 148.186 156.751 148.484 156.793C148.781 156.835 149.067 156.938 149.323 157.094C149.579 157.25 149.8 157.457 149.973 157.702C150.147 157.947 150.268 158.225 150.329 158.518C150.391 158.811 150.392 159.114 150.332 159.407L139.574 235.405C139.497 235.929 139.235 236.407 138.834 236.754C138.434 237.1 137.922 237.292 137.392 237.294Z" fill="#514260"/>
<path d="M172.199 237.273H171.889C171.361 237.273 170.85 237.083 170.451 236.738C170.052 236.393 169.791 235.916 169.716 235.395L164.369 197.742L164.038 195.482L161.969 180.808L161.638 178.549L158.928 159.407C158.867 159.113 158.867 158.809 158.928 158.515C158.99 158.221 159.111 157.942 159.284 157.696C159.458 157.451 159.68 157.243 159.937 157.087C160.195 156.93 160.481 156.828 160.78 156.786C161.078 156.744 161.382 156.764 161.672 156.844C161.963 156.924 162.233 157.063 162.468 157.251C162.703 157.44 162.896 157.675 163.036 157.941C163.176 158.207 163.26 158.499 163.282 158.798L165.899 177.218L166.127 178.848L168.341 194.491L168.496 195.523L174.051 234.734C174.099 235.023 174.089 235.318 174.022 235.602C173.955 235.887 173.832 236.155 173.659 236.392C173.487 236.628 173.269 236.828 173.018 236.979C172.767 237.13 172.489 237.23 172.199 237.273V237.273Z" fill="#514260"/>
<path d="M154.614 237.294C153.58 237.294 152.752 236.798 152.752 236.2V160.191C152.752 159.593 153.58 159.098 154.614 159.098C155.649 159.098 156.476 159.593 156.476 160.191V236.2C156.486 236.798 155.649 237.294 154.614 237.294Z" fill="#514260"/>
<path d="M165.238 156.26H144.032C143.027 156.26 142.212 157.073 142.212 158.076V161.244C142.212 162.247 143.027 163.06 144.032 163.06H165.238C166.243 163.06 167.058 162.247 167.058 161.244V158.076C167.058 157.073 166.243 156.26 165.238 156.26Z" fill="#F19B2C"/>
<path d="M190.746 229.647H117.779C116.043 229.647 114.635 231.052 114.635 232.784V239.863C114.635 241.596 116.043 243 117.779 243H190.746C192.482 243 193.89 241.596 193.89 239.863V232.784C193.89 231.052 192.482 229.647 190.746 229.647Z" fill="#FFAC42"/>
<path d="M200.252 168.746L200.324 169.86L201.193 169.324L200.252 168.746ZM200.583 173.534V174.256L201.152 173.916L200.583 173.534ZM200.904 178.322V178.652L201.152 178.497L200.904 178.322ZM200.252 168.746L200.324 169.86L201.193 169.324L200.252 168.746ZM200.583 173.534V174.256L201.152 173.916L200.583 173.534ZM200.904 178.322V178.652L201.152 178.497L200.904 178.322ZM200.252 168.746L200.324 169.86L201.193 169.324L200.252 168.746ZM200.624 174.256L201.193 173.916L200.583 173.534L200.624 174.256ZM200.935 178.652L201.183 178.497L200.904 178.322L200.935 178.652ZM202.321 180.716L202.186 178.652V178.59L201.897 174.256V173.854V173.596L201.638 169.85V169.582V169.148V168.808L201.41 165.444L201.359 164.794V164.082L200.324 149.636C200.316 149.475 200.246 149.324 200.128 149.214C200.01 149.104 199.854 149.045 199.693 149.047C199.534 149.047 199.381 149.108 199.265 149.218C199.15 149.327 199.081 149.477 199.073 149.636L198.059 162.183V162.813L197.759 166.785V166.868V167.178V167.549L196.849 180.778C196.844 180.863 196.857 180.949 196.887 181.029C196.917 181.109 196.964 181.181 197.025 181.242C197.082 181.306 197.152 181.357 197.231 181.392C197.309 181.428 197.394 181.447 197.48 181.448H201.762C201.929 181.446 202.088 181.379 202.205 181.261C202.323 181.144 202.39 180.985 202.393 180.819C202.373 180.775 202.349 180.734 202.321 180.695V180.716ZM198.111 180.2L198.349 176.733V176.33V176.021V175.567L198.576 172.327V171.615V171.553V170.779L198.762 167.921L198.814 167.219V166.755V165.991L198.98 163.514V162.813L199.259 158.747L199.559 163.164L199.621 163.927L199.714 165.423V166.125L199.848 167.952L199.9 168.715L199.973 169.83V170.531L200.128 172.739V173.503V174.225V174.937L200.304 177.527V178.291V178.621V179.333L200.366 180.2H198.111ZM200.904 178.291V178.621L201.152 178.466L200.904 178.291ZM200.583 173.503V174.225L201.152 173.885L200.583 173.503ZM200.252 168.715L200.324 169.83L201.193 169.293L200.252 168.715ZM200.904 178.291V178.621L201.152 178.466L200.904 178.291ZM200.583 173.503V174.225L201.152 173.885L200.583 173.503ZM200.252 168.715L200.324 169.83L201.193 169.293L200.252 168.715ZM200.904 178.291V178.621L201.152 178.466L200.904 178.291ZM200.583 173.503V174.225L201.152 173.885L200.583 173.503ZM200.252 168.715L200.324 169.83L201.193 169.293L200.252 168.715Z" fill="#2C3A48"/>
<path d="M197.598 175.564L197.269 176.101L201.364 178.598L201.693 178.061L197.598 175.564Z" fill="#2C3A48"/>
<path d="M197.77 171.076L197.441 171.613L201.537 174.109L201.866 173.572L197.77 171.076Z" fill="#2C3A48"/>
<path d="M201.566 169.551L201.193 169.324L200.252 168.746L198.938 167.951L198.028 167.394L197.738 167.219L197.759 166.909L197.831 166.785L197.945 166.61L198.028 166.661L198.638 167.033L198.99 167.25L200.2 167.982L201.514 168.777L201.535 169.117L201.566 169.551Z" fill="#2C3A48"/>
<path d="M201.235 164.763L201.193 164.742L199.931 163.958L199.238 163.545L198.038 162.812L198.08 162.173L198.111 162.131L199.29 162.843L199.869 163.194L201.183 163.999L201.235 164.711V164.763Z" fill="#2C3A48"/>
<path d="M201.89 178.076L197.796 180.575L198.126 181.112L202.22 178.613L201.89 178.076Z" fill="#C5D3E1"/>
<path d="M201.886 174.225L200.676 174.968L198.638 176.206L198.369 176.361L198.028 176.568L197.945 176.629L197.831 176.454L197.614 176.093L198.028 175.835L198.421 175.598L200.624 174.256L201.193 173.916L201.71 173.596L201.793 173.72L201.855 173.823L201.886 174.225Z" fill="#2C3A48"/>
<path d="M201.586 169.819L200.376 170.562L198.7 171.583L198.638 171.614L198.038 171.986L197.78 172.151L197.469 171.645L197.459 171.625L197.449 171.604L197.469 171.594L198.038 171.253L198.752 170.809L200.324 169.86L201.193 169.324L201.535 169.117L201.566 169.551L201.586 169.819Z" fill="#2C3A48"/>
<path d="M201.286 165.413L200.066 166.156L199.021 166.796L198.638 167.033L198.028 167.394L197.718 167.59L197.738 167.219L197.759 166.909V166.827L197.831 166.785L198.028 166.662L199.073 166.022L200.024 165.454L201.193 164.742L201.235 164.711V164.763L201.286 165.413Z" fill="#2C3A48"/>
<path d="M226.66 178.353H226.505L222.823 177.527C222.699 177.498 222.586 177.438 222.492 177.353C222.398 177.269 222.326 177.162 222.285 177.042C222.248 176.919 222.245 176.789 222.274 176.664C222.303 176.54 222.363 176.425 222.45 176.33L243.738 153.371C243.862 153.223 244.039 153.13 244.231 153.113C244.423 153.095 244.614 153.155 244.762 153.278C244.91 153.401 245.003 153.578 245.021 153.77C245.038 153.961 244.979 154.152 244.855 154.3L227.271 178.033C227.202 178.131 227.111 178.212 227.005 178.267C226.898 178.323 226.78 178.352 226.66 178.353V178.353ZM224.374 176.371L226.36 176.815L235.866 163.989L224.374 176.371Z" fill="#2C3A48"/>
<path d="M220.237 174.339H208.744C208.681 174.349 208.616 174.344 208.555 174.327C208.493 174.309 208.436 174.279 208.387 174.237C208.338 174.195 208.299 174.144 208.273 174.086C208.246 174.027 208.232 173.964 208.232 173.9C208.232 173.836 208.246 173.773 208.273 173.715C208.299 173.657 208.338 173.605 208.387 173.563C208.436 173.522 208.493 173.491 208.555 173.474C208.616 173.456 208.681 173.452 208.744 173.462H220.237C220.342 173.478 220.437 173.531 220.506 173.611C220.576 173.692 220.614 173.794 220.614 173.9C220.614 174.006 220.576 174.109 220.506 174.189C220.437 174.27 220.342 174.323 220.237 174.339V174.339Z" fill="#514260"/>
<path d="M218.012 156.622H210.968C210.905 156.631 210.84 156.627 210.778 156.61C210.717 156.592 210.66 156.561 210.611 156.52C210.562 156.478 210.523 156.426 210.496 156.368C210.47 156.31 210.456 156.247 210.456 156.183C210.456 156.119 210.47 156.056 210.496 155.998C210.523 155.94 210.562 155.888 210.611 155.846C210.66 155.805 210.717 155.774 210.778 155.756C210.84 155.739 210.905 155.735 210.968 155.744H218.012C218.117 155.761 218.213 155.814 218.282 155.894C218.352 155.974 218.39 156.077 218.39 156.183C218.39 156.289 218.352 156.391 218.282 156.472C218.213 156.552 218.117 156.605 218.012 156.622V156.622Z" fill="#514260"/>
<path d="M208.961 173.688C208.876 173.691 208.792 173.668 208.72 173.622C208.648 173.576 208.591 173.509 208.558 173.43C208.534 173.378 208.52 173.322 208.518 173.265C208.516 173.207 208.525 173.15 208.545 173.096C208.566 173.042 208.596 172.993 208.636 172.951C208.675 172.91 208.723 172.876 208.775 172.853L219.843 167.92C219.896 167.896 219.953 167.883 220.011 167.882C220.069 167.881 220.127 167.891 220.181 167.912C220.235 167.933 220.284 167.965 220.326 168.005C220.367 168.046 220.4 168.094 220.423 168.147C220.468 168.254 220.469 168.374 220.427 168.482C220.384 168.591 220.301 168.678 220.195 168.725L209.137 173.657L208.961 173.688Z" fill="#514260"/>
<path d="M220.019 163.143C219.979 163.252 219.897 163.341 219.792 163.391L218.375 164.02L210.099 167.714L209.562 167.951C209.504 167.965 209.444 167.965 209.386 167.951C209.3 167.954 209.216 167.931 209.144 167.885C209.072 167.839 209.016 167.772 208.982 167.694C208.958 167.641 208.945 167.585 208.942 167.528C208.94 167.47 208.95 167.413 208.97 167.359C208.99 167.305 209.021 167.256 209.06 167.214C209.1 167.173 209.147 167.139 209.2 167.116L210.234 166.651L218.261 163.071L219.45 162.544C219.541 162.505 219.642 162.497 219.737 162.522C219.833 162.546 219.917 162.601 219.978 162.679L220.019 163.143Z" fill="#514260"/>
<path d="M210.099 163.215C210.015 163.214 209.932 163.189 209.861 163.143C209.79 163.098 209.733 163.033 209.696 162.957C209.672 162.904 209.659 162.847 209.658 162.79C209.656 162.732 209.666 162.674 209.688 162.62C209.709 162.566 209.741 162.517 209.781 162.476C209.822 162.435 209.87 162.402 209.924 162.379L218.747 158.448C218.851 158.414 218.964 158.42 219.064 158.464C219.165 158.509 219.245 158.589 219.29 158.688C219.335 158.788 219.341 158.901 219.308 159.005C219.274 159.109 219.204 159.197 219.109 159.253L210.327 163.174C210.256 163.206 210.177 163.22 210.099 163.215V163.215Z" fill="#514260"/>
<path d="M219.078 156.466C219.038 156.518 218.984 156.558 218.923 156.58L217.413 157.261L211.206 160.047L210.451 160.377C210.393 160.392 210.333 160.392 210.275 160.377C210.19 160.377 210.107 160.353 210.036 160.307C209.964 160.261 209.907 160.196 209.872 160.119C209.848 160.067 209.834 160.011 209.832 159.953C209.83 159.896 209.839 159.839 209.859 159.785C209.879 159.731 209.91 159.682 209.95 159.64C209.989 159.598 210.036 159.565 210.089 159.541L211.351 158.974L217.33 156.312L218.602 155.744C218.667 155.708 218.74 155.689 218.814 155.689C218.888 155.689 218.961 155.708 219.026 155.744L219.078 156.466Z" fill="#514260"/>
<path d="M220.019 173.688C219.961 173.699 219.901 173.699 219.843 173.688L208.775 168.756C208.723 168.733 208.675 168.699 208.636 168.657C208.596 168.615 208.566 168.566 208.545 168.512C208.525 168.459 208.516 168.401 208.518 168.344C208.52 168.287 208.534 168.23 208.558 168.178C208.579 168.124 208.612 168.075 208.653 168.033C208.694 167.992 208.744 167.96 208.798 167.938C208.852 167.917 208.911 167.907 208.969 167.909C209.027 167.912 209.085 167.926 209.137 167.951L220.195 172.884C220.29 172.921 220.369 172.991 220.417 173.081C220.466 173.171 220.481 173.275 220.46 173.375C220.439 173.475 220.383 173.565 220.302 173.628C220.222 173.69 220.121 173.723 220.019 173.719V173.688Z" fill="#514260"/>
<path d="M219.419 167.993C219.362 168.007 219.301 168.007 219.243 167.993L209.375 163.597C209.281 163.542 209.21 163.453 209.177 163.349C209.143 163.245 209.15 163.132 209.194 163.033C209.239 162.933 209.32 162.853 209.42 162.809C209.52 162.764 209.633 162.758 209.737 162.792L219.605 167.198C219.658 167.222 219.705 167.255 219.745 167.297C219.784 167.339 219.815 167.388 219.835 167.442C219.855 167.496 219.865 167.553 219.863 167.61C219.86 167.668 219.847 167.724 219.823 167.776C219.783 167.847 219.724 167.905 219.653 167.943C219.581 167.982 219.5 167.999 219.419 167.993V167.993Z" fill="#514260"/>
<path d="M218.747 163.008C218.686 163.023 218.622 163.023 218.561 163.008L210.048 159.211C209.995 159.187 209.948 159.154 209.909 159.112C209.87 159.07 209.839 159.021 209.819 158.967C209.799 158.913 209.79 158.856 209.792 158.799C209.793 158.742 209.807 158.685 209.83 158.633C209.854 158.581 209.888 158.534 209.93 158.495C209.972 158.456 210.021 158.425 210.075 158.405C210.129 158.385 210.186 158.376 210.244 158.378C210.301 158.38 210.357 158.393 210.41 158.417L218.923 162.204C219.03 162.253 219.113 162.342 219.156 162.452C219.198 162.562 219.196 162.683 219.15 162.792C219.108 162.86 219.049 162.916 218.978 162.954C218.907 162.992 218.827 163.011 218.747 163.008V163.008Z" fill="#514260"/>
<path d="M218.457 160.243C218.399 160.254 218.34 160.254 218.281 160.243L210.337 156.704C210.285 156.68 210.237 156.647 210.198 156.605C210.158 156.563 210.128 156.514 210.107 156.46C210.087 156.406 210.078 156.349 210.08 156.292C210.082 156.234 210.096 156.178 210.12 156.126C210.168 156.02 210.255 155.937 210.363 155.894C210.472 155.852 210.592 155.854 210.699 155.899L218.633 159.438C218.739 159.486 218.823 159.573 218.865 159.681C218.908 159.789 218.906 159.909 218.861 160.016C218.819 160.086 218.76 160.143 218.689 160.183C218.619 160.223 218.539 160.244 218.457 160.243V160.243Z" fill="#514260"/>
<path d="M207.606 179.818H207.482C207.364 179.802 207.25 179.762 207.147 179.701C207.045 179.639 206.955 179.558 206.885 179.462C206.814 179.366 206.764 179.256 206.737 179.14C206.71 179.024 206.707 178.904 206.727 178.786L211.03 148.428C211.046 148.31 211.086 148.197 211.148 148.095C211.209 147.993 211.291 147.905 211.388 147.835C211.484 147.766 211.594 147.717 211.711 147.691C211.827 147.665 211.947 147.663 212.065 147.685C212.183 147.7 212.298 147.739 212.401 147.8C212.504 147.861 212.593 147.942 212.663 148.039C212.733 148.136 212.782 148.246 212.807 148.363C212.832 148.479 212.833 148.6 212.809 148.717L208.475 179.065C208.443 179.273 208.339 179.462 208.179 179.6C208.02 179.738 207.817 179.815 207.606 179.818V179.818Z" fill="#2C3A48"/>
<path d="M221.498 179.808H221.374C221.163 179.807 220.959 179.731 220.799 179.593C220.639 179.454 220.535 179.263 220.505 179.054L218.374 164.01L218.25 163.102L217.413 157.251L217.288 156.343L216.202 148.697C216.182 148.58 216.185 148.46 216.211 148.345C216.238 148.229 216.287 148.12 216.356 148.024C216.426 147.928 216.514 147.846 216.615 147.785C216.717 147.723 216.83 147.682 216.947 147.665C217.064 147.641 217.185 147.642 217.302 147.667C217.419 147.692 217.53 147.741 217.627 147.811C217.724 147.881 217.806 147.97 217.867 148.072C217.928 148.175 217.967 148.289 217.981 148.408L219.016 155.765L219.109 156.415L219.999 162.668V163.091L222.222 178.766C222.246 178.882 222.246 179.001 222.222 179.117C222.199 179.234 222.151 179.344 222.084 179.441C222.016 179.538 221.929 179.621 221.829 179.684C221.728 179.747 221.616 179.789 221.498 179.808V179.808Z" fill="#2C3A48"/>
<path d="M214.485 179.374C214.071 179.374 213.74 179.178 213.74 178.941V148.583C213.74 148.345 214.071 148.149 214.485 148.149C214.899 148.149 215.23 148.345 215.23 148.583V178.941C215.23 179.168 214.899 179.374 214.485 179.374Z" fill="#2C3A48"/>
<path d="M217.247 147.561L215.178 139.523C215.113 139.385 215.01 139.269 214.881 139.187C214.751 139.106 214.602 139.062 214.449 139.062C214.296 139.062 214.147 139.106 214.017 139.187C213.888 139.269 213.785 139.385 213.72 139.523L211.651 147.561C211.61 147.723 211.635 147.894 211.72 148.037C211.806 148.18 211.944 148.284 212.106 148.325H212.261C212.401 148.323 212.536 148.275 212.646 148.19C212.756 148.104 212.836 147.985 212.872 147.85L214.402 141.731L215.944 147.85C215.98 147.985 216.059 148.104 216.169 148.19C216.279 148.275 216.414 148.323 216.554 148.325H216.709C216.796 148.313 216.879 148.283 216.954 148.237C217.029 148.191 217.093 148.131 217.144 148.059C217.194 147.988 217.229 147.907 217.247 147.821C217.265 147.735 217.265 147.647 217.247 147.561V147.561Z" fill="#2C3A48"/>
<path d="M218.726 147.448H210.244C209.844 147.448 209.52 147.771 209.52 148.17V149.439C209.52 149.838 209.844 150.162 210.244 150.162H218.726C219.126 150.162 219.45 149.838 219.45 149.439V148.17C219.45 147.771 219.126 147.448 218.726 147.448Z" fill="#FFAC42"/>
<path d="M216.606 142.34H212.365C212.165 142.34 212.003 142.502 212.003 142.701V143.341C212.003 143.54 212.165 143.702 212.365 143.702H216.606C216.806 143.702 216.968 143.54 216.968 143.341V142.701C216.968 142.502 216.806 142.34 216.606 142.34Z" fill="#FFAC42"/>
<path d="M212.799 173.461H204.493C203.802 173.461 203.241 174.02 203.241 174.71V178.858C203.241 179.548 203.802 180.107 204.493 180.107H212.799C213.49 180.107 214.051 179.548 214.051 178.858V174.71C214.051 174.02 213.49 173.461 212.799 173.461Z" fill="#514260"/>
<path d="M228.584 175.958H213.254C212.563 175.958 212.003 176.517 212.003 177.207V178.569C212.003 179.259 212.563 179.818 213.254 179.818H228.584C229.275 179.818 229.836 179.259 229.836 178.569V177.207C229.836 176.517 229.275 175.958 228.584 175.958Z" fill="#3C4A58"/>
<path d="M202.279 194.966C202.141 194.965 202.005 194.933 201.88 194.875C201.755 194.816 201.644 194.731 201.555 194.626C201.478 194.531 201.421 194.422 201.387 194.305C201.352 194.189 201.342 194.066 201.355 193.945C201.368 193.824 201.406 193.707 201.465 193.601C201.524 193.494 201.604 193.401 201.7 193.325L214.475 183.007C214.573 182.93 214.685 182.873 214.804 182.84C214.924 182.807 215.049 182.797 215.173 182.812C215.296 182.827 215.415 182.866 215.524 182.927C215.632 182.987 215.727 183.069 215.804 183.167C215.881 183.264 215.938 183.376 215.971 183.495C216.005 183.615 216.014 183.74 215.999 183.863C215.984 183.986 215.945 184.105 215.884 184.213C215.823 184.321 215.742 184.416 215.644 184.493L202.869 194.811C202.694 194.925 202.487 194.979 202.279 194.966V194.966Z" fill="#F19B2C"/>
<path d="M228.915 194.966C228.704 194.966 228.5 194.893 228.336 194.76L215.551 184.441C215.361 184.286 215.241 184.062 215.215 183.818C215.19 183.575 215.262 183.331 215.416 183.141C215.57 182.952 215.793 182.832 216.035 182.807C216.277 182.782 216.52 182.854 216.709 183.007L229.494 193.325C229.64 193.447 229.745 193.61 229.795 193.792C229.845 193.974 229.838 194.168 229.775 194.346C229.712 194.525 229.596 194.68 229.442 194.79C229.289 194.901 229.105 194.962 228.915 194.966V194.966Z" fill="#F19B2C"/>
<path d="M201.359 180.819H195.918C195.409 180.819 194.997 181.23 194.997 181.737V194.914C194.997 195.422 195.409 195.833 195.918 195.833H201.359C201.867 195.833 202.279 195.422 202.279 194.914V181.737C202.279 181.23 201.867 180.819 201.359 180.819Z" fill="#F19B2C"/>
<path d="M234.646 180.819H229.205C228.696 180.819 228.284 181.23 228.284 181.737V194.914C228.284 195.422 228.696 195.833 229.205 195.833H234.646C235.154 195.833 235.566 195.422 235.566 194.914V181.737C235.566 181.23 235.154 180.819 234.646 180.819Z" fill="#F19B2C"/>
<path d="M237.811 178.477H192.794C192.285 178.477 191.873 178.888 191.873 179.395V182.852C191.873 183.359 192.285 183.77 192.794 183.77H237.811C238.319 183.77 238.732 183.359 238.732 182.852V179.395C238.732 178.888 238.319 178.477 237.811 178.477Z" fill="#F7B23F"/>
<path d="M202.279 187.464H194.997V189.435H202.279V187.464Z" fill="#F7B23F"/>
<path d="M202.279 192.066H194.997V194.048H202.279V192.066Z" fill="#F7B23F"/>
<path d="M235.566 187.464H228.284V189.435H235.566V187.464Z" fill="#F7B23F"/>
<path d="M235.566 192.066H228.284V194.048H235.566V192.066Z" fill="#F7B23F"/>
<path d="M238.732 179.395H191.873V180.819H238.732V179.395Z" fill="#F19B2C"/>
<path d="M202.714 195.275C202.714 195.275 219.44 190.952 231.181 193.862C238.597 195.688 237.449 195.802 242.021 195.719C242.021 195.719 230.787 201.312 211.651 196.452C211.651 196.452 207.555 195.884 202.714 195.275Z" fill="#514260"/>
<path d="M186.846 195.678C186.846 195.678 193.125 192.252 199.124 192.975C203.934 193.563 220.847 198.856 228.232 195.678C228.232 195.678 224.674 202.726 197.956 196.772C197.956 196.813 195.504 194.006 186.846 195.678Z" fill="#2C3A48"/>
<path d="M212.323 196.297C212.323 196.442 207.42 198.258 201.152 197.247C194.883 196.235 189.949 196.339 189.97 196.483C189.97 196.215 195.039 193.79 201.142 195.534C207.245 197.278 212.303 196.566 212.323 196.297Z" fill="#5C6A78"/>
<path d="M240.521 196.369C240.521 196.576 235.008 199.279 227.953 197.762C220.898 196.246 215.344 196.369 215.354 196.576C215.354 196.173 221.054 192.551 227.932 195.183C234.811 197.814 240.469 196.772 240.521 196.369Z" fill="#2C3A48"/>
<path d="M112.483 219.845H93.3469V225.025H112.483V219.845Z" fill="#3C4A58"/>
<path d="M127.141 240.131C127.139 240.469 127.071 240.803 126.941 241.114C126.81 241.425 126.619 241.708 126.379 241.945C126.139 242.183 125.854 242.371 125.541 242.499C125.228 242.627 124.893 242.692 124.555 242.69H81.348C81.0097 242.692 80.6745 242.627 80.3615 242.499C80.0485 242.371 79.7638 242.183 79.5237 241.945C79.2835 241.708 79.0927 241.425 78.962 241.114C78.8313 240.803 78.7633 240.469 78.762 240.131V238.181C78.7633 237.844 78.8313 237.51 78.962 237.199C79.0927 236.887 79.2835 236.605 79.5237 236.367C79.7638 236.13 80.0485 235.942 80.3615 235.814C80.6745 235.686 81.0097 235.621 81.348 235.622H124.555C124.893 235.621 125.228 235.686 125.541 235.814C125.854 235.942 126.139 236.13 126.379 236.367C126.619 236.605 126.81 236.887 126.941 237.199C127.071 237.51 127.139 237.844 127.141 238.181V240.131Z" fill="#2C3A48"/>
<path d="M120.883 241.679C120.561 241.841 120.21 241.937 119.851 241.963C119.491 241.99 119.13 241.945 118.788 241.832C118.446 241.719 118.13 241.539 117.857 241.304C117.585 241.069 117.362 240.783 117.2 240.461L111.273 228.698C110.945 228.051 110.889 227.3 111.116 226.611C111.343 225.922 111.834 225.352 112.483 225.024L117.231 222.641C117.553 222.479 117.904 222.383 118.263 222.356C118.622 222.33 118.983 222.375 119.325 222.488C119.667 222.601 119.984 222.78 120.256 223.015C120.529 223.251 120.752 223.537 120.914 223.858L126.851 235.622C127.177 236.268 127.233 237.017 127.009 237.705C126.784 238.393 126.296 238.964 125.651 239.295L120.883 241.679Z" fill="#2C3A48"/>
<path d="M112.907 198.609V215.924C112.909 216.422 112.811 216.916 112.62 217.377C112.429 217.838 112.149 218.256 111.795 218.608C111.441 218.96 111.021 219.239 110.558 219.428C110.096 219.617 109.6 219.713 109.101 219.711H97.412C96.9105 219.716 96.4129 219.622 95.9481 219.434C95.4833 219.246 95.0606 218.968 94.7045 218.616C94.3484 218.263 94.0661 217.844 93.8738 217.382C93.6816 216.92 93.5833 216.424 93.5847 215.924V198.609C93.5875 197.609 93.9875 196.651 94.6972 195.945C95.4069 195.239 96.3683 194.842 97.3706 194.842H109.101C109.599 194.84 110.092 194.935 110.553 195.123C111.015 195.311 111.434 195.588 111.787 195.938C112.141 196.287 112.422 196.703 112.614 197.162C112.806 197.62 112.906 198.112 112.907 198.609V198.609Z" fill="#FBD099"/>
<path d="M85.02 241.679C85.3419 241.841 85.6925 241.937 86.0519 241.963C86.4112 241.99 86.7723 241.945 87.1143 241.832C87.4563 241.719 87.7726 241.539 88.0451 241.304C88.3176 241.069 88.541 240.783 88.7024 240.461L94.6192 228.698C94.7811 228.377 94.878 228.027 94.9043 227.669C94.9306 227.31 94.8857 226.95 94.7724 226.609C94.659 226.268 94.4793 225.952 94.2436 225.68C94.0079 225.408 93.7207 225.185 93.3986 225.024L88.6507 222.641C88.3288 222.479 87.9782 222.383 87.6188 222.356C87.2595 222.33 86.8985 222.375 86.5564 222.488C86.2144 222.601 85.8981 222.78 85.6256 223.015C85.3531 223.251 85.1297 223.537 84.9683 223.858L79.1032 235.622C78.9395 235.942 78.841 236.291 78.8133 236.65C78.7855 237.008 78.8292 237.368 78.9417 237.71C79.0542 238.051 79.2333 238.367 79.4688 238.639C79.7042 238.911 79.9913 239.134 80.3135 239.295L85.02 241.679Z" fill="#2C3A48"/>
<path d="M114.48 194.068V206.213C114.486 206.693 114.362 207.166 114.122 207.582C113.882 207.997 113.534 208.341 113.114 208.576C109.814 204.449 111.604 201.817 111.873 201.456L107.27 204.552L108.304 200.146C105.998 206.162 98.0017 208.06 93.202 208.679C92.729 208.464 92.3288 208.116 92.0497 207.679C91.7707 207.241 91.6248 206.732 91.6298 206.213V194.068C91.6298 193.708 91.701 193.352 91.8394 193.019C91.9778 192.687 92.1806 192.385 92.4363 192.131C92.6919 191.877 92.9953 191.676 93.3291 191.539C93.6629 191.402 94.0204 191.332 94.3813 191.334H111.738C112.099 191.332 112.456 191.402 112.789 191.539C113.122 191.676 113.425 191.877 113.68 192.131C113.935 192.386 114.136 192.688 114.274 193.02C114.411 193.352 114.481 193.709 114.48 194.068V194.068Z" fill="#7D4C2E"/>
<path d="M112.98 221.63C113.021 221.767 113.042 221.91 113.042 222.053V240.534C113.039 240.915 112.885 241.28 112.614 241.549C112.343 241.817 111.976 241.968 111.594 241.968H94.6191C94.4294 241.97 94.2413 241.934 94.0657 241.862C93.89 241.791 93.7303 241.685 93.5957 241.552C93.4611 241.418 93.3542 241.26 93.2813 241.085C93.2084 240.911 93.1709 240.723 93.1709 240.534V222.053C93.1704 221.91 93.1914 221.767 93.233 221.63H112.98Z" fill="#F2F2F2"/>
<path d="M118.41 242.608L119.59 224.364C119.59 223.639 119.301 222.944 118.787 222.431C118.273 221.918 117.575 221.63 116.848 221.63H88.4128C87.6858 221.63 86.9886 221.918 86.4745 222.431C85.9604 222.944 85.6716 223.639 85.6716 224.364L86.8612 242.608H118.41Z" fill="#2C3A48"/>
<path d="M107.508 224.788C107.505 225.169 107.351 225.534 107.08 225.802C106.809 226.071 106.442 226.222 106.06 226.222H100.288C99.9063 226.222 99.5406 226.071 99.271 225.802C99.0013 225.533 98.8499 225.168 98.8499 224.788V218.483C98.8498 218.101 99.001 217.735 99.2703 217.465C99.5397 217.194 99.9054 217.041 100.288 217.038H106.06C106.444 217.038 106.812 217.19 107.084 217.461C107.355 217.732 107.508 218.1 107.508 218.483V224.788Z" fill="#FBD099"/>
<path d="M116 198.175C116 190.735 110.053 184.204 102.667 184.204C95.2813 184.204 89.2197 190.766 89.2197 198.217H89.3025V198.887C89.3025 199.114 89.3929 199.332 89.5539 199.493C89.715 199.653 89.9333 199.744 90.161 199.744H115.152C115.38 199.744 115.598 199.653 115.759 199.493C115.92 199.332 116.011 199.114 116.011 198.887V198.186L116 198.175Z" fill="#FFAC42"/>
<path d="M110.396 186.818L105.101 192.087C104.765 192.421 104.765 192.963 105.1 193.298L105.779 193.977C106.114 194.312 106.657 194.313 106.993 193.979L112.288 188.71C112.623 188.376 112.624 187.833 112.289 187.498L111.61 186.819C111.275 186.484 110.731 186.484 110.396 186.818Z" fill="#FFAC42"/>
<path d="M113.042 197.061C113.042 197.189 112.991 197.313 112.899 197.404C112.808 197.495 112.685 197.546 112.556 197.546H92.3436C92.2146 197.546 92.091 197.495 91.9998 197.404C91.9086 197.313 91.8574 197.189 91.8574 197.061V197.061C91.8574 196.932 91.9086 196.809 91.9998 196.718C92.091 196.627 92.2146 196.576 92.3436 196.576H112.556C112.685 196.576 112.808 196.627 112.899 196.718C112.991 196.809 113.042 196.932 113.042 197.061V197.061Z" fill="#FFAC42"/>
<path d="M102.884 183.563H101.922C101.448 183.563 101.063 183.947 101.063 184.42V191.88C101.063 192.353 101.448 192.737 101.922 192.737H102.884C103.358 192.737 103.743 192.353 103.743 191.88V184.42C103.743 183.947 103.358 183.563 102.884 183.563Z" fill="#FFAC42"/>
<path d="M99.8946 192.087C100.054 192.247 100.144 192.464 100.144 192.69C100.144 192.917 100.054 193.134 99.8946 193.294L99.2119 193.975C99.0511 194.135 98.8335 194.224 98.6068 194.224C98.3801 194.224 98.1625 194.135 98.0017 193.975L92.7056 188.692C92.5457 188.531 92.4561 188.314 92.4561 188.088C92.4561 187.862 92.5457 187.645 92.7056 187.485L93.3883 186.804C93.5491 186.644 93.7666 186.555 93.9934 186.555C94.2201 186.555 94.4377 186.644 94.5985 186.804L99.8946 192.087Z" fill="#FFAC42"/>
<path d="M99.8945 193.305L99.429 193.748L92.9434 187.258L93.3882 186.814C93.4671 186.734 93.5613 186.67 93.6652 186.627C93.7691 186.583 93.8806 186.561 93.9933 186.561C94.1059 186.561 94.2175 186.583 94.3214 186.627C94.4253 186.67 94.5194 186.734 94.5984 186.814L99.8945 192.087C99.9752 192.167 100.039 192.262 100.083 192.366C100.127 192.471 100.149 192.583 100.149 192.696C100.149 192.809 100.127 192.921 100.083 193.026C100.039 193.13 99.9752 193.225 99.8945 193.305Z" fill="#F19B2C"/>
<path d="M103.039 192.737H102.398V183.564H103.029C103.142 183.562 103.254 183.583 103.359 183.626C103.464 183.668 103.559 183.732 103.639 183.811C103.719 183.891 103.782 183.986 103.825 184.091C103.868 184.195 103.889 184.307 103.887 184.42V191.88C103.889 191.992 103.868 192.104 103.826 192.207C103.784 192.311 103.722 192.406 103.643 192.485C103.564 192.565 103.47 192.628 103.366 192.672C103.263 192.715 103.152 192.737 103.039 192.737Z" fill="#F19B2C"/>
<path d="M105.791 193.965L105.346 193.511L111.852 187.041L112.297 187.485C112.377 187.563 112.441 187.657 112.485 187.761C112.528 187.865 112.551 187.976 112.551 188.088C112.551 188.201 112.528 188.312 112.485 188.416C112.441 188.519 112.377 188.613 112.297 188.692L107.032 193.965C106.954 194.053 106.859 194.123 106.752 194.171C106.645 194.22 106.529 194.244 106.411 194.244C106.294 194.244 106.178 194.22 106.071 194.171C105.964 194.123 105.868 194.053 105.791 193.965V193.965Z" fill="#F19B2C"/>
<path d="M103.691 228.708H101.105V242.536H103.691V228.708Z" fill="#3C4A58"/>
<path d="M91.1537 220.708L89.388 224.713C89.0177 225.553 89.4 226.533 90.242 226.903L99.7485 231.074C100.59 231.443 101.573 231.062 101.943 230.222L103.709 226.217C104.079 225.377 103.697 224.396 102.855 224.027L93.3486 219.856C92.5067 219.487 91.524 219.868 91.1537 220.708Z" fill="#4D5A68"/>
<path d="M111.918 219.85L102.412 224.021C101.57 224.39 101.187 225.37 101.558 226.21L103.323 230.215C103.694 231.055 104.676 231.436 105.518 231.067L115.025 226.896C115.867 226.527 116.249 225.547 115.879 224.707L114.113 220.702C113.743 219.862 112.76 219.48 111.918 219.85Z" fill="#4D5A68"/>
<path d="M117.541 234.198H106.815C106.323 234.198 105.925 234.596 105.925 235.086V240.441C105.925 240.931 106.323 241.329 106.815 241.329H117.541C118.033 241.329 118.431 240.931 118.431 240.441V235.086C118.431 234.596 118.033 234.198 117.541 234.198Z" fill="#3C4A58"/>
<path d="M115.597 235.746C115.597 236.422 115.396 237.083 115.019 237.645C114.642 238.207 114.107 238.644 113.481 238.903C112.855 239.161 112.166 239.228 111.501 239.095C110.837 238.963 110.227 238.636 109.748 238.158C109.27 237.679 108.944 237.069 108.814 236.406C108.683 235.743 108.752 235.056 109.013 234.432C109.273 233.808 109.714 233.275 110.278 232.901C110.843 232.527 111.506 232.329 112.183 232.331C112.632 232.331 113.077 232.419 113.492 232.591C113.907 232.763 114.284 233.014 114.601 233.332C114.918 233.649 115.169 234.025 115.34 234.44C115.511 234.854 115.598 235.298 115.597 235.746V235.746Z" fill="#D9E5F2"/>
<path d="M113.414 236.427C113.414 237.386 112.866 238.16 112.183 238.16C111.501 238.16 110.952 237.386 110.952 236.427C111.188 235.334 111.604 234.288 112.183 233.331C112.762 234.288 113.178 235.334 113.414 236.427V236.427Z" fill="#2C3A48"/>
<path d="M113.011 236.458C113.011 236.778 112.825 237.046 112.597 237.046C112.37 237.046 112.183 236.778 112.183 236.458C112.264 236.094 112.404 235.745 112.597 235.426C112.79 235.745 112.93 236.094 113.011 236.458V236.458Z" fill="white"/>
<path d="M106.66 194.213C106.66 194.32 106.638 194.426 106.597 194.525C106.556 194.624 106.496 194.713 106.42 194.789C106.344 194.865 106.254 194.925 106.155 194.966C106.056 195.007 105.95 195.028 105.842 195.028H100.06C99.9528 195.028 99.8465 195.007 99.7474 194.966C99.6482 194.925 99.5581 194.865 99.4823 194.789C99.4064 194.713 99.3462 194.624 99.3051 194.525C99.2641 194.426 99.2429 194.32 99.2429 194.213V194.213C99.2429 193.996 99.329 193.789 99.4823 193.636C99.6355 193.483 99.8434 193.397 100.06 193.397H105.842C106.059 193.397 106.267 193.483 106.42 193.636C106.573 193.789 106.66 193.996 106.66 194.213V194.213Z" fill="white"/>
<path d="M203.862 230.101C203.862 236.881 199.973 242.37 195.163 242.37C190.353 242.37 186.474 236.881 186.474 230.101C186.474 223.322 195.163 208.236 195.163 208.236C195.163 208.236 203.862 223.332 203.862 230.101Z" fill="#2C3A48"/>
<path d="M200.593 232.888C200.593 234.951 199.383 236.716 197.883 236.716C196.383 236.716 195.163 235.003 195.163 232.888C195.163 230.772 197.883 226.067 197.883 226.067C197.883 226.067 200.593 230.762 200.593 232.888Z" fill="#F5F5F5"/>
</g>
</g>
<defs>
<clipPath id="clip0">
<rect width="320" height="301" fill="white"/>
</clipPath>
<clipPath id="clip1">
<rect width="169" height="134" fill="white" transform="translate(76 109)"/>
</clipPath>
</defs>
</svg>
